<?xml version="1.0" encoding="utf-8"?>
<!-- Generator: Adobe Illustrator 22.0.1, SVG Export Plug-In . SVG Version: 6.00 Build 0)  -->
<svg version="1.1" id="Layer_1" xmlns="http://www.w3.org/2000/svg" xmlns:xlink="http://www.w3.org/1999/xlink" x="0px" y="0px"
	 viewBox="0 0 65.9 72.1" style="enable-background:new 0 0 65.9 72.1;" xml:space="preserve">
<style type="text/css">
	.st0{fill:#A7CBDA;}
	.st1{fill:#231F20;}
</style>
<g id="Logo">
	<path class="st0" d="M35.5,12.5c-3.3,0.4-6.4,1.8-9.4,3.1c-2.1,0.9-4.2,1.9-5.6,3.6c-1.4,1.7-2,4.4-0.6,6.2c-3.1,0.7-6.4,1.6-8.4,4
		c-1.5,1.8-2.1,4.2-1.6,6.5s2.1,4.3,4.1,5.3c1.9,0.9,4.1,1.1,5.8,2.3c1.4,1,2.4,2.8,4.1,3.3c1.9,0.5,3.9-0.8,5.8-0.5
		c2.2,0.3,3.6,2.4,5.7,3c2.2,0.6,4.6-0.5,6.8,0c2.8,0.7,4.2,3.7,6,6c1.1,1.4,2.6,2.6,4.3,2.7c1.8,0.1,3.6-1.6,3.1-3.3
		c-0.3-0.9-1.1-1.6-1.8-2.3c-0.7-0.7-1.1-1.9-0.5-2.7c0.5-0.6,1.4-0.6,2.2-0.7c3.5-0.3,6.8-2.7,8.1-6c1.3-3.3,0.7-7.2-1.6-9.9
		c-0.9-1-2-1.9-2.6-3.1c-0.6-1.2-0.7-2.5-1-3.8c-0.8-3.6-3-6.8-6-8.9c-1.4-0.9-2.8-1.3-4.3-1.9c-1.9-0.8-3.6-1.9-5.6-2.5
		C40.2,12.3,37.8,12.1,35.5,12.5z"/>
	<path id="path26_9_" class="st1" d="M0,36C0,16.1,16,0,36.3,0c8.9,0,17,3.2,23.3,8.6v5.5c-5.8-6.2-14-10-23.1-10
		C18.7,4.1,4.8,18.3,4.8,35.9c0,17.6,13.9,31.8,31.7,31.8c9.1,0,17.3-3.8,23.1-10v5.8c-6.3,5.3-14.4,8.6-23.3,8.6
		C16,72.1,0,55.9,0,36L0,36L0,36z"/>
	<path class="st1" d="M65.5,36.4c-0.7-2.7-2.5-5.1-4.7-6.7l0-0.5c0-0.5,0-1.1-0.1-1.6c-0.1-1.1-0.4-2.1-0.7-3.1
		c-0.7-2-1.8-3.9-3.2-5.5c-1.4-1.6-3.2-2.8-5.1-3.7c-1.8-0.8-3.7-1.2-5.6-1.3c-1.2-1-2.5-1.9-4-2.5c-1.6-0.7-3.4-1-5.2-1
		c-1.8,0-3.5,0.4-5.2,1.1c-1.5,0.6-2.8,1.5-3.9,2.6c-1.8,0.1-3.5,0.7-5,1.6c-0.8,0.5-1.5,1.1-2.2,1.8c-0.3,0.3-0.6,0.7-0.9,1.1
		l-0.4,0.6c-0.2,0.2-0.3,0.5-0.4,0.7c-0.4,0.9-0.6,1.9-0.7,2.9c0,0.5,0.1,0.9,0.2,1.4c0.1,0.3,0.1,0.6,0.3,0.8
		c0,0.1,0.1,0.2,0.1,0.3c-0.7,0-1.4,0-2.1,0.1c-1.3,0.1-2.7,0.5-4,1.1c-1.3,0.7-2.5,1.7-3.3,3c-0.8,1.3-1.2,2.8-1.3,4.2
		c-0.1,1.4,0.1,3,0.6,4.4c0.6,1.4,1.4,2.7,2.5,3.7c1.1,1,2.4,1.8,3.8,2.3c0.7,0.2,1.4,0.4,2.2,0.5c0.4,0,0.7,0.1,1.1,0.1
		c0.5,0.9,1.2,1.8,2.1,2.5c1.1,0.9,2.5,1.6,3.9,1.8c0.4,0.1,0.7,0.1,1.1,0.1l0.5,0l0.4,0l1.8,0l2.9,0c1.2,1.2,2.8,2,4.5,2.3
		c0.5,0.1,1,0.1,1.5,0.1l1.2,0l1.4,0l5.3,0c1.5,2.5,3.5,4.6,5.6,6.9c0.4,0.4,0.7,0.8,1.1,1.2l0.7,0.8l0.9-0.6c1.5-1,2.4-1.7,3.6-2.8
		l0.8-0.8L57,55.3c-0.3-0.4-0.5-0.7-0.8-1.1c-0.7-1-1.4-1.9-2-2.8c0.2,0,0.4,0,0.7,0c0.8-0.1,1.5-0.2,2.3-0.4c3-0.9,5.6-2.9,7.2-5.5
		c0.8-1.3,1.3-2.8,1.5-4.4C66,39.4,65.9,37.9,65.5,36.4z M62.6,40.6c-0.1,1.1-0.5,2.2-1.1,3.1c-1.2,1.9-3.1,3.4-5.3,4.1
		c-0.5,0.2-1.1,0.3-1.7,0.3c-0.3,0-0.6,0-0.8,0l-0.9,0c-0.2,0-0.6,0-1.1,0c-0.8,0-1.4,0.8-1.1,1.6c1,2.4,2.4,4.3,3.8,6.2
		c0,0,0,0,0,0c-0.5,0.4-0.9,0.8-1.5,1.2c-0.1-0.1-0.3-0.3-0.4-0.4c-2.5-2.7-4.6-4.9-6-7.7c-0.2-0.4-0.6-0.7-1.1-0.7l-1.9,0
		c-1.4,0-2.6,0-2.8,0l-2.4,0l-1.2,0c-0.7,0-1.2-0.1-2.1-0.4c-0.7-0.2-1.4-0.7-1.8-1.3c-0.3-0.4-0.8-0.8-1.3-0.8l0,0l-3.5,0l-1.8,0
		l-0.4,0l-0.4,0c-0.2,0-0.5,0-0.7-0.1c-0.9-0.2-1.8-0.6-2.5-1.1c-0.4-0.3-0.7-0.6-1-1c-0.1-0.1-0.1-0.2-0.2-0.2
		c-0.4-0.6-0.7-1.2-0.7-1.9c0,0,0,0,0,0c0-0.4-0.1-0.8,0-1.2c0.1-0.4,0.2-0.8,0.4-1.3c0.2-0.4,0.5-0.9,0.7-1.3l0.1-0.1
		c0.1-0.2,0.2-0.5,0-0.7c-0.2-0.3-0.6-0.4-0.9-0.3c-0.6,0.3-1.1,0.7-1.5,1.1c-0.5,0.4-0.9,1-1.2,1.6c-0.3,0.6-0.6,1.3-0.6,2
		c0,0,0,0,0,0.1c0,0,0,0,0,0c-0.5,0-1-0.1-1.6-0.3c-1-0.3-2-0.8-2.8-1.5c-1.6-1.4-2.5-3.5-2.4-5.7c0.1-1.1,0.3-2.1,0.8-3.1
		c0.5-0.9,1.2-1.7,2.2-2.3c1.6-1.1,3.7-1.7,5.8-2.1c0.1,0.1,0.2,0.2,0.3,0.2c1,0.8,2.3,1.3,3.6,1.3c0.4,0,0.5,0,0.8,0
		c0.2,0,0.4,0,0.7,0.1c0.4,0.1,0.8,0.2,1,0.3c0.1,0.1,0.2,0.1,0.2,0.2v11.8c0,1.1,1,2,2.1,1.8c0.9-0.2,1.5-1,1.5-1.9l0-7.2
		c0-2.4,1.4-3.9,3.4-3.9c2,0,3.2,1.4,3.2,3.8l0,7.3c0,0.9,0.6,1.7,1.5,1.9c1.1,0.2,2.1-0.6,2.1-1.8v-7.3c0-2.5,1.4-3.9,3.4-3.9
		c2,0,3.2,1.3,3.2,3.9v5c0,0,0,0,0,0s0,0,0,0v0c0,0.1,0,0.3,0,0.4c0.2,2,1.9,3.7,3.9,3.7c1,0,1.9-0.6,2-1.6c0.1-1.1-0.7-2-1.8-2
		c-0.3,0-0.5-0.3-0.5-0.5v-6.1c0-3.9-2.1-6-5.5-6c-2.4,0-4.1,1.1-5.3,2.8c-0.8-1.7-2.5-2.8-4.7-2.8c-2.4,0-3.8,1.3-4.8,2.7l0,0
		c-0.1-0.5-0.3-1.1-0.6-1.6c-0.5-0.8-1.3-1.3-2.1-1.5c-0.7-0.2-1.4-0.3-2-0.3c-0.3,0-0.6,0-0.9,0.1c-0.3,0-0.6,0.1-0.8,0.1
		c-0.7,0.1-1.6,0-2.3-0.4c-0.7-0.4-1.1-0.9-1.2-1.7c0-0.8,0.3-1.7,0.6-2.4c0.1-0.2,0.2-0.3,0.3-0.4l0.4-0.4c0.3-0.3,0.6-0.6,0.8-0.8
		c0.6-0.5,1.2-0.9,1.9-1.2c1.4-0.7,2.8-1,4.3-1c0.3,0,0.7-0.1,1-0.4l0,0c2-2,4.8-3.1,7.6-3.1c1.8,0,3.6,0.5,5.2,1.4
		c-2.6,0.8-5,2.3-6.8,4.3c-0.2,0.2-0.2,0.6,0,0.8c0.2,0.3,0.6,0.3,0.9,0.1c2.5-2.2,5.7-3.2,8.8-3.1c1.6,0.1,3.9,0.5,5.4,1.2
		c1.5,0.7,2.9,1.7,4.1,3c1.1,1.3,2,2.8,2.5,4.4c0.3,0.8,0.4,1.6,0.5,2.5c0,0.3,0,0.6,0,0.9c-0.1,0-0.3,0-0.4,0
		c-0.5,0-0.9,0.2-1.3,0.3c-0.4,0.2-0.8,0.4-1.1,0.7c-0.1,0.1-0.2,0.3-0.2,0.5c0,0.4,0.3,0.6,0.7,0.6l0.1,0c0.7,0,1.3,0.1,1.9,0.2
		c0.3,0.1,0.6,0.2,0.8,0.3c0.6,0.3,1.4,1,1.8,1.3c1.3,1.1,2.3,2.7,2.7,4.3C62.6,38.3,62.7,39.5,62.6,40.6z"/>
</g>
</svg>
