<svg version="1.1" id="Layer_1" xmlns="http://www.w3.org/2000/svg" xmlns:xlink="http://www.w3.org/1999/xlink" x="0px" y="0px"
	 width="100%" viewBox="0 0 400 400" enable-background="new 0 0 400 400" xml:space="preserve">
<path fill="#FFFFFF" opacity="1.000000" stroke="none" 
	d="
M256.000000,401.000000 
	C170.666672,401.000000 85.833336,401.000000 1.000000,401.000000 
	C1.000000,267.666656 1.000000,134.333328 1.000000,1.000000 
	C134.333328,1.000000 267.666656,1.000000 401.000000,1.000000 
	C401.000000,134.333328 401.000000,267.666656 401.000000,401.000000 
	C352.833344,401.000000 304.666656,401.000000 256.000000,401.000000 
M141.727692,179.110413 
	C141.816635,179.072205 141.905563,179.034012 142.271957,178.890427 
	C142.182724,178.928787 142.093491,178.967148 141.727692,179.110413 
M267.016205,180.253632 
	C266.291901,179.208939 265.567596,178.164246 264.903290,176.984482 
	C264.903290,176.984482 264.871338,177.127304 264.961395,176.268311 
	C264.690674,174.336487 264.902252,172.158981 264.065155,170.515686 
	C260.584625,163.683014 257.037994,156.856598 253.005814,150.343506 
	C250.872406,146.897461 247.692581,144.099243 245.000000,141.000000 
	C245.000000,141.000000 244.989944,141.014099 245.028595,140.333389 
	C245.554001,137.073685 244.376328,134.870956 240.879059,133.695206 
	C240.879059,133.695206 240.811035,133.350357 240.930725,132.517899 
	C240.568588,131.121811 240.450775,129.599197 239.804169,128.350388 
	C235.945694,120.898537 232.141205,113.408203 227.946259,106.145844 
	C226.047836,102.859238 223.292236,100.067757 220.990738,96.995392 
	C220.990738,96.995392 220.943161,97.066437 220.996185,96.284271 
	C220.523239,94.586601 220.344437,92.726166 219.514359,91.226112 
	C217.927216,88.357903 213.116943,88.433380 211.152573,91.090439 
	C211.152573,91.090439 211.106262,91.160004 210.282745,91.052299 
	C208.381134,91.741760 205.216187,91.986404 204.790451,93.195518 
	C202.621796,99.354752 197.560547,103.696022 194.852310,109.002396 
	C191.330856,115.902138 185.608841,118.979469 180.039810,123.300476 
	C181.087570,125.207298 182.149307,127.139572 183.076538,129.654160 
	C182.697662,130.097107 182.318787,130.540070 181.195877,130.998154 
	C180.169296,132.711258 179.142715,134.424377 178.033844,136.009476 
	C178.033844,136.009476 178.148666,136.109375 177.422577,136.089813 
	C172.169037,137.601364 170.814545,142.600067 167.951050,146.350952 
	C163.526474,152.146698 159.196564,157.936783 155.354416,164.172134 
	C151.783722,169.966949 147.095993,175.065628 143.015747,180.556763 
	C139.796768,184.888809 136.855179,189.429993 133.557663,193.698486 
	C132.776016,194.710327 131.062195,195.002060 129.062439,195.971527 
	C129.355347,197.380478 129.777054,199.408997 130.144135,201.794083 
	C130.144135,201.794083 129.853058,202.007156 129.430923,202.215530 
	C129.172440,202.429443 129.036087,202.704010 128.995468,203.005447 
	C128.995468,203.005447 129.034119,203.021698 128.242584,202.996689 
	C126.273048,203.833282 122.873695,200.151749 122.173195,204.517624 
	C121.288109,210.034042 118.217628,213.316422 113.339714,214.811462 
	C113.339714,217.608704 113.339714,220.046280 113.339714,222.382843 
	C116.504021,223.917389 120.725105,222.437729 122.334320,226.779800 
	C122.555687,227.377106 125.781837,229.301880 126.669624,225.343307 
	C127.117699,225.316330 127.565765,225.289368 128.224640,225.538696 
	C128.479736,225.397552 128.734818,225.256393 129.765671,224.872543 
	C158.518738,221.019577 187.271805,217.166611 216.441864,213.713379 
	C217.291412,213.525620 218.140976,213.337860 219.731720,212.972336 
	C220.490295,212.981659 221.248886,212.990997 222.119415,213.681549 
	C225.890579,214.069290 229.746826,215.009491 233.640869,211.800354 
	C234.087097,211.839951 234.533340,211.879547 235.412170,212.469467 
	C237.268021,212.094193 239.123856,211.718918 241.802246,211.150894 
	C243.206223,211.157349 244.610199,211.163788 246.631912,211.692017 
	C250.914993,212.226715 255.185104,212.961609 259.484772,213.240631 
	C263.904785,213.527435 268.469269,213.989059 272.749817,213.190689 
	C275.668427,212.646332 279.278931,210.679886 280.662476,208.255127 
	C282.672577,204.732376 278.928406,197.809937 274.362946,194.798203 
	C274.166107,194.329269 273.969299,193.860352 273.894104,192.581741 
	C272.603271,188.119659 271.813324,183.358047 267.000000,181.000000 
	C267.000000,181.000000 266.982605,181.020477 267.016205,180.253632 
M225.535446,304.862518 
	C225.779480,304.652863 225.958054,304.397430 226.855545,304.038849 
	C228.754105,304.166870 230.652679,304.294891 232.549469,304.422791 
	C232.549469,303.853424 232.537689,303.528717 232.551239,303.205017 
	C232.743134,298.622467 230.832031,294.134888 233.997665,289.430908 
	C235.888428,286.621307 234.212784,282.119720 230.281326,281.204834 
	C225.596130,280.114502 224.897980,276.809570 223.971924,272.348328 
	C222.130569,273.745056 220.747391,274.794250 219.635406,275.637726 
	C216.605911,274.770111 213.739532,274.095764 210.989426,273.100220 
	C209.599060,272.596863 208.419052,271.512482 207.143921,270.690826 
	C208.151962,269.714874 209.118729,268.691010 210.179749,267.776520 
	C211.223328,266.877075 212.362534,266.088654 213.903076,264.913269 
	C214.379730,266.505035 214.576660,267.604980 215.036850,268.580750 
	C215.543076,269.654083 216.291473,270.613220 216.934326,271.622101 
	C217.631332,270.657440 218.265976,269.639038 219.040146,268.740875 
	C220.158676,267.443268 221.311783,266.160980 222.566895,264.998199 
	C226.966003,260.922760 232.306915,263.439667 237.221466,263.039276 
	C240.926514,262.737366 243.330368,265.232758 243.802582,268.331268 
	C244.372986,272.074036 244.700394,276.669708 240.511276,278.798218 
	C236.818039,280.674805 237.466690,282.336304 239.548584,284.753021 
	C240.461319,285.812561 241.817413,287.012726 241.871384,288.199127 
	C242.105286,293.341614 242.839813,298.716187 241.688416,303.605072 
	C240.096954,310.362457 245.783768,311.194275 248.879715,313.901215 
	C249.721909,314.637604 252.895493,312.707520 255.107224,312.282074 
	C255.194458,312.331696 255.281677,312.381317 255.368896,312.430969 
	C255.246338,312.286896 255.123779,312.142853 254.948166,311.317688 
	C254.921753,311.091492 254.895355,310.865326 255.366486,310.065582 
	C255.624466,308.045135 255.882446,306.024719 256.906616,303.793823 
	C258.155212,299.110870 259.695312,294.411713 255.991318,289.072906 
	C256.040680,284.049988 256.090057,279.027039 256.892212,273.898743 
	C260.748291,273.269226 264.600098,272.180420 268.461731,272.144226 
	C272.051697,272.110596 275.083588,273.486450 273.421356,278.365936 
	C272.540771,280.950958 272.946167,283.356384 276.625854,284.507812 
	C276.590546,285.106049 276.555237,285.704315 276.066528,286.994873 
	C272.511932,289.929657 273.747131,293.620483 274.412231,297.538055 
	C278.430573,297.964478 280.836029,299.810608 278.956879,304.771454 
	C282.644745,305.487549 285.948944,306.129150 289.053894,306.885223 
	C289.053894,306.885223 289.221039,306.727539 289.094055,307.423920 
	C287.834564,311.162537 289.913300,315.620483 292.716522,314.679932 
	C297.185333,313.180542 299.913849,314.856049 302.695923,318.609650 
	C306.919525,313.086182 311.721497,313.913788 316.953033,316.362274 
	C319.960388,317.769836 328.957031,311.945740 328.542786,308.710846 
	C328.107025,305.307770 329.621704,305.140686 332.038025,304.961853 
	C333.449829,304.857391 334.833710,304.375092 337.002563,303.889984 
	C335.390381,301.438568 334.125336,299.514984 332.973480,297.170135 
	C332.973480,297.170135 333.308807,296.891144 334.079285,296.806885 
	C335.597870,295.444244 338.096771,294.355804 335.623016,291.187744 
	C335.806061,290.785309 335.989136,290.382843 336.603699,289.536407 
	C336.655731,289.132782 336.707764,288.729187 336.653900,288.156128 
	C336.653900,288.156128 336.746582,287.979095 337.468170,287.984833 
	C338.143524,287.672791 338.818878,287.360748 339.494232,287.048676 
	C338.691315,286.698181 337.888397,286.347656 336.938507,285.200012 
	C337.010315,284.126587 337.082123,283.053192 337.557831,281.680695 
	C337.423401,281.127228 337.288971,280.573761 336.969086,279.218262 
	C336.926910,277.317963 336.884705,275.417664 336.916260,272.818970 
	C336.642700,272.217163 336.369141,271.615326 335.813293,270.593994 
	C335.802765,270.425781 335.792206,270.257568 336.397552,269.648285 
	C336.597961,266.098846 336.798370,262.549438 337.494904,258.604309 
	C336.815521,256.669708 336.136139,254.735138 335.347809,252.490387 
	C335.974213,251.711472 336.831329,250.721771 337.604309,249.670212 
	C339.869507,246.588654 338.996552,243.271271 336.135437,242.018494 
	C331.600983,240.033081 326.700256,237.318085 321.453094,240.050964 
	C317.813385,241.946609 314.366241,242.206146 310.575928,240.451569 
	C309.173462,239.802353 307.289490,239.855911 305.682648,240.054382 
	C302.130096,240.493240 298.596527,241.827377 295.086365,241.725266 
	C285.614624,241.449692 276.167236,240.351624 266.695435,240.061096 
	C252.279816,239.618942 237.851898,239.566589 223.428406,239.442566 
	C222.956772,239.438492 222.476334,240.458145 221.333725,241.001205 
	C220.889557,241.001617 220.445389,241.002029 219.500137,240.443878 
	C215.999496,240.630249 212.498856,240.816635 208.249084,241.002319 
	C207.499954,241.002350 206.750824,241.002396 205.554626,240.463623 
	C204.316116,240.667374 203.077530,240.870651 201.839111,241.074997 
	C199.341217,241.487106 196.839996,242.232651 194.346634,242.207092 
	C192.345627,242.186615 190.379349,240.915482 188.353455,240.754074 
	C183.488647,240.366486 178.591904,240.090363 173.720657,240.225189 
	C171.948502,240.274246 168.873901,241.392014 168.702942,242.410019 
	C168.121307,245.873566 165.387222,246.193481 163.190933,247.389893 
	C160.857620,248.660965 158.535980,249.881363 161.001724,253.750443 
	C161.001404,254.500290 161.001083,255.250153 160.268417,256.126099 
	C159.148636,258.591827 158.028870,261.057556 156.387421,264.671967 
	C155.101929,262.900848 154.048828,261.449921 152.867599,259.260193 
	C150.452393,258.169220 148.037201,257.078247 145.514008,255.938492 
	C144.990189,254.783615 144.597595,253.144135 143.636475,251.970032 
	C141.953278,249.913834 140.134216,247.817276 137.947128,246.387817 
	C136.821411,245.652054 134.476273,245.778671 133.226517,246.482346 
	C131.552155,247.425156 130.405350,249.304901 128.612732,251.033463 
	C128.612732,251.033463 128.124954,251.064178 127.567101,250.699982 
	C126.249405,249.725327 124.931709,248.750671 123.614006,247.776016 
	C122.744751,249.418167 121.203682,251.048981 121.175690,252.705353 
	C121.140404,254.793060 122.340576,256.901642 123.004440,259.938385 
	C123.005302,269.291595 123.006157,278.644775 122.575813,288.532806 
	C119.776291,288.729645 115.743790,290.140839 114.463715,288.841156 
	C112.500450,286.847839 111.201416,282.724365 111.793106,279.971954 
	C113.457397,272.230164 113.699287,272.045258 106.116158,271.287384 
	C110.241463,266.830383 110.288757,264.793060 105.507523,261.386230 
	C101.902840,258.817719 102.548805,255.836655 103.915215,252.733521 
	C104.815918,250.688034 107.270950,248.428299 104.092224,247.043686 
	C102.707558,246.440521 100.135574,248.341797 98.212601,249.321228 
	C97.578346,249.644272 97.288658,250.643799 96.365013,251.230942 
	C96.365013,251.230942 95.993820,250.915024 95.851311,250.594193 
	C95.575584,250.645889 95.299866,250.697586 94.357689,250.909164 
	C93.909134,250.848511 93.460579,250.787872 92.916588,250.050827 
	C91.242264,248.898483 89.567940,247.746124 87.893631,246.593765 
	C85.801994,249.742218 82.237976,252.773392 81.975616,256.067535 
	C81.613121,260.618622 80.025719,262.999512 76.288872,264.873871 
	C74.615158,265.713379 73.290733,267.249237 71.646797,268.601501 
	C76.319611,272.205292 76.921684,275.062775 74.044922,276.841156 
	C68.691940,280.150299 68.058128,284.482971 72.041115,290.673676 
	C71.689774,291.449829 71.338432,292.226013 70.314842,293.291138 
	C64.411156,295.318390 66.508385,300.977692 64.182831,305.001892 
	C62.127995,306.173187 58.962780,306.888000 58.253807,308.612610 
	C56.857967,312.008057 60.596077,312.017578 62.644779,313.131836 
	C63.641697,313.674011 64.733444,314.900146 64.901657,315.956879 
	C65.574516,320.183655 68.033928,321.412018 71.967041,321.045593 
	C73.763939,320.878143 75.607933,321.296722 77.427933,321.270020 
	C78.774124,321.250336 80.809685,321.386078 81.284477,320.647125 
	C81.879051,319.721710 81.510384,317.841339 81.003540,316.599213 
	C77.826523,308.813141 82.220284,301.918793 90.425858,302.000031 
	C96.664116,302.061798 97.860489,303.663391 95.956581,309.607666 
	C94.689697,313.563049 94.083366,317.363708 97.259254,320.530792 
	C99.542542,320.204651 102.727112,318.984253 103.374207,319.793335 
	C105.834610,322.869629 108.246468,321.537720 110.998734,320.968018 
	C112.574532,320.641785 114.330437,321.244751 116.010292,321.344910 
	C117.598114,321.439606 119.627686,322.020874 120.651390,321.274719 
	C121.527771,320.635895 121.256035,318.420624 121.489769,316.902191 
	C121.576134,316.341156 121.655876,315.779083 121.827621,314.613617 
	C123.558784,315.495544 125.018143,315.939301 126.099869,316.837708 
	C134.443039,323.766968 142.061340,320.774017 144.043457,309.728363 
	C144.618103,306.526123 146.203232,304.601654 149.806381,304.971619 
	C151.455414,305.140930 153.151855,305.145599 154.799332,304.968872 
	C157.823914,304.644409 159.564407,305.848785 160.094574,308.847900 
	C160.765274,312.641968 161.463715,316.431152 162.154861,320.248291 
	C165.434174,320.248291 168.980972,319.682373 172.236649,320.413208 
	C175.273666,321.095001 176.741104,320.670105 178.170120,317.901031 
	C179.373444,315.569275 181.193527,313.235474 184.271927,314.325928 
	C183.670044,316.940125 183.199203,318.985199 182.728333,321.030304 
	C184.942780,321.137756 187.159729,321.209564 189.370773,321.365326 
	C190.811844,321.466827 192.428787,321.320526 193.646423,321.927856 
	C197.448334,323.824127 200.691788,322.826874 203.896042,320.622223 
	C204.673645,320.087189 205.638596,319.324890 206.440811,319.407867 
	C211.007858,319.880127 215.570877,320.462982 220.098618,321.225769 
	C225.876694,322.199188 225.761459,322.305969 224.712952,316.320648 
	C224.414291,314.615723 224.882721,312.776459 224.999786,310.158600 
	C225.048035,308.481262 225.096283,306.803925 225.535446,304.862518 
M124.986137,242.547913 
	C124.515701,241.696243 124.045265,240.844574 123.574821,239.992905 
	C123.139496,240.195206 122.704170,240.397491 122.268845,240.599777 
	C122.668495,242.257629 123.068138,243.915466 123.467789,245.573318 
	C123.815422,245.536697 124.163063,245.500092 124.510704,245.463486 
	C124.670303,244.741928 124.829903,244.020386 124.986137,242.547913 
M113.094070,255.377380 
	C113.893333,255.691422 114.692596,256.005463 115.491859,256.319489 
	C115.489319,255.438416 115.486778,254.557358 115.484238,253.676300 
	C114.686829,253.995193 113.889420,254.314087 113.094070,255.377380 
M234.062363,273.207123 
	C234.430771,274.075684 234.799179,274.944275 235.167587,275.812836 
	C235.684799,275.541321 236.202011,275.269806 236.719223,274.998291 
	C236.064941,274.354767 235.410645,273.711212 234.062363,273.207123 
M66.685989,267.526459 
	C67.024689,266.979187 67.363396,266.431915 67.702095,265.884644 
	C67.427856,265.749695 67.153618,265.614777 66.879387,265.479828 
	C66.674377,266.015747 66.469376,266.551697 66.685989,267.526459 
M138.518494,178.311722 
	C137.976822,177.977097 137.435165,177.642471 136.893509,177.307831 
	C136.759598,177.578445 136.625702,177.849060 136.491806,178.119675 
	C137.022186,178.322113 137.552582,178.524551 138.518494,178.311722 
M239.542343,266.711914 
	C238.963806,266.599976 238.385254,266.488037 237.806717,266.376099 
	C237.801620,266.786530 237.796524,267.196991 237.791428,267.607452 
	C238.372696,267.509644 238.953949,267.411835 239.542343,266.711914 
M282.797821,310.391266 
	C282.793671,310.785706 282.789520,311.180145 282.785370,311.574585 
	C282.949036,311.576111 283.254974,311.588593 283.255829,311.577576 
	C283.286072,311.185120 283.287750,310.790436 282.797821,310.391266 
M65.704163,291.567596 
	C65.989464,291.295288 66.274765,291.022980 66.560074,290.750671 
	C66.447182,290.632568 66.242355,290.405640 66.234688,290.412109 
	C65.933792,290.666260 65.650826,290.941650 65.704163,291.567596 
z"/>
<path fill="#0A77BC" opacity="1.000000" stroke="none" 
	d="
M181.939926,130.983032 
	C182.318787,130.540070 182.697662,130.097107 183.435730,129.211578 
	C192.898697,116.232651 202.002472,103.696327 211.106262,91.160004 
	C211.106262,91.160004 211.152573,91.090439 211.382507,91.420425 
	C211.596069,93.397934 211.631714,95.047897 211.554901,96.692589 
	C211.052139,107.455261 210.525055,118.216797 209.917908,129.198593 
	C209.829865,129.418488 209.918762,129.883789 209.784729,130.004028 
	C209.512344,130.382233 209.564026,130.593689 209.633774,131.118835 
	C209.434525,132.006699 209.407242,132.534363 209.242874,133.474808 
	C208.424164,139.924072 207.742554,145.960571 206.966949,152.180893 
	C206.872986,152.364716 206.894882,152.777023 206.649002,152.969788 
	C206.326431,153.765472 206.249741,154.368378 206.032990,155.295319 
	C205.623886,156.754547 205.354874,157.889709 204.865784,159.285950 
	C203.771881,161.690872 202.898071,163.834747 201.999878,165.986313 
	C201.975510,165.994019 201.987152,166.043808 201.739471,166.196991 
	C201.285721,166.882019 201.079651,167.413849 200.917053,167.951019 
	C200.960541,167.956345 200.919998,167.878677 200.696930,167.988342 
	C200.185532,168.327942 200.072205,168.624680 199.897034,169.187164 
	C199.099426,170.237701 198.538681,171.089294 197.742554,172.035355 
	C197.380127,172.430389 197.253098,172.730957 196.835266,173.178375 
	C195.372391,174.615555 194.200317,175.905884 192.719681,177.287964 
	C190.661041,178.944534 188.910965,180.509369 187.107971,182.059326 
	C187.055069,182.044464 187.046387,182.154037 186.799500,182.188309 
	C186.211609,182.361374 186.014664,182.612946 185.979050,182.990479 
	C185.996323,183.003662 185.980133,182.963715 185.714691,183.005066 
	C185.241867,183.326126 185.034470,183.605850 184.873688,183.898453 
	C184.920303,183.911331 184.908676,183.815308 184.613663,183.850616 
	C183.882492,184.258209 183.446320,184.630478 182.715057,185.073944 
	C181.940048,185.511932 181.460175,185.878723 180.751678,186.264557 
	C180.219315,186.428421 180.046814,186.667831 180.002808,187.000931 
	C180.000046,187.000000 180.001816,187.004593 179.658142,187.064011 
	C160.722458,197.476318 142.141739,207.849686 123.512413,218.134995 
	C122.299759,218.804489 120.713745,218.797729 117.951843,219.399689 
	C122.232849,213.072983 125.633476,208.047348 129.034119,203.021698 
	C129.034119,203.021698 128.995468,203.005447 129.235214,202.930420 
	C129.785858,202.655029 129.911896,202.372284 129.853058,202.007156 
	C129.853058,202.007156 130.144135,201.794083 130.472504,201.448090 
	C136.114716,193.916016 141.477829,186.765762 146.731979,179.536301 
	C157.235794,165.083618 167.679901,150.587540 178.148666,136.109375 
	C178.148666,136.109375 178.033844,136.009476 178.365967,135.925751 
	C179.778702,134.222351 180.859314,132.602692 181.939926,130.983032 
z"/>
<path fill="#41BFC0" opacity="1.000000" stroke="none" 
	d="
M273.772461,193.391418 
	C273.969299,193.860352 274.166107,194.329269 274.600586,195.319244 
	C276.205475,198.689651 277.572784,201.539032 279.438873,205.427963 
	C277.118103,204.375076 275.965515,203.858200 274.817871,203.330582 
	C265.878723,199.221054 256.940582,195.109467 247.867325,190.902222 
	C247.732529,190.805939 247.401291,190.801453 247.174103,190.529343 
	C243.629868,188.513657 240.312805,186.770065 236.885681,184.925674 
	C236.775650,184.824875 236.477310,184.817154 236.307037,184.567566 
	C235.781326,184.142685 235.425888,183.967407 234.922729,183.582886 
	C234.304520,183.200409 233.834076,183.027191 233.197952,182.624268 
	C232.694107,182.245956 232.355911,182.097351 231.888611,181.725052 
	C231.307419,181.271042 230.855316,181.040710 230.262268,180.510269 
	C229.085968,179.464569 228.050644,178.719009 226.900543,177.744370 
	C226.491684,177.353592 226.197617,177.191864 225.795776,176.742950 
	C224.808456,175.616455 223.928925,174.777145 223.027924,173.970032 
	C223.006454,174.002258 223.067078,173.953735 222.997284,173.623001 
	C221.667786,171.425995 220.408096,169.559723 219.143600,167.508606 
	C219.138809,167.323792 218.947144,167.007584 218.927490,166.635010 
	C218.157364,163.869888 217.406891,161.477341 216.680511,158.697708 
	C216.558426,157.818451 216.412247,157.326279 216.396881,156.615204 
	C216.350601,155.933487 216.173523,155.470673 216.029968,154.552353 
	C215.705444,148.067520 215.347366,142.038208 215.045959,135.678345 
	C215.078125,134.902420 215.053635,134.457031 215.250580,133.668915 
	C216.028915,119.864426 216.585785,106.402649 217.168015,92.327698 
	C218.746078,94.308540 219.844620,95.687492 220.943161,97.066437 
	C220.943161,97.066437 220.990738,96.995392 221.001678,97.380424 
	C227.612091,109.627090 234.211563,121.488724 240.811035,133.350357 
	C240.811035,133.350357 240.879059,133.695206 241.000641,134.182358 
	C242.411469,136.784378 243.700699,138.899231 244.989944,141.014099 
	C244.989944,141.014099 245.000000,141.000000 245.019318,141.364136 
	C247.223862,145.808655 249.336075,149.930222 251.609940,153.960602 
	C255.982025,161.710129 260.445679,169.408005 264.871338,177.127304 
	C264.871338,177.127304 264.903290,176.984482 264.895935,177.385590 
	C265.586578,178.864624 266.284607,179.942551 266.982605,181.020477 
	C266.982605,181.020477 267.000000,181.000000 267.017639,181.366119 
	C269.281006,185.618652 271.526733,189.505035 273.772461,193.391418 
z"/>
<path fill="#1E3B69" opacity="1.000000" stroke="none" 
	d="
M216.024872,213.313629 
	C187.271805,217.166611 158.518738,221.019577 129.120361,224.941437 
	C128.321320,225.094360 128.167572,225.178391 128.013840,225.262405 
	C127.565765,225.289368 127.117699,225.316330 126.037514,225.416016 
	C124.344139,225.391602 123.282867,225.294464 121.272293,225.110458 
	C130.442703,220.338165 138.512009,216.141754 146.578629,211.940186 
	C154.788116,207.664215 162.994949,203.383163 171.550079,199.062225 
	C174.598969,197.656586 177.300720,196.293045 180.339569,194.915970 
	C181.661255,194.379059 182.645828,193.855682 183.978638,193.306763 
	C196.699844,187.120041 209.717880,185.101593 223.177094,188.283218 
	C230.212158,189.946243 236.973450,192.767410 244.060181,195.332275 
	C245.513672,196.018768 246.765396,196.438477 248.225494,196.989990 
	C248.433853,197.121780 248.924332,197.172333 249.144638,197.440369 
	C258.263550,201.581192 267.162140,205.453964 276.060760,209.326736 
	C270.828705,210.262894 265.854340,210.144867 260.888184,210.296097 
	C255.925903,210.447205 250.971848,210.867783 246.014175,211.170227 
	C244.610199,211.163788 243.206223,211.157349 241.010208,211.160919 
	C238.471970,211.420349 236.725769,211.669739 234.979568,211.919128 
	C234.533340,211.879547 234.087097,211.839951 232.879852,211.822968 
	C228.748367,212.230499 225.377914,212.615417 222.007462,213.000320 
	C221.248886,212.990997 220.490295,212.981659 218.990891,212.989288 
	C217.508331,213.108704 216.766602,213.211166 216.024872,213.313629 
z"/>
<path fill="#FEFEFE" opacity="1.000000" stroke="none" 
	d="
M224.999390,310.998779 
	C224.882721,312.776459 224.414291,314.615723 224.712952,316.320648 
	C225.761459,322.305969 225.876694,322.199188 220.098618,321.225769 
	C215.570877,320.462982 211.007858,319.880127 206.440811,319.407867 
	C205.638596,319.324890 204.673645,320.087189 203.896042,320.622223 
	C200.691788,322.826874 197.448334,323.824127 193.646423,321.927856 
	C192.428787,321.320526 190.811844,321.466827 189.370773,321.365326 
	C187.159729,321.209564 184.942780,321.137756 182.728333,321.030304 
	C183.199203,318.985199 183.670044,316.940125 184.271927,314.325928 
	C181.193527,313.235474 179.373444,315.569275 178.170120,317.901031 
	C176.741104,320.670105 175.273666,321.095001 172.236649,320.413208 
	C168.980972,319.682373 165.434174,320.248291 162.154861,320.248291 
	C161.463715,316.431152 160.765274,312.641968 160.094574,308.847900 
	C159.564407,305.848785 157.823914,304.644409 154.799332,304.968872 
	C153.151855,305.145599 151.455414,305.140930 149.806381,304.971619 
	C146.203232,304.601654 144.618103,306.526123 144.043457,309.728363 
	C142.061340,320.774017 134.443039,323.766968 126.099869,316.837708 
	C125.018143,315.939301 123.558784,315.495544 121.827621,314.613617 
	C121.655876,315.779083 121.576134,316.341156 121.489769,316.902191 
	C121.256035,318.420624 121.527771,320.635895 120.651390,321.274719 
	C119.627686,322.020874 117.598114,321.439606 116.010292,321.344910 
	C114.330437,321.244751 112.574532,320.641785 110.998734,320.968018 
	C108.246468,321.537720 105.834610,322.869629 103.374207,319.793335 
	C102.727112,318.984253 99.542542,320.204651 97.259254,320.530792 
	C94.083366,317.363708 94.689697,313.563049 95.956581,309.607666 
	C97.860489,303.663391 96.664116,302.061798 90.425858,302.000031 
	C82.220284,301.918793 77.826523,308.813141 81.003540,316.599213 
	C81.510384,317.841339 81.879051,319.721710 81.284477,320.647125 
	C80.809685,321.386078 78.774124,321.250336 77.427933,321.270020 
	C75.607933,321.296722 73.763939,320.878143 71.967041,321.045593 
	C68.033928,321.412018 65.574516,320.183655 64.901657,315.956879 
	C64.733444,314.900146 63.641697,313.674011 62.644779,313.131836 
	C60.596077,312.017578 56.857967,312.008057 58.253807,308.612610 
	C58.962780,306.888000 62.127995,306.173187 64.604187,305.437927 
	C65.082314,306.455383 65.139084,307.036743 65.225571,307.733215 
	C65.255280,307.848267 65.075981,308.004333 64.766754,308.038910 
	C64.131508,308.491028 63.805504,308.908600 63.479500,309.326141 
	C64.024803,309.548096 64.570114,309.770020 65.400673,310.093994 
	C66.460258,310.414459 67.234589,310.632935 68.011551,311.248108 
	C68.510071,313.654388 69.005959,315.663971 69.501846,317.673523 
	C69.947372,317.843109 70.392891,318.012695 70.838409,318.182281 
	C72.911438,315.089203 74.657623,311.695526 77.148582,308.986786 
	C79.685577,306.227936 79.819962,303.101624 80.487923,299.824249 
	C80.733185,298.620880 83.413918,297.307220 85.099304,297.127411 
	C88.879921,296.723999 92.764481,297.308258 96.548729,296.922150 
	C101.494400,296.417480 104.065430,298.479858 104.928047,303.176727 
	C105.225220,304.794830 105.637825,306.391724 105.858139,308.052795 
	C105.812988,308.072357 105.907387,308.037384 106.220528,308.110260 
	C106.712029,308.417114 106.898834,308.677765 107.041275,309.320465 
	C107.720985,310.094360 108.359116,310.547791 109.039001,311.321899 
	C109.720306,312.095490 110.359848,312.548340 111.248238,313.263916 
	C117.337433,313.340851 123.191551,313.330597 129.010651,312.874115 
	C131.044403,312.714539 132.991882,311.455444 135.119019,310.533936 
	C135.501663,310.210083 135.761307,310.087128 136.279724,310.004456 
	C136.521225,310.008240 137.004303,310.002441 137.253967,310.000519 
	C137.503616,309.998596 138.002930,309.994965 138.156281,310.296204 
	C139.096207,310.785706 139.882782,310.973907 140.669342,311.162109 
	C140.112961,309.776794 139.556580,308.391449 138.999893,306.537109 
	C138.999374,300.158875 139.124527,294.245148 138.911026,288.343658 
	C138.857483,286.864136 137.716003,285.423981 137.054504,283.599548 
	C137.047897,282.500366 137.061325,281.767334 137.421692,280.985046 
	C139.298965,280.099243 140.829300,279.262695 142.230865,278.496521 
	C143.554245,280.162964 144.734512,281.649200 145.925125,283.148499 
	C144.946899,284.428894 143.496078,285.493011 143.520935,286.521515 
	C143.547729,287.631042 144.955246,288.707184 145.760422,289.797913 
	C148.267487,286.373169 150.740067,289.924805 153.169739,289.879028 
	C153.108826,289.923248 153.176559,289.788849 153.124374,290.216553 
	C152.983002,297.115875 155.587402,300.551910 161.033661,301.154480 
	C161.144089,301.306732 161.126831,301.682495 161.095901,302.079163 
	C163.823502,312.211578 166.613678,314.266479 175.645416,312.916382 
	C176.759918,312.749786 178.177826,311.897919 178.629456,310.964233 
	C178.931656,310.339447 177.772858,309.007996 177.184235,307.665039 
	C177.158142,306.894135 177.215652,306.450958 177.545471,305.962219 
	C177.632172,305.275330 177.446594,304.633942 177.172943,303.624847 
	C177.145721,302.508362 177.206573,301.759552 177.643570,301.010895 
	C180.241348,302.205658 182.743393,303.076111 184.605408,304.686554 
	C186.451843,306.283539 187.404465,308.895294 189.209259,310.564362 
	C190.944901,312.169464 193.298965,313.091888 195.329605,314.394867 
	C199.368073,316.986267 206.056671,315.978973 210.329208,312.037750 
	C211.103012,311.957550 211.551239,311.970734 212.061523,312.339844 
	C214.138321,313.175690 217.741302,314.398926 217.919037,314.019135 
	C219.481003,310.681488 222.482452,311.522247 224.999390,310.998779 
z"/>
<path fill="#233F68" opacity="1.000000" stroke="none" 
	d="
M333.308807,296.891144 
	C333.308807,296.891144 332.973480,297.170135 332.651459,297.506470 
	C329.895874,300.516571 327.814667,303.664398 324.967041,305.781128 
	C313.375427,314.397400 301.332306,313.712616 289.221039,306.727539 
	C289.221039,306.727539 289.053894,306.885223 288.991882,306.535828 
	C282.170044,301.195709 278.747498,294.122040 276.519958,286.302551 
	C276.555237,285.704315 276.590546,285.106049 276.567139,283.822174 
	C276.559967,281.309204 276.514313,279.473083 276.678101,277.655853 
	C278.368988,258.898438 294.834595,246.437119 313.199402,250.202972 
	C324.419922,252.503815 331.314789,259.983276 335.781677,270.089325 
	C335.792206,270.257568 335.802765,270.425781 335.928284,271.144806 
	C336.309723,272.302856 336.576141,272.910126 336.842529,273.517365 
	C336.884705,275.417664 336.926910,277.317963 336.962524,279.940826 
	C337.021942,281.102173 337.087952,281.540985 337.153931,281.979767 
	C337.082123,283.053192 337.010315,284.126587 336.864716,285.910339 
	C336.776154,287.073486 336.761353,287.526306 336.746582,287.979095 
	C336.746582,287.979095 336.653900,288.156128 336.470154,288.451721 
	C336.248322,289.158325 336.210266,289.569366 336.172211,289.980408 
	C335.989136,290.382843 335.806061,290.785309 335.346191,291.786926 
	C334.482544,293.887756 333.895660,295.389465 333.308807,296.891144 
M327.791748,275.240662 
	C326.206909,268.669586 323.106079,263.101349 316.950897,259.804443 
	C302.172028,251.888382 285.878815,262.324951 285.317749,280.003784 
	C284.992249,290.261688 291.346375,300.191193 299.925873,302.831696 
	C309.673157,305.831635 319.207306,302.511505 324.401062,294.337891 
	C327.973877,288.715302 328.681458,282.551514 327.791748,275.240662 
z"/>
<path fill="#223E67" opacity="1.000000" stroke="none" 
	d="
M177.273163,306.007751 
	C177.215652,306.450958 177.158142,306.894135 177.071487,308.043945 
	C173.992401,311.543732 168.942429,311.329681 166.578476,308.349945 
	C164.794418,306.101135 162.946381,303.903137 161.126831,301.682495 
	C161.126831,301.682495 161.144089,301.306732 161.008118,300.806885 
	C158.306961,296.800964 155.741760,293.294922 153.176559,289.788849 
	C153.176559,289.788849 153.108826,289.923248 153.158798,289.521301 
	C148.544876,282.380127 143.880981,275.640930 139.120514,268.577698 
	C138.250259,267.323181 137.476562,266.392670 136.043640,264.669281 
	C136.175934,267.166443 136.251129,268.585663 136.236694,270.381287 
	C136.203262,271.524872 136.259476,272.292023 136.224304,273.515747 
	C136.188889,284.957428 136.244843,295.942535 136.216995,307.274658 
	C136.182983,308.092072 136.232742,308.562439 136.180145,309.264343 
	C136.064575,309.664124 136.051392,309.832397 136.038208,310.000641 
	C135.761307,310.087128 135.501663,310.210083 134.701935,310.453430 
	C131.882599,309.863098 128.311508,312.465912 127.691574,307.575562 
	C127.716309,306.521423 127.644928,305.813110 127.658028,304.650513 
	C127.679466,301.430328 127.616425,298.664398 127.653214,295.446899 
	C127.688988,282.365936 127.624916,269.736542 127.654716,256.681641 
	C127.874046,254.525482 127.999496,252.794830 128.124954,251.064178 
	C128.124954,251.064178 128.612732,251.033463 129.246033,250.990997 
	C134.843353,249.914871 137.676056,252.365952 140.191727,256.422516 
	C143.396790,261.590790 147.273834,266.342346 150.874847,271.593933 
	C151.556412,272.699493 152.224304,273.484589 152.910431,274.571808 
	C153.544510,275.613068 154.160370,276.352234 154.896881,277.415710 
	C159.249481,283.770416 163.481445,289.800812 167.713409,295.831207 
	C168.752136,293.972198 168.739731,292.396881 168.754089,290.821838 
	C168.874878,277.564667 169.000595,264.307556 169.355667,251.029877 
	C169.586517,251.009338 169.992645,250.785950 170.413330,250.869522 
	C172.545944,250.914963 174.257874,250.876816 176.299637,251.127594 
	C176.772751,253.210526 177.021255,255.003357 177.041656,256.798767 
	C177.148575,266.196167 177.197617,275.594177 177.186707,285.245972 
	C177.159790,285.669373 177.212982,285.838745 177.178162,286.375793 
	C177.150192,287.492340 177.210266,288.241150 177.175842,289.361755 
	C177.145081,290.492493 177.208801,291.251404 177.183472,292.430725 
	C177.153625,294.563995 177.212814,296.276855 177.176239,298.361328 
	C177.142807,299.492188 177.205124,300.251465 177.267426,301.010773 
	C177.206573,301.759552 177.145721,302.508362 177.080627,303.956787 
	C177.141983,305.106873 177.207581,305.557312 177.273163,306.007751 
z"/>
<path fill="#244069" opacity="1.000000" stroke="none" 
	d="
M65.075981,308.004333 
	C65.075981,308.004333 65.255280,307.848267 65.500198,307.464142 
	C67.492439,302.387390 69.239761,297.694794 70.987091,293.002167 
	C71.338432,292.226013 71.689774,291.449829 72.361832,290.136566 
	C76.949806,278.616547 81.343292,267.680145 85.414742,256.625092 
	C86.809273,252.838593 88.472351,250.121399 93.012024,250.727219 
	C93.460579,250.787872 93.909134,250.848511 94.921631,250.939087 
	C95.654984,250.950989 95.824402,250.932999 95.993820,250.915024 
	C95.993820,250.915024 96.365013,251.230942 96.629776,251.641403 
	C99.847916,259.268066 102.801300,266.484283 105.711617,273.998596 
	C106.500351,276.206635 107.332153,278.116516 108.157867,280.339844 
	C108.379616,280.986694 108.607460,281.320160 108.814529,282.002686 
	C110.538551,286.569733 112.283333,290.787750 114.008423,295.328735 
	C114.291435,296.194611 114.594154,296.737457 114.898285,297.587402 
	C115.266220,298.596405 115.632744,299.298309 116.007385,300.319305 
	C116.311035,301.182831 116.606575,301.727234 116.896164,302.606323 
	C117.515022,304.324219 118.139847,305.707489 118.799957,307.419922 
	C118.975403,308.167114 119.115562,308.585114 119.093109,309.340271 
	C116.961037,310.072662 114.991577,310.467896 112.743256,310.740112 
	C111.863548,310.631805 111.262695,310.646545 110.493790,310.390625 
	C109.857109,309.417542 109.388496,308.715118 108.906487,307.639313 
	C108.846962,307.106537 108.806221,306.945343 108.753952,306.787994 
	C104.479111,293.919128 104.479034,293.919189 91.034752,293.920380 
	C79.846214,293.921387 79.705170,293.870087 75.788818,304.642212 
	C74.369713,308.545502 72.706795,311.403656 68.008926,310.851410 
	C67.234589,310.632935 66.460258,310.414459 65.410187,309.762146 
	C65.114967,308.886993 65.095474,308.445648 65.075981,308.004333 
M83.524269,282.870758 
	C83.209923,284.055481 82.895576,285.240204 82.543129,286.568512 
	C88.927940,286.568512 94.828087,286.568512 101.419235,286.568512 
	C98.217400,277.909546 95.179680,269.694427 91.802689,260.561798 
	C88.874229,268.532166 86.364754,275.362152 83.524269,282.870758 
z"/>
<path fill="#F7FAFA" opacity="1.000000" stroke="none" 
	d="
M254.868942,310.639191 
	C254.895355,310.865326 254.921753,311.091492 254.974091,311.658844 
	C255.000000,312.000000 254.999100,312.001221 254.999100,312.001221 
	C252.895493,312.707520 249.721909,314.637604 248.879715,313.901215 
	C245.783768,311.194275 240.096954,310.362457 241.688416,303.605072 
	C242.839813,298.716187 242.105286,293.341614 241.871384,288.199127 
	C241.817413,287.012726 240.461319,285.812561 239.548584,284.753021 
	C237.466690,282.336304 236.818039,280.674805 240.511276,278.798218 
	C244.700394,276.669708 244.372986,272.074036 243.802582,268.331268 
	C243.330368,265.232758 240.926514,262.737366 237.221466,263.039276 
	C232.306915,263.439667 226.966003,260.922760 222.566895,264.998199 
	C221.311783,266.160980 220.158676,267.443268 219.040146,268.740875 
	C218.265976,269.639038 217.631332,270.657440 216.934326,271.622101 
	C216.291473,270.613220 215.543076,269.654083 215.036850,268.580750 
	C214.576660,267.604980 214.379730,266.505035 213.903076,264.913269 
	C212.362534,266.088654 211.223328,266.877075 210.179749,267.776520 
	C209.118729,268.691010 208.151962,269.714874 207.143921,270.690826 
	C208.419052,271.512482 209.599060,272.596863 210.989426,273.100220 
	C213.739532,274.095764 216.605911,274.770111 219.635406,275.637726 
	C220.747391,274.794250 222.130569,273.745056 223.971924,272.348328 
	C224.897980,276.809570 225.596130,280.114502 230.281326,281.204834 
	C234.212784,282.119720 235.888428,286.621307 233.997665,289.430908 
	C230.832031,294.134888 232.743134,298.622467 232.551239,303.205017 
	C232.537689,303.528717 232.549469,303.853424 232.549469,304.422791 
	C230.652679,304.294891 228.754105,304.166870 226.418396,304.014496 
	C225.981247,303.990143 225.885132,303.889648 225.964844,303.532166 
	C231.694305,292.823883 228.080521,282.149963 217.215714,277.849609 
	C212.610306,276.026733 207.677979,275.038605 203.042343,273.280579 
	C199.462952,271.923126 196.716202,269.486481 197.059494,265.092621 
	C197.393570,260.816620 200.168335,258.286896 203.994370,257.722687 
	C207.303329,257.234741 210.816711,257.859375 214.202194,258.288422 
	C215.719803,258.480774 217.145691,259.396881 218.648514,259.998657 
	C220.910278,252.440430 220.031570,251.038269 213.043808,249.942993 
	C204.883545,248.663910 197.551743,250.220718 190.995148,255.996796 
	C189.543518,256.192657 188.474594,256.383636 187.405655,256.574615 
	C187.483688,256.909424 187.561722,257.244263 187.639740,257.579102 
	C188.658859,257.382538 189.677994,257.185974 190.657867,257.327209 
	C189.752899,260.081482 188.887192,262.498016 187.650238,264.864105 
	C185.519394,264.008240 182.749390,263.608795 182.226227,262.306610 
	C181.340393,260.101807 181.126312,257.018890 182.009552,254.873001 
	C183.004547,252.455627 184.757523,249.849380 188.739502,250.838287 
	C190.946350,251.386353 193.614090,250.586044 195.957306,249.957870 
	C199.407898,249.032791 202.754196,247.718704 206.386566,246.488495 
	C206.297150,245.213806 206.149414,243.108124 206.001694,241.002441 
	C206.750824,241.002396 207.499954,241.002350 208.672134,241.378418 
	C210.382385,242.503311 211.648102,243.292587 212.962418,243.990265 
	C214.474228,244.792786 216.054901,245.466507 217.559677,246.281143 
	C220.459473,247.850983 223.326935,249.480576 226.129669,251.515457 
	C226.051529,253.903580 226.051529,255.861618 226.051529,258.537720 
	C233.123093,258.537720 239.961960,258.537720 247.008179,258.537720 
	C247.079437,260.038696 247.149704,260.838684 247.150574,261.638763 
	C247.166443,276.386932 247.282654,291.136353 247.107101,305.882324 
	C247.063095,309.578644 248.131378,311.171173 251.892670,310.618195 
	C252.862778,310.475586 253.875687,310.624298 254.868942,310.639191 
M188.430222,253.702209 
	C188.703552,253.988205 188.974365,254.276917 189.264252,254.545059 
	C189.271774,254.552032 189.487442,254.334030 189.606033,254.220917 
	C189.332306,253.934830 189.058563,253.648758 188.430222,253.702209 
z"/>
<path fill="#FEFEFE" opacity="1.000000" stroke="none" 
	d="
M226.207794,251.085388 
	C223.326935,249.480576 220.459473,247.850983 217.559677,246.281143 
	C216.054901,245.466507 214.474228,244.792786 212.962418,243.990265 
	C211.648102,243.292587 210.382385,242.503311 209.046692,241.378769 
	C212.498856,240.816635 215.999496,240.630249 219.795715,241.089569 
	C221.344803,242.418716 222.587570,243.125687 223.882889,243.717667 
	C223.948975,243.747864 224.466766,242.789673 224.774261,242.291672 
	C223.849503,241.861313 222.924759,241.430969 222.000000,241.000610 
	C222.476334,240.458145 222.956772,239.438492 223.428406,239.442566 
	C237.851898,239.566589 252.279816,239.618942 266.695435,240.061096 
	C276.167236,240.351624 285.614624,241.449692 295.086365,241.725266 
	C298.596527,241.827377 302.130096,240.493240 305.682648,240.054382 
	C307.289490,239.855911 309.173462,239.802353 310.575928,240.451569 
	C314.366241,242.206146 317.813385,241.946609 321.453094,240.050964 
	C326.700256,237.318085 331.600983,240.033081 336.135437,242.018494 
	C338.996552,243.271271 339.869507,246.588654 337.604309,249.670212 
	C336.831329,250.721771 335.974213,251.711472 335.347809,252.490387 
	C336.136139,254.735138 336.815521,256.669708 336.915405,258.633667 
	C335.497192,258.142822 334.608521,257.109100 333.827911,257.185089 
	C328.438202,257.709778 328.104858,254.257736 328.601776,249.498337 
	C323.747559,248.976196 319.184875,248.666367 314.694336,247.921402 
	C312.636780,247.580063 310.775513,246.171143 308.722992,245.645294 
	C307.231354,245.263123 305.126343,244.899750 304.072937,245.638123 
	C301.183350,247.663559 295.293884,248.300003 292.542786,246.229416 
	C289.544678,243.972900 287.684479,245.649857 286.148224,248.101562 
	C285.164642,249.671219 284.405334,251.381393 284.029175,252.101959 
	C280.867706,251.671356 278.798187,251.389481 276.523499,251.105896 
	C276.318298,251.104187 276.003998,250.840332 275.923462,250.483948 
	C275.488800,249.806076 275.128967,249.197769 274.781281,249.204605 
	C263.347656,249.429718 251.915405,249.886871 240.482468,249.899963 
	C236.194229,249.904877 231.904831,248.897720 227.286682,248.310074 
	C227.256714,248.559845 227.123779,249.667725 226.818436,250.912109 
	C226.646027,251.048599 226.207794,251.085388 226.207794,251.085388 
z"/>
<path fill="#FEFEFE" opacity="1.000000" stroke="none" 
	d="
M205.778168,240.733032 
	C206.149414,243.108124 206.297150,245.213806 206.386566,246.488495 
	C202.754196,247.718704 199.407898,249.032791 195.957306,249.957870 
	C193.614090,250.586044 190.946350,251.386353 188.739502,250.838287 
	C184.757523,249.849380 183.004547,252.455627 182.009552,254.873001 
	C181.126312,257.018890 181.340393,260.101807 182.226227,262.306610 
	C182.749390,263.608795 185.519394,264.008240 187.696869,265.110901 
	C188.065094,265.568115 188.015442,265.728088 187.550659,266.014526 
	C185.661758,268.926147 184.188004,271.711334 182.481857,274.935699 
	C186.786194,277.408112 191.441986,280.082367 195.117142,282.193359 
	C195.117142,285.084106 195.117142,286.914886 195.117142,288.745697 
	C197.178894,288.061646 199.240631,287.377594 201.302368,286.693542 
	C205.580460,286.994141 211.065094,286.217194 214.076233,291.167542 
	C214.709442,292.208527 215.631058,293.247162 215.741257,294.354370 
	C215.790482,294.848999 214.219681,295.892700 213.285217,296.034210 
	C207.330078,296.936066 201.701584,302.253143 195.267456,297.496216 
	C195.064453,297.346130 194.385208,297.840240 193.690582,297.967896 
	C193.152634,297.708435 192.992096,297.433411 192.945557,296.701813 
	C191.895111,294.609528 191.144531,292.566650 189.698746,291.349792 
	C189.187164,290.919189 186.276215,292.124298 185.677307,293.237335 
	C183.786987,296.750397 180.574692,297.316284 177.272003,297.989746 
	C177.212814,296.276855 177.153625,294.563995 177.554230,292.421173 
	C181.400391,290.709381 184.786774,289.427551 188.173157,288.145691 
	C187.930527,287.392212 187.687897,286.638733 187.445267,285.885254 
	C185.538956,286.429565 183.625595,286.950562 181.728592,287.525574 
	C180.232056,287.979218 178.755676,288.499390 177.270340,288.989990 
	C177.210266,288.241150 177.150192,287.492340 177.405548,286.358521 
	C177.952866,285.814850 178.184784,285.656189 178.416687,285.497528 
	C178.033386,285.329010 177.650085,285.160522 177.266785,284.992004 
	C177.197617,275.594177 177.148575,266.196167 177.041656,256.798767 
	C177.021255,255.003357 176.772751,253.210526 176.096649,250.882675 
	C173.658035,249.873596 171.445633,245.490265 169.992645,250.785950 
	C169.992645,250.785950 169.586517,251.009338 169.005066,250.986328 
	C165.949875,251.642426 163.476166,252.321518 161.002441,253.000626 
	C158.535980,249.881363 160.857620,248.660965 163.190933,247.389893 
	C165.387222,246.193481 168.121307,245.873566 168.702942,242.410019 
	C168.873901,241.392014 171.948502,240.274246 173.720657,240.225189 
	C178.591904,240.090363 183.488647,240.366486 188.353455,240.754074 
	C190.379349,240.915482 192.345627,242.186615 194.346634,242.207092 
	C196.839996,242.232651 199.341217,241.487106 201.839111,241.074997 
	C203.077530,240.870651 204.316116,240.667374 205.778168,240.733032 
z"/>
<path fill="#29436D" opacity="1.000000" stroke="none" 
	d="
M276.003998,250.840332 
	C276.003998,250.840332 276.318298,251.104187 276.591736,251.532715 
	C276.865173,254.027832 276.865173,256.094421 276.865173,258.654083 
	C269.582336,258.654083 263.001801,258.654083 256.139404,258.654083 
	C256.139404,264.103180 256.139404,269.053650 256.139404,274.004120 
	C256.090057,279.027039 256.040680,284.049988 255.984787,289.993225 
	C256.032318,295.277130 256.086395,299.640686 256.140442,304.004272 
	C255.882446,306.024719 255.624466,308.045135 255.117706,310.352386 
	C253.875687,310.624298 252.862778,310.475586 251.892670,310.618195 
	C248.131378,311.171173 247.063095,309.578644 247.107101,305.882324 
	C247.282654,291.136353 247.166443,276.386932 247.150574,261.638763 
	C247.149704,260.838684 247.079437,260.038696 247.008179,258.537720 
	C239.961960,258.537720 233.123093,258.537720 226.051529,258.537720 
	C226.051529,255.861618 226.051529,253.903580 226.129669,251.515457 
	C226.207794,251.085388 226.646027,251.048599 227.282349,250.988037 
	C243.947098,250.898438 259.975555,250.869385 276.003998,250.840332 
z"/>
<path fill="#F7FAFA" opacity="1.000000" stroke="none" 
	d="
M256.515808,273.951416 
	C256.139404,269.053650 256.139404,264.103180 256.139404,258.654083 
	C263.001801,258.654083 269.582336,258.654083 276.865173,258.654083 
	C276.865173,256.094421 276.865173,254.027832 276.796936,251.534424 
	C278.798187,251.389481 280.867706,251.671356 284.029175,252.101959 
	C284.405334,251.381393 285.164642,249.671219 286.148224,248.101562 
	C287.684479,245.649857 289.544678,243.972900 292.542786,246.229416 
	C295.293884,248.300003 301.183350,247.663559 304.072937,245.638123 
	C305.126343,244.899750 307.231354,245.263123 308.722992,245.645294 
	C310.775513,246.171143 312.636780,247.580063 314.694336,247.921402 
	C319.184875,248.666367 323.747559,248.976196 328.601776,249.498337 
	C328.104858,254.257736 328.438202,257.709778 333.827911,257.185089 
	C334.608521,257.109100 335.497192,258.142822 336.667328,258.831482 
	C336.798370,262.549438 336.597961,266.098846 336.089600,269.868805 
	C331.314789,259.983276 324.419922,252.503815 313.199402,250.202972 
	C294.834595,246.437119 278.368988,258.898438 276.678101,277.655853 
	C276.514313,279.473083 276.559967,281.309204 276.416351,283.555725 
	C272.946167,283.356384 272.540771,280.950958 273.421356,278.365936 
	C275.083588,273.486450 272.051697,272.110596 268.461731,272.144226 
	C264.600098,272.180420 260.748291,273.269226 256.515808,273.951416 
z"/>
<path fill="#E5F6FA" opacity="1.000000" stroke="none" 
	d="
M171.202942,199.104340 
	C162.994949,203.383163 154.788116,207.664215 146.578629,211.940186 
	C138.512009,216.141754 130.442703,220.338165 121.272293,225.110458 
	C123.282867,225.294464 124.344139,225.391602 125.728630,225.556030 
	C125.781837,229.301880 122.555687,227.377106 122.334320,226.779800 
	C120.725105,222.437729 116.504021,223.917389 113.339714,222.382843 
	C113.339714,220.046280 113.339714,217.608704 113.339714,214.811462 
	C118.217628,213.316422 121.288109,210.034042 122.173195,204.517624 
	C122.873695,200.151749 126.273048,203.833282 128.638351,203.009186 
	C125.633476,208.047348 122.232849,213.072983 117.951843,219.399689 
	C120.713745,218.797729 122.299759,218.804489 123.512413,218.134995 
	C142.141739,207.849686 160.722458,197.476318 179.625366,187.412933 
	C178.676453,188.891083 177.448517,190.115891 176.149582,191.260086 
	C174.105835,193.060364 171.954834,194.746552 170.027954,196.660934 
	C169.817841,196.869690 170.782944,198.261353 171.202942,199.104340 
z"/>
<path fill="#F7FAFA" opacity="1.000000" stroke="none" 
	d="
M108.163956,280.026428 
	C107.332153,278.116516 106.500351,276.206635 105.787949,273.573303 
	C105.939896,272.564972 105.972443,272.280060 106.004990,271.995117 
	C113.699287,272.045258 113.457397,272.230164 111.793106,279.971954 
	C111.201416,282.724365 112.500450,286.847839 114.463715,288.841156 
	C115.743790,290.140839 119.776291,288.729645 123.158257,288.227112 
	C124.822182,288.473785 126.597374,288.811707 126.847626,289.621094 
	C127.458664,291.597382 127.363968,293.791840 127.553375,295.898468 
	C127.616425,298.664398 127.679466,301.430328 127.492645,304.852386 
	C127.360336,306.312805 127.477898,307.117096 127.595459,307.921387 
	C128.311508,312.465912 131.882599,309.863098 134.561676,310.617950 
	C132.991882,311.455444 131.044403,312.714539 129.010651,312.874115 
	C123.191551,313.330597 117.337433,313.340851 111.411919,313.011963 
	C111.891869,311.952637 112.456993,311.407898 113.022118,310.863159 
	C114.991577,310.467896 116.961037,310.072662 119.441322,309.346558 
	C121.434372,308.714386 122.916588,308.413025 124.398788,308.111633 
	C124.217056,307.262512 124.035324,306.413391 123.853592,305.564270 
	C122.471817,306.005280 121.091652,306.451447 119.706993,306.883179 
	C119.401070,306.978577 119.079208,307.022919 118.764671,307.090729 
	C118.139847,305.707489 117.515022,304.324219 116.909500,302.277405 
	C116.618965,301.075928 116.309120,300.538086 115.999268,300.000214 
	C115.632744,299.298309 115.266220,298.596405 114.913300,297.260559 
	C114.627312,296.086334 114.327721,295.546051 114.028122,295.005737 
	C112.283333,290.787750 110.538551,286.569733 108.806801,281.692261 
	C108.601212,280.697357 108.382584,280.361877 108.163956,280.026428 
z"/>
<path fill="#E3F3F6" opacity="1.000000" stroke="none" 
	d="
M246.323044,211.431122 
	C250.971848,210.867783 255.925903,210.447205 260.888184,210.296097 
	C265.854340,210.144867 270.828705,210.262894 276.060760,209.326736 
	C267.162140,205.453964 258.263550,201.581192 249.283676,197.115997 
	C248.802307,194.681885 248.402222,192.840195 248.002121,190.998505 
	C256.940582,195.109467 265.878723,199.221054 274.817871,203.330582 
	C275.965515,203.858200 277.118103,204.375076 279.438873,205.427963 
	C277.572784,201.539032 276.205475,198.689651 274.804626,195.475861 
	C278.928406,197.809937 282.672577,204.732376 280.662476,208.255127 
	C279.278931,210.679886 275.668427,212.646332 272.749817,213.190689 
	C268.469269,213.989059 263.904785,213.527435 259.484772,213.240631 
	C255.185104,212.961609 250.914993,212.226715 246.323044,211.431122 
z"/>
<path fill="#FEFEFE" opacity="1.000000" stroke="none" 
	d="
M154.776245,277.091400 
	C154.160370,276.352234 153.544510,275.613068 152.939728,274.149536 
	C152.634079,271.616760 152.317352,269.808350 152.000595,267.570190 
	C152.332291,264.759979 152.664017,262.379486 152.995728,259.998993 
	C154.048828,261.449921 155.101929,262.900848 156.387421,264.671967 
	C158.028870,261.057556 159.148636,258.591827 160.852173,256.328766 
	C163.168228,257.154602 166.367783,257.699921 166.405624,258.412994 
	C166.779663,265.461639 166.734161,272.541840 166.482681,279.601501 
	C166.454361,280.396149 163.826385,281.986694 163.431320,281.714905 
	C162.194565,280.864014 161.086288,279.414154 160.626312,277.973511 
	C160.240646,276.765594 160.833908,275.245148 161.068085,273.220062 
	C158.502228,274.798828 156.639236,275.945099 154.776245,277.091400 
z"/>
<path fill="#F7FAFA" opacity="1.000000" stroke="none" 
	d="
M289.157532,307.075745 
	C301.332306,313.712616 313.375427,314.397400 324.967041,305.781128 
	C327.814667,303.664398 329.895874,300.516571 332.594849,297.717102 
	C334.125336,299.514984 335.390381,301.438568 337.002563,303.889984 
	C334.833710,304.375092 333.449829,304.857391 332.038025,304.961853 
	C329.621704,305.140686 328.107025,305.307770 328.542786,308.710846 
	C328.957031,311.945740 319.960388,317.769836 316.953033,316.362274 
	C311.721497,313.913788 306.919525,313.086182 302.695923,318.609650 
	C299.913849,314.856049 297.185333,313.180542 292.716522,314.679932 
	C289.913300,315.620483 287.834564,311.162537 289.157532,307.075745 
z"/>
<path fill="#E5F6FA" opacity="1.000000" stroke="none" 
	d="
M177.785614,136.099594 
	C167.679901,150.587540 157.235794,165.083618 146.731979,179.536301 
	C141.477829,186.765762 136.114716,193.916016 130.499817,201.269806 
	C129.777054,199.408997 129.355347,197.380478 129.062439,195.971527 
	C131.062195,195.002060 132.776016,194.710327 133.557663,193.698486 
	C136.855179,189.429993 139.796768,184.888809 143.015747,180.556763 
	C147.095993,175.065628 151.783722,169.966949 155.354416,164.172134 
	C159.196564,157.936783 163.526474,152.146698 167.951050,146.350952 
	C170.814545,142.600067 172.169037,137.601364 177.785614,136.099594 
z"/>
<path fill="#F7FAFA" opacity="1.000000" stroke="none" 
	d="
M154.896881,277.415710 
	C156.639236,275.945099 158.502228,274.798828 161.068085,273.220062 
	C160.833908,275.245148 160.240646,276.765594 160.626312,277.973511 
	C161.086288,279.414154 162.194565,280.864014 163.431320,281.714905 
	C163.826385,281.986694 166.454361,280.396149 166.482681,279.601501 
	C166.734161,272.541840 166.779663,265.461639 166.405624,258.412994 
	C166.367783,257.699921 163.168228,257.154602 161.218353,256.265717 
	C161.001083,255.250153 161.001404,254.500290 161.002075,253.375534 
	C163.476166,252.321518 165.949875,251.642426 168.774200,251.006866 
	C169.000595,264.307556 168.874878,277.564667 168.754089,290.821838 
	C168.739731,292.396881 168.752136,293.972198 167.713409,295.831207 
	C163.481445,289.800812 159.249481,283.770416 154.896881,277.415710 
z"/>
<path fill="#F6F9F9" opacity="1.000000" stroke="none" 
	d="
M92.964310,250.389023 
	C88.472351,250.121399 86.809273,252.838593 85.414742,256.625092 
	C81.343292,267.680145 76.949806,278.616547 72.399185,289.814026 
	C68.058128,284.482971 68.691940,280.150299 74.044922,276.841156 
	C76.921684,275.062775 76.319611,272.205292 71.646797,268.601501 
	C73.290733,267.249237 74.615158,265.713379 76.288872,264.873871 
	C80.025719,262.999512 81.613121,260.618622 81.975616,256.067535 
	C82.237976,252.773392 85.801994,249.742218 87.893623,246.593765 
	C89.567940,247.746124 91.242264,248.898483 92.964310,250.389023 
z"/>
<path fill="#DDF9FB" opacity="1.000000" stroke="none" 
	d="
M220.969666,96.675354 
	C219.844620,95.687492 218.746078,94.308540 217.168015,92.327698 
	C216.585785,106.402649 216.028915,119.864426 214.947906,133.378189 
	C214.423767,123.834114 214.423767,114.238052 214.423767,104.641991 
	C214.017288,104.598190 213.610794,104.554390 213.204315,104.510590 
	C212.801300,107.484604 212.385117,110.456902 211.998169,113.432999 
	C211.324600,118.613670 210.669052,123.796677 210.005951,128.978699 
	C210.525055,118.216797 211.052139,107.455261 211.554901,96.692589 
	C211.631714,95.047897 211.596069,93.397934 211.377380,91.462097 
	C213.116943,88.433380 217.927216,88.357903 219.514359,91.226112 
	C220.344437,92.726166 220.523239,94.586601 220.969666,96.675354 
z"/>
<path fill="#F6F9F9" opacity="1.000000" stroke="none" 
	d="
M152.931671,259.629578 
	C152.664017,262.379486 152.332291,264.759979 151.966766,267.918762 
	C151.575714,269.555878 151.218460,270.414703 150.861206,271.273529 
	C147.273834,266.342346 143.396790,261.590790 140.191727,256.422516 
	C137.676056,252.365952 134.843353,249.914871 129.455688,250.865448 
	C130.405350,249.304901 131.552155,247.425156 133.226517,246.482346 
	C134.476273,245.778671 136.821411,245.652054 137.947128,246.387817 
	C140.134216,247.817276 141.953278,249.913834 143.636475,251.970032 
	C144.597595,253.144135 144.990189,254.783615 145.514008,255.938492 
	C148.037201,257.078247 150.452393,258.169220 152.931671,259.629578 
z"/>
<path fill="#E5F6FA" opacity="1.000000" stroke="none" 
	d="
M210.694504,91.106155 
	C202.002472,103.696327 192.898697,116.232651 183.502991,128.920410 
	C182.149307,127.139572 181.087570,125.207298 180.039810,123.300476 
	C185.608841,118.979469 191.330856,115.902138 194.852310,109.002396 
	C197.560547,103.696022 202.621796,99.354752 204.790451,93.195518 
	C205.216187,91.986404 208.381134,91.741760 210.694504,91.106155 
z"/>
<path fill="#F6F9F9" opacity="1.000000" stroke="none" 
	d="
M127.653221,295.446899 
	C127.363968,293.791840 127.458664,291.597382 126.847626,289.621094 
	C126.597374,288.811707 124.822182,288.473785 123.373856,287.959686 
	C123.006157,278.644775 123.005302,269.291595 123.351311,259.469421 
	C124.985733,258.369385 126.273285,257.738281 127.560837,257.107178 
	C127.624916,269.736542 127.688988,282.365936 127.653221,295.446899 
z"/>
<path fill="#F6F9F9" opacity="1.000000" stroke="none" 
	d="
M106.060577,271.641235 
	C105.972443,272.280060 105.939896,272.564972 105.831024,273.275177 
	C102.801300,266.484283 99.847916,259.268066 96.867973,251.692932 
	C97.288658,250.643799 97.578346,249.644272 98.212601,249.321228 
	C100.135574,248.341797 102.707558,246.440521 104.092224,247.043686 
	C107.270950,248.428299 104.815918,250.688034 103.915215,252.733521 
	C102.548805,255.836655 101.902840,258.817719 105.507523,261.386230 
	C110.288757,264.793060 110.241463,266.830383 106.060577,271.641235 
z"/>
<path fill="#DDF9FB" opacity="1.000000" stroke="none" 
	d="
M264.916382,176.697815 
	C260.445679,169.408005 255.982025,161.710129 251.609940,153.960602 
	C249.336075,149.930222 247.223862,145.808655 245.011902,141.368408 
	C247.692581,144.099243 250.872406,146.897461 253.005814,150.343506 
	C257.037994,156.856598 260.584625,163.683014 264.065155,170.515686 
	C264.902252,172.158981 264.690674,174.336487 264.916382,176.697815 
z"/>
<path fill="#F7FAFA" opacity="1.000000" stroke="none" 
	d="
M276.293243,286.648712 
	C278.747498,294.122040 282.170044,301.195709 289.091522,306.478607 
	C285.948944,306.129150 282.644745,305.487549 278.956879,304.771454 
	C280.836029,299.810608 278.430573,297.964478 274.412231,297.538055 
	C273.747131,293.620483 272.511932,289.929657 276.293243,286.648712 
z"/>
<path fill="#DDF9FB" opacity="1.000000" stroke="none" 
	d="
M240.870880,132.934128 
	C234.211563,121.488724 227.612091,109.627090 220.969055,97.408554 
	C223.292236,100.067757 226.047836,102.859238 227.946259,106.145844 
	C232.141205,113.408203 235.945694,120.898537 239.804169,128.350388 
	C240.450775,129.599197 240.568588,131.121811 240.870880,132.934128 
z"/>
<path fill="#F7FAFA" opacity="1.000000" stroke="none" 
	d="
M127.654716,256.681641 
	C126.273285,257.738281 124.985733,258.369385 123.352959,259.000854 
	C122.340576,256.901642 121.140404,254.793060 121.175690,252.705353 
	C121.203682,251.048981 122.744751,249.418167 123.614006,247.776016 
	C124.931709,248.750671 126.249405,249.725327 127.846024,250.882080 
	C127.999496,252.794830 127.874046,254.525482 127.654716,256.681641 
M125.517258,254.411957 
	C125.517258,254.411957 125.583656,254.523056 125.517258,254.411957 
z"/>
<path fill="#F7FAFA" opacity="1.000000" stroke="none" 
	d="
M224.999588,310.578674 
	C222.482452,311.522247 219.481003,310.681488 217.919037,314.019135 
	C217.741302,314.398926 214.138321,313.175690 212.374146,312.146545 
	C216.759430,309.406281 220.894135,307.215210 225.057007,305.050659 
	C225.085159,305.077118 225.144531,305.126587 225.144531,305.126587 
	C225.096283,306.803925 225.048035,308.481262 224.999588,310.578674 
z"/>
<path fill="#F6F9F9" opacity="1.000000" stroke="none" 
	d="
M70.650970,293.146667 
	C69.239761,297.694794 67.492439,302.387390 65.470490,307.349060 
	C65.139084,307.036743 65.082314,306.455383 65.012558,305.437012 
	C66.508385,300.977692 64.411156,295.318390 70.650970,293.146667 
z"/>
<path fill="#F7FAFA" opacity="1.000000" stroke="none" 
	d="
M256.523529,303.899048 
	C256.086395,299.640686 256.032318,295.277130 256.059021,290.454651 
	C259.695312,294.411713 258.155212,299.110870 256.523529,303.899048 
z"/>
<path fill="#DDF9FB" opacity="1.000000" stroke="none" 
	d="
M273.833282,192.986572 
	C271.526733,189.505035 269.281006,185.618652 267.006622,181.373856 
	C271.813324,183.358047 272.603271,188.119659 273.833282,192.986572 
z"/>
<path fill="#E3F3F6" opacity="1.000000" stroke="none" 
	d="
M222.063446,213.340942 
	C225.377914,212.615417 228.748367,212.230499 232.557281,211.926010 
	C229.746826,215.009491 225.890579,214.069290 222.063446,213.340942 
z"/>
<path fill="#F6F9F9" opacity="1.000000" stroke="none" 
	d="
M124.987823,242.923370 
	C124.829903,244.020386 124.670303,244.741928 124.510704,245.463486 
	C124.163063,245.500092 123.815422,245.536697 123.467789,245.573318 
	C123.068138,243.915466 122.668495,242.257629 122.268845,240.599777 
	C122.704170,240.397491 123.139496,240.195206 123.574821,239.992905 
	C124.045265,240.844574 124.515701,241.696243 124.987823,242.923370 
z"/>
<path fill="#F7FAFA" opacity="1.000000" stroke="none" 
	d="
M221.666870,241.000916 
	C222.924759,241.430969 223.849503,241.861313 224.774261,242.291672 
	C224.466766,242.789673 223.948975,243.747864 223.882889,243.717667 
	C222.587570,243.125687 221.344803,242.418716 220.046265,241.368835 
	C220.445389,241.002029 220.889557,241.001617 221.666870,241.000916 
z"/>
<path fill="#DDF9FB" opacity="1.000000" stroke="none" 
	d="
M245.009277,140.673737 
	C243.700699,138.899231 242.411469,136.784378 241.103790,134.324646 
	C244.376328,134.870956 245.554001,137.073685 245.009277,140.673737 
z"/>
<path fill="#F6F9F9" opacity="1.000000" stroke="none" 
	d="
M113.093040,255.005188 
	C113.889420,254.314087 114.686829,253.995193 115.484238,253.676300 
	C115.486778,254.557358 115.489319,255.438416 115.491859,256.319489 
	C114.692596,256.005463 113.893333,255.691422 113.093040,255.005188 
z"/>
<path fill="#E3F3F6" opacity="1.000000" stroke="none" 
	d="
M235.195862,212.194305 
	C236.725769,211.669739 238.471970,211.420349 240.598938,211.257294 
	C239.123856,211.718918 237.268021,212.094193 235.195862,212.194305 
z"/>
<path fill="#F7FAFA" opacity="1.000000" stroke="none" 
	d="
M234.409363,273.137390 
	C235.410645,273.711212 236.064941,274.354767 236.719223,274.998291 
	C236.202011,275.269806 235.684799,275.541321 235.167587,275.812836 
	C234.799179,274.944275 234.430771,274.075684 234.409363,273.137390 
z"/>
<path fill="#E5F6FA" opacity="1.000000" stroke="none" 
	d="
M181.567902,130.990601 
	C180.859314,132.602692 179.778702,134.222351 178.407104,135.989746 
	C179.142715,134.424377 180.169296,132.711258 181.567902,130.990601 
z"/>
<path fill="#F7FAFA" opacity="1.000000" stroke="none" 
	d="
M333.694031,296.848999 
	C333.895660,295.389465 334.482544,293.887756 335.269775,292.109924 
	C338.096771,294.355804 335.597870,295.444244 333.694031,296.848999 
z"/>
<path fill="#DDF9FB" opacity="1.000000" stroke="none" 
	d="
M266.999390,180.637054 
	C266.284607,179.942551 265.586578,178.864624 264.865906,177.453140 
	C265.567596,178.164246 266.291901,179.208939 266.999390,180.637054 
z"/>
<path fill="#F6F9F9" opacity="1.000000" stroke="none" 
	d="
M66.475174,267.307037 
	C66.469376,266.551697 66.674377,266.015747 66.879387,265.479828 
	C67.153618,265.614777 67.427856,265.749695 67.702095,265.884644 
	C67.363396,266.431915 67.024689,266.979187 66.475174,267.307037 
z"/>
<path fill="#E5F6FA" opacity="1.000000" stroke="none" 
	d="
M138.300720,178.519348 
	C137.552582,178.524551 137.022186,178.322113 136.491806,178.119675 
	C136.625702,177.849060 136.759598,177.578445 136.893509,177.307831 
	C137.435165,177.642471 137.976822,177.977097 138.300720,178.519348 
z"/>
<path fill="#F7FAFA" opacity="1.000000" stroke="none" 
	d="
M239.538773,267.013000 
	C238.953949,267.411835 238.372696,267.509644 237.791428,267.607422 
	C237.796524,267.196991 237.801620,266.786530 237.806717,266.376099 
	C238.385254,266.488037 238.963806,266.599976 239.538773,267.013000 
z"/>
<path fill="#F7FAFA" opacity="1.000000" stroke="none" 
	d="
M337.107361,287.981964 
	C336.761353,287.526306 336.776154,287.073486 336.938171,286.308899 
	C337.888397,286.347656 338.691315,286.698181 339.494232,287.048706 
	C338.818878,287.360748 338.143524,287.672791 337.107361,287.981964 
z"/>
<path fill="#F7FAFA" opacity="1.000000" stroke="none" 
	d="
M283.045624,310.393677 
	C283.287750,310.790436 283.286072,311.185120 283.255829,311.577576 
	C283.254974,311.588593 282.949036,311.576111 282.785370,311.574585 
	C282.789520,311.180145 282.793671,310.785706 283.045624,310.393677 
z"/>
<path fill="#F6F9F9" opacity="1.000000" stroke="none" 
	d="
M65.534851,291.390930 
	C65.650826,290.941650 65.933792,290.666260 66.234688,290.412109 
	C66.242355,290.405640 66.447182,290.632568 66.560066,290.750671 
	C66.274765,291.022980 65.989464,291.295288 65.534851,291.390930 
z"/>
<path fill="#E3F3F6" opacity="1.000000" stroke="none" 
	d="
M216.233368,213.513504 
	C216.766602,213.211166 217.508331,213.108704 218.620300,213.078156 
	C218.140976,213.337860 217.291412,213.525620 216.233368,213.513504 
z"/>
<path fill="#F7FAFA" opacity="1.000000" stroke="none" 
	d="
M337.355896,281.830231 
	C337.087952,281.540985 337.021942,281.102173 337.055237,280.341858 
	C337.288971,280.573761 337.423401,281.127228 337.355896,281.830231 
z"/>
<path fill="#F7FAFA" opacity="1.000000" stroke="none" 
	d="
M336.879395,273.168152 
	C336.576141,272.910126 336.309723,272.302856 336.069458,271.354553 
	C336.369141,271.615326 336.642700,272.217163 336.879395,273.168152 
z"/>
<path fill="#F7FAFA" opacity="1.000000" stroke="none" 
	d="
M336.387939,289.758423 
	C336.210266,289.569366 336.248322,289.158325 336.523071,288.536438 
	C336.707764,288.729187 336.655731,289.132782 336.387939,289.758423 
z"/>
<path fill="#F7FAFA" opacity="1.000000" stroke="none" 
	d="
M255.000610,311.999390 
	C255.123779,312.142853 255.246338,312.286896 255.368896,312.430969 
	C255.281677,312.381317 255.194458,312.331696 255.053162,312.141663 
	C254.999100,312.001221 255.000000,312.000000 255.000610,311.999390 
z"/>
<path fill="#E5F6FA" opacity="1.000000" stroke="none" 
	d="
M141.994507,178.995804 
	C141.905563,179.034012 141.816635,179.072205 141.863846,179.055206 
	C142.000000,179.000000 141.994507,178.995804 141.994507,178.995804 
z"/>
<path fill="#E5F6FA" opacity="1.000000" stroke="none" 
	d="
M129.641998,202.111343 
	C129.911896,202.372284 129.785858,202.655029 129.248413,202.947327 
	C129.036087,202.704010 129.172440,202.429443 129.641998,202.111343 
z"/>
<path fill="#E5F6FA" opacity="1.000000" stroke="none" 
	d="
M128.119232,225.400543 
	C128.167572,225.178391 128.321320,225.094360 128.732483,225.062775 
	C128.734818,225.256393 128.479736,225.397552 128.119232,225.400543 
z"/>
<path fill="#E5F6FA" opacity="1.000000" stroke="none" 
	d="
M142.002136,179.002747 
	C142.093491,178.967148 142.182724,178.928787 142.133240,178.943115 
	C141.994507,178.995804 142.000000,179.000000 142.002136,179.002747 
z"/>
<path fill="#F6F9F9" opacity="1.000000" stroke="none" 
	d="
M95.922562,250.754608 
	C95.824402,250.932999 95.654984,250.950989 95.254852,250.859131 
	C95.299866,250.697586 95.575584,250.645889 95.922562,250.754608 
z"/>
<path fill="#F7FAFA" opacity="1.000000" stroke="none" 
	d="
M226.026215,304.043182 
	C225.958054,304.397430 225.779480,304.652863 225.339996,304.994568 
	C225.144531,305.126587 225.085159,305.077118 225.121490,304.807953 
	C225.400253,304.322418 225.642700,304.106049 225.885132,303.889648 
	C225.885132,303.889648 225.981247,303.990143 226.026215,304.043182 
z"/>
<path fill="#F8FCFB" opacity="1.000000" stroke="none" 
	d="
M209.917908,129.198593 
	C210.669052,123.796677 211.324600,118.613670 211.998169,113.432999 
	C212.385117,110.456902 212.801300,107.484604 213.204315,104.510590 
	C213.610794,104.554390 214.017288,104.598190 214.423767,104.641991 
	C214.423767,114.238052 214.423767,123.834114 214.726456,133.720917 
	C215.053635,134.457031 215.078125,134.902420 214.751572,135.971664 
	C214.889542,143.103333 215.378555,149.611160 215.925476,156.244141 
	C216.055817,156.537491 216.150055,156.692429 216.266083,156.834106 
	C216.412247,157.326279 216.558426,157.818451 216.472977,158.982910 
	C217.143280,162.105988 218.045212,164.556793 218.947144,167.007584 
	C218.947144,167.007584 219.138809,167.323792 219.096497,167.904648 
	C220.391815,170.308258 221.729446,172.130997 223.067078,173.953735 
	C223.067078,173.953735 223.006454,174.002258 223.015137,174.341705 
	C223.983719,175.464157 224.943649,176.247147 225.903564,177.030136 
	C226.197617,177.191864 226.491684,177.353592 226.929230,178.107849 
	C228.182892,179.403732 229.293060,180.107056 230.403229,180.810394 
	C230.855316,181.040710 231.307419,181.271042 232.027954,181.981018 
	C232.652145,182.591782 233.007874,182.722870 233.363617,182.853973 
	C233.834076,183.027191 234.304520,183.200409 235.051239,183.873047 
	C235.710754,184.520706 236.094040,184.668930 236.477310,184.817154 
	C236.477310,184.817154 236.775650,184.824875 236.923080,185.277252 
	C240.514114,187.420227 243.957703,189.110840 247.401291,190.801453 
	C247.401291,190.801453 247.732529,190.805939 247.867325,190.902222 
	C248.402222,192.840195 248.802307,194.681885 249.063370,196.847961 
	C248.924332,197.172333 248.433853,197.121780 248.143021,196.635712 
	C246.520920,195.788284 245.189667,195.426895 243.858398,195.065506 
	C236.973450,192.767410 230.212158,189.946243 223.177094,188.283218 
	C209.717880,185.101593 196.699844,187.120041 183.633621,193.150528 
	C180.650162,191.639664 179.912628,192.648148 180.002457,194.929504 
	C177.300720,196.293045 174.598969,197.656586 171.550079,199.062225 
	C170.782944,198.261353 169.817841,196.869690 170.027954,196.660934 
	C171.954834,194.746552 174.105835,193.060364 176.149582,191.260086 
	C177.448517,190.115891 178.676453,188.891083 179.969025,187.353516 
	C180.001816,187.004593 180.000046,187.000000 180.210220,186.940765 
	C180.688919,186.741623 180.875549,186.529617 180.980301,186.245514 
	C181.460175,185.878723 181.940048,185.511932 183.023788,185.059937 
	C184.054657,184.588272 184.481659,184.201797 184.908676,183.815308 
	C184.908676,183.815308 184.920303,183.911331 185.134949,183.846771 
	C185.559769,183.509384 185.769958,183.236542 185.980133,182.963715 
	C185.980133,182.963715 185.996323,183.003662 186.210266,182.930176 
	C186.720291,182.701019 186.927689,182.466797 187.046387,182.154037 
	C187.046387,182.154037 187.055069,182.044464 187.470886,182.041626 
	C190.556305,181.439331 193.165985,180.776306 193.028229,177.196213 
	C194.200317,175.905884 195.372391,174.615555 197.045715,173.057632 
	C197.802017,172.563538 197.945663,172.280502 197.977921,171.940903 
	C198.538681,171.089294 199.099426,170.237701 200.108002,169.068726 
	C200.809708,168.515778 200.931091,168.224899 200.919998,167.878677 
	C200.919998,167.878677 200.960541,167.956345 201.188995,167.820526 
	C201.607330,167.137726 201.797241,166.590775 201.987152,166.043808 
	C201.987152,166.043808 201.975510,165.994019 202.355103,165.954742 
	C203.518417,163.618607 204.302139,161.321747 205.085846,159.024887 
	C205.354874,157.889709 205.623886,156.754547 206.265640,155.093155 
	C206.723877,153.970306 206.809387,153.373657 206.894882,152.777023 
	C206.894882,152.777023 206.872986,152.364716 207.346436,152.094513 
	C208.339905,145.570206 208.859940,139.316132 209.379974,133.062042 
	C209.407242,132.534363 209.434525,132.006699 209.702393,130.983322 
	C210.004898,130.283569 209.996826,130.082291 209.918762,129.883789 
	C209.918762,129.883789 209.829865,129.418488 209.917908,129.198593 
z"/>
<path fill="#DDF9FB" opacity="1.000000" stroke="none" 
	d="
M209.242889,133.474808 
	C208.859940,139.316132 208.339905,145.570206 207.440399,151.910675 
	C207.742554,145.960571 208.424164,139.924072 209.242889,133.474808 
z"/>
<path fill="#E1F3F9" opacity="1.000000" stroke="none" 
	d="
M204.865768,159.285950 
	C204.302139,161.321747 203.518417,163.618607 202.379486,165.947037 
	C202.898071,163.834747 203.771881,161.690872 204.865768,159.285950 
z"/>
<path fill="#E1F3F9" opacity="1.000000" stroke="none" 
	d="
M192.719681,177.287964 
	C193.165985,180.776306 190.556305,181.439331 187.523804,182.056488 
	C188.910965,180.509369 190.661041,178.944534 192.719681,177.287964 
z"/>
<path fill="#E1F3F9" opacity="1.000000" stroke="none" 
	d="
M206.649002,152.969788 
	C206.809387,153.373657 206.723877,153.970306 206.405731,154.769104 
	C206.249741,154.368378 206.326431,153.765472 206.649002,152.969788 
z"/>
<path fill="#E1F3F9" opacity="1.000000" stroke="none" 
	d="
M184.613663,183.850616 
	C184.481659,184.201797 184.054657,184.588272 183.318909,184.988754 
	C183.446320,184.630478 183.882492,184.258209 184.613663,183.850616 
z"/>
<path fill="#E1F3F9" opacity="1.000000" stroke="none" 
	d="
M201.739471,166.196991 
	C201.797241,166.590775 201.607330,167.137726 201.145508,167.815186 
	C201.079651,167.413849 201.285721,166.882019 201.739471,166.196991 
z"/>
<path fill="#E1F3F9" opacity="1.000000" stroke="none" 
	d="
M185.714691,183.005066 
	C185.769958,183.236542 185.559769,183.509384 185.088333,183.833893 
	C185.034470,183.605850 185.241867,183.326126 185.714691,183.005066 
z"/>
<path fill="#E5F6FA" opacity="1.000000" stroke="none" 
	d="
M180.751678,186.264557 
	C180.875549,186.529617 180.688919,186.741623 180.212982,186.941696 
	C180.046814,186.667831 180.219315,186.428421 180.751678,186.264557 
z"/>
<path fill="#E1F3F9" opacity="1.000000" stroke="none" 
	d="
M197.742554,172.035355 
	C197.945663,172.280502 197.802017,172.563538 197.336517,172.910782 
	C197.253098,172.730957 197.380127,172.430389 197.742554,172.035355 
z"/>
<path fill="#E1F3F9" opacity="1.000000" stroke="none" 
	d="
M200.696930,167.988342 
	C200.931091,168.224899 200.809708,168.515778 200.344849,168.869781 
	C200.072205,168.624680 200.185532,168.327942 200.696930,167.988342 
z"/>
<path fill="#DDF9FB" opacity="1.000000" stroke="none" 
	d="
M209.784729,130.004028 
	C209.996826,130.082291 210.004898,130.283569 209.874374,130.623138 
	C209.564026,130.593689 209.512344,130.382233 209.784729,130.004028 
z"/>
<path fill="#E1F3F9" opacity="1.000000" stroke="none" 
	d="
M186.799500,182.188309 
	C186.927689,182.466797 186.720291,182.701019 186.192993,182.916992 
	C186.014664,182.612946 186.211609,182.361374 186.799500,182.188309 
z"/>
<path fill="#DDF9FB" opacity="1.000000" stroke="none" 
	d="
M215.867569,156.118973 
	C215.378555,149.611160 214.889542,143.103333 214.694916,136.302216 
	C215.347366,142.038208 215.705444,148.067520 216.010193,154.831558 
	C215.927124,155.750504 215.897354,155.934738 215.867569,156.118973 
z"/>
<path fill="#E3F3F6" opacity="1.000000" stroke="none" 
	d="
M247.174103,190.529327 
	C243.957703,189.110840 240.514114,187.420227 237.033112,185.378052 
	C240.312805,186.770065 243.629868,188.513657 247.174103,190.529327 
z"/>
<path fill="#E3F3F6" opacity="1.000000" stroke="none" 
	d="
M222.997284,173.623001 
	C221.729446,172.130997 220.391815,170.308258 219.101288,168.089478 
	C220.408096,169.559723 221.667786,171.425995 222.997284,173.623001 
z"/>
<path fill="#E3F3F6" opacity="1.000000" stroke="none" 
	d="
M218.927490,166.635010 
	C218.045212,164.556793 217.143280,162.105988 216.448883,159.369995 
	C217.406891,161.477341 218.157364,163.869888 218.927490,166.635010 
z"/>
<path fill="#E3F3F6" opacity="1.000000" stroke="none" 
	d="
M230.262268,180.510254 
	C229.293060,180.107056 228.182892,179.403732 227.044006,178.336914 
	C228.050644,178.719009 229.085968,179.464569 230.262268,180.510254 
z"/>
<path fill="#E3F3F6" opacity="1.000000" stroke="none" 
	d="
M225.795776,176.742950 
	C224.943649,176.247147 223.983719,175.464157 223.036606,174.309494 
	C223.928925,174.777145 224.808456,175.616455 225.795776,176.742950 
z"/>
<path fill="#E3F3F6" opacity="1.000000" stroke="none" 
	d="
M215.925476,156.244141 
	C215.897354,155.934738 215.927124,155.750504 215.976654,155.287079 
	C216.173523,155.470673 216.350601,155.933487 216.396881,156.615204 
	C216.150055,156.692429 216.055817,156.537491 215.925476,156.244141 
z"/>
<path fill="#E3F3F6" opacity="1.000000" stroke="none" 
	d="
M233.197952,182.624268 
	C233.007874,182.722870 232.652145,182.591782 232.157074,182.204712 
	C232.355911,182.097351 232.694107,182.245956 233.197952,182.624268 
z"/>
<path fill="#E3F3F6" opacity="1.000000" stroke="none" 
	d="
M236.307037,184.567566 
	C236.094040,184.668930 235.710754,184.520706 235.198975,184.082306 
	C235.425888,183.967407 235.781326,184.142685 236.307037,184.567566 
z"/>
<path fill="#E5F6FA" opacity="1.000000" stroke="none" 
	d="
M180.339569,194.915970 
	C179.912628,192.648148 180.650162,191.639664 183.285370,193.176086 
	C182.645828,193.855682 181.661255,194.379059 180.339569,194.915970 
z"/>
<path fill="#E3F3F6" opacity="1.000000" stroke="none" 
	d="
M244.060181,195.332275 
	C245.189667,195.426895 246.520920,195.788284 247.934662,196.503922 
	C246.765396,196.438477 245.513672,196.018768 244.060181,195.332275 
z"/>
<path fill="#244067" opacity="1.000000" stroke="none" 
	d="
M225.964844,303.532166 
	C225.642700,304.106049 225.400253,304.322418 225.093323,304.781494 
	C220.894135,307.215210 216.759430,309.406281 212.312088,311.790619 
	C211.551239,311.970734 211.103012,311.957550 209.888977,311.962036 
	C199.799850,312.226318 191.971695,309.130096 185.013046,300.988251 
	C188.040985,299.500031 190.506256,298.288361 192.971527,297.076721 
	C192.992096,297.433411 193.152634,297.708435 193.818665,298.289825 
	C199.964401,303.965057 206.556381,305.540131 214.007568,302.910614 
	C217.682236,301.613861 219.622208,298.896118 219.928833,295.038757 
	C220.235977,291.174530 218.843323,287.997986 215.258438,286.432892 
	C211.782852,284.915527 208.116776,283.746216 204.437469,282.801239 
	C195.450073,280.492920 189.018585,275.850861 187.965805,265.888062 
	C188.015442,265.728088 188.065094,265.568115 188.068115,265.161346 
	C188.887192,262.498016 189.752899,260.081482 190.887436,257.118347 
	C191.230148,256.378479 191.304016,256.185242 191.377869,255.991959 
	C197.551743,250.220718 204.883545,248.663910 213.043808,249.942993 
	C220.031570,251.038269 220.910278,252.440430 218.648514,259.998657 
	C217.145691,259.396881 215.719803,258.480774 214.202194,258.288422 
	C210.816711,257.859375 207.303329,257.234741 203.994370,257.722687 
	C200.168335,258.286896 197.393570,260.816620 197.059494,265.092621 
	C196.716202,269.486481 199.462952,271.923126 203.042343,273.280579 
	C207.677979,275.038605 212.610306,276.026733 217.215714,277.849609 
	C228.080521,282.149963 231.694305,292.823883 225.964844,303.532166 
z"/>
<path fill="#F7FAFA" opacity="1.000000" stroke="none" 
	d="
M192.945572,296.701843 
	C190.506256,298.288361 188.040985,299.500031 185.013046,300.988251 
	C191.971695,309.130096 199.799850,312.226318 209.563385,312.055420 
	C206.056671,315.978973 199.368073,316.986267 195.329605,314.394867 
	C193.298965,313.091888 190.944901,312.169464 189.209259,310.564362 
	C187.404465,308.895294 186.451843,306.283539 184.605408,304.686554 
	C182.743393,303.076111 180.241348,302.205658 177.643570,301.010895 
	C177.205124,300.251465 177.142807,299.492188 177.176239,298.361328 
	C180.574692,297.316284 183.786987,296.750397 185.677307,293.237335 
	C186.276215,292.124298 189.187164,290.919189 189.698746,291.349792 
	C191.144531,292.566650 191.895111,294.609528 192.945572,296.701843 
z"/>
<path fill="#F6F9F9" opacity="1.000000" stroke="none" 
	d="
M68.011551,311.248108 
	C72.706795,311.403656 74.369713,308.545502 75.788818,304.642212 
	C79.705170,293.870087 79.846214,293.921387 91.034752,293.920380 
	C104.479034,293.919189 104.479111,293.919128 108.753952,306.787994 
	C108.806221,306.945343 108.846962,307.106537 108.659355,307.749695 
	C107.950310,308.488983 107.475006,308.744507 106.999695,309.000000 
	C106.898834,308.677765 106.712029,308.417114 106.219635,308.109039 
	C106.000000,308.000000 105.997704,307.998322 105.997704,307.998322 
	C105.637825,306.391724 105.225220,304.794830 104.928047,303.176727 
	C104.065430,298.479858 101.494400,296.417480 96.548729,296.922150 
	C92.764481,297.308258 88.879921,296.723999 85.099304,297.127411 
	C83.413918,297.307220 80.733185,298.620880 80.487923,299.824249 
	C79.819962,303.101624 79.685577,306.227936 77.148582,308.986786 
	C74.657623,311.695526 72.911438,315.089203 70.838409,318.182281 
	C70.392891,318.012695 69.947372,317.843109 69.501846,317.673523 
	C69.005959,315.663971 68.510071,313.654388 68.011551,311.248108 
z"/>
<path fill="#F7FAFA" opacity="1.000000" stroke="none" 
	d="
M139.217072,268.901703 
	C143.880981,275.640930 148.544876,282.380127 153.219696,289.477112 
	C150.740067,289.924805 148.267487,286.373169 145.760422,289.797913 
	C144.955246,288.707184 143.547729,287.631042 143.520935,286.521515 
	C143.496078,285.493011 144.946899,284.428894 145.925125,283.148499 
	C144.734512,281.649200 143.554245,280.162964 142.230865,278.496521 
	C140.829300,279.262695 139.298965,280.099243 137.396378,280.561066 
	C136.787994,277.810638 136.551834,275.434906 136.315689,273.059204 
	C136.259476,272.292023 136.203262,271.524872 136.545517,270.337036 
	C137.701691,269.578156 138.459381,269.239929 139.217072,268.901703 
z"/>
<path fill="#F7FAFA" opacity="1.000000" stroke="none" 
	d="
M161.095901,302.079163 
	C162.946381,303.903137 164.794418,306.101135 166.578476,308.349945 
	C168.942429,311.329681 173.992401,311.543732 177.155090,308.371643 
	C177.772858,309.007996 178.931656,310.339447 178.629456,310.964233 
	C178.177826,311.897919 176.759918,312.749786 175.645416,312.916382 
	C166.613678,314.266479 163.823502,312.211578 161.095901,302.079163 
z"/>
<path fill="#F7FAFA" opacity="1.000000" stroke="none" 
	d="
M136.282516,309.032837 
	C136.232742,308.562439 136.182983,308.092072 136.447601,306.940826 
	C136.866180,298.828552 136.970352,291.397156 137.074539,283.965729 
	C137.716003,285.423981 138.857483,286.864136 138.911026,288.343658 
	C139.124527,294.245148 138.999374,300.158875 138.975800,306.855103 
	C138.635651,308.426392 138.319290,309.210693 138.002930,309.994965 
	C138.002930,309.994965 137.503616,309.998596 137.183273,309.805176 
	C136.730698,309.357422 136.537231,309.164429 136.282516,309.032837 
z"/>
<path fill="#F7FAFA" opacity="1.000000" stroke="none" 
	d="
M153.124374,290.216553 
	C155.741760,293.294922 158.306961,296.800964 160.897675,300.654663 
	C155.587402,300.551910 152.983002,297.115875 153.124374,290.216553 
z"/>
<path fill="#F6F9F9" opacity="1.000000" stroke="none" 
	d="
M137.054504,283.599548 
	C136.970352,291.397156 136.866180,298.828552 136.531387,306.593811 
	C136.244843,295.942535 136.188889,284.957428 136.224304,273.515747 
	C136.551834,275.434906 136.787994,277.810638 137.049438,280.610352 
	C137.061325,281.767334 137.047897,282.500366 137.054504,283.599548 
z"/>
<path fill="#F6F9F9" opacity="1.000000" stroke="none" 
	d="
M138.156281,310.296204 
	C138.319290,309.210693 138.635651,308.426392 138.976105,307.324097 
	C139.556580,308.391449 140.112961,309.776794 140.669342,311.162109 
	C139.882782,310.973907 139.096207,310.785706 138.156281,310.296204 
z"/>
<path fill="#F7FAFA" opacity="1.000000" stroke="none" 
	d="
M107.041275,309.320465 
	C107.475006,308.744507 107.950310,308.488983 108.672752,308.123108 
	C109.388496,308.715118 109.857109,309.417542 110.080536,310.491699 
	C109.555977,310.909393 109.276619,310.955292 108.997253,311.001221 
	C108.359116,310.547791 107.720985,310.094360 107.041275,309.320465 
z"/>
<path fill="#F6F9F9" opacity="1.000000" stroke="none" 
	d="
M109.039009,311.321899 
	C109.276619,310.955292 109.555977,310.909393 110.248596,310.762360 
	C111.262695,310.646545 111.863548,310.631805 112.743256,310.740112 
	C112.456993,311.407898 111.891869,311.952637 111.163071,312.749298 
	C110.359848,312.548340 109.720306,312.095490 109.039009,311.321899 
z"/>
<path fill="#F7FAFA" opacity="1.000000" stroke="none" 
	d="
M177.545471,305.962219 
	C177.207581,305.557312 177.141983,305.106873 177.168701,304.324493 
	C177.446594,304.633942 177.632172,305.275330 177.545471,305.962219 
z"/>
<path fill="#F6F9F9" opacity="1.000000" stroke="none" 
	d="
M64.766754,308.038910 
	C65.095474,308.445648 65.114967,308.886993 65.124939,309.660156 
	C64.570114,309.770020 64.024803,309.548096 63.479500,309.326141 
	C63.805504,308.908600 64.131508,308.491028 64.766754,308.038910 
z"/>
<path fill="#F6F9F9" opacity="1.000000" stroke="none" 
	d="
M136.180145,309.264343 
	C136.537231,309.164429 136.730698,309.357422 136.933624,309.807129 
	C137.004303,310.002441 136.521225,310.008240 136.279724,310.004456 
	C136.051392,309.832397 136.064575,309.664124 136.180145,309.264343 
z"/>
<path fill="#F6F9F9" opacity="1.000000" stroke="none" 
	d="
M106.000900,308.001221 
	C105.907387,308.037384 105.812988,308.072357 105.858139,308.052795 
	C105.997704,307.998322 106.000000,308.000000 106.000900,308.001221 
z"/>
<path fill="#FAFBFC" opacity="1.000000" stroke="none" 
	d="
M327.863708,275.669922 
	C328.681458,282.551514 327.973877,288.715302 324.401062,294.337891 
	C319.207306,302.511505 309.673157,305.831635 299.925873,302.831696 
	C291.346375,300.191193 284.992249,290.261688 285.317749,280.003784 
	C285.878815,262.324951 302.172028,251.888382 316.950897,259.804443 
	C323.106079,263.101349 326.206909,268.669586 327.863708,275.669922 
z"/>
<path fill="#F7FAFA" opacity="1.000000" stroke="none" 
	d="
M177.175842,289.361755 
	C178.755676,288.499390 180.232056,287.979218 181.728592,287.525574 
	C183.625595,286.950562 185.538956,286.429565 187.445267,285.885254 
	C187.687897,286.638733 187.930527,287.392212 188.173157,288.145691 
	C184.786774,289.427551 181.400391,290.709381 177.643265,292.000793 
	C177.208801,291.251404 177.145081,290.492493 177.175842,289.361755 
z"/>
<path fill="#F7FAFA" opacity="1.000000" stroke="none" 
	d="
M170.413330,250.869522 
	C171.445633,245.490265 173.658035,249.873596 175.766800,250.593750 
	C174.257874,250.876816 172.545944,250.914963 170.413330,250.869522 
z"/>
<path fill="#F6F9F9" opacity="1.000000" stroke="none" 
	d="
M139.120514,268.577698 
	C138.459381,269.239929 137.701691,269.578156 136.635162,269.960602 
	C136.251129,268.585663 136.175934,267.166443 136.043640,264.669281 
	C137.476562,266.392670 138.250259,267.323181 139.120514,268.577698 
z"/>
<path fill="#F7FAFA" opacity="1.000000" stroke="none" 
	d="
M150.874847,271.593933 
	C151.218460,270.414703 151.575714,269.555878 151.966782,268.348511 
	C152.317352,269.808350 152.634079,271.616760 152.921509,273.847443 
	C152.224304,273.484589 151.556412,272.699493 150.874847,271.593933 
z"/>
<path fill="#F6F9F9" opacity="1.000000" stroke="none" 
	d="
M127.691574,307.575562 
	C127.477898,307.117096 127.360336,306.312805 127.408157,305.306641 
	C127.644928,305.813110 127.716309,306.521423 127.691574,307.575562 
z"/>
<path fill="#F7FAFA" opacity="1.000000" stroke="none" 
	d="
M177.186691,285.245972 
	C177.650085,285.160522 178.033386,285.329010 178.416687,285.497528 
	C178.184784,285.656189 177.952866,285.814850 177.493561,285.990814 
	C177.212982,285.838745 177.159790,285.669373 177.186691,285.245972 
z"/>
<path fill="#EDF2F6" opacity="1.000000" stroke="none" 
	d="
M83.689774,282.531433 
	C86.364754,275.362152 88.874229,268.532166 91.802689,260.561798 
	C95.179680,269.694427 98.217400,277.909546 101.419235,286.568512 
	C94.828087,286.568512 88.927940,286.568512 82.543129,286.568512 
	C82.895576,285.240204 83.209923,284.055481 83.689774,282.531433 
z"/>
<path fill="#F6F9F9" opacity="1.000000" stroke="none" 
	d="
M118.799957,307.419922 
	C119.079208,307.022919 119.401070,306.978577 119.706993,306.883179 
	C121.091652,306.451447 122.471817,306.005280 123.853592,305.564270 
	C124.035324,306.413391 124.217056,307.262512 124.398788,308.111633 
	C122.916588,308.413025 121.434372,308.714386 119.603943,309.009430 
	C119.115562,308.585114 118.975403,308.167114 118.799957,307.419922 
z"/>
<path fill="#F6F9F9" opacity="1.000000" stroke="none" 
	d="
M114.008423,295.328735 
	C114.327721,295.546051 114.627312,296.086334 114.911896,296.953491 
	C114.594154,296.737457 114.291435,296.194611 114.008423,295.328735 
z"/>
<path fill="#F6F9F9" opacity="1.000000" stroke="none" 
	d="
M116.007378,300.319305 
	C116.309120,300.538086 116.618965,301.075928 116.915466,301.942749 
	C116.606575,301.727234 116.311035,301.182831 116.007378,300.319305 
z"/>
<path fill="#F6F9F9" opacity="1.000000" stroke="none" 
	d="
M108.157867,280.339844 
	C108.382584,280.361877 108.601212,280.697357 108.827560,281.343201 
	C108.607460,281.320160 108.379616,280.986694 108.157867,280.339844 
z"/>
<path fill="#FEFEFE" opacity="1.000000" stroke="none" 
	d="
M190.995148,255.996796 
	C191.304016,256.185242 191.230148,256.378479 190.926697,256.780579 
	C189.677994,257.185974 188.658859,257.382538 187.639740,257.579102 
	C187.561722,257.244263 187.483688,256.909424 187.405655,256.574615 
	C188.474594,256.383636 189.543518,256.192657 190.995148,255.996796 
z"/>
<path fill="#FEFEFE" opacity="1.000000" stroke="none" 
	d="
M188.607513,253.532440 
	C189.058563,253.648758 189.332306,253.934830 189.606049,254.220917 
	C189.487442,254.334030 189.271774,254.552032 189.264252,254.545059 
	C188.974365,254.276917 188.703552,253.988205 188.607513,253.532440 
z"/>
<path fill="#F7FAFA" opacity="1.000000" stroke="none" 
	d="
M275.923462,250.483948 
	C259.975555,250.869385 243.947098,250.898438 227.454742,250.851562 
	C227.123779,249.667725 227.256714,248.559845 227.286682,248.310074 
	C231.904831,248.897720 236.194229,249.904877 240.482468,249.899963 
	C251.915405,249.886871 263.347656,249.429718 274.781281,249.204605 
	C275.128967,249.197769 275.488800,249.806076 275.923462,250.483948 
z"/>
<path fill="#F7FAFA" opacity="1.000000" stroke="none" 
	d="
M187.550659,266.014526 
	C189.018585,275.850861 195.450073,280.492920 204.437469,282.801239 
	C208.116776,283.746216 211.782852,284.915527 215.258438,286.432892 
	C218.843323,287.997986 220.235977,291.174530 219.928833,295.038757 
	C219.622208,298.896118 217.682236,301.613861 214.007568,302.910614 
	C206.556381,305.540131 199.964401,303.965057 194.056076,298.355957 
	C194.385208,297.840240 195.064453,297.346130 195.267456,297.496216 
	C201.701584,302.253143 207.330078,296.936066 213.285217,296.034210 
	C214.219681,295.892700 215.790482,294.848999 215.741257,294.354370 
	C215.631058,293.247162 214.709442,292.208527 214.076233,291.167542 
	C211.065094,286.217194 205.580460,286.994141 201.302368,286.693542 
	C199.240631,287.377594 197.178894,288.061646 195.117142,288.745697 
	C195.117142,286.914886 195.117142,285.084106 195.117142,282.193359 
	C191.441986,280.082367 186.786194,277.408112 182.481857,274.935699 
	C184.188004,271.711334 185.661758,268.926147 187.550659,266.014526 
z"/>
<path fill="#F6F9F9" opacity="1.000000" stroke="none" 
	d="
M125.550461,254.467499 
	C125.583656,254.523056 125.517258,254.411957 125.550461,254.467499 
z"/>
</svg>