<?xml version="1.0" encoding="UTF-8" standalone="no"?>
<svg
   version="1.1"
   width="79.999603pt"
   height="50.068001pt"
   viewBox="0 0 79.9996 50.068002"
   id="svg24"
   sodipodi:docname="aselsan-logo.svg"
   inkscape:version="1.2.1 (9c6d41e410, 2022-07-14)"
   xmlns:inkscape="http://www.inkscape.org/namespaces/inkscape"
   xmlns:sodipodi="http://sodipodi.sourceforge.net/DTD/sodipodi-0.dtd"
   xmlns="http://www.w3.org/2000/svg"
   xmlns:svg="http://www.w3.org/2000/svg">
  <defs
     id="defs28" />
  <sodipodi:namedview
     id="namedview26"
     pagecolor="#505050"
     bordercolor="#eeeeee"
     borderopacity="1"
     inkscape:showpageshadow="0"
     inkscape:pageopacity="0"
     inkscape:pagecheckerboard="0"
     inkscape:deskcolor="#505050"
     inkscape:document-units="pt"
     showgrid="false"
     inkscape:zoom="11.343806"
     inkscape:cx="43.503917"
     inkscape:cy="46.104456"
     inkscape:window-width="1920"
     inkscape:window-height="1017"
     inkscape:window-x="-8"
     inkscape:window-y="-8"
     inkscape:window-maximized="1"
     inkscape:current-layer="svg24" />
  <g
     enable-background="new"
     id="g22"
     transform="translate(0,33.652727)">
    <g
       id="Layer-1"
       data-name="Layer 1">
      <clipPath
         id="cp0">
        <path
           transform="matrix(1,0,0,-1,0,16.0682)"
           d="M 0,16.068 H 80 V 0 H 0 Z"
           id="path2" />
      </clipPath>
      <g
         clip-path="url(#cp0)"
         id="g19">
        <path
           transform="matrix(1,0,0,-1,6.0469,11.289099)"
           d="m 0,0 c -0.601,0 -1.037,-0.088 -1.306,-0.265 -0.239,-0.153 -0.359,-0.44 -0.359,-0.862 0,-0.529 0.15,-0.862 0.451,-1 0.27,-0.123 0.786,-0.185 1.549,-0.185 0.602,0 1.01,0.089 1.226,0.265 0.208,0.176 0.312,0.506 0.312,0.989 0,0.353 -0.073,0.591 -0.22,0.713 C 1.391,-0.115 0.84,0 0,0 M -1.202,3.184 H -4.83 c 0,0.67 0.046,1.175 0.139,1.514 0.092,0.339 0.261,0.643 0.507,0.912 0.437,0.462 1.136,0.755 2.096,0.878 0.453,0.062 1.191,0.093 2.213,0.093 1.781,0 3.029,-0.185 3.743,-0.555 C 4.729,5.572 5.224,4.833 5.354,3.81 5.424,3.263 5.458,2.855 5.458,2.585 V -4.552 H 1.873 L 2,-2.768 H 1.908 C 1.685,-3.398 1.374,-3.859 0.974,-4.151 0.659,-4.374 0.321,-4.516 -0.041,-4.578 -0.432,-4.639 -0.894,-4.67 -1.423,-4.67 c -0.777,0 -1.395,0.064 -1.856,0.191 -0.462,0.126 -0.853,0.339 -1.176,0.639 -0.546,0.523 -0.818,1.416 -0.818,2.677 0,1.138 0.261,1.945 0.783,2.422 0.661,0.607 1.71,0.911 3.147,0.911 1.114,0 1.902,-0.116 2.364,-0.348 C 1.335,1.66 1.6,1.315 1.815,0.79 h 0.058 v 2.164 c 0,0.478 -0.096,0.817 -0.288,1.017 -0.269,0.278 -0.737,0.416 -1.405,0.416 -0.645,0 -1.056,-0.15 -1.232,-0.451 -0.077,-0.139 -0.127,-0.39 -0.15,-0.752"
           fill="#0b2f87"
           fill-rule="evenodd"
           id="path5" />
        <path
           transform="matrix(1,0,0,-1,23.5737,7.963399)"
           d="m 0,0 h -3.409 l -0.035,0.161 c -0.077,0.322 -0.211,0.529 -0.403,0.622 -0.208,0.107 -0.631,0.16 -1.269,0.16 -0.677,0 -1.108,-0.053 -1.292,-0.161 -0.231,-0.131 -0.346,-0.385 -0.346,-0.761 0,-0.469 0.188,-0.75 0.565,-0.842 0.13,-0.031 0.86,-0.081 2.19,-0.15 1.184,-0.062 1.987,-0.146 2.41,-0.254 0.799,-0.208 1.357,-0.588 1.672,-1.142 0.269,-0.469 0.404,-1.084 0.404,-1.845 0,-1.269 -0.373,-2.207 -1.118,-2.815 -0.499,-0.4 -1.052,-0.654 -1.659,-0.762 -0.775,-0.138 -1.697,-0.207 -2.765,-0.207 -1.582,0 -2.711,0.127 -3.386,0.381 -0.953,0.353 -1.529,1.014 -1.728,1.982 -0.055,0.277 -0.085,0.676 -0.093,1.199 h 3.663 c 0.006,-0.1 0.01,-0.176 0.01,-0.23 0,-0.397 0.107,-0.656 0.321,-0.778 0.238,-0.13 0.713,-0.195 1.426,-0.195 0.812,0 1.344,0.088 1.597,0.265 0.176,0.13 0.265,0.353 0.265,0.668 0,0.361 -0.07,0.618 -0.208,0.772 -0.191,0.215 -0.645,0.326 -1.358,0.334 -1.865,0.023 -3.127,0.142 -3.787,0.357 -0.729,0.245 -1.236,0.653 -1.52,1.221 -0.23,0.453 -0.345,1.075 -0.345,1.866 0,1.382 0.391,2.307 1.174,2.776 0.384,0.23 0.89,0.393 1.519,0.489 0.63,0.096 1.504,0.144 2.625,0.144 1.465,0 2.505,-0.107 3.119,-0.322 0.89,-0.314 1.442,-0.897 1.657,-1.748 C -0.035,0.909 0,0.514 0,0"
           fill="#0b2f87"
           id="path7" />
        <path
           transform="matrix(1,0,0,-1,32.5825,8.9541)"
           d="M 0,0 C -0.008,0.176 -0.012,0.291 -0.012,0.344 -0.02,0.842 -0.115,1.182 -0.3,1.366 -0.476,1.526 -0.699,1.626 -0.967,1.664 -1.198,1.687 -1.505,1.698 -1.889,1.698 -2.388,1.698 -2.741,1.652 -2.948,1.561 -3.302,1.408 -3.501,1.098 -3.547,0.631 -3.555,0.555 -3.563,0.344 -3.57,0 Z m -0.058,-3.208 h 3.501 c 0.008,-0.1 0.013,-0.173 0.013,-0.219 0,-0.954 -0.212,-1.72 -0.635,-2.297 -0.383,-0.531 -0.964,-0.889 -1.739,-1.073 -0.569,-0.139 -1.456,-0.208 -2.663,-0.208 -1.613,0 -2.796,0.176 -3.549,0.53 -1.014,0.476 -1.628,1.33 -1.844,2.559 -0.107,0.6 -0.161,1.537 -0.161,2.813 0,1.552 0.146,2.655 0.438,3.309 0.422,0.937 1.239,1.544 2.451,1.821 0.606,0.146 1.435,0.219 2.487,0.219 1.427,0 2.494,-0.162 3.2,-0.484 0.99,-0.452 1.611,-1.323 1.865,-2.613 0.099,-0.483 0.15,-1.143 0.15,-1.979 0,-0.246 -0.005,-0.629 -0.013,-1.151 h -7.047 c -0.011,-0.193 -0.017,-0.335 -0.017,-0.428 0,-0.811 0.116,-1.355 0.347,-1.633 0.261,-0.309 0.772,-0.463 1.533,-0.463 0.769,0 1.257,0.139 1.465,0.417 0.138,0.186 0.211,0.479 0.218,0.88"
           fill="#0b2f87"
           fill-rule="evenodd"
           id="path9" />
        <path
           transform="matrix(1,0,0,-1,0,16.0682)"
           d="m 41.549,0.227 h -3.585 v 15.732001 h 3.585 z"
           fill="#0b2f87"
           id="path11" />
        <path
           transform="matrix(1,0,0,-1,53.7114,7.963399)"
           d="m 0,0 h -3.409 l -0.035,0.161 c -0.077,0.322 -0.211,0.529 -0.403,0.622 -0.208,0.107 -0.631,0.16 -1.269,0.16 -0.677,0 -1.108,-0.053 -1.292,-0.161 -0.231,-0.131 -0.346,-0.385 -0.346,-0.761 0,-0.469 0.188,-0.75 0.565,-0.842 0.13,-0.031 0.861,-0.081 2.191,-0.15 1.184,-0.062 1.987,-0.146 2.409,-0.254 0.799,-0.208 1.357,-0.588 1.672,-1.142 0.269,-0.469 0.404,-1.084 0.404,-1.845 0,-1.269 -0.373,-2.207 -1.118,-2.815 -0.499,-0.4 -1.052,-0.654 -1.659,-0.762 -0.775,-0.138 -1.697,-0.207 -2.765,-0.207 -1.582,0 -2.711,0.127 -3.386,0.381 -0.953,0.353 -1.529,1.014 -1.728,1.982 -0.054,0.277 -0.085,0.676 -0.093,1.199 h 3.663 c 0.007,-0.1 0.01,-0.176 0.01,-0.23 0,-0.397 0.107,-0.656 0.321,-0.778 0.238,-0.13 0.713,-0.195 1.426,-0.195 0.812,0 1.344,0.088 1.597,0.265 0.177,0.13 0.265,0.353 0.265,0.668 0,0.361 -0.069,0.618 -0.208,0.772 -0.191,0.215 -0.644,0.326 -1.358,0.334 -1.865,0.023 -3.127,0.142 -3.787,0.357 -0.729,0.245 -1.235,0.653 -1.52,1.221 -0.23,0.453 -0.345,1.075 -0.345,1.866 0,1.382 0.391,2.307 1.174,2.776 0.384,0.23 0.89,0.393 1.52,0.489 0.629,0.096 1.504,0.144 2.624,0.144 1.465,0 2.505,-0.107 3.119,-0.322 0.89,-0.314 1.442,-0.897 1.657,-1.748 C -0.035,0.909 0,0.514 0,0"
           fill="#0b2f87"
           id="path13" />
        <path
           transform="matrix(1,0,0,-1,60.9297,11.289099)"
           d="m 0,0 c -0.601,0 -1.037,-0.088 -1.306,-0.265 -0.239,-0.153 -0.359,-0.44 -0.359,-0.862 0,-0.529 0.15,-0.862 0.451,-1 0.27,-0.123 0.786,-0.185 1.549,-0.185 0.602,0 1.01,0.089 1.226,0.265 0.208,0.176 0.312,0.506 0.312,0.989 0,0.353 -0.073,0.591 -0.219,0.713 C 1.392,-0.115 0.84,0 0,0 M -1.202,3.184 H -4.83 c 0,0.67 0.047,1.175 0.139,1.514 0.092,0.339 0.261,0.643 0.507,0.912 0.437,0.462 1.136,0.755 2.097,0.878 0.453,0.062 1.19,0.093 2.212,0.093 1.781,0 3.029,-0.185 3.743,-0.555 C 4.729,5.572 5.224,4.833 5.354,3.81 5.424,3.263 5.458,2.855 5.458,2.585 V -4.552 H 1.873 L 2,-2.768 H 1.908 C 1.685,-3.398 1.374,-3.859 0.975,-4.151 0.659,-4.374 0.321,-4.516 -0.04,-4.578 -0.432,-4.639 -0.893,-4.67 -1.423,-4.67 c -0.777,0 -1.395,0.064 -1.856,0.191 -0.461,0.126 -0.853,0.339 -1.176,0.639 -0.545,0.523 -0.818,1.416 -0.818,2.677 0,1.138 0.261,1.945 0.783,2.422 0.661,0.607 1.71,0.911 3.147,0.911 1.114,0 1.902,-0.116 2.364,-0.348 C 1.335,1.66 1.601,1.315 1.815,0.79 h 0.058 v 2.164 c 0,0.478 -0.096,0.817 -0.288,1.017 -0.269,0.278 -0.737,0.416 -1.405,0.416 -0.645,0 -1.055,-0.15 -1.232,-0.451 -0.077,-0.139 -0.127,-0.39 -0.15,-0.752"
           fill="#0b2f87"
           fill-rule="evenodd"
           id="path15" />
        <path
           transform="matrix(1,0,0,-1,68.707,4.8261997)"
           d="M 0,0 H 3.585 L 3.447,-2.155 h 0.057 c 0.238,0.716 0.538,1.238 0.899,1.57 0.507,0.468 1.278,0.703 2.315,0.703 1.728,0 2.865,-0.489 3.409,-1.465 0.262,-0.461 0.393,-1.091 0.393,-1.891 v -7.777 H 6.934 v 6.303 c 0,0.712 -0.057,1.191 -0.172,1.437 -0.177,0.391 -0.58,0.586 -1.209,0.586 -1.312,0 -1.968,-0.621 -1.968,-1.862 v -6.464 H 0 Z"
           fill="#0b2f87"
           id="path17" />
      </g>
    </g>
  </g>
</svg>
