<?xml version="1.0" standalone="no"?>
<!DOCTYPE svg PUBLIC "-//W3C//DTD SVG 20010904//EN"
 "http://www.w3.org/TR/2001/REC-SVG-20010904/DTD/svg10.dtd">
<svg version="1.0" xmlns="http://www.w3.org/2000/svg"
 width="241.000000pt" height="123.000000pt" viewBox="0 0 241.000000 123.000000"
 preserveAspectRatio="xMidYMid meet">

<g transform="translate(0.000000,123.000000) scale(0.100000,-0.100000)"
fill="#000000" stroke="none">
<path d="M62 1116 c1 -63 6 -118 10 -121 4 -4 19 2 34 14 26 20 53 17 69 -9
12 -19 23 -10 29 25 6 32 10 35 41 35 38 0 40 5 25 44 -8 23 -6 29 24 48 l34
22 -30 28 c-29 27 -34 28 -135 28 l-105 0 4 -114z"/>
<path d="M320 1210 c31 -24 29 -24 65 0 l30 20 -60 0 -60 0 25 -20z"/>
<path d="M412 1204 c-24 -15 -40 -30 -35 -34 4 -4 50 -37 101 -74 50 -37 92
-68 92 -69 0 -1 -57 -1 -126 1 -119 3 -126 2 -119 -15 25 -64 75 -207 73 -209
-2 -1 -44 29 -93 67 -50 38 -93 69 -96 69 -3 0 -21 -49 -40 -110 -18 -60 -37
-106 -40 -102 -4 4 -19 50 -34 102 -15 52 -29 97 -31 99 -2 2 -4 -118 -4 -267
l0 -272 251 0 c235 0 251 1 244 18 -23 56 -27 77 -20 118 14 94 99 153 231
162 l82 5 -10 27 c-14 41 -54 54 -148 47 l-80 -5 -10 39 c-6 22 -8 43 -5 48 7
13 97 31 149 31 65 0 135 -25 172 -61 l34 -33 0 222 0 222 -247 0 -248 0 -43
-26z"/>
<path d="M318 1142 c-31 -19 -32 -21 -19 -56 8 -20 19 -26 63 -31 29 -4 71 -5
93 -3 l39 3 -70 53 c-40 28 -73 52 -75 52 -2 0 -16 -8 -31 -18z"/>
<path d="M222 1001 c-10 -29 -9 -32 56 -80 37 -27 68 -49 69 -48 1 1 -11 37
-25 80 -26 74 -28 77 -59 77 -25 0 -33 -5 -41 -29z"/>
<path d="M103 981 l-21 -18 21 -81 c12 -45 25 -82 28 -82 3 0 17 37 29 81 l24
82 -23 18 c-28 23 -30 23 -58 0z"/>
<path d="M2198 968 l-38 -10 0 -335 c0 -386 1 -392 78 -393 34 0 72 15 84 33
4 6 -4 24 -18 40 l-24 29 0 324 0 324 -22 -1 c-13 -1 -40 -6 -60 -11z"/>
<path d="M1898 956 c-33 -17 -46 -61 -27 -94 12 -21 23 -28 56 -30 33 -2 44 1
57 20 44 62 -19 137 -86 104z"/>
<path d="M928 758 c-41 -11 -43 -15 -27 -71 8 -31 14 -37 27 -31 9 4 44 9 78
12 74 5 117 -13 132 -58 l11 -30 -72 0 c-91 -1 -168 -30 -209 -81 -63 -78 -42
-206 41 -248 57 -30 143 -28 204 2 l46 24 22 -24 c27 -28 83 -31 111 -6 17 15
17 17 1 35 -14 16 -19 48 -24 171 -4 84 -13 172 -20 195 -15 51 -63 97 -116
111 -46 13 -155 12 -205 -1z m216 -327 c-3 -74 -32 -104 -104 -105 -43 -1 -55
3 -71 23 -25 30 -24 62 2 95 29 37 53 46 119 43 l55 -2 -1 -54z"/>
<path d="M1454 751 c-58 -27 -84 -63 -84 -121 0 -72 29 -106 135 -160 96 -49
116 -73 97 -115 -17 -36 -72 -43 -135 -16 -28 11 -54 18 -58 13 -5 -4 -15 -24
-24 -45 l-16 -38 43 -19 c30 -14 65 -20 118 -20 134 0 200 51 200 155 0 78
-25 109 -123 155 -99 46 -125 70 -109 104 6 14 22 26 39 29 33 7 97 -6 117
-22 11 -10 17 -3 32 34 15 40 15 48 3 56 -51 33 -173 38 -235 10z"/>
<path d="M1800 710 l0 -50 35 0 35 0 0 -210 0 -210 60 0 60 0 0 260 0 260 -95
0 -95 0 0 -50z"/>
<path d="M705 578 c-33 -17 -45 -39 -45 -79 0 -45 27 -69 78 -69 71 0 112 46
112 126 l0 34 -62 0 c-35 0 -72 -6 -83 -12z"/>
<path d="M500 155 c0 -9 -9 -15 -21 -15 -30 0 -22 -45 9 -46 19 -1 22 4 22 37
0 22 -2 39 -5 39 -3 0 -5 -7 -5 -15z m-2 -36 c-2 -6 -8 -10 -13 -10 -5 0 -11
4 -13 10 -2 6 4 11 13 11 9 0 15 -5 13 -11z"/>
<path d="M70 134 c-13 -33 -13 -54 0 -34 8 12 13 13 30 2 23 -14 23 -14 9 27
-13 38 -26 40 -39 5z m25 -4 c3 -5 1 -10 -4 -10 -6 0 -11 5 -11 10 0 6 2 10 4
10 3 0 8 -4 11 -10z"/>
<path d="M160 150 c0 -5 -7 -10 -16 -10 -25 0 -13 -44 14 -48 19 -3 22 1 22
32 0 20 -4 36 -10 36 -5 0 -10 -4 -10 -10z m2 -35 c0 -5 -5 -11 -11 -13 -6 -2
-11 4 -11 13 0 9 5 15 11 13 6 -2 11 -8 11 -13z"/>
<path d="M560 145 c0 -9 7 -18 15 -21 20 -8 19 -21 -2 -27 -17 -4 -17 -5 0 -6
26 -2 34 29 11 42 -17 10 -17 11 1 18 19 7 18 8 -2 8 -14 1 -23 -5 -23 -14z"/>
<path d="M717 153 c-3 -5 -4 -18 -2 -29 2 -10 4 -22 4 -26 1 -5 5 -8 9 -8 5 0
7 14 6 31 -2 33 -9 45 -17 32z"/>
<path d="M989 155 c-1 -3 -2 -8 -3 -12 -1 -5 -5 -13 -9 -19 -9 -16 12 -32 43
-32 21 1 25 6 26 31 1 23 -1 26 -8 13 -11 -20 -30 -12 -21 9 3 9 -1 15 -11 15
-9 0 -17 -2 -17 -5z m29 -43 c2 -7 -3 -12 -12 -12 -9 0 -16 7 -16 16 0 17 22
14 28 -4z"/>
<path d="M1103 125 c0 -22 2 -30 4 -17 2 12 2 30 0 40 -3 9 -5 -1 -4 -23z"/>
<path d="M1419 149 c-2 -23 2 -43 11 -52 4 -5 7 5 6 21 -1 32 -15 56 -17 31z"/>
<path d="M1641 128 c-1 -33 2 -38 21 -38 19 0 20 1 6 13 -9 6 -19 23 -21 37
-3 18 -5 14 -6 -12z"/>
<path d="M1742 128 c2 -25 8 -33 23 -33 13 0 21 8 23 23 2 15 -2 22 -12 22 -9
0 -16 5 -16 10 0 6 -5 10 -11 10 -6 0 -9 -14 -7 -32z m38 -13 c0 -8 -4 -15
-10 -15 -5 0 -10 7 -10 15 0 8 5 15 10 15 6 0 10 -7 10 -15z"/>
<path d="M675 140 c-4 -6 -2 -17 5 -24 8 -11 8 -15 -2 -19 -9 -4 -9 -6 -1 -6
16 -1 29 22 15 27 -6 2 -8 10 -5 18 6 16 -3 19 -12 4z"/>
<path d="M905 140 c-4 -6 -2 -17 5 -24 8 -11 8 -15 -2 -19 -9 -4 -9 -6 -1 -6
17 -1 29 22 14 27 -10 3 -11 6 -1 12 8 5 9 10 2 14 -6 3 -14 2 -17 -4z"/>
<path d="M1962 123 c2 -14 8 -28 14 -30 7 -2 9 8 6 27 -5 37 -25 40 -20 3z"/>
<path d="M196 120 c3 -14 8 -27 11 -30 6 -7 23 23 22 40 0 10 -3 8 -8 -5 -8
-19 -8 -19 -20 0 -11 18 -11 18 -5 -5z"/>
<path d="M272 115 c0 -16 2 -22 5 -12 2 9 2 23 0 30 -3 6 -5 -1 -5 -18z"/>
<path d="M301 113 c2 -24 2 -25 6 -5 5 28 23 29 23 1 0 -11 4 -18 9 -15 16 10
0 46 -20 46 -14 0 -19 -7 -18 -27z"/>
<path d="M362 118 c2 -12 9 -23 16 -24 7 -1 8 0 2 3 -14 7 -13 30 3 36 7 3 4
6 -6 6 -13 1 -18 -5 -15 -21z"/>
<path d="M405 130 c-8 -13 13 -40 29 -39 7 0 6 2 -1 6 -7 2 -13 12 -13 20 0 9
6 13 15 9 8 -3 15 -1 15 4 0 13 -37 13 -45 0z"/>
<path d="M614 106 c1 -20 4 -36 9 -36 10 0 29 50 23 64 -2 6 -5 2 -5 -8 -1
-19 -2 -19 -14 -2 -12 17 -14 15 -13 -18z"/>
<path d="M752 118 c2 -14 11 -24 23 -25 16 -1 16 -1 3 3 -10 3 -18 12 -18 21
0 9 6 13 15 9 8 -3 15 -1 15 4 0 6 -9 10 -21 10 -15 0 -20 -5 -17 -22z"/>
<path d="M805 120 c2 -31 15 -37 15 -7 0 15 -4 27 -8 27 -5 0 -8 -9 -7 -20z"/>
<path d="M839 113 c5 -26 6 -26 9 -5 2 12 7 22 12 22 5 0 11 -10 13 -22 4 -20
4 -19 6 5 1 22 -3 27 -23 27 -20 0 -22 -4 -17 -27z"/>
<path d="M1131 113 c2 -24 2 -25 6 -5 2 12 8 22 13 22 5 0 11 -10 13 -22 4
-20 4 -19 6 5 1 21 -4 27 -19 27 -15 0 -20 -6 -19 -27z"/>
<path d="M1191 113 c2 -24 2 -25 6 -5 2 12 8 22 13 22 5 0 11 -10 13 -22 4
-20 4 -19 6 5 1 21 -4 27 -19 27 -15 0 -20 -6 -19 -27z"/>
<path d="M1252 118 c4 -30 43 -33 43 -3 0 13 -8 21 -23 23 -20 3 -23 0 -20
-20z m36 0 c-6 -18 -28 -21 -28 -4 0 9 7 16 16 16 9 0 14 -5 12 -12z"/>
<path d="M1310 130 c0 -8 5 -22 10 -30 9 -13 11 -13 20 0 5 8 10 22 10 30 0
13 -1 13 -10 0 -9 -13 -11 -13 -20 0 -9 13 -10 13 -10 0z"/>
<path d="M1376 132 c7 -4 14 -16 17 -27 4 -15 5 -14 6 8 1 20 -4 27 -16 27
-12 0 -14 -3 -7 -8z"/>
<path d="M1450 121 c0 -11 5 -23 10 -26 6 -4 10 5 10 19 0 14 -4 26 -10 26 -5
0 -10 -9 -10 -19z"/>
<path d="M1483 124 c-3 -8 -1 -20 5 -26 16 -16 42 -2 42 22 0 24 -38 28 -47 4z
m35 -5 c-2 -6 -8 -10 -13 -10 -5 0 -11 4 -13 10 -2 6 4 11 13 11 9 0 15 -5 13
-11z"/>
<path d="M1540 120 c0 -11 5 -20 10 -20 6 0 10 9 10 20 0 11 -4 20 -10 20 -5
0 -10 -9 -10 -20z"/>
<path d="M1578 115 c2 -14 6 -25 8 -25 2 0 4 11 4 25 0 14 -4 25 -9 25 -4 0
-6 -11 -3 -25z"/>
<path d="M1713 125 c4 -8 2 -17 -3 -20 -4 -3 -11 1 -13 7 -4 8 -6 7 -6 -4 -1
-11 6 -16 19 -15 14 1 20 8 20 24 0 13 -5 23 -11 23 -6 0 -9 -7 -6 -15z"/>
<path d="M1807 126 c-9 -22 19 -42 37 -26 19 15 10 40 -14 40 -10 0 -20 -6
-23 -14z m33 -11 c0 -8 -4 -15 -10 -15 -5 0 -10 7 -10 15 0 8 5 15 10 15 6 0
10 -7 10 -15z"/>
<path d="M1871 113 c1 -22 2 -23 6 -8 3 11 10 23 17 27 7 5 5 8 -6 8 -13 0
-18 -7 -17 -27z"/>
<path d="M1929 118 c0 -13 -3 -17 -6 -10 -2 6 -9 10 -14 6 -14 -8 0 -24 22
-24 12 0 19 7 19 19 0 28 -20 37 -21 9z"/>
<path d="M2002 118 c2 -15 10 -23 23 -23 30 0 27 39 -3 43 -20 3 -23 0 -20
-20z m30 -3 c0 -5 -5 -11 -11 -13 -6 -2 -11 4 -11 13 0 9 5 15 11 13 6 -2 11
-8 11 -13z"/>
<path d="M2061 113 c1 -22 2 -23 6 -8 3 11 10 23 17 27 7 5 5 8 -6 8 -13 0
-18 -7 -17 -27z"/>
<path d="M2102 115 c0 -16 2 -22 5 -12 2 9 2 23 0 30 -3 6 -5 -1 -5 -18z"/>
<path d="M2127 126 c-6 -16 19 -43 30 -32 3 3 1 6 -5 6 -7 0 -12 7 -12 16 0
10 6 14 15 10 8 -3 15 -1 15 4 0 16 -37 12 -43 -4z"/>
<path d="M2180 131 c0 -6 5 -13 11 -17 8 -4 7 -9 -2 -15 -11 -7 -10 -9 3 -9
20 0 32 16 18 25 -6 4 -8 11 -5 16 4 5 -1 9 -9 9 -9 0 -16 -4 -16 -9z"/>
<path d="M240 111 c0 -6 4 -12 8 -15 5 -3 9 1 9 9 0 8 -4 15 -9 15 -4 0 -8 -4
-8 -9z"/>
<path d="M1360 105 c0 -8 4 -15 8 -15 5 0 9 7 9 15 0 8 -4 15 -9 15 -4 0 -8
-7 -8 -15z"/>
</g>
</svg>
