<?xml version="1.0" standalone="yes"?>
<svg xmlns="http://www.w3.org/2000/svg" width="216" height="256">
<path style="fill:#fffefd; stroke:none;" d="M0 0L0 237L1 237C6.98305 229.347 14.4117 222.659 23 218.036C27.6167 215.551 36.2579 213.611 38.9722 208.867C42.1829 203.256 39.5705 193.297 40.1698 187C41.4991 173.031 44.49 156.895 41.2539 143C37.4039 126.469 26.8922 112.528 26.0401 95C25.3967 81.7631 25.5503 68.6338 29.838 56C31.6315 50.7152 33.732 44.2735 40 44C35.2666 56.6766 31.1528 72.3245 32.1852 86C33.8073 107.488 45.3466 124.452 49.4861 145C52.3239 159.087 49.5739 174.964 48.1705 189C47.3834 196.872 50.523 209.086 45.4005 215.853C41.1932 221.41 29.1349 222.655 23 225.924C16.0191 229.645 8.08214 238.276 0 238L0 256L216 256L216 252C207.393 249.351 203.147 233.685 196.866 227.184C184.038 213.909 170.639 217.186 155 211.758C151.122 210.412 139.46 205.398 135.742 208.071C132.692 210.264 133.353 220.287 132 224L130 224L126.821 206.47L106 187C116.54 189.952 123.316 199.472 135 201.536C139.17 202.273 145.415 202.852 147.218 197.941C148.317 194.945 146.97 191.132 147 188L136 181L162 177L162.474 154L170 138C162.373 137.822 155.678 134.939 152 128C160.245 128.822 169.719 132.785 177.482 126.976C184.43 121.778 173.717 110.243 168 109.469C161.618 108.605 155.943 112.653 150 114C152.019 106.827 159.026 103.205 166 102C163.926 97.1931 160.18 93.0034 158.648 88C157.042 82.752 157.472 77.0107 154.596 72.0934C152.173 67.9513 147.759 65.6751 144.9 61.9066C140.599 56.2349 137.373 49.0006 130.985 45.2747C122.492 40.3205 109.597 40.0063 100 40C103.364 33.3309 110.738 37.9969 113.883 33.3966C115.567 30.9328 113.848 25.9237 114.326 23C114.912 19.4243 118.764 14.7155 118.097 11.2284C116.938 5.16466 96.7258 6 92 6L92 2L97 1L67 0L0 0z"/>
<path style="fill:#fdceac; stroke:none;" d="M97 0L92 2L92 6C100.598 6 120.441 4.64648 116 17L117 17C125.552 4.33463 102.26 5.0009 94 5L98 1L97 0z"/>
<path style="fill:#fb9448; stroke:none;" d="M98 0L96 4L103 4L103 3L98 3L98 0z"/>
<path style="fill:#f8812a; stroke:none;" d="M98 3C103.277 3.52533 117.223 4.35878 120.252 9.27855C122.285 12.5797 118.13 16.7678 117.394 20C114.755 31.5943 118.004 37.9984 103 38L103 39C111.957 39 120.626 38.3233 129 42.1296C139.223 46.7764 151.449 63.5097 157.143 73C160.749 79.0106 159.261 86.6116 162.89 92.7145C164.395 95.2446 167.865 98.6061 166.698 101.853C165.508 105.161 159.939 106.073 157 107L157 108C162.002 108 168.424 106.938 172.996 109.318C179.108 112.499 185.546 124.235 177.867 129.242C172.289 132.879 164.247 132.489 158 132L158 133C168.015 137.244 173.153 135.6 168 148C171.602 145.726 172.676 142.246 175.39 139.104C177.87 136.234 181.622 134.626 183.106 130.957C189.331 115.571 172.186 104.08 166.182 92C163.067 85.7324 163.579 78.422 160.647 72C157.148 64.3325 147.647 55.3473 141.895 49.0008C136.239 42.7591 126.623 40.8454 121.728 34.6605C114.006 24.9063 127.046 15.8282 122.957 8.10803C119.4 1.392 103.035 -3.98126 98 3z"/>
<path style="fill:#fb9448; stroke:none;" d="M113 0L117 4L117 3L113 0z"/>
<path style="fill:#fdceac; stroke:none;" d="M114 0L114 1C117.697 2.9816 124.42 5.06053 124.967 10.0039C125.857 18.0491 113.381 32.1021 127 37L127 36C114.849 28.12 127.91 18.2363 126.573 9.01543C125.781 3.54672 118.336 1.68239 114 0z"/>
<path style="fill:#fffefd; stroke:none;" d="M115 0L115 1C118.94 2.34413 125.228 4.25267 126.169 9.01543C127.644 16.4798 117.367 24.8753 123.179 33.5255C125.764 37.372 133.175 38.8136 136.921 41.804C144.657 47.9792 152.129 57.3921 158.319 65.0401C166.261 74.8511 165.178 87.4255 171.503 98C176.287 105.997 185.377 110.875 185.957 121C186.761 135.039 174.828 140.001 169.417 152C165.578 160.51 168 173.793 168 183C164.956 183 160.168 182.143 157.559 184.028C153.463 186.987 149.976 200.213 153.646 204.272C158.681 209.842 172.323 206.899 179 208.61C196.167 213.008 210.675 230.468 215 247L216 247L216 0L115 0z"/>
<path style="fill:#fcad74; stroke:none;" d="M97 1L98 2L97 1M114 1L115 2L114 1M94 5L106 6L106 5L97 2L94 5M115.667 2.33333L116.333 2.66667L115.667 2.33333M117 3L117 4L120 4L117 3z"/>
<path style="fill:#fb9448; stroke:none;" d="M104 4L105 5L104 4M119 4L119 5L124 12L125 12C124.357 7.83919 122.782 5.82199 119 4z"/>
<path style="fill:#fcad74; stroke:none;" d="M121 4L122 5L121 4z"/>
<path style="fill:#fb9448; stroke:none;" d="M106 5L106 6L113 6L106 5z"/>
<path style="fill:#fcad74; stroke:none;" d="M122 5L123 6L122 5M110 6L110 7L118 8L110 6z"/>
<path style="fill:#fb9448; stroke:none;" d="M116 6L117 7L116 6z"/>
<path style="fill:#fcad74; stroke:none;" d="M123 6L124 7L123 6z"/>
<path style="fill:#fb9448; stroke:none;" d="M118 7L118 8L122 10L118 7z"/>
<path style="fill:#fcad74; stroke:none;" d="M124 7L125 8L124 7M119 8L120 9L119 8M125 8L125 12L126 12L125 8M120 9L121 10L120 9M121 10L122 11L121 10z"/>
<path style="fill:#fb9448; stroke:none;" d="M121 11L116.214 21L113.682 35.3966L102 38L102 39L114.682 36.3966L117.652 20L121 11z"/>
<path style="fill:#fcad74; stroke:none;" d="M120 12L121 13L120 12M124 12L123 15L124 12M119 13L120 14L119 13z"/>
<path style="fill:#fb9448; stroke:none;" d="M123 13L124 14L123 13z"/>
<path style="fill:#fcad74; stroke:none;" d="M118 14L119 15L118 14z"/>
<path style="fill:#fb9448; stroke:none;" d="M121 15L122 16L121 15z"/>
<path style="fill:#fcad74; stroke:none;" d="M122 15L123 16L122 15M117 16L118 17L117 16M121 16C119.466 22.4441 119.09 29.9523 122 36L123 36L121 16M116.333 17.6667L116.667 18.3333L116.333 17.6667z"/>
<path style="fill:#fb9448; stroke:none;" d="M120 17L121 18L120 17z"/>
<path style="fill:#fdceac; stroke:none;" d="M115 18L112.593 33.9722L102.336 36.0085L102 40L101 37C104.628 36.3265 110.628 37.0234 113.681 34.9722C116.998 32.744 116.306 21.3459 115 18z"/>
<path style="fill:#fb9448; stroke:none;" d="M119 19L119 30L120 30L119 19z"/>
<path style="fill:#fcad74; stroke:none;" d="M115 23L115 29L116 29L115 23z"/>
<path style="fill:#fb9448; stroke:none;" d="M120 33L121 34L120 33z"/>
<path style="fill:#fcad74; stroke:none;" d="M115 34L116 35L115 34M114 35L115 36L114 35z"/>
<path style="fill:#fb9448; stroke:none;" d="M121 35L122 36L121 35z"/>
<path style="fill:#fcad74; stroke:none;" d="M103 36L103 37L114 37L103 36z"/>
<path style="fill:#fb9448; stroke:none;" d="M123 36L126 38L126 37L123 36z"/>
<path style="fill:#fcad74; stroke:none;" d="M124 36L125 37L124 36M101 37L101 39L103 37L101 37M126 37L126 38L133 40L133 39L126 37z"/>
<path style="fill:#fdceac; stroke:none;" d="M128 37L128 38L132 39L128 37z"/>
<path style="fill:#fb9448; stroke:none;" d="M127 38L128 39L127 38z"/>
<path style="fill:#fcad74; stroke:none;" d="M102 39L102 40L118 40L102 39z"/>
<path style="fill:#fb9448; stroke:none;" d="M118 39L118 40L124 41L118 39M128 39L128 40L131 40L128 39z"/>
<path style="fill:#fdceac; stroke:none;" d="M133 39L133 40L161 70L162 70L150.529 56.8156L133 39M109 40L109 41C116.951 41.0658 126.631 41.9398 132.91 47.3434C139.603 53.1017 142.417 62.3794 150 67C138.702 50.4095 130.176 40.0023 109 40z"/>
<path style="fill:#fcad74; stroke:none;" d="M119 40L119 41L122 41L119 40z"/>
<path style="fill:#fb9448; stroke:none;" d="M132 40L134 42L134 40L132 40z"/>
<path style="fill:#fcad74; stroke:none;" d="M124 41L124 42L129 43L129 42L124 41z"/>
<path style="fill:#fb9448; stroke:none;" d="M127.667 41.3333L128.333 41.6667L127.667 41.3333z"/>
<path style="fill:#fcad74; stroke:none;" d="M134 41L134 42L146 54L147 54L134 41z"/>
<path style="fill:#fb9448; stroke:none;" d="M129 42L130 43L129 42M135 42L136 43L135 42z"/>
<path style="fill:#fdceac; stroke:none;" d="M29 112L30 112C26.3465 92.3905 21.3117 59.4198 38 44L34 61L35 61L40 44C32.5698 42.925 30.1473 53.1909 28.5826 59C24.0316 75.8957 24.9249 95.0797 29 112z"/>
<path style="fill:#fcad74; stroke:none;" d="M130 43L130 44L141 55L142 55L130 43z"/>
<path style="fill:#fb9448; stroke:none;" d="M131.667 43.3333L132.333 43.6667L131.667 43.3333M136 43L137 44L136 43z"/>
<path style="fill:#fcad74; stroke:none;" d="M36 44L32 53L33 53L35 47L36 47L36 51L37 51L38 44L36 44z"/>
<path style="fill:#fb9448; stroke:none;" d="M133 44L134 45L133 44M137 44L138 45L137 44M134 45L135 46L134 45M138 45L139 46L138 45M36 46L37 47L36 46M135 46L136 47L135 46M139 46L140 47L139 46M35 47L32 55C35.1395 52.9598 36.4006 50.6203 35 47M136 47L137 48L136 47M140 47L141 48L140 47M137 48L138 49L137 48M141 48L142 49L141 48M138 49L139 50L138 49M142 49L143 50L142 49M139 50L140 51L139 50M143 50L144 51L143 50z"/>
<path style="fill:#fdceac; stroke:none;" d="M78 146C78 141.18 80.7119 131.219 78.8681 127.174C77.1505 123.406 72.0393 121.012 69.3002 117.961C62.9667 110.906 59.4521 102.443 58.5571 93C57.0127 76.7048 70.4203 65.5447 72 51C64.6795 53.0562 60.5573 60.5814 57.2593 67C44.5329 91.768 52.3818 108.614 67.6821 129C71.8889 134.605 69.3831 144.539 78 146z"/>
<path style="fill:#fb9448; stroke:none;" d="M140 51L141 52L140 51M144 51L145 52L144 51z"/>
<path style="fill:#fcad74; stroke:none;" d="M35.3333 52.6667L35.6667 53.3333L35.3333 52.6667z"/>
<path style="fill:#fb9448; stroke:none;" d="M141.333 52.6667L141.667 53.3333L141.333 52.6667z"/>
<path style="fill:#fcad74; stroke:none;" d="M60 64L70 54L61 71L62 71L71 53C65.4261 54.5778 62.7108 59.1367 60 64z"/>
<path style="fill:#fb9448; stroke:none;" d="M145 53L146 54L145 53z"/>
<path style="fill:#fcad74; stroke:none;" d="M31.3333 54.6667L31.6667 55.3333L31.3333 54.6667z"/>
<path style="fill:#f8812a; stroke:none;" d="M33 54C24.9403 72.2097 26.4531 96.3909 32.5185 115C35.205 123.242 40.2396 130.692 42.51 139C46.2984 152.863 43.1711 167.94 43.0039 182C42.9122 189.705 44.0878 200.748 41.3966 207.999C37.5105 218.471 19.9144 219.171 13 228C20.4395 226.39 26.7565 221.313 34 218.836C36.9625 217.824 42.0157 217.128 43.9722 214.44C47.7094 209.305 45.5688 195.314 46.1698 189C47.7211 172.698 49.6931 155.132 45.7608 139C42.3014 124.808 34.0521 112.617 31.4637 98C29.8167 88.6993 30.1795 79.3382 31.2855 70C31.8564 65.1799 34.3526 58.5723 33 54z"/>
<path style="fill:#fcad74; stroke:none;" d="M34 54L34 59L35 59L34 54z"/>
<path style="fill:#fb9448; stroke:none;" d="M56 74L57 74L63 66L70 54C62.9548 57.4427 58.1131 66.665 56 74M142 54L157 74L158 74L142 54M146 54L161 74L162 74L146 54z"/>
<path style="fill:#fcad74; stroke:none;" d="M147 55L148 56L147 55z"/>
<path style="fill:#fb9448; stroke:none;" d="M31.3333 56.6667L31.6667 57.3333L31.3333 56.6667z"/>
<path style="fill:#fcad74; stroke:none;" d="M142 56L143 57L142 56M30 57L29 64L30 64L30 57z"/>
<path style="fill:#fb9448; stroke:none;" d="M33 57L32 62L33 62L33 57z"/>
<path style="fill:#fcad74; stroke:none;" d="M143 57L144 58L143 57M148 57L149 58L148 57M144.333 58.6667L144.667 59.3333L144.333 58.6667M149 58L149 60L151 60L149 58z"/>
<path style="fill:#fb9448; stroke:none;" d="M30.3333 59.6667L30.6667 60.3333L30.3333 59.6667z"/>
<path style="fill:#fcad74; stroke:none;" d="M33 60L32 73L33 73L33 60z"/>
<path style="fill:#f8812a; stroke:none;" d="M64 60L65 61L64 60z"/>
<path style="fill:#fcad74; stroke:none;" d="M145.333 60.6667L145.667 61.3333L145.333 60.6667M151 60L152 61L151 60M153 61L154 62L153 61z"/>
<path style="fill:#fdceac; stroke:none;" d="M33 62C32.9991 69.9545 30.6159 78.1344 31.1844 86C32.4303 103.239 38.8763 117.216 45 133L46 133L32.4537 87L33 62z"/>
<path style="fill:#fcad74; stroke:none;" d="M146 62L147 63L146 62M154 62L155 63L154 62M147 63L148 64L147 63M155 63L156 64L155 63z"/>
<path style="fill:#fb9448; stroke:none;" d="M29.3333 64.6667L29.6667 65.3333L29.3333 64.6667z"/>
<path style="fill:#fcad74; stroke:none;" d="M148 64L149 65L148 64M156 64L157 65L156 64M28.3333 65.6667L28.6667 66.3333L28.3333 65.6667M59 65L60 66L59 65z"/>
<path style="fill:#f8812a; stroke:none;" d="M61 65C52.9778 78.7471 49.7971 96.2335 57.1196 111C62.8062 122.468 70.9976 128.395 74 141L75 141L76.3071 128.375L67.1042 118.999L57.2863 100L58.2361 78L61 65z"/>
<path style="fill:#fcad74; stroke:none;" d="M149 65L150 66L149 65M157 65L158 66L157 65M150 66L151 67L150 66M158 66L159 67L158 66z"/>
<path style="fill:#fb9448; stroke:none;" d="M28 67L28 71L29 71L28 67z"/>
<path style="fill:#fcad74; stroke:none;" d="M58 67L59 68L58 67z"/>
<path style="fill:#fdceac; stroke:none;" d="M151.333 67.6667L151.667 68.3333L151.333 67.6667z"/>
<path style="fill:#fcad74; stroke:none;" d="M159 67L160 68L159 67M27 68L27 100L28 100L27 68z"/>
<path style="fill:#fb9448; stroke:none;" d="M31 68L31 79L32 79L31 68M61 68L62 69L61 68z"/>
<path style="fill:#fcad74; stroke:none;" d="M152 68L153 69L152 68M57 69L58 70L57 69z"/>
<path style="fill:#fdceac; stroke:none;" d="M153 69L166 102C158.789 102.724 151.199 106.252 150 114L165 110L165 109L151 113C154.173 106.355 160.716 104.799 167 102L159.853 88L153 69z"/>
<path style="fill:#fcad74; stroke:none;" d="M160 69L161 70L160 69z"/>
<path style="fill:#fb9448; stroke:none;" d="M60.3333 70.6667L60.6667 71.3333L60.3333 70.6667z"/>
<path style="fill:#fcad74; stroke:none;" d="M154 70L155 71L154 70M161.333 70.6667L161.667 71.3333L161.333 70.6667M56 71L57 72L56 71M155 71L156 72L155 71z"/>
<path style="fill:#fdceac; stroke:none;" d="M162 71C164.24 80.6812 165.601 90.3985 170.926 98.9853C175.709 106.699 184.39 111.05 184.957 121C185.743 134.805 173.756 140.161 168.417 152C164.684 160.277 167 173.051 167 182C156.929 182.001 155.118 185.127 151 194L152 194C157.2 186.016 157.841 183.001 168 183C168 174.051 165.684 161.277 169.417 153C173.029 144.991 184.324 137.903 185.772 129.999C188.994 112.406 175.094 105.114 168.273 91C165.133 84.5024 166.459 76.9611 162 71z"/>
<path style="fill:#fcad74; stroke:none;" d="M60 72L58 85L59 85L60 72M156 72L157 73L156 72M55 73L54 78L55 78L55 73z"/>
<path style="fill:#fb9448; stroke:none;" d="M59.3333 73.6667L59.6667 74.3333L59.3333 73.6667z"/>
<path style="fill:#fcad74; stroke:none;" d="M162 73L163 78L164 78L162 73M157 74L157 78L158 78L157 74z"/>
<path style="fill:#fb9448; stroke:none;" d="M158 75L158 79L159 79L158 75M55.3333 76.6667L55.6667 77.3333L55.3333 76.6667M58 76L59 77L58 76M162.333 76.6667L162.667 77.3333L162.333 76.6667M54 78L54 81L55 81L54 78M163 78L163 82L164 82L163 78z"/>
<path style="fill:#fcad74; stroke:none;" d="M31 79L31 90L32 90L31 79M53 79L52 86L53 86L53 79M158 79L159 88L160 88L158 79M164 79L169 97L170 97L164 79z"/>
<path style="fill:#fb9448; stroke:none;" d="M30 80L31 81L30 80M159 80L160 81L159 80M57 81L57 87L58 87L57 81M53.3333 84.6667L53.6667 85.3333L53.3333 84.6667z"/>
<path style="fill:#fdceac; stroke:none;" d="M147 85L147 86L154 88L137 92L137 93L156 88L147 85z"/>
<path style="fill:#fb9448; stroke:none;" d="M52 86L53 101L54 101L52 86z"/>
<path style="fill:#fdceac; stroke:none;" d="M132 89L132 90L146 87L132 89z"/>
<path style="fill:#fcad74; stroke:none;" d="M146 86L146 87L151 89L154 88L146 86M57 87L57 96L58 96L57 87M140 87L140 88L150 90L140 87z"/>
<path style="fill:#fb9448; stroke:none;" d="M144 87L152 88L152 87L144 87z"/>
<path style="fill:#f8812a; stroke:none;" d="M146 87L146 88L151 88L146 87z"/>
<path style="fill:#fb9448; stroke:none;" d="M160.333 87.6667L160.667 88.3333L160.333 87.6667M30.3333 88.6667L30.6667 89.3333L30.3333 88.6667M56 88L57 89L56 88z"/>
<path style="fill:#fcad74; stroke:none;" d="M137.667 88.3333L138.333 88.6667L137.667 88.3333z"/>
<path style="fill:#fb9448; stroke:none;" d="M139 88L139 89L144 90L144 89L139 88M164.333 88.6667L164.667 89.3333L164.333 88.6667z"/>
<path style="fill:#fcad74; stroke:none;" d="M134.667 89.3333L135.333 89.6667L134.667 89.3333z"/>
<path style="fill:#fb9448; stroke:none;" d="M133 90L133 91L141 91L133 90z"/>
<path style="fill:#f8812a; stroke:none;" d="M138 89L138 90L142 90L138 89z"/>
<path style="fill:#fcad74; stroke:none;" d="M160 89L162 92L160 89z"/>
<path style="fill:#fb9448; stroke:none;" d="M31 90L31 99L32 99L31 90z"/>
<path style="fill:#fcad74; stroke:none;" d="M51 90L51 94L52 94L51 90z"/>
<path style="fill:#fdceac; stroke:none;" d="M122 95C125.168 100.396 131.463 95.907 136 94L136 93L124 97L131 91L122 95z"/>
<path style="fill:#fcad74; stroke:none;" d="M127 97L127 96L125 96L125 95L131 95L131 94L128 94L128 93L133 91C130.11 90.0621 121.061 95.7252 127 97M141.667 90.3333L142.333 90.6667L141.667 90.3333z"/>
<path style="fill:#fb9448; stroke:none;" d="M161 90L162 91L161 90M165 90L166 91L165 90M128 93L128 94L135 93L128 93z"/>
<path style="fill:#f8812a; stroke:none;" d="M132 91L132 92L136 92L132 91z"/>
<path style="fill:#fcad74; stroke:none;" d="M138 91L138 92L141 92L138 91M135.667 92.3333L136.333 92.6667L135.667 92.3333z"/>
<path style="fill:#fb9448; stroke:none;" d="M162 92L163 93L162 92M166 92L167 93L166 92z"/>
<path style="fill:#fcad74; stroke:none;" d="M132.667 93.3333L133.333 93.6667L132.667 93.3333M162 93L163 94L162 93M32 94L33 104L34 104L32 94z"/>
<path style="fill:#fb9448; stroke:none;" d="M56.3333 94.6667L56.6667 95.3333L56.3333 94.6667z"/>
<path style="fill:#fcad74; stroke:none;" d="M163 94L164 95L163 94z"/>
<path style="fill:#fb9448; stroke:none;" d="M164 94L166 97L164 94M167 94L168 95L167 94M125 95L125 96L128 96L125 95M28 96L29 103L30 103L28 96M57 96L57 102L58 102L57 96z"/>
<path style="fill:#fcad74; stroke:none;" d="M164 96L165 97L164 96z"/>
<path style="fill:#fb9448; stroke:none;" d="M168 96L169 97L168 96z"/>
<path style="fill:#fcad74; stroke:none;" d="M165 97L167 102L163 103L163 104C167.101 102.723 167.531 100.362 165 97z"/>
<path style="fill:#fb9448; stroke:none;" d="M169.333 97.6667L169.667 98.3333L169.333 97.6667M166 98L167 99L166 98z"/>
<path style="fill:#fcad74; stroke:none;" d="M170 98L174 103L170 98M52.3333 99.6667L52.6667 100.333L52.3333 99.6667M58 99L59 106L60 106L58 99z"/>
<path style="fill:#fb9448; stroke:none;" d="M167.333 99.6667L167.667 100.333L167.333 99.6667M170 100L171 101L170 100z"/>
<path style="fill:#fcad74; stroke:none;" d="M28.3333 101.667L28.6667 102.333L28.3333 101.667M53 101L53 106L54 106L53 101z"/>
<path style="fill:#fb9448; stroke:none;" d="M171 101L171 103L173 103L171 101M32 102L33 103L32 102M167 102L168 103L167 102z"/>
<path style="fill:#fcad74; stroke:none;" d="M29 103L29 110L30 110L29 103z"/>
<path style="fill:#fb9448; stroke:none;" d="M166 103L167 104L166 103M173.333 103.667L173.667 104.333L173.333 103.667M33 104L33 108L34 108L33 104M54 104L55 109L56 109L54 104M58 104L59 105L58 104z"/>
<path style="fill:#fcad74; stroke:none;" d="M153 113C154.128 108.313 157.769 106.774 162 105C158.353 104.393 148.891 108.845 153 113z"/>
<path style="fill:#fb9448; stroke:none;" d="M162 104L162 105L166 105L162 104z"/>
<path style="fill:#fcad74; stroke:none;" d="M174.667 104.333L175.333 104.667L174.667 104.333M34 105L35 112L36 112L34 105z"/>
<path style="fill:#fb9448; stroke:none;" d="M160 105L161 106L160 105M175.333 105.667L175.667 106.333L175.333 105.667M59.3333 106.667L59.6667 107.333L59.3333 106.667M158.667 106.333L159.333 106.667L158.667 106.333z"/>
<path style="fill:#fcad74; stroke:none;" d="M176 106L176 107C184.376 113.223 184 121.491 184 131L185 131C185 121.52 186.031 110.79 176 106z"/>
<path style="fill:#fb9448; stroke:none;" d="M30 107L31 113L32 113L30 107z"/>
<path style="fill:#fcad74; stroke:none;" d="M54.3333 107.667L54.6667 108.333L54.3333 107.667M60 107L64 115L65 115L60 107z"/>
<path style="fill:#fb9448; stroke:none;" d="M152 112L154 109L160 109C156.267 107.052 153.875 108.46 152 112M177 107L177 109L179 109L177 107z"/>
<path style="fill:#fcad74; stroke:none;" d="M160 108L160 109L171 109L160 108z"/>
<path style="fill:#fb9448; stroke:none;" d="M171 108L171 109L174 110L171 108z"/>
<path style="fill:#fcad74; stroke:none;" d="M55 109L59 118L60 118L55 109z"/>
<path style="fill:#f8812a; stroke:none;" d="M154.667 109.333L155.333 109.667L154.667 109.333z"/>
<path style="fill:#fcad74; stroke:none;" d="M158 109L159 110L158 109z"/>
<path style="fill:#fdceac; stroke:none;" d="M169 109L169 110C173.933 111.953 184.533 123.377 175.863 127.412C167.262 131.414 160.644 128.443 152 128L160 136L160 135L154 129C161.379 130.973 170.737 133.224 177.721 128.242C185.846 122.445 175.551 110.323 169 109z"/>
<path style="fill:#fcad74; stroke:none;" d="M172 109L173 110L172 109z"/>
<path style="fill:#fb9448; stroke:none;" d="M179 109L179 111L181 111L179 109M34 110L35 111L34 110M56 110L57 111L56 110M60 110L61 111L60 110z"/>
<path style="fill:#fcad74; stroke:none;" d="M155.667 110.333L156.333 110.667L155.667 110.333M174 110L178 114L174 110z"/>
<path style="fill:#fb9448; stroke:none;" d="M175 110L176 111L175 110z"/>
<path style="fill:#fcad74; stroke:none;" d="M30 111L31 116L32 116L30 111z"/>
<path style="fill:#fb9448; stroke:none;" d="M57.3333 111.667L57.6667 112.333L57.3333 111.667M61 111L62 112L61 111z"/>
<path style="fill:#fcad74; stroke:none;" d="M154 111L155 112L154 111z"/>
<path style="fill:#fb9448; stroke:none;" d="M176 111L177 112L176 111M35.3333 112.667L35.6667 113.333L35.3333 112.667M62 112L63 113L62 112M177 112L178 113L177 112M181 112L182 113L181 112z"/>
<path style="fill:#fdceac; stroke:none;" d="M30 113L41.6752 146L40 208L41 208C41 174.937 48.7841 142.851 30 113z"/>
<path style="fill:#fcad74; stroke:none;" d="M36 113L37 117L38 117L36 113z"/>
<path style="fill:#fb9448; stroke:none;" d="M58.3333 113.667L58.6667 114.333L58.3333 113.667z"/>
<path style="fill:#fdceac; stroke:none;" d="M82 142C93.0675 141.258 94.4038 132.503 101.634 126.643C104.458 124.354 110.38 125.524 114 124L114 122L100.26 114.342L95.6219 121.001L82 142z"/>
<path style="fill:#fb9448; stroke:none;" d="M178 113L179 117L180 117L178 113M63 114L64 115L63 114M182 114L183 115L182 114M32 115L33 119L34 119L32 115M59.3333 115.667L59.6667 116.333L59.3333 115.667M64 115L76 127L76 126L64 115z"/>
<path style="fill:#fcad74; stroke:none;" d="M99 115L98 119L110 122L110 124L106 124L106 125L112 124L99 115M178.333 115.667L178.667 116.333L178.333 115.667z"/>
<path style="fill:#fb9448; stroke:none;" d="M36 116L37 117L36 116z"/>
<path style="fill:#fcad74; stroke:none;" d="M65 116L66 117L65 116z"/>
<path style="fill:#fb9448; stroke:none;" d="M183 116L183 119L184 119L183 116z"/>
<path style="fill:#fcad74; stroke:none;" d="M32.3333 117.667L32.6667 118.333L32.3333 117.667z"/>
<path style="fill:#fb9448; stroke:none;" d="M37.3333 117.667L37.6667 118.333L37.3333 117.667M60 117L70 128L60 117z"/>
<path style="fill:#fcad74; stroke:none;" d="M66 117L67 118L66 117z"/>
<path style="fill:#fb9448; stroke:none;" d="M98 121L99 121L100 118L105 122C99.2138 122.901 97.1323 126.914 95 132L96 132C100.044 125.181 102.125 123.69 110 124L110 122C105.443 120.738 101.148 115.51 98 121z"/>
<path style="fill:#fcad74; stroke:none;" d="M179.333 117.667L179.667 118.333L179.333 117.667M38 118L45 135L46 135L38 118M67 118L68 119L67 118z"/>
<path style="fill:#f8812a; stroke:none;" d="M100 118L88 137L105 122L100 118z"/>
<path style="fill:#fb9448; stroke:none;" d="M180.333 118.667L180.667 119.333L180.333 118.667z"/>
<path style="fill:#fcad74; stroke:none;" d="M33 119L37 130L38 130L33 119M60 119L61 120L60 119M68 119L69 120L68 119z"/>
<path style="fill:#fb9448; stroke:none;" d="M34.3333 120.667L34.6667 121.333L34.3333 120.667M38 120L39 121L38 120z"/>
<path style="fill:#fcad74; stroke:none;" d="M61 120L62 121L61 120M69 120L70 121L69 120M97 120L94 127L95 127L97 120M180.333 120.667L180.667 121.333L180.333 120.667M62 121L63 122L62 121M70 121L71 122L70 121z"/>
<path style="fill:#fb9448; stroke:none;" d="M181 121L181 125L182 125L181 121M39 122L40 123L39 122z"/>
<path style="fill:#fcad74; stroke:none;" d="M63 122L64 123L63 122M71 122L72 123L71 122z"/>
<path style="fill:#fb9448; stroke:none;" d="M97 122L98 123L97 122M35 123L36 124L35 123z"/>
<path style="fill:#fcad74; stroke:none;" d="M64 123L65 124L64 123M72 123L73 124L72 123M101 123L101 124L105 124L101 123z"/>
<path style="fill:#fb9448; stroke:none;" d="M40 124L41 125L40 124z"/>
<path style="fill:#fcad74; stroke:none;" d="M65 124L66 125L65 124M73.6667 124.333L74.3333 124.667L73.6667 124.333z"/>
<path style="fill:#fb9448; stroke:none;" d="M96 124L97 125L96 124z"/>
<path style="fill:#fcad74; stroke:none;" d="M100 124L101 125L100 124M180.333 124.667L180.667 125.333L180.333 124.667z"/>
<path style="fill:#fb9448; stroke:none;" d="M36 125L37 126L36 125z"/>
<path style="fill:#fcad74; stroke:none;" d="M66 125L67 126L66 125M75 125L76 126L75 125M99.3333 125.667L99.6667 126.333L99.3333 125.667z"/>
<path style="fill:#fb9448; stroke:none;" d="M41.3333 126.667L41.6667 127.333L41.3333 126.667z"/>
<path style="fill:#fcad74; stroke:none;" d="M67 126L68 127L67 126M76.6667 126.333L77.3333 126.667L76.6667 126.333z"/>
<path style="fill:#fb9448; stroke:none;" d="M95 126L96 127L95 126M180 126L175 130L175 131C177.919 130.161 180.076 129.24 180 126M37 127L38 128L37 127z"/>
<path style="fill:#fcad74; stroke:none;" d="M68 127L69 128L68 127z"/>
<path style="fill:#fb9448; stroke:none;" d="M77 127L76 133L77 133L77 127M94 127L85 140L90 138L88 136C91.1301 133.741 94.5505 131.132 94 127z"/>
<path style="fill:#fcad74; stroke:none;" d="M98.3333 127.667L98.6667 128.333L98.3333 127.667M179 127L180 128L179 127z"/>
<path style="fill:#fb9448; stroke:none;" d="M70 128L72 138L73 138L70 128z"/>
<path style="fill:#fcad74; stroke:none;" d="M78.3333 128.667L78.6667 129.333L78.3333 128.667M93 128L94 129L93 128M178 128L179 129L178 128z"/>
<path style="fill:#fb9448; stroke:none;" d="M38 129L41 136L42 136L38 129M42.3333 129.667L42.6667 130.333L42.3333 129.667z"/>
<path style="fill:#fcad74; stroke:none;" d="M70 129L71 130L70 129M92.3333 129.667L92.6667 130.333L92.3333 129.667M97.3333 129.667L97.6667 130.333L97.3333 129.667M156 132L155 130L156 130L163 132C160.64 130.437 150.866 129.117 156 132M172 129L172 130L176 130L172 129M177 129L178 130L177 129M71 130L71 137L72 137L71 130z"/>
<path style="fill:#fb9448; stroke:none;" d="M155 130L161 135L161 134L158 133L159 131L155 130z"/>
<path style="fill:#fcad74; stroke:none;" d="M167 131L167 132L171 131L167 131z"/>
<path style="fill:#fb9448; stroke:none;" d="M171.667 130.333L172.333 130.667L171.667 130.333M183.333 130.667L183.667 131.333L183.333 130.667z"/>
<path style="fill:#fcad74; stroke:none;" d="M38 131L39 132L38 131z"/>
<path style="fill:#fb9448; stroke:none;" d="M43.3333 131.667L43.6667 132.333L43.3333 131.667z"/>
<path style="fill:#fcad74; stroke:none;" d="M77 131L78 132L77 131M91 131L92 132L91 131M96 131L97 132L96 131z"/>
<path style="fill:#fb9448; stroke:none;" d="M169.667 131.333L170.333 131.667L169.667 131.333z"/>
<path style="fill:#fcad74; stroke:none;" d="M90 132L91 133L90 132M95.3333 132.667L95.6667 133.333L95.3333 132.667z"/>
<path style="fill:#fb9448; stroke:none;" d="M162 132L162 133L168 133L162 132z"/>
<path style="fill:#fcad74; stroke:none;" d="M183 132L171 147L172 147L183 132M39 133L40 134L39 133z"/>
<path style="fill:#fb9448; stroke:none;" d="M44.3333 133.667L44.6667 134.333L44.3333 133.667z"/>
<path style="fill:#fcad74; stroke:none;" d="M76 133L74 144C78.364 143.452 77.5706 136.253 76 133M89 133L90 134L89 133z"/>
<path style="fill:#fb9448; stroke:none;" d="M94 133L95 134L94 133z"/>
<path style="fill:#fcad74; stroke:none;" d="M157 133L158 134L157 133z"/>
<path style="fill:#fb9448; stroke:none;" d="M182 133L183 134L182 133z"/>
<path style="fill:#fdceac; stroke:none;" d="M46 134C49.8974 154.097 47.5078 171.871 47.0147 192C46.8595 198.334 48.833 210.392 44.3966 215.57C39.8563 220.87 27.2545 222.363 21 226L21 227C27.1089 224.781 41.2816 221.571 45.4005 216.686C49.841 211.42 47.9282 200.36 48.0039 194C48.2076 176.875 56.6504 149.322 46 134z"/>
<path style="fill:#fcad74; stroke:none;" d="M88 134L89 135L88 134z"/>
<path style="fill:#fb9448; stroke:none;" d="M93 134L91 137L93 134z"/>
<path style="fill:#fcad74; stroke:none;" d="M158.667 134.333L159.333 134.667L158.667 134.333z"/>
<path style="fill:#fb9448; stroke:none;" d="M181 134L182 135L181 134z"/>
<path style="fill:#fcad74; stroke:none;" d="M40 135L41 136L40 135z"/>
<path style="fill:#fb9448; stroke:none;" d="M45 135L45 138L46 138L45 135z"/>
<path style="fill:#fcad74; stroke:none;" d="M87 135L88 136L87 135M93 135L94 136L93 135M160.667 135.333L161.333 135.667L160.667 135.333z"/>
<path style="fill:#fb9448; stroke:none;" d="M162 135L162 136L172 138L162 135M179 135L180 136L179 135z"/>
<path style="fill:#fcad74; stroke:none;" d="M41 136L41 141L42 141L41 136M46 136L47 143L48 143L46 136z"/>
<path style="fill:#fb9448; stroke:none;" d="M75 136L74 143L75 136z"/>
<path style="fill:#fcad74; stroke:none;" d="M86 136L87 137L86 136z"/>
<path style="fill:#fdceac; stroke:none;" d="M161 136L161 137L170 138L162.474 153L162 177L147.946 180.682L136 181L147 188C145.658 196.995 147.661 201.959 136 202L136 203C144.411 202.993 153.325 197.92 147.012 188.224C144.942 185.046 140.61 183.772 138 181C143.426 182.292 151.821 184.066 153 177L161.972 176.382L163.213 156L171 138L161 136z"/>
<path style="fill:#fcad74; stroke:none;" d="M163 136L163 137L170 137L163 136z"/>
<path style="fill:#fb9448; stroke:none;" d="M177 136L178 137L177 136z"/>
<path style="fill:#fcad74; stroke:none;" d="M85 137L86 138L85 137M90 137L91 138L90 137M170 137L171 138L170 137z"/>
<path style="fill:#fb9448; stroke:none;" d="M176 137L177 138L176 137M42 138L42 142L43 142L42 138z"/>
<path style="fill:#fcad74; stroke:none;" d="M72 138L73 142L74 142L72 138M84 138L86 141L84 138M88.6667 138.333L89.3333 138.667L88.6667 138.333M171 138L172 139L171 138z"/>
<path style="fill:#fb9448; stroke:none;" d="M175 138L176 139L175 138M73 139L74 140L73 139z"/>
<path style="fill:#fcad74; stroke:none;" d="M86.6667 139.333L87.3333 139.667L86.6667 139.333z"/>
<path style="fill:#fb9448; stroke:none;" d="M171 139L166 150L170 147L168 148L171 139M174 139L175 140L174 139z"/>
<path style="fill:#fcad74; stroke:none;" d="M170 140L171 141L170 140z"/>
<path style="fill:#fb9448; stroke:none;" d="M46.3333 141.667L46.6667 142.333L46.3333 141.667M173 141L174 142L173 141z"/>
<path style="fill:#fcad74; stroke:none;" d="M42 142C44.0298 152.933 44.0298 166.067 42 177L43 177C44.9789 168.688 46.9263 149.211 42 142z"/>
<path style="fill:#fdceac; stroke:none;" d="M133 144L146 157L146 156L135 146L135 144L136 143C142.338 144.834 157.423 148.078 147 155C150.028 155.286 155.618 152.385 152.953 148.545C149.471 143.528 138.074 141.777 133 144z"/>
<path style="fill:#fcad74; stroke:none;" d="M169 142L170 143L169 142z"/>
<path style="fill:#fb9448; stroke:none;" d="M43 143L44 144L43 143M47 143L47 152L48 152L47 143z"/>
<path style="fill:#fcad74; stroke:none;" d="M135 146L136 146L138 144L135 146z"/>
<path style="fill:#fb9448; stroke:none;" d="M172 143L173 144L172 143M136 144L140 148L143 146L136 144z"/>
<path style="fill:#fcad74; stroke:none;" d="M139 144L139 145L142 145L139 144M168 144L169 145L168 144M48 145L48 180L49 180L48 145M143 145L144 146L143 145z"/>
<path style="fill:#fb9448; stroke:none;" d="M171 145L172 146L171 145z"/>
<path style="fill:#fcad74; stroke:none;" d="M137 146L138 147L137 146z"/>
<path style="fill:#f8812a; stroke:none;" d="M139 146L145 155L146 155L152 151L139 146z"/>
<path style="fill:#fb9448; stroke:none;" d="M144 146L147 148L147 147L144 146z"/>
<path style="fill:#fcad74; stroke:none;" d="M145.667 146.333L146.333 146.667L145.667 146.333M167 146L168 147L167 146M138 147L139 148L138 147M147.667 147.333L148.333 147.667L147.667 147.333M166.333 147.667L166.667 148.333L166.333 147.667M170.333 147.667L170.667 148.333L170.333 147.667M139 148C142.419 160.139 155.567 151.707 150 148L152 152C145.479 153.928 143.385 153.328 139 148z"/>
<path style="fill:#fb9448; stroke:none;" d="M148 148L151 150L148 148M140.333 149.667L140.667 150.333L140.333 149.667z"/>
<path style="fill:#fcad74; stroke:none;" d="M165 149L164 152L165 149M169 149L170 150L169 149z"/>
<path style="fill:#f8812a; stroke:none;" d="M166.667 150.333L167.333 150.667L166.667 150.333z"/>
<path style="fill:#fcad74; stroke:none;" d="M168 150L166 181C157.101 181.006 155.077 182.767 152 191L153 191C156.692 183.818 158.752 182.006 167 182L168 150z"/>
<path style="fill:#fb9448; stroke:none;" d="M141 151L142 152L141 151M150.667 151.333L151.333 151.667L150.667 151.333M157 178L158 181L166 178L168 151C157.511 154.481 171.57 179.235 157 178M142 152L143 153L142 152M149 152L150 153L149 152M143 153L144 154L143 153M147 153L148 154L147 153z"/>
<path style="fill:#fcad74; stroke:none;" d="M163 153L163 177L164 177L163 153z"/>
<path style="fill:#fb9448; stroke:none;" d="M144 154L145 155L144 154M146 154L147 155L146 154z"/>
<path style="fill:#fdceac; stroke:none;" d="M100 177L96 156C85.2944 159.371 90.6555 175.553 100 177z"/>
<path style="fill:#fcad74; stroke:none;" d="M92 161C95.3588 161 94 166.203 94 169L93 169L92 162L91 162C91.1447 168.156 92.999 172.284 98 176L97 171L95 173C94.0167 170.05 93.5131 169.378 96 170L95 158L92 161z"/>
<path style="fill:#fb9448; stroke:none;" d="M93 160L93 169L94 169L93 160M47 168L47 185L48 185L47 168M94 169L95 173L96 173L94 169M43 175L44 176L43 175M42 177L42 196L43 196L42 177z"/>
<path style="fill:#fcad74; stroke:none;" d="M153 177C150.933 183.808 143.668 182.052 138 181L143 185L155 177L153 177z"/>
<path style="fill:#fb9448; stroke:none;" d="M155 177L154 179L155 177z"/>
<path style="fill:#fcad74; stroke:none;" d="M156.667 177.333L157.333 177.667L156.667 177.333M162 177L163 178L162 177z"/>
<path style="fill:#f8812a; stroke:none;" d="M164 177L160 180L160 181C163 180.768 166.006 180.324 164 177M154 181L158 181L157 178L154 181z"/>
<path style="fill:#fcad74; stroke:none;" d="M158 178L158 179L162 179L158 178z"/>
<path style="fill:#fb9448; stroke:none;" d="M165 180L166 181L165 180M142 183L142 184L154 184L157 182L142 183z"/>
<path style="fill:#f8812a; stroke:none;" d="M153 182L145 184L145 185L150 192L153 182z"/>
<path style="fill:#fcad74; stroke:none;" d="M47.3333 185.667L47.6667 186.333L47.3333 185.667z"/>
<path style="fill:#fdceac; stroke:none;" d="M69 206L69 205L64 205L64 203C72.8222 199.985 77.1569 194.231 81 186L82 186C82.7141 194.097 76.8456 200.448 70 204L70 205C79.1171 202.261 83.7845 194.21 84 185C77.2589 186.14 75.3226 194.478 69.9961 198.363C67.9714 199.839 63.4085 201.226 62.9213 204.065C62.3162 207.59 67.3432 206.441 69 206z"/>
<path style="fill:#fcad74; stroke:none;" d="M144 185L144 186L148 188L144 185z"/>
<path style="fill:#fb9448; stroke:none;" d="M146 185L147 186L146 185z"/>
<path style="fill:#fcad74; stroke:none;" d="M41 186C41 195.718 42.0943 204.41 37 213C43.4365 207.898 44.1004 193.389 41 186z"/>
<path style="fill:#fb9448; stroke:none;" d="M46.3333 186.667L46.6667 187.333L46.3333 186.667z"/>
<path style="fill:#fcad74; stroke:none;" d="M80 187L82 190L83 190L82 186L80 187z"/>
<path style="fill:#fb9448; stroke:none;" d="M147 186L148 187L147 186M153.333 186.667L153.667 187.333L153.333 186.667z"/>
<path style="fill:#fdceac; stroke:none;" d="M106 187C108.332 195.536 118.077 202.001 126 205L126 204C119.023 199.729 111.596 195.71 108 188C115.337 195.002 124.514 201.753 135 202L121 195.934L106 187z"/>
<path style="fill:#fb9448; stroke:none;" d="M148 187L149 193L151 193L152 190L151 190L150 192L148 187z"/>
<path style="fill:#fcad74; stroke:none;" d="M46 188L46 208L47 208L46 188z"/>
<path style="fill:#fb9448; stroke:none;" d="M80 188L72 202L65 205C73.9777 203.399 80.6355 197.063 82 188L80 188z"/>
<path style="fill:#fcad74; stroke:none;" d="M108 188C109.905 194.788 116.042 198.812 122 202L122 198L117 195L120 199L115 197L116 194L108 188z"/>
<path style="fill:#fb9448; stroke:none;" d="M152.333 188.667L152.667 189.333L152.333 188.667z"/>
<path style="fill:#fcad74; stroke:none;" d="M79 189L80 190L79 189M78.3333 190.667L78.6667 191.333L78.3333 190.667M81.3333 191.667L81.6667 192.333L81.3333 191.667M77.3333 192.667L77.6667 193.333L77.3333 192.667M148 192L149 193L148 192M151 192L152 193L151 192z"/>
<path style="fill:#f8812a; stroke:none;" d="M79 193L78 195L79 193z"/>
<path style="fill:#fcad74; stroke:none;" d="M149 193C148.192 200.254 143.952 202.918 137 203L132 215L133 215C133.278 209.943 134.607 207.089 140 207L140 206L138 206L138 205L152 196L151 193L149 193M76.3333 194.667L76.6667 195.333L76.3333 194.667M80 194L81 195L80 194z"/>
<path style="fill:#fb9448; stroke:none;" d="M115 195L120 199L115 195M150 195C148.407 199.683 145.812 202.646 141 204L141 205C145.788 204.278 154.039 200.588 150 195z"/>
<path style="fill:#fdceac; stroke:none;" d="M152 195C151.492 207.055 156.755 207.999 168 208L168 207C163.871 206.989 155.308 207.566 153.399 202.772C152.309 200.038 153.647 197.694 152 195z"/>
<path style="fill:#fcad74; stroke:none;" d="M75 196L76 197L75 196M79 196L80 197L79 196M74 197L75 198L74 197M78 197L79 198L78 197M73 198L74 199L73 198M77 198L78 199L77 198M71 199L72 200L71 199M76 199L77 200L76 199z"/>
<path style="fill:#fb9448; stroke:none;" d="M120 199C123.221 202.732 126.19 203.358 131 203L131 202L124 202L120 199z"/>
<path style="fill:#fcad74; stroke:none;" d="M123.667 199.333L124.333 199.667L123.667 199.333z"/>
<path style="fill:#fb9448; stroke:none;" d="M45 200C45 207.66 46.5244 214.296 38 217L38 218C46.5084 216.138 48.2252 207.686 45 200z"/>
<path style="fill:#fcad74; stroke:none;" d="M70 200L71 201L70 200M75 200L76 201L75 200M125.667 200.333L126.333 200.667L125.667 200.333M151 200L152 201L151 200M67.6667 201.333L68.3333 201.667L67.6667 201.333z"/>
<path style="fill:#f8812a; stroke:none;" d="M70.6667 201.333L71.3333 201.667L70.6667 201.333z"/>
<path style="fill:#fcad74; stroke:none;" d="M74 201L75 202L74 201z"/>
<path style="fill:#f8812a; stroke:none;" d="M124.667 201.333L125.333 201.667L124.667 201.333z"/>
<path style="fill:#fcad74; stroke:none;" d="M127.667 201.333L128.333 201.667L127.667 201.333z"/>
<path style="fill:#f8812a; stroke:none;" d="M140 205L140 206L154 208L154 207L150 201L140 205z"/>
<path style="fill:#fcad74; stroke:none;" d="M150 201L154 207L150 201M66 202L67 203L66 202M72.6667 202.333L73.3333 202.667L72.6667 202.333M123 202L124 203L123 202M131 202L131 203L136 203L131 202M64.3333 203.667L64.6667 204.333L64.3333 203.667z"/>
<path style="fill:#f8812a; stroke:none;" d="M67 203L68 204L67 203z"/>
<path style="fill:#fcad74; stroke:none;" d="M70.6667 203.333L71.3333 203.667L70.6667 203.333M125 203L126 204L125 203z"/>
<path style="fill:#f8812a; stroke:none;" d="M127 203L127 204L130 211L131 211L136 205L127 203z"/>
<path style="fill:#fb9448; stroke:none;" d="M135 203L138 205L135 203M149 203L150 204L149 203z"/>
<path style="fill:#fcad74; stroke:none;" d="M68.6667 204.333L69.3333 204.667L68.6667 204.333M126 204L126 205L130 222L132 222L133 219L130 220C130 214.396 131.482 207.202 126 204z"/>
<path style="fill:#fb9448; stroke:none;" d="M128 204L129 205L128 204z"/>
<path style="fill:#fcad74; stroke:none;" d="M65.6667 205.333L66.3333 205.667L65.6667 205.333z"/>
<path style="fill:#fdceac; stroke:none;" d="M127.333 205.667L127.667 206.333L127.333 205.667z"/>
<path style="fill:#fb9448; stroke:none;" d="M135 205L136 206L135 205M138.667 205.333L139.333 205.667L138.667 205.333M150 205L153 207L150 205M129 206L130 207L129 206M133 206L134 207L133 206z"/>
<path style="fill:#fdceac; stroke:none;" d="M136.667 206.333L137.333 206.667L136.667 206.333z"/>
<path style="fill:#fb9448; stroke:none;" d="M140 206L140 207L149 208L140 206z"/>
<path style="fill:#fdceac; stroke:none;" d="M128 207L129 222L130 222L128 207M134.333 207.667L134.667 208.333L134.333 207.667M139 207L139 208L161 213L161 212L139 207z"/>
<path style="fill:#fcad74; stroke:none;" d="M142 207L142 208L148 208L142 207z"/>
<path style="fill:#fb9448; stroke:none;" d="M151 208L151 209L159 209L151 208z"/>
<path style="fill:#fcad74; stroke:none;" d="M155 207L155 208L158 208L155 207z"/>
<path style="fill:#fb9448; stroke:none;" d="M41.3333 208.667L41.6667 209.333L41.3333 208.667M132 208L133 209L132 208z"/>
<path style="fill:#fcad74; stroke:none;" d="M149.667 208.333L150.333 208.667L149.667 208.333M159 208L159 209L170 209L159 208z"/>
<path style="fill:#fdceac; stroke:none;" d="M170 208L170 209L190 214C184.55 208.539 177.325 208.001 170 208M39 209L40 210L39 209M133 209L130 224C134.871 221.154 135.047 213.879 133 209z"/>
<path style="fill:#fcad74; stroke:none;" d="M151 209L151 210L154 210L151 209z"/>
<path style="fill:#f8812a; stroke:none;" d="M155 209L155 210C169.373 211.431 182.978 212.456 194.285 222.519C200.776 228.295 205.055 238.469 212 243C204.588 217.392 178.618 209 155 209z"/>
<path style="fill:#fb9448; stroke:none;" d="M169 209L169 210L179 211L179 210L169 209z"/>
<path style="fill:#fcad74; stroke:none;" d="M172 209L172 210L179 210L172 209z"/>
<path style="fill:#fdceac; stroke:none;" d="M38 210L39 211L38 210z"/>
<path style="fill:#fb9448; stroke:none;" d="M40 210L41 211L40 210M131 210L130 220L132 220L131 210z"/>
<path style="fill:#fcad74; stroke:none;" d="M154 210L154 211L160 212L160 211L154 210z"/>
<path style="fill:#fb9448; stroke:none;" d="M156 210L156 211L160 211L156 210z"/>
<path style="fill:#fcad74; stroke:none;" d="M179 210L179 211L182 211L179 210z"/>
<path style="fill:#fdceac; stroke:none;" d="M37 211L38 212L37 211z"/>
<path style="fill:#fb9448; stroke:none;" d="M39 211L40 212L39 211M160.667 211.333L161.333 211.667L160.667 211.333M182 211L185 213L182 211z"/>
<path style="fill:#fcad74; stroke:none;" d="M184 211L185 212L184 211z"/>
<path style="fill:#fdceac; stroke:none;" d="M28 215L28 216L37 213L28 215z"/>
<path style="fill:#fb9448; stroke:none;" d="M38 212L39 213L38 212z"/>
<path style="fill:#fcad74; stroke:none;" d="M161 212L161 213L173 213L161 212z"/>
<path style="fill:#fb9448; stroke:none;" d="M173 212L173 213L179 214L173 212z"/>
<path style="fill:#fcad74; stroke:none;" d="M185.667 212.333L186.333 212.667L185.667 212.333M35 213L36 214L35 213z"/>
<path style="fill:#fb9448; stroke:none;" d="M29 216L29 217L38 214L29 216z"/>
<path style="fill:#fdceac; stroke:none;" d="M162 213L162 214C187.998 214.003 200.732 230.585 212 252C212.712 247.217 208.146 240.992 205.63 237C195.172 220.409 181.155 213 162 213z"/>
<path style="fill:#fcad74; stroke:none;" d="M175 213L175 214L178 214L175 213z"/>
<path style="fill:#fb9448; stroke:none;" d="M186 213L189 215L186 213z"/>
<path style="fill:#fcad74; stroke:none;" d="M188 213L189 214L188 213M33 214L34 215L33 214M179 214L179 215L186 218L179 214z"/>
<path style="fill:#fb9448; stroke:none;" d="M181 214L181 215L184 215L181 214z"/>
<path style="fill:#fcad74; stroke:none;" d="M189 214L189 215L193 217L189 214z"/>
<path style="fill:#fdceac; stroke:none;" d="M191 214L192 215L191 214z"/>
<path style="fill:#fcad74; stroke:none;" d="M30.6667 215.333L31.3333 215.667L30.6667 215.333M45 215L46 216L45 215z"/>
<path style="fill:#fb9448; stroke:none;" d="M184 215L185 216L184 215M190 215L191 216L190 215z"/>
<path style="fill:#fdceac; stroke:none;" d="M192 215L193 216L192 215M24 218L27 217L24 218z"/>
<path style="fill:#fcad74; stroke:none;" d="M27.6667 216.333L28.3333 216.667L27.6667 216.333M44 216L45 217L44 216z"/>
<path style="fill:#fb9448; stroke:none;" d="M186.333 216.667L186.667 217.333L186.333 216.667M191 216L192 217L191 216z"/>
<path style="fill:#fdceac; stroke:none;" d="M193 216L193 217L210.069 236L216 248C211.517 235.795 205.666 221.907 193 216z"/>
<path style="fill:#fcad74; stroke:none;" d="M25 217L23 218L23 219L25 217z"/>
<path style="fill:#fb9448; stroke:none;" d="M25 219L28 217L25 219z"/>
<path style="fill:#fcad74; stroke:none;" d="M40 217L40 218L43 218L40 217z"/>
<path style="fill:#fb9448; stroke:none;" d="M192 217L194 219L194 217L192 217z"/>
<path style="fill:#fcad74; stroke:none;" d="M194 217L204 227L194 217z"/>
<path style="fill:#fdceac; stroke:none;" d="M0 238C7.24441 239.183 14.2411 231.885 20 228L20 227L3 238C6.44227 229.116 15.3908 224.04 23 219C14.6801 218.284 3.91926 231.524 0 238z"/>
<path style="fill:#fb9448; stroke:none;" d="M32 219L32 220L37 219L32 219z"/>
<path style="fill:#fcad74; stroke:none;" d="M37.6667 218.333L38.3333 218.667L37.6667 218.333M187 218L188 219L187 218z"/>
<path style="fill:#fb9448; stroke:none;" d="M188 218L188 219L191 220L188 218M22 219L22 221L24 219L22 219z"/>
<path style="fill:#fcad74; stroke:none;" d="M34.6667 219.333L35.3333 219.667L34.6667 219.333M189 219L190 220L189 219z"/>
<path style="fill:#fb9448; stroke:none;" d="M195 219L195 221L197 221L195 219z"/>
<path style="fill:#fcad74; stroke:none;" d="M19 222L22 221L19 222z"/>
<path style="fill:#fb9448; stroke:none;" d="M27 221L27 222L31 221L27 221z"/>
<path style="fill:#fcad74; stroke:none;" d="M31.6667 220.333L32.3333 220.667L31.6667 220.333z"/>
<path style="fill:#fdceac; stroke:none;" d="M44 221L44 222C53.7401 220.769 61.6182 220.948 71 224C64.4882 218.146 52.0546 219.082 44 221M143 231L143 232L168 222L167 225L168 225L168 220L143 231z"/>
<path style="fill:#fcad74; stroke:none;" d="M190.667 220.333L191.333 220.667L190.667 220.333z"/>
<path style="fill:#fb9448; stroke:none;" d="M192.333 220.667L192.667 221.333L192.333 220.667M20 221L21 222L20 221z"/>
<path style="fill:#fcad74; stroke:none;" d="M28 221L28 222L31 222L28 221M47 221L47 222L64 222L47 221z"/>
<path style="fill:#fb9448; stroke:none;" d="M197 221L197 223L199 223L197 221z"/>
<path style="fill:#fcad74; stroke:none;" d="M17 222L18 223L17 222z"/>
<path style="fill:#fb9448; stroke:none;" d="M18.6667 222.333L19.3333 222.667L18.6667 222.333M23 224L26 223L23 224z"/>
<path style="fill:#fcad74; stroke:none;" d="M26.6667 222.333L27.3333 222.667L26.6667 222.333z"/>
<path style="fill:#fdceac; stroke:none;" d="M30 226C31.0931 232.217 37.446 229.134 42 228L42 227L31 229L43 223L30 226z"/>
<path style="fill:#fcad74; stroke:none;" d="M43 222L43 223L46 223L43 222z"/>
<path style="fill:#fb9448; stroke:none;" d="M46 222L46 223L65 223L46 222z"/>
<path style="fill:#fcad74; stroke:none;" d="M65.6667 222.333L66.3333 222.667L65.6667 222.333M147 230L147 231L164 224L164 226L168 222L147 230M193 222L203 234L204 234L193 222z"/>
<path style="fill:#fb9448; stroke:none;" d="M194 222L195 223L194 222z"/>
<path style="fill:#fcad74; stroke:none;" d="M15 223L11 228L15 223z"/>
<path style="fill:#fb9448; stroke:none;" d="M16.3333 223.667L16.6667 224.333L16.3333 223.667z"/>
<path style="fill:#fcad74; stroke:none;" d="M24.6667 223.333L25.3333 223.667L24.6667 223.333M33 226L33 227L43 227L43 226L38 226L38 225L42 224L33 226z"/>
<path style="fill:#fb9448; stroke:none;" d="M38 225L38 226L62 226C56.4706 222.223 44.1485 222.886 38 225z"/>
<path style="fill:#f8812a; stroke:none;" d="M44 223L44 224C65.5144 224 78.1548 237.355 98 241.624C118.236 245.978 133.537 238.297 152 232L140 234.655L115 239.915L66 223.613L44 223z"/>
<path style="fill:#fb9448; stroke:none;" d="M66 223L66 224L70 225L70 224L66 223z"/>
<path style="fill:#fcad74; stroke:none;" d="M68.6667 223.333L69.3333 223.667L68.6667 223.333z"/>
<path style="fill:#fb9448; stroke:none;" d="M164 223L164 224L167 224L164 223M195 223L196 224L195 223M199 223L199 225L201 225L199 223M21 224L20 226L21 224z"/>
<path style="fill:#fcad74; stroke:none;" d="M22.6667 224.333L23.3333 224.667L22.6667 224.333M70 224L70 225L83 230L83 229L70 224z"/>
<path style="fill:#fdceac; stroke:none;" d="M72.6667 224.333L73.3333 224.667L72.6667 224.333z"/>
<path style="fill:#fb9448; stroke:none;" d="M163 224L158 226L158 227C160.481 227.128 163.517 227.004 163 224M196 224L197 225L196 224M14 225L15 226L14 225z"/>
<path style="fill:#fcad74; stroke:none;" d="M21 225L22 226L21 225z"/>
<path style="fill:#f8812a; stroke:none;" d="M40.6667 225.333L41.3333 225.667L40.6667 225.333z"/>
<path style="fill:#fcad74; stroke:none;" d="M44 225L44 226L60 226L44 225z"/>
<path style="fill:#fb9448; stroke:none;" d="M71 225L72 226L71 225z"/>
<path style="fill:#fdceac; stroke:none;" d="M74 225L75 226L74 225M165 225L161 229L165 225z"/>
<path style="fill:#fb9448; stroke:none;" d="M197 225L198 226L197 225M201.333 225.667L201.667 226.333L201.333 225.667M13 226L14 227L13 226M16 228L19 226L16 228z"/>
<path style="fill:#fcad74; stroke:none;" d="M19.6667 226.333L20.3333 226.667L19.6667 226.333z"/>
<path style="fill:#fdceac; stroke:none;" d="M43 226L43 227C64.0774 227 75.7245 237.648 95 243.212C116.879 249.527 141.246 241.94 160 230C154.579 229.942 148.886 234.487 144 236.688C134.487 240.974 121.56 245.406 111 244.895C93.226 244.034 80.2911 232.595 64 227.359C57.3121 225.209 49.9398 226 43 226z"/>
<path style="fill:#fcad74; stroke:none;" d="M61.6667 226.333L62.3333 226.667L61.6667 226.333z"/>
<path style="fill:#fb9448; stroke:none;" d="M63 226L63 227L68 228L68 227L63 226M72.6667 226.333L73.3333 226.667L72.6667 226.333z"/>
<path style="fill:#fdceac; stroke:none;" d="M76.6667 226.333L77.3333 226.667L76.6667 226.333z"/>
<path style="fill:#fcad74; stroke:none;" d="M162 226L163 227L162 226z"/>
<path style="fill:#fb9448; stroke:none;" d="M198 226L199 227L198 226M10 228L12 230L8 234L15 229L10 228z"/>
<path style="fill:#fcad74; stroke:none;" d="M18 227L19 228L18 227M31 227L34 229L34 228L31 227z"/>
<path style="fill:#fb9448; stroke:none;" d="M32 227L32 228L36 228L32 227z"/>
<path style="fill:#fcad74; stroke:none;" d="M64.6667 227.333L65.3333 227.667L64.6667 227.333z"/>
<path style="fill:#fb9448; stroke:none;" d="M75 227L76 228L75 227z"/>
<path style="fill:#fdceac; stroke:none;" d="M78.6667 227.333L79.3333 227.667L78.6667 227.333z"/>
<path style="fill:#fb9448; stroke:none;" d="M154 228L154 229L159 229L154 228z"/>
<path style="fill:#f8812a; stroke:none;" d="M157 227L157 228L160 228L157 227z"/>
<path style="fill:#fcad74; stroke:none;" d="M161 227L162 228L161 227z"/>
<path style="fill:#fb9448; stroke:none;" d="M199 227L200 228L199 227M203.333 227.667L203.667 228.333L203.333 227.667z"/>
<path style="fill:#fcad74; stroke:none;" d="M9 228L3 238L8 235L8 234L9 228M15.6667 228.333L16.3333 228.667L15.6667 228.333M67 228L67 229L70 230L67 228z"/>
<path style="fill:#fb9448; stroke:none;" d="M69 228L72 230L69 228M76.6667 228.333L77.3333 228.667L76.6667 228.333z"/>
<path style="fill:#fdceac; stroke:none;" d="M80 228L80 229L89 232L80 228z"/>
<path style="fill:#fcad74; stroke:none;" d="M159.667 228.333L160.333 228.667L159.667 228.333z"/>
<path style="fill:#fb9448; stroke:none;" d="M200 228L201 229L200 228z"/>
<path style="fill:#fcad74; stroke:none;" d="M204 228L205 229L204 228z"/>
<path style="fill:#f8812a; stroke:none;" d="M7 234L12 229L7 234z"/>
<path style="fill:#fcad74; stroke:none;" d="M14 229L15 230L14 229z"/>
<path style="fill:#fb9448; stroke:none;" d="M79 229L80 230L79 229M149 230L149 231L155 231L149 230z"/>
<path style="fill:#f8812a; stroke:none;" d="M153 229L153 230L156 230L153 229z"/>
<path style="fill:#fcad74; stroke:none;" d="M158 229L159 230L158 229z"/>
<path style="fill:#fb9448; stroke:none;" d="M201 229L202 230L201 229z"/>
<path style="fill:#fcad74; stroke:none;" d="M205 229L211 239L212 239L205 229z"/>
<path style="fill:#fb9448; stroke:none;" d="M8 230L9 231L8 230z"/>
<path style="fill:#fcad74; stroke:none;" d="M12.6667 230.333L13.3333 230.667L12.6667 230.333M72 230L75 232L75 231L72 230z"/>
<path style="fill:#fb9448; stroke:none;" d="M73.6667 230.333L74.3333 230.667L73.6667 230.333M80 230L80 231L84 231L80 230z"/>
<path style="fill:#fcad74; stroke:none;" d="M84 230L85 231L84 230M155.667 230.333L156.333 230.667L155.667 230.333z"/>
<path style="fill:#fb9448; stroke:none;" d="M202 230L203 231L202 230M205 230L206 231L205 230z"/>
<path style="fill:#fcad74; stroke:none;" d="M11 231L12 232L11 231z"/>
<path style="fill:#fb9448; stroke:none;" d="M75 231L76 232L75 231M85 231L88 233L88 232L85 231z"/>
<path style="fill:#fcad74; stroke:none;" d="M86.6667 231.333L87.3333 231.667L86.6667 231.333M145 231L146 232L145 231z"/>
<path style="fill:#fb9448; stroke:none;" d="M146 231L147 232L146 231z"/>
<path style="fill:#fcad74; stroke:none;" d="M154 231L155 232L154 231z"/>
<path style="fill:#fb9448; stroke:none;" d="M203.333 231.667L203.667 232.333L203.333 231.667M6 232L6 235L7 235L6 232z"/>
<path style="fill:#fcad74; stroke:none;" d="M10 232L11 233L10 232M76 232L76 233L95 242L95 241L76 232z"/>
<path style="fill:#fb9448; stroke:none;" d="M77.6667 232.333L78.3333 232.667L77.6667 232.333z"/>
<path style="fill:#fcad74; stroke:none;" d="M88 232L88 233L106 238L106 237L88 232z"/>
<path style="fill:#fdceac; stroke:none;" d="M90 232L90 233L94 234L94 233L90 232M137 233L137 234L142 233L137 233z"/>
<path style="fill:#fcad74; stroke:none;" d="M139 233L139 234L144 233L139 233z"/>
<path style="fill:#fb9448; stroke:none;" d="M144.667 232.333L145.333 232.667L144.667 232.333M148 234L151 232L148 234z"/>
<path style="fill:#fcad74; stroke:none;" d="M151.667 232.333L152.333 232.667L151.667 232.333z"/>
<path style="fill:#fb9448; stroke:none;" d="M206 232L207 233L206 232z"/>
<path style="fill:#fcad74; stroke:none;" d="M9 233L10 234L9 233z"/>
<path style="fill:#fb9448; stroke:none;" d="M79 233L80 234L79 233M89 233L90 234L89 233M142 233L143 234L142 233z"/>
<path style="fill:#fcad74; stroke:none;" d="M150 233L151 234L150 233z"/>
<path style="fill:#fb9448; stroke:none;" d="M204 233L214 252L215 252L216 248L204 233M207 233L207 235L209 235L207 233M81.6667 234.333L82.3333 234.667L81.6667 234.333M90.6667 234.333L91.3333 234.667L90.6667 234.333z"/>
<path style="fill:#fdceac; stroke:none;" d="M94 234L94 235L98 235L94 234M131 235L131 236L136 235L131 235z"/>
<path style="fill:#fcad74; stroke:none;" d="M133 235L133 236L138 235L133 235z"/>
<path style="fill:#fb9448; stroke:none;" d="M138 234L138 235L142 235L138 234M144 236L147 235L144 236z"/>
<path style="fill:#fcad74; stroke:none;" d="M147.667 234.333L148.333 234.667L147.667 234.333z"/>
<path style="fill:#fb9448; stroke:none;" d="M83 235L84 236L83 235M93 235L94 236L93 235z"/>
<path style="fill:#fdceac; stroke:none;" d="M98.6667 235.333L99.3333 235.667L98.6667 235.333z"/>
<path style="fill:#fb9448; stroke:none;" d="M136 235L137 236L136 235z"/>
<path style="fill:#fcad74; stroke:none;" d="M145.667 235.333L146.333 235.667L145.667 235.333M204 235L205 236L204 235z"/>
<path style="fill:#fb9448; stroke:none;" d="M85.6667 236.333L86.3333 236.667L85.6667 236.333M94 236L94 237L98 237L94 236z"/>
<path style="fill:#fdceac; stroke:none;" d="M100 236L100 237L112 238L100 236M119 237L119 238L130 237L119 237z"/>
<path style="fill:#fcad74; stroke:none;" d="M124 237L124 238L132 237L124 237z"/>
<path style="fill:#fb9448; stroke:none;" d="M132 236L132 237L136 237L132 236M140 238L143 237L140 238z"/>
<path style="fill:#fcad74; stroke:none;" d="M143.667 236.333L144.333 236.667L143.667 236.333M205 236L206 237L205 236z"/>
<path style="fill:#fb9448; stroke:none;" d="M209 236L210 237L209 236M87 237L88 238L87 237M99 237L100 238L99 237M130 237L131 238L130 237z"/>
<path style="fill:#fcad74; stroke:none;" d="M141.667 237.333L142.333 237.667L141.667 237.333M206.333 237.667L206.667 238.333L206.333 237.667z"/>
<path style="fill:#fb9448; stroke:none;" d="M89.6667 238.333L90.3333 238.667L89.6667 238.333M100 238L100 239L111 239L100 238z"/>
<path style="fill:#fcad74; stroke:none;" d="M111 238L111 239L121 239L121 238L111 238z"/>
<path style="fill:#fdceac; stroke:none;" d="M114 238L114 239L118 239L114 238z"/>
<path style="fill:#fb9448; stroke:none;" d="M121 238L121 239L130 239L121 238M134 239L134 240L138 239L134 239z"/>
<path style="fill:#fcad74; stroke:none;" d="M138.667 238.333L139.333 238.667L138.667 238.333z"/>
<path style="fill:#fb9448; stroke:none;" d="M210 238L211 239L210 238M91 239L92 240L91 239M113 239L114 240L113 239M118 239L119 240L118 239z"/>
<path style="fill:#fcad74; stroke:none;" d="M135.667 239.333L136.333 239.667L135.667 239.333M207 239L208 240L207 239z"/>
<path style="fill:#fb9448; stroke:none;" d="M211.333 239.667L211.667 240.333L211.333 239.667M93.6667 240.333L94.3333 240.667L93.6667 240.333M114 240L114 241L117 241L114 240M127 241L127 242L131 241L127 241z"/>
<path style="fill:#fcad74; stroke:none;" d="M131 240L131 241L134 241L131 240M212 240L212 246L213 246L212 240z"/>
<path style="fill:#fb9448; stroke:none;" d="M95.6667 241.333L96.3333 241.667L95.6667 241.333z"/>
<path style="fill:#fcad74; stroke:none;" d="M129.667 241.333L130.333 241.667L129.667 241.333M208.333 241.667L208.667 242.333L208.333 241.667M96 242L96 243L101 243L96 242z"/>
<path style="fill:#fb9448; stroke:none;" d="M101 242L102 243L101 242z"/>
<path style="fill:#fcad74; stroke:none;" d="M102 242L105 244L105 243L102 242z"/>
<path style="fill:#fb9448; stroke:none;" d="M103.667 242.333L104.333 242.667L103.667 242.333M105 243L105 244L121 243L105 243z"/>
<path style="fill:#fcad74; stroke:none;" d="M121 242L122 243L121 242z"/>
<path style="fill:#fb9448; stroke:none;" d="M122 242L123 243L122 242z"/>
<path style="fill:#fcad74; stroke:none;" d="M123 242L123 243L128 243L123 242M119.667 243.333L120.333 243.667L119.667 243.333M209 243L210 244L209 243M107 244L107 245L117 245L107 244M210 245L212 248L210 245M213 246L214 247L213 246M214 247L215 248L214 247M212.333 248.667L212.667 249.333L212.333 248.667z"/>
<path style="fill:#f8812a; stroke:none;" d="M214 249L215 252L216 252L216 249L214 249z"/>
<path style="fill:#fcad74; stroke:none;" d="M213.333 250.667L213.667 251.333L213.333 250.667z"/>
</svg>
