<svg version="1.1" id="Layer_1" xmlns="http://www.w3.org/2000/svg" xmlns:xlink="http://www.w3.org/1999/xlink" x="0px" y="0px"
	 width="100%" viewBox="0 0 1280 1252" enable-background="new 0 0 1280 1252" xml:space="preserve">
<path fill="#FEFFFF" opacity="1.000000" stroke="none" 
	d="
M1281.000000,30.000000 
	C1281.000000,437.545441 1281.000000,845.090881 1281.000000,1253.000000 
	C1222.639160,1253.000000 1164.277466,1253.000000 1105.268311,1252.656982 
	C1096.609253,1217.940186 1088.617310,1183.561890 1080.582153,1149.193726 
	C1058.186768,1053.401855 1035.731567,957.623718 1013.379456,861.821594 
	C992.390808,771.863342 971.539185,681.872986 950.560669,591.912354 
	C933.400635,518.326416 915.888367,444.821533 899.024231,371.168091 
	C889.102112,327.833862 876.260193,285.644806 855.418152,246.158112 
	C804.270508,149.255447 728.446472,79.116646 627.732666,35.914268 
	C623.702148,34.185322 619.644958,32.518574 615.600159,30.822855 
	C616.730225,29.974455 617.660889,29.872620 618.591553,29.872633 
	C796.901489,29.875343 975.211426,29.879141 1153.521362,29.899424 
	C1196.014282,29.904257 1238.507080,29.964983 1281.000000,30.000000 
M851.265747,205.276001 
	C855.306885,210.403458 857.054871,216.959396 863.377380,220.730118 
	C913.090881,250.379517 955.087036,288.638550 989.182556,335.416260 
	C1029.224243,390.351929 1054.681519,451.426025 1065.293457,518.620667 
	C1073.625488,571.379089 1071.968994,623.851807 1060.441040,675.988342 
	C1051.576660,716.078674 1037.039185,754.034546 1017.076477,789.919434 
	C1016.144470,791.594788 1014.909485,793.757690 1015.257568,795.385010 
	C1017.960083,808.019043 1021.017151,820.577271 1024.232056,834.301025 
	C1025.707642,832.088013 1026.601562,830.783936 1027.458862,829.456177 
	C1045.869751,800.942017 1060.409912,770.558960 1072.528198,738.859680 
	C1084.668579,707.102966 1090.776245,673.817078 1097.567261,640.831055 
	C1103.666870,611.203857 1106.255127,580.855835 1110.452026,550.834167 
	C1115.293579,516.200073 1120.221680,481.578064 1125.072876,446.945282 
	C1129.484497,415.451447 1133.815430,383.946320 1138.232300,352.453247 
	C1143.064697,317.996948 1147.968872,283.550720 1152.816162,249.096481 
	C1157.363403,216.776093 1161.893433,184.453262 1166.395142,152.126511 
	C1167.602783,143.453827 1168.679321,134.762833 1169.866211,125.697479 
	C1159.982178,124.370201 1150.677246,123.120689 1141.080200,121.831940 
	C1123.970093,244.099533 1106.951660,365.711792 1089.933228,487.324036 
	C1081.162354,452.617706 1069.652344,419.064514 1054.007568,386.948029 
	C1038.323853,354.751343 1019.130859,324.838928 996.424316,297.165283 
	C973.601135,269.349518 947.808350,244.613892 919.109924,222.923767 
	C890.724304,201.470154 860.239624,183.635513 826.801270,169.014435 
	C835.267822,181.529144 843.087830,193.088074 851.265747,205.276001 
z"/>
<path fill="#FEFFFF" opacity="1.000000" stroke="none" 
	d="
M1075.000000,1253.000000 
	C829.638611,1253.000000 584.277283,1253.000000 338.486206,1252.658325 
	C374.597870,1212.169189 411.116882,1172.001587 447.686401,1131.879883 
	C487.848938,1087.816406 528.079041,1043.814453 568.241516,999.750854 
	C614.575378,948.916382 660.892395,898.066467 707.168518,847.179443 
	C737.083435,814.283936 767.612122,781.913208 796.627869,748.240662 
	C851.004700,685.136719 885.154846,612.181152 899.331848,529.993652 
	C900.163025,525.174744 900.951294,520.348511 901.759521,515.525635 
	C907.354858,535.820068 912.094543,556.034729 916.812622,576.254395 
	C933.379883,647.254883 949.924438,718.260742 966.506958,789.257690 
	C982.554321,857.963501 998.658630,926.656006 1014.699463,995.363281 
	C1029.832886,1060.183960 1044.896118,1125.020996 1060.032837,1189.840820 
	C1064.952881,1210.909912 1070.007202,1231.947876 1075.000000,1253.000000 
M905.832092,919.362488 
	C876.176697,942.318115 844.078308,961.066772 809.474121,975.553772 
	C761.643127,995.578430 711.782715,1006.709839 660.004639,1007.659058 
	C637.280579,1008.075562 614.501648,1005.403320 591.743103,1004.219482 
	C589.873596,1004.122314 587.239197,1003.983093 586.198669,1005.060059 
	C578.742615,1012.776978 571.607361,1020.804016 563.952454,1029.190308 
	C565.321289,1029.551147 565.899658,1029.745483 566.493774,1029.854248 
	C603.859680,1036.702637 641.468689,1038.741943 679.381104,1036.066650 
	C713.243225,1033.677002 746.396179,1027.599609 778.823242,1017.669067 
	C821.772888,1004.516052 861.899170,985.373413 899.150208,960.235291 
	C925.471741,942.472839 949.681580,922.190674 971.758301,899.376038 
	C972.888367,898.208130 974.121399,896.115356 973.835510,894.764526 
	C971.611267,884.255798 969.025818,873.823425 966.303467,862.316833 
	C947.648804,883.465515 927.918640,902.163818 905.832092,919.362488 
z"/>
<path fill="#FEFFFF" opacity="1.000000" stroke="none" 
	d="
M299.000000,1253.000000 
	C199.706116,1253.000000 100.412231,1253.000000 1.000000,1253.000000 
	C1.000000,995.641785 1.000000,738.283508 1.300148,480.749634 
	C3.124271,504.864441 5.796371,529.058472 11.843995,552.634460 
	C20.315464,585.659668 29.606260,618.477051 38.738209,651.330017 
	C56.648983,715.765564 74.708473,780.159729 92.674011,844.580078 
	C102.911148,881.288147 113.069901,918.018066 123.296425,954.729126 
	C125.779037,963.641235 128.389923,972.517578 131.027435,981.708740 
	C140.563675,979.010315 149.619019,976.447937 158.902664,973.820923 
	C158.617935,972.582520 158.471619,971.803162 158.259155,971.042175 
	C137.543320,896.844055 116.799599,822.653748 96.134560,748.441528 
	C93.877197,740.334839 92.070976,732.102417 90.037537,723.953369 
	C90.019569,723.978333 89.982498,724.027527 90.298370,724.145630 
	C105.910645,744.910889 122.784752,764.213135 141.539612,781.742615 
	C222.451492,857.367920 318.128937,899.145142 428.814117,905.652100 
	C490.075684,909.253601 549.698303,900.467346 607.301392,879.177185 
	C623.034119,873.362366 638.289734,866.256653 654.016907,860.011230 
	C654.455017,860.439941 654.640564,860.600830 654.699097,861.070862 
	C651.894836,864.344604 649.228455,867.319031 646.538757,870.272217 
	C586.678040,935.995789 526.828064,1001.729187 466.948059,1067.435181 
	C412.560516,1127.114258 358.133270,1186.757080 303.762848,1246.451660 
	C301.956360,1248.435059 300.577911,1250.808472 299.000000,1253.000000 
M350.246216,926.247559 
	C390.234680,960.908020 434.786682,988.003418 484.205994,1007.018982 
	C495.514191,1011.370178 495.526672,1011.333191 503.751862,1002.177429 
	C508.019196,997.427429 512.292175,992.682495 516.870667,987.592834 
	C514.854980,986.813782 513.644958,986.288391 512.398438,985.872681 
	C473.303925,972.834351 436.780975,954.644531 403.149628,930.818848 
	C393.127625,923.718811 383.768036,915.655151 370.496552,915.638977 
	C368.375122,915.636414 366.243347,914.940186 364.135529,914.477356 
	C352.895172,912.009033 341.660889,909.512939 328.863342,906.680908 
	C336.545715,913.719055 343.128448,919.749756 350.246216,926.247559 
z"/>
<path fill="#3262AC" opacity="1.000000" stroke="none" 
	d="
M299.468628,1253.000000 
	C300.577911,1250.808472 301.956360,1248.435059 303.762848,1246.451660 
	C358.133270,1186.757080 412.560516,1127.114258 466.948059,1067.435181 
	C526.828064,1001.729187 586.678040,935.995789 646.538757,870.272217 
	C649.228455,867.319031 651.894836,864.344604 654.962158,860.970825 
	C655.801880,859.922424 656.251587,859.283386 656.701294,858.644287 
	C656.532104,858.497803 656.362976,858.351318 656.193787,858.204834 
	C655.383972,858.717651 654.574097,859.230469 653.764282,859.743286 
	C638.289734,866.256653 623.034119,873.362366 607.301392,879.177185 
	C549.698303,900.467346 490.075684,909.253601 428.814117,905.652100 
	C318.128937,899.145142 222.451492,857.367920 141.539612,781.742615 
	C122.784752,764.213135 105.910645,744.910889 90.240074,723.917480 
	C89.689651,723.637146 89.513397,723.703064 89.337143,723.768921 
	C89.576607,723.822083 89.816063,723.875183 90.055504,723.928345 
	C92.070976,732.102417 93.877197,740.334839 96.134560,748.441528 
	C116.799599,822.653748 137.543320,896.844055 158.259155,971.042175 
	C158.471619,971.803162 158.617935,972.582520 158.902664,973.820923 
	C149.619019,976.447937 140.563675,979.010315 131.027435,981.708740 
	C128.389923,972.517578 125.779037,963.641235 123.296425,954.729126 
	C113.069901,918.018066 102.911148,881.288147 92.674011,844.580078 
	C74.708473,780.159729 56.648983,715.765564 38.738209,651.330017 
	C29.606260,618.477051 20.315464,585.659668 11.843995,552.634460 
	C5.796371,529.058472 3.124271,504.864441 1.300148,480.286987 
	C1.000000,462.645782 1.000000,445.291534 1.317045,427.198242 
	C1.853096,423.138580 2.019037,419.813507 2.298984,416.498047 
	C7.317492,357.063446 23.091173,300.649536 50.442528,247.624115 
	C88.237976,174.350952 141.935486,115.413803 211.486069,71.121414 
	C269.728821,34.030270 333.273926,11.649845 401.900818,3.786507 
	C410.263824,2.828264 418.633453,1.927437 427.000000,1.000000 
	C711.666687,1.000000 996.333313,1.000000 1281.000000,1.000000 
	C1281.000000,10.405227 1281.000000,19.733955 1281.000000,29.531342 
	C1238.507080,29.964983 1196.014282,29.904257 1153.521362,29.899424 
	C975.211426,29.879141 796.901489,29.875343 618.591553,29.872633 
	C617.660889,29.872620 616.730225,29.974455 615.600159,30.822855 
	C619.644958,32.518574 623.702148,34.185322 627.732666,35.914268 
	C728.446472,79.116646 804.270508,149.255447 855.418152,246.158112 
	C876.260193,285.644806 889.102112,327.833862 899.024231,371.168091 
	C915.888367,444.821533 933.400635,518.326416 950.560669,591.912354 
	C971.539185,681.872986 992.390808,771.863342 1013.379456,861.821594 
	C1035.731567,957.623718 1058.186768,1053.401855 1080.582153,1149.193726 
	C1088.617310,1183.561890 1096.609253,1217.940186 1104.810425,1252.656982 
	C1095.312378,1253.000000 1085.624878,1253.000000 1075.468628,1253.000000 
	C1070.007202,1231.947876 1064.952881,1210.909912 1060.032837,1189.840820 
	C1044.896118,1125.020996 1029.832886,1060.183960 1014.699463,995.363281 
	C998.658630,926.656006 982.554321,857.963501 966.506958,789.257690 
	C949.924438,718.260742 933.379883,647.254883 916.812622,576.254395 
	C912.094543,556.034729 907.354858,535.820068 901.759521,515.525635 
	C900.951294,520.348511 900.163025,525.174744 899.331848,529.993652 
	C885.154846,612.181152 851.004700,685.136719 796.627869,748.240662 
	C767.612122,781.913208 737.083435,814.283936 707.168518,847.179443 
	C660.892395,898.066467 614.575378,948.916382 568.241516,999.750854 
	C528.079041,1043.814453 487.848938,1087.816406 447.686401,1131.879883 
	C411.116882,1172.001587 374.597870,1212.169189 338.028259,1252.658325 
	C325.312439,1253.000000 312.624878,1253.000000 299.468628,1253.000000 
M189.865723,122.347496 
	C182.522186,128.623276 174.975418,134.677902 167.867325,141.209900 
	C111.945595,192.599289 72.167542,254.424576 49.403229,326.882385 
	C27.490360,396.630066 24.073013,467.479462 38.729359,539.155579 
	C51.936623,603.744873 78.655685,662.196472 119.247444,714.091675 
	C171.893951,781.398438 238.954453,828.632507 320.001862,855.734741 
	C378.525940,875.305176 438.637665,881.408081 499.917572,874.714661 
	C551.393311,869.092163 600.304932,854.466553 646.307861,830.531494 
	C727.755920,788.154602 789.692078,726.111084 831.290649,644.360718 
	C867.244690,573.703125 881.614746,498.504456 875.343933,419.361053 
	C871.516113,371.049042 860.109680,324.626434 839.817627,280.708618 
	C790.878113,174.789337 712.119690,99.862854 603.233704,57.622440 
	C529.231201,28.914459 452.757721,22.790499 374.782166,37.394115 
	C306.363129,50.207947 244.992462,78.720848 189.865723,122.347496 
z"/>
<path fill="#FEFEFF" opacity="1.000000" stroke="none" 
	d="
M426.531342,1.000000 
	C418.633453,1.927437 410.263824,2.828264 401.900818,3.786507 
	C333.273926,11.649845 269.728821,34.030270 211.486069,71.121414 
	C141.935486,115.413803 88.237976,174.350952 50.442528,247.624115 
	C23.091173,300.649536 7.317492,357.063446 2.298984,416.498047 
	C2.019037,419.813507 1.853096,423.138580 1.317045,426.729614 
	C1.000000,285.072906 1.000000,143.145828 1.000000,1.000000 
	C142.687485,1.000000 284.375092,1.000000 426.531342,1.000000 
z"/>
<path fill="#3362AC" opacity="1.000000" stroke="none" 
	d="
M851.086792,204.961502 
	C843.087830,193.088074 835.267822,181.529144 826.801270,169.014435 
	C860.239624,183.635513 890.724304,201.470154 919.109924,222.923767 
	C947.808350,244.613892 973.601135,269.349518 996.424316,297.165283 
	C1019.130859,324.838928 1038.323853,354.751343 1054.007568,386.948029 
	C1069.652344,419.064514 1081.162354,452.617706 1089.933228,487.324036 
	C1106.951660,365.711792 1123.970093,244.099533 1141.080200,121.831940 
	C1150.677246,123.120689 1159.982178,124.370201 1169.866211,125.697479 
	C1168.679321,134.762833 1167.602783,143.453827 1166.395142,152.126511 
	C1161.893433,184.453262 1157.363403,216.776093 1152.816162,249.096481 
	C1147.968872,283.550720 1143.064697,317.996948 1138.232300,352.453247 
	C1133.815430,383.946320 1129.484497,415.451447 1125.072876,446.945282 
	C1120.221680,481.578064 1115.293579,516.200073 1110.452026,550.834167 
	C1106.255127,580.855835 1103.666870,611.203857 1097.567261,640.831055 
	C1090.776245,673.817078 1084.668579,707.102966 1072.528198,738.859680 
	C1060.409912,770.558960 1045.869751,800.942017 1027.458862,829.456177 
	C1026.601562,830.783936 1025.707642,832.088013 1024.232056,834.301025 
	C1021.017151,820.577271 1017.960083,808.019043 1015.257568,795.385010 
	C1014.909485,793.757690 1016.144470,791.594788 1017.076477,789.919434 
	C1037.039185,754.034546 1051.576660,716.078674 1060.441040,675.988342 
	C1071.968994,623.851807 1073.625488,571.379089 1065.293457,518.620667 
	C1054.681519,451.426025 1029.224243,390.351929 989.182556,335.416260 
	C955.087036,288.638550 913.090881,250.379517 863.377380,220.730118 
	C857.054871,216.959396 855.306885,210.403458 851.086792,204.961502 
z"/>
<path fill="#3362AC" opacity="1.000000" stroke="none" 
	d="
M906.112427,919.144653 
	C927.918640,902.163818 947.648804,883.465515 966.303467,862.316833 
	C969.025818,873.823425 971.611267,884.255798 973.835510,894.764526 
	C974.121399,896.115356 972.888367,898.208130 971.758301,899.376038 
	C949.681580,922.190674 925.471741,942.472839 899.150208,960.235291 
	C861.899170,985.373413 821.772888,1004.516052 778.823242,1017.669067 
	C746.396179,1027.599609 713.243225,1033.677002 679.381104,1036.066650 
	C641.468689,1038.741943 603.859680,1036.702637 566.493774,1029.854248 
	C565.899658,1029.745483 565.321289,1029.551147 563.952454,1029.190308 
	C571.607361,1020.804016 578.742615,1012.776978 586.198669,1005.060059 
	C587.239197,1003.983093 589.873596,1004.122314 591.743103,1004.219482 
	C614.501648,1005.403320 637.280579,1008.075562 660.004639,1007.659058 
	C711.782715,1006.709839 761.643127,995.578430 809.474121,975.553772 
	C844.078308,961.066772 876.176697,942.318115 906.112427,919.144653 
z"/>
<path fill="#3363AC" opacity="1.000000" stroke="none" 
	d="
M349.978699,926.014038 
	C343.128448,919.749756 336.545715,913.719055 328.863342,906.680908 
	C341.660889,909.512939 352.895172,912.009033 364.135529,914.477356 
	C366.243347,914.940186 368.375122,915.636414 370.496552,915.638977 
	C383.768036,915.655151 393.127625,923.718811 403.149628,930.818848 
	C436.780975,954.644531 473.303925,972.834351 512.398438,985.872681 
	C513.644958,986.288391 514.854980,986.813782 516.870667,987.592834 
	C512.292175,992.682495 508.019196,997.427429 503.751862,1002.177429 
	C495.526672,1011.333191 495.514191,1011.370178 484.205994,1007.018982 
	C434.786682,988.003418 390.234680,960.908020 349.978699,926.014038 
z"/>
<path fill="#FEFEFF" opacity="1.000000" stroke="none" 
	d="
M190.135986,122.114349 
	C244.992462,78.720848 306.363129,50.207947 374.782166,37.394115 
	C452.757721,22.790499 529.231201,28.914459 603.233704,57.622440 
	C712.119690,99.862854 790.878113,174.789337 839.817627,280.708618 
	C860.109680,324.626434 871.516113,371.049042 875.343933,419.361053 
	C881.614746,498.504456 867.244690,573.703125 831.290649,644.360718 
	C789.692078,726.111084 727.755920,788.154602 646.307861,830.531494 
	C600.304932,854.466553 551.393311,869.092163 499.917572,874.714661 
	C438.637665,881.408081 378.525940,875.305176 320.001862,855.734741 
	C238.954453,828.632507 171.893951,781.398438 119.247444,714.091675 
	C78.655685,662.196472 51.936623,603.744873 38.729359,539.155579 
	C24.073013,467.479462 27.490360,396.630066 49.403229,326.882385 
	C72.167542,254.424576 111.945595,192.599289 167.867325,141.209900 
	C174.975418,134.677902 182.522186,128.623276 190.135986,122.114349 
M603.779297,352.385101 
	C602.840149,352.146576 601.901001,351.908051 600.140564,351.435974 
	C598.443848,351.511902 596.747192,351.587830 594.295227,351.367950 
	C590.326416,351.890625 592.154724,355.000641 592.151428,356.861969 
	C592.050293,414.167511 592.071716,471.473267 592.074341,528.778992 
	C592.074463,531.054626 592.074402,533.330200 592.074402,535.799133 
	C594.987549,535.313538 597.560913,534.884583 600.608154,534.582764 
	C600.608154,534.582764 601.077332,534.439514 601.511414,534.581421 
	C601.511414,534.581421 601.940491,534.424988 602.415100,534.570007 
	C602.415100,534.570007 602.901611,534.471863 603.523010,534.785278 
	C605.048401,535.083923 606.573730,535.382568 608.343445,535.729065 
	C608.343445,534.456909 608.343445,533.634583 608.343384,532.812256 
	C608.337769,488.505829 608.307983,444.199341 608.380310,399.893036 
	C608.385193,396.906891 609.159790,393.921997 609.576355,390.936493 
	C611.989868,392.468750 614.403320,394.000977 617.104370,396.096710 
	C647.228638,426.235962 677.389404,456.338867 707.461731,486.529877 
	C722.377563,501.504608 737.404724,516.387024 751.777954,531.871521 
	C755.703613,536.100647 759.223694,537.102478 764.439758,535.951355 
	C764.439758,474.523804 764.439758,413.198212 764.439758,351.756805 
	C760.403748,352.230042 756.681458,352.666504 752.313477,352.735413 
	C750.868713,352.443237 749.424011,352.151062 747.342041,351.966675 
	C747.369263,352.536102 747.396484,353.105530 747.134766,354.476746 
	C747.091125,386.702637 747.023499,418.928528 747.015869,451.154419 
	C747.012878,463.773804 747.144409,476.393188 746.790710,489.617432 
	C745.583191,489.185791 744.054443,489.085999 743.215576,488.273651 
	C725.547729,471.165100 707.971130,453.962372 690.349060,436.806488 
	C669.872620,416.871735 649.369568,396.964203 628.591309,376.455048 
	C620.403687,368.622009 612.216064,360.788971 604.005066,353.003540 
	C604.005066,353.003540 604.045654,352.968628 603.779297,352.385101 
M264.064484,352.088898 
	C263.922119,352.895966 263.655304,353.703003 263.655121,354.510101 
	C263.641266,413.168030 263.640503,471.825958 263.706757,530.483826 
	C263.708221,531.777954 264.493958,533.071106 265.685242,534.659119 
	C305.371857,534.659119 345.058472,534.659119 384.031982,534.659119 
	C384.031982,528.962158 384.031982,524.166199 384.031982,519.569092 
	C353.297089,520.579651 321.967468,521.609741 290.487427,522.644836 
	C290.487427,495.478271 290.487427,469.455383 290.487427,443.988647 
	C319.139893,443.988647 347.364471,443.988647 375.365875,443.988647 
	C375.365875,439.851501 375.365875,435.377014 375.365875,431.500793 
	C347.258636,431.500793 318.901428,431.500793 290.418915,431.500793 
	C290.418915,409.337433 290.418915,386.951141 290.418915,363.255219 
	C321.475525,364.517639 352.115723,365.763123 382.290497,366.989685 
	C382.290497,361.948669 382.290497,356.961517 382.290497,351.621796 
	C381.422058,351.559540 380.137268,351.387665 378.852386,351.386902 
	C342.024506,351.364685 305.196594,351.356140 268.368713,351.368042 
	C267.222412,351.368408 266.076141,351.609558 264.064484,352.088898 
M739.471680,165.033585 
	C733.278564,159.225113 726.858459,153.637329 720.946228,147.555801 
	C712.334961,138.697968 702.410156,134.649796 689.779480,133.584167 
	C637.172302,129.145828 585.262329,132.487732 534.197876,145.774582 
	C435.264252,171.516907 354.358612,225.071472 290.859222,305.072479 
	C290.133636,305.986603 289.627167,307.074646 288.541382,308.870483 
	C300.703400,308.870483 311.844330,308.969055 322.979156,308.752472 
	C324.462128,308.723633 326.174133,307.352570 327.340576,306.169678 
	C341.117737,292.198517 353.838074,277.005676 368.696930,264.312164 
	C429.435760,212.424622 499.464233,179.941437 578.335022,166.635971 
	C621.888306,159.288559 665.475769,158.907730 709.106812,165.583298 
	C721.354187,167.457169 733.503784,169.970581 745.698242,172.190628 
	C746.008240,171.891830 746.318237,171.593048 746.628296,171.294266 
	C744.405273,169.378281 742.182251,167.462296 739.471680,165.033585 
M511.319061,439.731232 
	C524.311829,435.906464 536.099976,430.067963 545.319885,419.774689 
	C559.822144,403.584106 562.409607,369.120514 531.377380,358.169800 
	C521.015930,354.513458 509.690887,352.274963 498.722290,351.909180 
	C470.763702,350.976807 442.757690,351.463898 414.770630,351.403778 
	C414.303467,351.402771 413.835754,351.664948 413.192932,351.856598 
	C413.192932,413.203125 413.192932,474.532471 413.192932,535.348267 
	C422.106079,535.348267 430.634460,535.348267 439.699402,535.348267 
	C439.699402,506.079773 439.699402,476.686737 439.699402,446.846985 
	C446.364777,446.846985 452.506409,447.056091 458.624603,446.768097 
	C462.257904,446.597076 464.886627,447.560974 467.300812,450.365967 
	C490.104431,476.861237 513.119995,503.175201 535.767334,529.802673 
	C539.248474,533.895691 541.905640,537.199036 547.891541,535.121704 
	C550.293152,534.288208 553.174927,534.785828 555.838684,534.770508 
	C561.815369,534.736023 567.792358,534.759705 574.272217,534.759705 
	C547.795227,504.473450 521.287781,474.152405 494.500916,443.511688 
	C500.481750,442.202637 505.517181,441.100555 511.319061,439.731232 
M231.931091,381.499176 
	C232.832687,380.588135 234.233307,379.823059 234.549881,378.740875 
	C235.949692,373.955750 236.827530,369.013763 238.312469,364.259155 
	C239.303864,361.084930 238.345978,359.878479 235.356262,358.868195 
	C210.128555,350.343323 184.407043,345.873230 157.711807,348.940186 
	C132.991470,351.780304 110.261909,359.589172 91.517235,376.564880 
	C70.471207,395.624817 62.434307,419.933136 63.045357,447.861542 
	C63.874538,485.759766 85.329048,516.671448 120.729286,530.041748 
	C141.582336,537.917725 163.192734,539.350281 185.166229,537.489685 
	C200.684402,536.175659 215.896255,533.539917 229.878174,526.178223 
	C231.392899,525.380676 233.489868,524.105164 233.735260,522.762329 
	C234.663284,517.683899 234.939270,512.486450 235.541931,506.514069 
	C214.691864,521.517456 192.239365,528.190430 167.678513,527.070129 
	C140.536911,525.832153 118.719872,514.526184 105.039070,490.499451 
	C91.375252,466.502533 90.197456,440.749542 97.421005,414.550751 
	C103.121773,393.874939 115.087936,377.645355 134.459915,367.820465 
	C166.198273,351.723755 203.555481,357.048187 231.931091,381.499176 
M196.332031,626.216064 
	C197.009964,632.503113 197.525772,638.812622 198.391220,645.073792 
	C206.152664,701.223999 223.545212,754.195801 251.165619,803.729980 
	C252.594238,806.292053 255.113388,808.696289 257.708405,810.077393 
	C267.395294,815.232910 277.281677,820.022827 287.183716,824.760681 
	C291.864014,827.000061 296.749146,828.811340 301.541473,830.816528 
	C248.378128,753.527283 222.255371,668.505371 223.688507,574.432129 
	C213.895187,574.432129 204.397842,574.432129 193.875626,574.432129 
	C194.680862,591.444092 195.481949,608.368347 196.332031,626.216064 
z"/>
<path fill="#FEFFFF" opacity="1.000000" stroke="none" 
	d="
M654.016907,860.011230 
	C654.574097,859.230469 655.383972,858.717651 656.193787,858.204834 
	C656.362976,858.351318 656.532104,858.497803 656.701294,858.644287 
	C656.251587,859.283386 655.801880,859.922424 655.089111,860.661621 
	C654.640564,860.600830 654.455017,860.439941 654.016907,860.011230 
z"/>
<path fill="#FEFFFF" opacity="1.000000" stroke="none" 
	d="
M90.037537,723.953308 
	C89.816063,723.875183 89.576607,723.822083 89.337143,723.768921 
	C89.513397,723.703064 89.689651,723.637146 89.924210,723.799377 
	C89.982498,724.027527 90.019569,723.978333 90.037537,723.953308 
z"/>
<path fill="#3363AC" opacity="1.000000" stroke="none" 
	d="
M739.715454,165.289948 
	C742.182251,167.462296 744.405273,169.378281 746.628296,171.294266 
	C746.318237,171.593048 746.008240,171.891830 745.698242,172.190628 
	C733.503784,169.970581 721.354187,167.457169 709.106812,165.583298 
	C665.475769,158.907730 621.888306,159.288559 578.335022,166.635971 
	C499.464233,179.941437 429.435760,212.424622 368.696930,264.312164 
	C353.838074,277.005676 341.117737,292.198517 327.340576,306.169678 
	C326.174133,307.352570 324.462128,308.723633 322.979156,308.752472 
	C311.844330,308.969055 300.703400,308.870483 288.541382,308.870483 
	C289.627167,307.074646 290.133636,305.986603 290.859222,305.072479 
	C354.358612,225.071472 435.264252,171.516907 534.197876,145.774582 
	C585.262329,132.487732 637.172302,129.145828 689.779480,133.584167 
	C702.410156,134.649796 712.334961,138.697968 720.946228,147.555801 
	C726.858459,153.637329 733.278564,159.225113 739.715454,165.289948 
z"/>
<path fill="#3463AC" opacity="1.000000" stroke="none" 
	d="
M510.935822,439.864838 
	C505.517181,441.100555 500.481750,442.202637 494.500916,443.511688 
	C521.287781,474.152405 547.795227,504.473450 574.272217,534.759705 
	C567.792358,534.759705 561.815369,534.736023 555.838684,534.770508 
	C553.174927,534.785828 550.293152,534.288208 547.891541,535.121704 
	C541.905640,537.199036 539.248474,533.895691 535.767334,529.802673 
	C513.119995,503.175201 490.104431,476.861237 467.300812,450.365967 
	C464.886627,447.560974 462.257904,446.597076 458.624603,446.768097 
	C452.506409,447.056091 446.364777,446.846985 439.699402,446.846985 
	C439.699402,476.686737 439.699402,506.079773 439.699402,535.348267 
	C430.634460,535.348267 422.106079,535.348267 413.192932,535.348267 
	C413.192932,474.532471 413.192932,413.203125 413.192932,351.856598 
	C413.835754,351.664948 414.303467,351.402771 414.770630,351.403778 
	C442.757690,351.463898 470.763702,350.976807 498.722290,351.909180 
	C509.690887,352.274963 521.015930,354.513458 531.377380,358.169800 
	C562.409607,369.120514 559.822144,403.584106 545.319885,419.774689 
	C536.099976,430.067963 524.311829,435.906464 510.935822,439.864838 
M437.782135,391.500000 
	C437.782135,406.215149 437.782135,420.930298 437.782135,436.683838 
	C453.487823,436.149872 468.298706,436.242950 482.978577,434.901886 
	C490.608795,434.204865 498.394989,431.841736 505.426819,428.700378 
	C518.359070,422.923035 526.059143,412.506439 526.988586,398.113617 
	C528.218506,379.067230 516.544922,365.482361 495.877136,362.920746 
	C484.388763,361.496857 472.651825,362.014740 461.024292,361.799500 
	C453.428558,361.658875 445.828094,361.772949 437.781952,361.772949 
	C437.781952,372.264160 437.781952,381.382080 437.782135,391.500000 
z"/>
<path fill="#3464AC" opacity="1.000000" stroke="none" 
	d="
M602.901611,534.471863 
	C602.901611,534.471863 602.415100,534.570007 602.133911,534.265442 
	C601.594238,534.120422 601.335754,534.279968 601.077332,534.439514 
	C601.077332,534.439514 600.608154,534.582764 600.142700,534.160278 
	C597.958984,533.309387 596.240845,532.880920 594.241394,532.382385 
	C594.144897,530.912598 593.966003,529.456421 593.965637,528.000183 
	C593.951477,471.148407 593.942749,414.296661 593.999695,357.444946 
	C594.001648,355.517517 594.684814,353.590790 595.050476,351.663757 
	C596.747192,351.587830 598.443848,351.511902 600.680664,351.824463 
	C602.162415,352.464844 603.104065,352.716736 604.045654,352.968628 
	C604.045654,352.968628 604.005066,353.003540 604.042236,353.327759 
	C611.395752,361.214813 618.687134,368.802368 626.076538,376.293182 
	C626.662354,376.887024 627.928284,376.810059 628.878113,377.044830 
	C649.369568,396.964203 669.872620,416.871735 690.349060,436.806488 
	C707.971130,453.962372 725.547729,471.165100 743.215576,488.273651 
	C744.054443,489.085999 745.583191,489.185791 747.311218,489.416931 
	C748.221924,487.699310 748.950806,486.182739 748.953064,484.665131 
	C749.014771,442.981018 749.047241,401.296631 748.918091,359.612854 
	C748.907654,356.244446 749.548950,354.001648 752.959229,353.102936 
	C756.681458,352.666504 760.403748,352.230042 764.439758,351.756805 
	C764.439758,413.198212 764.439758,474.523804 764.439758,535.951355 
	C759.223694,537.102478 755.703613,536.100647 751.777954,531.871521 
	C737.404724,516.387024 722.377563,501.504608 707.461731,486.529877 
	C677.389404,456.338867 647.228638,426.235962 616.920349,395.438751 
	C614.596375,392.870178 612.625427,390.661011 610.185791,389.279663 
	C609.642761,388.972107 607.450073,391.577850 606.009705,393.327118 
	C606.000854,438.350006 606.012634,482.888092 605.950500,527.426025 
	C605.947876,529.294128 605.256775,531.161377 604.558044,533.081726 
	C603.786987,533.580200 603.344299,534.026062 602.901611,534.471863 
z"/>
<path fill="#3463AD" opacity="1.000000" stroke="none" 
	d="
M264.929871,351.738464 
	C266.076141,351.609558 267.222412,351.368408 268.368713,351.368042 
	C305.196594,351.356140 342.024506,351.364685 378.852386,351.386902 
	C380.137268,351.387665 381.422058,351.559540 382.290497,351.621796 
	C382.290497,356.961517 382.290497,361.948669 382.290497,366.989685 
	C352.115723,365.763123 321.475525,364.517639 290.418915,363.255219 
	C290.418915,386.951141 290.418915,409.337433 290.418915,431.500793 
	C318.901428,431.500793 347.258636,431.500793 375.365875,431.500793 
	C375.365875,435.377014 375.365875,439.851501 375.365875,443.988647 
	C347.364471,443.988647 319.139893,443.988647 290.487427,443.988647 
	C290.487427,469.455383 290.487427,495.478271 290.487427,522.644836 
	C321.967468,521.609741 353.297089,520.579651 384.031982,519.569092 
	C384.031982,524.166199 384.031982,528.962158 384.031982,534.659119 
	C345.058472,534.659119 305.371857,534.659119 265.333191,534.018494 
	C264.964081,472.831390 264.946991,412.284943 264.929871,351.738464 
z"/>
<path fill="#3463AC" opacity="1.000000" stroke="none" 
	d="
M231.624420,381.323975 
	C203.555481,357.048187 166.198273,351.723755 134.459915,367.820465 
	C115.087936,377.645355 103.121773,393.874939 97.421005,414.550751 
	C90.197456,440.749542 91.375252,466.502533 105.039070,490.499451 
	C118.719872,514.526184 140.536911,525.832153 167.678513,527.070129 
	C192.239365,528.190430 214.691864,521.517456 235.541931,506.514069 
	C234.939270,512.486450 234.663284,517.683899 233.735260,522.762329 
	C233.489868,524.105164 231.392899,525.380676 229.878174,526.178223 
	C215.896255,533.539917 200.684402,536.175659 185.166229,537.489685 
	C163.192734,539.350281 141.582336,537.917725 120.729286,530.041748 
	C85.329048,516.671448 63.874538,485.759766 63.045357,447.861542 
	C62.434307,419.933136 70.471207,395.624817 91.517235,376.564880 
	C110.261909,359.589172 132.991470,351.780304 157.711807,348.940186 
	C184.407043,345.873230 210.128555,350.343323 235.356262,358.868195 
	C238.345978,359.878479 239.303864,361.084930 238.312469,364.259155 
	C236.827530,369.013763 235.949692,373.955750 234.549881,378.740875 
	C234.233307,379.823059 232.832687,380.588135 231.624420,381.323975 
z"/>
<path fill="#3363AC" opacity="1.000000" stroke="none" 
	d="
M196.307526,625.754395 
	C195.481949,608.368347 194.680862,591.444092 193.875626,574.432129 
	C204.397842,574.432129 213.895187,574.432129 223.688507,574.432129 
	C222.255371,668.505371 248.378128,753.527283 301.541473,830.816528 
	C296.749146,828.811340 291.864014,827.000061 287.183716,824.760681 
	C277.281677,820.022827 267.395294,815.232910 257.708405,810.077393 
	C255.113388,808.696289 252.594238,806.292053 251.165619,803.729980 
	C223.545212,754.195801 206.152664,701.223999 198.391220,645.073792 
	C197.525772,638.812622 197.009964,632.503113 196.307526,625.754395 
z"/>
<path fill="#4B73AE" opacity="1.000000" stroke="none" 
	d="
M594.672852,351.515869 
	C594.684814,353.590790 594.001648,355.517517 593.999695,357.444946 
	C593.942749,414.296661 593.951477,471.148407 593.965637,528.000183 
	C593.966003,529.456421 594.144897,530.912598 594.241394,532.382385 
	C596.240845,532.880920 597.958984,533.309387 599.905762,534.096741 
	C597.560913,534.884583 594.987549,535.313538 592.074402,535.799133 
	C592.074402,533.330200 592.074463,531.054626 592.074341,528.778992 
	C592.071716,471.473267 592.050293,414.167511 592.151428,356.861969 
	C592.154724,355.000641 590.326416,351.890625 594.672852,351.515869 
z"/>
<path fill="#4B73AE" opacity="1.000000" stroke="none" 
	d="
M606.016968,392.842255 
	C607.450073,391.577850 609.642761,388.972107 610.185791,389.279663 
	C612.625427,390.661011 614.596375,392.870178 616.776611,395.157013 
	C614.403320,394.000977 611.989868,392.468750 609.576416,390.936493 
	C609.159790,393.921997 608.385193,396.906891 608.380310,399.893036 
	C608.307983,444.199341 608.337769,488.505829 608.343384,532.812256 
	C608.343445,533.634583 608.343445,534.456909 608.343445,535.729065 
	C606.573730,535.382568 605.048401,535.083923 603.212280,534.628540 
	C603.344299,534.026062 603.786987,533.580200 604.826599,533.326904 
	C605.944641,531.918640 606.918030,530.318787 606.921082,528.717041 
	C607.003723,485.161377 606.998230,441.605530 606.946228,398.049774 
	C606.944153,396.313538 606.340332,394.578064 606.016968,392.842255 
z"/>
<path fill="#1B52A5" opacity="1.000000" stroke="none" 
	d="
M752.636353,352.919189 
	C749.548950,354.001648 748.907654,356.244446 748.918091,359.612854 
	C749.047241,401.296631 749.014771,442.981018 748.953064,484.665131 
	C748.950806,486.182739 748.221924,487.699310 747.523193,489.114502 
	C747.144409,476.393188 747.012878,463.773804 747.015869,451.154419 
	C747.023499,418.928528 747.091125,386.702637 747.471802,353.636658 
	C747.865662,352.483978 747.922485,352.171417 747.979248,351.858887 
	C749.424011,352.151062 750.868713,352.443237 752.636353,352.919189 
z"/>
<path fill="#124D9B" opacity="1.000000" stroke="none" 
	d="
M264.497192,351.913696 
	C264.946991,412.284943 264.964081,472.831390 264.947510,533.871338 
	C264.493958,533.071106 263.708221,531.777954 263.706757,530.483826 
	C263.640503,471.825958 263.641266,413.168030 263.655121,354.510101 
	C263.655304,353.703003 263.922119,352.895966 264.497192,351.913696 
z"/>
<path fill="#4B73AE" opacity="1.000000" stroke="none" 
	d="
M628.734741,376.749939 
	C627.928284,376.810059 626.662354,376.887024 626.076538,376.293182 
	C618.687134,368.802368 611.395752,361.214813 604.053955,353.303955 
	C612.216064,360.788971 620.403687,368.622009 628.734741,376.749939 
z"/>
<path fill="#4B73AE" opacity="1.000000" stroke="none" 
	d="
M603.912476,352.676880 
	C603.104065,352.716736 602.162415,352.464844 601.091309,351.941223 
	C601.901001,351.908051 602.840149,352.146576 603.912476,352.676880 
z"/>
<path fill="#4B73AE" opacity="1.000000" stroke="none" 
	d="
M601.294373,534.510498 
	C601.335754,534.279968 601.594238,534.120422 601.896606,534.192932 
	C601.940491,534.424988 601.511414,534.581421 601.294373,534.510498 
z"/>
<path fill="#3464AC" opacity="1.000000" stroke="none" 
	d="
M747.660645,351.912781 
	C747.922485,352.171417 747.865662,352.483978 747.616272,353.235748 
	C747.396484,353.105530 747.369263,352.536102 747.660645,351.912781 
z"/>
<path fill="#FDFEFE" opacity="1.000000" stroke="none" 
	d="
M437.782043,391.000000 
	C437.781952,381.382080 437.781952,372.264160 437.781952,361.772949 
	C445.828094,361.772949 453.428558,361.658875 461.024292,361.799500 
	C472.651825,362.014740 484.388763,361.496857 495.877136,362.920746 
	C516.544922,365.482361 528.218506,379.067230 526.988586,398.113617 
	C526.059143,412.506439 518.359070,422.923035 505.426819,428.700378 
	C498.394989,431.841736 490.608795,434.204865 482.978577,434.901886 
	C468.298706,436.242950 453.487823,436.149872 437.782135,436.683838 
	C437.782135,420.930298 437.782135,406.215149 437.782043,391.000000 
z"/>
<path fill="#1B52A5" opacity="1.000000" stroke="none" 
	d="
M606.009766,393.327118 
	C606.340332,394.578064 606.944153,396.313538 606.946228,398.049774 
	C606.998230,441.605530 607.003723,485.161377 606.921082,528.717041 
	C606.918030,530.318787 605.944641,531.918640 605.154968,533.274231 
	C605.256775,531.161377 605.947876,529.294128 605.950500,527.426025 
	C606.012634,482.888092 606.000854,438.350006 606.009766,393.327118 
z"/>
</svg>