<svg version="1.1" id="Layer_1" xmlns="http://www.w3.org/2000/svg" xmlns:xlink="http://www.w3.org/1999/xlink" x="0px" y="0px"
	 width="100%" viewBox="0 0 443 450" enable-background="new 0 0 443 450" xml:space="preserve">
<path fill="#000000" opacity="1.000000" stroke="none" 
	d="
M1.000000,117.000000 
	C1.000000,78.000015 1.000000,39.500031 1.000000,1.000036 
	C148.666580,1.000024 296.333160,1.000024 443.999817,1.000012 
	C443.999878,150.999863 443.999878,300.999725 443.999939,450.999695 
	C296.333527,450.999786 148.667068,450.999786 1.000303,450.999878 
	C1.000000,339.833344 1.000000,228.666672 1.000000,117.000000 
M223.650162,18.998560 
	C296.008820,18.998560 368.367493,18.998560 440.733582,18.998560 
	C440.733582,16.694548 440.733582,14.097400 440.733582,11.026879 
	C438.681335,11.026879 436.889526,11.038026 435.097900,11.025253 
	C387.464142,10.685661 339.830383,10.077653 292.196625,10.075899 
	C243.428894,10.074104 194.661407,10.716969 145.893234,10.964111 
	C132.581680,11.031569 119.735611,13.982030 107.479004,18.440104 
	C72.508057,31.160009 45.174278,53.464680 25.751738,85.481354 
	C4.945873,119.778343 -1.684371,156.806610 5.351405,195.872360 
	C9.302797,217.812225 15.588814,239.370270 21.544815,260.900665 
	C28.935848,287.618561 37.114235,314.118042 44.864563,340.737488 
	C47.258121,348.958466 47.631474,349.298859 56.186802,347.172272 
	C46.861423,315.655090 37.539951,284.151123 28.218481,252.647171 
	C51.109837,286.798431 82.548889,309.016846 121.964531,318.656219 
	C161.429077,328.307495 199.753357,323.409424 235.825409,303.457031 
	C235.691010,304.427094 235.446152,305.002869 235.044037,305.430908 
	C224.258759,316.911346 213.452713,328.372284 202.659714,339.845490 
	C186.914719,356.582764 171.223465,373.370880 155.422638,390.055237 
	C141.201508,405.071564 126.839859,419.954742 112.602203,434.955505 
	C110.402245,437.273376 108.534874,439.906891 106.023079,442.998199 
	C109.820419,442.998199 112.815979,443.279724 115.722954,442.893921 
	C117.502220,442.657745 119.585495,441.809479 120.781464,440.532776 
	C132.048981,428.505188 143.112595,416.286987 154.319626,404.202209 
	C164.319443,393.419220 174.400162,382.710785 184.491470,372.013123 
	C201.814194,353.649567 219.339935,335.474213 236.464844,316.928406 
	C250.660965,301.554443 264.731567,286.039337 278.250610,270.072662 
	C291.140656,254.848877 301.320648,237.702881 307.386749,218.688644 
	C311.554810,205.623779 313.623810,191.889252 316.254730,180.135315 
	C335.228119,266.336426 354.648254,354.567383 374.038635,442.663086 
	C377.668976,442.663086 380.734650,442.663086 383.893768,442.663086 
	C377.512390,413.813354 371.264587,385.293610 364.886017,356.803192 
	C357.650146,324.483582 350.263489,292.197754 343.004059,259.883392 
	C334.634735,222.628586 326.506927,185.318497 317.929565,148.111893 
	C313.508209,128.933167 306.678253,110.573990 297.628601,93.015793 
	C292.993378,84.022575 286.147644,78.817909 276.724152,77.123550 
	C282.723755,88.201195 289.147766,98.984459 294.534973,110.262917 
	C302.535400,127.012199 306.224365,145.010254 306.842010,163.476135 
	C307.115387,171.650192 305.912598,179.908951 304.964600,188.081070 
	C303.078644,204.338730 297.733337,219.639221 290.267883,234.049301 
	C279.893616,254.074097 265.271515,270.657776 247.259308,284.301208 
	C222.117752,303.344818 193.531097,312.542389 162.333115,313.849091 
	C154.335251,314.184113 146.079834,313.501617 138.261398,311.812042 
	C125.874611,309.135254 113.254387,306.419434 101.629135,301.571198 
	C77.494698,291.505981 57.647400,275.436829 41.853935,254.415237 
	C22.939413,229.239395 13.281760,200.774796 12.211514,169.546646 
	C11.865515,159.450943 13.335210,149.154465 15.110192,139.151382 
	C19.857994,112.394707 31.751434,88.864014 49.891861,68.755196 
	C68.296501,48.353485 90.588493,33.857220 117.143402,25.797623 
	C139.136108,19.122679 161.349136,17.239611 183.838058,21.193203 
	C205.501068,25.001593 225.585510,33.199825 243.586288,46.087082 
	C247.576828,48.944031 251.163910,52.709305 255.566422,54.551743 
	C260.225586,56.501587 265.636017,56.656151 270.718323,57.594868 
	C253.612335,39.138687 232.637909,26.809946 209.222488,17.781281 
	C213.711655,18.184591 218.200821,18.587904 223.650162,18.998560 
M111.954727,111.433708 
	C113.448242,112.597282 114.941765,113.760857 116.588203,115.043564 
	C128.422531,102.371002 141.260025,91.750954 156.018250,83.270111 
	C174.574463,72.606758 194.530182,66.727386 215.585770,65.200798 
	C232.357635,63.984791 249.073959,65.280998 265.577484,69.831764 
	C289.481659,76.423195 310.317841,88.144073 328.321747,104.919769 
	C344.356598,119.860764 355.763153,138.099899 363.655151,158.418457 
	C371.010010,177.354065 375.196747,197.059814 374.909821,217.472549 
	C374.806061,224.850754 373.976349,232.257736 372.943024,239.576065 
	C370.516357,256.761871 364.894836,273.011597 356.212219,287.955322 
	C352.676208,294.041199 354.982910,298.631134 356.489655,304.469971 
	C357.579071,303.613983 358.220032,303.323059 358.543640,302.825684 
	C375.064026,277.432892 382.570831,248.935532 386.933929,219.426666 
	C388.662048,207.738998 389.748535,195.955002 391.054565,184.206787 
	C392.415649,171.963089 393.726837,159.713516 394.987213,147.459045 
	C395.761871,139.926743 396.331940,132.373306 397.115784,124.842041 
	C398.356781,112.918236 399.694305,101.004456 401.002472,89.087692 
	C401.575653,83.866425 402.244507,78.654778 402.750031,73.427170 
	C403.520386,65.461182 404.186615,57.485138 404.894592,49.541122 
	C395.518494,48.150406 395.246796,48.446346 394.962097,57.184399 
	C394.811890,61.794548 394.387421,66.403885 393.896362,70.993202 
	C392.656006,82.584969 391.187469,94.153320 390.041901,105.753906 
	C389.167389,114.609726 388.772339,123.512260 387.942322,132.373245 
	C386.378174,149.071960 384.670532,165.757370 382.963348,182.442245 
	C382.835663,183.690109 382.235840,184.889664 381.587830,186.971603 
	C380.899261,184.024582 380.421783,182.133743 380.017426,180.227386 
	C373.761322,150.733780 360.970886,124.656265 339.785522,102.919777 
	C325.220123,87.975441 308.559692,76.123009 289.257019,68.044022 
	C266.058044,58.334267 242.120102,53.976299 216.830978,55.779289 
	C201.450531,56.875843 186.695847,59.844891 172.327682,65.055542 
	C148.703766,73.622810 128.665390,87.630554 111.684296,106.036858 
	C110.830482,106.962334 111.477013,109.271973 111.954727,111.433708 
M306.028198,341.510162 
	C302.943237,343.358521 299.935242,345.352448 296.760284,347.030579 
	C281.167511,355.272247 264.746216,360.634888 247.182190,363.280853 
	C232.108398,365.551697 217.326508,365.103149 202.467850,362.692230 
	C197.790039,361.933228 192.730743,365.726990 192.504501,370.690002 
	C198.954575,371.786285 205.376617,373.586761 211.860062,373.844788 
	C230.196808,374.574554 248.601837,374.670776 266.489685,369.702759 
	C295.754333,361.575012 321.161804,346.816315 341.874390,324.424683 
	C343.165863,323.028503 343.649872,320.355316 343.539612,318.329010 
	C343.406586,315.882507 342.237732,313.492371 341.272827,310.258881 
	C330.839874,322.570679 319.800171,333.056183 306.028198,341.510162 
M222.915375,134.659470 
	C220.582550,132.256088 218.832047,128.692322 214.499283,130.350952 
	C214.499283,151.845444 214.499283,173.283859 214.499283,194.752258 
	C217.299896,194.752258 219.904282,194.752258 221.991699,194.752258 
	C221.991699,179.565231 221.991699,164.624786 221.991699,148.999588 
	C224.982758,152.173447 227.329865,154.658112 229.670563,157.148788 
	C239.957092,168.094421 250.187988,179.093231 260.566986,189.950470 
	C263.000122,192.495697 265.932129,194.564072 268.634644,196.851852 
	C269.186371,196.466995 269.738129,196.082138 270.289856,195.697281 
	C270.289856,174.212326 270.289856,152.727371 270.289856,131.275314 
	C267.633820,131.275314 265.036316,131.275314 262.500427,131.275314 
	C262.500427,146.144470 262.500427,160.742691 262.500427,175.340927 
	C262.173157,175.576248 261.845886,175.811569 261.518616,176.046890 
	C260.409912,174.595901 259.429504,173.021667 258.172516,171.713120 
	C246.512039,159.574478 234.803940,147.481598 222.915375,134.659470 
M174.980972,169.425812 
	C180.403152,176.817520 185.783966,184.240280 191.285492,191.572464 
	C192.282120,192.900742 193.668579,194.646271 195.057281,194.831268 
	C198.563904,195.298370 202.174332,194.986069 206.926270,194.986069 
	C198.080460,184.346298 190.053589,174.691544 181.766678,164.724014 
	C185.034134,163.217377 188.193619,162.007050 191.110687,160.365829 
	C197.881973,156.556091 200.080643,152.057755 199.863785,145.074814 
	C199.649521,138.175186 196.077423,132.592941 188.843079,132.091949 
	C178.388321,131.367935 167.846130,131.906693 157.386902,131.906693 
	C157.386902,152.718018 157.386902,173.751770 157.386902,194.720917 
	C161.049561,194.720917 164.317551,194.720917 167.497391,194.720917 
	C167.497391,184.406540 167.497391,174.374847 167.497391,164.179871 
	C171.370972,163.344208 172.899216,166.150208 174.980972,169.425812 
M138.870819,158.098831 
	C131.351669,158.470306 123.832512,158.841797 116.044838,159.226532 
	C116.516457,151.320312 116.934380,144.314285 117.383667,136.782516 
	C127.016197,137.227829 136.327179,137.658264 145.423523,138.078781 
	C145.423523,135.368820 145.423523,133.347275 145.423523,131.331253 
	C132.485611,131.331253 119.417587,131.331253 106.499504,131.331253 
	C106.499504,152.608337 106.499504,173.552002 106.499504,194.998291 
	C113.115173,194.998291 119.728683,194.998291 126.342194,194.998291 
	C133.113480,194.998291 139.884766,194.998291 146.759506,194.998291 
	C146.759506,192.102905 146.759506,189.836975 146.759506,187.999512 
	C141.479538,187.999512 136.448105,187.999527 131.416672,187.999527 
	C126.335289,187.999527 121.253914,187.999512 116.297333,187.999512 
	C116.297333,179.929840 116.297333,172.671753 116.297333,165.494385 
	C124.284554,165.494385 131.973297,165.494385 139.221527,165.494385 
	C139.362900,163.132050 139.503540,160.782059 138.870819,158.098831 
M92.367287,191.916809 
	C97.288948,189.697281 95.736198,185.344330 96.235687,181.217438 
	C79.650032,192.606720 65.267754,193.258545 56.487209,182.816025 
	C46.496635,170.934433 46.683228,156.358414 54.112095,145.507584 
	C57.701351,140.264999 62.804409,136.249344 69.089836,135.211151 
	C78.236755,133.700348 86.639458,136.044952 93.127563,143.438889 
	C93.939056,141.962280 94.525436,141.151443 94.858612,140.247299 
	C96.968521,134.521561 96.764168,133.390549 90.600334,132.170288 
	C83.884956,130.840805 76.946831,130.208603 70.092682,130.099838 
	C57.113689,129.893906 47.185757,136.166687 41.513824,147.422501 
	C35.925320,158.512726 36.475861,170.225693 42.807281,181.273926 
	C51.928841,197.190903 76.060730,200.050385 92.367287,191.916809 
M88.085106,264.289032 
	C83.367828,249.648819 80.071541,234.731659 79.785301,219.396439 
	C76.264496,219.396439 73.218147,219.396439 69.732368,219.396439 
	C70.518997,226.334427 71.039490,232.872055 72.035767,239.336349 
	C74.710396,256.690430 79.741165,273.325989 88.009102,288.883209 
	C90.236900,293.075073 98.420120,297.063354 102.509415,296.426910 
	C97.845612,285.999023 93.150185,275.500397 88.085106,264.289032 
M118.016113,330.508087 
	C134.845673,345.306915 153.224564,357.536377 173.030716,364.537292 
	C176.173965,361.785004 178.507980,359.741302 180.838562,357.700623 
	C180.690659,357.467133 180.579315,357.112183 180.338074,356.947266 
	C179.812546,356.588104 179.250336,356.238220 178.651886,356.036652 
	C163.139206,350.811249 149.025238,343.035278 136.276108,332.783936 
	C131.929947,329.289276 128.086838,324.836670 123.220886,322.415466 
	C118.476257,320.054688 112.718239,319.730530 105.823402,318.149536 
	C110.350883,322.732788 113.936737,326.362823 118.016113,330.508087 
z"/>
<path fill="#0080C6" opacity="1.000000" stroke="none" 
	d="
M223.170074,18.994888 
	C218.200821,18.587904 213.711655,18.184591 209.222488,17.781281 
	C232.637909,26.809946 253.612335,39.138687 270.718323,57.594868 
	C265.636017,56.656151 260.225586,56.501587 255.566422,54.551743 
	C251.163910,52.709305 247.576828,48.944031 243.586288,46.087082 
	C225.585510,33.199825 205.501068,25.001593 183.838058,21.193203 
	C161.349136,17.239611 139.136108,19.122679 117.143402,25.797623 
	C90.588493,33.857220 68.296501,48.353485 49.891861,68.755196 
	C31.751434,88.864014 19.857994,112.394707 15.110192,139.151382 
	C13.335210,149.154465 11.865515,159.450943 12.211514,169.546646 
	C13.281760,200.774796 22.939413,229.239395 41.853935,254.415237 
	C57.647400,275.436829 77.494698,291.505981 101.629135,301.571198 
	C113.254387,306.419434 125.874611,309.135254 138.261398,311.812042 
	C146.079834,313.501617 154.335251,314.184113 162.333115,313.849091 
	C193.531097,312.542389 222.117752,303.344818 247.259308,284.301208 
	C265.271515,270.657776 279.893616,254.074097 290.267883,234.049301 
	C297.733337,219.639221 303.078644,204.338730 304.964600,188.081070 
	C305.912598,179.908951 307.115387,171.650192 306.842010,163.476135 
	C306.224365,145.010254 302.535400,127.012199 294.534973,110.262917 
	C289.147766,98.984459 282.723755,88.201195 276.724152,77.123550 
	C286.147644,78.817909 292.993378,84.022575 297.628601,93.015793 
	C306.678253,110.573990 313.508209,128.933167 317.929565,148.111893 
	C326.506927,185.318497 334.634735,222.628586 343.004059,259.883392 
	C350.263489,292.197754 357.650146,324.483582 364.886017,356.803192 
	C371.264587,385.293610 377.512390,413.813354 383.893768,442.663086 
	C380.734650,442.663086 377.668976,442.663086 374.038635,442.663086 
	C354.648254,354.567383 335.228119,266.336426 316.254730,180.135315 
	C313.623810,191.889252 311.554810,205.623779 307.386749,218.688644 
	C301.320648,237.702881 291.140656,254.848877 278.250610,270.072662 
	C264.731567,286.039337 250.660965,301.554443 236.464844,316.928406 
	C219.339935,335.474213 201.814194,353.649567 184.491470,372.013123 
	C174.400162,382.710785 164.319443,393.419220 154.319626,404.202209 
	C143.112595,416.286987 132.048981,428.505188 120.781464,440.532776 
	C119.585495,441.809479 117.502220,442.657745 115.722954,442.893921 
	C112.815979,443.279724 109.820419,442.998199 106.023079,442.998199 
	C108.534874,439.906891 110.402245,437.273376 112.602203,434.955505 
	C126.839859,419.954742 141.201508,405.071564 155.422638,390.055237 
	C171.223465,373.370880 186.914719,356.582764 202.659714,339.845490 
	C213.452713,328.372284 224.258759,316.911346 235.044037,305.430908 
	C235.446152,305.002869 235.691010,304.427094 235.825409,303.457031 
	C199.753357,323.409424 161.429077,328.307495 121.964531,318.656219 
	C82.548889,309.016846 51.109837,286.798431 28.218481,252.647171 
	C37.539951,284.151123 46.861423,315.655090 56.186802,347.172272 
	C47.631474,349.298859 47.258121,348.958466 44.864563,340.737488 
	C37.114235,314.118042 28.935848,287.618561 21.544815,260.900665 
	C15.588814,239.370270 9.302797,217.812225 5.351405,195.872360 
	C-1.684371,156.806610 4.945873,119.778343 25.751738,85.481354 
	C45.174278,53.464680 72.508057,31.160009 107.479004,18.440104 
	C119.735611,13.982030 132.581680,11.031569 145.893234,10.964111 
	C194.661407,10.716969 243.428894,10.074104 292.196625,10.075899 
	C339.830383,10.077653 387.464142,10.685661 435.097900,11.025253 
	C436.889526,11.038026 438.681335,11.026879 440.733582,11.026879 
	C440.733582,14.097400 440.733582,16.694548 440.733582,18.998560 
	C368.367493,18.998560 296.008820,18.998560 223.170074,18.994888 
z"/>
<path fill="#0080C6" opacity="1.000000" stroke="none" 
	d="
M111.689835,111.185417 
	C111.477013,109.271973 110.830482,106.962334 111.684296,106.036858 
	C128.665390,87.630554 148.703766,73.622810 172.327682,65.055542 
	C186.695847,59.844891 201.450531,56.875843 216.830978,55.779289 
	C242.120102,53.976299 266.058044,58.334267 289.257019,68.044022 
	C308.559692,76.123009 325.220123,87.975441 339.785522,102.919777 
	C360.970886,124.656265 373.761322,150.733780 380.017426,180.227386 
	C380.421783,182.133743 380.899261,184.024582 381.587830,186.971603 
	C382.235840,184.889664 382.835663,183.690109 382.963348,182.442245 
	C384.670532,165.757370 386.378174,149.071960 387.942322,132.373245 
	C388.772339,123.512260 389.167389,114.609726 390.041901,105.753906 
	C391.187469,94.153320 392.656006,82.584969 393.896362,70.993202 
	C394.387421,66.403885 394.811890,61.794548 394.962097,57.184399 
	C395.246796,48.446346 395.518494,48.150406 404.894592,49.541122 
	C404.186615,57.485138 403.520386,65.461182 402.750031,73.427170 
	C402.244507,78.654778 401.575653,83.866425 401.002472,89.087692 
	C399.694305,101.004456 398.356781,112.918236 397.115784,124.842041 
	C396.331940,132.373306 395.761871,139.926743 394.987213,147.459045 
	C393.726837,159.713516 392.415649,171.963089 391.054565,184.206787 
	C389.748535,195.955002 388.662048,207.738998 386.933929,219.426666 
	C382.570831,248.935532 375.064026,277.432892 358.543640,302.825684 
	C358.220032,303.323059 357.579071,303.613983 356.489655,304.469971 
	C354.982910,298.631134 352.676208,294.041199 356.212219,287.955322 
	C364.894836,273.011597 370.516357,256.761871 372.943024,239.576065 
	C373.976349,232.257736 374.806061,224.850754 374.909821,217.472549 
	C375.196747,197.059814 371.010010,177.354065 363.655151,158.418457 
	C355.763153,138.099899 344.356598,119.860764 328.321747,104.919769 
	C310.317841,88.144073 289.481659,76.423195 265.577484,69.831764 
	C249.073959,65.280998 232.357635,63.984791 215.585770,65.200798 
	C194.530182,66.727386 174.574463,72.606758 156.018250,83.270111 
	C141.260025,91.750954 128.422531,102.371002 116.588203,115.043564 
	C114.941765,113.760857 113.448242,112.597282 111.689835,111.185417 
z"/>
<path fill="#0080C6" opacity="1.000000" stroke="none" 
	d="
M306.330872,341.298615 
	C319.800171,333.056183 330.839874,322.570679 341.272827,310.258881 
	C342.237732,313.492371 343.406586,315.882507 343.539612,318.329010 
	C343.649872,320.355316 343.165863,323.028503 341.874390,324.424683 
	C321.161804,346.816315 295.754333,361.575012 266.489685,369.702759 
	C248.601837,374.670776 230.196808,374.574554 211.860062,373.844788 
	C205.376617,373.586761 198.954575,371.786285 192.505081,370.686584 
	C192.730743,365.726990 197.790039,361.933228 202.467850,362.692230 
	C217.326508,365.103149 232.108398,365.551697 247.182190,363.280853 
	C264.746216,360.634888 281.167511,355.272247 296.760284,347.030579 
	C299.935242,345.352448 302.943237,343.358521 306.330872,341.298615 
z"/>
<path fill="#0080C6" opacity="1.000000" stroke="none" 
	d="
M223.012512,135.017456 
	C234.803940,147.481598 246.512039,159.574478 258.172516,171.713120 
	C259.429504,173.021667 260.409912,174.595901 261.518616,176.046890 
	C261.845886,175.811569 262.173157,175.576248 262.500427,175.340927 
	C262.500427,160.742691 262.500427,146.144470 262.500427,131.275314 
	C265.036316,131.275314 267.633820,131.275314 270.289856,131.275314 
	C270.289856,152.727371 270.289856,174.212326 270.289856,195.697281 
	C269.738129,196.082138 269.186371,196.466995 268.634644,196.851852 
	C265.932129,194.564072 263.000122,192.495697 260.566986,189.950470 
	C250.187988,179.093231 239.957092,168.094421 229.670563,157.148788 
	C227.329865,154.658112 224.982758,152.173447 221.991699,148.999588 
	C221.991699,164.624786 221.991699,179.565231 221.991699,194.752258 
	C219.904282,194.752258 217.299896,194.752258 214.499283,194.752258 
	C214.499283,173.283859 214.499283,151.845444 214.499283,130.350952 
	C218.832047,128.692322 220.582550,132.256088 223.012512,135.017456 
z"/>
<path fill="#0080C6" opacity="1.000000" stroke="none" 
	d="
M174.716919,169.171356 
	C172.899216,166.150208 171.370972,163.344208 167.497391,164.179871 
	C167.497391,174.374847 167.497391,184.406540 167.497391,194.720917 
	C164.317551,194.720917 161.049561,194.720917 157.386902,194.720917 
	C157.386902,173.751770 157.386902,152.718018 157.386902,131.906693 
	C167.846130,131.906693 178.388321,131.367935 188.843079,132.091949 
	C196.077423,132.592941 199.649521,138.175186 199.863785,145.074814 
	C200.080643,152.057755 197.881973,156.556091 191.110687,160.365829 
	C188.193619,162.007050 185.034134,163.217377 181.766678,164.724014 
	C190.053589,174.691544 198.080460,184.346298 206.926270,194.986069 
	C202.174332,194.986069 198.563904,195.298370 195.057281,194.831268 
	C193.668579,194.646271 192.282120,192.900742 191.285492,191.572464 
	C185.783966,184.240280 180.403152,176.817520 174.716919,169.171356 
M180.632278,136.212158 
	C176.654968,136.212158 172.677658,136.212158 168.349976,136.212158 
	C165.779663,143.924377 167.456787,151.797729 167.027252,160.301788 
	C171.170929,159.815674 174.724716,159.519028 178.236908,158.960831 
	C184.828674,157.913177 188.921188,154.004578 189.929138,148.029617 
	C190.659332,143.701218 187.639099,139.756882 180.632278,136.212158 
z"/>
<path fill="#0080C6" opacity="1.000000" stroke="none" 
	d="
M139.257492,158.265442 
	C139.503540,160.782059 139.362900,163.132050 139.221527,165.494385 
	C131.973297,165.494385 124.284554,165.494385 116.297333,165.494385 
	C116.297333,172.671753 116.297333,179.929840 116.297333,187.999512 
	C121.253914,187.999512 126.335289,187.999527 131.416672,187.999527 
	C136.448105,187.999527 141.479538,187.999512 146.759506,187.999512 
	C146.759506,189.836975 146.759506,192.102905 146.759506,194.998291 
	C139.884766,194.998291 133.113480,194.998291 126.342194,194.998291 
	C119.728683,194.998291 113.115173,194.998291 106.499504,194.998291 
	C106.499504,173.552002 106.499504,152.608337 106.499504,131.331253 
	C119.417587,131.331253 132.485611,131.331253 145.423523,131.331253 
	C145.423523,133.347275 145.423523,135.368820 145.423523,138.078781 
	C136.327179,137.658264 127.016197,137.227829 117.383667,136.782516 
	C116.934380,144.314285 116.516457,151.320312 116.044838,159.226532 
	C123.832512,158.841797 131.351669,158.470306 139.257492,158.265442 
z"/>
<path fill="#0080C6" opacity="1.000000" stroke="none" 
	d="
M91.987610,192.002136 
	C76.060730,200.050385 51.928841,197.190903 42.807281,181.273926 
	C36.475861,170.225693 35.925320,158.512726 41.513824,147.422501 
	C47.185757,136.166687 57.113689,129.893906 70.092682,130.099838 
	C76.946831,130.208603 83.884956,130.840805 90.600334,132.170288 
	C96.764168,133.390549 96.968521,134.521561 94.858612,140.247299 
	C94.525436,141.151443 93.939056,141.962280 93.127563,143.438889 
	C86.639458,136.044952 78.236755,133.700348 69.089836,135.211151 
	C62.804409,136.249344 57.701351,140.264999 54.112095,145.507584 
	C46.683228,156.358414 46.496635,170.934433 56.487209,182.816025 
	C65.267754,193.258545 79.650032,192.606720 96.235687,181.217438 
	C95.736198,185.344330 97.288948,189.697281 91.987610,192.002136 
z"/>
<path fill="#0080C6" opacity="1.000000" stroke="none" 
	d="
M88.269928,264.645386 
	C93.150185,275.500397 97.845612,285.999023 102.509415,296.426910 
	C98.420120,297.063354 90.236900,293.075073 88.009102,288.883209 
	C79.741165,273.325989 74.710396,256.690430 72.035767,239.336349 
	C71.039490,232.872055 70.518997,226.334427 69.732368,219.396439 
	C73.218147,219.396439 76.264496,219.396439 79.785301,219.396439 
	C80.071541,234.731659 83.367828,249.648819 88.269928,264.645386 
z"/>
<path fill="#007FC6" opacity="1.000000" stroke="none" 
	d="
M117.769356,330.250488 
	C113.936737,326.362823 110.350883,322.732788 105.823402,318.149536 
	C112.718239,319.730530 118.476257,320.054688 123.220886,322.415466 
	C128.086838,324.836670 131.929947,329.289276 136.276108,332.783936 
	C149.025238,343.035278 163.139206,350.811249 178.651886,356.036652 
	C179.250336,356.238220 179.812546,356.588104 180.338074,356.947266 
	C180.579315,357.112183 180.690659,357.467133 180.838562,357.700623 
	C178.507980,359.741302 176.173965,361.785004 173.030716,364.537292 
	C153.224564,357.536377 134.845673,345.306915 117.769356,330.250488 
z"/>
<path fill="#000000" opacity="1.000000" stroke="none" 
	d="
M180.956818,136.474030 
	C187.639099,139.756882 190.659332,143.701218 189.929138,148.029617 
	C188.921188,154.004578 184.828674,157.913177 178.236908,158.960831 
	C174.724716,159.519028 171.170929,159.815674 167.027252,160.301788 
	C167.456787,151.797729 165.779663,143.924377 168.349976,136.212158 
	C172.677658,136.212158 176.654968,136.212158 180.956818,136.474030 
z"/>
</svg>