<?xml version="1.0" encoding="UTF-8"?>
<!DOCTYPE svg PUBLIC "-//W3C//DTD SVG 1.1//EN" "http://www.w3.org/Graphics/SVG/1.1/DTD/svg11.dtd">
<svg xmlns="http://www.w3.org/2000/svg" version="1.1" width="722px" height="745px" style="shape-rendering:geometricPrecision; text-rendering:geometricPrecision; image-rendering:optimizeQuality; fill-rule:evenodd; clip-rule:evenodd" xmlns:xlink="http://www.w3.org/1999/xlink">
<g><path style="opacity:1" fill="#e4df1b" d="M 580.5,-0.5 C 588.5,-0.5 596.5,-0.5 604.5,-0.5C 635.661,1.91432 662.995,13.4143 686.5,34C 697.318,43.651 707.651,53.8177 717.5,64.5C 701.545,81.9562 685.045,98.9562 668,115.5C 652.245,95.3993 632.745,80.2326 609.5,70C 601.369,67.2072 593.035,65.3739 584.5,64.5C 582.734,57.3078 581.567,49.9745 581,42.5C 580.5,28.1705 580.333,13.8372 580.5,-0.5 Z"/></g>
<g><path style="opacity:1" fill="#dedd21" d="M 561.5,-0.5 C 567.833,-0.5 574.167,-0.5 580.5,-0.5C 580.333,13.8372 580.5,28.1705 581,42.5C 581.567,49.9745 582.734,57.3078 584.5,64.5C 563.785,62.2062 544.785,66.7062 527.5,78C 523.964,81.7039 520.298,85.2039 516.5,88.5C 514.955,87.7703 514.122,86.437 514,84.5C 509.587,61.0389 507.421,37.3722 507.5,13.5C 524.787,6.01163 542.787,1.34496 561.5,-0.5 Z"/></g>
<g><path style="opacity:1" fill="#77c35c" d="M 246.5,3.5 C 245.167,3.5 243.833,3.5 242.5,3.5C 232.81,3.16825 223.144,3.50158 213.5,4.5C 198.233,26.3641 185.566,49.6974 175.5,74.5C 176.5,74.5 177.5,74.5 178.5,74.5C 171.667,77.4088 164.667,80.0754 157.5,82.5C 157.062,82.5654 156.728,82.3988 156.5,82C 167.568,55.0307 180.568,29.1973 195.5,4.5C 212.595,2.36856 229.595,2.03523 246.5,3.5 Z"/></g>
<g><path style="opacity:1" fill="#7ac455" d="M 242.5,3.5 C 227.503,23.472 214.503,44.8053 203.5,67.5C 203.863,68.1835 204.196,68.8501 204.5,69.5C 195.731,70.6539 187.064,72.3206 178.5,74.5C 177.5,74.5 176.5,74.5 175.5,74.5C 185.566,49.6974 198.233,26.3641 213.5,4.5C 223.144,3.50158 232.81,3.16825 242.5,3.5 Z"/></g>
<g><path style="opacity:1" fill="#85c755" d="M 242.5,3.5 C 243.833,3.5 245.167,3.5 246.5,3.5C 252.726,3.38767 258.726,4.05434 264.5,5.5C 262.473,5.33788 260.473,5.50454 258.5,6C 243.63,24.8914 230.63,45.0581 219.5,66.5C 226.468,67.497 233.468,67.8303 240.5,67.5C 241.167,67.5 241.5,67.8333 241.5,68.5C 229.136,68.2484 216.803,68.5818 204.5,69.5C 204.196,68.8501 203.863,68.1835 203.5,67.5C 214.503,44.8053 227.503,23.472 242.5,3.5 Z"/></g>
<g><path style="opacity:1" fill="#6fc05d" d="M 195.5,4.5 C 180.568,29.1973 167.568,55.0307 156.5,82C 156.728,82.3988 157.062,82.5654 157.5,82.5C 149.703,86.9011 142.036,91.5678 134.5,96.5C 133.503,96.5299 132.836,96.0299 132.5,95C 142.477,64.55 155.81,35.7166 172.5,8.5C 180.061,6.6286 187.728,5.29527 195.5,4.5 Z"/></g>
<g><path style="opacity:1" fill="#87c84d" d="M 264.5,5.5 C 270.095,5.75363 275.428,6.75363 280.5,8.5C 264.826,26.52 251.493,46.1867 240.5,67.5C 233.468,67.8303 226.468,67.497 219.5,66.5C 230.63,45.0581 243.63,24.8914 258.5,6C 260.473,5.50454 262.473,5.33788 264.5,5.5 Z"/></g>
<g><path style="opacity:1" fill="#8dca4b" d="M 280.5,8.5 C 286.819,9.38939 292.819,11.0561 298.5,13.5C 282.162,30.4828 268.495,49.4828 257.5,70.5C 252.167,69.8333 246.833,69.1667 241.5,68.5C 241.5,67.8333 241.167,67.5 240.5,67.5C 251.493,46.1867 264.826,26.52 280.5,8.5 Z"/></g>
<g><path style="opacity:1" fill="#68be63" d="M 172.5,8.5 C 155.81,35.7166 142.477,64.55 132.5,95C 132.836,96.0299 133.503,96.5299 134.5,96.5C 120.843,107.158 108.509,119.158 97.5,132.5C 96.6236,132.631 95.9569,132.298 95.5,131.5C 103.994,93.5132 117.328,57.3465 135.5,23C 134.944,22.6174 134.611,22.1174 134.5,21.5C 146.528,15.6009 159.195,11.2675 172.5,8.5 Z"/></g>
<g><path style="opacity:1" fill="#93cb47" d="M 298.5,13.5 C 308.125,15.8186 317.125,19.4852 325.5,24.5C 310.25,40.3219 296.916,57.6552 285.5,76.5C 285.863,77.1835 286.196,77.8501 286.5,78.5C 277.049,75.0539 267.382,72.3873 257.5,70.5C 268.495,49.4828 282.162,30.4828 298.5,13.5 Z"/></g>
<g><path style="opacity:1" fill="#62bc67" d="M 134.5,21.5 C 134.611,22.1174 134.944,22.6174 135.5,23C 117.328,57.3465 103.994,93.5132 95.5,131.5C 95.9569,132.298 96.6236,132.631 97.5,132.5C 90.3424,141.988 84.009,151.988 78.5,162.5C 82.1863,129.749 90.0196,97.7494 102,66.5C 106.941,54.5041 111.774,42.5041 116.5,30.5C 122.182,26.9922 128.182,23.9922 134.5,21.5 Z"/></g>
<g><path style="opacity:1" fill="#9bce41" d="M 325.5,24.5 C 329.818,25.9922 333.818,27.9922 337.5,30.5C 327.513,41.6654 318.013,53.3321 309,65.5C 304.846,71.1454 301.346,77.1454 298.5,83.5C 294.333,82.2224 290.333,80.5557 286.5,78.5C 286.196,77.8501 285.863,77.1835 285.5,76.5C 296.916,57.6552 310.25,40.3219 325.5,24.5 Z"/></g>
<g><path style="opacity:1" fill="#d9db26" d="M 507.5,13.5 C 507.421,37.3722 509.587,61.0389 514,84.5C 514.122,86.437 514.955,87.7703 516.5,88.5C 508.589,98.0038 504.256,109.004 503.5,121.5C 503.731,131.194 506.731,139.861 512.5,147.5C 511.957,147.56 511.624,147.893 511.5,148.5C 548.41,240.578 612.077,307.078 702.5,348C 705.353,349.43 708.353,350.263 711.5,350.5C 709.71,366.877 704.376,381.877 695.5,395.5C 673.427,387.797 652.761,377.464 633.5,364.5C 635.64,360.22 637.807,355.886 640,351.5C 642.578,342.098 641.578,333.098 637,324.5C 624.124,305.957 608.29,290.457 589.5,278C 562.099,260.271 534.433,242.938 506.5,226C 499.317,220.97 492.317,215.803 485.5,210.5C 485.804,209.85 486.137,209.183 486.5,208.5C 465.018,166.388 450.351,122.055 442.5,75.5C 456.342,46.6585 478.009,25.9918 507.5,13.5 Z"/></g>
<g><path style="opacity:1" fill="#a1d03f" d="M 337.5,30.5 C 344.348,33.7533 350.681,37.7533 356.5,42.5C 340.783,57.2718 327.45,73.9384 316.5,92.5C 316.863,93.1835 317.196,93.8501 317.5,94.5C 310.995,91.0825 304.662,87.4159 298.5,83.5C 301.346,77.1454 304.846,71.1454 309,65.5C 318.013,53.3321 327.513,41.6654 337.5,30.5 Z"/></g>
<g><path style="opacity:1" fill="#5dbb6a" d="M 116.5,30.5 C 111.774,42.5041 106.941,54.5041 102,66.5C 90.0196,97.7494 82.1863,129.749 78.5,162.5C 60.8244,205.587 60.1577,248.92 76.5,292.5C 80.7992,339.351 92.7992,384.351 112.5,427.5C 101.28,421.392 90.9464,414.059 81.5,405.5C 81.9234,404.735 82.2568,403.902 82.5,403C 48.4561,305.114 44.2895,205.947 70,105.5C 75.5469,87.028 81.3802,68.6947 87.5,50.5C 96.2591,42.6121 105.926,35.9454 116.5,30.5 Z"/></g>
<g><path style="opacity:1" fill="#a8d23b" d="M 356.5,42.5 C 361.765,45.4347 366.432,49.1014 370.5,53.5C 354.122,68.2001 340.788,85.2001 330.5,104.5C 325.948,101.397 321.614,98.0642 317.5,94.5C 317.196,93.8501 316.863,93.1835 316.5,92.5C 327.45,73.9384 340.783,57.2718 356.5,42.5 Z"/></g>
<g><path style="opacity:1" fill="#56b86c" d="M 87.5,50.5 C 81.3802,68.6947 75.5469,87.028 70,105.5C 44.2895,205.947 48.4561,305.114 82.5,403C 82.2568,403.902 81.9234,404.735 81.5,405.5C 71.5,397.5 62.5,388.5 54.5,378.5C 26.726,277.782 28.0593,177.448 58.5,77.5C 67.2054,67.461 76.8721,58.461 87.5,50.5 Z"/></g>
<g><path style="opacity:1" fill="#add338" d="M 370.5,53.5 C 375.486,57.1549 380.153,61.1549 384.5,65.5C 383.448,65.3505 382.448,65.5172 381.5,66C 366.285,81.0302 353.619,97.8635 343.5,116.5C 339.141,112.472 334.807,108.472 330.5,104.5C 340.788,85.2001 354.122,68.2001 370.5,53.5 Z"/></g>
<g><path style="opacity:1" fill="#b3d633" d="M 384.5,65.5 C 388.167,68.5 391.5,71.8333 394.5,75.5C 379.224,91.7516 365.557,109.085 353.5,127.5C 349.943,124.064 346.609,120.397 343.5,116.5C 353.619,97.8635 366.285,81.0302 381.5,66C 382.448,65.5172 383.448,65.3505 384.5,65.5 Z"/></g>
<g><path style="opacity:1" fill="#bad737" d="M 394.5,75.5 C 398.801,79.9723 402.968,84.6389 407,89.5C 408.289,91.0548 408.956,92.7215 409,94.5C 392.5,107 376,119.5 359.5,132C 356.295,132.314 354.295,130.814 353.5,127.5C 365.557,109.085 379.224,91.7516 394.5,75.5 Z"/></g>
<g><path style="opacity:1" fill="#d8db2f" d="M 442.5,75.5 C 450.351,122.055 465.018,166.388 486.5,208.5C 486.137,209.183 485.804,209.85 485.5,210.5C 470.967,199.124 458.467,185.791 448,170.5C 430.98,139.548 429.147,107.881 442.5,75.5 Z"/></g>
<g><path style="opacity:1" fill="#50b771" d="M 58.5,77.5 C 28.0593,177.448 26.726,277.782 54.5,378.5C 41.9479,365.074 31.6146,350.074 23.5,333.5C 14.8145,284.455 12.6478,235.122 17,185.5C 19.1793,164.731 22.0127,144.064 25.5,123.5C 34.1808,106.489 45.1808,91.1552 58.5,77.5 Z"/></g>
<g><path style="opacity:1" fill="#50b777" d="M 25.5,123.5 C 22.0127,144.064 19.1793,164.731 17,185.5C 12.6478,235.122 14.8145,284.455 23.5,333.5C 10.2165,307.697 2.21652,280.364 -0.5,251.5C -0.5,237.5 -0.5,223.5 -0.5,209.5C 2.27548,179.068 10.9421,150.401 25.5,123.5 Z"/></g>
<g><path style="opacity:1" fill="#dcdc23" d="M 512.5,147.5 C 524.232,158.533 536.899,168.367 550.5,177C 581.502,195.499 612.169,214.499 642.5,234C 664.293,249.459 683.126,267.959 699,289.5C 710.307,308.393 714.474,328.726 711.5,350.5C 708.353,350.263 705.353,349.43 702.5,348C 612.077,307.078 548.41,240.578 511.5,148.5C 511.624,147.893 511.957,147.56 512.5,147.5 Z"/></g>
<g><path style="opacity:1" fill="#62bc66" d="M 76.5,292.5 C 81.4868,303.814 87.4868,314.481 94.5,324.5C 93.8614,325.097 93.528,325.93 93.5,327C 101.414,364.907 113.414,401.407 129.5,436.5C 123.35,434.26 117.684,431.26 112.5,427.5C 92.7992,384.351 80.7992,339.351 76.5,292.5 Z"/></g>
<g><path style="opacity:1" fill="#68be62" d="M 94.5,324.5 C 104.797,337.797 116.463,349.797 129.5,360.5C 128.903,360.735 128.57,361.235 128.5,362C 137.774,393.001 150.441,422.501 166.5,450.5C 153.559,447.186 141.226,442.519 129.5,436.5C 113.414,401.407 101.414,364.907 93.5,327C 93.528,325.93 93.8614,325.097 94.5,324.5 Z"/></g>
<g><path style="opacity:1" fill="#bad735" d="M 389.5,389.5 C 374.881,372.88 362.215,354.88 351.5,335.5C 352.75,333.068 354.25,330.734 356,328.5C 356.718,327.549 357.551,327.383 358.5,328C 375.025,340.692 391.692,353.192 408.5,365.5C 409.583,366.365 409.749,367.365 409,368.5C 402.948,375.954 396.448,382.954 389.5,389.5 Z"/></g>
<g><path style="opacity:1" fill="#b2d533" d="M 351.5,335.5 C 362.215,354.88 374.881,372.88 389.5,389.5C 386.167,393.5 382.5,397.167 378.5,400.5C 363.89,384.624 351.223,367.291 340.5,348.5C 343.239,345.767 345.573,342.767 347.5,339.5C 348.5,337.833 349.833,336.5 351.5,335.5 Z"/></g>
<g><path style="opacity:1" fill="#d1d831" d="M 568.5,389.5 C 566.473,389.338 564.473,389.505 562.5,390C 588.878,410.173 617.211,427.34 647.5,441.5C 640.206,446.307 632.206,449.807 623.5,452C 586.55,461.053 549.884,460.553 513.5,450.5C 486.018,429.025 460.685,405.025 437.5,378.5C 439.278,376.736 440.611,374.736 441.5,372.5C 451.494,362.339 461.328,352.005 471,341.5C 495.174,360.009 521.674,374.509 550.5,385C 556.629,386.532 562.629,388.032 568.5,389.5 Z"/></g>
<g><path style="opacity:1" fill="#cfe374" d="M 347.5,339.5 C 345.573,342.767 343.239,345.767 340.5,348.5C 339.609,349.11 338.609,349.443 337.5,349.5C 340.5,345.833 343.833,342.5 347.5,339.5 Z"/></g>
<g><path style="opacity:1" fill="#add337" d="M 340.5,348.5 C 351.223,367.291 363.89,384.624 378.5,400.5C 374.817,404.18 370.817,407.514 366.5,410.5C 362.933,408.443 359.766,405.777 357,402.5C 347.227,390.727 338.227,378.394 330,365.5C 328.589,363.35 327.755,361.016 327.5,358.5C 330.792,355.51 334.126,352.51 337.5,349.5C 338.609,349.443 339.609,349.11 340.5,348.5 Z"/></g>
<g><path style="opacity:1" fill="#70c15e" d="M 129.5,360.5 C 137.7,366.097 146.033,371.43 154.5,376.5C 153.903,376.735 153.57,377.235 153.5,378C 162.79,404.079 174.624,428.912 189,452.5C 190.145,453.636 191.312,454.636 192.5,455.5C 183.677,454.602 175.01,452.935 166.5,450.5C 150.441,422.501 137.774,393.001 128.5,362C 128.57,361.235 128.903,360.735 129.5,360.5 Z"/></g>
<g><path style="opacity:1" fill="#a7d13b" d="M 327.5,358.5 C 327.755,361.016 328.589,363.35 330,365.5C 338.227,378.394 347.227,390.727 357,402.5C 359.766,405.777 362.933,408.443 366.5,410.5C 361.804,414.521 356.804,418.188 351.5,421.5C 336.443,405.936 323.443,388.77 312.5,370C 313.056,369.617 313.389,369.117 313.5,368.5C 317.865,364.811 322.531,361.478 327.5,358.5 Z"/></g>
<g><path style="opacity:1" fill="#d6da2c" d="M 633.5,364.5 C 652.761,377.464 673.427,387.797 695.5,395.5C 683.733,415.267 667.733,430.601 647.5,441.5C 617.211,427.34 588.878,410.173 562.5,390C 564.473,389.505 566.473,389.338 568.5,389.5C 594.929,393.141 616.596,384.808 633.5,364.5 Z"/></g>
<g><path style="opacity:1" fill="#a1d03f" d="M 313.5,368.5 C 313.389,369.117 313.056,369.617 312.5,370C 323.443,388.77 336.443,405.936 351.5,421.5C 345.666,425.921 339.332,429.588 332.5,432.5C 317.348,416.177 304.681,398.177 294.5,378.5C 300.85,375.138 307.184,371.805 313.5,368.5 Z"/></g>
<g><path style="opacity:1" fill="#75c25a" d="M 154.5,376.5 C 160.349,378.597 166.015,380.931 171.5,383.5C 176.12,398.097 182.287,412.43 190,426.5C 194.667,434.5 199.333,442.5 204,450.5C 205.73,453.391 207.896,455.724 210.5,457.5C 204.428,457.324 198.428,456.657 192.5,455.5C 191.312,454.636 190.145,453.636 189,452.5C 174.624,428.912 162.79,404.079 153.5,378C 153.57,377.235 153.903,376.735 154.5,376.5 Z"/></g>
<g><path style="opacity:1" fill="#d0d83c" d="M 441.5,372.5 C 440.611,374.736 439.278,376.736 437.5,378.5C 460.685,405.025 486.018,429.025 513.5,450.5C 500.333,447.387 488,442.22 476.5,435C 457.262,423.108 439.762,408.941 424,392.5C 428.43,384.884 434.263,378.217 441.5,372.5 Z"/></g>
<g><path style="opacity:1" fill="#9bce42" d="M 294.5,378.5 C 304.681,398.177 317.348,416.177 332.5,432.5C 328.818,435.008 324.818,437.008 320.5,438.5C 304.911,422.886 291.911,405.219 281.5,385.5C 281.863,384.817 282.196,384.15 282.5,383.5C 286.424,381.853 290.424,380.186 294.5,378.5 Z"/></g>
<g><path style="opacity:1" fill="#7cc457" d="M 171.5,383.5 C 182.428,386.948 193.428,389.614 204.5,391.5C 202.833,391.5 201.167,391.5 199.5,391.5C 209.357,414.99 221.69,436.99 236.5,457.5C 227.896,458.566 219.229,458.566 210.5,457.5C 207.896,455.724 205.73,453.391 204,450.5C 199.333,442.5 194.667,434.5 190,426.5C 182.287,412.43 176.12,398.097 171.5,383.5 Z"/></g>
<g><path style="opacity:1" fill="#93cb47" d="M 282.5,383.5 C 282.196,384.15 281.863,384.817 281.5,385.5C 291.911,405.219 304.911,422.886 320.5,438.5C 312.026,442.994 303.026,446.328 293.5,448.5C 292.325,448.719 291.325,448.386 290.5,447.5C 275.888,429.932 263.554,410.932 253.5,390.5C 263.364,388.951 273.031,386.617 282.5,383.5 Z"/></g>
<g><path style="opacity:1" fill="#83c652" d="M 204.5,391.5 C 208.042,391.187 211.375,391.521 214.5,392.5C 225.272,414.555 237.938,435.388 252.5,455C 255.146,455.497 257.813,455.664 260.5,455.5C 252.723,457.088 244.723,457.754 236.5,457.5C 221.69,436.99 209.357,414.99 199.5,391.5C 201.167,391.5 202.833,391.5 204.5,391.5 Z"/></g>
<g><path style="opacity:1" fill="#8dca4b" d="M 253.5,390.5 C 263.554,410.932 275.888,429.932 290.5,447.5C 291.325,448.386 292.325,448.719 293.5,448.5C 288.497,450.706 283.164,452.039 277.5,452.5C 274.675,452.919 272.509,451.919 271,449.5C 257.588,432.072 245.755,413.572 235.5,394C 236.056,393.617 236.389,393.117 236.5,392.5C 242.155,391.768 247.821,391.101 253.5,390.5 Z"/></g>
<g><path style="opacity:1" fill="#87c84e" d="M 214.5,392.5 C 221.833,392.5 229.167,392.5 236.5,392.5C 236.389,393.117 236.056,393.617 235.5,394C 245.755,413.572 257.588,432.072 271,449.5C 272.509,451.919 274.675,452.919 277.5,452.5C 272.11,454.375 266.444,455.375 260.5,455.5C 257.813,455.664 255.146,455.497 252.5,455C 237.938,435.388 225.272,414.555 214.5,392.5 Z"/></g>
<g><path style="opacity:1" fill="#70c751" d="M 80.5,536.5 C 80.5,549.167 80.5,561.833 80.5,574.5C 72.4224,566.76 65.089,558.427 58.5,549.5C 58.5,545.5 58.5,541.5 58.5,537.5C 58.9156,535.248 60.249,533.748 62.5,533C 67.1667,532.333 71.8333,532.333 76.5,533C 78.3237,533.66 79.657,534.827 80.5,536.5 Z"/></g>
<g><path style="opacity:1" fill="#7bc067" d="M 462.5,533.5 C 466.325,540.479 470.658,547.146 475.5,553.5C 465.161,553.666 454.828,553.5 444.5,553C 440.456,547.081 436.789,540.914 433.5,534.5C 443.144,533.502 452.81,533.168 462.5,533.5 Z"/></g>
<g><path style="opacity:1" fill="#8ac465" d="M 462.5,533.5 C 473.5,533.5 484.5,533.5 495.5,533.5C 529.689,535.857 548.689,554.024 552.5,588C 552.398,596.12 550.398,603.62 546.5,610.5C 546.586,609.504 546.252,608.671 545.5,608C 539.675,605.255 534.008,602.255 528.5,599C 526.963,597.89 526.297,596.39 526.5,594.5C 527.192,583.964 524.692,574.298 519,565.5C 512.971,558.876 505.471,555.21 496.5,554.5C 489.687,553.509 482.687,553.175 475.5,553.5C 470.658,547.146 466.325,540.479 462.5,533.5 Z"/></g>
<g><path style="opacity:1" fill="#9bc862" d="M 622.5,563.5 C 622.53,562.503 622.03,561.836 621,561.5C 615.989,559.745 611.156,557.578 606.5,555C 605.072,554.421 603.738,554.588 602.5,555.5C 605.213,549.948 609.213,545.448 614.5,542C 638.466,528.043 663.466,526.043 689.5,536C 694.62,538.06 699.62,540.393 704.5,543C 710.368,545.557 712.202,549.724 710,555.5C 707.861,558.939 705.361,562.106 702.5,565C 700.5,565.667 698.5,565.667 696.5,565C 684.342,556.392 670.842,551.559 656,550.5C 642.94,550.237 631.773,554.571 622.5,563.5 Z"/></g>
<g><path style="opacity:1" fill="#90cc4c" d="M 328.5,605.5 C 311.799,591.665 297.299,575.332 285,556.5C 282.78,553.46 281.28,550.127 280.5,546.5C 281.553,541.894 283.553,537.727 286.5,534C 290.083,532.048 293.583,532.214 297,534.5C 308.067,557.963 318.567,581.63 328.5,605.5 Z"/></g>
<g><path style="opacity:1" fill="#85c950" d="M 280.5,546.5 C 281.28,550.127 282.78,553.46 285,556.5C 297.299,575.332 311.799,591.665 328.5,605.5C 336.624,621.42 343.958,637.754 350.5,654.5C 350.565,654.938 350.399,655.272 350,655.5C 339.023,648.27 328.189,640.937 317.5,633.5C 309.014,614.526 300.514,595.526 292,576.5C 291.333,575.167 290.667,575.167 290,576.5C 287.392,582.712 284.558,588.712 281.5,594.5C 279.629,594.141 278.129,593.141 277,591.5C 275,588.833 273,586.167 271,583.5C 268.713,580.928 267.547,577.928 267.5,574.5C 271.323,564.858 275.657,555.524 280.5,546.5 Z"/></g>
<g><path style="opacity:1" fill="#5dc156" d="M 58.5,549.5 C 65.089,558.427 72.4224,566.76 80.5,574.5C 80.5,585.167 80.5,595.833 80.5,606.5C 72.7058,600.282 65.3725,593.615 58.5,586.5C 58.5,574.167 58.5,561.833 58.5,549.5 Z"/></g>
<g><path style="opacity:1" fill="#7dc37b" d="M 495.5,533.5 C 484.5,533.5 473.5,533.5 462.5,533.5C 452.81,533.168 443.144,533.502 433.5,534.5C 436.789,540.914 440.456,547.081 444.5,553C 454.828,553.5 465.161,553.666 475.5,553.5C 482.687,553.175 489.687,553.509 496.5,554.5C 478.5,554.5 460.5,554.5 442.5,554.5C 442.5,578.5 442.5,602.5 442.5,626.5C 435.2,619.031 428.033,611.364 421,603.5C 420.5,615.162 420.333,626.829 420.5,638.5C 420.5,654.5 420.5,670.5 420.5,686.5C 420.5,703.5 420.5,720.5 420.5,737.5C 419.335,671.001 419.168,604.335 420,537.5C 420.833,535.333 422.333,533.833 424.5,533C 448.337,532.17 472.004,532.337 495.5,533.5 Z"/></g>
<g><path style="opacity:1" fill="#88c467" d="M 622.5,563.5 C 612.618,578.901 613.618,593.567 625.5,607.5C 625.265,608.097 624.765,608.43 624,608.5C 613.987,605.571 604.154,602.238 594.5,598.5C 590.684,582.852 593.35,568.519 602.5,555.5C 603.738,554.588 605.072,554.421 606.5,555C 611.156,557.578 615.989,559.745 621,561.5C 622.03,561.836 622.53,562.503 622.5,563.5 Z"/></g>
<g><path style="opacity:1" fill="#77c45b" d="M 267.5,574.5 C 267.547,577.928 268.713,580.928 271,583.5C 273,586.167 275,588.833 277,591.5C 278.129,593.141 279.629,594.141 281.5,594.5C 276.344,607.472 270.678,620.138 264.5,632.5C 261.269,630.78 258.436,628.447 256,625.5C 254.71,623.208 253.043,621.208 251,619.5C 249.991,617.975 249.491,616.308 249.5,614.5C 254.989,600.861 260.989,587.528 267.5,574.5 Z"/></g>
<g><path style="opacity:1" fill="#4fbe5c" d="M 58.5,586.5 C 65.3725,593.615 72.7058,600.282 80.5,606.5C 80.5,613.833 80.5,621.167 80.5,628.5C 72.8356,623.326 65.5022,617.659 58.5,611.5C 58.5,603.167 58.5,594.833 58.5,586.5 Z"/></g>
<g><path style="opacity:1" fill="#64b971" d="M 442.5,626.5 C 449.975,633.135 457.642,639.635 465.5,646C 457.323,646.171 449.323,646.671 441.5,647.5C 441.5,650.5 441.5,653.5 441.5,656.5C 434.314,650.737 427.314,644.737 420.5,638.5C 420.333,626.829 420.5,615.162 421,603.5C 428.033,611.364 435.2,619.031 442.5,626.5 Z"/></g>
<g><path style="opacity:1" fill="#7ec16d" d="M 526.5,594.5 C 526.297,596.39 526.963,597.89 528.5,599C 534.008,602.255 539.675,605.255 545.5,608C 546.252,608.671 546.586,609.504 546.5,610.5C 541.841,620.331 534.841,628.164 525.5,634C 524.748,634.671 524.414,635.504 524.5,636.5C 518.201,632.012 511.534,628.012 504.5,624.5C 517.193,618.455 524.526,608.455 526.5,594.5 Z"/></g>
<g><path style="opacity:1" fill="#7dc16d" d="M 594.5,598.5 C 604.154,602.238 613.987,605.571 624,608.5C 624.765,608.43 625.265,608.097 625.5,607.5C 629.936,610.894 634.603,614.061 639.5,617C 656.791,624.428 673.791,632.428 690.5,641C 694.597,643.37 698.264,646.203 701.5,649.5C 687.656,650.585 673.989,651.252 660.5,651.5C 643.523,645.178 627.523,637.012 612.5,627C 603.079,619.656 597.079,610.156 594.5,598.5 Z"/></g>
<g><path style="opacity:1" fill="#74be6e" d="M 504.5,624.5 C 511.534,628.012 518.201,632.012 524.5,636.5C 538.389,641.759 548.389,651.093 554.5,664.5C 528.403,656.286 504.403,644.119 482.5,628C 486.025,627.821 489.359,627.321 492.5,626.5C 496.524,625.962 500.524,625.295 504.5,624.5 Z"/></g>
<g><path style="opacity:1" fill="#3cb868" d="M 58.5,611.5 C 65.5022,617.659 72.8356,623.326 80.5,628.5C 80.5,642.167 80.5,655.833 80.5,669.5C 72.8564,665.343 65.523,660.677 58.5,655.5C 58.5,640.833 58.5,626.167 58.5,611.5 Z"/></g>
<g><path style="opacity:1" fill="#70bd71" d="M 442.5,626.5 C 459.167,626.5 475.833,626.5 492.5,626.5C 489.359,627.321 486.025,627.821 482.5,628C 504.403,644.119 528.403,656.286 554.5,664.5C 556.277,667.505 557.277,670.838 557.5,674.5C 557.5,679.833 557.5,685.167 557.5,690.5C 549.398,688.475 541.398,686.142 533.5,683.5C 530.22,662.994 518.22,651.16 497.5,648C 479.17,647.5 460.836,647.333 442.5,647.5C 442.167,647.5 441.833,647.5 441.5,647.5C 449.323,646.671 457.323,646.171 465.5,646C 457.642,639.635 449.975,633.135 442.5,626.5 Z"/></g>
<g><path style="opacity:1" fill="#64bf65" d="M 249.5,614.5 C 249.491,616.308 249.991,617.975 251,619.5C 253.043,621.208 254.71,623.208 256,625.5C 258.436,628.447 261.269,630.78 264.5,632.5C 260.952,642.59 256.619,652.257 251.5,661.5C 245.188,657.188 239.855,651.855 235.5,645.5C 239.93,634.979 244.597,624.646 249.5,614.5 Z"/></g>
<g><path style="opacity:1" fill="#5ab774" d="M 420.5,638.5 C 427.314,644.737 434.314,650.737 441.5,656.5C 441.667,671.504 441.5,686.504 441,701.5C 434.008,696.669 427.175,691.669 420.5,686.5C 420.5,670.5 420.5,654.5 420.5,638.5 Z"/></g>
<g><path style="opacity:1" fill="#7ac559" d="M 317.5,633.5 C 328.189,640.937 339.023,648.27 350,655.5C 350.399,655.272 350.565,654.938 350.5,654.5C 355.624,663.754 359.958,673.421 363.5,683.5C 363.44,684.043 363.107,684.376 362.5,684.5C 352.654,679.745 342.988,674.745 333.5,669.5C 328.167,657.5 322.833,645.5 317.5,633.5 Z"/></g>
<g><path style="opacity:1" fill="#74bf70" d="M 701.5,649.5 C 706.635,652.759 710.635,657.092 713.5,662.5C 713.03,663.693 712.03,664.36 710.5,664.5C 702.461,665.612 694.461,666.612 686.5,667.5C 678.132,661.651 669.465,656.317 660.5,651.5C 673.989,651.252 687.656,650.585 701.5,649.5 Z"/></g>
<g><path style="opacity:1" fill="#24b275" d="M 58.5,655.5 C 65.523,660.677 72.8564,665.343 80.5,669.5C 80.8324,682.184 80.4991,694.851 79.5,707.5C 72.3098,703.741 65.3098,699.741 58.5,695.5C 58.5,682.167 58.5,668.833 58.5,655.5 Z"/></g>
<g><path style="opacity:1" fill="#57bb6c" d="M 235.5,645.5 C 239.855,651.855 245.188,657.188 251.5,661.5C 247.446,671.942 243.113,682.275 238.5,692.5C 232.224,687.893 226.557,682.559 221.5,676.5C 225.93,665.979 230.597,655.646 235.5,645.5 Z"/></g>
<g><path style="opacity:1" fill="#70c25e" d="M 333.5,669.5 C 342.988,674.745 352.654,679.745 362.5,684.5C 363.107,684.376 363.44,684.043 363.5,683.5C 367.677,691.192 371.344,699.192 374.5,707.5C 374.631,708.239 374.464,708.906 374,709.5C 364.451,705.262 354.951,700.929 345.5,696.5C 341.225,687.618 337.225,678.618 333.5,669.5 Z"/></g>
<g><path style="opacity:1" fill="#6bbb74" d="M 713.5,662.5 C 717.259,668.018 719.926,674.018 721.5,680.5C 721.5,686.833 721.5,693.167 721.5,699.5C 720.749,702.246 719.749,704.913 718.5,707.5C 709.427,709.515 700.427,710.181 691.5,709.5C 700.511,694.264 698.844,680.264 686.5,667.5C 694.461,666.612 702.461,665.612 710.5,664.5C 712.03,664.36 713.03,663.693 713.5,662.5 Z"/></g>
<g><path style="opacity:1" fill="#4cb777" d="M 221.5,676.5 C 226.557,682.559 232.224,687.893 238.5,692.5C 235.406,699.686 232.072,706.686 228.5,713.5C 222.305,709.818 216.805,705.151 212,699.5C 211.617,700.056 211.117,700.389 210.5,700.5C 213.796,692.253 217.463,684.253 221.5,676.5 Z"/></g>
<g><path style="opacity:1" fill="#55b67c" d="M 441.5,647.5 C 441.833,647.5 442.167,647.5 442.5,647.5C 442.5,672.167 442.5,696.833 442.5,721.5C 461.833,721.5 481.167,721.5 500.5,721.5C 509.892,724.356 519.225,727.522 528.5,731C 529.252,731.671 529.586,732.504 529.5,733.5C 522.226,737.091 514.559,739.591 506.5,741C 478.5,741.667 450.5,741.667 422.5,741C 421.177,740.184 420.511,739.017 420.5,737.5C 420.5,720.5 420.5,703.5 420.5,686.5C 427.175,691.669 434.008,696.669 441,701.5C 441.5,686.504 441.667,671.504 441.5,656.5C 441.5,653.5 441.5,650.5 441.5,647.5 Z"/></g>
<g><path style="opacity:1" fill="#3fb47b" d="M 228.5,713.5 C 225.222,722.335 221.555,731.002 217.5,739.5C 216.078,739.291 214.745,738.791 213.5,738C 210.465,734.63 207.132,731.63 203.5,729C 201.393,727.736 200.393,725.903 200.5,723.5C 203.561,715.712 206.894,708.045 210.5,700.5C 211.117,700.389 211.617,700.056 212,699.5C 216.805,705.151 222.305,709.818 228.5,713.5 Z"/></g>
<g><path style="opacity:1" fill="#69c063" d="M 345.5,696.5 C 354.951,700.929 364.451,705.262 374,709.5C 374.464,708.906 374.631,708.239 374.5,707.5C 378.011,713.861 381.011,720.528 383.5,727.5C 383.631,728.239 383.464,728.906 383,729.5C 375.104,726.533 367.27,723.367 359.5,720C 358.251,719.26 357.251,719.427 356.5,720.5C 352.462,712.741 348.795,704.741 345.5,696.5 Z"/></g>
<g><path style="opacity:1" fill="#60b97b" d="M 691.5,709.5 C 700.427,710.181 709.427,709.515 718.5,707.5C 711.923,723.242 700.59,734.076 684.5,740C 679.126,741.84 673.793,743.34 668.5,744.5C 660.5,744.5 652.5,744.5 644.5,744.5C 624.452,741.06 606.952,732.393 592,718.5C 590,715.833 590,713.167 592,710.5C 595.023,705.977 598.856,702.31 603.5,699.5C 612.319,706.412 621.652,712.579 631.5,718C 650.512,727.438 668.845,726.438 686.5,715C 688.402,713.27 690.069,711.437 691.5,709.5 Z"/></g>
<g><path style="opacity:1" fill="#63ba78" d="M 557.5,674.5 C 561.377,700.414 552.043,720.081 529.5,733.5C 529.586,732.504 529.252,731.671 528.5,731C 519.225,727.522 509.892,724.356 500.5,721.5C 521.21,717.485 532.21,704.818 533.5,683.5C 541.398,686.142 549.398,688.475 557.5,690.5C 557.5,685.167 557.5,679.833 557.5,674.5 Z"/></g>
<g><path style="opacity:1" fill="#48b791" d="M 58.5,537.5 C 58.5,541.5 58.5,545.5 58.5,549.5C 58.5,561.833 58.5,574.167 58.5,586.5C 58.5,594.833 58.5,603.167 58.5,611.5C 58.5,626.167 58.5,640.833 58.5,655.5C 58.5,668.833 58.5,682.167 58.5,695.5C 58.3338,701.842 58.5005,708.175 59,714.5C 76.5022,725.001 94.6689,734.001 113.5,741.5C 95.8302,741.667 78.1635,741.5 60.5,741C 59.1068,739.829 58.2735,738.329 58,736.5C 57.1679,669.999 57.3346,603.665 58.5,537.5 Z"/></g>
<g><path style="opacity:1" fill="#61be67" d="M 383.5,727.5 C 385.535,731.081 387.202,734.914 388.5,739C 388.387,741.399 387.387,743.232 385.5,744.5C 379.5,744.5 373.5,744.5 367.5,744.5C 363.305,736.774 359.638,728.774 356.5,720.5C 357.251,719.427 358.251,719.26 359.5,720C 367.27,723.367 375.104,726.533 383,729.5C 383.464,728.906 383.631,728.239 383.5,727.5 Z"/></g>
<g><path style="opacity:1" fill="#2cb281" d="M 80.5,536.5 C 81.4991,597.998 81.8324,659.664 81.5,721.5C 110.835,721.333 140.169,721.5 169.5,722C 170.756,722.417 171.423,723.25 171.5,724.5C 151.906,722.455 132.239,721.955 112.5,723C 131.522,730.839 151.189,736.339 171.5,739.5C 171.082,740.222 170.416,740.722 169.5,741C 150.836,741.5 132.17,741.667 113.5,741.5C 94.6689,734.001 76.5022,725.001 59,714.5C 58.5005,708.175 58.3338,701.842 58.5,695.5C 65.3098,699.741 72.3098,703.741 79.5,707.5C 80.4991,694.851 80.8324,682.184 80.5,669.5C 80.5,655.833 80.5,642.167 80.5,628.5C 80.5,621.167 80.5,613.833 80.5,606.5C 80.5,595.833 80.5,585.167 80.5,574.5C 80.5,561.833 80.5,549.167 80.5,536.5 Z"/></g>
<g><path style="opacity:1" fill="#1cb178" d="M 171.5,724.5 C 172.8,729.4 172.8,734.4 171.5,739.5C 151.189,736.339 131.522,730.839 112.5,723C 132.239,721.955 151.906,722.455 171.5,724.5 Z"/></g>
<g><path style="opacity:1" fill="#38b686" d="M 200.5,723.5 C 200.393,725.903 201.393,727.736 203.5,729C 207.132,731.63 210.465,734.63 213.5,738C 214.745,738.791 216.078,739.291 217.5,739.5C 216.752,741.332 215.752,742.999 214.5,744.5C 208.5,744.5 202.5,744.5 196.5,744.5C 194.613,743.232 193.613,741.399 193.5,739C 195.175,733.451 197.508,728.285 200.5,723.5 Z"/></g>
</svg>
