<?xml version="1.0" encoding="UTF-8"?>
<!DOCTYPE svg PUBLIC "-//W3C//DTD SVG 1.1//EN" "http://www.w3.org/Graphics/SVG/1.1/DTD/svg11.dtd">
<svg xmlns="http://www.w3.org/2000/svg" version="1.1" width="1200px" height="914px" style="shape-rendering:geometricPrecision; text-rendering:geometricPrecision; image-rendering:optimizeQuality; fill-rule:evenodd; clip-rule:evenodd" xmlns:xlink="http://www.w3.org/1999/xlink">
<g><path style="opacity:1" fill="#e12726" d="M -0.5,-0.5 C 399.5,-0.5 799.5,-0.5 1199.5,-0.5C 1199.5,304.167 1199.5,608.833 1199.5,913.5C 799.5,913.5 399.5,913.5 -0.5,913.5C -0.5,608.833 -0.5,304.167 -0.5,-0.5 Z"/></g>
<g><path style="opacity:1" fill="#fefbfb" d="M 1057.5,131.5 C 1058.82,131.33 1059.99,131.663 1061,132.5C 1063.39,144.061 1064.89,155.728 1065.5,167.5C 1064.13,167.657 1062.79,167.49 1061.5,167C 1047.44,141.648 1027.11,134.648 1000.5,146C 990.714,156.139 988.881,167.639 995,180.5C 1000.52,188.848 1008.02,194.681 1017.5,198C 1030.96,201.819 1043.96,206.819 1056.5,213C 1077.12,226.082 1084.62,244.582 1079,268.5C 1073.15,287.676 1060.32,299.176 1040.5,303C 1029.2,304.46 1017.87,304.793 1006.5,304C 996.302,300.822 986.136,297.656 976,294.5C 974.5,294.667 973,294.833 971.5,295C 969.615,297.222 967.449,299.056 965,300.5C 964.055,300.095 963.388,299.428 963,298.5C 962.333,283.833 962.333,269.167 963,254.5C 965.267,253.065 967.267,253.398 969,255.5C 978.182,287.003 999.015,300.17 1031.5,295C 1048.32,290.054 1056.66,278.721 1056.5,261C 1055.81,249.288 1050.47,240.288 1040.5,234C 1028.49,228.218 1016.15,223.218 1003.5,219C 990.526,214.271 980.359,206.104 973,194.5C 962.101,162.132 973.268,141.966 1006.5,134C 1014.17,133.333 1021.83,133.333 1029.5,134C 1035.76,135.808 1042.09,137.308 1048.5,138.5C 1052.96,138.035 1055.96,135.702 1057.5,131.5 Z"/></g>
<g><path style="opacity:1" fill="#fefdfd" d="M 114.5,132.5 C 159.501,132.333 204.501,132.5 249.5,133C 253.255,135.784 253.255,138.451 249.5,141C 227.712,140.791 213.545,150.958 207,171.5C 205.331,201.12 204.497,230.787 204.5,260.5C 204.667,273.5 204.833,286.5 205,299.5C 205.519,300.516 206.353,301.182 207.5,301.5C 210.527,300.639 213.194,299.139 215.5,297C 240.27,275.564 263.77,252.731 286,228.5C 304.08,210.313 319.747,190.313 333,168.5C 338.028,158.735 335.862,151.235 326.5,146C 319.765,144.545 313.098,142.879 306.5,141C 304.352,138.925 304.018,136.592 305.5,134C 308.039,132.953 310.705,132.453 313.5,132.5C 349.147,134.666 384.813,135.166 420.5,134C 423.167,136.333 423.167,138.667 420.5,141C 409.553,144.307 399.22,148.974 389.5,155C 377.962,162.605 366.962,170.938 356.5,180C 321.015,212.985 286.682,247.152 253.5,282.5C 283.763,318.686 314.263,354.686 345,390.5C 361.765,409.935 379.265,428.768 397.5,447C 413.641,460.495 432.307,467.495 453.5,468C 455.648,470.075 455.982,472.408 454.5,475C 421.162,475.833 387.828,475.667 354.5,474.5C 312.033,422.784 268.033,372.284 222.5,323C 219.23,319.531 215.23,317.364 210.5,316.5C 208.813,316.76 207.313,317.427 206,318.5C 204.873,321.377 204.206,324.377 204,327.5C 203.156,359.182 203.489,390.848 205,422.5C 207.724,453.139 224.558,467.973 255.5,467C 258.207,468.864 259.041,471.364 258,474.5C 214.902,474.295 171.736,474.629 128.5,475.5C 124.167,475.333 119.833,475.167 115.5,475C 112.629,472.16 112.963,469.826 116.5,468C 135.988,468.471 148.821,459.638 155,441.5C 156.645,435.608 157.645,429.608 158,423.5C 158.167,381.333 158.333,339.167 158.5,297C 158.656,253.455 158.156,209.955 157,166.5C 152.365,154.534 143.865,146.7 131.5,143C 125.551,141.927 119.551,141.26 113.5,141C 112.041,137.929 112.374,135.096 114.5,132.5 Z"/></g>
<g><path style="opacity:1" fill="#fefbfb" d="M 818.5,132.5 C 836.445,131.177 853.778,133.677 870.5,140C 877.712,144.106 885.046,147.939 892.5,151.5C 894.697,151.152 896.53,150.152 898,148.5C 898.795,146.099 899.962,143.932 901.5,142C 903.367,141.289 904.867,141.789 906,143.5C 906.822,156.742 906.655,169.909 905.5,183C 904.167,183.667 902.833,183.667 901.5,183C 886.801,153.529 862.801,139.029 829.5,139.5C 806.552,140.72 789.052,151.053 777,170.5C 761.872,200.197 760.539,230.53 773,261.5C 789.28,291.167 814.114,302.334 847.5,295C 856.783,292.785 864.283,287.951 870,280.5C 871.606,268.238 871.939,255.904 871,243.5C 869.5,239.333 866.667,236.5 862.5,235C 857.017,233.046 851.351,232.046 845.5,232C 842.27,230.276 841.936,228.276 844.5,226C 869.739,225.173 894.906,225.339 920,226.5C 920.711,228.367 920.211,229.867 918.5,231C 910.15,230.592 903.65,233.759 899,240.5C 897.809,253.798 897.142,267.131 897,280.5C 873.547,299.453 846.714,307.286 816.5,304C 757.756,296.236 731.256,262.736 737,203.5C 743.305,168.724 763.472,146.557 797.5,137C 804.57,135.155 811.57,133.655 818.5,132.5 Z"/></g>
<g><path style="opacity:1" fill="#fefafa" d="M 930.5,133.5 C 946.985,131.817 954.151,139.151 952,155.5C 948.883,169.696 940.217,176.362 926,175.5C 925.251,174.365 925.417,173.365 926.5,172.5C 934.359,171.299 939.359,166.965 941.5,159.5C 924.383,160.883 918.883,153.55 925,137.5C 927.015,136.303 928.849,134.97 930.5,133.5 Z"/></g>
<g><path style="opacity:1" fill="#fefcfc" d="M 449.5,133.5 C 474.169,133.333 498.836,133.5 523.5,134C 526.167,135.667 526.167,137.333 523.5,139C 512.701,138.345 505.201,142.845 501,152.5C 500.333,196.167 500.333,239.833 501,283.5C 504.346,294.491 511.846,299.657 523.5,299C 524.833,300.333 524.833,301.667 523.5,303C 498.928,303.827 474.428,303.661 450,302.5C 449.316,301.216 449.483,300.049 450.5,299C 460.242,299.716 467.408,295.883 472,287.5C 473.146,264.548 473.646,241.548 473.5,218.5C 473.333,196.833 473.167,175.167 473,153.5C 471.802,149.254 469.302,146.087 465.5,144C 460.116,141.261 454.45,139.428 448.5,138.5C 447.348,136.603 447.681,134.936 449.5,133.5 Z"/></g>
<g><path style="opacity:1" fill="#fefbfb" d="M 695.5,257.5 C 695.56,258.043 695.893,258.376 696.5,258.5C 697.817,252.346 697.817,246.346 696.5,240.5C 696.232,212.164 695.732,183.83 695,155.5C 693.489,149.635 689.989,145.468 684.5,143C 679.923,141.356 675.256,140.022 670.5,139C 669.446,137.612 669.28,136.112 670,134.5C 688.426,133.341 706.926,133.175 725.5,134C 727.527,135.396 727.86,137.062 726.5,139C 714.116,139.097 707.283,145.264 706,157.5C 705.5,204.832 705.333,252.165 705.5,299.5C 701.818,299.665 698.152,299.499 694.5,299C 653,252.833 611.5,206.667 570,160.5C 569.187,200.858 569.853,241.191 572,281.5C 574.559,292.877 581.726,298.71 593.5,299C 594.833,300.333 594.833,301.667 593.5,303C 575.833,303.667 558.167,303.667 540.5,303C 539.273,301.413 539.606,300.079 541.5,299C 552.053,296.429 557.553,289.596 558,278.5C 559.465,235.509 559.798,192.509 559,149.5C 555.597,142.898 550.097,139.398 542.5,139C 541.167,137.333 541.167,135.667 542.5,134C 556.833,133.333 571.167,133.333 585.5,134C 622.003,175.335 658.67,216.502 695.5,257.5 Z"/></g>
<g><path style="opacity:1" fill="#f4b1b0" d="M 696.5,240.5 C 697.817,246.346 697.817,252.346 696.5,258.5C 695.893,258.376 695.56,258.043 695.5,257.5C 696.489,252.025 696.822,246.358 696.5,240.5 Z"/></g>
<g><path style="opacity:1" fill="#fefafa" d="M 544.5,327.5 C 557.516,326.004 569.849,328.171 581.5,334C 585.093,337.274 588.926,340.107 593,342.5C 596.184,342.158 598.684,340.658 600.5,338C 601.784,337.316 602.951,337.483 604,338.5C 600.298,351.783 596.465,365.116 592.5,378.5C 590.533,378.739 588.699,378.406 587,377.5C 589.349,346.515 575.182,332.349 544.5,335C 529.546,340.276 517.046,349.109 507,361.5C 490.47,380.562 479.804,402.562 475,427.5C 472.909,468.398 491.075,481.232 529.5,466C 542.33,460.505 553.496,452.672 563,442.5C 564.796,439.073 566.963,435.906 569.5,433C 570.793,432.51 572.127,432.343 573.5,432.5C 569.477,449.068 564.144,465.235 557.5,481C 556.207,481.49 554.873,481.657 553.5,481.5C 553.922,477.288 553.256,473.288 551.5,469.5C 550.167,469.167 548.833,468.833 547.5,468.5C 536.452,472.57 525.119,475.737 513.5,478C 472.639,481.804 453.472,463.304 456,422.5C 462.521,386.278 481.355,358.445 512.5,339C 522.762,333.638 533.428,329.805 544.5,327.5 Z"/></g>
<g><path style="opacity:1" fill="#fefafa" d="M 750.5,327.5 C 754.167,327.5 757.833,327.5 761.5,327.5C 761.579,330.271 761.079,332.937 760,335.5C 741,377.5 722,419.5 703,461.5C 702.184,465.414 703.351,466.247 706.5,464C 712.343,459.323 717.676,454.157 722.5,448.5C 724.283,449.348 724.783,450.681 724,452.5C 717.405,462.429 708.905,470.262 698.5,476C 686.149,479.979 682.316,475.812 687,463.5C 706.03,421.274 725.196,379.107 744.5,337C 744.355,336.228 744.022,335.561 743.5,335C 739.916,333.927 736.25,333.26 732.5,333C 731.273,331.413 731.606,330.079 733.5,329C 739.348,328.827 745.015,328.327 750.5,327.5 Z"/></g>
<g><path style="opacity:1" fill="#fefaf9" d="M 802.5,327.5 C 806.167,327.5 809.833,327.5 813.5,327.5C 813.222,331.732 812.056,335.732 810,339.5C 791.167,381.167 772.333,422.833 753.5,464.5C 755.187,465.568 756.854,465.401 758.5,464C 763.939,459.473 768.939,454.473 773.5,449C 774.965,448.399 775.965,448.899 776.5,450.5C 770.308,461.526 761.641,470.026 750.5,476C 746.928,477.405 743.261,477.738 739.5,477C 736.903,474.683 736.07,471.85 737,468.5C 755.452,426.262 774.452,384.262 794,342.5C 795.079,339.937 795.579,337.271 795.5,334.5C 791.858,333.92 788.191,333.42 784.5,333C 783.273,331.413 783.606,330.079 785.5,329C 791.348,328.827 797.015,328.327 802.5,327.5 Z"/></g>
<g><path style="opacity:1" fill="#fefaf9" d="M 647.5,365.5 C 668.248,362.089 680.081,370.756 683,391.5C 684.402,422.197 673.568,447.697 650.5,468C 640.729,475.479 629.729,478.479 617.5,477C 606.385,473.549 599.885,466.049 598,454.5C 594.96,420.43 606.793,392.93 633.5,372C 638.137,369.511 642.804,367.344 647.5,365.5 Z"/></g>
<g><path style="opacity:1" fill="#fef9f9" d="M 983.5,366.5 C 988.297,366.121 992.964,366.621 997.5,368C 998.602,370.401 998.769,372.901 998,375.5C 996.701,376.98 995.034,377.646 993,377.5C 989.462,376.237 985.796,375.571 982,375.5C 979.083,375.335 976.417,376.002 974,377.5C 975.968,421.192 955.135,440.359 911.5,435C 908.943,435.685 907.109,437.185 906,439.5C 905.299,442.928 905.632,446.262 907,449.5C 909.167,451.667 911.333,453.833 913.5,456C 922.833,461.667 932.167,467.333 941.5,473C 948.096,477.594 953.262,483.427 957,490.5C 960.398,501.305 957.565,510.139 948.5,517C 931.59,526.019 913.59,529.019 894.5,526C 881.328,524.509 871.161,518.343 864,507.5C 859.307,496.699 861.807,487.865 871.5,481C 880.528,474.992 890.194,470.325 900.5,467C 892.809,461.787 889.309,454.62 890,445.5C 894.555,436.957 901.555,431.29 911,428.5C 910.3,424.401 908.967,420.401 907,416.5C 906.523,391.993 918.023,375.827 941.5,368C 947.833,367.333 954.167,367.333 960.5,368C 964.018,369.533 967.518,371.033 971,372.5C 975.55,371.072 979.716,369.072 983.5,366.5 Z"/></g>
<g><path style="opacity:1" fill="#fef9f9" d="M 864.5,368.5 C 869.844,368.334 875.177,368.501 880.5,369C 887.51,371.013 891.177,375.68 891.5,383C 890.899,392.588 886.566,399.921 878.5,405C 860.103,414.199 840.769,420.532 820.5,424C 813.472,434.27 811.305,445.437 814,457.5C 816.68,464.162 821.68,467.829 829,468.5C 835.651,467.727 841.818,465.561 847.5,462C 852.938,458.398 857.938,454.232 862.5,449.5C 864.101,450.035 864.601,451.035 864,452.5C 851.636,469.932 834.803,478.099 813.5,477C 801.761,473.087 796.094,464.921 796.5,452.5C 797.96,432.249 805.46,414.583 819,399.5C 831.487,385.024 846.654,374.69 864.5,368.5 Z"/></g>
<g><path style="opacity:1" fill="#fef9f9" d="M 1051.5,368.5 C 1057.18,368.334 1062.84,368.501 1068.5,369C 1077.68,372.86 1080.84,379.693 1078,389.5C 1073.8,399.369 1066.63,406.203 1056.5,410C 1040.78,415.597 1024.78,420.264 1008.5,424C 999.891,436.05 998.391,448.884 1004,462.5C 1010.98,468.974 1018.82,470.141 1027.5,466C 1035.97,462.522 1042.97,457.189 1048.5,450C 1051.13,449.075 1052.3,449.909 1052,452.5C 1039.66,469.921 1022.83,478.087 1001.5,477C 993.073,474.905 987.573,469.739 985,461.5C 983.45,450.127 984.784,439.127 989,428.5C 1001.94,400.054 1022.77,380.054 1051.5,368.5 Z"/></g>
<g><path style="opacity:1" fill="#e12927" d="M 656.5,371.5 C 665.414,369.728 671.247,373.061 674,381.5C 674.474,395.096 671.807,408.096 666,420.5C 658.593,438.5 647.426,453.667 632.5,466C 616.876,474.693 608.876,470.193 608.5,452.5C 612.372,422.589 625.372,397.422 647.5,377C 650.564,375.141 653.564,373.308 656.5,371.5 Z"/></g>
<g><path style="opacity:1" fill="#e12a28" d="M 948.5,372.5 C 960.155,370.323 964.989,374.99 963,386.5C 959.915,400.844 953.081,413.01 942.5,423C 924.101,433.878 916.601,428.711 920,407.5C 925.358,392.323 934.858,380.656 948.5,372.5 Z"/></g>
<g><path style="opacity:1" fill="#e12b28" d="M 864.5,374.5 C 875.254,374.006 879.42,379.006 877,389.5C 872.372,399.076 864.872,405.243 854.5,408C 846.958,410.469 839.291,412.469 831.5,414C 829.421,414.808 827.421,414.641 825.5,413.5C 832.486,401.012 841.486,390.179 852.5,381C 856.434,378.536 860.434,376.369 864.5,374.5 Z"/></g>
<g><path style="opacity:1" fill="#e12b28" d="M 1048.5,375.5 C 1052.85,375.334 1057.18,375.501 1061.5,376C 1065.13,379.05 1066.3,382.883 1065,387.5C 1063.09,393.49 1059.59,398.323 1054.5,402C 1041.66,408.89 1028,413.056 1013.5,414.5C 1021.26,398.067 1032.93,385.067 1048.5,375.5 Z"/></g>
<g><path style="opacity:1" fill="#e12927" d="M 904.5,472.5 C 917.875,477.277 929.375,484.943 939,495.5C 942.744,501.789 942.244,507.622 937.5,513C 932.921,515.973 927.921,517.973 922.5,519C 915.167,519.667 907.833,519.667 900.5,519C 888.433,516.267 881.1,508.934 878.5,497C 878.828,491.012 881.495,486.346 886.5,483C 892.399,479.221 898.399,475.721 904.5,472.5 Z"/></g>
<g><path style="opacity:1" fill="#fefbfb" d="M 333.5,532.5 C 364.949,530.146 389.449,541.812 407,567.5C 416.567,586.139 419.234,605.806 415,626.5C 407.833,655 390,672.833 361.5,680C 330.732,686.633 305.232,678.133 285,654.5C 264.443,623.092 264.443,591.759 285,560.5C 297.728,545.058 313.894,535.724 333.5,532.5 Z"/></g>
<g><path style="opacity:1" fill="#fefcfc" d="M 598.5,532.5 C 629.186,532.13 659.852,532.63 690.5,534C 723.554,537.724 743.054,555.891 749,588.5C 755.095,640.853 732.262,671.353 680.5,680C 652.833,680.667 625.167,680.667 597.5,680C 596.253,678.506 596.253,677.006 597.5,675.5C 606.552,676.236 612.052,672.236 614,663.5C 614.667,624.833 614.667,586.167 614,547.5C 610.729,541.439 605.562,538.272 598.5,538C 597.248,536.172 597.248,534.339 598.5,532.5 Z"/></g>
<g><path style="opacity:1" fill="#fefbfb" d="M 832.5,532.5 C 862.95,530.148 887.117,541.148 905,565.5C 920.815,594.865 920.149,623.865 903,652.5C 890.928,668.792 874.761,678.292 854.5,681C 811.243,685.311 783.41,666.811 771,625.5C 764.03,591.387 774.53,564.221 802.5,544C 811.877,538.268 821.877,534.434 832.5,532.5 Z"/></g>
<g><path style="opacity:1" fill="#fefcfc" d="M 125.5,533.5 C 146.503,533.333 167.503,533.5 188.5,534C 189.38,535.356 189.714,536.856 189.5,538.5C 180.514,537.906 174.014,541.573 170,549.5C 169.333,587.167 169.333,624.833 170,662.5C 172.401,668.554 176.901,672.054 183.5,673C 194.5,673.667 205.5,673.667 216.5,673C 239.315,671.186 254.149,659.352 261,637.5C 262.356,636.62 263.856,636.286 265.5,636.5C 263.165,651.172 260.832,665.838 258.5,680.5C 214.594,680.83 170.761,680.497 127,679.5C 126.316,678.216 126.483,677.049 127.5,676C 138.655,675.836 145.155,670.336 147,659.5C 147.667,623.5 147.667,587.5 147,551.5C 145.5,544.667 141.333,540.5 134.5,539C 131.5,538.667 128.5,538.333 125.5,538C 124.272,536.51 124.272,535.01 125.5,533.5 Z"/></g>
<g><path style="opacity:1" fill="#fefcfc" d="M 450.5,552.5 C 450.217,551.711 449.717,551.044 449,550.5C 448.172,565.339 448.339,580.006 449.5,594.5C 449.333,616.169 449.5,637.836 450,659.5C 451.182,670.664 457.349,676.164 468.5,676C 469.38,677.356 469.714,678.856 469.5,680.5C 454.163,680.667 438.83,680.5 423.5,680C 422.273,678.413 422.606,677.079 424.5,676C 433.965,675.3 439.131,670.133 440,660.5C 440.667,622.167 440.667,583.833 440,545.5C 436.942,540.577 432.442,538.077 426.5,538C 425.483,536.951 425.316,535.784 426,534.5C 439.091,533.345 452.258,533.178 465.5,534C 497.042,570.54 528.209,607.373 559,644.5C 559.787,612.821 559.454,581.154 558,549.5C 555.512,543.479 551.012,539.646 544.5,538C 541.854,537.503 539.187,537.336 536.5,537.5C 536.33,536.178 536.663,535.011 537.5,534C 554.167,533.333 570.833,533.333 587.5,534C 588.337,535.011 588.67,536.178 588.5,537.5C 577.64,536.557 570.807,541.224 568,551.5C 567.5,594.499 567.333,637.499 567.5,680.5C 562.145,681.655 557.978,679.988 555,675.5C 520.149,634.429 485.315,593.429 450.5,552.5 Z"/></g>
<g><path style="opacity:1" fill="#fefbfa" d="M 1056.5,643.5 C 1056.56,644.043 1056.89,644.376 1057.5,644.5C 1058.82,636.677 1058.82,629.01 1057.5,621.5C 1057.67,598.164 1057.5,574.831 1057,551.5C 1056.06,547.793 1054.23,544.626 1051.5,542C 1046.51,539.253 1041.18,537.753 1035.5,537.5C 1035.5,536.167 1035.5,534.833 1035.5,533.5C 1052.5,533.5 1069.5,533.5 1086.5,533.5C 1086.5,534.833 1086.5,536.167 1086.5,537.5C 1076.99,536.83 1070.49,540.83 1067,549.5C 1065.79,593.158 1065.29,636.825 1065.5,680.5C 1061.99,681.006 1058.83,680.34 1056,678.5C 1020.38,635.873 984.375,593.54 948,551.5C 947.508,588.505 947.841,625.505 949,662.5C 951.346,671.512 957.179,676.012 966.5,676C 968.394,677.079 968.727,678.413 967.5,680C 952.17,680.5 936.837,680.667 921.5,680.5C 921.286,678.856 921.62,677.356 922.5,676C 932.268,675.566 937.434,670.399 938,660.5C 938.667,622.167 938.667,583.833 938,545.5C 935.142,540.202 930.642,537.702 924.5,538C 923.167,536.667 923.167,535.333 924.5,534C 937.5,533.333 950.5,533.333 963.5,534C 994.71,570.373 1025.71,606.873 1056.5,643.5 Z"/></g>
<g><path style="opacity:1" fill="#e12827" d="M 335.5,539.5 C 364.049,539.206 382.216,552.873 390,580.5C 396.186,606.491 393.519,631.491 382,655.5C 367.473,673.948 348.973,679.448 326.5,672C 312.662,665.159 303.496,654.326 299,639.5C 291.081,615.223 291.748,591.223 301,567.5C 308.228,552.76 319.728,543.426 335.5,539.5 Z"/></g>
<g><path style="opacity:1" fill="#e12826" d="M 646.5,539.5 C 665.148,537.415 682.814,540.581 699.5,549C 714.804,559.757 723.304,574.59 725,593.5C 727.231,614.729 722.898,634.395 712,652.5C 701.539,665.217 688.039,672.05 671.5,673C 663.833,673.667 656.167,673.667 648.5,673C 643,671.5 639.5,668 638,662.5C 636.364,624.205 636.031,585.872 637,547.5C 639.161,543.495 642.328,540.829 646.5,539.5 Z"/></g>
<g><path style="opacity:1" fill="#e12826" d="M 833.5,539.5 C 859.484,537.98 877.317,549.313 887,573.5C 894.453,597.891 894.12,622.224 886,646.5C 875.035,669.566 856.868,678.733 831.5,674C 816.118,668.952 805.618,658.786 800,643.5C 791.384,618.485 791.384,593.485 800,568.5C 806.758,553.565 817.925,543.898 833.5,539.5 Z"/></g>
<g><path style="opacity:1" fill="#f4acab" d="M 450.5,552.5 C 449.504,566.323 449.171,580.323 449.5,594.5C 448.339,580.006 448.172,565.339 449,550.5C 449.717,551.044 450.217,551.711 450.5,552.5 Z"/></g>
<g><path style="opacity:1" fill="#f29f9e" d="M 1057.5,621.5 C 1058.82,629.01 1058.82,636.677 1057.5,644.5C 1056.89,644.376 1056.56,644.043 1056.5,643.5C 1057.49,636.352 1057.82,629.019 1057.5,621.5 Z"/></g>
<g><path style="opacity:1" fill="#fef6f6" d="M 129.5,732.5 C 441.167,732.5 752.833,732.5 1064.5,732.5C 1064.5,735.5 1064.5,738.5 1064.5,741.5C 752.833,741.5 441.167,741.5 129.5,741.5C 129.5,738.5 129.5,735.5 129.5,732.5 Z"/></g>
<g><path style="opacity:1" fill="#fefefe" d="M 129.5,761.5 C 441.167,761.5 752.833,761.5 1064.5,761.5C 1064.5,768.167 1064.5,774.833 1064.5,781.5C 752.833,781.5 441.167,781.5 129.5,781.5C 129.5,774.833 129.5,768.167 129.5,761.5 Z"/></g>
</svg>
