<?xml version="1.0" encoding="UTF-8" standalone="no"?>
<!DOCTYPE svg PUBLIC "-//W3C//DTD SVG 1.1//EN" "http://www.w3.org/Graphics/SVG/1.1/DTD/svg11.dtd">
<svg xmlns="http://www.w3.org/2000/svg" version="1.1" viewBox="0.00 0.00 400.00 400.00">
<g stroke-width="2.00" fill="none" stroke-linecap="butt">
<path stroke="#c08080" vector-effect="non-scaling-stroke" d="
  M 180.00 197.24
  L 180.00 69.00
  A 0.75 0.75 0.0 0 0 179.25 68.25
  L 115.13 68.24
  A 0.38 0.38 0.0 0 0 114.75 68.62
  L 114.75 196.38
  A 1.13 1.12 -0.0 0 1 113.62 197.50
  L 92.74 197.50
  Q 92.00 197.50 92.27 198.20
  Q 102.33 223.87 112.10 249.59
  Q 113.75 253.93 113.75 257.25
  Q 113.75 293.61 113.72 331.46
  A 0.29 0.29 0.0 0 0 114.01 331.75
  L 177.23 331.75
  A 0.48 0.48 0.0 0 0 177.71 331.27
  L 177.74 256.74
  Q 177.74 256.16 178.19 255.78
  C 184.62 250.44 193.81 255.86 197.96 261.56
  Q 203.16 268.71 209.45 282.31
  Q 220.81 306.86 231.50 331.81
  A 0.74 0.74 0.0 0 0 232.18 332.26
  L 307.75 332.25
  A 0.33 0.33 0.0 0 0 308.04 331.75
  Q 280.12 285.06 251.15 239.04
  Q 241.19 223.23 238.27 218.96
  C 224.48 198.80 202.87 198.25 180.52 197.78
  Q 180.00 197.77 180.00 197.24"
/>
<path stroke="#c08080" vector-effect="non-scaling-stroke" d="
  M 289.60 128.76
  C 272.48 81.48 234.50 67.67 187.48 68.28
  Q 187.03 68.29 187.03 68.74
  L 186.94 128.07
  Q 186.94 128.64 187.52 128.62
  C 202.47 128.07 220.48 132.34 227.46 146.04
  C 235.83 162.49 230.03 180.74 217.23 193.31
  Q 216.74 193.80 217.40 194.00
  C 238.83 200.58 249.13 219.39 259.43 237.75
  A 0.91 0.90 59.0 0 0 260.70 238.07
  C 272.87 230.35 282.50 214.97 287.78 201.89
  Q 302.68 164.92 289.60 128.76"
/>
</g>
<path fill="#800000" d="
  M 0.00 0.00
  L 400.00 0.00
  L 400.00 400.00
  L 0.00 400.00
  L 0.00 0.00
  Z
  M 180.00 197.24
  L 180.00 69.00
  A 0.75 0.75 0.0 0 0 179.25 68.25
  L 115.13 68.24
  A 0.38 0.38 0.0 0 0 114.75 68.62
  L 114.75 196.38
  A 1.13 1.12 -0.0 0 1 113.62 197.50
  L 92.74 197.50
  Q 92.00 197.50 92.27 198.20
  Q 102.33 223.87 112.10 249.59
  Q 113.75 253.93 113.75 257.25
  Q 113.75 293.61 113.72 331.46
  A 0.29 0.29 0.0 0 0 114.01 331.75
  L 177.23 331.75
  A 0.48 0.48 0.0 0 0 177.71 331.27
  L 177.74 256.74
  Q 177.74 256.16 178.19 255.78
  C 184.62 250.44 193.81 255.86 197.96 261.56
  Q 203.16 268.71 209.45 282.31
  Q 220.81 306.86 231.50 331.81
  A 0.74 0.74 0.0 0 0 232.18 332.26
  L 307.75 332.25
  A 0.33 0.33 0.0 0 0 308.04 331.75
  Q 280.12 285.06 251.15 239.04
  Q 241.19 223.23 238.27 218.96
  C 224.48 198.80 202.87 198.25 180.52 197.78
  Q 180.00 197.77 180.00 197.24
  Z
  M 289.60 128.76
  C 272.48 81.48 234.50 67.67 187.48 68.28
  Q 187.03 68.29 187.03 68.74
  L 186.94 128.07
  Q 186.94 128.64 187.52 128.62
  C 202.47 128.07 220.48 132.34 227.46 146.04
  C 235.83 162.49 230.03 180.74 217.23 193.31
  Q 216.74 193.80 217.40 194.00
  C 238.83 200.58 249.13 219.39 259.43 237.75
  A 0.91 0.90 59.0 0 0 260.70 238.07
  C 272.87 230.35 282.50 214.97 287.78 201.89
  Q 302.68 164.92 289.60 128.76
  Z"
/>
<path fill="#ffffff" d="
  M 180.52 197.78
  C 202.87 198.25 224.48 198.80 238.27 218.96
  Q 241.19 223.23 251.15 239.04
  Q 280.12 285.06 308.04 331.75
  A 0.33 0.33 0.0 0 1 307.75 332.25
  L 232.18 332.26
  A 0.74 0.74 0.0 0 1 231.50 331.81
  Q 220.81 306.86 209.45 282.31
  Q 203.16 268.71 197.96 261.56
  C 193.81 255.86 184.62 250.44 178.19 255.78
  Q 177.74 256.16 177.74 256.74
  L 177.71 331.27
  A 0.48 0.48 0.0 0 1 177.23 331.75
  L 114.01 331.75
  A 0.29 0.29 0.0 0 1 113.72 331.46
  Q 113.75 293.61 113.75 257.25
  Q 113.75 253.93 112.10 249.59
  Q 102.33 223.87 92.27 198.20
  Q 92.00 197.50 92.74 197.50
  L 113.62 197.50
  A 1.13 1.12 0.0 0 0 114.75 196.38
  L 114.75 68.62
  A 0.38 0.38 0.0 0 1 115.13 68.24
  L 179.25 68.25
  A 0.75 0.75 0.0 0 1 180.00 69.00
  L 180.00 197.24
  Q 180.00 197.77 180.52 197.78
  Z"
/>
<path fill="#ffffff" d="
  M 187.48 68.28
  C 234.50 67.67 272.48 81.48 289.60 128.76
  Q 302.68 164.92 287.78 201.89
  C 282.50 214.97 272.87 230.35 260.70 238.07
  A 0.91 0.90 59.0 0 1 259.43 237.75
  C 249.13 219.39 238.83 200.58 217.40 194.00
  Q 216.74 193.80 217.23 193.31
  C 230.03 180.74 235.83 162.49 227.46 146.04
  C 220.48 132.34 202.47 128.07 187.52 128.62
  Q 186.94 128.64 186.94 128.07
  L 187.03 68.74
  Q 187.03 68.29 187.48 68.28
  Z"
/>
</svg>
