<?xml version="1.0" encoding="UTF-8" standalone="no"?>
<!-- Created with Inkscape (http://www.inkscape.org/) -->

<svg
   xmlns:dc="http://purl.org/dc/elements/1.1/"
   xmlns:cc="http://creativecommons.org/ns#"
   xmlns:rdf="http://www.w3.org/1999/02/22-rdf-syntax-ns#"
   xmlns:svg="http://www.w3.org/2000/svg"
   xmlns="http://www.w3.org/2000/svg"
   xmlns:sodipodi="http://sodipodi.sourceforge.net/DTD/sodipodi-0.dtd"
   xmlns:inkscape="http://www.inkscape.org/namespaces/inkscape"
   width="59.53125mm"
   height="16.01441mm"
   viewBox="0 0 59.53125 16.01441"
   version="1.1"
   id="svg8"
   inkscape:version="0.92.2 (5c3e80d, 2017-08-06)"
   sodipodi:docname="Turkish_Airlines_logo_2019_compact.svg">
  <defs
     id="defs2" />
  <sodipodi:namedview
     id="base"
     pagecolor="#ffffff"
     bordercolor="#666666"
     borderopacity="1.0"
     inkscape:pageopacity="0.0"
     inkscape:pageshadow="2"
     inkscape:zoom="2.8"
     inkscape:cx="94.815385"
     inkscape:cy="27.099004"
     inkscape:document-units="mm"
     inkscape:current-layer="layer1"
     showgrid="false"
     inkscape:window-width="1366"
     inkscape:window-height="705"
     inkscape:window-x="-8"
     inkscape:window-y="-8"
     inkscape:window-maximized="1" />
  <metadata
     id="metadata5">
    <rdf:RDF>
      <cc:Work
         rdf:about="">
        <dc:format>image/svg+xml</dc:format>
        <dc:type
           rdf:resource="http://purl.org/dc/dcmitype/StillImage" />
        <dc:title></dc:title>
      </cc:Work>
    </rdf:RDF>
  </metadata>
  <g
     inkscape:label="Layer 1"
     inkscape:groupmode="layer"
     id="layer1"
     transform="translate(-54.158319,-102.269)">
    <g
       id="g34"
       transform="matrix(0.26117163,0,0,0.26117163,54.592992,102.38805)">
      <g
         id="text">
        <g
           id="g539">
          <path
             d="m 217.1,26.7 v -10 h -10 v 10 h -5.5 V 3 h 5.5 v 9.4 h 10 V 3 h 5.5 v 23.7 z"
             inkscape:connector-curvature="0"
             id="path110" />
          <path
             d="m 99.1,3 v 14.8 c 0,1.6 0.2,3.1 0.7,4.2 0.5,1.1 1.2,2.1 2,2.8 0.9,0.7 2,1.3 3.2,1.6 1.2,0.3 2.6,0.5 4.2,0.5 1.5,0 2.9,-0.2 4.1,-0.5 1.2,-0.3 2.2,-0.9 3,-1.6 0.8,-0.7 1.5,-1.7 1.9,-2.8 0.5,-1.2 0.7,-2.6 0.7,-4.2 V 3 h -5.1 v 14.7 c 0,1.5 -0.4,2.7 -1.1,3.6 -0.7,0.9 -1.9,1.4 -3.5,1.4 -1.6,0 -2.8,-0.5 -3.5,-1.4 -0.7,-0.9 -1.1,-2.1 -1.1,-3.6 V 3 Z"
             inkscape:connector-curvature="0"
             id="path122" />
          <path
             d="M 83.3,26.7 V 7.4 H 76.9 V 3 h 18.4 v 2.1 c 0,1.3 -1,2.3 -2.3,2.3 h -4.2 v 19.3 z"
             inkscape:connector-curvature="0"
             id="path126" />
          <path
             d="m 171.3,3 h 5.5 v 23.7 h -5.5 z"
             inkscape:connector-curvature="0"
             id="path128" />
          <path
             d="m 153.1,15.6 0.2,0.2 7,9 c 0.9,1.1 2.2,1.8 3.7,1.8 h 4.4 l -10,-12.8 -0.1,-0.2 0.1,-0.2 8.2,-10.4 h -5.7 l -7.6,10.2 -0.2,0.2 V 13 3 h -5.5 v 23.7 h 5.5 V 16 Z"
             inkscape:connector-curvature="0"
             id="path140" />
          <path
             d="m 140.5,26.7 c -1.6,0 -3.2,-0.9 -4,-2.2 l -4.3,-7 h -2.7 v 9.3 H 124 V 3 h 9.8 c 2.5,0 4.5,0.7 5.8,1.9 1.4,1.3 2.1,3.1 2.1,5.2 0,1.1 -0.3,2.2 -0.9,3.3 -0.6,1.1 -1.6,2 -3,2.7 l -0.3,0.1 6.7,10.4 h -3.7 z m -11,-12.9 h 3.2 c 1.1,0 2,-0.3 2.6,-0.9 0.6,-0.6 0.9,-1.4 0.9,-2.4 0,-1 -0.3,-1.8 -0.8,-2.4 -0.6,-0.6 -1.4,-0.9 -2.6,-0.9 h -3.2 v 6.6 z"
             inkscape:connector-curvature="0"
             id="path144" />
          <path
             d="m 181.3,25.7 v -4.5 c 1.7,0.8 4,1.6 6.3,1.6 2.7,0 4,-0.9 4,-2.7 0,-2.1 -1.8,-2.3 -5.5,-3.9 -2.5,-1.1 -4.8,-2.8 -4.8,-6.8 0,-4.6 3.5,-6.8 8.4,-6.8 2.6,0 4.8,0.6 6,1.1 v 4.4 c -1.2,-0.6 -3.4,-1.3 -5.7,-1.3 -2.4,0 -3.5,0.9 -3.5,2.4 0,1.6 1.4,2.1 3.8,3 3.1,1.6 6.8,2.3 6.8,7.6 0,4.6 -3.7,7.1 -8.6,7.1 -2.9,0.1 -5.3,-0.4 -7.2,-1.2"
             inkscape:connector-curvature="0"
             id="path148" />
        </g>
        <g
           id="g530">
          <path
             d="M 189.9,57.6 V 33.9 h 14.8 V 36 c 0,1.3 -1,2.3 -2.3,2.3 h -7.1 v 5.1 h 8 v 4 h -8 v 5.8 h 9.4 v 4.4 z"
             inkscape:connector-curvature="0"
             id="path152" />
          <path
             d="M 135.7,57.6 V 33.9 h 2.7 c 1.6,0 2.8,1.3 2.8,2.8 v 16.6 h 8.7 v 4.3 z"
             inkscape:connector-curvature="0"
             id="path156" />
          <path
             d="M 101.8,57.6 V 33.9 h 5.5 v 23.7 z"
             inkscape:connector-curvature="0"
             id="path160" />
          <path
             d="m 128.7,57.6 c -1.6,0 -3.2,-0.9 -4,-2.2 l -4.3,-7 h -2.7 v 9.3 h -5.5 V 33.9 h 9.8 c 2.5,0 4.5,0.7 5.8,1.9 1.4,1.3 2.1,3.1 2.1,5.2 0,1.1 -0.3,2.2 -0.9,3.4 -0.6,1.1 -1.6,2 -3,2.7 l -0.3,0.1 6.7,10.4 z M 117.8,44.7 h 3.2 c 1.2,0 2,-0.3 2.6,-0.9 0.6,-0.6 0.9,-1.4 0.9,-2.4 0,-1 -0.3,-1.8 -0.8,-2.4 -0.6,-0.6 -1.4,-0.9 -2.6,-0.9 h -3.2 z"
             inkscape:connector-curvature="0"
             id="path172" />
          <path
             d="m 89.8,33.9 h -6.3 l -8.9,23.7 h 3.9 c 1,0 1.9,-0.6 2.2,-1.6 l 0.9,-2.8 h 9.6 l 1.4,4.4 h 5.9 z M 83,49 85.1,43 c 0.5,-1.3 1,-2.8 1.3,-3.8 h 0.1 c 0.3,1.1 0.8,2.4 1.2,3.8 l 2.1,6 z"
             inkscape:connector-curvature="0"
             id="path176" />
          <path
             d="m 209.1,56.6 v -4.5 c 1.7,0.8 4,1.6 6.3,1.6 2.7,0 4,-0.9 4,-2.7 0,-2.1 -1.8,-2.3 -5.5,-3.9 -2.5,-1.1 -4.8,-2.8 -4.8,-6.8 0,-4.6 3.5,-6.8 8.4,-6.8 2.6,0 4.8,0.6 6,1.1 V 39 c -1.2,-0.6 -3.4,-1.3 -5.7,-1.3 -2.4,0 -3.5,0.9 -3.5,2.4 0,1.6 1.4,2.1 3.8,3 3.1,1.6 6.8,2.3 6.8,7.6 0,4.6 -3.7,7.1 -8.6,7.1 -2.9,0.1 -5.3,-0.4 -7.2,-1.2"
             inkscape:connector-curvature="0"
             id="path180" />
          <path
             d="m 164,33.9 h 3.4 c 1.6,0 3.1,0.8 4,2.2 l 6.6,10.6 c 0.7,1.2 1.6,2.7 2.1,3.8 h 0.1 c -0.1,-1.1 -0.1,-2.5 -0.1,-3.6 v -13 h 4.8 v 23.7 h -6 l -8,-12.8 c -0.7,-1.2 -1.5,-2.6 -2.1,-3.7 h -0.1 c 0,1 0.1,2.2 0.1,3.4 V 57.6 H 164 Z"
             inkscape:connector-curvature="0"
             id="path184" />
          <path
             d="m 153.5,33.9 h 5.5 v 23.7 h -5.5 z"
             inkscape:connector-curvature="0"
             id="path186" />
        </g>
      </g>
      <g
         id="g32">
        <path
           d="M 33.4,0.2 C 48.6,1.8 60.5,14.6 60.5,30.3 60.5,47 47,60.5 30.3,60.5 13.6,60.5 0,47 0,30.3 0,13.6 13.5,0 30.3,0 c 1,0 2.1,0.1 3.1,0.2 M 35,58.4 C 50.5,55.8 61,41.1 58.4,25.5 56.2,12.6 45.7,3.2 33.3,1.9 30.8,1.6 28.2,1.7 25.6,2.1 22.5,2.6 19.6,3.6 17,5 c 13.6,4.7 21,11.8 21.5,19 0.3,4.5 -1.8,7.7 -4.6,10.3 L 53.3,33 c 0.5,0 0.7,0.6 0.1,0.8 L 7.1,47 c 4.7,6.5 12,10.8 20.1,11.6 2.6,0.3 5.2,0.3 7.8,-0.2 M 22.3,30.9 C 24.8,21.4 21.9,11.4 15,6.1 5.6,12.1 0.1,23.3 2.1,35 c 0.6,3.9 2,7.4 4,10.5 7.4,-2 13.9,-5.9 16.2,-14.6"
           class="st0"
           inkscape:connector-curvature="0"
           id="white"
           style="fill:#ffffff" />
        <path
           d="M 35,58.4 C 50.5,55.8 61,41.1 58.4,25.5 56.2,12.6 45.7,3.2 33.3,1.9 30.8,1.6 28.2,1.7 25.6,2.1 22.5,2.6 19.6,3.6 17,5 c 13.6,4.7 21,11.8 21.5,19 0.3,4.5 -1.8,7.7 -4.6,10.3 L 53.3,33 c 0.5,0 0.7,0.6 0.1,0.8 L 7.1,47 c 4.7,6.5 12,10.8 20.1,11.6 2.6,0.3 5.2,0.3 7.8,-0.2 z M 22.3,30.9 C 24.8,21.4 21.9,11.4 15,6.1 5.6,12.1 0.1,23.3 2.1,35 c 0.6,3.9 2,7.4 4,10.5 7.4,-2 13.9,-5.9 16.2,-14.6 z"
           class="st1"
           sodipodi:nodetypes="ccccccccccccccccc"
           inkscape:connector-curvature="0"
           id="red"
           style="fill:#c70a0c" />
      </g>
    </g>
  </g>
  <style
     id="style10"
     type="text/css">
	.st0{fill:#FFFFFF;}
	.st1{fill:#C70A0C;}
</style>
</svg>
