<?xml version="1.0" encoding="UTF-8"?>
<!DOCTYPE svg PUBLIC "-//W3C//DTD SVG 1.1//EN" "http://www.w3.org/Graphics/SVG/1.1/DTD/svg11.dtd">
<svg xmlns="http://www.w3.org/2000/svg" version="1.1" width="295px" height="225px" style="shape-rendering:geometricPrecision; text-rendering:geometricPrecision; image-rendering:optimizeQuality; fill-rule:evenodd; clip-rule:evenodd" xmlns:xlink="http://www.w3.org/1999/xlink">
<g><path style="opacity:1" fill="#6ec62f" d="M -0.5,-0.5 C 36.5,-0.5 73.5,-0.5 110.5,-0.5C 124.506,3.5037 134.506,12.1704 140.5,25.5C 140.108,28.7216 140.608,31.7216 142,34.5C 142.833,59.5067 142.666,84.5067 141.5,109.5C 140.708,112.973 139.708,116.306 138.5,119.5C 136.567,119.729 134.9,120.562 133.5,122C 133.957,122.414 134.291,122.914 134.5,123.5C 133.147,124.524 132.48,125.857 132.5,127.5C 130.475,129.196 128.475,130.863 126.5,132.5C 98.0657,142.707 81.0657,133.04 75.5,103.5C 75.6666,80.4976 75.5,57.4976 75,34.5C 67.7348,33.1732 60.5681,33.1732 53.5,34.5C 49.4966,34.4905 46.4966,36.1571 44.5,39.5C 43.1103,40.8993 42.1103,42.5659 41.5,44.5C 40.8826,44.6107 40.3826,44.944 40,45.5C 39.171,65.0044 39.3377,84.3377 40.5,103.5C 40.1164,107.489 40.783,111.155 42.5,114.5C 48.9896,143.156 66.6563,160.656 95.5,167C 104.861,167.721 114.194,167.554 123.5,166.5C 127.56,165.482 131.56,164.148 135.5,162.5C 136.833,162.167 138.167,161.833 139.5,161.5C 140.708,160.766 142.041,160.433 143.5,160.5C 143.83,179.674 143.497,198.674 142.5,217.5C 142.167,217.5 141.833,217.5 141.5,217.5C 137.023,205.896 128.69,198.396 116.5,195C 113.211,194.118 109.877,193.452 106.5,193C 83.5,192.667 60.5,192.333 37.5,192C 30.4151,190.916 23.7485,188.749 17.5,185.5C 15.8333,183.5 14.1667,181.5 12.5,179.5C 12.7118,177.616 13.7118,176.283 15.5,175.5C 14.6721,174.585 13.6721,173.919 12.5,173.5C 11.4763,174.853 10.143,175.52 8.5,175.5C 8.51909,173.94 8.85242,172.44 9.5,171C 8.57645,169.189 7.74312,169.355 7,171.5C 6.66667,170.167 6.33333,168.833 6,167.5C 5.66667,167.833 5.33333,168.167 5,168.5C 4.13251,166.316 3.29918,164.149 2.5,162C 4.24606,158.953 3.24606,157.786 -0.5,158.5C -0.5,105.5 -0.5,52.5 -0.5,-0.5 Z"/></g>
<g><path style="opacity:1" fill="#fdfdfc" d="M 53.5,34.5 C 60.1667,34.5 66.8333,34.5 73.5,34.5C 72.8436,57.8576 73.5103,80.8576 75.5,103.5C 81.0657,133.04 98.0657,142.707 126.5,132.5C 128.124,132.36 129.29,133.027 130,134.5C 130.667,142.833 130.667,151.167 130,159.5C 129.167,161.667 127.667,163.167 125.5,164C 125.833,164.333 126.167,164.667 126.5,165C 125.263,165.232 124.263,165.732 123.5,166.5C 114.194,167.554 104.861,167.721 95.5,167C 66.6563,160.656 48.9896,143.156 42.5,114.5C 41.9114,89.4004 42.578,64.4004 44.5,39.5C 46.4966,36.1571 49.4966,34.4905 53.5,34.5 Z"/></g>
<g><path style="opacity:1" fill="#d0ebb9" d="M 53.5,34.5 C 60.5681,33.1732 67.7348,33.1732 75,34.5C 75.5,57.4976 75.6666,80.4976 75.5,103.5C 73.5103,80.8576 72.8436,57.8576 73.5,34.5C 66.8333,34.5 60.1667,34.5 53.5,34.5 Z"/></g>
<g><path style="opacity:0.133" fill="#030010" d="M 145.5,39.5 C 146.833,40.1667 146.833,40.1667 145.5,39.5 Z"/></g>
<g><path style="opacity:1" fill="#74bb41" d="M 140.5,25.5 C 142.772,30.5068 144.105,35.8401 144.5,41.5C 143.521,63.788 143.188,86.1213 143.5,108.5C 142.551,110.737 141.884,113.071 141.5,115.5C 140.312,117.988 138.979,120.322 137.5,122.5C 136.061,124.36 134.395,126.027 132.5,127.5C 132.48,125.857 133.147,124.524 134.5,123.5C 134.291,122.914 133.957,122.414 133.5,122C 134.9,120.562 136.567,119.729 138.5,119.5C 139.708,116.306 140.708,112.973 141.5,109.5C 142.666,84.5067 142.833,59.5067 142,34.5C 140.608,31.7216 140.108,28.7216 140.5,25.5 Z"/></g>
<g><path style="opacity:1" fill="#75a851" d="M 144.5,41.5 C 144.601,63.5397 144.601,85.8731 144.5,108.5C 144.167,108.5 143.833,108.5 143.5,108.5C 143.188,86.1213 143.521,63.788 144.5,41.5 Z"/></g>
<g><path style="opacity:1" fill="#696566" d="M 294.5,44.5 C 294.5,77.8333 294.5,111.167 294.5,144.5C 282.061,129.919 276.061,112.919 276.5,93.5C 276.605,74.8374 282.605,58.5041 294.5,44.5 Z"/></g>
<g><path style="opacity:1" fill="#93c570" d="M 41.5,44.5 C 40.5363,64.1329 40.203,83.7996 40.5,103.5C 39.3377,84.3377 39.171,65.0044 40,45.5C 40.3826,44.944 40.8826,44.6107 41.5,44.5 Z"/></g>
<g><path style="opacity:1" fill="#f5fee8" d="M 44.5,39.5 C 42.578,64.4004 41.9114,89.4004 42.5,114.5C 40.783,111.155 40.1164,107.489 40.5,103.5C 40.203,83.7996 40.5363,64.1329 41.5,44.5C 42.1103,42.5659 43.1103,40.8993 44.5,39.5 Z"/></g>
<g><path style="opacity:1" fill="#7f7b7c" d="M 294.5,31.5 C 294.5,35.8333 294.5,40.1667 294.5,44.5C 282.605,58.5041 276.605,74.8374 276.5,93.5C 276.061,112.919 282.061,129.919 294.5,144.5C 294.5,148.833 294.5,153.167 294.5,157.5C 276.247,140.299 267.247,118.966 267.5,93.5C 267.877,68.7751 276.877,48.1084 294.5,31.5 Z"/></g>
<g><path style="opacity:1" fill="#696566" d="M 184.5,-0.5 C 196.167,-0.5 207.833,-0.5 219.5,-0.5C 221.502,5.00535 224.169,10.172 227.5,15C 236.084,18.21 244.75,21.21 253.5,24C 256.714,28.9261 259.548,34.0927 262,39.5C 264.195,43.23 266.862,46.5634 270,49.5C 271.538,48.2946 272.705,46.7946 273.5,45C 270.007,37.8684 266.507,30.7017 263,23.5C 258.286,18.5579 252.786,14.7246 246.5,12C 256.859,11.786 266.025,14.9527 274,21.5C 276.018,25.5507 278.518,29.2173 281.5,32.5C 283.375,31.4597 284.708,29.9597 285.5,28C 281.681,17.5235 275.014,9.52351 265.5,4C 257.508,4.18932 249.508,4.18932 241.5,4C 238.232,3.89029 235.899,2.39029 234.5,-0.5C 254.5,-0.5 274.5,-0.5 294.5,-0.5C 294.5,10.1667 294.5,20.8333 294.5,31.5C 276.877,48.1084 267.877,68.7751 267.5,93.5C 267.247,118.966 276.247,140.299 294.5,157.5C 294.5,157.833 294.5,158.167 294.5,158.5C 285.883,182.827 268.55,194.161 242.5,192.5C 246.946,185.547 251.612,178.714 256.5,172C 258.623,171.185 260.623,170.185 262.5,169C 271.5,169.167 279.833,167.001 287.5,162.5C 286.652,159.825 284.818,158.491 282,158.5C 274.791,159.396 267.624,160.563 260.5,162C 253.887,164.602 248.387,168.768 244,174.5C 244.829,171.148 245.996,167.815 247.5,164.5C 249.89,162.733 251.557,160.4 252.5,157.5C 254.145,156.521 255.479,155.188 256.5,153.5C 262.357,150.67 268.357,148.337 274.5,146.5C 273.864,144.205 272.531,142.539 270.5,141.5C 265.203,142.449 260.036,143.782 255,145.5C 254.502,142.183 254.335,138.85 254.5,135.5C 258.814,134.725 263.147,134.059 267.5,133.5C 265.96,127.677 263.96,122.01 261.5,116.5C 259.358,117.601 257.192,118.601 255,119.5C 254.501,115.848 254.335,112.182 254.5,108.5C 256.5,108.5 258.5,108.5 260.5,108.5C 260.5,106.5 260.5,104.5 260.5,102.5C 258.079,102.122 255.746,101.455 253.5,100.5C 253.622,88.3224 250.622,76.989 244.5,66.5C 249.825,67.8634 255.325,69.8634 261,72.5C 263.432,67.7338 265.599,62.7338 267.5,57.5C 254.476,53.0274 241.143,49.6941 227.5,47.5C 209.841,35.8459 190.507,31.8459 169.5,35.5C 167.035,35.767 164.701,36.4336 162.5,37.5C 159.673,38.1084 157.007,39.1084 154.5,40.5C 153.279,41.0283 152.113,41.695 151,42.5C 150.333,58.8333 150.333,75.1667 151,91.5C 152.24,88.0221 153.74,84.6887 155.5,81.5C 157.817,77.5182 160.817,74.1849 164.5,71.5C 166.368,70.7368 168.035,69.7368 169.5,68.5C 187.539,61.9396 202.372,66.2729 214,81.5C 214.483,82.448 214.649,83.448 214.5,84.5C 214.586,85.4959 214.252,86.3292 213.5,87C 210.702,88.734 207.702,89.9007 204.5,90.5C 199.074,88.6221 193.74,86.4555 188.5,84C 184.167,83.3333 179.833,83.3333 175.5,84C 169.5,87.3333 163.5,90.6667 157.5,94C 163.977,92.0776 170.644,91.411 177.5,92C 184.292,94.8953 190.625,98.5619 196.5,103C 203.661,107.806 210.661,107.64 217.5,102.5C 218.833,113.167 218.833,123.833 217.5,134.5C 201.636,141.597 185.636,148.43 169.5,155C 185.814,151.673 202.147,148.173 218.5,144.5C 218.174,152.684 218.508,160.684 219.5,168.5C 225.5,168.5 231.5,168.5 237.5,168.5C 235.108,180.228 227.775,185.394 215.5,184C 210.685,185.331 207.351,188.164 205.5,192.5C 192.66,191.254 180.326,193.087 168.5,198C 159.403,203.096 153.237,210.596 150,220.5C 149.03,158.142 149.363,95.8091 151,33.5C 155.682,15.6521 166.849,4.31874 184.5,-0.5 Z"/></g>
<g><path style="opacity:1" fill="#7f7b7c" d="M 227.5,47.5 C 241.143,49.6941 254.476,53.0274 267.5,57.5C 265.599,62.7338 263.432,67.7338 261,72.5C 255.325,69.8634 249.825,67.8634 244.5,66.5C 239.917,59.2473 234.25,52.914 227.5,47.5 Z"/></g>
<g><path style="opacity:1" fill="#b4b0b0" d="M 154.5,40.5 C 155.406,54.314 155.739,67.9807 155.5,81.5C 153.74,84.6887 152.24,88.0221 151,91.5C 150.333,75.1667 150.333,58.8333 151,42.5C 152.113,41.695 153.279,41.0283 154.5,40.5 Z"/></g>
<g><path style="opacity:1" fill="#c9c7c7" d="M 162.5,37.5 C 161.544,48.0686 161.211,58.5686 161.5,69C 162.373,70.045 163.373,70.8783 164.5,71.5C 160.817,74.1849 157.817,77.5182 155.5,81.5C 155.739,67.9807 155.406,54.314 154.5,40.5C 157.007,39.1084 159.673,38.1084 162.5,37.5 Z"/></g>
<g><path style="opacity:1" fill="#dddcdc" d="M 169.5,35.5 C 169.607,37.3786 169.107,37.7119 168,36.5C 167.5,37 167,37.5 166.5,38C 167.457,47.1264 167.79,56.1264 167.5,65C 165.006,67.3932 165.673,68.5599 169.5,68.5C 168.035,69.7368 166.368,70.7368 164.5,71.5C 163.373,70.8783 162.373,70.045 161.5,69C 161.211,58.5686 161.544,48.0686 162.5,37.5C 164.701,36.4336 167.035,35.767 169.5,35.5 Z"/></g>
<g><path style="opacity:1" fill="#fdfdfd" d="M 227.5,47.5 C 234.25,52.914 239.917,59.2473 244.5,66.5C 250.622,76.989 253.622,88.3224 253.5,100.5C 253.808,119.546 253.475,138.546 252.5,157.5C 251.557,160.4 249.89,162.733 247.5,164.5C 244.593,166.805 241.259,168.138 237.5,168.5C 231.5,168.5 225.5,168.5 219.5,168.5C 219.9,142.807 219.4,117.14 218,91.5C 217.102,88.9309 215.935,86.5976 214.5,84.5C 214.649,83.448 214.483,82.448 214,81.5C 202.372,66.2729 187.539,61.9396 169.5,68.5C 165.673,68.5599 165.006,67.3932 167.5,65C 167.79,56.1264 167.457,47.1264 166.5,38C 167,37.5 167.5,37 168,36.5C 169.107,37.7119 169.607,37.3786 169.5,35.5C 190.507,31.8459 209.841,35.8459 227.5,47.5 Z"/></g>
<g><path style="opacity:1" fill="#7f7b7c" d="M 219.5,-0.5 C 224.5,-0.5 229.5,-0.5 234.5,-0.5C 235.899,2.39029 238.232,3.89029 241.5,4C 249.508,4.18932 257.508,4.18932 265.5,4C 275.014,9.52351 281.681,17.5235 285.5,28C 284.708,29.9597 283.375,31.4597 281.5,32.5C 278.518,29.2173 276.018,25.5507 274,21.5C 266.025,14.9527 256.859,11.786 246.5,12C 252.786,14.7246 258.286,18.5579 263,23.5C 266.507,30.7017 270.007,37.8684 273.5,45C 272.705,46.7946 271.538,48.2946 270,49.5C 266.862,46.5634 264.195,43.23 262,39.5C 259.548,34.0927 256.714,28.9261 253.5,24C 244.75,21.21 236.084,18.21 227.5,15C 224.169,10.172 221.502,5.00535 219.5,-0.5 Z"/></g>
<g><path style="opacity:1" fill="#807c7d" d="M 214.5,84.5 C 215.935,86.5976 217.102,88.9309 218,91.5C 219.4,117.14 219.9,142.807 219.5,168.5C 218.508,160.684 218.174,152.684 218.5,144.5C 202.147,148.173 185.814,151.673 169.5,155C 185.636,148.43 201.636,141.597 217.5,134.5C 218.833,123.833 218.833,113.167 217.5,102.5C 210.661,107.64 203.661,107.806 196.5,103C 190.625,98.5619 184.292,94.8953 177.5,92C 170.644,91.411 163.977,92.0776 157.5,94C 163.5,90.6667 169.5,87.3333 175.5,84C 179.833,83.3333 184.167,83.3333 188.5,84C 193.74,86.4555 199.074,88.6221 204.5,90.5C 207.702,89.9007 210.702,88.734 213.5,87C 214.252,86.3292 214.586,85.4959 214.5,84.5 Z"/></g>
<g><path style="opacity:1" fill="#99a989" d="M 143.5,108.5 C 143.833,108.5 144.167,108.5 144.5,108.5C 144.5,125.833 144.5,143.167 144.5,160.5C 144.167,160.5 143.833,160.5 143.5,160.5C 142.041,160.433 140.708,160.766 139.5,161.5C 140.183,159.824 141.517,159.157 143.5,159.5C 143.667,144.496 143.5,129.496 143,114.5C 142.617,115.056 142.117,115.389 141.5,115.5C 141.884,113.071 142.551,110.737 143.5,108.5 Z"/></g>
<g><path style="opacity:1" fill="#b8b6b5" d="M 139.5,161.5 C 138.167,161.833 136.833,162.167 135.5,162.5C 135.778,151.266 135.445,139.932 134.5,128.5C 136.038,126.757 137.038,124.757 137.5,122.5C 138.979,120.322 140.312,117.988 141.5,115.5C 142.117,115.389 142.617,115.056 143,114.5C 143.5,129.496 143.667,144.496 143.5,159.5C 141.517,159.157 140.183,159.824 139.5,161.5 Z"/></g>
<g><path style="opacity:1" fill="#d2d1d0" d="M 137.5,122.5 C 137.038,124.757 136.038,126.757 134.5,128.5C 135.445,139.932 135.778,151.266 135.5,162.5C 131.56,164.148 127.56,165.482 123.5,166.5C 124.263,165.732 125.263,165.232 126.5,165C 126.167,164.667 125.833,164.333 125.5,164C 127.667,163.167 129.167,161.667 130,159.5C 130.667,151.167 130.667,142.833 130,134.5C 129.29,133.027 128.124,132.36 126.5,132.5C 128.475,130.863 130.475,129.196 132.5,127.5C 134.395,126.027 136.061,124.36 137.5,122.5 Z"/></g>
<g><path style="opacity:1" fill="#807c7d" d="M 253.5,100.5 C 255.746,101.455 258.079,102.122 260.5,102.5C 260.5,104.5 260.5,106.5 260.5,108.5C 258.5,108.5 256.5,108.5 254.5,108.5C 254.335,112.182 254.501,115.848 255,119.5C 257.192,118.601 259.358,117.601 261.5,116.5C 263.96,122.01 265.96,127.677 267.5,133.5C 263.147,134.059 258.814,134.725 254.5,135.5C 254.335,138.85 254.502,142.183 255,145.5C 260.036,143.782 265.203,142.449 270.5,141.5C 272.531,142.539 273.864,144.205 274.5,146.5C 268.357,148.337 262.357,150.67 256.5,153.5C 255.479,155.188 254.145,156.521 252.5,157.5C 253.475,138.546 253.808,119.546 253.5,100.5 Z"/></g>
<g><path style="opacity:1" fill="#668f45" d="M 143.5,160.5 C 143.833,160.5 144.167,160.5 144.5,160.5C 144.812,179.579 144.812,198.579 144.5,217.5C 143.833,218.833 143.167,218.833 142.5,217.5C 143.497,198.674 143.83,179.674 143.5,160.5 Z"/></g>
<g><path style="opacity:1" fill="#69b238" d="M -0.5,158.5 C 3.24606,157.786 4.24606,158.953 2.5,162C 3.29918,164.149 4.13251,166.316 5,168.5C 5.33333,168.167 5.66667,167.833 6,167.5C 6.33333,168.833 6.66667,170.167 7,171.5C 7.74312,169.355 8.57645,169.189 9.5,171C 8.85242,172.44 8.51909,173.94 8.5,175.5C 10.143,175.52 11.4763,174.853 12.5,173.5C 13.6721,173.919 14.6721,174.585 15.5,175.5C 13.7118,176.283 12.7118,177.616 12.5,179.5C 9.92406,178.097 7.7574,176.097 6,173.5C 4.47002,169.005 2.30336,165.005 -0.5,161.5C -0.5,160.5 -0.5,159.5 -0.5,158.5 Z"/></g>
<g><path style="opacity:1" fill="#7f7b7c" d="M 242.5,192.5 C 230.167,192.5 217.833,192.5 205.5,192.5C 207.351,188.164 210.685,185.331 215.5,184C 227.775,185.394 235.108,180.228 237.5,168.5C 241.259,168.138 244.593,166.805 247.5,164.5C 245.996,167.815 244.829,171.148 244,174.5C 248.387,168.768 253.887,164.602 260.5,162C 267.624,160.563 274.791,159.396 282,158.5C 284.818,158.491 286.652,159.825 287.5,162.5C 279.833,167.001 271.5,169.167 262.5,169C 260.623,170.185 258.623,171.185 256.5,172C 251.612,178.714 246.946,185.547 242.5,192.5 Z"/></g>
<g><path style="opacity:0.4" fill="#0e0412" d="M 17.5,185.5 C 16.8333,186.167 16.8333,186.167 17.5,185.5 Z"/></g>
<g><path style="opacity:0.133" fill="#060010" d="M 117.5,196.5 C 118.833,197.167 118.833,197.167 117.5,196.5 Z"/></g>
<g><path style="opacity:0.4" fill="#030512" d="M 153.5,215.5 C 154.833,216.167 154.833,216.167 153.5,215.5 Z"/></g>
<g><path style="opacity:1" fill="#4a6138" d="M 141.5,217.5 C 141.833,217.5 142.167,217.5 142.5,217.5C 143.167,218.833 143.833,218.833 144.5,217.5C 145.776,218.386 145.776,219.386 144.5,220.5C 142.787,220.121 141.787,219.121 141.5,217.5 Z"/></g>
</svg>
