<svg version="1.1" id="Layer_1" xmlns="http://www.w3.org/2000/svg" xmlns:xlink="http://www.w3.org/1999/xlink" x="0px" y="0px"
	 width="100%" viewBox="0 0 1024 576" enable-background="new 0 0 1024 576" xml:space="preserve">
<path fill="#000000" opacity="1.000000" stroke="none" 
	d="
M693.000000,577.000000 
	C462.000000,577.000000 231.500000,577.000000 1.000000,577.000000 
	C1.000000,385.000000 1.000000,193.000000 1.000000,1.000000 
	C342.333344,1.000000 683.666687,1.000000 1025.000000,1.000000 
	C1025.000000,193.000000 1025.000000,385.000000 1025.000000,577.000000 
	C914.500000,577.000000 804.000000,577.000000 693.000000,577.000000 
M554.075012,240.500305 
	C554.362305,240.685150 554.649536,240.869995 555.179138,241.681900 
	C556.188232,243.146896 557.197388,244.611908 558.083801,246.722336 
	C558.702026,247.502518 559.320312,248.282700 559.995361,249.006271 
	C559.995361,249.006271 559.922363,249.039490 559.922791,249.862961 
	C562.773926,250.831619 565.625000,251.800293 568.476135,252.768967 
	C568.789490,252.210861 569.102783,251.652756 569.416138,251.094650 
	C568.302368,249.710449 567.188599,248.326248 566.002441,246.998779 
	C566.002441,246.998779 566.071777,246.943069 565.986755,246.391113 
	C565.669006,246.236557 565.351196,246.082001 565.007263,245.986893 
	C565.007263,245.986893 565.072021,245.991714 564.915344,245.415543 
	C564.601013,245.175110 564.286743,244.934677 564.009216,244.002090 
	C562.671082,241.630722 561.332886,239.259369 559.974792,236.852676 
	C566.345886,234.280594 570.356140,226.795975 568.192078,220.933640 
	C566.479248,216.293518 561.346375,213.111237 554.258972,212.977036 
	C549.840088,212.893387 545.427551,212.470963 540.219421,212.391449 
	C539.815857,212.885574 539.062378,213.377914 539.059814,213.874069 
	C538.994995,226.551346 539.008667,239.229019 539.008667,251.835251 
	C541.339661,251.835251 543.150391,251.835251 545.789917,251.567795 
	C545.789917,246.737488 545.789917,241.907181 545.789917,237.091034 
	C548.438904,237.091034 550.234375,237.091034 552.010864,236.988586 
	C552.010864,236.988586 551.908203,237.006577 552.079834,237.631256 
	C552.407837,237.913239 552.735901,238.195206 553.013855,238.523682 
	C553.013855,238.523682 553.066223,238.567551 553.036743,239.249451 
	C553.351196,239.528030 553.665649,239.806610 553.988770,240.005814 
	C553.988770,240.005814 553.909241,239.997986 554.075012,240.500305 
M329.561646,212.219498 
	C327.475159,212.219498 325.388672,212.219498 323.171753,212.219498 
	C323.171753,221.239517 323.171753,230.128708 323.008636,239.753662 
	C322.228790,244.919174 318.854858,247.339874 314.013031,247.938599 
	C308.650879,248.601669 306.033600,245.013947 303.883362,240.011948 
	C303.883362,230.680054 303.883362,221.348160 303.883362,211.292297 
	C301.176880,212.024002 299.156769,212.570129 296.984314,214.016174 
	C297.022369,223.075653 297.060455,232.135132 297.304230,241.850540 
	C299.331696,244.528824 300.953827,247.695007 303.469879,249.785187 
	C308.936737,254.326813 315.249786,253.745117 321.405151,251.159119 
	C326.417175,249.053467 329.997528,243.176315 329.939209,237.029984 
	C329.891663,229.028259 329.844116,221.026535 329.561646,212.219498 
M490.013580,214.900421 
	C489.998718,226.090302 489.942352,237.280533 490.031616,248.469574 
	C490.040802,249.620377 490.919800,250.764236 492.278290,252.007202 
	C499.242096,252.021667 506.205963,252.063583 513.169617,252.039551 
	C516.924622,252.026596 518.161133,250.537888 515.683105,246.269348 
	C509.514191,246.269348 503.345245,246.269348 497.000275,246.269348 
	C497.000275,241.971786 497.000275,238.541931 497.933777,235.045258 
	C503.596741,234.977295 509.259705,234.909332 515.683411,234.720978 
	C517.897949,230.338470 517.266052,229.202377 512.721497,228.963348 
	C507.434113,228.685272 502.155029,228.250092 497.007385,226.991135 
	C497.007385,224.069794 497.007385,221.148453 497.007385,217.846375 
	C503.784821,217.846375 509.756653,217.846375 516.617615,217.710144 
	C516.768433,215.930252 516.919189,214.150360 517.103027,211.980896 
	C508.541718,211.980896 500.266144,211.938293 491.993256,212.066681 
	C491.371887,212.076309 490.769501,213.306427 490.013580,214.900421 
M881.028625,233.060745 
	C881.028625,231.805145 881.028625,230.549561 881.028625,228.977295 
	C877.808533,228.977295 875.023743,229.109314 872.256531,228.945221 
	C868.453247,228.719666 864.663269,228.269913 860.993652,227.020187 
	C860.993652,224.119324 860.993652,221.218445 860.993652,217.777420 
	C867.863403,217.777420 873.951111,217.777420 880.725769,217.589783 
	C882.250122,212.930206 881.589233,211.990646 876.755798,211.977676 
	C873.448242,211.968811 870.134460,211.848541 866.834717,212.009552 
	C862.854736,212.203766 858.886780,212.642914 854.987366,212.986069 
	C854.987366,212.986069 854.996094,212.912079 854.218628,213.334747 
	C854.147644,225.488037 854.055237,237.641357 854.062500,249.794617 
	C854.062927,250.478653 854.884399,251.162201 856.023254,252.031601 
	C857.222107,251.975479 858.420959,251.919357 860.564331,251.827591 
	C860.821167,246.273102 861.078064,240.718613 861.342957,234.991043 
	C865.161194,234.991043 868.645874,235.126541 872.114624,234.949478 
	C875.050476,234.799606 877.967773,234.287964 881.028625,233.060745 
M409.929962,252.006348 
	C411.223999,251.948715 412.518036,251.891068 414.691833,251.700394 
	C414.691833,238.495239 414.691833,225.290085 414.691833,211.920074 
	C412.920837,212.016754 411.436157,212.097794 409.083771,212.036026 
	C408.728668,212.798645 408.068573,213.559464 408.064087,214.324112 
	C407.996399,225.920624 407.988800,237.517822 408.063019,249.114227 
	C408.068787,250.017532 408.788147,250.916275 409.929962,252.006348 
M353.873138,251.980515 
	C355.734161,251.980515 357.595184,251.980515 359.074371,251.980515 
	C359.074371,242.831802 359.038483,234.747711 359.154724,226.665817 
	C359.162537,226.124878 360.322327,225.600494 361.205078,225.706863 
	C366.361206,232.882202 371.354767,240.183228 376.756348,247.168762 
	C378.813843,249.829651 380.698273,254.257294 385.702515,251.248871 
	C385.702515,238.612183 385.702515,226.004974 385.702515,212.655869 
	C383.529358,213.163742 381.718994,213.586807 379.133331,214.402344 
	C379.083984,221.115585 379.124878,227.831879 378.899597,234.539185 
	C378.860504,235.703537 377.696564,236.830093 376.997589,237.267212 
	C372.133453,230.775620 366.970215,224.480530 362.524719,217.713898 
	C360.111938,214.041367 357.580658,212.219513 352.345581,213.231445 
	C352.255737,225.824417 352.159668,238.417374 352.117065,251.010498 
	C352.116119,251.284653 352.727295,251.560852 353.873138,251.980515 
M638.272766,213.408615 
	C638.272766,226.168976 638.272766,238.929337 638.272766,251.664749 
	C640.284363,251.664749 642.009888,251.664749 643.959961,251.664749 
	C643.959961,239.244202 643.975769,227.111038 643.913452,214.978271 
	C643.910339,214.370148 643.230469,213.765503 642.122620,213.028931 
	C641.121338,213.073700 640.120117,213.118454 638.272766,213.408615 
M679.078003,252.025681 
	C680.294739,251.969543 681.511475,251.913391 683.644775,251.746033 
	C683.790344,240.507248 683.935913,229.268478 684.973877,217.957504 
	C688.221924,217.921112 691.469971,217.884720 695.601440,217.732300 
	C695.744751,215.953674 695.888000,214.175049 696.063171,212.000031 
	C685.971924,212.000031 676.185974,211.986343 666.400391,212.047287 
	C665.985413,212.049881 665.574829,212.744843 665.032227,213.924759 
	C664.689392,216.877426 665.992004,218.114456 668.958130,217.960693 
	C671.560364,217.825821 674.175842,217.945740 676.952881,218.887070 
	C676.962402,228.536575 676.918579,238.186768 677.042725,247.834793 
	C677.059998,249.181625 677.902954,250.517853 679.078003,252.025681 
M900.580872,268.890350 
	C900.409912,268.505585 900.239014,268.120850 900.041870,267.455078 
	C900.041870,267.455078 899.860779,267.238647 899.749084,266.326965 
	C898.265625,266.217865 896.782104,266.013275 895.298645,266.013184 
	C688.704773,265.999329 482.110901,265.998383 275.517029,266.041138 
	C274.065643,266.041443 272.614349,266.652466 271.051178,267.865997 
	C271.364624,272.113678 274.614716,269.890808 276.302124,269.891754 
	C482.557281,270.005829 688.812500,270.002319 895.067688,269.959412 
	C896.735840,269.959045 898.403809,269.340485 900.003357,269.020081 
	C900.003357,269.020081 900.074646,269.038971 900.580872,268.890350 
M377.005463,354.032501 
	C376.969147,333.689972 376.932831,313.347473 377.037048,292.284851 
	C379.499847,290.309082 381.962677,288.333282 384.570679,286.241028 
	C374.935730,286.241028 366.196625,286.241028 357.361328,286.241028 
	C360.712555,289.183411 363.377960,291.523651 365.963074,294.827515 
	C366.010284,314.221344 366.057465,333.615143 365.917999,353.718597 
	C363.684784,355.909302 361.451599,358.100037 359.218384,360.290741 
	C358.882904,359.995148 358.547394,359.699554 358.211914,359.403961 
	C358.211914,360.804596 358.211914,362.205261 358.211914,363.043457 
	C367.651123,363.043457 376.770905,363.043457 386.551392,363.043457 
	C382.710175,359.834503 379.794098,357.398438 377.005463,354.032501 
M304.795502,355.589813 
	C302.326477,357.814911 299.857452,360.040009 296.729950,362.858521 
	C298.611511,363.308655 300.192322,364.036255 301.752136,363.993713 
	C306.204041,363.872253 310.650116,363.149200 315.093536,363.190399 
	C322.701904,363.260956 330.339111,363.397400 337.903503,364.131287 
	C345.275757,364.846558 349.367004,360.255798 353.272552,355.491882 
	C355.288452,353.032928 356.544159,349.727875 352.912292,347.065308 
	C340.316956,357.591309 337.687897,356.707550 322.975555,357.974060 
	C319.177155,358.300995 316.731537,357.058807 315.027161,353.044342 
	C315.096924,333.716522 315.166718,314.388702 315.744812,294.590057 
	C316.555450,292.974396 317.366119,291.358704 318.876343,289.814819 
	C320.377380,289.296875 321.878418,288.778931 323.377777,288.261536 
	C321.993225,284.371887 321.993225,284.371887 295.790771,285.316254 
	C296.253876,286.420685 296.637085,287.334564 297.455994,288.778137 
	C299.899231,289.841705 302.342438,290.905273 304.958954,292.899109 
	C305.017761,313.590454 305.076599,334.281799 304.795502,355.589813 
M849.960571,353.720001 
	C848.442017,355.717529 847.015442,357.795410 845.367493,359.679718 
	C844.500977,360.670532 843.247498,361.322815 842.168701,362.127960 
	C843.514709,362.765167 844.866516,363.954468 846.205627,363.940216 
	C850.988953,363.889343 855.770752,363.141510 860.547974,363.187775 
	C869.324219,363.272736 878.095459,363.913422 886.871399,363.982574 
	C893.948486,364.038330 901.067993,354.147430 898.989563,346.503448 
	C892.603577,353.594879 884.612244,357.000641 875.630371,357.466583 
	C870.669434,357.723969 864.995300,360.385193 860.941345,354.057831 
	C860.917297,334.073273 860.893188,314.088684 861.013855,293.374146 
	C863.524170,291.010193 866.034424,288.646240 868.650879,286.182312 
	C859.567871,286.182312 850.943970,286.182312 841.515808,286.182312 
	C845.009827,288.921997 847.528992,290.897308 849.983948,293.836334 
	C850.027832,313.555176 850.071777,333.273987 849.960571,353.720001 
M615.973694,352.584229 
	C613.714844,355.607147 611.455994,358.630066 609.197144,361.652985 
	C608.102905,361.662018 608.329102,363.034180 608.626953,363.049927 
	C616.249817,363.452667 623.878723,363.835052 631.509949,363.918518 
	C633.557922,363.940948 635.616638,362.977539 637.670410,362.466644 
	C637.683167,361.911865 637.695923,361.357056 637.708618,360.802277 
	C632.015747,359.724152 627.567505,357.364166 626.959595,350.137604 
	C626.973022,343.399994 626.922302,336.661163 627.046692,329.925598 
	C627.076477,328.312653 627.689392,326.710480 628.105286,325.872803 
	C637.192871,331.361908 654.683899,327.112122 660.386902,316.265106 
	C666.286743,305.043610 663.769714,294.833282 652.524231,288.979065 
	C644.357117,284.727448 635.218445,284.417999 626.055054,285.444397 
	C622.144897,285.882385 618.148315,285.654602 614.195129,285.558258 
	C612.088196,285.506897 609.990112,285.090942 607.453125,284.787537 
	C607.746887,286.511841 607.948853,287.697418 608.201721,289.181824 
	C613.251587,288.075531 615.430664,290.603333 616.062134,295.941620 
	C616.092590,314.573425 616.123047,333.205200 615.973694,352.584229 
M489.881439,291.649353 
	C495.303833,291.466858 500.725006,291.196411 506.148895,291.120880 
	C516.239624,290.980377 516.579651,291.291321 518.614258,301.100861 
	C519.665955,300.843994 521.573547,300.690613 521.616699,300.320099 
	C522.143860,295.793335 522.760376,291.202789 522.366577,286.715485 
	C522.300476,285.962616 517.552002,285.620697 514.040466,284.981445 
	C507.041656,285.021118 500.042816,285.060791 492.105713,285.001526 
	C484.866058,285.001526 477.626404,285.001526 468.776733,285.001526 
	C470.655334,287.074554 471.401611,288.678802 472.355530,288.813629 
	C476.201385,289.357056 477.928528,291.863129 479.064392,296.004761 
	C479.076324,314.994293 479.088257,333.983826 478.964996,353.700348 
	C477.415619,355.720703 475.932892,357.797516 474.289093,359.737885 
	C473.448151,360.730499 472.318787,361.478821 471.319763,362.337524 
	C472.729279,362.908630 474.145844,363.978943 475.547058,363.959198 
	C480.156921,363.894287 484.763885,363.146576 489.367096,363.189148 
	C497.628723,363.265594 505.884796,363.830109 514.147034,363.990143 
	C520.002930,364.103546 528.318054,356.631378 528.831299,350.875580 
	C528.940430,349.651611 528.201050,348.351959 527.665100,346.406494 
	C518.026611,355.081848 507.502655,358.872650 495.494781,357.794891 
	C493.310791,357.598877 491.254822,355.976074 489.020386,354.078796 
	C489.127502,345.044708 489.234619,336.010651 490.229401,327.094879 
	C494.222198,327.109924 498.229797,327.348389 502.204193,327.085358 
	C507.590302,326.728912 512.188965,327.195587 513.485596,333.730499 
	C513.627991,334.448364 514.874573,334.947113 516.404785,336.197937 
	C516.404785,327.647980 516.404785,319.944885 516.404785,312.241821 
	C514.500916,312.856903 513.692078,313.993835 512.884949,315.132019 
	C512.045776,316.315247 511.451508,318.165253 510.330414,318.574829 
	C503.426514,321.097137 496.351013,322.386261 489.022949,318.997314 
	C489.058533,309.994293 489.094116,300.991241 489.881439,291.649353 
M534.320801,360.441223 
	C534.320801,361.501526 534.320801,362.561859 534.320801,363.777374 
	C543.463074,363.777374 552.130737,363.777374 561.496094,363.752808 
	C564.361084,361.225464 561.996460,360.829315 560.091187,359.848267 
	C557.325928,358.424347 554.751160,356.630615 552.024475,354.060791 
	C552.009949,348.606598 551.867126,343.148651 552.026550,337.699554 
	C552.130615,334.145416 552.673645,330.604156 553.927246,327.026703 
	C559.883057,326.580719 565.395569,326.605316 568.598389,333.273926 
	C570.791809,337.840851 573.811646,342.047882 576.757874,346.206207 
	C579.982361,350.757202 583.219238,355.379852 587.051208,359.398590 
	C591.337646,363.893951 596.903809,365.170532 602.949646,363.099976 
	C603.723877,362.834808 604.324341,362.062225 605.005310,361.524689 
	C604.339233,360.993713 603.703674,360.417908 603.001709,359.939697 
	C600.273071,358.080811 596.786194,356.805328 594.917358,354.311615 
	C588.911560,346.297333 583.484314,337.848328 577.872314,329.541077 
	C576.604248,327.664032 575.491577,325.682098 574.381958,323.870239 
	C577.246460,321.719299 579.943481,320.056305 582.204712,317.929932 
	C589.859009,310.732269 589.514709,294.956757 580.295227,289.372650 
	C574.692017,285.978882 568.739868,285.455872 562.760437,285.195862 
	C555.842712,284.895111 548.879517,285.819275 541.930908,285.963776 
	C539.061829,286.023468 536.179321,285.438293 533.302917,285.146423 
	C533.027344,285.635559 532.751770,286.124695 532.476135,286.613831 
	C533.557068,287.471466 534.582581,288.413239 535.730896,289.168488 
	C537.853088,290.564392 540.047058,291.851044 542.104553,294.089600 
	C542.118286,314.027466 542.132080,333.965302 541.836304,354.536407 
	C539.564575,356.403900 537.292847,358.271423 534.320801,360.441223 
M176.211807,188.366989 
	C174.584702,188.570007 172.960052,188.922165 171.330048,188.949066 
	C165.603485,189.043594 159.848572,188.686096 154.153503,189.130005 
	C145.286346,189.821152 136.459381,191.027908 127.774857,191.998322 
	C127.165443,198.616272 126.095161,204.946564 126.082512,211.278976 
	C126.023109,241.051010 124.670464,270.955139 132.903061,300.085754 
	C135.477722,309.196075 138.060074,318.322968 141.157028,327.262787 
	C146.709808,343.291656 156.806747,356.677795 167.845062,369.137634 
	C174.351456,376.481964 182.569504,382.330872 190.200851,388.630585 
	C191.142685,389.408081 193.772919,389.491455 194.673798,388.748383 
	C200.592422,383.866486 206.689270,379.076721 211.892258,373.480011 
	C219.782394,364.992798 228.036270,356.545166 234.261108,346.874146 
	C245.242035,329.813995 251.581757,310.560822 254.948425,290.621826 
	C257.442413,275.851135 259.293030,260.844147 259.753357,245.890793 
	C260.302338,228.057892 259.061035,210.169861 258.571686,191.398636 
	C240.800781,190.558426 223.950714,189.761765 206.662384,188.198868 
	C196.769562,188.163162 186.876724,188.127472 176.211807,188.366989 
M824.957458,355.582733 
	C828.030579,351.931641 832.000977,348.712952 834.008057,344.548096 
	C839.957275,332.203400 841.623596,319.298187 835.085938,306.556152 
	C832.800049,302.100830 830.167358,297.264374 826.382874,294.243073 
	C815.499817,285.554901 803.406616,280.888794 788.870361,284.724121 
	C776.006348,288.118225 766.326111,294.832214 760.516113,306.879028 
	C757.126709,313.906769 758.075439,321.465820 757.929810,328.867645 
	C757.636047,343.799805 770.008484,359.947357 784.637329,362.888489 
	C798.621277,365.699951 812.255737,364.847778 824.957458,355.582733 
M748.885864,336.166107 
	C749.121765,335.033630 749.229492,333.855652 749.613281,332.775757 
	C753.641663,321.440125 750.146729,310.626282 744.480896,301.578949 
	C739.488647,293.607178 731.272217,288.480988 721.187622,285.383698 
	C710.152039,281.994385 700.985413,284.211578 691.309082,288.003815 
	C681.897888,291.692108 675.044373,298.272583 672.316895,307.929504 
	C670.557007,314.160645 670.520691,320.914642 670.022461,327.457947 
	C669.175842,338.574951 673.470337,347.701721 681.557434,355.110748 
	C690.055603,362.896393 700.378601,363.854248 711.453613,364.212433 
	C728.329468,364.758240 744.664856,351.301025 748.885864,336.166107 
M399.741791,302.663361 
	C408.890564,323.511749 417.386627,344.660461 427.327515,366.165070 
	C429.617706,363.711700 431.177612,362.705872 431.780731,361.291901 
	C437.984344,346.748474 443.807983,332.039429 450.202118,317.582062 
	C454.652252,307.520142 456.529022,296.077209 465.304474,288.192566 
	C465.879242,287.676117 465.796631,286.427917 466.027100,285.490509 
	C454.048187,283.838989 446.927551,284.747498 445.543427,288.256836 
	C446.300873,288.507263 447.025696,288.861145 447.787201,288.980164 
	C452.832916,289.768646 453.677917,291.284760 451.856964,295.849213 
	C448.825500,303.447754 445.988403,311.124054 442.936676,318.714203 
	C438.938324,328.658783 434.811035,338.551544 430.126709,349.957947 
	C427.341919,342.435486 425.315796,336.241547 422.778870,330.264435 
	C417.973999,318.943665 412.794006,307.782440 407.955902,296.475311 
	C406.700012,293.540222 405.230164,290.150085 409.944092,288.339478 
	C410.547424,288.107788 410.628479,286.516388 410.953461,285.549011 
	C403.117737,285.549011 395.785950,285.549011 388.454132,285.549011 
	C390.143036,288.351440 393.109436,289.847748 394.826233,292.240601 
	C396.876526,295.098267 397.857147,298.723389 399.741791,302.663361 
M832.962769,225.922379 
	C830.074036,212.065918 812.888123,208.511444 803.061279,214.961624 
	C793.088013,221.507935 790.711060,232.649460 795.492920,241.508041 
	C801.174255,252.032883 810.045532,255.911057 821.591553,251.073746 
	C831.242493,247.030411 834.739014,239.222824 832.962769,225.922379 
M590.580933,250.208221 
	C596.344727,251.132034 602.090332,252.596939 607.878723,252.791931 
	C611.824036,252.924820 617.841309,245.856110 617.853821,241.932663 
	C617.869263,237.086090 615.572266,233.558075 610.759949,231.903015 
	C607.067932,230.633224 603.220337,229.585815 599.844910,227.713135 
	C597.879211,226.622559 596.707397,224.101089 595.178406,222.223419 
	C597.217468,220.826187 599.294739,218.222092 601.287598,218.285172 
	C605.327698,218.413055 609.322083,219.984985 614.340881,221.206314 
	C614.598572,220.750595 616.500488,218.798141 616.088928,217.792160 
	C615.430908,216.183868 613.402954,214.829391 611.650452,214.053299 
	C609.461853,213.084076 606.961487,212.826355 604.603149,212.232025 
	C598.532104,210.702072 589.920654,214.995316 588.197083,220.425003 
	C586.426636,226.002365 590.013184,231.251114 597.366272,233.717773 
	C600.760559,234.856445 604.331543,235.562347 607.586975,236.998230 
	C612.018433,238.952789 612.383545,242.233200 608.919250,245.545761 
	C605.422424,248.889435 600.970581,248.960648 596.395203,245.746140 
	C590.750061,241.780029 590.006226,241.825790 587.023132,246.419205 
	C587.999512,247.504684 588.996826,248.613480 590.580933,250.208221 
M438.887970,226.693558 
	C441.617371,233.870773 444.092804,241.162918 447.252289,248.145538 
	C448.056274,249.922363 450.976624,251.553360 453.028748,251.690308 
	C454.600067,251.795166 456.868225,249.764740 457.872559,248.106354 
	C459.365692,245.640839 459.929199,242.629456 461.042419,239.913559 
	C464.656860,231.095581 468.341339,222.306320 472.135986,213.176025 
	C469.286530,213.176025 466.985199,213.176025 464.486816,213.176025 
	C460.592346,223.252243 456.690552,233.347534 452.548584,244.064194 
	C448.845490,234.721512 445.187805,226.160477 442.092468,217.400742 
	C440.559143,213.061508 438.160248,212.201263 433.638885,213.702469 
	C435.294434,217.886505 436.901093,221.946960 438.887970,226.693558 
M728.472046,223.927521 
	C726.988892,221.398224 725.346985,218.946823 724.058472,216.321991 
	C721.946167,212.018631 718.692200,212.684158 714.604736,213.652405 
	C722.552490,225.522110 733.421082,235.751801 728.346313,251.670502 
	C731.580505,251.670502 733.622375,251.670502 735.753235,251.670502 
	C735.871399,250.694565 736.099426,250.027954 736.004944,249.410675 
	C734.375671,238.759766 737.753540,229.840347 744.941956,221.992310 
	C747.108215,219.627319 748.441223,216.499054 750.302734,213.482529 
	C745.303528,212.394745 742.423401,212.941391 740.459229,217.592926 
	C738.637878,221.905975 735.275574,225.568329 732.516724,229.627609 
	C731.191162,227.694382 730.081360,226.075821 728.472046,223.927521 
z"/>
<path fill="#222E7D" opacity="1.000000" stroke="none" 
	d="
M207.100647,188.965088 
	C223.950714,189.761765 240.800781,190.558426 258.571686,191.398636 
	C259.061035,210.169861 260.302338,228.057892 259.753357,245.890793 
	C259.293030,260.844147 257.442413,275.851135 254.948425,290.621826 
	C251.581757,310.560822 245.242035,329.813995 234.261108,346.874146 
	C228.036270,356.545166 219.782394,364.992798 211.892258,373.480011 
	C206.689270,379.076721 200.592422,383.866486 194.673798,388.748383 
	C193.772919,389.491455 191.142685,389.408081 190.200851,388.630585 
	C182.569504,382.330872 174.351456,376.481964 167.845062,369.137634 
	C156.806747,356.677795 146.709808,343.291656 141.157028,327.262787 
	C138.060074,318.322968 135.477722,309.196075 132.903061,300.085754 
	C124.670464,270.955139 126.023109,241.051010 126.082512,211.278976 
	C126.095161,204.946564 127.165443,198.616272 127.774857,191.998322 
	C136.459381,191.027908 145.286346,189.821152 154.153503,189.130005 
	C159.848572,188.686096 165.603485,189.043594 171.330048,188.949066 
	C172.960052,188.922165 174.584702,188.570007 176.874985,188.553665 
	C187.392319,188.815262 197.246490,188.890182 207.100647,188.965088 
M220.273361,213.427567 
	C220.922638,212.591980 221.571899,211.756409 222.221161,210.920822 
	C221.572311,210.722443 220.923477,210.524078 219.434753,210.829636 
	C212.263214,211.466797 204.746399,210.319397 198.339966,214.911484 
	C200.078873,215.083359 201.817780,215.255249 203.717270,216.156494 
	C203.360962,217.094513 203.198700,218.691071 202.616562,218.862579 
	C199.105057,219.897247 200.049637,221.886078 201.643021,224.382568 
	C203.169388,223.238739 204.180542,221.817169 204.913177,220.264221 
	C205.503738,219.012405 205.757904,217.601898 206.933746,216.499725 
	C210.417526,216.219254 213.331436,217.387512 210.873474,221.112671 
	C203.200577,232.741348 207.561386,240.652740 217.962128,247.624207 
	C218.049911,247.977417 218.266510,248.211349 218.719971,248.775757 
	C218.719971,248.775757 219.020157,249.127670 219.037201,249.942200 
	C220.978134,254.699432 215.728531,253.654800 213.876862,256.251770 
	C217.936081,256.251770 221.570602,256.251770 223.796646,256.251770 
	C223.225677,254.172440 222.526627,251.626617 221.955246,248.240555 
	C221.902451,246.377670 221.587662,244.564438 224.664047,245.040741 
	C227.125900,245.421890 229.693848,245.117752 233.059845,245.117752 
	C231.323669,242.151642 230.198486,240.229355 229.416168,238.892822 
	C231.024582,237.595245 232.348694,236.527023 233.678940,235.453857 
	C237.085175,238.679276 239.533936,235.082291 241.145279,232.900589 
	C243.338760,229.930771 247.504333,228.222748 246.926407,223.005844 
	C246.656998,220.573898 249.642151,217.781418 251.152115,215.152359 
	C246.523926,215.294144 243.130661,216.461166 239.642960,217.149673 
	C236.073578,217.854294 232.401077,218.021713 228.797745,218.579666 
	C227.910278,218.717087 226.550873,219.297241 226.366165,219.946381 
	C224.357605,227.005310 219.814758,226.163574 214.456131,223.359222 
	C215.350479,221.686676 216.262497,220.023254 217.133926,218.338852 
	C217.910278,216.838257 218.641708,215.314392 219.404999,213.508362 
	C219.404999,213.508362 219.691132,213.446671 220.273361,213.427567 
M163.119659,256.119202 
	C163.210770,256.216614 163.301880,256.314056 163.393005,256.411469 
	C163.202362,256.308929 163.011703,256.206360 162.604752,255.412430 
	C156.941803,253.718201 159.442505,249.360779 160.055969,245.248993 
	C163.555298,245.248993 167.054611,245.248993 171.154266,245.248993 
	C169.456360,242.453766 168.260437,240.484970 166.634674,237.808517 
	C181.190338,236.656815 185.261490,226.170425 188.465622,214.921158 
	C181.012207,216.155518 174.040085,217.266983 167.091064,218.507721 
	C166.053391,218.692993 164.481567,219.282104 164.245697,220.028503 
	C162.256439,226.323410 158.160339,226.629395 152.614319,223.701599 
	C152.614319,225.440353 152.614319,226.544952 152.614319,228.504517 
	C151.557556,227.164780 150.944702,226.609131 150.628586,225.917801 
	C150.370728,225.353821 150.182983,224.463058 150.451401,223.999039 
	C152.979355,219.628952 155.612030,215.319427 158.273911,210.893600 
	C150.787491,210.989288 143.112610,210.296524 136.158646,214.105011 
	C141.811035,215.006165 141.811035,215.006165 142.141068,217.996506 
	C143.828430,217.506699 145.751801,216.948395 147.675171,216.390076 
	C148.084671,218.024689 148.967819,219.717209 148.776917,221.278397 
	C148.565582,223.006775 147.402725,224.630127 146.600464,226.272934 
	C143.298752,233.033890 144.641388,238.386230 150.762177,242.808838 
	C152.242401,243.878372 153.702515,244.975708 155.412048,246.745270 
	C158.845428,251.058640 157.643173,253.980087 152.695145,256.026794 
	C156.098770,256.026794 159.502396,256.026794 163.119659,256.119202 
M197.081177,265.585022 
	C193.821426,267.970001 190.450638,268.500916 186.129364,266.006256 
	C183.938354,265.553284 181.715546,265.216370 179.561981,264.626648 
	C171.454697,262.406616 164.309814,265.829987 161.265457,273.492645 
	C159.369308,278.265289 157.650681,283.116730 155.548996,287.796509 
	C154.155518,290.899353 153.480164,293.563354 157.139725,295.920929 
	C163.255676,291.382782 170.471481,291.489471 177.991745,292.438141 
	C181.183121,294.480682 184.735550,296.135132 187.464844,298.674347 
	C190.224457,301.241760 191.874573,300.938446 194.496277,298.604950 
	C202.805054,291.209473 212.001450,289.658844 222.094772,295.064575 
	C223.125366,295.616547 224.723007,295.109772 226.671219,294.586304 
	C226.926498,292.834991 227.796707,290.892883 227.323532,289.367554 
	C225.811722,284.493988 223.780243,279.782990 221.988068,274.994751 
	C218.127792,264.681183 211.531982,261.443329 200.027893,264.528290 
	C199.295990,264.831879 198.564087,265.135437 197.081177,265.585022 
M169.519440,317.795563 
	C169.096313,318.898224 168.790863,320.889648 168.231567,320.963654 
	C163.534256,321.585571 165.210403,324.510834 165.503006,327.503326 
	C168.570053,326.441193 171.845139,326.490021 170.433884,321.785187 
	C170.111694,320.711121 172.033432,318.963928 173.780884,317.612305 
	C179.491791,317.959595 180.771454,319.447632 177.454803,324.720276 
	C168.831406,338.429291 172.387253,346.411102 185.170090,354.809784 
	C186.598312,357.610626 188.026550,360.411499 189.310333,362.929047 
	C185.501190,365.052124 182.745590,366.588013 179.481613,368.407227 
	C185.789215,368.127686 191.113312,367.891754 196.685349,367.644806 
	C190.191483,364.486969 189.295380,362.268555 191.967575,355.216095 
	C194.885574,352.977356 202.358673,353.781006 205.903564,356.794708 
	C206.255585,356.230988 207.023453,355.428284 206.872849,355.177795 
	C204.889496,351.879089 202.776703,348.658173 200.486328,345.090729 
	C202.083542,344.879059 203.453796,344.697449 205.047699,344.486206 
	C205.047699,343.109985 205.047699,341.891541 205.047699,339.799591 
	C206.326843,341.650055 207.119202,342.796326 208.029282,344.112885 
	C211.808731,342.014984 216.160233,341.039673 216.629379,335.891327 
	C222.656799,335.213684 221.820831,330.006134 223.613846,326.183594 
	C225.385010,322.407654 227.781754,319.183411 227.290070,315.816498 
	C218.542908,317.295746 210.411835,318.601105 202.315262,320.093567 
	C200.498627,320.428406 198.002380,320.905579 197.180786,322.188965 
	C191.792435,330.605896 191.914474,330.684021 182.589386,326.479553 
	C183.927567,323.945740 185.120132,321.320160 186.643143,318.902771 
	C188.304993,316.264954 190.272964,313.820007 192.107468,311.290985 
	C191.529587,310.884766 190.951691,310.478577 189.574341,310.636536 
	C182.758865,311.092224 175.939346,311.496124 169.129791,312.027649 
	C166.172562,312.258453 162.787552,312.054047 162.157318,315.902710 
	C164.718567,316.274414 167.005005,316.606232 169.519440,317.795563 
z"/>
<path fill="#24307F" opacity="1.000000" stroke="none" 
	d="
M552.095093,354.994598 
	C554.751160,356.630615 557.325928,358.424347 560.091187,359.848267 
	C561.996460,360.829315 564.361084,361.225464 560.989014,363.445282 
	C553.756470,362.838043 547.021118,362.666534 540.311951,362.153442 
	C538.507568,362.015472 536.782532,360.838837 535.021118,360.138916 
	C537.292847,358.271423 539.564575,356.403900 542.203613,353.877014 
	C542.656433,333.828552 542.747681,314.439545 542.801086,295.050385 
	C542.802795,294.428528 542.416565,293.805634 542.211182,293.183197 
	C540.047058,291.851044 537.853088,290.564392 535.730896,289.168488 
	C534.582581,288.413239 533.557068,287.471466 532.476135,286.613831 
	C532.751770,286.124695 533.027344,285.635559 533.302917,285.146423 
	C536.179321,285.438293 539.061829,286.023468 541.930908,285.963776 
	C548.879517,285.819275 555.842712,284.895111 562.760437,285.195862 
	C568.739868,285.455872 574.692017,285.978882 580.295227,289.372650 
	C589.514709,294.956757 589.859009,310.732269 582.204712,317.929932 
	C579.943481,320.056305 577.246460,321.719299 574.381958,323.870239 
	C575.491577,325.682098 576.604248,327.664032 577.872314,329.541077 
	C583.484314,337.848328 588.911560,346.297333 594.917358,354.311615 
	C596.786194,356.805328 600.273071,358.080811 603.001709,359.939697 
	C603.703674,360.417908 604.339233,360.993713 605.005310,361.524719 
	C604.324341,362.062225 603.723877,362.834808 602.949646,363.099976 
	C596.903809,365.170532 591.337646,363.893951 587.051208,359.398590 
	C583.219238,355.379852 579.982361,350.757202 576.757874,346.206207 
	C573.811646,342.047882 570.791809,337.840851 568.598389,333.273926 
	C565.395569,326.605316 559.883057,326.580719 553.084961,327.131287 
	C551.848938,331.020355 551.119141,334.806793 551.141357,338.588837 
	C551.173584,344.059113 551.750488,349.526154 552.095093,354.994598 
M552.474915,290.053070 
	C552.324646,290.391846 552.174438,290.730621 552.000244,291.003876 
	C552.000244,291.003876 552.066772,290.982849 551.422974,291.533905 
	C551.294373,298.648285 551.060669,305.763092 551.090637,312.876801 
	C551.102112,315.595337 551.716919,318.311310 551.975830,321.018677 
	C551.975830,321.018677 551.983582,320.937592 552.347229,321.505066 
	C552.986572,321.668884 553.625916,321.832703 555.139526,321.918915 
	C558.896301,321.574371 562.691345,321.458801 566.401978,320.838348 
	C574.510559,319.482605 575.869934,315.838959 577.735291,306.903076 
	C578.652466,302.509247 574.464905,294.199890 570.271790,292.947449 
	C564.999451,291.372620 559.415161,290.841888 553.731750,289.573090 
	C553.491394,289.738953 553.251099,289.904785 553.006348,290.006561 
	C553.006348,290.006561 553.068420,290.023102 552.474915,290.053070 
z"/>
<path fill="#283481" opacity="1.000000" stroke="none" 
	d="
M824.647949,355.771851 
	C812.255737,364.847778 798.621277,365.699951 784.637329,362.888489 
	C770.008484,359.947357 757.636047,343.799805 757.929810,328.867645 
	C758.075439,321.465820 757.126709,313.906769 760.516113,306.879028 
	C766.326111,294.832214 776.006348,288.118225 788.870361,284.724121 
	C803.406616,280.888794 815.499817,285.554901 826.382874,294.243073 
	C830.167358,297.264374 832.800049,302.100830 835.085938,306.556152 
	C841.623596,319.298187 839.957275,332.203400 834.008057,344.548096 
	C832.000977,348.712952 828.030579,351.931641 824.647949,355.771851 
M821.957947,349.417847 
	C824.297607,344.588165 827.579956,339.983093 828.794373,334.885345 
	C832.018555,321.351868 827.454285,309.459167 818.591003,299.319244 
	C811.155518,290.812744 801.340332,287.232147 790.170715,289.242279 
	C783.155212,290.504791 776.860168,293.464539 772.902649,300.269562 
	C766.922546,310.552429 765.578430,321.131042 768.845032,332.551849 
	C772.818054,346.442047 780.334534,356.507080 795.488342,359.106812 
	C805.884460,360.890320 814.642151,358.222443 821.957947,349.417847 
z"/>
<path fill="#283481" opacity="1.000000" stroke="none" 
	d="
M748.719604,336.534607 
	C744.664856,351.301025 728.329468,364.758240 711.453613,364.212433 
	C700.378601,363.854248 690.055603,362.896393 681.557434,355.110748 
	C673.470337,347.701721 669.175842,338.574951 670.022461,327.457947 
	C670.520691,320.914642 670.557007,314.160645 672.316895,307.929504 
	C675.044373,298.272583 681.897888,291.692108 691.309082,288.003815 
	C700.985413,284.211578 710.152039,281.994385 721.187622,285.383698 
	C731.272217,288.480988 739.488647,293.607178 744.480896,301.578949 
	C750.146729,310.626282 753.641663,321.440125 749.613281,332.775757 
	C749.229492,333.855652 749.121765,335.033630 748.719604,336.534607 
M739.507690,316.412323 
	C738.971863,315.206390 738.283447,314.044098 737.924316,312.787659 
	C735.002991,302.567047 728.799744,295.211365 718.977417,291.047760 
	C707.096130,286.011414 689.739014,289.196350 683.465454,302.333374 
	C675.664795,318.668304 677.639587,333.910034 688.671509,348.598083 
	C697.288086,360.070404 715.202759,363.049744 726.748840,355.708038 
	C733.123657,351.654602 737.004639,345.879913 739.332458,338.582062 
	C741.670166,331.253204 741.915039,324.265076 739.507690,316.412323 
z"/>
<path fill="#263280" opacity="1.000000" stroke="none" 
	d="
M514.967102,285.088867 
	C517.552002,285.620697 522.300476,285.962616 522.366577,286.715485 
	C522.760376,291.202789 522.143860,295.793335 521.616699,300.320099 
	C521.573547,300.690613 519.665955,300.843994 518.614258,301.100861 
	C516.579651,291.291321 516.239624,290.980377 506.148895,291.120880 
	C500.725006,291.196411 495.303833,291.466858 489.197754,292.110229 
	C488.370758,301.445465 488.219452,310.319763 488.126709,319.194672 
	C488.124237,319.433990 488.754791,319.679932 489.090179,319.922760 
	C496.351013,322.386261 503.426514,321.097137 510.330414,318.574829 
	C511.451508,318.165253 512.045776,316.315247 512.884949,315.132019 
	C513.692078,313.993835 514.500916,312.856903 516.404785,312.241821 
	C516.404785,319.944885 516.404785,327.647980 516.404785,336.197937 
	C514.874573,334.947113 513.627991,334.448364 513.485596,333.730499 
	C512.188965,327.195587 507.590302,326.728912 502.204193,327.085358 
	C498.229797,327.348389 494.222198,327.109924 489.433044,327.287079 
	C488.416443,334.804779 488.109131,342.129395 488.036865,349.456360 
	C488.018616,351.304382 488.751862,353.159882 489.139771,355.011932 
	C491.254822,355.976074 493.310791,357.598877 495.494781,357.794891 
	C507.502655,358.872650 518.026611,355.081848 527.665100,346.406494 
	C528.201050,348.351959 528.940430,349.651611 528.831299,350.875580 
	C528.318054,356.631378 520.002930,364.103546 514.147034,363.990143 
	C505.884796,363.830109 497.628723,363.265594 489.367096,363.189148 
	C484.763885,363.146576 480.156921,363.894287 475.547058,363.959198 
	C474.145844,363.978943 472.729279,362.908630 471.319763,362.337524 
	C472.318787,361.478821 473.448151,360.730499 474.289093,359.737885 
	C475.932892,357.797516 477.415619,355.720703 479.277161,353.003448 
	C479.678253,333.842224 479.774139,315.377930 479.825745,296.913483 
	C479.827454,296.302521 479.380310,295.690277 479.142395,295.078644 
	C477.928528,291.863129 476.201385,289.357056 472.355530,288.813629 
	C471.401611,288.678802 470.655334,287.074554 468.776733,285.001526 
	C477.626404,285.001526 484.866058,285.001526 492.917419,285.272583 
	C500.808441,285.392059 507.887787,285.240448 514.967102,285.088867 
z"/>
<path fill="#263280" opacity="1.000000" stroke="none" 
	d="
M616.112793,294.996613 
	C615.430664,290.603333 613.251587,288.075531 608.201721,289.181824 
	C607.948853,287.697418 607.746887,286.511841 607.453125,284.787537 
	C609.990112,285.090942 612.088196,285.506897 614.195129,285.558258 
	C618.148315,285.654602 622.144897,285.882385 626.055054,285.444397 
	C635.218445,284.417999 644.357117,284.727448 652.524231,288.979065 
	C663.769714,294.833282 666.286743,305.043610 660.386902,316.265106 
	C654.683899,327.112122 637.192871,331.361908 628.125183,325.222656 
	C628.186829,324.396637 628.228577,324.220734 628.715942,324.017731 
	C632.489197,323.950867 635.817078,323.924652 639.144348,323.868896 
	C650.386047,323.680542 655.278015,314.121368 653.875549,306.316284 
	C651.569946,293.485260 636.732788,287.506348 626.553772,291.111511 
	C626.104919,310.545837 626.019470,329.746155 625.995300,348.946503 
	C625.994385,349.664917 626.589783,350.384064 626.907288,351.102875 
	C627.567505,357.364166 632.015747,359.724152 637.708618,360.802277 
	C637.695923,361.357056 637.683167,361.911865 637.670410,362.466644 
	C635.616638,362.977539 633.557922,363.940948 631.509949,363.918518 
	C623.878723,363.835052 616.249817,363.452667 608.626953,363.049927 
	C608.329102,363.034180 608.102905,361.662018 609.197144,361.652985 
	C611.455994,358.630066 613.714844,355.607147 616.323792,351.898041 
	C616.767517,333.045563 616.868958,314.879303 616.919067,296.712891 
	C616.920654,296.141541 616.393494,295.568726 616.112793,294.996613 
z"/>
<path fill="#283481" opacity="1.000000" stroke="none" 
	d="
M399.521454,302.339722 
	C397.857147,298.723389 396.876526,295.098267 394.826233,292.240601 
	C393.109436,289.847748 390.143036,288.351440 388.454132,285.549011 
	C395.785950,285.549011 403.117737,285.549011 410.953461,285.549011 
	C410.628479,286.516388 410.547424,288.107788 409.944092,288.339478 
	C405.230164,290.150085 406.700012,293.540222 407.955902,296.475311 
	C412.794006,307.782440 417.973999,318.943665 422.778870,330.264435 
	C425.315796,336.241547 427.341919,342.435486 430.126709,349.957947 
	C434.811035,338.551544 438.938324,328.658783 442.936676,318.714203 
	C445.988403,311.124054 448.825500,303.447754 451.856964,295.849213 
	C453.677917,291.284760 452.832916,289.768646 447.787201,288.980164 
	C447.025696,288.861145 446.300873,288.507263 445.543427,288.256836 
	C446.927551,284.747498 454.048187,283.838989 466.027100,285.490509 
	C465.796631,286.427917 465.879242,287.676117 465.304474,288.192566 
	C456.529022,296.077209 454.652252,307.520142 450.202118,317.582062 
	C443.807983,332.039429 437.984344,346.748474 431.780731,361.291901 
	C431.177612,362.705872 429.617706,363.711700 427.327515,366.165070 
	C417.386627,344.660461 408.890564,323.511749 399.521454,302.339722 
z"/>
<path fill="#A47A1B" opacity="1.000000" stroke="none" 
	d="
M899.860779,267.238647 
	C899.860779,267.238647 900.041870,267.455078 900.029785,267.921753 
	C900.036743,268.605286 900.055664,268.822144 900.074646,269.038971 
	C900.074646,269.038971 900.003357,269.020081 899.567322,268.955872 
	C897.133667,268.931519 895.136108,269.006287 893.138489,269.006348 
	C688.436035,269.011597 483.733612,269.011749 279.031158,269.004089 
	C277.035492,269.004028 275.039825,268.896240 273.048462,268.589478 
	C273.073181,268.007446 273.073700,267.674683 273.507996,267.249237 
	C275.127563,267.131195 276.293365,267.083496 277.459198,267.083496 
	C483.261688,267.079559 689.064148,267.078613 894.866638,267.084961 
	C896.531372,267.084991 898.196045,267.185211 899.860779,267.238647 
z"/>
<path fill="#263280" opacity="1.000000" stroke="none" 
	d="
M860.863159,355.002441 
	C864.995300,360.385193 870.669434,357.723969 875.630371,357.466583 
	C884.612244,357.000641 892.603577,353.594879 898.989563,346.503448 
	C901.067993,354.147430 893.948486,364.038330 886.871399,363.982574 
	C878.095459,363.913422 869.324219,363.272736 860.547974,363.187775 
	C855.770752,363.141510 850.988953,363.889343 846.205627,363.940216 
	C844.866516,363.954468 843.514709,362.765167 842.168701,362.127960 
	C843.247498,361.322815 844.500977,360.670532 845.367493,359.679718 
	C847.015442,357.795410 848.442017,355.717529 850.310547,353.035522 
	C850.829712,351.545166 851.145203,350.739594 851.146667,349.933472 
	C851.179871,332.133850 851.200562,314.334106 851.134583,296.534729 
	C851.130066,295.312714 850.426636,294.093262 850.048218,292.872620 
	C847.528992,290.897308 845.009827,288.921997 841.515808,286.182312 
	C850.943970,286.182312 859.567871,286.182312 868.650879,286.182312 
	C866.034424,288.646240 863.524170,291.010193 860.615723,294.000397 
	C860.127747,314.010254 860.027527,333.393829 859.986938,352.777557 
	C859.985413,353.518555 860.558105,354.260773 860.863159,355.002441 
z"/>
<path fill="#24307F" opacity="1.000000" stroke="none" 
	d="
M314.912903,353.971344 
	C316.731537,357.058807 319.177155,358.300995 322.975555,357.974060 
	C337.687897,356.707550 340.316956,357.591309 352.912292,347.065308 
	C356.544159,349.727875 355.288452,353.032928 353.272552,355.491882 
	C349.367004,360.255798 345.275757,364.846558 337.903503,364.131287 
	C330.339111,363.397400 322.701904,363.260956 315.093536,363.190399 
	C310.650116,363.149200 306.204041,363.872253 301.752136,363.993713 
	C300.192322,364.036255 298.611511,363.308655 296.729950,362.858521 
	C299.857452,360.040009 302.326477,357.814911 305.213287,354.947968 
	C305.750153,353.825348 305.972961,353.344666 305.973328,352.863800 
	C305.988037,333.758942 306.003998,314.653961 305.928558,295.549408 
	C305.923859,294.354401 305.183685,293.162292 304.785675,291.968842 
	C302.342438,290.905273 299.899231,289.841705 297.361694,288.104248 
	C298.654572,286.890137 300.030945,285.918121 301.430695,285.883148 
	C308.037750,285.718140 314.651215,285.809601 321.593597,285.809601 
	C320.032867,287.606262 319.104797,288.674652 318.176758,289.743042 
	C317.366119,291.358704 316.555450,292.974396 315.197144,295.121460 
	C314.434509,296.605713 314.034332,297.558075 314.032104,298.511383 
	C313.992096,315.739624 313.980896,332.968018 314.037170,350.196167 
	C314.041290,351.455505 314.607849,352.712982 314.912903,353.971344 
z"/>
<path fill="#24307F" opacity="1.000000" stroke="none" 
	d="
M366.043396,293.863922 
	C363.377960,291.523651 360.712555,289.183411 357.361328,286.241028 
	C366.196625,286.241028 374.935730,286.241028 384.570679,286.241028 
	C381.962677,288.333282 379.499847,290.309082 376.599670,292.873505 
	C376.073578,313.257965 375.974640,333.053711 375.937866,352.849640 
	C375.936554,353.553284 376.550751,354.258087 376.878052,354.962372 
	C379.794098,357.398438 382.710175,359.834503 386.551392,363.043457 
	C376.770905,363.043457 367.651123,363.043457 358.211914,363.043457 
	C358.211914,362.205261 358.211914,360.804596 358.211914,359.403961 
	C358.547394,359.699554 358.882904,359.995148 359.218384,360.290741 
	C361.451599,358.100037 363.684784,355.909302 366.279816,353.038605 
	C366.777344,351.882233 367.030640,351.406128 367.031738,350.929443 
	C367.072510,332.965698 367.108215,315.001892 367.065033,297.038269 
	C367.062469,295.979340 366.399231,294.921997 366.043396,293.863922 
z"/>
<path fill="#A47A1B" opacity="1.000000" stroke="none" 
	d="
M832.999817,226.335968 
	C834.739014,239.222824 831.242493,247.030411 821.591553,251.073746 
	C810.045532,255.911057 801.174255,252.032883 795.492920,241.508041 
	C790.711060,232.649460 793.088013,221.507935 803.061279,214.961624 
	C812.888123,208.511444 830.074036,212.065918 832.999817,226.335968 
M825.952515,228.012604 
	C823.986877,220.881042 820.942627,218.072464 815.121521,218.020081 
	C805.169006,217.930542 803.075867,219.793686 800.947388,230.219391 
	C799.779724,235.938843 801.001709,240.956863 805.384277,244.795120 
	C809.481873,248.383911 814.376160,247.383224 818.993774,245.982391 
	C824.433472,244.332138 827.455322,236.708984 825.952515,228.012604 
z"/>
<path fill="#A27714" opacity="1.000000" stroke="none" 
	d="
M353.275330,213.181168 
	C357.580658,212.219513 360.111938,214.041367 362.524719,217.713898 
	C366.970215,224.480530 372.133453,230.775620 377.075073,237.945496 
	C377.868469,239.195038 378.584381,239.766296 379.908661,240.822983 
	C379.908661,231.386139 379.908661,222.698013 379.908661,214.009888 
	C381.718994,213.586807 383.529358,213.163742 385.702515,212.655869 
	C385.702515,226.004974 385.702515,238.612183 385.702515,251.248871 
	C380.698273,254.257294 378.813843,249.829651 376.756348,247.168762 
	C371.354767,240.183228 366.361206,232.882202 361.019470,225.054260 
	C360.175659,223.485291 359.517487,222.568909 358.859283,221.652512 
	C357.906372,230.264023 357.784485,238.469223 357.963470,246.667877 
	C358.040131,250.179443 356.816498,251.589218 353.286926,250.420410 
	C353.244263,237.702820 353.259796,225.442001 353.275330,213.181168 
z"/>
<path fill="#D0C79E" opacity="1.000000" stroke="none" 
	d="
M273.044159,268.838745 
	C275.039825,268.896240 277.035492,269.004028 279.031158,269.004089 
	C483.733612,269.011749 688.436035,269.011597 893.138489,269.006348 
	C895.136108,269.006287 897.133667,268.931519 899.601562,268.951111 
	C898.403809,269.340485 896.735840,269.959045 895.067688,269.959412 
	C688.812500,270.002319 482.557281,270.005829 276.302124,269.891754 
	C274.614716,269.890808 271.364624,272.113678 271.364136,267.454041 
	C271.846252,267.076630 272.015442,267.111115 272.169312,267.416809 
	C272.450745,268.071594 272.747437,268.455170 273.044159,268.838745 
z"/>
<path fill="#E3DFC4" opacity="1.000000" stroke="none" 
	d="
M272.184631,267.145630 
	C272.015442,267.111115 271.846252,267.076630 271.420044,267.010193 
	C272.614349,266.652466 274.065643,266.041443 275.517029,266.041138 
	C482.110901,265.998383 688.704773,265.999329 895.298645,266.013184 
	C896.782104,266.013275 898.265625,266.217865 899.804932,266.782806 
	C898.196045,267.185211 896.531372,267.084991 894.866638,267.084961 
	C689.064148,267.078613 483.261688,267.079559 277.459198,267.083496 
	C276.293365,267.083496 275.127563,267.131195 273.297363,267.170227 
	C272.632965,267.183838 272.184631,267.145630 272.184631,267.145630 
z"/>
<path fill="#A47A1B" opacity="1.000000" stroke="none" 
	d="
M590.287537,249.965240 
	C588.996826,248.613480 587.999512,247.504684 587.023132,246.419205 
	C590.006226,241.825790 590.750061,241.780029 596.395203,245.746140 
	C600.970581,248.960648 605.422424,248.889435 608.919250,245.545761 
	C612.383545,242.233200 612.018433,238.952789 607.586975,236.998230 
	C604.331543,235.562347 600.760559,234.856445 597.366272,233.717773 
	C590.013184,231.251114 586.426636,226.002365 588.197083,220.425003 
	C589.920654,214.995316 598.532104,210.702072 604.603149,212.232025 
	C606.961487,212.826355 609.461853,213.084076 611.650452,214.053299 
	C613.402954,214.829391 615.430908,216.183868 616.088928,217.792160 
	C616.500488,218.798141 614.598572,220.750595 614.340881,221.206314 
	C609.322083,219.984985 605.327698,218.413055 601.287598,218.285172 
	C599.294739,218.222092 597.217468,220.826187 595.178406,222.223419 
	C596.707397,224.101089 597.879211,226.622559 599.844910,227.713135 
	C603.220337,229.585815 607.067932,230.633224 610.759949,231.903015 
	C615.572266,233.558075 617.869263,237.086090 617.853821,241.932663 
	C617.841309,245.856110 611.824036,252.924820 607.878723,252.791931 
	C602.090332,252.596939 596.344727,251.132034 590.287537,249.965240 
z"/>
<path fill="#A27714" opacity="1.000000" stroke="none" 
	d="
M553.066223,238.567551 
	C553.066223,238.567551 553.013855,238.523682 553.009399,238.126404 
	C552.639343,237.488281 552.273743,237.247437 551.908203,237.006577 
	C551.908203,237.006577 552.010864,236.988586 551.811340,236.685791 
	C549.572632,236.382980 547.533447,236.382980 544.992004,236.382980 
	C544.992004,238.998001 545.027954,241.253098 544.982300,243.506531 
	C544.932739,245.952744 544.807251,248.397430 544.314819,250.855820 
	C540.899658,251.141953 540.854553,249.080719 540.863403,246.982040 
	C540.912109,235.388214 540.962463,223.794403 541.012207,212.200577 
	C545.427551,212.470963 549.840088,212.893387 554.258972,212.977036 
	C561.346375,213.111237 566.479248,216.293518 568.192078,220.933640 
	C570.356140,226.795975 566.345886,234.280594 559.974792,236.852676 
	C561.332886,239.259369 562.671082,241.630722 564.113464,244.618469 
	C564.502502,245.487152 564.787231,245.739426 565.072021,245.991714 
	C565.072021,245.991714 565.007263,245.986893 565.039062,246.252716 
	C565.404541,246.660034 565.738159,246.801559 566.071777,246.943069 
	C566.071777,246.943069 566.002441,246.998779 565.931396,247.308594 
	C566.750000,251.059204 565.533142,251.906372 562.430786,250.387238 
	C561.578918,249.970093 560.757690,249.490463 559.922363,249.039490 
	C559.922363,249.039490 559.995361,249.006271 560.060669,248.713013 
	C559.486084,247.638824 558.846313,246.857864 558.206482,246.076920 
	C557.197388,244.611908 556.188232,243.146896 554.994568,241.100143 
	C554.509766,240.344925 554.209473,240.171463 553.909241,239.997986 
	C553.909241,239.997986 553.988770,240.005814 554.020264,239.709442 
	C553.723267,239.131241 553.394714,238.849396 553.066223,238.567551 
M545.398193,218.552689 
	C545.398193,222.916534 545.398193,227.280396 545.398193,232.235458 
	C549.908447,231.853775 553.814026,231.523254 558.394958,230.832321 
	C558.728455,230.289505 558.978455,229.667023 559.408447,229.216217 
	C563.673401,224.744736 562.650085,219.860962 556.781738,218.542801 
	C553.340210,217.769760 549.637268,218.161011 545.398193,218.552689 
z"/>
<path fill="#A47A1B" opacity="1.000000" stroke="none" 
	d="
M438.697876,226.350494 
	C436.901093,221.946960 435.294434,217.886505 433.638885,213.702469 
	C438.160248,212.201263 440.559143,213.061508 442.092468,217.400742 
	C445.187805,226.160477 448.845490,234.721512 452.548584,244.064194 
	C456.690552,233.347534 460.592346,223.252243 464.486816,213.176025 
	C466.985199,213.176025 469.286530,213.176025 472.135986,213.176025 
	C468.341339,222.306320 464.656860,231.095581 461.042419,239.913559 
	C459.929199,242.629456 459.365692,245.640839 457.872559,248.106354 
	C456.868225,249.764740 454.600067,251.795166 453.028748,251.690308 
	C450.976624,251.553360 448.056274,249.922363 447.252289,248.145538 
	C444.092804,241.162918 441.617371,233.870773 438.697876,226.350494 
z"/>
<path fill="#A27714" opacity="1.000000" stroke="none" 
	d="
M514.922668,234.841385 
	C509.259705,234.909332 503.596741,234.977295 497.093140,235.274200 
	C496.252472,239.223282 496.252472,242.943390 496.252472,247.161407 
	C503.010651,247.161407 509.413300,247.161407 515.815918,247.161407 
	C518.161133,250.537888 516.924622,252.026596 513.169617,252.039551 
	C506.205963,252.063583 499.242096,252.021667 491.789734,251.497864 
	C491.194214,238.650085 491.087189,226.311615 491.291626,213.690887 
	C499.518860,213.408630 507.434662,213.408630 515.728516,213.408630 
	C515.728516,214.986496 515.728516,216.416428 515.728516,217.846375 
	C509.756653,217.846375 503.784821,217.846375 497.007385,217.846375 
	C497.007385,221.148453 497.007385,224.069794 496.743225,227.729858 
	C497.472076,228.985840 498.445129,229.897873 499.461670,229.949280 
	C503.092346,230.132935 506.751892,230.225433 510.373779,229.971100 
	C514.150269,229.705917 515.605835,231.161469 514.922668,234.841385 
z"/>
<path fill="#A27714" opacity="1.000000" stroke="none" 
	d="
M329.824554,237.959808 
	C329.997528,243.176315 326.417175,249.053467 321.405151,251.159119 
	C315.249786,253.745117 308.936737,254.326813 303.469879,249.785187 
	C300.953827,247.695007 299.331696,244.528824 297.492706,241.191742 
	C297.858948,231.458878 298.036713,222.384842 298.613800,213.237122 
	C302.440277,212.490952 302.727753,214.498322 302.803772,217.202118 
	C303.026245,225.119980 303.470612,233.031616 303.828033,240.945694 
	C306.033600,245.013947 308.650879,248.601669 314.013031,247.938599 
	C318.854858,247.339874 322.228790,244.919174 323.395935,239.089844 
	C323.783234,230.143173 323.783234,221.860321 323.783234,213.125046 
	C326.043854,213.125046 327.478394,213.125046 328.938293,213.584915 
	C329.250641,222.016464 329.537598,229.988129 329.824554,237.959808 
z"/>
<path fill="#A47A1B" opacity="1.000000" stroke="none" 
	d="
M728.721802,224.192383 
	C730.081360,226.075821 731.191162,227.694382 732.516724,229.627609 
	C735.275574,225.568329 738.637878,221.905975 740.459229,217.592926 
	C742.423401,212.941391 745.303528,212.394745 750.302734,213.482529 
	C748.441223,216.499054 747.108215,219.627319 744.941956,221.992310 
	C737.753540,229.840347 734.375671,238.759766 736.004944,249.410675 
	C736.099426,250.027954 735.871399,250.694565 735.753235,251.670502 
	C733.622375,251.670502 731.580505,251.670502 728.346313,251.670502 
	C733.421082,235.751801 722.552490,225.522110 714.604736,213.652405 
	C718.692200,212.684158 721.946167,212.018631 724.058472,216.321991 
	C725.346985,218.946823 726.988892,221.398224 728.721802,224.192383 
z"/>
<path fill="#A27714" opacity="1.000000" stroke="none" 
	d="
M859.619812,251.863220 
	C858.420959,251.919357 857.222107,251.975479 855.622314,251.484543 
	C855.146240,238.262344 855.071167,225.587219 854.996094,212.912079 
	C854.996094,212.912079 854.987366,212.986069 855.420471,213.049194 
	C863.783875,213.112305 871.714172,213.112305 880.038818,213.112305 
	C880.038818,214.926666 880.038818,216.352051 880.038818,217.777420 
	C873.951111,217.777420 867.863403,217.777420 860.993652,217.777420 
	C860.993652,221.218445 860.993652,224.119324 860.730042,227.755554 
	C861.634338,229.000305 862.784119,229.893036 863.973389,229.949005 
	C867.937317,230.135574 871.918030,230.110275 875.887146,229.992355 
	C878.515686,229.914261 880.092224,230.661911 879.309753,233.714233 
	C872.633911,233.817062 866.400146,233.817062 859.619812,233.817062 
	C859.619812,240.572632 859.619812,246.217926 859.619812,251.863220 
z"/>
<path fill="#A27714" opacity="1.000000" stroke="none" 
	d="
M694.718018,217.848312 
	C691.469971,217.884720 688.221924,217.921112 684.123779,218.164459 
	C683.091858,229.533371 682.910034,240.695297 682.728210,251.857239 
	C681.511475,251.913391 680.294739,251.969543 678.654602,251.487579 
	C678.186768,241.550293 678.202515,232.150070 678.040039,222.752914 
	C678.012268,221.146210 677.222961,219.552704 676.785461,217.953110 
	C674.175842,217.945740 671.560364,217.825821 668.958130,217.960693 
	C665.992004,218.114456 664.689392,216.877426 665.553345,213.519775 
	C675.496216,213.114807 684.918091,213.114807 694.718018,213.114807 
	C694.718018,215.003830 694.718018,216.426071 694.718018,217.848312 
z"/>
<path fill="#A27714" opacity="1.000000" stroke="none" 
	d="
M639.118835,213.163208 
	C640.120117,213.118454 641.121338,213.073700 642.539856,213.550018 
	C642.989319,225.027023 643.090210,235.983704 642.963135,246.937759 
	C642.947998,248.242157 641.689819,249.532120 641.007812,250.828766 
	C640.313660,249.559692 639.028442,248.295578 639.017761,247.020767 
	C638.923035,235.735992 639.054321,224.449326 639.118835,213.163208 
z"/>
<path fill="#B59959" opacity="1.000000" stroke="none" 
	d="
M540.615845,212.296021 
	C540.962463,223.794403 540.912109,235.388214 540.863403,246.982040 
	C540.854553,249.080719 540.899658,251.141953 544.396423,251.099228 
	C544.905762,251.498138 544.933472,251.666687 544.961182,251.835251 
	C543.150391,251.835251 541.339661,251.835251 539.008667,251.835251 
	C539.008667,239.229019 538.994995,226.551346 539.059814,213.874069 
	C539.062378,213.377914 539.815857,212.885574 540.615845,212.296021 
z"/>
<path fill="#B59959" opacity="1.000000" stroke="none" 
	d="
M638.695801,213.285919 
	C639.054321,224.449326 638.923035,235.735992 639.017761,247.020767 
	C639.028442,248.295578 640.313660,249.559692 641.007812,250.828766 
	C641.689819,249.532120 642.947998,248.242157 642.963135,246.937759 
	C643.090210,235.983704 642.989319,225.027023 642.911377,213.615173 
	C643.230469,213.765503 643.910339,214.370148 643.913452,214.978271 
	C643.975769,227.111038 643.959961,239.244202 643.959961,251.664749 
	C642.009888,251.664749 640.284363,251.664749 638.272766,251.664749 
	C638.272766,238.929337 638.272766,226.168976 638.695801,213.285919 
z"/>
<path fill="#636EA3" opacity="1.000000" stroke="none" 
	d="
M304.872314,292.433960 
	C305.183685,293.162292 305.923859,294.354401 305.928558,295.549408 
	C306.003998,314.653961 305.988037,333.758942 305.973328,352.863800 
	C305.972961,353.344666 305.750153,353.825348 305.383240,354.639648 
	C305.076599,334.281799 305.017761,313.590454 304.872314,292.433960 
z"/>
<path fill="#AEB9D7" opacity="1.000000" stroke="none" 
	d="
M628.270325,324.044830 
	C628.228577,324.220734 628.186829,324.396637 628.089600,324.837952 
	C627.689392,326.710480 627.076477,328.312653 627.046692,329.925598 
	C626.922302,336.661163 626.973022,343.399994 626.933472,350.620239 
	C626.589783,350.384064 625.994385,349.664917 625.995300,348.946503 
	C626.019470,329.746155 626.104919,310.545837 626.598999,291.592712 
	C627.011963,300.899353 626.942017,309.959686 627.057373,319.017609 
	C627.078735,320.698242 627.846863,322.369324 628.270325,324.044830 
z"/>
<path fill="#AEB9D7" opacity="1.000000" stroke="none" 
	d="
M376.941772,354.497437 
	C376.550751,354.258087 375.936554,353.553284 375.937866,352.849640 
	C375.974640,333.053711 376.073578,313.257965 376.529419,293.233551 
	C376.932831,313.347473 376.969147,333.689972 376.941772,354.497437 
z"/>
<path fill="#AEB9D7" opacity="1.000000" stroke="none" 
	d="
M860.902283,354.530151 
	C860.558105,354.260773 859.985413,353.518555 859.986938,352.777557 
	C860.027527,333.393829 860.127747,314.010254 860.543335,294.365387 
	C860.893188,314.088684 860.917297,334.073273 860.902283,354.530151 
z"/>
<path fill="#636EA3" opacity="1.000000" stroke="none" 
	d="
M542.157837,293.636414 
	C542.416565,293.805634 542.802795,294.428528 542.801086,295.050385 
	C542.747681,314.439545 542.656433,333.828552 542.358398,353.560394 
	C542.132080,333.965302 542.118286,314.027466 542.157837,293.636414 
z"/>
<path fill="#636EA3" opacity="1.000000" stroke="none" 
	d="
M850.016113,293.354492 
	C850.426636,294.093262 851.130066,295.312714 851.134583,296.534729 
	C851.200562,314.334106 851.179871,332.133850 851.146667,349.933472 
	C851.145203,350.739594 850.829712,351.545166 850.388062,352.671936 
	C850.071777,333.273987 850.027832,313.555176 850.016113,293.354492 
z"/>
<path fill="#283481" opacity="1.000000" stroke="none" 
	d="
M314.970032,353.507843 
	C314.607849,352.712982 314.041290,351.455505 314.037170,350.196167 
	C313.980896,332.968018 313.992096,315.739624 314.032104,298.511383 
	C314.034332,297.558075 314.434509,296.605713 314.942963,295.356873 
	C315.166718,314.388702 315.096924,333.716522 314.970032,353.507843 
z"/>
<path fill="#636EA3" opacity="1.000000" stroke="none" 
	d="
M366.003235,294.345703 
	C366.399231,294.921997 367.062469,295.979340 367.065033,297.038269 
	C367.108215,315.001892 367.072510,332.965698 367.031738,350.929443 
	C367.030640,351.406128 366.777344,351.882233 366.373138,352.683777 
	C366.057465,333.615143 366.010284,314.221344 366.003235,294.345703 
z"/>
<path fill="#636EA3" opacity="1.000000" stroke="none" 
	d="
M479.103394,295.541687 
	C479.380310,295.690277 479.827454,296.302521 479.825745,296.913483 
	C479.774139,315.377930 479.678253,333.842224 479.344757,352.639954 
	C479.088257,333.983826 479.076324,314.994293 479.103394,295.541687 
z"/>
<path fill="#AEB9D7" opacity="1.000000" stroke="none" 
	d="
M616.087463,295.469116 
	C616.393494,295.568726 616.920654,296.141541 616.919067,296.712891 
	C616.868958,314.879303 616.767517,333.045563 616.413696,351.524414 
	C616.123047,333.205200 616.092590,314.573425 616.087463,295.469116 
z"/>
<path fill="#D0C79E" opacity="1.000000" stroke="none" 
	d="
M409.951477,212.178833 
	C411.436157,212.097794 412.920837,212.016754 414.691833,211.920074 
	C414.691833,225.290085 414.691833,238.495239 414.227051,251.535172 
	C413.762268,251.369949 413.649536,250.916321 413.744629,250.461945 
	C413.821198,238.009628 413.802643,226.011719 413.761963,213.795105 
	C413.568665,213.289948 413.317749,213.169815 412.608307,213.157196 
	C411.467072,213.026108 410.704651,212.953827 409.938232,212.705780 
	C409.934174,212.530029 409.951477,212.178848 409.951477,212.178833 
z"/>
<path fill="#B59959" opacity="1.000000" stroke="none" 
	d="
M353.345093,250.877167 
	C356.816498,251.589218 358.040131,250.179443 357.963470,246.667877 
	C357.784485,238.469223 357.906372,230.264023 358.859283,221.652512 
	C359.517487,222.568909 360.175659,223.485291 360.890076,224.735046 
	C360.322327,225.600494 359.162537,226.124878 359.154724,226.665817 
	C359.038483,234.747711 359.074371,242.831802 359.074371,251.980515 
	C357.595184,251.980515 355.734161,251.980515 353.510864,251.661133 
	C353.214111,251.186905 353.279602,251.032028 353.345093,250.877167 
z"/>
<path fill="#E3DFC4" opacity="1.000000" stroke="none" 
	d="
M409.517639,212.107437 
	C409.951477,212.178848 409.934174,212.530029 409.957886,212.775452 
	C409.981628,213.020859 410.044647,213.151184 409.803223,213.166718 
	C409.218140,213.361160 409.103363,213.635788 409.147156,214.469574 
	C409.118256,226.623703 409.159698,238.314346 409.127197,250.302292 
	C409.094147,251.005447 409.135010,251.411285 409.175873,251.817139 
	C408.788147,250.916275 408.068787,250.017532 408.063019,249.114227 
	C407.988800,237.517822 407.996399,225.920624 408.064087,214.324112 
	C408.068573,213.559464 408.728668,212.798645 409.517639,212.107437 
z"/>
<path fill="#636EA3" opacity="1.000000" stroke="none" 
	d="
M318.526550,289.778931 
	C319.104797,288.674652 320.032867,287.606262 321.593597,285.809601 
	C314.651215,285.809601 308.037750,285.718140 301.430695,285.883148 
	C300.030945,285.918121 298.654572,286.890137 297.143860,287.839417 
	C296.637085,287.334564 296.253876,286.420685 295.790771,285.316254 
	C321.993225,284.371887 321.993225,284.371887 323.377777,288.261536 
	C321.878418,288.778931 320.377380,289.296875 318.526550,289.778931 
z"/>
<path fill="#E3DFC4" opacity="1.000000" stroke="none" 
	d="
M353.286926,250.420410 
	C353.279602,251.032028 353.214111,251.186905 353.100769,251.588928 
	C352.727295,251.560852 352.116119,251.284653 352.117065,251.010498 
	C352.159668,238.417374 352.255737,225.824417 352.810425,213.206299 
	C353.259796,225.442001 353.244263,237.702820 353.286926,250.420410 
z"/>
<path fill="#E3DFC4" opacity="1.000000" stroke="none" 
	d="
M854.607361,213.123413 
	C855.071167,225.587219 855.146240,238.262344 855.272583,251.391739 
	C854.884399,251.162201 854.062927,250.478653 854.062500,249.794617 
	C854.055237,237.641357 854.147644,225.488037 854.607361,213.123413 
z"/>
<path fill="#D0C79E" opacity="1.000000" stroke="none" 
	d="
M860.092041,251.845398 
	C859.619812,246.217926 859.619812,240.572632 859.619812,233.817062 
	C866.400146,233.817062 872.633911,233.817062 879.594543,233.798187 
	C880.511963,233.831680 880.702637,233.884048 880.893311,233.936432 
	C877.967773,234.287964 875.050476,234.799606 872.114624,234.949478 
	C868.645874,235.126541 865.161194,234.991043 861.342957,234.991043 
	C861.078064,240.718613 860.821167,246.273102 860.092041,251.845398 
z"/>
<path fill="#636EA3" opacity="1.000000" stroke="none" 
	d="
M534.670959,360.290100 
	C536.782532,360.838837 538.507568,362.015472 540.311951,362.153442 
	C547.021118,362.666534 553.756470,362.838043 560.640137,363.457581 
	C552.130737,363.777374 543.463074,363.777374 534.320801,363.777374 
	C534.320801,362.561859 534.320801,361.501526 534.670959,360.290100 
z"/>
<path fill="#B59959" opacity="1.000000" stroke="none" 
	d="
M490.980164,213.973160 
	C491.087189,226.311615 491.194214,238.650085 491.348206,251.449921 
	C490.919800,250.764236 490.040802,249.620377 490.031616,248.469574 
	C489.942352,237.280533 489.998718,226.090302 490.291412,214.433334 
	C490.569244,213.966248 490.980164,213.973160 490.980164,213.973160 
z"/>
<path fill="#D0C79E" opacity="1.000000" stroke="none" 
	d="
M695.159729,217.790314 
	C694.718018,216.426071 694.718018,215.003830 694.718018,213.114807 
	C684.918091,213.114807 675.496216,213.114807 665.618286,213.116028 
	C665.574829,212.744843 665.985413,212.049881 666.400391,212.047287 
	C676.185974,211.986343 685.971924,212.000031 696.063171,212.000031 
	C695.888000,214.175049 695.744751,215.953674 695.159729,217.790314 
z"/>
<path fill="#D0C79E" opacity="1.000000" stroke="none" 
	d="
M303.855713,240.478821 
	C303.470612,233.031616 303.026245,225.119980 302.803772,217.202118 
	C302.727753,214.498322 302.440277,212.490952 298.345337,213.182404 
	C297.497253,213.172958 297.316956,213.144608 297.136688,213.116241 
	C299.156769,212.570129 301.176880,212.024002 303.883362,211.292297 
	C303.883362,221.348160 303.883362,230.680054 303.855713,240.478821 
z"/>
<path fill="#D0C79E" opacity="1.000000" stroke="none" 
	d="
M676.869141,218.420090 
	C677.222961,219.552704 678.012268,221.146210 678.040039,222.752914 
	C678.202515,232.150070 678.186768,241.550293 678.297424,251.404236 
	C677.902954,250.517853 677.059998,249.181625 677.042725,247.834793 
	C676.918579,238.186768 676.962402,228.536575 676.869141,218.420090 
z"/>
<path fill="#D0C79E" opacity="1.000000" stroke="none" 
	d="
M683.186523,251.801636 
	C682.910034,240.695297 683.091858,229.533371 683.677612,218.200562 
	C683.935913,229.268478 683.790344,240.507248 683.186523,251.801636 
z"/>
<path fill="#E3DFC4" opacity="1.000000" stroke="none" 
	d="
M328.912903,213.125046 
	C327.478394,213.125046 326.043854,213.125046 323.783234,213.125046 
	C323.783234,221.860321 323.783234,230.143173 323.477478,238.721954 
	C323.171753,230.128708 323.171753,221.239517 323.171753,212.219498 
	C325.388672,212.219498 327.475159,212.219498 329.454102,212.610626 
	C329.346558,213.001755 328.912903,213.125046 328.912903,213.125046 
z"/>
<path fill="#D0C79E" opacity="1.000000" stroke="none" 
	d="
M880.382324,217.683594 
	C880.038818,216.352051 880.038818,214.926666 880.038818,213.112305 
	C871.714172,213.112305 863.783875,213.112305 855.383545,213.044189 
	C858.886780,212.642914 862.854736,212.203766 866.834717,212.009552 
	C870.134460,211.848541 873.448242,211.968811 876.755798,211.977676 
	C881.589233,211.990646 882.250122,212.930206 880.382324,217.683594 
z"/>
<path fill="#D0C79E" opacity="1.000000" stroke="none" 
	d="
M491.291626,213.690887 
	C490.980164,213.973160 490.569244,213.966248 490.363770,213.967712 
	C490.769501,213.306427 491.371887,212.076309 491.993256,212.066681 
	C500.266144,211.938293 508.541718,211.980896 517.103027,211.980896 
	C516.919189,214.150360 516.768433,215.930252 516.173096,217.778259 
	C515.728516,216.416428 515.728516,214.986496 515.728516,213.408630 
	C507.434662,213.408630 499.518860,213.408630 491.291626,213.690887 
z"/>
<path fill="#E3DFC4" opacity="1.000000" stroke="none" 
	d="
M515.749512,246.715378 
	C509.413300,247.161407 503.010651,247.161407 496.252472,247.161407 
	C496.252472,242.943390 496.252472,239.223282 496.626373,235.307617 
	C497.000275,238.541931 497.000275,241.971786 497.000275,246.269348 
	C503.345245,246.269348 509.514191,246.269348 515.749512,246.715378 
z"/>
<path fill="#636EA3" opacity="1.000000" stroke="none" 
	d="
M206.881516,188.581970 
	C197.246490,188.890182 187.392319,188.815262 177.261032,188.416061 
	C186.876724,188.127472 196.769562,188.163162 206.881516,188.581970 
z"/>
<path fill="#E3DFC4" opacity="1.000000" stroke="none" 
	d="
M379.520996,214.206116 
	C379.908661,222.698013 379.908661,231.386139 379.908661,240.822983 
	C378.584381,239.766296 377.868469,239.195038 377.102356,238.298950 
	C377.696564,236.830093 378.860504,235.703537 378.899597,234.539185 
	C379.124878,227.831879 379.083984,221.115585 379.520996,214.206116 
z"/>
<path fill="#B59959" opacity="1.000000" stroke="none" 
	d="
M515.303040,234.781189 
	C515.605835,231.161469 514.150269,229.705917 510.373779,229.971100 
	C506.751892,230.225433 503.092346,230.132935 499.461670,229.949280 
	C498.445129,229.897873 497.472076,228.985840 496.675720,228.175842 
	C502.155029,228.250092 507.434113,228.685272 512.721497,228.963348 
	C517.266052,229.202377 517.897949,230.338470 515.303040,234.781189 
z"/>
<path fill="#636EA3" opacity="1.000000" stroke="none" 
	d="
M552.059814,354.527710 
	C551.750488,349.526154 551.173584,344.059113 551.141357,338.588837 
	C551.119141,334.806793 551.848938,331.020355 552.631348,327.146484 
	C552.673645,330.604156 552.130615,334.145416 552.026550,337.699554 
	C551.867126,343.148651 552.009949,348.606598 552.059814,354.527710 
z"/>
<path fill="#636EA3" opacity="1.000000" stroke="none" 
	d="
M489.056580,319.460022 
	C488.754791,319.679932 488.124237,319.433990 488.126709,319.194672 
	C488.219452,310.319763 488.370758,301.445465 488.821899,292.279663 
	C489.094116,300.991241 489.058533,309.994293 489.056580,319.460022 
z"/>
<path fill="#B59959" opacity="1.000000" stroke="none" 
	d="
M297.060486,213.566208 
	C297.316956,213.144608 297.497253,213.172958 297.946014,213.256058 
	C298.036713,222.384842 297.858948,231.458878 297.389832,240.863770 
	C297.060455,232.135132 297.022369,223.075653 297.060486,213.566208 
z"/>
<path fill="#636EA3" opacity="1.000000" stroke="none" 
	d="
M489.080078,354.545349 
	C488.751862,353.159882 488.018616,351.304382 488.036865,349.456360 
	C488.109131,342.129395 488.416443,334.804779 488.989197,327.227905 
	C489.234619,336.010651 489.127502,345.044708 489.080078,354.545349 
z"/>
<path fill="#B59959" opacity="1.000000" stroke="none" 
	d="
M880.960938,233.498596 
	C880.702637,233.884048 880.511963,233.831680 880.036560,233.695343 
	C880.092224,230.661911 878.515686,229.914261 875.887146,229.992355 
	C871.918030,230.110275 867.937317,230.135574 863.973389,229.949005 
	C862.784119,229.893036 861.634338,229.000305 860.666992,228.203583 
	C864.663269,228.269913 868.453247,228.719666 872.256531,228.945221 
	C875.023743,229.109314 877.808533,228.977295 881.028625,228.977295 
	C881.028625,230.549561 881.028625,231.805145 880.960938,233.498596 
z"/>
<path fill="#B59959" opacity="1.000000" stroke="none" 
	d="
M328.938293,213.584915 
	C328.912903,213.125046 329.346558,213.001755 329.571533,213.013275 
	C329.844116,221.026535 329.891663,229.028259 329.881897,237.494904 
	C329.537598,229.988129 329.250641,222.016464 328.938293,213.584915 
z"/>
<path fill="#283481" opacity="1.000000" stroke="none" 
	d="
M514.503784,285.035156 
	C507.887787,285.240448 500.808441,285.392059 493.386566,285.322083 
	C500.042816,285.060791 507.041656,285.021118 514.503784,285.035156 
z"/>
<path fill="#D0C79E" opacity="1.000000" stroke="none" 
	d="
M545.375549,251.701523 
	C544.933472,251.666687 544.905762,251.498138 544.796509,251.086182 
	C544.807251,248.397430 544.932739,245.952744 544.982300,243.506531 
	C545.027954,241.253098 544.992004,238.998001 544.992004,236.382980 
	C547.533447,236.382980 549.572632,236.382980 551.820862,236.737000 
	C550.234375,237.091034 548.438904,237.091034 545.789917,237.091034 
	C545.789917,241.907181 545.789917,246.737488 545.375549,251.701523 
z"/>
<path fill="#B59959" opacity="1.000000" stroke="none" 
	d="
M559.922607,249.451233 
	C560.757690,249.490463 561.578918,249.970093 562.430786,250.387238 
	C565.533142,251.906372 566.750000,251.059204 565.967590,247.280243 
	C567.188599,248.326248 568.302368,249.710449 569.416138,251.094650 
	C569.102783,251.652756 568.789490,252.210861 568.476135,252.768967 
	C565.625000,251.800293 562.773926,250.831619 559.922607,249.451233 
z"/>
<path fill="#AE8933" opacity="1.000000" stroke="none" 
	d="
M409.552917,251.911743 
	C409.135010,251.411285 409.094147,251.005447 409.420654,250.455948 
	C411.075165,250.513641 412.362335,250.714981 413.649536,250.916321 
	C413.649536,250.916321 413.762268,251.369949 413.787170,251.601685 
	C412.518036,251.891068 411.223999,251.948715 409.552917,251.911743 
z"/>
<path fill="#B59959" opacity="1.000000" stroke="none" 
	d="
M558.145142,246.399628 
	C558.846313,246.857864 559.486084,247.638824 560.032227,248.741318 
	C559.320312,248.282700 558.702026,247.502518 558.145142,246.399628 
z"/>
<path fill="#B59959" opacity="1.000000" stroke="none" 
	d="
M564.993652,245.703629 
	C564.787231,245.739426 564.502502,245.487152 564.095093,244.964569 
	C564.286743,244.934677 564.601013,245.175110 564.993652,245.703629 
z"/>
<path fill="#AE8933" opacity="1.000000" stroke="none" 
	d="
M900.327759,268.964661 
	C900.055664,268.822144 900.036743,268.605286 900.042908,268.062256 
	C900.239014,268.120850 900.409912,268.505585 900.327759,268.964661 
z"/>
<path fill="#B59959" opacity="1.000000" stroke="none" 
	d="
M566.029297,246.667084 
	C565.738159,246.801559 565.404541,246.660034 565.052185,246.222992 
	C565.351196,246.082001 565.669006,246.236557 566.029297,246.667084 
z"/>
<path fill="#D0C79E" opacity="1.000000" stroke="none" 
	d="
M551.994019,237.318909 
	C552.273743,237.247437 552.639343,237.488281 553.034424,238.103149 
	C552.735901,238.195206 552.407837,237.913239 551.994019,237.318909 
z"/>
<path fill="#D0C79E" opacity="1.000000" stroke="none" 
	d="
M553.051514,238.908508 
	C553.394714,238.849396 553.723267,239.131241 554.015930,239.749146 
	C553.665649,239.806610 553.351196,239.528030 553.051514,238.908508 
z"/>
<path fill="#D0C79E" opacity="1.000000" stroke="none" 
	d="
M553.992126,240.249146 
	C554.209473,240.171463 554.509766,240.344925 554.873413,240.786621 
	C554.649536,240.869995 554.362305,240.685150 553.992126,240.249146 
z"/>
<path fill="#F3F4F6" opacity="1.000000" stroke="none" 
	d="
M184.950272,354.163818 
	C172.387253,346.411102 168.831406,338.429291 177.454803,324.720276 
	C180.771454,319.447632 179.491791,317.959595 173.207977,317.345673 
	C171.520538,317.032043 170.406006,316.985046 169.291458,316.938049 
	C167.005005,316.606232 164.718567,316.274414 162.157318,315.902710 
	C162.787552,312.054047 166.172562,312.258453 169.129791,312.027649 
	C175.939346,311.496124 182.758865,311.092224 189.888580,310.759033 
	C188.586136,313.117065 186.867340,315.287079 185.378708,317.604889 
	C183.532333,320.479706 181.449142,323.324493 180.321152,326.486511 
	C179.768234,328.036438 181.141983,330.273682 181.643753,332.199829 
	C182.077988,332.028656 182.512222,331.857452 182.946457,331.686249 
	C182.946457,330.115967 182.946457,328.545685 182.946457,326.975403 
	C191.914474,330.684021 191.792435,330.605896 197.180786,322.188965 
	C198.002380,320.905579 200.498627,320.428406 202.315262,320.093567 
	C210.411835,318.601105 218.542908,317.295746 227.290070,315.816498 
	C227.781754,319.183411 225.385010,322.407654 223.613846,326.183594 
	C221.820831,330.006134 222.656799,335.213684 216.629379,335.891327 
	C216.160233,341.039673 211.808731,342.014984 208.029282,344.112885 
	C207.119202,342.796326 206.326843,341.650055 205.047699,339.799591 
	C205.047699,341.891541 205.047699,343.109985 205.047699,344.486206 
	C203.453796,344.697449 202.083542,344.879059 200.486328,345.090729 
	C202.776703,348.658173 204.889496,351.879089 206.872849,355.177795 
	C207.023453,355.428284 206.255585,356.230988 205.903564,356.794708 
	C202.358673,353.781006 194.885574,352.977356 191.545227,355.506165 
	C189.065338,355.252106 187.007812,354.707947 184.950272,354.163818 
z"/>
<path fill="#F3F4F6" opacity="1.000000" stroke="none" 
	d="
M155.171875,246.060272 
	C153.702515,244.975708 152.242401,243.878372 150.762177,242.808838 
	C144.641388,238.386230 143.298752,233.033890 146.600464,226.272934 
	C147.402725,224.630127 148.565582,223.006775 148.776917,221.278397 
	C148.967819,219.717209 148.084671,218.024689 147.675171,216.390076 
	C145.751801,216.948395 143.828430,217.506699 142.141068,217.996506 
	C141.811035,215.006165 141.811035,215.006165 136.158646,214.105011 
	C143.112610,210.296524 150.787491,210.989288 158.273911,210.893600 
	C155.612030,215.319427 152.979355,219.628952 150.451401,223.999039 
	C150.182983,224.463058 150.370728,225.353821 150.628586,225.917801 
	C150.944702,226.609131 151.557556,227.164780 152.614319,228.504517 
	C152.614319,226.544952 152.614319,225.440353 152.614319,223.701599 
	C158.160339,226.629395 162.256439,226.323410 164.245697,220.028503 
	C164.481567,219.282104 166.053391,218.692993 167.091064,218.507721 
	C174.040085,217.266983 181.012207,216.155518 188.465622,214.921158 
	C185.261490,226.170425 181.190338,236.656815 166.634674,237.808517 
	C168.260437,240.484970 169.456360,242.453766 171.154266,245.248993 
	C167.054611,245.248993 163.555298,245.248993 159.403900,245.583801 
	C157.558517,245.965836 156.365204,246.013046 155.171875,246.060272 
z"/>
<path fill="#F3F4F6" opacity="1.000000" stroke="none" 
	d="
M214.730362,223.877945 
	C219.814758,226.163574 224.357605,227.005310 226.366165,219.946381 
	C226.550873,219.297241 227.910278,218.717087 228.797745,218.579666 
	C232.401077,218.021713 236.073578,217.854294 239.642960,217.149673 
	C243.130661,216.461166 246.523926,215.294144 251.152115,215.152359 
	C249.642151,217.781418 246.656998,220.573898 246.926407,223.005844 
	C247.504333,228.222748 243.338760,229.930771 241.145279,232.900589 
	C239.533936,235.082291 237.085175,238.679276 233.678940,235.453857 
	C232.348694,236.527023 231.024582,237.595245 229.416168,238.892822 
	C230.198486,240.229355 231.323669,242.151642 233.059845,245.117752 
	C229.693848,245.117752 227.125900,245.421890 224.664047,245.040741 
	C221.587662,244.564438 221.902451,246.377670 221.539917,248.652039 
	C220.423111,249.084915 219.721634,249.106293 219.020157,249.127670 
	C219.020157,249.127670 218.719971,248.775757 218.782242,248.226746 
	C218.899338,247.453857 218.954178,247.229980 219.089905,246.962845 
	C219.170776,246.919571 219.177124,246.697693 219.177124,246.697693 
	C219.177124,246.697693 218.992569,246.989563 218.733948,247.010941 
	C218.305130,247.063431 218.134933,247.094528 217.964752,247.125641 
	C207.561386,240.652740 203.200577,232.741348 210.873474,221.112671 
	C213.331436,217.387512 210.417526,216.219254 206.458435,216.062836 
	C205.174316,215.559662 204.365494,215.493393 203.556686,215.427124 
	C201.817780,215.255249 200.078873,215.083359 198.339966,214.911484 
	C204.746399,210.319397 212.263214,211.466797 219.982880,210.973297 
	C220.251068,211.893539 219.971100,212.670105 219.691132,213.446671 
	C219.691132,213.446671 219.404999,213.508362 219.141098,213.814148 
	C211.998383,221.103592 211.022568,224.224274 214.730362,227.685837 
	C214.730362,226.370987 214.730362,225.124466 214.730362,223.877945 
z"/>
<path fill="#EFEFF2" opacity="1.000000" stroke="none" 
	d="
M177.748138,291.930298 
	C170.471481,291.489471 163.255676,291.382782 157.139725,295.920929 
	C153.480164,293.563354 154.155518,290.899353 155.548996,287.796509 
	C157.650681,283.116730 159.369308,278.265289 161.265457,273.492645 
	C164.309814,265.829987 171.454697,262.406616 179.561981,264.626648 
	C181.715546,265.216370 183.938354,265.553284 186.477570,266.497253 
	C186.821640,269.259125 187.201859,271.625031 183.823532,272.100128 
	C183.064056,272.206940 182.508286,273.762451 181.578003,274.370911 
	C180.882675,273.292389 180.468109,272.493988 179.681473,270.979095 
	C178.245514,273.962982 177.150970,276.237396 176.352020,277.897583 
	C177.594894,278.490997 178.432663,278.967773 179.325058,279.296143 
	C180.277252,279.646545 181.280991,279.856781 182.329865,280.138733 
	C182.397507,280.149292 182.534378,280.148254 182.704742,280.384460 
	C183.182785,280.855865 183.490463,281.091125 183.870605,281.750916 
	C183.583023,285.832428 183.222961,289.489349 182.539825,293.079132 
	C180.727203,292.651398 179.237671,292.290863 177.748138,291.930298 
M167.230621,272.189423 
	C165.956268,274.584869 164.681915,276.980347 163.407578,279.375793 
	C163.972183,279.680023 164.536789,279.984222 165.101410,280.288422 
	C166.847183,277.526886 168.592957,274.765350 170.365738,271.961090 
	C169.551086,272.016632 168.744049,272.071655 167.230621,272.189423 
z"/>
<path fill="#EFEFF2" opacity="1.000000" stroke="none" 
	d="
M200.619965,264.536621 
	C211.531982,261.443329 218.127792,264.681183 221.988068,274.994751 
	C223.780243,279.782990 225.811722,284.493988 227.323532,289.367554 
	C227.796707,290.892883 226.926498,292.834991 226.104340,294.643250 
	C217.762741,290.035553 209.626465,288.751678 200.974396,291.635925 
	C200.840912,282.309723 200.730438,273.423187 200.619965,264.536621 
z"/>
<path fill="#AEB9D7" opacity="1.000000" stroke="none" 
	d="
M181.858765,274.651062 
	C182.508286,273.762451 183.064056,272.206940 183.823532,272.100128 
	C187.201859,271.625031 186.821640,269.259125 186.867859,266.591187 
	C190.450638,268.500916 193.821426,267.970001 197.487640,265.952759 
	C198.202332,268.946808 198.787720,271.575653 198.764145,274.199005 
	C198.705826,280.685150 198.368607,287.168793 197.848572,293.856018 
	C195.292633,295.687561 193.031601,297.316467 190.700653,298.995758 
	C188.940140,297.579193 187.395096,296.335999 185.954437,294.686584 
	C186.597672,289.736786 189.238358,284.826447 183.798141,281.326355 
	C183.490463,281.091125 183.182785,280.855865 183.008301,280.126862 
	C182.731903,277.931091 182.322296,276.229095 181.913391,274.564270 
	C181.914108,274.601440 181.858765,274.651062 181.858765,274.651062 
z"/>
<path fill="#AE8933" opacity="1.000000" stroke="none" 
	d="
M185.850037,295.092834 
	C187.395096,296.335999 188.940140,297.579193 190.700653,298.995758 
	C193.031601,297.316467 195.292633,295.687561 198.106110,293.770721 
	C199.438171,293.013763 200.217789,292.544678 200.997391,292.075592 
	C209.626465,288.751678 217.762741,290.035553 225.797485,294.897217 
	C224.723007,295.109772 223.125366,295.616547 222.094772,295.064575 
	C212.001450,289.658844 202.805054,291.209473 194.496277,298.604950 
	C191.874573,300.938446 190.224457,301.241760 187.464844,298.674347 
	C184.735550,296.135132 181.183121,294.480682 177.869934,292.184204 
	C179.237671,292.290863 180.727203,292.651398 182.730225,293.315796 
	C184.112488,294.110718 184.981262,294.601776 185.850037,295.092834 
z"/>
<path fill="#E3DFC4" opacity="1.000000" stroke="none" 
	d="
M185.060181,354.486786 
	C187.007812,354.707947 189.065338,355.252106 191.453644,355.923340 
	C189.295380,362.268555 190.191483,364.486969 196.685349,367.644806 
	C191.113312,367.891754 185.789215,368.127686 179.481613,368.407227 
	C182.745590,366.588013 185.501190,365.052124 189.310333,362.929047 
	C188.026550,360.411499 186.598312,357.610626 185.060181,354.486786 
z"/>
<path fill="#E3DFC4" opacity="1.000000" stroke="none" 
	d="
M200.974396,291.635925 
	C200.217789,292.544678 199.438171,293.013763 198.401031,293.568115 
	C198.368607,287.168793 198.705826,280.685150 198.764145,274.199005 
	C198.787720,271.575653 198.202332,268.946808 197.863129,265.879730 
	C198.564087,265.135437 199.295990,264.831879 200.323929,264.532471 
	C200.730438,273.423187 200.840912,282.309723 200.974396,291.635925 
z"/>
<path fill="#283481" opacity="1.000000" stroke="none" 
	d="
M182.767914,326.727478 
	C182.946457,328.545685 182.946457,330.115967 182.946457,331.686249 
	C182.512222,331.857452 182.077988,332.028656 181.643753,332.199829 
	C181.141983,330.273682 179.768234,328.036438 180.321152,326.486511 
	C181.449142,323.324493 183.532333,320.479706 185.378708,317.604889 
	C186.867340,315.287079 188.586136,313.117065 190.288330,310.476929 
	C190.951691,310.478577 191.529587,310.884766 192.107483,311.290985 
	C190.272964,313.820007 188.304993,316.264954 186.643143,318.902771 
	C185.120132,321.320160 183.927567,323.945740 182.767914,326.727478 
z"/>
<path fill="#EFEFF2" opacity="1.000000" stroke="none" 
	d="
M169.405457,317.366821 
	C170.406006,316.985046 171.520538,317.032043 172.778748,317.302795 
	C172.033432,318.963928 170.111694,320.711121 170.433884,321.785187 
	C171.845139,326.490021 168.570053,326.441193 165.503006,327.503326 
	C165.210403,324.510834 163.534256,321.585571 168.231567,320.963654 
	C168.790863,320.889648 169.096313,318.898224 169.405457,317.366821 
z"/>
<path fill="#E3DFC4" opacity="1.000000" stroke="none" 
	d="
M219.028687,249.534943 
	C219.721634,249.106293 220.423111,249.084915 221.476074,249.072174 
	C222.526627,251.626617 223.225677,254.172440 223.796646,256.251770 
	C221.570602,256.251770 217.936081,256.251770 213.876862,256.251770 
	C215.728531,253.654800 220.978134,254.699432 219.028687,249.534943 
z"/>
<path fill="#E3DFC4" opacity="1.000000" stroke="none" 
	d="
M155.291962,246.402771 
	C156.365204,246.013046 157.558517,245.965836 159.111938,245.864075 
	C159.442505,249.360779 156.941803,253.718201 162.738708,255.743896 
	C162.872650,256.075348 162.906021,256.026794 162.906021,256.026794 
	C159.502396,256.026794 156.098770,256.026794 152.695145,256.026794 
	C157.643173,253.980087 158.845428,251.058640 155.291962,246.402771 
z"/>
<path fill="#283481" opacity="1.000000" stroke="none" 
	d="
M214.593246,223.618591 
	C214.730362,225.124466 214.730362,226.370987 214.730362,227.685837 
	C211.022568,224.224274 211.998383,221.103592 219.135086,213.960358 
	C218.641708,215.314392 217.910278,216.838257 217.133926,218.338852 
	C216.262497,220.023254 215.350479,221.686676 214.593246,223.618591 
z"/>
<path fill="#AEB9D7" opacity="1.000000" stroke="none" 
	d="
M203.636978,215.791809 
	C204.365494,215.493393 205.174316,215.559662 206.072205,215.943878 
	C205.757904,217.601898 205.503738,219.012405 204.913177,220.264221 
	C204.180542,221.817169 203.169388,223.238739 201.643021,224.382568 
	C200.049637,221.886078 199.105057,219.897247 202.616562,218.862579 
	C203.198700,218.691071 203.360962,217.094513 203.636978,215.791809 
z"/>
<path fill="#283481" opacity="1.000000" stroke="none" 
	d="
M219.982239,213.437119 
	C219.971100,212.670105 220.251068,211.893539 220.402832,210.721344 
	C220.923477,210.524078 221.572311,210.722443 222.221161,210.920822 
	C221.571899,211.756409 220.922638,212.591980 219.982239,213.437119 
z"/>
<path fill="#E3DFC4" opacity="1.000000" stroke="none" 
	d="
M162.846863,256.089600 
	C163.011703,256.206360 163.202362,256.308929 163.393005,256.411469 
	C163.301880,256.314056 163.210770,256.216614 163.012848,256.072998 
	C162.906021,256.026794 162.872650,256.075348 162.846863,256.089600 
z"/>
<path fill="#E3DFC4" opacity="1.000000" stroke="none" 
	d="
M217.963440,247.374924 
	C218.134933,247.094528 218.305130,247.063431 218.737518,247.015945 
	C218.999725,246.999573 219.009018,247.006119 219.009018,247.006119 
	C218.954178,247.229980 218.899338,247.453857 218.728210,248.001862 
	C218.266510,248.211349 218.049911,247.977417 217.963440,247.374924 
z"/>
<path fill="#000000" opacity="1.000000" stroke="none" 
	d="
M553.965515,289.860657 
	C559.415161,290.841888 564.999451,291.372620 570.271790,292.947449 
	C574.464905,294.199890 578.652466,302.509247 577.735291,306.903076 
	C575.869934,315.838959 574.510559,319.482605 566.401978,320.838348 
	C562.691345,321.458801 558.896301,321.574371 554.515442,321.677277 
	C553.255432,321.269623 552.619507,321.103607 551.983582,320.937592 
	C551.983582,320.937592 551.975830,321.018677 551.996094,320.552185 
	C552.033142,310.384735 552.049988,300.683807 552.066772,290.982849 
	C552.066772,290.982849 552.000244,291.003876 552.286743,290.985504 
	C552.738281,290.652466 552.903381,290.337769 553.068420,290.023102 
	C553.068420,290.023102 553.006348,290.006561 553.251099,290.002899 
	C553.495789,289.999237 553.965515,289.860657 553.965515,289.860657 
z"/>
<path fill="#636EA3" opacity="1.000000" stroke="none" 
	d="
M551.744873,291.258362 
	C552.049988,300.683807 552.033142,310.384735 552.036560,320.557068 
	C551.716919,318.311310 551.102112,315.595337 551.090637,312.876801 
	C551.060669,305.763092 551.294373,298.648285 551.744873,291.258362 
z"/>
<path fill="#636EA3" opacity="1.000000" stroke="none" 
	d="
M552.165405,321.221313 
	C552.619507,321.103607 553.255432,321.269623 554.078308,321.716064 
	C553.625916,321.832703 552.986572,321.668884 552.165405,321.221313 
z"/>
<path fill="#636EA3" opacity="1.000000" stroke="none" 
	d="
M553.848633,289.716858 
	C553.965515,289.860657 553.495789,289.999237 553.253296,290.034912 
	C553.251099,289.904785 553.491394,289.738953 553.848633,289.716858 
z"/>
<path fill="#636EA3" opacity="1.000000" stroke="none" 
	d="
M552.771667,290.038086 
	C552.903381,290.337769 552.738281,290.652466 552.298706,291.018250 
	C552.174438,290.730621 552.324646,290.391846 552.771667,290.038086 
z"/>
<path fill="#000000" opacity="1.000000" stroke="none" 
	d="
M821.708740,349.684662 
	C814.642151,358.222443 805.884460,360.890320 795.488342,359.106812 
	C780.334534,356.507080 772.818054,346.442047 768.845032,332.551849 
	C765.578430,321.131042 766.922546,310.552429 772.902649,300.269562 
	C776.860168,293.464539 783.155212,290.504791 790.170715,289.242279 
	C801.340332,287.232147 811.155518,290.812744 818.591003,299.319244 
	C827.454285,309.459167 832.018555,321.351868 828.794373,334.885345 
	C827.579956,339.983093 824.297607,344.588165 821.708740,349.684662 
z"/>
<path fill="#000000" opacity="1.000000" stroke="none" 
	d="
M739.401062,316.761169 
	C741.915039,324.265076 741.670166,331.253204 739.332458,338.582062 
	C737.004639,345.879913 733.123657,351.654602 726.748840,355.708038 
	C715.202759,363.049744 697.288086,360.070404 688.671509,348.598083 
	C677.639587,333.910034 675.664795,318.668304 683.465454,302.333374 
	C689.739014,289.196350 707.096130,286.011414 718.977417,291.047760 
	C728.799744,295.211365 735.002991,302.567047 737.924316,312.787659 
	C738.283447,314.044098 738.971863,315.206390 739.401062,316.761169 
z"/>
<path fill="#000000" opacity="1.000000" stroke="none" 
	d="
M628.715942,324.017731 
	C627.846863,322.369324 627.078735,320.698242 627.057373,319.017609 
	C626.942017,309.959686 627.011963,300.899353 626.972778,291.358704 
	C636.732788,287.506348 651.569946,293.485260 653.875549,306.316284 
	C655.278015,314.121368 650.386047,323.680542 639.144348,323.868896 
	C635.817078,323.924652 632.489197,323.950867 628.715942,324.017731 
z"/>
<path fill="#AE8933" opacity="1.000000" stroke="none" 
	d="
M272.169312,267.416809 
	C272.184631,267.145630 272.632965,267.183838 272.843597,267.262878 
	C273.073700,267.674683 273.073181,268.007446 273.048462,268.589478 
	C272.747437,268.455170 272.450745,268.071594 272.169312,267.416809 
z"/>
<path fill="#000000" opacity="1.000000" stroke="none" 
	d="
M826.045349,228.363983 
	C827.455322,236.708984 824.433472,244.332138 818.993774,245.982391 
	C814.376160,247.383224 809.481873,248.383911 805.384277,244.795120 
	C801.001709,240.956863 799.779724,235.938843 800.947388,230.219391 
	C803.075867,219.793686 805.169006,217.930542 815.121521,218.020081 
	C820.942627,218.072464 823.986877,220.881042 826.045349,228.363983 
z"/>
<path fill="#000000" opacity="1.000000" stroke="none" 
	d="
M546.051880,218.028549 
	C549.637268,218.161011 553.340210,217.769760 556.781738,218.542801 
	C562.650085,219.860962 563.673401,224.744736 559.408447,229.216217 
	C558.978455,229.667023 558.728455,230.289505 557.617554,230.981079 
	C553.274170,231.129852 549.708252,231.129852 546.051880,231.129852 
	C546.051880,226.262924 546.051880,222.145737 546.051880,218.028549 
z"/>
<path fill="#D0C79E" opacity="1.000000" stroke="none" 
	d="
M545.725037,218.290619 
	C546.051880,222.145737 546.051880,226.262924 546.051880,231.129852 
	C549.708252,231.129852 553.274170,231.129852 557.279907,231.161301 
	C553.814026,231.523254 549.908447,231.853775 545.398193,232.235458 
	C545.398193,227.280396 545.398193,222.916534 545.725037,218.290619 
z"/>
<path fill="#A27714" opacity="1.000000" stroke="none" 
	d="
M413.744629,250.461945 
	C412.362335,250.714981 411.075165,250.513641 409.494537,250.158646 
	C409.159698,238.314346 409.118256,226.623703 409.319061,214.363144 
	C409.772827,213.617172 409.933960,213.403152 410.044647,213.151184 
	C410.044647,213.151184 409.981628,213.020859 409.961945,212.951202 
	C410.704651,212.953827 411.467072,213.026108 412.719910,213.310349 
	C413.373596,213.718765 413.564850,213.882599 413.784088,214.013794 
	C413.802643,226.011719 413.821198,238.009628 413.744629,250.461945 
z"/>
<path fill="#AE8933" opacity="1.000000" stroke="none" 
	d="
M413.761963,213.795105 
	C413.564850,213.882599 413.373596,213.718765 413.098755,213.369171 
	C413.317749,213.169815 413.568665,213.289948 413.761963,213.795105 
z"/>
<path fill="#AE8933" opacity="1.000000" stroke="none" 
	d="
M409.803223,213.166718 
	C409.933960,213.403152 409.772827,213.617172 409.389404,213.899658 
	C409.103363,213.635788 409.218140,213.361160 409.803223,213.166718 
z"/>
<path fill="#E3DFC4" opacity="1.000000" stroke="none" 
	d="
M218.996155,246.994568 
	C218.992569,246.989563 219.177124,246.697693 219.177124,246.697693 
	C219.177124,246.697693 219.170776,246.919571 219.089905,246.962845 
	C219.009018,247.006119 218.999725,246.999573 218.996155,246.994568 
z"/>
<path fill="#E3DFC4" opacity="1.000000" stroke="none" 
	d="
M185.954437,294.686584 
	C184.981262,294.601776 184.112488,294.110718 183.053314,293.382965 
	C183.222961,289.489349 183.583023,285.832428 183.870605,281.750916 
	C189.238358,284.826447 186.597672,289.736786 185.954437,294.686584 
z"/>
<path fill="#636EA3" opacity="1.000000" stroke="none" 
	d="
M181.578003,274.370911 
	C181.858765,274.651062 181.914108,274.601440 181.687164,274.994019 
	C181.727539,276.967133 181.994888,278.547668 182.262238,280.128204 
	C181.280991,279.856781 180.277252,279.646545 179.325058,279.296143 
	C178.432663,278.967773 177.594894,278.490997 176.352020,277.897583 
	C177.150970,276.237396 178.245514,273.962982 179.681473,270.979095 
	C180.468109,272.493988 180.882675,273.292389 181.578003,274.370911 
z"/>
<path fill="#283481" opacity="1.000000" stroke="none" 
	d="
M167.583817,272.158051 
	C168.744049,272.071655 169.551086,272.016632 170.365738,271.961090 
	C168.592957,274.765350 166.847183,277.526886 165.101410,280.288422 
	C164.536789,279.984222 163.972183,279.680023 163.407578,279.375793 
	C164.681915,276.980347 165.956268,274.584869 167.583817,272.158051 
z"/>
<path fill="#E3DFC4" opacity="1.000000" stroke="none" 
	d="
M182.329865,280.138733 
	C181.994888,278.547668 181.727539,276.967133 181.686432,274.956848 
	C182.322296,276.229095 182.731903,277.931091 182.837952,279.890686 
	C182.534378,280.148254 182.397507,280.149292 182.329865,280.138733 
z"/>
</svg>