<?xml version="1.0" encoding="UTF-8" standalone="no"?>
<!DOCTYPE svg PUBLIC "-//W3C//DTD SVG 1.1//EN" "http://www.w3.org/Graphics/SVG/1.1/DTD/svg11.dtd">
<svg xmlns="http://www.w3.org/2000/svg" version="1.1" viewBox="0.00 0.00 150.00 192.00">
<g stroke-width="2.00" fill="none" stroke-linecap="butt">
<path stroke="#7b5f52" vector-effect="non-scaling-stroke" d="
  M 139.50 9.92
  A 0.67 0.67 0.0 0 0 138.83 9.25
  L 9.17 9.25
  A 0.67 0.67 0.0 0 0 8.50 9.92
  L 8.50 183.08
  A 0.67 0.67 0.0 0 0 9.17 183.75
  L 138.83 183.75
  A 0.67 0.67 0.0 0 0 139.50 183.08
  L 139.50 9.92"
/>
<path stroke="#7b5f52" vector-effect="non-scaling-stroke" d="
  M 135.00 14.36
  A 0.61 0.61 0.0 0 0 134.39 13.75
  L 13.61 13.75
  A 0.61 0.61 0.0 0 0 13.00 14.36
  L 13.00 178.64
  A 0.61 0.61 0.0 0 0 13.61 179.25
  L 134.39 179.25
  A 0.61 0.61 0.0 0 0 135.00 178.64
  L 135.00 14.36"
/>
<path stroke="#809fbf" vector-effect="non-scaling-stroke" d="
  M 76.00 39.50
  L 59.74 39.50
  A 1.99 1.99 0.0 0 0 57.76 41.28
  Q 57.56 43.28 59.76 43.32
  Q 67.83 43.47 75.96 43.54
  Q 76.50 43.55 76.50 44.08
  L 76.50 45.73
  Q 76.50 46.24 75.99 46.24
  C 73.64 46.25 60.71 45.73 59.56 46.64
  Q 58.66 47.36 59.04 48.49
  A 1.84 1.83 80.7 0 0 60.78 49.75
  L 76.00 49.75
  Q 76.50 49.75 76.50 50.25
  L 76.50 144.75
  Q 76.50 145.25 76.00 145.25
  L 49.59 145.25
  A 1.77 1.76 -83.6 0 0 47.87 146.63
  C 47.43 148.59 49.17 149.01 50.73 149.01
  Q 63.31 148.99 75.93 149.01
  Q 76.50 149.01 76.50 149.57
  L 76.50 152.19
  A 0.56 0.56 0.0 0 1 75.94 152.75
  Q 61.10 152.76 46.12 152.73
  C 41.14 152.73 39.07 155.81 40.83 160.55
  Q 41.00 161.00 41.48 161.00
  L 108.12 161.00
  Q 108.75 161.00 108.75 160.38
  L 108.75 151.78
  A 0.89 0.89 0.0 0 0 107.90 150.89
  C 91.68 150.20 88.51 134.42 87.98 121.50
  Q 86.93 96.03 87.84 68.43
  Q 88.03 62.54 89.77 54.77
  C 91.89 45.32 97.16 43.75 105.46 41.67
  Q 106.00 41.54 106.00 40.98
  L 106.00 33.54
  A 0.57 0.56 0.5 0 0 105.44 32.98
  Q 78.22 32.97 51.00 33.19
  C 32.70 33.35 38.89 58.59 51.82 51.39
  C 55.46 49.36 57.16 43.41 53.39 40.49
  C 50.10 37.93 44.92 40.54 45.87 44.88
  A 1.69 1.69 0.0 0 0 49.21 44.65
  L 49.27 43.94
  A 1.22 1.21 36.2 0 1 51.61 43.58
  C 54.46 50.73 41.26 50.89 42.74 42.95
  Q 43.92 36.60 51.20 36.43
  Q 63.53 36.14 75.96 36.28
  Q 76.50 36.28 76.50 36.83
  L 76.50 39.00
  Q 76.50 39.50 76.00 39.50"
/>
<path stroke="#809fbf" vector-effect="non-scaling-stroke" d="
  M 64.24 55.47
  A 1.46 1.46 0.0 0 0 62.78 54.01
  L 62.46 54.01
  A 1.46 1.46 0.0 0 0 61.00 55.47
  L 61.00 139.55
  A 1.46 1.46 0.0 0 0 62.46 141.01
  L 62.78 141.01
  A 1.46 1.46 0.0 0 0 64.24 139.55
  L 64.24 55.47"
/>
<path stroke="#809fbf" vector-effect="non-scaling-stroke" d="
  M 72.26 55.89
  A 1.90 1.90 0.0 0 0 70.36 53.99
  L 69.90 53.99
  A 1.90 1.90 0.0 0 0 68.00 55.89
  L 68.00 139.35
  A 1.90 1.90 0.0 0 0 69.90 141.25
  L 70.36 141.25
  A 1.90 1.90 0.0 0 0 72.26 139.35
  L 72.26 55.89"
/>
</g>
<path fill="#003e7e" d="
  M 0.00 0.00
  L 148.23 0.00
  L 148.23 192.00
  L 0.00 192.00
  L 0.00 0.00
  Z
  M 139.50 9.92
  A 0.67 0.67 0.0 0 0 138.83 9.25
  L 9.17 9.25
  A 0.67 0.67 0.0 0 0 8.50 9.92
  L 8.50 183.08
  A 0.67 0.67 0.0 0 0 9.17 183.75
  L 138.83 183.75
  A 0.67 0.67 0.0 0 0 139.50 183.08
  L 139.50 9.92
  Z"
/>
<path fill="#f58026" d="
  M 139.50 183.08
  A 0.67 0.67 0.0 0 1 138.83 183.75
  L 9.17 183.75
  A 0.67 0.67 0.0 0 1 8.50 183.08
  L 8.50 9.92
  A 0.67 0.67 0.0 0 1 9.17 9.25
  L 138.83 9.25
  A 0.67 0.67 0.0 0 1 139.50 9.92
  L 139.50 183.08
  Z
  M 135.00 14.36
  A 0.61 0.61 0.0 0 0 134.39 13.75
  L 13.61 13.75
  A 0.61 0.61 0.0 0 0 13.00 14.36
  L 13.00 178.64
  A 0.61 0.61 0.0 0 0 13.61 179.25
  L 134.39 179.25
  A 0.61 0.61 0.0 0 0 135.00 178.64
  L 135.00 14.36
  Z"
/>
<path fill="#003e7e" d="
  M 135.00 178.64
  A 0.61 0.61 0.0 0 1 134.39 179.25
  L 13.61 179.25
  A 0.61 0.61 0.0 0 1 13.00 178.64
  L 13.00 14.36
  A 0.61 0.61 0.0 0 1 13.61 13.75
  L 134.39 13.75
  A 0.61 0.61 0.0 0 1 135.00 14.36
  L 135.00 178.64
  Z
  M 76.00 39.50
  L 59.74 39.50
  A 1.99 1.99 0.0 0 0 57.76 41.28
  Q 57.56 43.28 59.76 43.32
  Q 67.83 43.47 75.96 43.54
  Q 76.50 43.55 76.50 44.08
  L 76.50 45.73
  Q 76.50 46.24 75.99 46.24
  C 73.64 46.25 60.71 45.73 59.56 46.64
  Q 58.66 47.36 59.04 48.49
  A 1.84 1.83 80.7 0 0 60.78 49.75
  L 76.00 49.75
  Q 76.50 49.75 76.50 50.25
  L 76.50 144.75
  Q 76.50 145.25 76.00 145.25
  L 49.59 145.25
  A 1.77 1.76 -83.6 0 0 47.87 146.63
  C 47.43 148.59 49.17 149.01 50.73 149.01
  Q 63.31 148.99 75.93 149.01
  Q 76.50 149.01 76.50 149.57
  L 76.50 152.19
  A 0.56 0.56 0.0 0 1 75.94 152.75
  Q 61.10 152.76 46.12 152.73
  C 41.14 152.73 39.07 155.81 40.83 160.55
  Q 41.00 161.00 41.48 161.00
  L 108.12 161.00
  Q 108.75 161.00 108.75 160.38
  L 108.75 151.78
  A 0.89 0.89 0.0 0 0 107.90 150.89
  C 91.68 150.20 88.51 134.42 87.98 121.50
  Q 86.93 96.03 87.84 68.43
  Q 88.03 62.54 89.77 54.77
  C 91.89 45.32 97.16 43.75 105.46 41.67
  Q 106.00 41.54 106.00 40.98
  L 106.00 33.54
  A 0.57 0.56 0.5 0 0 105.44 32.98
  Q 78.22 32.97 51.00 33.19
  C 32.70 33.35 38.89 58.59 51.82 51.39
  C 55.46 49.36 57.16 43.41 53.39 40.49
  C 50.10 37.93 44.92 40.54 45.87 44.88
  A 1.69 1.69 0.0 0 0 49.21 44.65
  L 49.27 43.94
  A 1.22 1.21 36.2 0 1 51.61 43.58
  C 54.46 50.73 41.26 50.89 42.74 42.95
  Q 43.92 36.60 51.20 36.43
  Q 63.53 36.14 75.96 36.28
  Q 76.50 36.28 76.50 36.83
  L 76.50 39.00
  Q 76.50 39.50 76.00 39.50
  Z
  M 64.24 55.47
  A 1.46 1.46 0.0 0 0 62.78 54.01
  L 62.46 54.01
  A 1.46 1.46 0.0 0 0 61.00 55.47
  L 61.00 139.55
  A 1.46 1.46 0.0 0 0 62.46 141.01
  L 62.78 141.01
  A 1.46 1.46 0.0 0 0 64.24 139.55
  L 64.24 55.47
  Z
  M 72.26 55.89
  A 1.90 1.90 0.0 0 0 70.36 53.99
  L 69.90 53.99
  A 1.90 1.90 0.0 0 0 68.00 55.89
  L 68.00 139.35
  A 1.90 1.90 0.0 0 0 69.90 141.25
  L 70.36 141.25
  A 1.90 1.90 0.0 0 0 72.26 139.35
  L 72.26 55.89
  Z"
/>
<path fill="#ffffff" d="
  M 76.50 39.00
  L 76.50 36.83
  Q 76.50 36.28 75.96 36.28
  Q 63.53 36.14 51.20 36.43
  Q 43.92 36.60 42.74 42.95
  C 41.26 50.89 54.46 50.73 51.61 43.58
  A 1.22 1.21 36.2 0 0 49.27 43.94
  L 49.21 44.65
  A 1.69 1.69 0.0 0 1 45.87 44.88
  C 44.92 40.54 50.10 37.93 53.39 40.49
  C 57.16 43.41 55.46 49.36 51.82 51.39
  C 38.89 58.59 32.70 33.35 51.00 33.19
  Q 78.22 32.97 105.44 32.98
  A 0.57 0.56 0.5 0 1 106.00 33.54
  L 106.00 40.98
  Q 106.00 41.54 105.46 41.67
  C 97.16 43.75 91.89 45.32 89.77 54.77
  Q 88.03 62.54 87.84 68.43
  Q 86.93 96.03 87.98 121.50
  C 88.51 134.42 91.68 150.20 107.90 150.89
  A 0.89 0.89 0.0 0 1 108.75 151.78
  L 108.75 160.38
  Q 108.75 161.00 108.12 161.00
  L 41.48 161.00
  Q 41.00 161.00 40.83 160.55
  C 39.07 155.81 41.14 152.73 46.12 152.73
  Q 61.10 152.76 75.94 152.75
  A 0.56 0.56 0.0 0 0 76.50 152.19
  L 76.50 149.57
  Q 76.50 149.01 75.93 149.01
  Q 63.31 148.99 50.73 149.01
  C 49.17 149.01 47.43 148.59 47.87 146.63
  A 1.77 1.76 -83.6 0 1 49.59 145.25
  L 76.00 145.25
  Q 76.50 145.25 76.50 144.75
  L 76.50 50.25
  Q 76.50 49.75 76.00 49.75
  L 60.78 49.75
  A 1.84 1.83 80.7 0 1 59.04 48.49
  Q 58.66 47.36 59.56 46.64
  C 60.71 45.73 73.64 46.25 75.99 46.24
  Q 76.50 46.24 76.50 45.73
  L 76.50 44.08
  Q 76.50 43.55 75.96 43.54
  Q 67.83 43.47 59.76 43.32
  Q 57.56 43.28 57.76 41.28
  A 1.99 1.99 0.0 0 1 59.74 39.50
  L 76.00 39.50
  Q 76.50 39.50 76.50 39.00
  Z"
/>
<rect fill="#ffffff" x="61.00" y="54.01" width="3.24" height="87.00" rx="1.46"/>
<rect fill="#ffffff" x="68.00" y="53.99" width="4.26" height="87.26" rx="1.90"/>
</svg>
