<?xml version="1.0" encoding="UTF-8"?>
<!DOCTYPE svg PUBLIC "-//W3C//DTD SVG 1.1//EN" "http://www.w3.org/Graphics/SVG/1.1/DTD/svg11.dtd">
<svg xmlns="http://www.w3.org/2000/svg" version="1.1" width="344px" height="346px" style="shape-rendering:geometricPrecision; text-rendering:geometricPrecision; image-rendering:optimizeQuality; fill-rule:evenodd; clip-rule:evenodd" xmlns:xlink="http://www.w3.org/1999/xlink">
<g><path style="opacity:1" fill="#1d1d1d" d="M 302.5,59.5 C 303.419,62.0892 305.086,64.0892 307.5,65.5C 309.435,69.7066 312.102,73.3733 315.5,76.5C 315.427,78.0269 316.094,79.0269 317.5,79.5C 317.75,81.674 318.75,83.3406 320.5,84.5C 320.75,86.674 321.75,88.3406 323.5,89.5C 326.008,93.1822 328.008,97.1822 329.5,101.5C 329.402,103.553 330.069,105.22 331.5,106.5C 331.12,108.698 331.787,110.365 333.5,111.5C 334.738,113.214 335.405,115.214 335.5,117.5C 335.402,119.553 336.069,121.22 337.5,122.5C 337.5,122.833 337.5,123.167 337.5,123.5C 339.395,133.644 341.395,143.644 343.5,153.5C 343.5,168.833 343.5,184.167 343.5,199.5C 342.732,201.715 342.065,204.048 341.5,206.5C 339.413,211.174 338.079,216.174 337.5,221.5C 336.262,223.214 335.595,225.214 335.5,227.5C 334.935,231.537 333.601,235.203 331.5,238.5C 329.707,240.426 328.707,242.759 328.5,245.5C 327.008,249.818 325.008,253.818 322.5,257.5C 321.094,257.973 320.427,258.973 320.5,260.5C 320.672,261.492 320.338,262.158 319.5,262.5C 318.094,262.973 317.427,263.973 317.5,265.5C 316.094,265.973 315.427,266.973 315.5,268.5C 314.094,268.973 313.427,269.973 313.5,271.5C 312.094,271.973 311.427,272.973 311.5,274.5C 309.738,275.262 308.738,276.596 308.5,278.5C 308.5,279.167 308.167,279.5 307.5,279.5C 305.738,280.262 304.738,281.596 304.5,283.5C 304.167,284.5 303.5,285.167 302.5,285.5C 299.427,287.569 297.094,290.236 295.5,293.5C 295.167,294.5 294.5,295.167 293.5,295.5C 289.564,297.766 286.231,300.766 283.5,304.5C 281.251,305.08 279.585,306.413 278.5,308.5C 275.467,310.016 272.8,312.016 270.5,314.5C 268.973,314.427 267.973,315.094 267.5,316.5C 265.973,316.427 264.973,317.094 264.5,318.5C 259.5,320.664 254.833,323.331 250.5,326.5C 250.158,327.338 249.492,327.672 248.5,327.5C 183.761,355.579 122.761,349.246 65.5,308.5C 57.5265,300.861 49.5265,293.194 41.5,285.5C 40.5806,282.911 38.914,280.911 36.5,279.5C 32.55,272.887 28.2167,266.554 23.5,260.5C 22.5903,257.008 20.9236,254.008 18.5,251.5C 17.3263,250.486 16.6596,249.153 16.5,247.5C 15.9579,244.088 14.6246,241.088 12.5,238.5C 9.66825,228.678 6.66825,219.011 3.5,209.5C 3.34447,203.233 2.34447,197.233 0.5,191.5C 0.166667,191.5 -0.166667,191.5 -0.5,191.5C -0.5,178.833 -0.5,166.167 -0.5,153.5C -0.166667,153.5 0.166667,153.5 0.5,153.5C 2.19164,146.018 3.52497,138.351 4.5,130.5C 6.16276,128.562 6.82943,126.228 6.5,123.5C 8.07394,121.898 8.74061,119.898 8.5,117.5C 8.26269,116.209 8.59603,115.209 9.5,114.5C 11.2671,112.208 12.2671,109.542 12.5,106.5C 39.5229,48.6653 84.5229,13.8319 147.5,2C 208.851,-4.38898 260.518,14.7777 302.5,59.5 Z"/></g>
<g><path style="opacity:1" fill="#f8f8f8" d="M 158.5,6.5 C 227.741,4.19677 280.575,32.1968 317,90.5C 345.907,145.982 345.573,201.316 316,256.5C 278.738,315.05 225.238,342.216 155.5,338C 87.0959,328.553 40.2626,291.719 15,227.5C -6.49557,155.298 10.6711,94.1312 66.5,44C 93.5001,22.3278 124.167,9.82781 158.5,6.5 Z"/></g>
<g><path style="opacity:1" fill="#202020" d="M 102.5,30.5 C 112.951,30.1556 118.284,35.3222 118.5,46C 119.005,50.6565 117.338,54.3231 113.5,57C 110.5,58.5 107.5,60 104.5,61.5C 102.322,54.102 99.1555,46.7687 95,39.5C 93.4905,38.9103 91.9905,38.2436 90.5,37.5C 94.563,35.1401 98.563,32.8067 102.5,30.5 Z"/></g>
<g><path style="opacity:0.558" fill="#ececec" d="M 153.5,-0.5 C 165.833,-0.5 178.167,-0.5 190.5,-0.5C 226.246,4.04051 257.912,17.8738 285.5,41C 291.763,46.757 297.43,52.9237 302.5,59.5C 260.518,14.7777 208.851,-4.38898 147.5,2C 84.5229,13.8319 39.5229,48.6653 12.5,106.5C 32.2172,59.6172 65.8839,27.1172 113.5,9C 126.667,4.53977 140.001,1.37311 153.5,-0.5 Z"/></g>
<g><path style="opacity:1" fill="#f5f5f5" d="M 99.5,33.5 C 109.071,33.5676 114.404,38.401 115.5,48C 116.031,52.452 114.198,55.2854 110,56.5C 108.233,55.66 106.899,54.3266 106,52.5C 103.667,47.8333 101.333,43.1667 99,38.5C 98.3603,36.735 98.5269,35.0683 99.5,33.5 Z"/></g>
<g><path style="opacity:1" fill="#202020" d="M 235.5,28.5 C 238.423,29.295 241.09,30.6284 243.5,32.5C 237.859,38.2688 233.859,45.1022 231.5,53C 231.755,54.3261 232.422,55.3261 233.5,56C 236.672,56.4248 239.672,56.0915 242.5,55C 241.432,57.7046 239.432,59.2046 236.5,59.5C 232.047,57.5413 227.714,55.3746 223.5,53C 224.766,52.6905 225.933,52.1905 227,51.5C 230,45.5 233,39.5 236,33.5C 236.384,31.8034 236.218,30.1368 235.5,28.5 Z"/></g>
<g><path style="opacity:1" fill="#232323" d="M 214.5,22.5 C 228.417,21.9357 232.917,28.269 228,41.5C 222.559,51.6553 215.559,52.9886 207,45.5C 204.338,36.1558 206.838,28.4891 214.5,22.5 Z"/></g>
<g><path style="opacity:1" fill="#f7f7f7" d="M 216.5,24.5 C 222.914,23.7476 225.914,26.5809 225.5,33C 225.643,37.2185 224.476,41.0518 222,44.5C 215.589,50.6452 211.422,49.3119 209.5,40.5C 209.695,34.1211 212.028,28.7877 216.5,24.5 Z"/></g>
<g><path style="opacity:1" fill="#242424" d="M 123.5,21.5 C 129.108,27.3256 134.274,33.659 139,40.5C 140.42,42.422 142.253,43.7554 144.5,44.5C 141.697,46.271 138.697,47.1043 135.5,47C 135.982,39.5238 132.815,37.6905 126,41.5C 125.503,43.8098 125.337,46.1432 125.5,48.5C 126.978,48.238 128.311,48.5713 129.5,49.5C 127.072,51.2709 124.405,52.1042 121.5,52C 122.126,51.2496 122.626,50.4162 123,49.5C 123.5,40.1726 123.666,30.8393 123.5,21.5 Z"/></g>
<g><path style="opacity:1" fill="#f3f3f3" d="M 125.5,30.5 C 127.867,31.8708 129.533,33.8708 130.5,36.5C 129.264,37.3567 127.931,38.0234 126.5,38.5C 125.52,35.9135 125.187,33.2469 125.5,30.5 Z"/></g>
<g><path style="opacity:1" fill="#222222" d="M 149.5,15.5 C 163.212,15.2199 168.712,21.8866 166,35.5C 164.895,38.9371 162.728,41.4371 159.5,43C 155.221,44.2439 150.888,44.5772 146.5,44C 147.369,36.1609 146.869,28.3275 145,20.5C 143.745,19.7894 142.579,18.956 141.5,18C 144.251,17.0572 146.917,16.2239 149.5,15.5 Z"/></g>
<g><path style="opacity:1" fill="#f3f3f3" d="M 150.5,17.5 C 156.798,17.2933 160.631,20.2933 162,26.5C 163.195,31.6001 162.362,36.2668 159.5,40.5C 156.959,43.1003 154.459,43.1003 152,40.5C 150.407,32.8023 149.907,25.1357 150.5,17.5 Z"/></g>
<g><path style="opacity:1" fill="#202020" d="M 196.5,32.5 C 197.5,31.8333 198.5,31.1667 199.5,30.5C 200.458,30.0472 201.292,29.3805 202,28.5C 203.989,22.8674 202.156,19.8674 196.5,19.5C 196.037,22.4824 195.704,25.4824 195.5,28.5C 194.596,29.209 194.263,30.209 194.5,31.5C 194.086,33.8083 193.753,36.1417 193.5,38.5C 193.326,40.6934 193.993,42.5267 195.5,44C 192.366,44.7901 189.366,44.4568 186.5,43C 187.701,42.0975 188.535,40.9308 189,39.5C 190.113,33.3233 191.279,27.1566 192.5,21C 192.561,19.2894 191.894,17.956 190.5,17C 196.179,16.1345 201.346,17.3012 206,20.5C 207.494,25.5256 206.327,29.6923 202.5,33C 200.402,33.6776 198.402,33.5109 196.5,32.5 Z"/></g>
<g><path style="opacity:1" fill="#707070" d="M 195.5,28.5 C 196.183,30.1765 197.517,30.8432 199.5,30.5C 198.5,31.1667 197.5,31.8333 196.5,32.5C 195.833,32.1667 195.167,31.8333 194.5,31.5C 194.263,30.209 194.596,29.209 195.5,28.5 Z"/></g>
<g><path style="opacity:1" fill="#f6f6f6" d="M 199.5,30.5 C 197.517,30.8432 196.183,30.1765 195.5,28.5C 195.704,25.4824 196.037,22.4824 196.5,19.5C 202.156,19.8674 203.989,22.8674 202,28.5C 201.292,29.3805 200.458,30.0472 199.5,30.5 Z"/></g>
<g><path style="opacity:1" fill="#1f1f1f" d="M 253.5,37.5 C 256.312,39.0765 258.978,40.9098 261.5,43C 259.671,43.2735 258.171,44.1068 257,45.5C 253.915,50.672 250.581,55.672 247,60.5C 246.922,62.6565 246.755,64.6565 246.5,66.5C 244.167,64.6667 241.833,62.8333 239.5,61C 241.847,60.1544 243.68,58.6544 245,56.5C 248.299,51.4005 251.465,46.2338 254.5,41C 254.011,39.8615 253.678,38.6948 253.5,37.5 Z"/></g>
<g><path style="opacity:1" fill="#202020" d="M 84.5,40.5 C 88.3405,48.2246 93.3405,55.3913 99.5,62C 100.738,61.9227 101.738,62.0894 102.5,62.5C 100.469,64.5224 98.1354,66.1891 95.5,67.5C 92.7129,60.1836 88.3795,53.3503 82.5,47C 81.1667,46.6667 79.8333,46.3333 78.5,46C 80.7632,44.383 82.7632,42.5497 84.5,40.5 Z"/></g>
<g><path style="opacity:1" fill="#232323" d="M 262.5,44.5 C 268.822,47.6384 274.489,51.805 279.5,57C 277.182,62.478 276.015,62.6446 276,57.5C 274.667,56.1667 273.333,54.8333 272,53.5C 268.24,58.6825 264.24,63.6825 260,68.5C 258.6,70.8409 258.1,73.1742 258.5,75.5C 255.978,73.144 253.312,70.9773 250.5,69C 252.167,68.6667 253.833,68.3333 255.5,68C 259.904,62.6 263.904,56.9334 267.5,51C 265.059,47.8945 262.392,47.7278 259.5,50.5C 259.167,50.1667 258.833,49.8333 258.5,49.5C 259.857,47.8144 261.19,46.1477 262.5,44.5 Z"/></g>
<g><path style="opacity:1" fill="#1e1e1e" d="M 162.5,48.5 C 213.777,47.3821 252.943,68.3821 280,111.5C 296.092,140.881 300.092,171.881 292,204.5C 275.166,257.335 239.332,287.835 184.5,296C 131.94,298.715 91.7729,277.881 64,233.5C 38.9015,182.532 43.9015,134.866 79,90.5C 101.736,66.2154 129.569,52.2154 162.5,48.5 Z"/></g>
<g><path style="opacity:1" fill="#202020" d="M 75.5,48.5 C 78.241,49.4394 80.241,51.2728 81.5,54C 78.3484,52.8141 75.0151,52.4807 71.5,53C 70.4238,54.7261 70.2571,56.5594 71,58.5C 76.5044,58.5095 82.0044,59.0095 87.5,60C 92.2843,64.4529 92.6177,69.1196 88.5,74C 83.8444,76.216 80.1777,75.0494 77.5,70.5C 78.8517,69.9661 80.185,70.4661 81.5,72C 88.9366,73.2396 90.9366,70.5729 87.5,64C 83.6487,63.4596 79.8153,63.6262 76,64.5C 69.6089,63.069 67.2755,59.069 69,52.5C 71.4381,51.4316 73.6048,50.0983 75.5,48.5 Z"/></g>
<g><path style="opacity:1" fill="#f4f4f4" d="M 244.5,78.5 C 240.857,76.7157 238.191,77.7157 236.5,81.5C 231.789,78.6461 229.123,80.1461 228.5,86C 230.415,89.6282 233.415,91.7948 237.5,92.5C 237.167,93.1667 236.833,93.8333 236.5,94.5C 234.83,94.2488 233.33,93.5822 232,92.5C 226.969,95.9155 223.802,94.5821 222.5,88.5C 219.977,86.9288 217.977,87.4288 216.5,90C 209.161,91.1474 206.494,87.9807 208.5,80.5C 206.5,80.5 204.5,80.5 202.5,80.5C 201.876,86.6539 198.709,88.9873 193,87.5C 191.798,85.3225 191.298,82.9892 191.5,80.5C 189.5,80.5 187.5,80.5 185.5,80.5C 186.038,85.9868 183.705,88.1534 178.5,87C 175.328,83.819 173.994,79.9857 174.5,75.5C 172.833,75.5 171.167,75.5 169.5,75.5C 169.653,79.8751 168.32,83.7084 165.5,87C 163.833,87.6667 162.167,87.6667 160.5,87C 159.308,85.0876 158.308,83.0876 157.5,81C 155.866,80.5065 154.199,80.3398 152.5,80.5C 153.354,87.2164 150.687,89.5498 144.5,87.5C 142.54,85.7095 141.207,83.5428 140.5,81C 138.866,80.5065 137.199,80.3398 135.5,80.5C 135.985,91.7696 132.318,93.7696 124.5,86.5C 123.264,87.2458 121.93,87.5792 120.5,87.5C 120.14,94.8429 117.14,96.5096 111.5,92.5C 110.14,93.1799 108.807,93.8466 107.5,94.5C 107.167,93.8333 106.833,93.1667 106.5,92.5C 110.585,91.7948 113.585,89.6282 115.5,86C 114.877,80.1461 112.211,78.6461 107.5,81.5C 106.209,79.9029 104.709,78.5696 103,77.5C 101.334,78.3479 99.8336,79.3479 98.5,80.5C 97.8333,80.5 97.1667,80.5 96.5,80.5C 124.806,57.5044 157.139,49.0044 193.5,55C 212.616,58.5623 229.616,66.3957 244.5,78.5 Z"/></g>
<g><path style="opacity:1" fill="#1b1b1b" d="M 162.5,64.5 C 164.167,64.5 165.833,64.5 167.5,64.5C 167.5,62.8333 167.5,61.1667 167.5,59.5C 167.611,58.8826 167.944,58.3826 168.5,58C 174.911,55.768 177.578,57.9347 176.5,64.5C 182.204,64.1464 184.037,66.813 182,72.5C 175.582,73.6433 169.082,73.81 162.5,73C 161.183,70.0635 161.183,67.2301 162.5,64.5 Z"/></g>
<g><path style="opacity:1" fill="#222222" d="M 281.5,59.5 C 285.131,62.6293 288.631,65.9626 292,69.5C 292.449,72.0937 291.449,74.0937 289,75.5C 290.276,72.112 289.443,69.2786 286.5,67C 282.433,67.4384 279.933,69.6051 279,73.5C 279.739,74.5742 280.739,75.2409 282,75.5C 283.3,74.548 284.467,74.548 285.5,75.5C 283.833,77.8333 281.833,79.8333 279.5,81.5C 278.41,80.6086 278.41,79.6086 279.5,78.5C 278.52,77.0186 277.353,75.6853 276,74.5C 273.317,77.0159 270.817,79.6826 268.5,82.5C 270.959,85.7602 274.292,87.2602 278.5,87C 276.545,89.0714 274.212,89.7381 271.5,89C 268.317,85.9845 265.317,82.8178 262.5,79.5C 264.113,78.5726 265.779,77.7393 267.5,77C 271.699,72.4657 276.199,68.299 281,64.5C 281.494,62.8659 281.66,61.1992 281.5,59.5 Z"/></g>
<g><path style="opacity:1" fill="#1d1d1d" d="M 131.5,63.5 C 136.352,62.2772 139.519,63.9438 141,68.5C 145.469,66.7787 147.635,68.4454 147.5,73.5C 147.167,74.5 146.833,75.5 146.5,76.5C 143.898,77.6538 141.232,78.1538 138.5,78C 141.833,73 140.5,70.6667 134.5,71C 131.735,73.9663 132.068,76.633 135.5,79C 129.461,82.2855 126.128,80.6188 125.5,74C 126.207,71.46 127.873,70.2933 130.5,70.5C 130.298,68.0504 130.631,65.717 131.5,63.5 Z"/></g>
<g><path style="opacity:1" fill="#878787" d="M 167.5,59.5 C 167.5,61.1667 167.5,62.8333 167.5,64.5C 165.833,64.5 164.167,64.5 162.5,64.5C 163.568,63.5655 164.901,63.2322 166.5,63.5C 166.232,61.901 166.566,60.5676 167.5,59.5 Z"/></g>
<g><path style="opacity:1" fill="#1e1e1e" d="M 204.5,63.5 C 210.89,61.8356 213.89,64.1689 213.5,70.5C 216.352,70.3524 218.019,71.6857 218.5,74.5C 218.101,76.1966 217.601,77.8632 217,79.5C 213.889,80.2931 210.723,80.1264 207.5,79C 210.548,77.2701 211.214,74.7701 209.5,71.5C 206.208,69.8227 204.208,70.8227 203.5,74.5C 203.529,76.0293 204.196,77.196 205.5,78C 197.204,79.539 194.538,76.3723 197.5,68.5C 199.527,68.6621 201.527,68.4955 203.5,68C 204.38,66.6439 204.714,65.1439 204.5,63.5 Z"/></g>
<g><path style="opacity:0.965" fill="#dddddd" d="M 302.5,59.5 C 304.914,60.9108 306.581,62.9108 307.5,65.5C 305.086,64.0892 303.419,62.0892 302.5,59.5 Z"/></g>
<g><path style="opacity:1" fill="#202020" d="M 57.5,64.5 C 64.4754,64.3032 67.8087,67.6365 67.5,74.5C 72.482,75.7455 77.1486,76.9122 81.5,78C 80.9422,80.058 79.6089,81.2247 77.5,81.5C 74.0269,80.3977 70.5269,79.3977 67,78.5C 65.5962,78.5093 64.4296,79.0093 63.5,80C 66.6247,83.8705 70.2914,86.0371 74.5,86.5C 73.1491,89.1963 71.3157,91.5296 69,93.5C 68.5291,91.7536 67.8624,90.087 67,88.5C 62.1667,84.3333 57.3333,80.1667 52.5,76C 51.1011,75.4054 49.7678,75.5721 48.5,76.5C 47.479,75.9984 47.3123,75.3317 48,74.5C 50.9608,70.8589 54.1274,67.5255 57.5,64.5 Z"/></g>
<g><path style="opacity:1" fill="#f3f3f3" d="M 169.5,65.5 C 175.158,64.6794 176.825,66.846 174.5,72C 168.741,73.1387 167.074,70.972 169.5,65.5 Z"/></g>
<g><path style="opacity:1" fill="#ededed" d="M 55.5,68.5 C 63.361,68.1495 65.6944,71.3161 62.5,78C 59.5638,77.1069 57.0638,75.2736 55,72.5C 54.4209,71.0715 54.5876,69.7382 55.5,68.5 Z"/></g>
<g><path style="opacity:0.371" fill="#e2e2e2" d="M 307.5,65.5 C 310.933,68.6012 313.6,72.2679 315.5,76.5C 312.102,73.3733 309.435,69.7066 307.5,65.5 Z"/></g>
<g><path style="opacity:1" fill="#1f1f1f" d="M 151.5,71.5 C 158.19,70.3306 159.857,72.4973 156.5,78C 151.279,78.6099 149.612,76.4432 151.5,71.5 Z"/></g>
<g><path style="opacity:1" fill="#1a1a1a" d="M 186.5,71.5 C 192.158,70.6794 193.825,72.846 191.5,78C 185.741,79.1387 184.074,76.972 186.5,71.5 Z"/></g>
<g><path style="opacity:1" fill="#1e1e1e" d="M 106.5,92.5 C 103.35,88.8811 100.684,84.8811 98.5,80.5C 99.8336,79.3479 101.334,78.3479 103,77.5C 104.709,78.5696 106.209,79.9029 107.5,81.5C 112.211,78.6461 114.877,80.1461 115.5,86C 113.585,89.6282 110.585,91.7948 106.5,92.5 Z"/></g>
<g><path style="opacity:1" fill="#1b1b1b" d="M 118.5,78.5 C 124.158,77.6794 125.825,79.846 123.5,85C 117.741,86.1387 116.074,83.972 118.5,78.5 Z"/></g>
<g><path style="opacity:1" fill="#1a1a1a" d="M 220.5,78.5 C 225.895,77.5548 227.561,79.5548 225.5,84.5C 219.74,86.2121 218.074,84.2121 220.5,78.5 Z"/></g>
<g><path style="opacity:1" fill="#202020" d="M 244.5,78.5 C 244.804,79.1499 245.137,79.8165 245.5,80.5C 243.306,84.9098 240.639,88.9098 237.5,92.5C 233.415,91.7948 230.415,89.6282 228.5,86C 229.123,80.1461 231.789,78.6461 236.5,81.5C 238.191,77.7157 240.857,76.7157 244.5,78.5 Z"/></g>
<g><path style="opacity:0.871" fill="#e7e7e7" d="M 315.5,76.5 C 316.906,76.9731 317.573,77.9731 317.5,79.5C 316.094,79.0269 315.427,78.0269 315.5,76.5 Z"/></g>
<g><path style="opacity:1" fill="#f8f8f8" d="M 244.5,78.5 C 271.588,98.9836 287.088,126.317 291,160.5C 293.638,214.41 271.472,254.243 224.5,280C 176.099,301.033 131.766,294.7 91.5,261C 59.7047,229.611 47.5381,191.777 55,147.5C 61.2789,120.408 75.1123,98.075 96.5,80.5C 97.1667,80.5 97.8333,80.5 98.5,80.5C 100.684,84.8811 103.35,88.8811 106.5,92.5C 106.833,93.1667 107.167,93.8333 107.5,94.5C 110.947,101.197 115.947,102.364 122.5,98C 123.211,96.7453 124.044,95.5786 125,94.5C 127.266,95.9563 129.766,96.7896 132.5,97C 125.261,99.31 117.927,101.31 110.5,103C 109.941,103.725 109.608,104.558 109.5,105.5C 111.02,108.598 111.854,111.931 112,115.5C 113.255,116.211 114.421,117.044 115.5,118C 114.237,133.756 113.57,149.923 113.5,166.5C 113.667,181.167 113.833,195.833 114,210.5C 117.209,233.711 128.042,252.545 146.5,267C 154.791,273.96 163.625,280.127 173,285.5C 189.869,275.298 204.202,262.298 216,246.5C 223.742,234.615 228.742,221.615 231,207.5C 231.167,193.333 231.333,179.167 231.5,165C 231.435,148.991 230.768,133.491 229.5,118.5C 229.5,117.833 229.5,117.167 229.5,116.5C 232.021,114.97 233.021,112.636 232.5,109.5C 233.167,108.833 233.833,108.167 234.5,107.5C 235.684,106.312 235.684,105.145 234.5,104C 232.257,102.864 229.924,102.03 227.5,101.5C 228.833,100.833 230.167,100.167 231.5,99.5C 234.144,98.8561 235.811,97.1894 236.5,94.5C 236.833,93.8333 237.167,93.1667 237.5,92.5C 240.639,88.9098 243.306,84.9098 245.5,80.5C 245.137,79.8165 244.804,79.1499 244.5,78.5 Z"/></g>
<g><path style="opacity:1" fill="#222222" d="M 290.5,79.5 C 299.848,78.693 305.181,82.8596 306.5,92C 304.612,94.1896 302.445,96.0229 300,97.5C 301.477,93.7042 302.143,89.7042 302,85.5C 297.774,81.7505 293.274,81.5838 288.5,85C 284.711,87.6058 282.378,91.1058 281.5,95.5C 281.437,97.4809 282.104,99.1476 283.5,100.5C 285.637,101.868 287.97,102.868 290.5,103.5C 280.855,104.687 276.689,100.353 278,90.5C 280.708,85.0793 284.875,81.4127 290.5,79.5 Z"/></g>
<g><path style="opacity:0.433" fill="#e9e9e9" d="M 317.5,79.5 C 319.25,80.6594 320.25,82.326 320.5,84.5C 318.75,83.3406 317.75,81.674 317.5,79.5 Z"/></g>
<g><path style="opacity:1" fill="#212121" d="M 43.5,80.5 C 50.3802,81.779 50.7135,82.9457 44.5,84C 42.2031,85.2633 41.3698,87.0966 42,89.5C 44.3494,90.8403 46.6827,92.1736 49,93.5C 51.4519,91.9791 51.9519,89.9791 50.5,87.5C 51.0016,86.479 51.6683,86.3123 52.5,87C 54.5,88.3333 56.5,89.6667 58.5,91C 50.7785,92.3856 50.1118,95.0523 56.5,99C 58.8953,101.145 61.062,100.978 63,98.5C 63.4559,95.4284 63.4559,92.4284 63,89.5C 66.2091,91.7322 67.2091,94.7322 66,98.5C 63.6397,101.36 61.473,104.36 59.5,107.5C 54.7731,102.627 49.4397,98.4604 43.5,95C 40.8159,93.5796 38.1492,93.0796 35.5,93.5C 38.1935,89.1493 40.8602,84.8159 43.5,80.5 Z"/></g>
<g><path style="opacity:1" fill="#eaeaea" d="M 104.5,84.5 C 109.378,85.0309 110.545,87.3643 108,91.5C 106.295,89.4234 105.128,87.09 104.5,84.5 Z"/></g>
<g><path style="opacity:1" fill="#e9e9e9" d="M 236.5,84.5 C 237.675,84.281 238.675,84.6143 239.5,85.5C 238.533,87.6297 237.366,89.6297 236,91.5C 233.918,88.9738 234.084,86.6405 236.5,84.5 Z"/></g>
<g><path style="opacity:0.384" fill="#e4e4e4" d="M 320.5,84.5 C 322.25,85.6594 323.25,87.326 323.5,89.5C 321.75,88.3406 320.75,86.674 320.5,84.5 Z"/></g>
<g><path style="opacity:1" fill="#c8c8c8" d="M 231.5,99.5 C 230.167,100.167 228.833,100.833 227.5,101.5C 221.895,99.8484 216.228,98.3484 210.5,97C 212.847,96.5639 215.181,96.0639 217.5,95.5C 219.606,96.4295 221.606,97.5962 223.5,99C 226.146,99.4974 228.813,99.6641 231.5,99.5 Z"/></g>
<g><path style="opacity:1" fill="#222222" d="M 308.5,94.5 C 310.271,95.8758 311.605,97.7092 312.5,100C 308.533,107.097 305.033,114.263 302,121.5C 306.141,119.4 310.308,117.4 314.5,115.5C 315.167,113.833 315.833,112.167 316.5,110.5C 318.102,112.427 319.435,114.594 320.5,117C 317.809,116.208 315.142,116.541 312.5,118C 306.759,120.954 300.925,123.787 295,126.5C 294.5,126.167 294,125.833 293.5,125.5C 297.454,117.755 301.788,110.255 306.5,103C 301.498,104.656 296.498,106.656 291.5,109C 290.134,110.6 289.134,112.433 288.5,114.5C 287.424,112.013 286.09,109.68 284.5,107.5C 292.234,106.976 299.567,104.476 306.5,100C 308.155,98.5557 308.822,96.7224 308.5,94.5 Z"/></g>
<g><path style="opacity:1" fill="#eaeaea" d="M 234.5,107.5 C 233.833,108.167 233.167,108.833 232.5,109.5C 227.067,107.762 224.901,109.762 226,115.5C 227.011,116.337 228.178,116.67 229.5,116.5C 229.5,117.167 229.5,117.833 229.5,118.5C 192.456,108.237 155.289,107.904 118,117.5C 116.249,117.172 116.249,116.505 118,115.5C 119.45,111.276 117.95,108.776 113.5,108C 142.531,98.2349 172.198,95.9015 202.5,101C 213.285,102.866 223.952,105.032 234.5,107.5 Z"/></g>
<g><path style="opacity:1" fill="#181818" d="M 167.5,100.5 C 171.308,100.163 174.974,100.663 178.5,102C 180.318,105.387 179.318,107.387 175.5,108C 172.833,108.667 170.167,108.667 167.5,108C 164.88,105.441 164.88,102.941 167.5,100.5 Z"/></g>
<g><path style="opacity:1" fill="#1f1f1f" d="M 137.5,102.5 C 140.607,102.351 143.607,102.851 146.5,104C 147.396,107.818 145.729,110.151 141.5,111C 138.697,111.755 136.03,111.422 133.5,110C 132.446,108.612 132.28,107.112 133,105.5C 134.652,104.601 136.152,103.601 137.5,102.5 Z"/></g>
<g><path style="opacity:1" fill="#1d1d1d" d="M 198.5,102.5 C 202.839,101.846 206.673,102.846 210,105.5C 210.835,109.706 209.002,111.706 204.5,111.5C 200.757,111.308 198.091,109.641 196.5,106.5C 196.752,104.927 197.418,103.594 198.5,102.5 Z"/></g>
<g><path style="opacity:0.347" fill="#e6e6e6" d="M 329.5,101.5 C 330.931,102.78 331.598,104.447 331.5,106.5C 330.069,105.22 329.402,103.553 329.5,101.5 Z"/></g>
<g><path style="opacity:1" fill="#222222" d="M 124.5,107.5 C 130.678,108.31 131.012,109.977 125.5,112.5C 120.523,111.556 120.19,109.89 124.5,107.5 Z"/></g>
<g><path style="opacity:1" fill="#282828" d="M 216.5,107.5 C 219.278,107.022 221.278,108.022 222.5,110.5C 219.396,113.388 216.729,113.055 214.5,109.5C 215.243,108.818 215.909,108.151 216.5,107.5 Z"/></g>
<g><path style="opacity:0.337" fill="#e9e9e9" d="M 12.5,106.5 C 12.2671,109.542 11.2671,112.208 9.5,114.5C 9.73292,111.458 10.7329,108.792 12.5,106.5 Z"/></g>
<g><path style="opacity:1" fill="#1a1a1a" d="M 232.5,109.5 C 233.021,112.636 232.021,114.97 229.5,116.5C 228.178,116.67 227.011,116.337 226,115.5C 224.901,109.762 227.067,107.762 232.5,109.5 Z"/></g>
<g><path style="opacity:1" fill="#1f1f1f" d="M 33.5,95.5 C 40.7659,102.429 48.0992,109.429 55.5,116.5C 45.4875,116.423 35.4875,116.423 25.5,116.5C 25.2433,113.624 26.2433,110.957 28.5,108.5C 29.2868,109.242 29.9535,110.075 30.5,111C 36.8518,111.957 43.1852,112.624 49.5,113C 45.467,108.632 41.1337,104.632 36.5,101C 34.6332,100.289 33.1332,100.789 32,102.5C 31.8648,100.078 32.3648,97.7451 33.5,95.5 Z"/></g>
<g><path style="opacity:1" fill="#9b9b9b" d="M 331.5,106.5 C 332.931,107.78 333.598,109.447 333.5,111.5C 331.787,110.365 331.12,108.698 331.5,106.5 Z"/></g>
<g><path style="opacity:1" fill="#1a1a1a" d="M 236.5,94.5 C 235.811,97.1894 234.144,98.8561 231.5,99.5C 228.813,99.6641 226.146,99.4974 223.5,99C 221.606,97.5962 219.606,96.4295 217.5,95.5C 215.181,96.0639 212.847,96.5639 210.5,97C 216.228,98.3484 221.895,99.8484 227.5,101.5C 229.924,102.03 232.257,102.864 234.5,104C 235.684,105.145 235.684,106.312 234.5,107.5C 223.952,105.032 213.285,102.866 202.5,101C 172.198,95.9015 142.531,98.2349 113.5,108C 117.95,108.776 119.45,111.276 118,115.5C 116.249,116.505 116.249,117.172 118,117.5C 155.289,107.904 192.456,108.237 229.5,118.5C 230.768,133.491 231.435,148.991 231.5,165C 231.333,179.167 231.167,193.333 231,207.5C 228.742,221.615 223.742,234.615 216,246.5C 204.202,262.298 189.869,275.298 173,285.5C 163.625,280.127 154.791,273.96 146.5,267C 128.042,252.545 117.209,233.711 114,210.5C 113.833,195.833 113.667,181.167 113.5,166.5C 113.57,149.923 114.237,133.756 115.5,118C 114.421,117.044 113.255,116.211 112,115.5C 111.854,111.931 111.02,108.598 109.5,105.5C 109.608,104.558 109.941,103.725 110.5,103C 117.927,101.31 125.261,99.31 132.5,97C 129.766,96.7896 127.266,95.9563 125,94.5C 124.044,95.5786 123.211,96.7453 122.5,98C 115.947,102.364 110.947,101.197 107.5,94.5C 108.807,93.8466 110.14,93.1799 111.5,92.5C 117.14,96.5096 120.14,94.8429 120.5,87.5C 121.93,87.5792 123.264,87.2458 124.5,86.5C 132.318,93.7696 135.985,91.7696 135.5,80.5C 137.199,80.3398 138.866,80.5065 140.5,81C 141.207,83.5428 142.54,85.7095 144.5,87.5C 150.687,89.5498 153.354,87.2164 152.5,80.5C 154.199,80.3398 155.866,80.5065 157.5,81C 158.308,83.0876 159.308,85.0876 160.5,87C 162.167,87.6667 163.833,87.6667 165.5,87C 168.32,83.7084 169.653,79.8751 169.5,75.5C 171.167,75.5 172.833,75.5 174.5,75.5C 173.994,79.9857 175.328,83.819 178.5,87C 183.705,88.1534 186.038,85.9868 185.5,80.5C 187.5,80.5 189.5,80.5 191.5,80.5C 191.298,82.9892 191.798,85.3225 193,87.5C 198.709,88.9873 201.876,86.6539 202.5,80.5C 204.5,80.5 206.5,80.5 208.5,80.5C 206.494,87.9807 209.161,91.1474 216.5,90C 217.977,87.4288 219.977,86.9288 222.5,88.5C 223.802,94.5821 226.969,95.9155 232,92.5C 233.33,93.5822 234.83,94.2488 236.5,94.5 Z"/></g>
<g><path style="opacity:1" fill="#212121" d="M 185.5,102.5 C 188.226,102.264 190.559,103.097 192.5,105C 189.5,108.333 186.5,108.333 183.5,105C 184.381,104.292 185.047,103.458 185.5,102.5 Z"/></g>
<g><path style="opacity:1" fill="#1d1d1d" d="M 154.5,102.5 C 162.462,104.349 162.462,105.849 154.5,107C 153.328,106.581 152.328,105.915 151.5,105C 152.942,104.623 153.942,103.79 154.5,102.5 Z"/></g>
<g><path style="opacity:1" fill="#787878" d="M 144.5,93.5 C 146.5,93.5 148.5,93.5 150.5,93.5C 150.5,93.8333 150.5,94.1667 150.5,94.5C 148.283,95.3686 145.95,95.702 143.5,95.5C 143.833,94.8333 144.167,94.1667 144.5,93.5 Z"/></g>
<g><path style="opacity:1" fill="#626262" d="M 159.5,92.5 C 161.451,93.6414 163.451,93.6414 165.5,92.5C 169.5,93.8333 173.5,93.8333 177.5,92.5C 179.882,93.5463 182.215,93.5463 184.5,92.5C 185.5,93.1667 186.5,93.8333 187.5,94.5C 176.833,94.5 166.167,94.5 155.5,94.5C 156.833,93.8333 158.167,93.1667 159.5,92.5 Z"/></g>
<g><path style="opacity:1" fill="#dedede" d="M 202.5,91.5 C 204.932,92.7502 207.266,94.2502 209.5,96C 205.496,96.1445 201.496,95.8111 197.5,95C 199.431,94.0978 201.097,92.9312 202.5,91.5 Z"/></g>
<g><path style="opacity:1" fill="#e0e0e0" d="M 187.5,94.5 C 186.5,93.8333 185.5,93.1667 184.5,92.5C 185.721,91.9717 186.887,91.305 188,90.5C 189.579,92.0412 191.413,93.2078 193.5,94C 191.527,94.4955 189.527,94.6621 187.5,94.5 Z"/></g>
<g><path style="opacity:1" fill="#dedede" d="M 159.5,92.5 C 158.167,93.1667 156.833,93.8333 155.5,94.5C 153.833,94.5 152.167,94.5 150.5,94.5C 150.5,94.1667 150.5,93.8333 150.5,93.5C 152.394,92.9524 154.06,91.9524 155.5,90.5C 156.86,91.1799 158.193,91.8466 159.5,92.5 Z"/></g>
<g><path style="opacity:1" fill="#ececec" d="M 144.5,93.5 C 144.167,94.1667 143.833,94.8333 143.5,95.5C 140.786,95.75 138.119,95.9167 135.5,96C 137.022,94.4782 138.522,92.9782 140,91.5C 141.406,92.4138 142.906,93.0805 144.5,93.5 Z"/></g>
<g><path style="opacity:1" fill="#f2f2f2" d="M 177.5,92.5 C 173.5,93.8333 169.5,93.8333 165.5,92.5C 168.195,92.067 170.362,90.7337 172,88.5C 173.432,90.4388 175.265,91.7721 177.5,92.5 Z"/></g>
<g><path style="opacity:1" fill="#f6f6f6" d="M 154.5,115.5 C 177.816,114.365 200.816,116.532 223.5,122C 189.5,122.667 155.5,122.667 121.5,122C 132.57,119.458 143.57,117.291 154.5,115.5 Z"/></g>
<g><path style="opacity:1" fill="#232323" d="M 260.5,109.5 C 261.873,109.343 263.207,109.51 264.5,110C 285.515,142.649 289.015,177.149 275,213.5C 272.174,219.822 268.841,225.822 265,231.5C 262.976,229.654 260.643,228.321 258,227.5C 256.054,229.881 254.221,232.381 252.5,235C 254.122,236.295 255.455,237.795 256.5,239.5C 250.166,255.058 239.166,259.725 223.5,253.5C 222.369,251.926 222.202,250.259 223,248.5C 225.667,245.833 228.333,243.167 231,240.5C 231.854,237.593 231.021,235.26 228.5,233.5C 233.831,225.837 237.831,217.504 240.5,208.5C 243.132,207.743 245.632,207.41 248,207.5C 254.815,191.13 257.148,174.13 255,156.5C 254.692,155.692 254.192,155.025 253.5,154.5C 249.917,156.36 246.251,158.027 242.5,159.5C 240.242,152.296 237.908,145.13 235.5,138C 237.249,136.708 239.082,135.542 241,134.5C 240.823,130.804 240.49,127.137 240,123.5C 246.986,118.934 253.819,114.267 260.5,109.5 Z"/></g>
<g><path style="opacity:1" fill="#efefef" d="M 260.5,112.5 C 261.822,112.33 262.989,112.663 264,113.5C 282.535,144.69 285.535,177.356 273,211.5C 270.507,217.157 267.507,222.49 264,227.5C 258.341,223.996 252.841,220.33 247.5,216.5C 254.16,201.527 257.827,185.861 258.5,169.5C 258.887,152.66 253.887,137.66 243.5,124.5C 249.409,120.724 255.075,116.724 260.5,112.5 Z"/></g>
<g><path style="opacity:1" fill="#282828" d="M 259.5,117.5 C 262.313,119.47 263.48,122.137 263,125.5C 259.918,128.197 257.085,127.864 254.5,124.5C 252.803,125.364 251.637,126.697 251,128.5C 250.044,127.421 249.211,126.255 248.5,125C 252.96,123.454 256.627,120.954 259.5,117.5 Z"/></g>
<g><path style="opacity:1" fill="#222222" d="M 23.5,117.5 C 25.1344,118.207 26.4677,119.373 27.5,121C 33.7944,122.99 40.1278,124.823 46.5,126.5C 48.0441,126.21 49.3774,125.544 50.5,124.5C 50.8333,124.833 51.1667,125.167 51.5,125.5C 50.3297,128.209 49.163,130.875 48,133.5C 47.1667,132.667 46.3333,131.833 45.5,131C 38.8681,129.217 32.3681,127.051 26,124.5C 24.7147,124.95 23.548,125.617 22.5,126.5C 22.1667,126 21.8333,125.5 21.5,125C 22.4788,122.567 23.1455,120.067 23.5,117.5 Z"/></g>
<g><path style="opacity:0.218" fill="#ececec" d="M 335.5,117.5 C 336.931,118.78 337.598,120.447 337.5,122.5C 336.069,121.22 335.402,119.553 335.5,117.5 Z"/></g>
<g><path style="opacity:1" fill="#c7c7c7" d="M 8.5,117.5 C 8.74061,119.898 8.07394,121.898 6.5,123.5C 6.25939,121.102 6.92606,119.102 8.5,117.5 Z"/></g>
<g><path style="opacity:1" fill="#ededed" d="M 258.5,121.5 C 259.5,121.5 260.5,121.5 261.5,121.5C 261.352,125.491 259.686,126.324 256.5,124C 257.381,123.292 258.047,122.458 258.5,121.5 Z"/></g>
<g><path style="opacity:1" fill="#212121" d="M 319.5,120.5 C 320.75,120.577 321.583,121.244 322,122.5C 322.837,124.821 323.17,127.155 323,129.5C 314.628,129.426 306.628,131.426 299,135.5C 298.667,136.5 298.333,137.5 298,138.5C 296.363,135.465 295.53,132.465 295.5,129.5C 296.446,129.987 297.446,130.32 298.5,130.5C 305.467,128.456 312.3,126.122 319,123.5C 319.483,122.552 319.649,121.552 319.5,120.5 Z"/></g>
<g><path style="opacity:0.992" fill="#b9b9b9" d="M 337.5,123.5 C 339.88,130.736 341.88,138.07 343.5,145.5C 343.5,148.167 343.5,150.833 343.5,153.5C 341.395,143.644 339.395,133.644 337.5,123.5 Z"/></g>
<g><path style="opacity:1" fill="#c2c2c2" d="M 6.5,123.5 C 6.82943,126.228 6.16276,128.562 4.5,130.5C 4.40953,127.848 5.07619,125.515 6.5,123.5 Z"/></g>
<g><path style="opacity:1" fill="#f2f2f2" d="M 118.5,127.5 C 154.5,127.5 190.5,127.5 226.5,127.5C 226.911,155.859 226.411,184.192 225,212.5C 219.887,233.564 209.053,251.064 192.5,265C 185.693,269.64 179.027,274.473 172.5,279.5C 156.295,269.129 142.128,256.462 130,241.5C 123.942,231.327 120.276,220.327 119,208.5C 118.5,181.502 118.333,154.502 118.5,127.5 Z"/></g>
<g><path style="opacity:1" fill="#141414" d="M 124.5,129.5 C 129.5,129.5 134.5,129.5 139.5,129.5C 139.667,169.501 139.5,209.501 139,249.5C 133.322,242.811 128.655,235.477 125,227.5C 124.5,194.835 124.333,162.168 124.5,129.5 Z"/></g>
<g><path style="opacity:1" fill="#171717" d="M 149.5,129.5 C 155.5,129.5 161.5,129.5 167.5,129.5C 167.667,177.501 167.5,225.501 167,273.5C 161.356,269.357 155.856,265.024 150.5,260.5C 149.5,216.838 149.167,173.172 149.5,129.5 Z"/></g>
<g><path style="opacity:1" fill="#141414" d="M 178.5,129.5 C 184.167,129.5 189.833,129.5 195.5,129.5C 195.667,172.835 195.5,216.168 195,259.5C 189.483,263.594 184.15,267.927 179,272.5C 178.5,224.834 178.333,177.168 178.5,129.5 Z"/></g>
<g><path style="opacity:1" fill="#141414" d="M 207.5,129.5 C 212.167,129.5 216.833,129.5 221.5,129.5C 221.667,159.502 221.5,189.502 221,219.5C 217.874,228.418 213.708,236.751 208.5,244.5C 207.501,206.337 207.168,168.004 207.5,129.5 Z"/></g>
<g><path style="opacity:1" fill="#898989" d="M 207.5,129.5 C 207.168,168.004 207.501,206.337 208.5,244.5C 208.217,245.289 207.717,245.956 207,246.5C 206.169,207.331 206.335,168.331 207.5,129.5 Z"/></g>
<g><path style="opacity:1" fill="#e5e5e5" d="M 244.5,132.5 C 248.084,136.523 250.751,141.19 252.5,146.5C 250.833,147.833 249.167,147.833 247.5,146.5C 246.497,141.826 245.497,137.16 244.5,132.5 Z"/></g>
<g><path style="opacity:1" fill="#2a2a2a" d="M 264.5,126.5 C 267.538,128.251 268.705,130.917 268,134.5C 266.174,136.074 264.007,136.907 261.5,137C 260.696,138.771 259.529,140.271 258,141.5C 258.202,138.34 258.868,135.34 260,132.5C 258.028,133.305 256.528,134.639 255.5,136.5C 253.876,135.131 253.376,133.464 254,131.5C 254.414,131.957 254.914,132.291 255.5,132.5C 259.149,131.196 262.149,129.196 264.5,126.5 Z"/></g>
<g><path style="opacity:1" fill="#efefef" d="M 263.5,130.5 C 264.5,130.5 265.5,130.5 266.5,130.5C 266.833,133.5 265.5,134.833 262.5,134.5C 262.433,133.041 262.766,131.708 263.5,130.5 Z"/></g>
<g><path style="opacity:1" fill="#232323" d="M 308.5,134.5 C 315.864,133.208 322.03,135.208 327,140.5C 327.093,144.248 327.26,147.914 327.5,151.5C 318.094,154.957 317.261,153.624 325,147.5C 326.129,141.284 323.462,137.95 317,137.5C 311.38,137.977 306.713,140.31 303,144.5C 301.644,149.789 303.478,153.455 308.5,155.5C 303.743,155.831 300.577,153.497 299,148.5C 297.798,144.207 298.965,140.707 302.5,138C 304.727,137.059 306.727,135.892 308.5,134.5 Z"/></g>
<g><path style="opacity:1" fill="#212121" d="M 20.5,128.5 C 21.6594,129.456 22.8261,130.456 24,131.5C 31.9156,133.183 39.7489,135.183 47.5,137.5C 39.0997,141.242 30.7663,145.075 22.5,149C 27.9204,150.542 33.4204,151.709 39,152.5C 41.1628,152.505 42.6628,151.505 43.5,149.5C 43.8333,149.833 44.1667,150.167 44.5,150.5C 43.1028,152.982 42.2694,155.648 42,158.5C 41.0524,156.43 39.5524,154.93 37.5,154C 32.0016,152.834 26.5016,151.667 21,150.5C 18.9658,150.354 17.2991,151.02 16,152.5C 15.2419,150.231 15.4086,148.064 16.5,146C 23.6161,143.275 30.6161,140.275 37.5,137C 32.3641,134.713 27.0308,133.713 21.5,134C 20.9535,134.925 20.2868,135.758 19.5,136.5C 18.8264,133.812 19.1597,131.145 20.5,128.5 Z"/></g>
<g><path style="opacity:1" fill="#cbcbcb" d="M 240.5,137.5 C 243.244,138.072 244.077,139.738 243,142.5C 241.628,141.09 240.795,139.423 240.5,137.5 Z"/></g>
<g><path style="opacity:0.465" fill="#dddddd" d="M 4.5,130.5 C 3.52497,138.351 2.19164,146.018 0.5,153.5C 0.664649,145.507 1.99798,137.84 4.5,130.5 Z"/></g>
<g><path style="opacity:1" fill="#e8e8e8" d="M 240.5,144.5 C 242.5,145.976 244.167,147.809 245.5,150C 248.226,150.182 250.893,150.682 253.5,151.5C 250.384,153.571 247.051,154.738 243.5,155C 242.565,151.497 241.565,147.997 240.5,144.5 Z"/></g>
<g><path style="opacity:1" fill="#292929" d="M 272.5,142.5 C 274.198,148.175 271.864,151.175 265.5,151.5C 259.293,150.038 257.959,146.538 261.5,141C 264.759,139.272 268.092,139.106 271.5,140.5C 272.298,140.957 272.631,141.624 272.5,142.5 Z"/></g>
<g><path style="opacity:1" fill="#f5f5f5" d="M 272.5,142.5 C 271.363,147.908 268.03,150.075 262.5,149C 260.085,146.091 260.751,143.757 264.5,142C 267.261,141.278 269.927,141.445 272.5,142.5 Z"/></g>
<g><path style="opacity:1" fill="#252525" d="M 265.5,152.5 C 273.666,151.002 277.333,154.336 276.5,162.5C 275.127,162.657 273.793,162.49 272.5,162C 276.9,157.866 276.067,155.366 270,154.5C 266.748,154.416 264.582,155.916 263.5,159C 264.945,162.137 266.778,162.303 269,159.5C 269.667,161.167 269.667,162.833 269,164.5C 261.805,162.37 260.639,158.37 265.5,152.5 Z"/></g>
<g><path style="opacity:1" fill="#222222" d="M 79.5,109.5 C 88.388,113.187 96.7213,118.02 104.5,124C 103.677,126.759 103.01,129.593 102.5,132.5C 103.871,134.701 105.538,136.701 107.5,138.5C 105.996,145.713 103.996,152.713 101.5,159.5C 97.5931,157.962 93.7598,156.296 90,154.5C 89.6667,154.833 89.3333,155.167 89,155.5C 88.3333,164.5 88.3333,173.5 89,182.5C 90.8511,191.238 93.0178,199.904 95.5,208.5C 98.2075,207.551 100.874,207.551 103.5,208.5C 105.64,217.779 109.64,226.112 115.5,233.5C 114.167,235.167 112.833,236.833 111.5,238.5C 114.996,242.328 117.663,246.662 119.5,251.5C 111.452,263.393 102.619,264.059 93,253.5C 89.6057,249.102 86.6057,244.435 84,239.5C 83.3333,238.5 83.3333,237.5 84,236.5C 85.9252,235.12 87.7585,233.62 89.5,232C 88.4582,230.082 87.2915,228.249 86,226.5C 83.6667,228.167 81.3333,229.833 79,231.5C 58.546,199.799 54.8793,166.132 68,130.5C 71.3377,123.152 75.1711,116.152 79.5,109.5 Z"/></g>
<g><path style="opacity:1" fill="#f1f1f1" d="M 102.5,144.5 C 103.043,144.56 103.376,144.893 103.5,145.5C 101.879,148.652 100.879,151.985 100.5,155.5C 96.9647,154.735 93.6314,153.401 90.5,151.5C 96.2979,151.984 100.298,149.651 102.5,144.5 Z"/></g>
<g><path style="opacity:1" fill="#d0d0d0" d="M 100.5,137.5 C 103.928,138.235 104.094,139.902 101,142.5C 100.506,140.866 100.34,139.199 100.5,137.5 Z"/></g>
<g><path style="opacity:1" fill="#e6e6e6" d="M 98.5,131.5 C 99.0967,131.735 99.4301,132.235 99.5,133C 98.5516,137.861 97.5516,142.694 96.5,147.5C 94.712,147.785 93.0453,147.452 91.5,146.5C 93.588,141.327 95.9213,136.327 98.5,131.5 Z"/></g>
<g><path style="opacity:1" fill="#f2f2f2" d="M 80.5,112.5 C 87.4426,115.974 94.1093,119.974 100.5,124.5C 86.3579,143.326 81.8579,164.326 87,187.5C 89.3991,197.434 92.5658,207.101 96.5,216.5C 91.1253,220.527 85.4586,224.193 79.5,227.5C 56.7733,188.974 57.1067,150.641 80.5,112.5 Z"/></g>
<g><path style="opacity:1" fill="#2b2b2b" d="M 68.5,153.5 C 70.4898,154.999 72.8232,155.832 75.5,156C 73.236,156.236 71.0693,156.736 69,157.5C 68.51,156.207 68.3433,154.873 68.5,153.5 Z"/></g>
<g><path style="opacity:1" fill="#2a2a2a" d="M 70.5,146.5 C 74.5552,148.529 78.7218,148.862 83,147.5C 83.5205,149.289 83.1871,150.956 82,152.5C 78.862,150.973 75.5287,149.973 72,149.5C 69.3095,150.381 68.8095,149.381 70.5,146.5 Z"/></g>
<g><path style="opacity:1" fill="#282828" d="M 75.5,132.5 C 80.5917,132.497 80.5917,133.33 75.5,135C 73.7767,138.408 74.7767,140.741 78.5,142C 83.0777,142.964 85.5777,141.13 86,136.5C 86.9959,143.166 84.1626,145.666 77.5,144C 73.7084,141.947 72.5418,138.781 74,134.5C 74.7172,133.956 75.2172,133.289 75.5,132.5 Z"/></g>
<g><path style="opacity:1" fill="#333333" d="M 83.5,126.5 C 80.5239,125.321 80.1906,123.987 82.5,122.5C 86.592,123.01 90.592,123.843 94.5,125C 93.8742,125.75 93.3742,126.584 93,127.5C 89.3591,125.633 87.6924,126.633 88,130.5C 88.7504,131.126 89.5838,131.626 90.5,132C 89.8742,132.75 89.3742,133.584 89,134.5C 86.9205,131.935 85.0872,129.268 83.5,126.5 Z"/></g>
<g><path style="opacity:1" fill="#dcdcdc" d="M 83.5,126.5 C 84.6009,125.402 85.9343,125.235 87.5,126C 86.3181,127.768 84.9848,127.935 83.5,126.5 Z"/></g>
<g><path style="opacity:1" fill="#292929" d="M 76.5,156.5 C 78.1992,156.34 79.8659,156.506 81.5,157C 78.1667,159.333 74.8333,161.667 71.5,164C 73.6982,164.373 75.8649,164.873 78,165.5C 80.2383,164.101 80.905,164.768 80,167.5C 76.0394,165.946 72.0394,165.613 68,166.5C 67.3333,165.5 67.3333,164.5 68,163.5C 71.4356,161.726 74.2689,159.392 76.5,156.5 Z"/></g>
<g><path style="opacity:1" fill="#212121" d="M 300.5,156.5 C 310.236,160.104 320.236,163.104 330.5,165.5C 322.653,169.59 314.653,173.423 306.5,177C 305.382,178.074 304.382,179.24 303.5,180.5C 302.343,177.216 302.176,173.882 303,170.5C 305.369,172.908 307.869,172.908 310.5,170.5C 313.05,163.4 310.717,160.566 303.5,162C 302.874,162.75 302.374,163.584 302,164.5C 301.605,161.793 301.105,159.127 300.5,156.5 Z"/></g>
<g><path style="opacity:1" fill="#e6e6e6" d="M 313.5,163.5 C 325.153,164.051 325.153,165.718 313.5,168.5C 313.5,166.833 313.5,165.167 313.5,163.5 Z"/></g>
<g><path style="opacity:1" fill="#222222" d="M 15.5,154.5 C 24.6036,158.886 33.6036,163.552 42.5,168.5C 35.6684,170.912 28.6684,172.745 21.5,174C 18.6922,174.598 16.1922,175.765 14,177.5C 13.1786,174.446 13.3452,171.446 14.5,168.5C 15.6226,169.544 16.9559,170.21 18.5,170.5C 23.9777,169.299 29.3111,167.799 34.5,166C 29.7125,163.271 24.7125,161.105 19.5,159.5C 17.9559,159.79 16.6226,160.456 15.5,161.5C 14.9426,159.282 14.9426,156.949 15.5,154.5 Z"/></g>
<g><path style="opacity:1" fill="#484848" d="M 78.5,178.5 C 75.1667,179.833 71.8333,179.833 68.5,178.5C 69.8333,178.5 71.1667,178.5 72.5,178.5C 72.5,176.833 72.5,175.167 72.5,173.5C 70.8561,173.286 69.3561,173.62 68,174.5C 67.51,173.207 67.3433,171.873 67.5,170.5C 71.7675,170.797 75.9341,170.464 80,169.5C 80.6667,171.167 80.6667,172.833 80,174.5C 78.3005,173.594 76.4672,173.261 74.5,173.5C 74.5,175.167 74.5,176.833 74.5,178.5C 75.8333,178.5 77.1667,178.5 78.5,178.5 Z"/></g>
<g><path style="opacity:1" fill="#232323" d="M 68.5,178.5 C 71.8333,179.833 75.1667,179.833 78.5,178.5C 79.1174,178.389 79.6174,178.056 80,177.5C 80.6667,179.167 80.6667,180.833 80,182.5C 76,181.167 72,181.167 68,182.5C 67.235,180.934 67.4017,179.601 68.5,178.5 Z"/></g>
<g><path style="opacity:1" fill="#2f2f2f" d="M 263.5,165.5 C 267.89,167.562 272.39,167.896 277,166.5C 278.74,174.442 276.073,176.775 269,173.5C 267.56,174.148 266.06,174.481 264.5,174.5C 264.5,175.5 264.5,176.5 264.5,177.5C 268.382,178.637 272.216,178.637 276,177.5C 276.777,180.429 276.61,183.263 275.5,186C 274.668,186.688 274.002,186.521 273.5,185.5C 276.463,181.769 275.463,180.102 270.5,180.5C 270.33,181.822 270.663,182.989 271.5,184C 269.833,184.667 268.167,184.667 266.5,184C 267.833,183.333 268.833,182.333 269.5,181C 267.527,180.505 265.527,180.338 263.5,180.5C 263.297,182.39 263.963,183.89 265.5,185C 264.551,185.617 263.718,185.451 263,184.5C 262.333,180.833 262.333,177.167 263,173.5C 265.202,172.598 267.368,171.598 269.5,170.5C 267.604,169.534 265.604,169.201 263.5,169.5C 263.5,168.167 263.5,166.833 263.5,165.5 Z"/></g>
<g><path style="opacity:1" fill="#dddddd" d="M 270.5,169.5 C 272.167,169.5 273.833,169.5 275.5,169.5C 275.65,173.161 274.15,174.161 271,172.5C 270.517,171.552 270.351,170.552 270.5,169.5 Z"/></g>
<g><path style="opacity:1" fill="#353535" d="M 262.5,186.5 C 267.539,186.451 267.705,187.118 263,188.5C 262.217,190.319 262.717,191.652 264.5,192.5C 266.277,191.099 267.944,189.599 269.5,188C 275.227,187.634 276.894,190.134 274.5,195.5C 270.445,195.352 269.945,194.352 273,192.5C 273.483,191.552 273.649,190.552 273.5,189.5C 271.176,189.662 269.509,190.828 268.5,193C 261.761,194.447 259.761,192.28 262.5,186.5 Z"/></g>
<g><path style="opacity:1" fill="#343434" d="M 69.5,190.5 C 73.6759,191.169 75.0093,189.669 73.5,186C 74.4491,185.383 75.2825,185.549 76,186.5C 76.8333,191 75,192.833 70.5,192C 69.944,191.617 69.6107,191.117 69.5,190.5 Z"/></g>
<g><path style="opacity:1" fill="#323232" d="M 69.5,190.5 C 68.218,189.292 68.218,187.958 69.5,186.5C 70.2916,187.7 70.2916,189.033 69.5,190.5 Z"/></g>
<g><path style="opacity:0.465" fill="#d8d8d8" d="M 0.5,191.5 C 2.34447,197.233 3.34447,203.233 3.5,209.5C 1.43942,203.804 0.439421,197.804 0.5,191.5 Z"/></g>
<g><path style="opacity:1" fill="#222222" d="M 70.5,196.5 C 72.6456,196.696 72.8122,197.696 71,199.5C 70.5172,198.552 70.3505,197.552 70.5,196.5 Z"/></g>
<g><path style="opacity:1" fill="#2f2f2f" d="M 260.5,194.5 C 264.061,194.915 263.894,195.915 260,197.5C 259.699,200.091 260.866,200.925 263.5,200C 265.883,196.189 268.717,195.689 272,198.5C 272.933,202.728 271.433,204.395 267.5,203.5C 269.149,202.852 270.482,201.852 271.5,200.5C 271.167,199.5 270.5,198.833 269.5,198.5C 268.019,199.48 266.685,200.647 265.5,202C 258.745,202.756 257.078,200.256 260.5,194.5 Z"/></g>
<g><path style="opacity:1" fill="#292929" d="M 80.5,194.5 C 81.1894,193.226 82.0228,193.226 83,194.5C 83.912,196.659 84.7454,198.825 85.5,201C 80.9776,200.502 76.8109,201.669 73,204.5C 71.8118,203.437 71.3118,202.103 71.5,200.5C 73.1667,200.5 74.8333,200.5 76.5,200.5C 76.6399,198.876 75.9733,197.71 74.5,197C 75.5929,195.635 76.9262,195.301 78.5,196C 77.6634,197.011 77.33,198.178 77.5,199.5C 79.7144,199.709 81.381,198.876 82.5,197C 82.3613,195.699 81.6946,194.866 80.5,194.5 Z"/></g>
<g><path style="opacity:1" fill="#202020" d="M 257.5,202.5 C 261.357,205.296 265.524,206.296 270,205.5C 270.122,207.169 269.788,208.835 269,210.5C 265.091,208.027 260.924,206.027 256.5,204.5C 256.863,203.817 257.196,203.15 257.5,202.5 Z"/></g>
<g><path style="opacity:1" fill="#2d2d2d" d="M 86.5,205.5 C 87.6006,206.848 88.6006,208.348 89.5,210C 85.3723,210.398 81.7056,211.898 78.5,214.5C 79.3805,215.971 80.7139,216.804 82.5,217C 81.1233,218.241 79.79,218.408 78.5,217.5C 77.1667,214.833 75.8333,212.167 74.5,209.5C 75.0347,207.899 76.0347,207.399 77.5,208C 76.6634,209.011 76.33,210.178 76.5,211.5C 79.6907,210.908 82.6907,209.741 85.5,208C 86.2524,207.329 86.5858,206.496 86.5,205.5 Z"/></g>
<g><path style="opacity:0.992" fill="#b7b7b7" d="M 341.5,206.5 C 340.912,211.808 339.579,216.808 337.5,221.5C 338.079,216.174 339.413,211.174 341.5,206.5 Z"/></g>
<g><path style="opacity:1" fill="#989898" d="M 244.5,210.5 C 246.465,210.948 246.798,211.948 245.5,213.5C 244.614,212.675 244.281,211.675 244.5,210.5 Z"/></g>
<g><path style="opacity:1" fill="#a3a3a3" d="M 97.5,210.5 C 99.9732,210.947 100.14,211.947 98,213.5C 97.5172,212.552 97.3505,211.552 97.5,210.5 Z"/></g>
<g><path style="opacity:1" fill="#eeeeee" d="M 101.5,213.5 C 104.167,218.353 106.334,223.353 108,228.5C 106.027,227.36 104.193,226.027 102.5,224.5C 98.9661,226.934 95.2994,228.767 91.5,230C 89.9644,228.401 89.4644,226.567 90,224.5C 93.0823,222.375 96.2489,220.375 99.5,218.5C 100.322,216.861 100.989,215.195 101.5,213.5 Z"/></g>
<g><path style="opacity:1" fill="#f3f3f3" d="M 241.5,213.5 C 242.391,215.291 243.391,217.124 244.5,219C 247.667,220.833 250.833,222.667 254,224.5C 254.109,228.245 252.609,231.245 249.5,233.5C 245.905,231.898 242.571,229.898 239.5,227.5C 238.086,228.624 236.586,229.624 235,230.5C 234.833,230.167 234.667,229.833 234.5,229.5C 237.378,224.41 239.712,219.076 241.5,213.5 Z"/></g>
<g><path style="opacity:0.403" fill="#d4d4d4" d="M 3.5,209.5 C 6.66825,219.011 9.66825,228.678 12.5,238.5C 7.8163,229.453 4.8163,219.786 3.5,209.5 Z"/></g>
<g><path style="opacity:1" fill="#292929" d="M 255.5,208.5 C 260.126,207.7 263.96,209.034 267,212.5C 267.229,220.239 263.729,222.406 256.5,219C 252.935,215.784 252.602,212.284 255.5,208.5 Z"/></g>
<g><path style="opacity:1" fill="#efefef" d="M 255.5,210.5 C 260.315,209.52 263.982,211.02 266.5,215C 263.069,219.43 259.235,219.596 255,215.5C 254.36,213.735 254.527,212.068 255.5,210.5 Z"/></g>
<g><path style="opacity:1" fill="#1b1b1b" d="M 37.5,217.5 C 38.881,220.452 40.381,223.452 42,226.5C 44.2983,225.039 46.4649,223.372 48.5,221.5C 50.0186,224.044 51.352,226.711 52.5,229.5C 49.8929,230.318 47.2263,230.818 44.5,231C 44.0426,231.414 43.7093,231.914 43.5,232.5C 45.3868,235.153 46.8868,237.819 48,240.5C 45.6667,241.833 43.3333,243.167 41,244.5C 40.9154,240.529 39.9154,236.862 38,233.5C 35.0372,235.461 32.3706,237.794 30,240.5C 28.2589,237.691 27.0922,234.691 26.5,231.5C 30.0487,231.561 33.3821,230.727 36.5,229C 34.69,226.356 32.69,223.856 30.5,221.5C 33.0499,220.396 35.3832,219.063 37.5,217.5 Z"/></g>
<g><path style="opacity:1" fill="#1b1b1b" d="M 304.5,217.5 C 307.605,218.552 310.605,219.885 313.5,221.5C 311.31,223.856 309.31,226.356 307.5,229C 310.732,230.466 314.065,231.633 317.5,232.5C 316.608,235.284 315.442,237.95 314,240.5C 311.629,237.794 308.963,235.461 306,233.5C 304.085,236.862 303.085,240.529 303,244.5C 300.205,243.192 297.705,241.526 295.5,239.5C 297.412,237.343 299.079,235.009 300.5,232.5C 297.627,231.185 294.627,230.185 291.5,229.5C 292.392,226.716 293.558,224.05 295,221.5C 297.506,223.863 300.339,225.53 303.5,226.5C 304.159,223.545 304.492,220.545 304.5,217.5 Z"/></g>
<g><path style="opacity:0.218" fill="#dddddd" d="M 337.5,221.5 C 337.741,223.898 337.074,225.898 335.5,227.5C 335.595,225.214 336.262,223.214 337.5,221.5 Z"/></g>
<g><path style="opacity:1" fill="#ededed" d="M 100.5,228.5 C 106.373,235.552 111.706,243.052 116.5,251C 109.654,260.658 102.487,260.825 95,251.5C 91.97,247.302 89.1367,242.968 86.5,238.5C 91.1959,235.157 95.8626,231.824 100.5,228.5 Z"/></g>
<g><path style="opacity:1" fill="#343434" d="M 98.5,250.5 C 93.7763,247.785 93.1097,244.618 96.5,241C 94.5665,240.217 93.0665,240.717 92,242.5C 90.9783,241.646 90.1449,240.646 89.5,239.5C 91.8857,239.324 94.5524,239.324 97.5,239.5C 98.031,236.763 98.8644,234.096 100,231.5C 101.022,232.354 101.855,233.354 102.5,234.5C 98.3885,237.57 98.7218,239.237 103.5,239.5C 103.915,235.939 104.915,236.106 106.5,240C 103.313,240.001 100.48,240.834 98,242.5C 97.5702,245.192 97.7369,247.859 98.5,250.5 Z"/></g>
<g><path style="opacity:1" fill="#c5c5c5" d="M 106.5,230.5 C 109.016,231.6 110.016,233.267 109.5,235.5C 108.048,234.06 107.048,232.394 106.5,230.5 Z"/></g>
<g><path style="opacity:1" fill="#f7f7f7" d="M 240.5,231.5 C 244.783,233.943 248.95,236.61 253,239.5C 249.047,251.037 240.881,255.537 228.5,253C 227.167,252.333 225.833,251.667 224.5,251C 230.917,245.297 236.251,238.797 240.5,231.5 Z"/></g>
<g><path style="opacity:1" fill="#d1d1d1" d="M 233.5,233.5 C 235.337,233.639 235.67,234.306 234.5,235.5C 233.702,235.043 233.369,234.376 233.5,233.5 Z"/></g>
<g><path style="opacity:0.757" fill="#cecece" d="M 331.5,238.5 C 331.293,241.241 330.293,243.574 328.5,245.5C 328.707,242.759 329.707,240.426 331.5,238.5 Z"/></g>
<g><path style="opacity:0.843" fill="#dddddd" d="M 12.5,238.5 C 14.6246,241.088 15.9579,244.088 16.5,247.5C 14.3754,244.912 13.0421,241.912 12.5,238.5 Z"/></g>
<g><path style="opacity:1" fill="#2f2f2f" d="M 98.5,250.5 C 100.368,251.757 102.035,251.424 103.5,249.5C 102.91,248.201 101.91,247.368 100.5,247C 103.534,243.27 105.034,243.77 105,248.5C 109.619,246.182 109.452,244.015 104.5,242C 107.826,241.685 110.159,243.185 111.5,246.5C 107.771,248.94 104.605,251.94 102,255.5C 100.198,254.211 99.0312,252.544 98.5,250.5 Z"/></g>
<g><path style="opacity:0.384" fill="#e6e6e6" d="M 18.5,251.5 C 20.9236,254.008 22.5903,257.008 23.5,260.5C 21.0764,257.992 19.4097,254.992 18.5,251.5 Z"/></g>
<g><path style="opacity:0.043" fill="#e6e6e6" d="M 322.5,257.5 C 322.573,259.027 321.906,260.027 320.5,260.5C 320.427,258.973 321.094,257.973 322.5,257.5 Z"/></g>
<g><path style="opacity:0.071" fill="#e7e7e7" d="M 319.5,262.5 C 319.573,264.027 318.906,265.027 317.5,265.5C 317.427,263.973 318.094,262.973 319.5,262.5 Z"/></g>
<g><path style="opacity:0.871" fill="#dedede" d="M 23.5,260.5 C 28.2167,266.554 32.55,272.887 36.5,279.5C 31.002,273.995 26.6686,267.662 23.5,260.5 Z"/></g>
<g><path style="opacity:0.129" fill="#e0e0e0" d="M 317.5,265.5 C 317.573,267.027 316.906,268.027 315.5,268.5C 315.427,266.973 316.094,265.973 317.5,265.5 Z"/></g>
<g><path style="opacity:0.176" fill="#e0e0e0" d="M 315.5,268.5 C 315.573,270.027 314.906,271.027 313.5,271.5C 313.427,269.973 314.094,268.973 315.5,268.5 Z"/></g>
<g><path style="opacity:0.071" fill="#eaeaea" d="M 313.5,271.5 C 313.573,273.027 312.906,274.027 311.5,274.5C 311.427,272.973 312.094,271.973 313.5,271.5 Z"/></g>
<g><path style="opacity:1" fill="#1e1e1e" d="M 86.5,274.5 C 86.8966,273.475 87.5632,273.308 88.5,274C 90.6471,276.237 92.9804,278.237 95.5,280C 93.1517,280.11 91.6517,281.277 91,283.5C 88.8355,288.802 87.6689,294.135 87.5,299.5C 92.585,296.876 97.4183,293.876 102,290.5C 102.179,288.576 102.346,286.909 102.5,285.5C 104.909,286.701 106.909,288.367 108.5,290.5C 99.3795,294.894 90.3795,299.561 81.5,304.5C 81.1667,303.833 80.8333,303.167 80.5,302.5C 83.2722,294.149 85.6055,285.649 87.5,277C 87.472,275.93 87.1386,275.097 86.5,274.5 Z"/></g>
<g><path style="opacity:0.161" fill="#ebebeb" d="M 311.5,274.5 C 311.262,276.404 310.262,277.738 308.5,278.5C 308.738,276.596 309.738,275.262 311.5,274.5 Z"/></g>
<g><path style="opacity:0.467" fill="#e6e6e6" d="M 36.5,279.5 C 38.914,280.911 40.5806,282.911 41.5,285.5C 39.086,284.089 37.4194,282.089 36.5,279.5 Z"/></g>
<g><path style="opacity:1" fill="#212121" d="M 246.5,280.5 C 255.14,285.154 263.806,289.821 272.5,294.5C 273.609,293.41 274.609,293.41 275.5,294.5C 272.319,296.592 269.319,298.925 266.5,301.5C 266.976,297.765 265.143,295.432 261,294.5C 254.861,296.2 253.028,299.7 255.5,305C 257.167,305.333 258.833,305.667 260.5,306C 258.167,307.833 255.833,309.667 253.5,311.5C 251.72,301.35 249.386,291.016 246.5,280.5 Z"/></g>
<g><path style="opacity:0.239" fill="#e9e9e9" d="M 307.5,279.5 C 307.262,281.404 306.262,282.738 304.5,283.5C 304.738,281.596 305.738,280.262 307.5,279.5 Z"/></g>
<g><path style="opacity:1" fill="#ebebeb" d="M 250.5,288.5 C 253.303,289.067 255.636,290.4 257.5,292.5C 256.315,295.269 254.482,296.269 252,295.5C 251.56,293.134 251.06,290.801 250.5,288.5 Z"/></g>
<g><path style="opacity:0.314" fill="#e6e6e6" d="M 302.5,285.5 C 300.906,288.764 298.573,291.431 295.5,293.5C 297.094,290.236 299.427,287.569 302.5,285.5 Z"/></g>
<g><path style="opacity:1" fill="#1e1e1e" d="M 232.5,290.5 C 235.363,297.561 239.03,304.895 243.5,312.5C 245.078,313.298 246.744,313.798 248.5,314C 245.415,315.96 242.248,317.793 239,319.5C 239.195,317.874 239.195,316.207 239,314.5C 235.745,308.992 232.745,303.325 230,297.5C 228.175,296.897 226.341,296.23 224.5,295.5C 227.231,293.808 229.898,292.142 232.5,290.5 Z"/></g>
<g><path style="opacity:1" fill="#222222" d="M 115.5,292.5 C 115.999,303.173 115.999,313.84 115.5,324.5C 112.415,322.756 109.415,320.922 106.5,319C 107.766,318.691 108.933,318.191 110,317.5C 111.198,310.831 108.364,307.664 101.5,308C 97.7795,309.714 97.1128,312.047 99.5,315C 96.6912,314.616 94.0245,313.616 91.5,312C 99.9786,306.015 107.979,299.515 115.5,292.5 Z"/></g>
<g><path style="opacity:1" fill="#252525" d="M 127.5,298.5 C 131.251,299.481 134.917,300.647 138.5,302C 135.667,302.167 134.167,303.667 134,306.5C 132.509,313.125 131.343,319.792 130.5,326.5C 133.518,326.665 136.518,326.498 139.5,326C 144.384,323.255 144.717,324.255 140.5,329C 133.861,329.591 127.528,328.425 121.5,325.5C 124.229,324.938 125.729,323.272 126,320.5C 126.929,314.951 128.096,309.451 129.5,304C 129.046,302.061 128.379,300.228 127.5,298.5 Z"/></g>
<g><path style="opacity:1" fill="#e9e9e9" d="M 110.5,299.5 C 111.803,302.355 111.803,305.355 110.5,308.5C 108.336,307.586 106.336,306.419 104.5,305C 106.396,302.932 108.396,301.099 110.5,299.5 Z"/></g>
<g><path style="opacity:1" fill="#1e1e1e" d="M 221.5,297.5 C 222.376,297.369 223.043,297.702 223.5,298.5C 224.601,300.642 225.601,302.808 226.5,305C 223.945,303.862 221.278,302.529 218.5,301C 209.339,300.171 205.839,304.338 208,313.5C 210.857,321.844 216.357,324.678 224.5,322C 226.617,320.269 228.117,318.102 229,315.5C 228.981,321.214 226.147,325.047 220.5,327C 211.493,328.341 205.993,324.507 204,315.5C 202.491,309.716 203.991,304.883 208.5,301C 212.809,299.27 217.142,298.103 221.5,297.5 Z"/></g>
<g><path style="opacity:0.44" fill="#eaeaea" d="M 41.5,285.5 C 49.5265,293.194 57.5265,300.861 65.5,308.5C 56.2077,302.208 48.2077,294.542 41.5,285.5 Z"/></g>
<g><path style="opacity:1" fill="#1c1c1c" d="M 148.5,303.5 C 154.789,304.372 161.122,304.705 167.5,304.5C 167.663,306.857 167.497,309.19 167,311.5C 166.727,309.671 165.893,308.171 164.5,307C 161.854,306.503 159.187,306.336 156.5,306.5C 156.5,309.833 156.5,313.167 156.5,316.5C 159.652,317.041 162.152,316.041 164,313.5C 164.667,316.833 164.667,320.167 164,323.5C 162.937,319.045 160.104,317.379 155.5,318.5C 155.207,322.437 155.54,326.27 156.5,330C 161.345,331.163 165.179,329.663 168,325.5C 168.176,331.142 165.342,333.476 159.5,332.5C 155.386,332.481 151.386,331.814 147.5,330.5C 148.325,329.614 149.325,329.281 150.5,329.5C 151.31,321.845 151.477,314.178 151,306.5C 149.583,305.922 148.75,304.922 148.5,303.5 Z"/></g>
<g><path style="opacity:1" fill="#242424" d="M 190.5,303.5 C 193.518,303.335 196.518,303.502 199.5,304C 197.993,305.473 197.326,307.307 197.5,309.5C 198.874,316.835 199.207,324.168 198.5,331.5C 191.817,324.983 184.984,318.65 178,312.5C 177.814,317.84 178.148,323.174 179,328.5C 180.008,330.259 181.508,331.426 183.5,332C 180.628,332.315 177.795,332.815 175,333.5C 174.5,333.167 174,332.833 173.5,332.5C 175.873,331.45 176.873,329.617 176.5,327C 175.847,321.515 175.347,316.015 175,310.5C 174.209,308.396 172.709,307.063 170.5,306.5C 173.089,304.843 175.756,304.509 178.5,305.5C 184.485,310.985 190.319,316.652 196,322.5C 196.003,317.513 195.669,312.513 195,307.5C 193.141,306.421 191.641,305.088 190.5,303.5 Z"/></g>
<g><path style="opacity:0.008" fill="#eeeeee" d="M 293.5,295.5 C 290.769,299.234 287.436,302.234 283.5,304.5C 286.231,300.766 289.564,297.766 293.5,295.5 Z"/></g>
<g><path style="opacity:0.086" fill="#efefef" d="M 283.5,304.5 C 282.415,306.587 280.749,307.92 278.5,308.5C 279.585,306.413 281.251,305.08 283.5,304.5 Z"/></g>
<g><path style="opacity:0.459" fill="#e8e8e8" d="M 278.5,308.5 C 276.557,311.471 273.891,313.471 270.5,314.5C 272.8,312.016 275.467,310.016 278.5,308.5 Z"/></g>
<g><path style="opacity:0.255" fill="#f3f3f3" d="M 270.5,314.5 C 270.027,315.906 269.027,316.573 267.5,316.5C 267.973,315.094 268.973,314.427 270.5,314.5 Z"/></g>
<g><path style="opacity:0.2" fill="#f3f3f3" d="M 267.5,316.5 C 267.027,317.906 266.027,318.573 264.5,318.5C 264.973,317.094 265.973,316.427 267.5,316.5 Z"/></g>
<g><path style="opacity:0.324" fill="#e8e8e8" d="M 264.5,318.5 C 260.493,322.174 255.827,324.841 250.5,326.5C 254.833,323.331 259.5,320.664 264.5,318.5 Z"/></g>
<g><path style="opacity:0.502" fill="#e9e9e9" d="M 65.5,308.5 C 122.761,349.246 183.761,355.579 248.5,327.5C 241.091,332.037 233.091,335.537 224.5,338C 213.214,341.354 201.881,343.854 190.5,345.5C 178.167,345.5 165.833,345.5 153.5,345.5C 120.472,341.72 91.1392,329.387 65.5,308.5 Z"/></g>
</svg>
