<?xml version="1.0" encoding="UTF-8" standalone="no"?>
<!-- Created with Inkscape (http://www.inkscape.org/) -->

<svg
   xmlns:dc="http://purl.org/dc/elements/1.1/"
   xmlns:cc="http://creativecommons.org/ns#"
   xmlns:rdf="http://www.w3.org/1999/02/22-rdf-syntax-ns#"
   xmlns:svg="http://www.w3.org/2000/svg"
   xmlns="http://www.w3.org/2000/svg"
   xmlns:sodipodi="http://sodipodi.sourceforge.net/DTD/sodipodi-0.dtd"
   xmlns:inkscape="http://www.inkscape.org/namespaces/inkscape"
   width="210mm"
   height="297mm"
   viewBox="0 0 210 297"
   version="1.1"
   id="svg8504"
   inkscape:version="0.92.3 (2405546, 2018-03-11)"
   sodipodi:docname="ytu logo svg.svg">
  <defs
     id="defs8498" />
  <sodipodi:namedview
     id="base"
     pagecolor="#ffffff"
     bordercolor="#666666"
     borderopacity="1.0"
     inkscape:pageopacity="0.0"
     inkscape:pageshadow="2"
     inkscape:zoom="0.49497475"
     inkscape:cx="191.05969"
     inkscape:cy="737.53764"
     inkscape:document-units="mm"
     inkscape:current-layer="layer1"
     showgrid="false"
     inkscape:window-width="1366"
     inkscape:window-height="716"
     inkscape:window-x="-8"
     inkscape:window-y="-8"
     inkscape:window-maximized="1" />
  <metadata
     id="metadata8501">
    <rdf:RDF>
      <cc:Work
         rdf:about="">
        <dc:format>image/svg+xml</dc:format>
        <dc:type
           rdf:resource="http://purl.org/dc/dcmitype/StillImage" />
        <dc:title></dc:title>
      </cc:Work>
    </rdf:RDF>
  </metadata>
  <g
     inkscape:label="Layer 1"
     inkscape:groupmode="layer"
     id="layer1">
    <circle
       r="97.692375"
       cy="107.50591"
       cx="106.106"
       id="circle8307"
       style="opacity:1;fill:#ffffff;fill-opacity:1;stroke:#a29062;stroke-width:3.1937921;stroke-linecap:round;stroke-miterlimit:4;stroke-dasharray:none;stroke-opacity:1"
       inkscape:export-xdpi="300.05429"
       inkscape:export-ydpi="300.05429" />
    <circle
       r="75.232742"
       cy="107.50591"
       cx="106.106"
       id="circle8470"
       style="opacity:1;fill:#272262;fill-opacity:1;stroke:#a29062;stroke-width:3.1937921;stroke-linecap:round;stroke-miterlimit:4;stroke-dasharray:none;stroke-opacity:1"
       inkscape:export-xdpi="300.05429"
       inkscape:export-ydpi="300.05429" />
    <g
       id="layer1-3"
       transform="matrix(1.6623529,0,0,1.6620636,-956.38437,-484.71217)"
       style="stroke:#a29062;stroke-width:0.96070755;stroke-opacity:1"
       inkscape:export-xdpi="300.05429"
       inkscape:export-ydpi="300.05429">
      <path
         style="fill:none;stroke:#a29062;stroke-width:2.40176892;stroke-miterlimit:4;stroke-dasharray:none;stroke-opacity:1"
         d="m 638.89114,314.04052 -6.74791,20.92637 7.2099,5.24206 6.54844,-4.75475 z m 7.01043,21.41368 2.53886,7.75509 8.91418,-0.0197 6.83525,-21.01319 z m 11.45304,7.73544 -2.65874,8.17419 6.59908,4.79764 17.83768,-13.02041 z m 3.94034,12.97183 -6.95307,5.07513 2.67425,8.16798 22.50406,0.007 z m -4.27882,13.24311 -8.18761,-0.003 -2.66237,8.18555 17.72502,12.81832 z m -10.84998,8.18298 -7.14531,-5.16713 -6.61302,4.82709 6.92671,21.34184 z m -13.75833,-0.34004 -2.54818,-7.8512 -8.81806,-0.003 -6.81146,21.12222 z m -11.36624,-7.85379 2.60811,-8.08892 -6.68899,-4.83743 -17.79375,12.91913 z m -4.08088,-12.92635 7.04297,-5.11336 -2.62411,-8.0848 -22.59966,0.0501 z m 4.41886,-13.19816 8.09199,-0.0181 2.67168,-8.28426 -17.61495,-12.80644 z"
         id="polygon51078-6-7"
         inkscape:connector-curvature="0" />
    </g>
    <circle
       style="opacity:1;fill:none;fill-opacity:1;stroke:#a29062;stroke-width:3.1937921;stroke-linecap:round;stroke-miterlimit:4;stroke-dasharray:none;stroke-opacity:1"
       id="path8305"
       cx="106.106"
       cy="107.50591"
       r="75.232742"
       inkscape:export-xdpi="300.05429"
       inkscape:export-ydpi="300.05429" />
    <g
       aria-label="YILDIZ TEKNİK ÜNİVERSİTESİ"
       style="font-style:normal;font-weight:normal;font-size:9.41890144px;line-height:1.25;font-family:sans-serif;letter-spacing:0px;word-spacing:0px;fill:#272262;fill-opacity:1;stroke:#a29062;stroke-width:0.26458332;stroke-opacity:1"
       id="text8311"
       transform="matrix(1.5968961,0,0,1.5968961,-371.91431,-438.02647)"
       inkscape:export-xdpi="300"
       inkscape:export-ydpi="300">
      <g
         id="g8496"
         transform="translate(0,0.52916667)">
        <path
           inkscape:export-ydpi="300.05429"
           inkscape:export-xdpi="300.05429"
           inkscape:connector-curvature="0"
           id="path8327"
           style="font-style:normal;font-variant:normal;font-weight:600;font-stretch:normal;font-family:'Open Sans';-inkscape-font-specification:'Open Sans Semi-Bold';fill:#272262;fill-opacity:1;stroke:none;stroke-width:0.26458332;stroke-opacity:1"
           d="m 247.74153,324.88098 -2.41366,-2.47315 0.37506,-1.13542 3.20593,3.4178 2.47608,0.81792 -0.34621,1.04808 -2.44114,-0.80638 -4.64302,0.81536 0.37506,-1.13541 z" />
        <path
           inkscape:export-ydpi="300.05429"
           inkscape:export-xdpi="300.05429"
           inkscape:connector-curvature="0"
           id="path8329"
           style="font-style:normal;font-variant:normal;font-weight:600;font-stretch:normal;font-family:'Open Sans';-inkscape-font-specification:'Open Sans Semi-Bold';fill:#272262;fill-opacity:1;stroke:none;stroke-width:0.26458332;stroke-opacity:1"
           d="m 252.486,322.58146 -6.19053,-2.62437 0.42901,-1.012 6.19054,2.62438 z" />
        <path
           inkscape:export-ydpi="300.05429"
           inkscape:export-xdpi="300.05429"
           inkscape:connector-curvature="0"
           id="path8331"
           style="font-style:normal;font-variant:normal;font-weight:600;font-stretch:normal;font-family:'Open Sans';-inkscape-font-specification:'Open Sans Semi-Bold';fill:#272262;fill-opacity:1;stroke:none;stroke-width:0.26458332;stroke-opacity:1"
           d="m 253.62993,319.94811 -5.96671,-3.09975 0.50673,-0.97541 5.13007,2.66511 1.31241,-2.52626 0.83664,0.43464 z" />
        <path
           inkscape:export-ydpi="300.05429"
           inkscape:export-xdpi="300.05429"
           inkscape:connector-curvature="0"
           id="path8333"
           style="font-style:normal;font-variant:normal;font-weight:600;font-stretch:normal;font-family:'Open Sans';-inkscape-font-specification:'Open Sans Semi-Bold';fill:#272262;fill-opacity:1;stroke:none;stroke-width:0.26458332;stroke-opacity:1"
           d="m 256.27792,308.98171 q 1.37658,0.93637 1.58679,2.19735 0.2064,1.2584 -0.77136,2.69583 l -1.05795,1.55531 -5.55957,-3.7817 1.16917,-1.71883 q 0.90275,-1.32715 2.11947,-1.57858 1.21673,-0.25144 2.51345,0.63062 z m -0.62142,0.97897 q -1.99642,-1.35799 -3.26647,0.50914 l -0.53544,0.78716 4.03468,2.74445 0.43973,-0.64646 q 1.36576,-2.00784 -0.6725,-3.39429 z" />
        <path
           inkscape:export-ydpi="300.05429"
           inkscape:export-xdpi="300.05429"
           inkscape:connector-curvature="0"
           id="path8335"
           style="font-style:normal;font-variant:normal;font-weight:600;font-stretch:normal;font-family:'Open Sans';-inkscape-font-specification:'Open Sans Semi-Bold';fill:#272262;fill-opacity:1;stroke:none;stroke-width:0.26458332;stroke-opacity:1"
           d="m 260.07389,309.81769 -5.17113,-4.29761 0.70255,-0.84535 5.17113,4.29761 z" />
        <path
           inkscape:export-ydpi="300.05429"
           inkscape:export-xdpi="300.05429"
           inkscape:connector-curvature="0"
           id="path8337"
           style="font-style:normal;font-variant:normal;font-weight:600;font-stretch:normal;font-family:'Open Sans';-inkscape-font-specification:'Open Sans Semi-Bold';fill:#272262;fill-opacity:1;stroke:none;stroke-width:0.26458332;stroke-opacity:1"
           d="m 264.88087,304.60171 -3.36462,3.43824 -0.54565,-0.53396 -1.21549,-5.93191 -2.30634,2.35681 -0.67384,-0.65942 3.23595,-3.30676 0.55222,0.54039 1.19927,5.93535 2.44465,-2.49816 z" />
        <path
           inkscape:export-ydpi="300.05429"
           inkscape:export-xdpi="300.05429"
           inkscape:connector-curvature="0"
           id="path8339"
           style="font-style:normal;font-variant:normal;font-weight:600;font-stretch:normal;font-family:'Open Sans';-inkscape-font-specification:'Open Sans Semi-Bold';fill:#272262;fill-opacity:1;stroke:none;stroke-width:0.26458332;stroke-opacity:1"
           d="m 269.51544,300.83589 -0.87915,0.65976 -3.46996,-4.62382 -1.58174,1.18702 -0.5659,-0.75409 4.04262,-3.0338 0.56591,0.75409 -1.58174,1.18702 z" />
        <path
           inkscape:export-ydpi="300.05429"
           inkscape:export-xdpi="300.05429"
           inkscape:connector-curvature="0"
           id="path8341"
           style="font-style:normal;font-variant:normal;font-weight:600;font-stretch:normal;font-family:'Open Sans';-inkscape-font-specification:'Open Sans Semi-Bold';fill:#272262;fill-opacity:1;stroke:none;stroke-width:0.26458332;stroke-opacity:1"
           d="m 275.24102,297.14368 -3.26025,1.95879 -3.46282,-5.76359 3.26026,-1.95879 0.47844,0.79634 -2.31805,1.3927 0.94268,1.56903 2.17219,-1.30507 0.47371,0.78845 -2.17219,1.30507 1.08716,1.8095 2.31806,-1.39271 z" />
        <path
           inkscape:export-ydpi="300.05429"
           inkscape:export-xdpi="300.05429"
           inkscape:connector-curvature="0"
           id="path8343"
           style="font-style:normal;font-variant:normal;font-weight:600;font-stretch:normal;font-family:'Open Sans';-inkscape-font-specification:'Open Sans Semi-Bold';fill:#272262;fill-opacity:1;stroke:none;stroke-width:0.26458332;stroke-opacity:1"
           d="m 281.19309,294.31024 -1.15708,0.53301 -3.19116,-1.88208 -0.3677,0.75169 1.05255,2.28492 -0.99835,0.45989 -2.8132,-6.10704 0.99834,-0.45989 1.34311,2.91567 q 0.17846,-0.68983 0.37005,-1.34015 l 0.75138,-2.71081 1.13619,-0.52339 q -0.73396,2.61671 -1.05984,3.73397 z" />
        <path
           inkscape:export-ydpi="300.05429"
           inkscape:export-xdpi="300.05429"
           inkscape:connector-curvature="0"
           id="path8345"
           style="font-style:normal;font-variant:normal;font-weight:600;font-stretch:normal;font-family:'Open Sans';-inkscape-font-specification:'Open Sans Semi-Bold';fill:#272262;fill-opacity:1;stroke:none;stroke-width:0.26458332;stroke-opacity:1"
           d="m 287.37839,292.34023 -1.28676,0.4001 -4.74844,-4.13451 -0.0351,0.0109 0.11071,0.27863 q 0.31547,0.79773 0.52576,1.47405 l 1.03779,3.33768 -0.95299,0.29631 -1.99638,-6.42063 1.27358,-0.396 4.73147,4.11088 0.0263,-0.008 q -0.0402,-0.0983 -0.26318,-0.72249 -0.22435,-0.6286 -0.33495,-0.98432 l -1.04598,-3.36403 0.96177,-0.29905 z" />
        <path
           inkscape:export-ydpi="300.05429"
           inkscape:export-xdpi="300.05429"
           inkscape:connector-curvature="0"
           id="path8347"
           style="font-style:normal;font-variant:normal;font-weight:600;font-stretch:normal;font-family:'Open Sans';-inkscape-font-specification:'Open Sans Semi-Bold';fill:#272262;fill-opacity:1;stroke:none;stroke-width:0.26458332;stroke-opacity:1"
           d="m 289.1278,292.00692 -1.34506,-6.58794 1.07696,-0.21988 1.34506,6.58793 z m -1.66115,-7.81424 q -0.058,-0.28389 0.064,-0.46837 0.12643,-0.18541 0.41482,-0.24429 0.27938,-0.057 0.46387,0.0649 0.189,0.12101 0.24696,0.4049 0.0552,0.27036 -0.0703,0.46028 -0.12192,0.18449 -0.4013,0.24153 -0.28839,0.0589 -0.47739,-0.0621 -0.18541,-0.12643 -0.24061,-0.3968 z" />
        <path
           inkscape:export-ydpi="300.05429"
           inkscape:export-xdpi="300.05429"
           inkscape:connector-curvature="0"
           id="path8349"
           style="font-style:normal;font-variant:normal;font-weight:600;font-stretch:normal;font-family:'Open Sans';-inkscape-font-specification:'Open Sans Semi-Bold';fill:#272262;fill-opacity:1;stroke:none;stroke-width:0.26458332;stroke-opacity:1"
           d="m 297.04288,290.85575 -1.26564,0.14525 -2.44433,-2.78405 -0.58394,0.59938 0.28682,2.49929 -1.09201,0.12532 -0.76661,-6.68 1.09201,-0.12532 0.366,3.18922 q 0.38485,-0.59968 0.76984,-1.15771 l 1.55991,-2.34088 1.2428,-0.14263 q -1.514,2.25692 -2.17231,3.21666 z" />
        <path
           inkscape:export-ydpi="300.05429"
           inkscape:export-xdpi="300.05429"
           inkscape:connector-curvature="0"
           id="path8351"
           style="font-style:normal;font-variant:normal;font-weight:600;font-stretch:normal;font-family:'Open Sans';-inkscape-font-specification:'Open Sans Semi-Bold';fill:#272262;fill-opacity:1;stroke:none;stroke-width:0.26458332;stroke-opacity:1"
           d="m 306.05654,284.41645 -0.26751,4.34249 q -0.0458,0.74364 -0.40163,1.28387 -0.35095,0.53593 -0.97555,0.80156 -0.61972,0.26133 -1.45975,0.20959 -1.24858,-0.0769 -1.90101,-0.78063 -0.65243,-0.70372 -0.58116,-1.86049 l 0.26637,-4.32413 1.10169,0.0679 -0.26157,4.24609 q -0.0512,0.83086 0.31009,1.24938 0.36127,0.41853 1.16,0.46773 1.55154,0.0956 1.65193,-1.534 l 0.26101,-4.23691 z m -4.02602,-1.51516 q 0.0175,-0.2846 0.17665,-0.39921 0.16399,-0.11891 0.38433,-0.10534 0.24328,0.015 0.37682,0.16606 0.13813,0.15135 0.12257,0.40382 -0.015,0.24329 -0.17093,0.38113 -0.15594,0.13784 -0.39464,0.12314 -0.22033,-0.0136 -0.36821,-0.15631 -0.14328,-0.14245 -0.12659,-0.41329 z m 1.80401,0.11114 q 0.0175,-0.28461 0.17665,-0.39921 0.16399,-0.11892 0.38433,-0.10535 0.24329,0.015 0.38142,0.16634 0.13812,0.15135 0.12257,0.40382 -0.0153,0.24788 -0.1758,0.38544 -0.16025,0.13297 -0.39436,0.11855 -0.22034,-0.0136 -0.36821,-0.15631 -0.14328,-0.14245 -0.1266,-0.41328 z" />
        <path
           inkscape:export-ydpi="300.05429"
           inkscape:export-xdpi="300.05429"
           inkscape:connector-curvature="0"
           id="path8353"
           style="font-style:normal;font-variant:normal;font-weight:600;font-stretch:normal;font-family:'Open Sans';-inkscape-font-specification:'Open Sans Semi-Bold';fill:#272262;fill-opacity:1;stroke:none;stroke-width:0.26458332;stroke-opacity:1"
           d="m 312.84516,292.46707 -1.32028,-0.26959 -2.16798,-5.91114 -0.036,-0.007 -0.0373,0.29749 q -0.10805,0.85102 -0.24974,1.54496 l -0.69927,3.42463 -0.97782,-0.19966 1.34517,-6.58791 1.30677,0.26682 2.16448,5.88227 0.027,0.006 q 0.0122,-0.10548 0.11761,-0.75987 0.10637,-0.65891 0.1809,-1.0239 l 0.70479,-3.45167 0.98683,0.2015 z" />
        <path
           inkscape:export-ydpi="300.05429"
           inkscape:export-xdpi="300.05429"
           inkscape:connector-curvature="0"
           id="path8355"
           style="font-style:normal;font-variant:normal;font-weight:600;font-stretch:normal;font-family:'Open Sans';-inkscape-font-specification:'Open Sans Semi-Bold';fill:#272262;fill-opacity:1;stroke:none;stroke-width:0.26458332;stroke-opacity:1"
           d="m 314.53941,293.01595 1.98642,-6.42372 1.05011,0.32473 -1.98642,6.42372 z m 2.29855,-7.65104 q 0.0856,-0.2768 0.28118,-0.38 0.19998,-0.10183 0.48118,-0.0149 0.27242,0.0842 0.37561,0.27983 0.10759,0.19694 0.022,0.47375 -0.0815,0.26363 -0.28286,0.36986 -0.19559,0.10319 -0.468,0.0189 -0.2812,-0.087 -0.38879,-0.2839 -0.10184,-0.19998 -0.0203,-0.46361 z" />
        <path
           inkscape:export-ydpi="300.05429"
           inkscape:export-xdpi="300.05429"
           inkscape:connector-curvature="0"
           id="path8357"
           style="font-style:normal;font-variant:normal;font-weight:600;font-stretch:normal;font-family:'Open Sans';-inkscape-font-specification:'Open Sans Semi-Bold';fill:#272262;fill-opacity:1;stroke:none;stroke-width:0.26458332;stroke-opacity:1"
           d="m 323.35379,289.07971 1.05726,0.4279 -4.70529,5.3493 -1.07431,-0.4348 0.34836,-7.11268 1.04873,0.42445 -0.26815,4.40145 q -0.01,0.31852 -0.0724,0.80421 -0.0609,0.48142 -0.11305,0.70838 0.18655,-0.30156 0.4742,-0.68129 0.28765,-0.37973 0.44294,-0.55503 z" />
        <path
           inkscape:export-ydpi="300.05429"
           inkscape:export-xdpi="300.05429"
           inkscape:connector-curvature="0"
           id="path8359"
           style="font-style:normal;font-variant:normal;font-weight:600;font-stretch:normal;font-family:'Open Sans';-inkscape-font-specification:'Open Sans Semi-Bold';fill:#272262;fill-opacity:1;stroke:none;stroke-width:0.26458332;stroke-opacity:1"
           d="m 326.02664,297.98256 -3.34968,-1.80159 3.18492,-5.92169 3.34968,1.80159 -0.44005,0.81819 -2.38164,-1.28094 -0.86703,1.61206 2.23178,1.20033 -0.4357,0.81008 -2.23177,-1.20033 -0.99991,1.85913 2.38163,1.28094 z" />
        <path
           inkscape:export-ydpi="300.05429"
           inkscape:export-xdpi="300.05429"
           inkscape:connector-curvature="0"
           id="path8361"
           style="font-style:normal;font-variant:normal;font-weight:600;font-stretch:normal;font-family:'Open Sans';-inkscape-font-specification:'Open Sans Semi-Bold';fill:#272262;fill-opacity:1;stroke:none;stroke-width:0.26458332;stroke-opacity:1"
           d="m 330.22307,296.407 0.62826,0.43376 q 0.63204,0.43636 1.07789,0.39769 0.44586,-0.0387 0.76464,-0.50041 0.32401,-0.4693 0.15855,-0.88533 -0.16546,-0.41602 -0.78236,-0.84194 l -0.59798,-0.41285 z m -0.51737,0.74937 -1.52598,2.21026 -0.90454,-0.6245 3.82017,-5.53321 1.56307,1.07916 q 1.07107,0.73947 1.30881,1.49601 0.23774,0.75654 -0.32143,1.56646 -0.71334,1.03322 -2.0913,0.73016 l -0.12752,3.52785 -1.02943,-0.71073 0.20133,-3.1248 z" />
        <path
           inkscape:export-ydpi="300.05429"
           inkscape:export-xdpi="300.05429"
           inkscape:connector-curvature="0"
           id="path8363"
           style="font-style:normal;font-variant:normal;font-weight:600;font-stretch:normal;font-family:'Open Sans';-inkscape-font-specification:'Open Sans Semi-Bold';fill:#272262;fill-opacity:1;stroke:none;stroke-width:0.26458332;stroke-opacity:1"
           d="m 336.28169,303.41841 q -0.58742,0.67766 -1.4118,0.63866 -0.82437,-0.039 -1.68622,-0.78608 -0.86185,-0.74707 -1.17897,-1.49062 l 0.6808,-0.78539 q 0.20594,0.46457 0.51382,0.89579 0.31136,0.43423 0.64846,0.72643 0.49347,0.42777 0.88898,0.44194 0.39898,0.0172 0.67311,-0.29906 0.24702,-0.28497 0.20326,-0.66982 -0.0437,-0.38486 -0.48297,-1.24033 -0.45103,-0.88397 -0.42271,-1.4924 0.0283,-0.60844 0.46814,-1.11582 0.55127,-0.63596 1.31934,-0.60924 0.76808,0.0267 1.52914,0.68644 0.72979,0.6326 1.17549,1.5789 l -0.85153,0.44871 q -0.43065,-0.87238 -0.96235,-1.33328 -0.40312,-0.34943 -0.76526,-0.35294 -0.35914,-0.007 -0.60916,0.28145 -0.17171,0.19809 -0.21182,0.41287 -0.0371,0.2113 0.0456,0.50209 0.0827,0.29079 0.40191,0.9266 0.35767,0.71783 0.44359,1.14532 0.0859,0.42749 -0.0124,0.78662 -0.0983,0.35912 -0.3965,0.70316 z" />
        <path
           inkscape:export-ydpi="300.05429"
           inkscape:export-xdpi="300.05429"
           inkscape:connector-curvature="0"
           id="path8365"
           style="font-style:normal;font-variant:normal;font-weight:600;font-stretch:normal;font-family:'Open Sans';-inkscape-font-specification:'Open Sans Semi-Bold';fill:#272262;fill-opacity:1;stroke:none;stroke-width:0.26458332;stroke-opacity:1"
           d="m 335.99854,305.74243 4.79036,-4.71832 0.77133,0.7831 -4.79036,4.71832 z m 5.64624,-5.6517 q 0.20643,-0.20332 0.42756,-0.20165 0.22436,0.005 0.4309,0.21466 0.2001,0.20315 0.19842,0.42428 0.002,0.22441 -0.20487,0.42773 -0.1966,0.19363 -0.42423,0.19191 -0.22113,-0.002 -0.42123,-0.20482 -0.20654,-0.2097 -0.2081,-0.43411 0.005,-0.22436 0.20155,-0.418 z" />
        <path
           inkscape:export-ydpi="300.05429"
           inkscape:export-xdpi="300.05429"
           inkscape:connector-curvature="0"
           id="path8367"
           style="font-style:normal;font-variant:normal;font-weight:600;font-stretch:normal;font-family:'Open Sans';-inkscape-font-specification:'Open Sans Semi-Bold';fill:#272262;fill-opacity:1;stroke:none;stroke-width:0.26458332;stroke-opacity:1"
           d="m 339.49021,309.58283 -0.70634,-0.84218 4.4294,-3.71494 -1.27082,-1.51523 0.72237,-0.60585 3.24799,3.87264 -0.72238,0.60586 -1.27082,-1.51523 z" />
        <path
           inkscape:export-ydpi="300.05429"
           inkscape:export-xdpi="300.05429"
           inkscape:connector-curvature="0"
           id="path8369"
           style="font-style:normal;font-variant:normal;font-weight:600;font-stretch:normal;font-family:'Open Sans';-inkscape-font-specification:'Open Sans Semi-Bold';fill:#272262;fill-opacity:1;stroke:none;stroke-width:0.26458332;stroke-opacity:1"
           d="m 343.4861,315.1007 -2.13184,-3.14982 5.56838,-3.76874 2.13183,3.14983 -0.76937,0.52071 -1.51574,-2.23953 -1.51587,1.02596 1.42036,2.09861 -0.76175,0.51556 -1.42036,-2.09861 -1.74821,1.1832 1.51574,2.23954 z" />
        <path
           inkscape:export-ydpi="300.05429"
           inkscape:export-xdpi="300.05429"
           inkscape:connector-curvature="0"
           id="path8371"
           style="font-style:normal;font-variant:normal;font-weight:600;font-stretch:normal;font-family:'Open Sans';-inkscape-font-specification:'Open Sans Semi-Bold';fill:#272262;fill-opacity:1;stroke:none;stroke-width:0.26458332;stroke-opacity:1"
           d="m 347.67212,318.90826 q -0.78973,0.42499 -1.54656,0.0959 -0.75684,-0.32912 -1.29734,-1.33349 -0.5405,-1.00437 -0.57301,-1.81207 l 0.91528,-0.49255 q 0.0276,0.50742 0.16234,1.01985 0.13693,0.51648 0.34834,0.90932 0.30948,0.57509 0.67419,0.72874 0.3669,0.1577 0.73544,-0.0406 0.33209,-0.17871 0.42781,-0.55403 0.0957,-0.37532 -0.0112,-1.33099 -0.10785,-0.98651 0.13463,-1.54527 0.24247,-0.55875 0.83375,-0.87694 0.74113,-0.39884 1.4497,-0.10119 0.70856,0.29764 1.18585,1.18456 0.45768,0.85048 0.53842,1.89336 l -0.95537,0.1172 q -0.0929,-0.96844 -0.42635,-1.58807 -0.25281,-0.46979 -0.59012,-0.60163 -0.33326,-0.13402 -0.6694,0.0469 -0.23085,0.12423 -0.34458,0.31078 -0.10969,0.18438 -0.13562,0.48558 -0.0259,0.3012 0.0468,1.00892 0.0795,0.79806 0.008,1.2282 -0.0714,0.43015 -0.2908,0.731 -0.21936,0.30084 -0.6203,0.5166 z" />
        <path
           inkscape:export-ydpi="300.05429"
           inkscape:export-xdpi="300.05429"
           inkscape:connector-curvature="0"
           id="path8373"
           style="font-style:normal;font-variant:normal;font-weight:600;font-stretch:normal;font-family:'Open Sans';-inkscape-font-specification:'Open Sans Semi-Bold';fill:#272262;fill-opacity:1;stroke:none;stroke-width:0.26458332;stroke-opacity:1"
           d="m 346.58346,320.97989 6.15159,-2.7144 0.44374,1.00563 -6.1516,2.7144 z m 7.28271,-3.28388 q 0.26508,-0.11697 0.47126,-0.037 0.20805,0.0841 0.32687,0.35343 0.11511,0.26088 0.0352,0.46706 -0.0781,0.21039 -0.34316,0.32736 -0.25246,0.1114 -0.46471,0.0291 -0.20619,-0.0799 -0.3213,-0.34081 -0.11882,-0.26929 -0.0408,-0.47969 0.0842,-0.20804 0.33661,-0.31944 z" />
      </g>
    </g>
    <text
       xml:space="preserve"
       style="font-style:normal;font-weight:normal;font-size:16.6776886px;line-height:1.25;font-family:sans-serif;letter-spacing:0px;word-spacing:0px;fill:#272262;fill-opacity:1;stroke:none;stroke-width:0.42251205"
       x="88.035812"
       y="199.55174"
       id="text8464"
       inkscape:export-xdpi="300.05429"
       inkscape:export-ydpi="300.05429"><tspan
         sodipodi:role="line"
         id="tspan8462"
         x="88.035812"
         y="199.55174"
         style="font-style:normal;font-variant:normal;font-weight:600;font-stretch:normal;font-family:'Open Sans';-inkscape-font-specification:'Open Sans Semi-Bold';fill:#272262;fill-opacity:1;stroke-width:0.42251205">1911</tspan></text>
  </g>
</svg>
