<?xml version="1.0" encoding="UTF-8"?>
<!DOCTYPE svg PUBLIC "-//W3C//DTD SVG 1.1//EN" "http://www.w3.org/Graphics/SVG/1.1/DTD/svg11.dtd">
<svg xmlns="http://www.w3.org/2000/svg" version="1.1" width="650px" height="390px" style="shape-rendering:geometricPrecision; text-rendering:geometricPrecision; image-rendering:optimizeQuality; fill-rule:evenodd; clip-rule:evenodd" xmlns:xlink="http://www.w3.org/1999/xlink">
<g><path style="opacity:1" fill="#fefefe" d="M -0.5,-0.5 C 216.167,-0.5 432.833,-0.5 649.5,-0.5C 649.5,129.5 649.5,259.5 649.5,389.5C 432.833,389.5 216.167,389.5 -0.5,389.5C -0.5,259.5 -0.5,129.5 -0.5,-0.5 Z"/></g>
<g><path style="opacity:1" fill="#696a65" d="M 375.5,183.5 C 371.443,182.29 367.443,180.957 363.5,179.5C 363.369,178.761 363.536,178.094 364,177.5C 368.333,178.692 372.167,180.692 375.5,183.5 Z"/></g>
<g><path style="opacity:1" fill="#e5e4df" d="M 363.5,179.5 C 367.443,180.957 371.443,182.29 375.5,183.5C 375.859,185.766 375.192,187.599 373.5,189C 374.737,189.232 375.737,189.732 376.5,190.5C 375.761,190.369 375.094,190.536 374.5,191C 375.576,192.726 375.743,194.559 375,196.5C 374.195,194.099 373.362,194.266 372.5,197C 371.255,197.791 369.922,198.291 368.5,198.5C 368.062,198.565 367.728,198.399 367.5,198C 369.303,197.363 370.636,196.197 371.5,194.5C 370.167,192.833 370.167,191.167 371.5,189.5C 369.936,187.397 367.936,186.564 365.5,187C 366.167,187.333 366.833,187.667 367.5,188C 366.263,188.232 365.263,188.732 364.5,189.5C 363.833,189.5 363.5,189.833 363.5,190.5C 360.394,193.827 361.061,196.327 365.5,198C 365.272,198.399 364.938,198.565 364.5,198.5C 361.325,198.16 359.159,196.493 358,193.5C 357.517,194.448 357.351,195.448 357.5,196.5C 355.856,196.714 354.356,196.38 353,195.5C 351.266,197.451 349.099,198.451 346.5,198.5C 353.265,194.092 353.099,190.092 346,186.5C 343.736,186.854 341.902,187.854 340.5,189.5C 341.833,191.167 341.833,192.833 340.5,194.5C 341.524,195.852 342.524,197.185 343.5,198.5C 340.937,198.269 339.27,196.935 338.5,194.5C 338.117,192.592 337.117,191.092 335.5,190C 336.737,189.768 337.737,189.268 338.5,188.5C 342.998,182.088 347.998,181.921 353.5,188C 358.256,188.293 361.922,186.293 364.5,182C 363.748,181.329 363.414,180.496 363.5,179.5 Z"/></g>
<g><path style="opacity:1" fill="#b0aca5" d="M 346.5,198.5 C 345.5,199.833 344.5,199.833 343.5,198.5C 342.524,197.185 341.524,195.852 340.5,194.5C 341.833,192.833 341.833,191.167 340.5,189.5C 341.902,187.854 343.736,186.854 346,186.5C 353.099,190.092 353.265,194.092 346.5,198.5 Z"/></g>
<g><path style="opacity:1" fill="#b9b8b1" d="M 380.5,194.5 C 378.227,194.043 376.894,192.71 376.5,190.5C 375.737,189.732 374.737,189.232 373.5,189C 375.192,187.599 375.859,185.766 375.5,183.5C 376.117,183.611 376.617,183.944 377,184.5C 377.333,183.167 377.667,181.833 378,180.5C 378.333,183.167 378.667,185.833 379,188.5C 382.214,183.661 386.38,182.494 391.5,185C 385.68,184.031 381.68,186.198 379.5,191.5C 380.127,192.417 380.461,193.417 380.5,194.5 Z"/></g>
<g><path style="opacity:1" fill="#bcbab1" d="M 454.5,197.5 C 451.981,195.359 451.981,193.359 454.5,191.5C 454.78,195.225 456.78,196.392 460.5,195C 461.544,189.994 459.544,188.494 454.5,190.5C 453.688,188.259 454.688,186.926 457.5,186.5C 463.721,188.085 465.055,191.585 461.5,197C 460.234,197.309 459.067,197.809 458,198.5C 456.989,197.663 455.822,197.33 454.5,197.5 Z"/></g>
<g><path style="opacity:1" fill="#c6c3bf" d="M 174.5,187.5 C 174.586,188.496 174.252,189.329 173.5,190C 134.168,189.784 94.8349,189.284 55.5,188.5C 55.9175,187.778 56.5842,187.278 57.5,187C 62.1667,186.833 66.8333,186.667 71.5,186.5C 105.858,188.689 140.191,189.022 174.5,187.5 Z"/></g>
<g><path style="opacity:1" fill="#e8e6e0" d="M 284.5,188.5 C 290.319,189.328 296.319,189.828 302.5,190C 296.833,190.333 291.167,190.667 285.5,191C 286.337,192.011 286.67,193.178 286.5,194.5C 286.167,194.5 285.833,194.5 285.5,194.5C 285.325,192.156 284.158,190.489 282,189.5C 281.601,189.728 281.435,190.062 281.5,190.5C 280.178,190.33 279.011,190.663 278,191.5C 257.24,190.673 236.406,190.173 215.5,190C 236.5,189.667 257.5,189.333 278.5,189C 256.996,188.832 235.663,188.332 214.5,187.5C 234.816,187.466 254.982,187.466 275,187.5C 275.667,186.833 276.333,186.167 277,185.5C 279.48,187.477 281.98,188.477 284.5,188.5 Z"/></g>
<g><path style="opacity:1" fill="#a0a19a" d="M 303.5,187.5 C 304.043,187.56 304.376,187.893 304.5,188.5C 303.82,189.86 303.153,191.193 302.5,192.5C 297.595,191.555 292.595,191.221 287.5,191.5C 287.5,193.167 287.5,194.833 287.5,196.5C 286.662,196.158 286.328,195.492 286.5,194.5C 286.67,193.178 286.337,192.011 285.5,191C 291.167,190.667 296.833,190.333 302.5,190C 296.319,189.828 290.319,189.328 284.5,188.5C 291.022,188.823 297.355,188.49 303.5,187.5 Z"/></g>
<g><path style="opacity:1" fill="#d4d5d3" d="M 338.5,188.5 C 337.737,189.268 336.737,189.768 335.5,190C 337.117,191.092 338.117,192.592 338.5,194.5C 337.5,194.833 336.833,195.5 336.5,196.5C 335.417,196.461 334.417,196.127 333.5,195.5C 328.8,199.49 324.133,199.49 319.5,195.5C 319.539,194.244 319.039,193.244 318,192.5C 317.781,193.938 317.281,195.271 316.5,196.5C 315.808,195.975 315.308,195.308 315,194.5C 311.958,197.082 308.958,197.082 306,194.5C 305.586,194.957 305.086,195.291 304.5,195.5C 303.824,194.398 303.158,193.398 302.5,192.5C 303.153,191.193 303.82,189.86 304.5,188.5C 304.376,187.893 304.043,187.56 303.5,187.5C 303.917,186.876 304.584,186.543 305.5,186.5C 309.731,188.081 314.064,188.581 318.5,188C 323.833,182 329.167,182 334.5,188C 335.793,188.49 337.127,188.657 338.5,188.5 Z"/></g>
<g><path style="opacity:1" fill="#13100c" d="M 342.5,189.5 C 346.73,188.831 348.563,190.498 348,194.5C 343.325,196.334 341.492,194.667 342.5,189.5 Z"/></g>
<g><path style="opacity:1" fill="#cecfcb" d="M 402.5,187.5 C 401.425,189.856 401.425,192.189 402.5,194.5C 403.646,187.43 407.312,185.43 413.5,188.5C 414.583,189.365 414.749,190.365 414,191.5C 413.667,190.833 413.333,190.167 413,189.5C 410.667,189.5 408.333,189.5 406,189.5C 404.163,193.111 405.33,195.444 409.5,196.5C 411.029,196.471 412.196,195.804 413,194.5C 413.464,195.094 413.631,195.761 413.5,196.5C 413.167,197.167 412.833,197.833 412.5,198.5C 409.763,198.599 407.096,198.265 404.5,197.5C 404.189,196.522 403.522,195.855 402.5,195.5C 399.833,196.833 397.167,196.833 394.5,195.5C 392.739,196.035 391.406,197.035 390.5,198.5C 387.579,198.717 384.913,198.051 382.5,196.5C 382.5,196.167 382.5,195.833 382.5,195.5C 380.839,188.66 383.506,185.826 390.5,187C 392.487,188.319 393.654,190.152 394,192.5C 394.49,191.207 394.657,189.873 394.5,188.5C 397.279,188.721 399.946,188.388 402.5,187.5 Z"/></g>
<g><path style="opacity:1" fill="#bcbdb8" d="M 477.5,194.5 C 475.908,193.398 475.075,194.065 475,196.5C 474.667,195.167 474.333,193.833 474,192.5C 471.773,194.199 469.273,195.532 466.5,196.5C 465.893,196.376 465.56,196.043 465.5,195.5C 465.25,192.786 465.083,190.119 465,187.5C 469.066,188.464 473.233,188.797 477.5,188.5C 477.5,190.5 477.5,192.5 477.5,194.5 Z"/></g>
<g><path style="opacity:1" fill="#b4b1a8" d="M 483.5,199.5 C 483.167,199.5 482.833,199.5 482.5,199.5C 482.5,199.167 482.5,198.833 482.5,198.5C 477.079,190.188 479.079,186.688 488.5,188C 489.357,188.689 490.023,189.522 490.5,190.5C 490.12,192.021 489.954,193.687 490,195.5C 487.987,197.248 485.82,198.582 483.5,199.5 Z"/></g>
<g><path style="opacity:1" fill="#b8b8b5" d="M 642.5,197.5 C 641.833,197.5 641.167,197.5 640.5,197.5C 640.773,195.549 640.107,194.049 638.5,193C 630.655,192.178 622.989,192.344 615.5,193.5C 613.529,193.864 611.529,194.197 609.5,194.5C 608.38,193.167 607.047,192.667 605.5,193C 605.67,194.57 606.003,196.403 606.5,198.5C 605.733,197.828 605.066,196.995 604.5,196C 598.804,195.83 593.138,195.33 587.5,194.5C 586.691,192.929 586.357,191.262 586.5,189.5C 604.547,189.82 622.547,189.487 640.5,188.5C 641.72,188.887 642.387,189.72 642.5,191C 641.227,193.216 641.227,195.383 642.5,197.5 Z"/></g>
<g><path style="opacity:1" fill="#9f9c92" d="M 524.5,188.5 C 523.527,190.068 523.36,191.735 524,193.5C 525.518,193.943 526.685,193.276 527.5,191.5C 528.833,194.167 530.167,194.167 531.5,191.5C 532.107,191.624 532.44,191.957 532.5,192.5C 526.841,195.759 521.007,195.759 515,192.5C 514.308,193.025 513.808,193.692 513.5,194.5C 515.423,195.308 517.423,195.808 519.5,196C 515.789,197.709 512.122,197.709 508.5,196C 513.541,194.992 513.208,194.492 507.5,194.5C 507.146,192.459 507.146,190.626 507.5,189C 506.256,188.544 505.423,189.044 505,190.5C 504.925,188.065 504.092,187.398 502.5,188.5C 501.964,183.673 504.13,181.673 509,182.5C 513.261,182.617 517.261,183.617 521,185.5C 521.483,186.448 521.649,187.448 521.5,188.5C 522.5,188.5 523.5,188.5 524.5,188.5 Z"/></g>
<g><path style="opacity:1" fill="#f3f3f3" d="M 302.5,192.5 C 302.5,193.833 302.5,195.167 302.5,196.5C 297.5,196.5 292.5,196.5 287.5,196.5C 287.5,194.833 287.5,193.167 287.5,191.5C 292.595,191.221 297.595,191.555 302.5,192.5 Z"/></g>
<g><path style="opacity:1" fill="#171714" d="M 454.5,191.5 C 454.5,191.167 454.5,190.833 454.5,190.5C 459.544,188.494 461.544,189.994 460.5,195C 456.78,196.392 454.78,195.225 454.5,191.5 Z"/></g>
<g><path style="opacity:1" fill="#1b1916" d="M 482.5,189.5 C 488.078,189.525 489.411,191.691 486.5,196C 481.791,196.082 480.458,193.915 482.5,189.5 Z"/></g>
<g><path style="opacity:1" fill="#c2bfb6" d="M 495.5,188.5 C 495.281,189.675 495.614,190.675 496.5,191.5C 500.29,188.625 503.457,189.292 506,193.5C 506.667,194.167 506.667,194.833 506,195.5C 504,194.833 502,194.167 500,193.5C 499.517,194.448 499.351,195.448 499.5,196.5C 497.097,196.552 494.764,196.219 492.5,195.5C 492.708,193.08 492.374,190.747 491.5,188.5C 492.958,187.218 494.292,187.218 495.5,188.5 Z"/></g>
<g><path style="opacity:1" fill="#0f0d0b" d="M 364.5,189.5 C 368.332,189.19 369.832,190.857 369,194.5C 364.848,196.492 363.015,195.159 363.5,190.5C 363.5,189.833 363.833,189.5 364.5,189.5 Z"/></g>
<g><path style="opacity:1" fill="#b0aca1" d="M 586.5,189.5 C 585.527,191.948 585.194,194.615 585.5,197.5C 583.876,197.64 582.71,196.973 582,195.5C 580.691,197.891 579.691,197.891 579,195.5C 577.989,196.337 576.822,196.67 575.5,196.5C 575.869,194.007 575.203,193.34 573.5,194.5C 569.067,196.301 564.4,196.967 559.5,196.5C 559.29,193.03 558.123,193.03 556,196.5C 555.667,195.167 555.333,193.833 555,192.5C 554.228,193.849 553.061,194.682 551.5,195C 554.742,195.283 555.076,196.117 552.5,197.5C 549.916,196.607 547.249,196.274 544.5,196.5C 544.5,195.167 544.5,193.833 544.5,192.5C 547.119,192.232 549.619,192.565 552,193.5C 552.833,192.667 553.667,191.833 554.5,191C 544.991,190.83 535.658,190.33 526.5,189.5C 536.487,190.084 546.321,189.417 556,187.5C 560.19,188.738 564.523,189.404 569,189.5C 572.833,189.333 576.667,189.167 580.5,189C 582.67,187.112 584.67,187.279 586.5,189.5 Z"/></g>
<g><path style="opacity:1" fill="#e8ece9" d="M 640.5,197.5 C 634.5,197.5 628.5,197.5 622.5,197.5C 620.393,196.532 618.059,196.198 615.5,196.5C 615.5,195.5 615.5,194.5 615.5,193.5C 622.989,192.344 630.655,192.178 638.5,193C 640.107,194.049 640.773,195.549 640.5,197.5 Z"/></g>
<g><path style="opacity:1" fill="#aeada8" d="M 368.5,198.5 C 367.167,199.833 365.833,199.833 364.5,198.5C 364.938,198.565 365.272,198.399 365.5,198C 361.061,196.327 360.394,193.827 363.5,190.5C 363.015,195.159 364.848,196.492 369,194.5C 369.832,190.857 368.332,189.19 364.5,189.5C 365.263,188.732 366.263,188.232 367.5,188C 366.833,187.667 366.167,187.333 365.5,187C 367.936,186.564 369.936,187.397 371.5,189.5C 370.167,191.167 370.167,192.833 371.5,194.5C 370.636,196.197 369.303,197.363 367.5,198C 367.728,198.399 368.062,198.565 368.5,198.5 Z"/></g>
<g><path style="opacity:1" fill="#333229" d="M 319.5,195.5 C 324.133,199.49 328.8,199.49 333.5,195.5C 334.417,196.127 335.417,196.461 336.5,196.5C 337.338,196.842 337.672,197.508 337.5,198.5C 335.032,197.25 332.699,197.417 330.5,199C 327.833,199.667 325.167,199.667 322.5,199C 320.574,198.578 319.574,197.411 319.5,195.5 Z"/></g>
<g><path style="opacity:1" fill="#494b48" d="M 285.5,194.5 C 285.833,194.5 286.167,194.5 286.5,194.5C 286.328,195.492 286.662,196.158 287.5,196.5C 292.5,196.5 297.5,196.5 302.5,196.5C 303.338,196.842 303.672,197.508 303.5,198.5C 297.491,198.666 291.491,198.499 285.5,198C 284.316,196.855 284.316,195.688 285.5,194.5 Z"/></g>
<g><path style="opacity:1" fill="#e6e6e2" d="M 440.5,188.5 C 440.724,190.964 440.391,193.631 439.5,196.5C 438.18,197.942 436.514,198.608 434.5,198.5C 432.379,198.675 430.379,198.341 428.5,197.5C 427.5,196.833 426.5,196.167 425.5,195.5C 425.5,193.167 425.5,190.833 425.5,188.5C 422.428,188.183 419.428,188.516 416.5,189.5C 416.709,190.086 417.043,190.586 417.5,191C 419.473,191.495 421.473,191.662 423.5,191.5C 423.5,193.167 423.5,194.833 423.5,196.5C 421.263,197.449 418.929,198.116 416.5,198.5C 416.5,198.167 416.5,197.833 416.5,197.5C 417.303,196.577 417.47,195.577 417,194.5C 416.184,195.823 415.017,196.489 413.5,196.5C 413.631,195.761 413.464,195.094 413,194.5C 412.196,195.804 411.029,196.471 409.5,196.5C 405.33,195.444 404.163,193.111 406,189.5C 408.333,189.5 410.667,189.5 413,189.5C 413.333,190.167 413.667,190.833 414,191.5C 414.749,190.365 414.583,189.365 413.5,188.5C 407.312,185.43 403.646,187.43 402.5,194.5C 401.425,192.189 401.425,189.856 402.5,187.5C 403.91,185.04 406.076,183.707 409,183.5C 412.207,184.375 415.207,185.709 418,187.5C 419.533,186.305 421.033,186.305 422.5,187.5C 426.066,186.562 429.399,185.229 432.5,183.5C 436.262,183.7 438.928,185.366 440.5,188.5 Z"/></g>
<g><path style="opacity:1" fill="#aeada7" d="M 425.5,195.5 C 424.833,195.833 424.167,196.167 423.5,196.5C 423.5,194.833 423.5,193.167 423.5,191.5C 421.473,191.662 419.473,191.495 417.5,191C 417.043,190.586 416.709,190.086 416.5,189.5C 419.428,188.516 422.428,188.183 425.5,188.5C 425.5,190.833 425.5,193.167 425.5,195.5 Z"/></g>
<g><path style="opacity:1" fill="#b0aea9" d="M 430.5,186.5 C 438.999,186.769 440.999,190.269 436.5,197C 427.352,197.536 425.352,194.036 430.5,186.5 Z"/></g>
<g><path style="opacity:1" fill="#12100e" d="M 430.5,189.5 C 434.509,189.014 436.342,190.68 436,194.5C 431.079,196.077 429.246,194.41 430.5,189.5 Z"/></g>
<g><path style="opacity:1" fill="#6f6456" d="M 492.5,195.5 C 494.764,196.219 497.097,196.552 499.5,196.5C 499.369,197.239 499.536,197.906 500,198.5C 501.79,196.709 503.623,196.375 505.5,197.5C 504.402,198.397 504.402,199.23 505.5,200C 504.956,200.717 504.289,201.217 503.5,201.5C 499.984,200.796 497.817,202.462 497,206.5C 495.921,203.937 495.421,201.271 495.5,198.5C 492.192,197.974 490.026,199.307 489,202.5C 487.009,201.008 484.842,200.008 482.5,199.5C 482.833,199.5 483.167,199.5 483.5,199.5C 487.165,199.498 490.165,198.165 492.5,195.5 Z"/></g>
<g><path style="opacity:1" fill="#6f695c" d="M 585.5,197.5 C 590.179,197.334 594.845,197.501 599.5,198C 598.833,198.333 598.167,198.667 597.5,199C 590.833,199.333 584.167,199.667 577.5,200C 576.956,200.717 576.289,201.217 575.5,201.5C 575.349,199.335 574.683,197.002 573.5,194.5C 575.203,193.34 575.869,194.007 575.5,196.5C 576.822,196.67 577.989,196.337 579,195.5C 579.691,197.891 580.691,197.891 582,195.5C 582.71,196.973 583.876,197.64 585.5,197.5 Z"/></g>
<g><path style="opacity:1" fill="#d7d4cb" d="M 214.5,198.5 C 235.167,198.5 255.833,198.5 276.5,198.5C 277.167,198.833 277.833,199.167 278.5,199.5C 275.814,200.991 272.814,201.657 269.5,201.5C 260.299,200.185 250.966,200.519 241.5,202.5C 241.667,202.833 241.833,203.167 242,203.5C 245.073,202.383 248.24,202.216 251.5,203C 248.12,203.339 244.787,203.839 241.5,204.5C 241.167,204.5 240.833,204.5 240.5,204.5C 238.473,204.662 236.473,204.495 234.5,204C 236.715,203.83 238.715,203.163 240.5,202C 235.47,201.729 230.47,201.229 225.5,200.5C 222.265,201.031 219.098,201.698 216,202.5C 215.59,201.099 215.09,199.766 214.5,198.5 Z"/></g>
<g><path style="opacity:1" fill="#959084" d="M 302.5,192.5 C 303.158,193.398 303.824,194.398 304.5,195.5C 305.086,195.291 305.586,194.957 306,194.5C 308.958,197.082 311.958,197.082 315,194.5C 315.308,195.308 315.808,195.975 316.5,196.5C 317.281,195.271 317.781,193.938 318,192.5C 319.039,193.244 319.539,194.244 319.5,195.5C 319.574,197.411 320.574,198.578 322.5,199C 325.167,199.667 327.833,199.667 330.5,199C 332.699,197.417 335.032,197.25 337.5,198.5C 339.564,198.762 340.897,199.929 341.5,202C 340.451,202.492 339.451,202.326 338.5,201.5C 337.478,201.855 336.811,202.522 336.5,203.5C 333.967,204.118 331.301,203.952 328.5,203C 329.451,202.282 329.617,201.449 329,200.5C 328.259,201.641 327.425,201.641 326.5,200.5C 324.146,204.234 321.479,204.401 318.5,201C 319.167,200.667 319.833,200.333 320.5,200C 318.02,199.04 315.52,198.207 313,197.5C 312.342,199.108 312.842,200.275 314.5,201C 313.244,201.417 312.577,202.25 312.5,203.5C 311.778,203.918 311.278,204.584 311,205.5C 310.722,204.584 310.222,203.918 309.5,203.5C 309.414,202.504 309.748,201.671 310.5,201C 309.234,200.691 308.067,200.191 307,199.5C 306.667,199.833 306.333,200.167 306,200.5C 305.583,199.244 304.75,198.577 303.5,198.5C 303.672,197.508 303.338,196.842 302.5,196.5C 302.5,195.167 302.5,193.833 302.5,192.5 Z"/></g>
<g><path style="opacity:1" fill="#27231c" d="M 381.5,197.5 C 381.5,196.833 381.833,196.5 382.5,196.5C 384.913,198.051 387.579,198.717 390.5,198.5C 390.5,198.833 390.5,199.167 390.5,199.5C 387.246,199.793 384.246,199.126 381.5,197.5 Z"/></g>
<g><path style="opacity:1" fill="#7a7466" d="M 477.5,194.5 C 477.833,195.167 478.167,195.833 478.5,196.5C 476.744,197.131 474.91,198.465 473,200.5C 472.781,199.062 472.281,197.729 471.5,196.5C 470.849,199.527 470.849,202.36 471.5,205C 473.859,205.208 476.026,205.374 478,205.5C 478.417,204.244 479.25,203.577 480.5,203.5C 480.64,205.124 479.973,206.29 478.5,207C 479.833,207.333 481.167,207.667 482.5,208C 477.798,208.172 473.132,208.672 468.5,209.5C 472.205,210.585 476.205,210.585 480.5,209.5C 480.5,210.833 480.5,212.167 480.5,213.5C 476.805,213.602 473.138,213.602 469.5,213.5C 469.918,212.778 470.584,212.278 471.5,212C 466.167,211.667 460.833,211.333 455.5,211C 457,210.167 458.167,209 459,207.5C 459.483,208.448 459.649,209.448 459.5,210.5C 463.751,211.27 466.251,209.603 467,205.5C 468.525,206.72 470.359,207.387 472.5,207.5C 474.167,207.333 475.833,207.167 477.5,207C 474.574,206.782 471.74,206.282 469,205.5C 469.207,203.249 469.373,200.915 469.5,198.5C 466.927,198.148 464.594,198.648 462.5,200C 465.006,201.516 465.84,203.682 465,206.5C 464.781,205.062 464.281,203.729 463.5,202.5C 462.494,202.938 462.494,203.604 463.5,204.5C 459.684,207.499 458.684,206.665 460.5,202C 459.584,201.626 458.75,201.126 458,200.5C 457.25,201.126 456.416,201.626 455.5,202C 456.747,203.494 456.747,204.994 455.5,206.5C 455.167,205.833 454.833,205.167 454.5,204.5C 453.749,205.376 453.249,206.376 453,207.5C 446.924,206.524 440.758,206.19 434.5,206.5C 434.755,205.064 435.088,203.564 435.5,202C 434.377,200.956 433.044,200.29 431.5,200C 432.737,199.768 433.737,199.268 434.5,198.5C 436.514,198.608 438.18,197.942 439.5,196.5C 440.822,196.67 441.989,196.337 443,195.5C 443.402,196.872 443.902,198.205 444.5,199.5C 442.839,198.657 440.839,198.657 438.5,199.5C 438.709,200.086 439.043,200.586 439.5,201C 438.636,202.137 437.636,203.47 436.5,205C 439.706,205.89 442.706,205.557 445.5,204C 444.044,203.577 443.544,202.744 444,201.5C 445.913,203.187 448.08,203.687 450.5,203C 449.692,202.692 449.025,202.192 448.5,201.5C 449.729,200.719 451.062,200.219 452.5,200C 450.798,198.282 448.965,198.115 447,199.5C 446.801,197.598 445.967,196.098 444.5,195C 446.108,194.342 447.275,194.842 448,196.5C 448.417,195.244 449.25,194.577 450.5,194.5C 451.262,196.262 452.596,197.262 454.5,197.5C 455.374,198.525 456.541,199.192 458,199.5C 461.008,199.006 463.508,197.673 465.5,195.5C 465.56,196.043 465.893,196.376 466.5,196.5C 469.273,195.532 471.773,194.199 474,192.5C 474.333,193.833 474.667,195.167 475,196.5C 475.075,194.065 475.908,193.398 477.5,194.5 Z"/></g>
<g><path style="opacity:1" fill="#737167" d="M 615.5,193.5 C 615.5,194.5 615.5,195.5 615.5,196.5C 618.059,196.198 620.393,196.532 622.5,197.5C 619.813,197.336 617.146,197.503 614.5,198C 615.793,198.49 617.127,198.657 618.5,198.5C 615.642,199.166 612.642,199.833 609.5,200.5C 610.325,201.386 611.325,201.719 612.5,201.5C 612.421,202.93 612.754,204.264 613.5,205.5C 622.148,206.332 630.814,206.832 639.5,207C 640.056,207.383 640.389,207.883 640.5,208.5C 631.553,207.556 622.553,207.222 613.5,207.5C 613.727,209.933 612.727,211.599 610.5,212.5C 611.924,209.164 610.924,206.664 607.5,205C 607.833,204 608.167,203 608.5,202C 607.177,201.184 606.511,200.017 606.5,198.5C 606.003,196.403 605.67,194.57 605.5,193C 607.047,192.667 608.38,193.167 609.5,194.5C 611.529,194.197 613.529,193.864 615.5,193.5 Z"/></g>
<g><path style="opacity:1" fill="#424440" d="M 622.5,197.5 C 628.5,197.5 634.5,197.5 640.5,197.5C 641.167,197.5 641.833,197.5 642.5,197.5C 642.5,198.167 642.5,198.833 642.5,199.5C 634.445,199.77 626.445,199.437 618.5,198.5C 617.127,198.657 615.793,198.49 614.5,198C 617.146,197.503 619.813,197.336 622.5,197.5 Z"/></g>
<g><path style="opacity:1" fill="#7d7767" d="M 532.5,192.5 C 534.658,194.22 537.325,195.053 540.5,195C 538.167,195.333 535.833,195.667 533.5,196C 539.039,196.509 539.372,198.843 534.5,203C 535.167,203.333 535.833,203.667 536.5,204C 534.939,204.318 533.772,205.151 533,206.5C 532.667,205.833 532.333,205.167 532,204.5C 531.667,205.833 531.333,207.167 531,208.5C 527.831,205.541 526.331,205.874 526.5,209.5C 524.348,211.985 521.681,213.651 518.5,214.5C 520.094,213.017 521.76,211.517 523.5,210C 523.167,209.667 522.833,209.333 522.5,209C 518.216,209.457 513.882,209.457 509.5,209C 514.19,208.497 518.857,207.83 523.5,207C 518.167,206.333 512.833,206.333 507.5,207C 508.423,209.041 508.756,211.208 508.5,213.5C 507.732,212.737 507.232,211.737 507,210.5C 506.901,212.653 506.067,214.319 504.5,215.5C 505.265,212.904 505.599,210.237 505.5,207.5C 506.012,203.965 506.012,200.632 505.5,197.5C 503.623,196.375 501.79,196.709 500,198.5C 499.536,197.906 499.369,197.239 499.5,196.5C 499.351,195.448 499.517,194.448 500,193.5C 502,194.167 504,194.833 506,195.5C 506.667,194.833 506.667,194.167 506,193.5C 503.457,189.292 500.29,188.625 496.5,191.5C 495.614,190.675 495.281,189.675 495.5,188.5C 497.833,188.5 500.167,188.5 502.5,188.5C 504.092,187.398 504.925,188.065 505,190.5C 505.423,189.044 506.256,188.544 507.5,189C 507.146,190.626 507.146,192.459 507.5,194.5C 513.208,194.492 513.541,194.992 508.5,196C 512.122,197.709 515.789,197.709 519.5,196C 517.423,195.808 515.423,195.308 513.5,194.5C 513.808,193.692 514.308,193.025 515,192.5C 521.007,195.759 526.841,195.759 532.5,192.5 Z"/></g>
<g><path style="opacity:1" fill="#c6bfb2" d="M 178.5,198.5 C 188.833,198.5 199.167,198.5 209.5,198.5C 210.468,200.607 210.802,202.941 210.5,205.5C 199.086,205.189 187.752,205.523 176.5,206.5C 176.821,204.952 177.821,204.285 179.5,204.5C 179.675,202.379 179.341,200.379 178.5,198.5 Z"/></g>
<g><path style="opacity:1" fill="#80796b" d="M 416.5,197.5 C 415.265,199.017 415.265,200.684 416.5,202.5C 416.145,203.522 415.478,204.189 414.5,204.5C 413.895,202.974 412.729,201.974 411,201.5C 409.887,202.711 408.72,202.711 407.5,201.5C 404.823,202.074 402.157,202.741 399.5,203.5C 400.602,204.176 401.602,204.842 402.5,205.5C 401.883,205.611 401.383,205.944 401,206.5C 397.376,203.521 393.543,203.021 389.5,205C 395.864,205.981 395.531,206.481 388.5,206.5C 388.781,204.037 389.781,201.87 391.5,200C 391.272,199.601 390.938,199.435 390.5,199.5C 390.5,199.167 390.5,198.833 390.5,198.5C 391.406,197.035 392.739,196.035 394.5,195.5C 397.167,196.833 399.833,196.833 402.5,195.5C 403.522,195.855 404.189,196.522 404.5,197.5C 405.492,199.026 406.992,199.693 409,199.5C 410.385,199.486 411.551,199.152 412.5,198.5C 412.833,197.833 413.167,197.167 413.5,196.5C 415.017,196.489 416.184,195.823 417,194.5C 417.47,195.577 417.303,196.577 416.5,197.5 Z"/></g>
<g><path style="opacity:1" fill="#252119" d="M 404.5,197.5 C 407.096,198.265 409.763,198.599 412.5,198.5C 411.551,199.152 410.385,199.486 409,199.5C 406.992,199.693 405.492,199.026 404.5,197.5 Z"/></g>
<g><path style="opacity:1" fill="#aaa18f" d="M 416.5,197.5 C 416.5,197.833 416.5,198.167 416.5,198.5C 416.821,200.048 417.821,200.715 419.5,200.5C 419.281,201.675 419.614,202.675 420.5,203.5C 423.221,201.611 425.887,201.445 428.5,203C 427.5,203.333 426.5,203.667 425.5,204C 426.806,205.879 429.14,207.045 432.5,207.5C 432.804,208.15 433.137,208.817 433.5,209.5C 430.914,210.48 428.247,210.813 425.5,210.5C 425.34,206.764 424.507,206.764 423,210.5C 419.535,209.733 415.702,209.4 411.5,209.5C 411.721,207.336 412.721,205.67 414.5,204.5C 415.478,204.189 416.145,203.522 416.5,202.5C 415.265,200.684 415.265,199.017 416.5,197.5 Z"/></g>
<g><path style="opacity:1" fill="#756e63" d="M 425.5,195.5 C 426.5,196.167 427.5,196.833 428.5,197.5C 426.525,197.842 424.192,198.175 421.5,198.5C 421.351,199.552 421.517,200.552 422,201.5C 428.328,198.786 431.828,200.786 432.5,207.5C 429.14,207.045 426.806,205.879 425.5,204C 426.5,203.667 427.5,203.333 428.5,203C 425.887,201.445 423.221,201.611 420.5,203.5C 419.614,202.675 419.281,201.675 419.5,200.5C 417.821,200.715 416.821,200.048 416.5,198.5C 418.929,198.116 421.263,197.449 423.5,196.5C 424.167,196.167 424.833,195.833 425.5,195.5 Z"/></g>
<g><path style="opacity:1" fill="#bbb3a5" d="M 428.5,197.5 C 430.379,198.341 432.379,198.675 434.5,198.5C 433.737,199.268 432.737,199.768 431.5,200C 433.044,200.29 434.377,200.956 435.5,202C 435.088,203.564 434.755,205.064 434.5,206.5C 433.833,206.833 433.167,207.167 432.5,207.5C 431.828,200.786 428.328,198.786 422,201.5C 421.517,200.552 421.351,199.552 421.5,198.5C 424.192,198.175 426.525,197.842 428.5,197.5 Z"/></g>
<g><path style="opacity:1" fill="#aba59a" d="M 440.5,188.5 C 443.898,188.18 447.232,188.513 450.5,189.5C 449.465,191.128 449.465,192.795 450.5,194.5C 449.25,194.577 448.417,195.244 448,196.5C 447.275,194.842 446.108,194.342 444.5,195C 445.967,196.098 446.801,197.598 447,199.5C 448.965,198.115 450.798,198.282 452.5,200C 451.062,200.219 449.729,200.719 448.5,201.5C 449.025,202.192 449.692,202.692 450.5,203C 448.08,203.687 445.913,203.187 444,201.5C 443.544,202.744 444.044,203.577 445.5,204C 442.706,205.557 439.706,205.89 436.5,205C 437.636,203.47 438.636,202.137 439.5,201C 439.043,200.586 438.709,200.086 438.5,199.5C 440.839,198.657 442.839,198.657 444.5,199.5C 443.902,198.205 443.402,196.872 443,195.5C 441.989,196.337 440.822,196.67 439.5,196.5C 440.391,193.631 440.724,190.964 440.5,188.5 Z"/></g>
<g><path style="opacity:1" fill="#7c766b" d="M 524.5,188.5 C 525.492,188.328 526.158,188.662 526.5,189.5C 535.658,190.33 544.991,190.83 554.5,191C 553.667,191.833 552.833,192.667 552,193.5C 549.619,192.565 547.119,192.232 544.5,192.5C 544.5,193.833 544.5,195.167 544.5,196.5C 547.249,196.274 549.916,196.607 552.5,197.5C 555.076,196.117 554.742,195.283 551.5,195C 553.061,194.682 554.228,193.849 555,192.5C 555.333,193.833 555.667,195.167 556,196.5C 558.123,193.03 559.29,193.03 559.5,196.5C 564.4,196.967 569.067,196.301 573.5,194.5C 574.683,197.002 575.349,199.335 575.5,201.5C 573.076,201.192 570.743,201.526 568.5,202.5C 566.936,204.251 564.936,205.251 562.5,205.5C 558.5,206.167 554.5,206.833 550.5,207.5C 550.567,208.959 550.234,210.292 549.5,211.5C 548.835,209.302 548.168,206.969 547.5,204.5C 545.804,202.475 544.137,200.475 542.5,198.5C 543.938,196.655 543.604,195.489 541.5,195C 542.517,193.951 542.684,192.784 542,191.5C 538.943,192.451 535.777,192.784 532.5,192.5C 532.44,191.957 532.107,191.624 531.5,191.5C 530.167,194.167 528.833,194.167 527.5,191.5C 526.685,193.276 525.518,193.943 524,193.5C 523.36,191.735 523.527,190.068 524.5,188.5 Z"/></g>
<g><path style="opacity:1" fill="#b6ad9f" d="M 336.5,203.5 C 337.043,203.56 337.376,203.893 337.5,204.5C 335.275,209.791 331.775,210.791 327,207.5C 322.766,209.184 318.266,210.184 313.5,210.5C 312.098,210.135 311.098,209.301 310.5,208C 311.707,206.7 312.374,205.2 312.5,203.5C 312.577,202.25 313.244,201.417 314.5,201C 312.842,200.275 312.342,199.108 313,197.5C 315.52,198.207 318.02,199.04 320.5,200C 319.833,200.333 319.167,200.667 318.5,201C 321.479,204.401 324.146,204.234 326.5,200.5C 327.425,201.641 328.259,201.641 329,200.5C 329.617,201.449 329.451,202.282 328.5,203C 331.301,203.952 333.967,204.118 336.5,203.5 Z"/></g>
<g><path style="opacity:1" fill="#b2aea6" d="M 562.5,205.5 C 558.167,205.5 553.833,205.5 549.5,205.5C 549.978,202.722 548.978,200.722 546.5,199.5C 546.833,199.167 547.167,198.833 547.5,198.5C 553.115,199.289 558.782,199.789 564.5,200C 561.918,201.338 561.251,203.171 562.5,205.5 Z"/></g>
<g><path style="opacity:1" fill="#999286" d="M 478.5,196.5 C 479.605,197.6 480.938,198.267 482.5,198.5C 482.5,198.833 482.5,199.167 482.5,199.5C 484.842,200.008 487.009,201.008 489,202.5C 490.026,199.307 492.192,197.974 495.5,198.5C 495.421,201.271 495.921,203.937 497,206.5C 497.817,202.462 499.984,200.796 503.5,201.5C 502.594,202.965 501.261,203.965 499.5,204.5C 498.348,207.106 498.182,209.773 499,212.5C 499.837,214.007 501.004,214.507 502.5,214C 503.132,211.585 504.132,209.418 505.5,207.5C 505.599,210.237 505.265,212.904 504.5,215.5C 498.5,216.167 495.833,213.5 496.5,207.5C 494.019,207.323 492.186,208.323 491,210.5C 490.333,207.833 489.667,207.833 489,210.5C 487.293,209.862 485.46,209.862 483.5,210.5C 483.918,209.778 484.584,209.278 485.5,209C 485.167,208.667 484.833,208.333 484.5,208C 485.26,206.559 485.926,205.059 486.5,203.5C 484.45,203.701 482.45,203.701 480.5,203.5C 479.25,203.577 478.417,204.244 478,205.5C 476.026,205.374 473.859,205.208 471.5,205C 470.849,202.36 470.849,199.527 471.5,196.5C 472.281,197.729 472.781,199.062 473,200.5C 474.91,198.465 476.744,197.131 478.5,196.5 Z"/></g>
<g><path style="opacity:1" fill="#a9a49b" d="M 509.5,198.5 C 514.552,198.45 519.552,198.95 524.5,200C 525.891,202.39 527.891,204.057 530.5,205C 523.17,204.827 515.504,204.993 507.5,205.5C 507.767,203.035 508.434,200.701 509.5,198.5 Z"/></g>
<g><path style="opacity:1" fill="#6b6b67" d="M 56.5,207.5 C 55.391,207.443 54.391,207.11 53.5,206.5C 40.3396,205.669 27.0063,205.169 13.5,205C 26.1623,204.5 38.8289,204.333 51.5,204.5C 51.3505,203.448 51.5172,202.448 52,201.5C 53.1667,204 55,205.833 57.5,207C 57.2716,207.399 56.9382,207.565 56.5,207.5 Z"/></g>
<g><path style="opacity:1" fill="#a8a7a1" d="M 174.5,187.5 C 187.833,188.833 201.167,188.833 214.5,187.5C 235.663,188.332 256.996,188.832 278.5,189C 257.5,189.333 236.5,189.667 215.5,190C 236.406,190.173 257.24,190.673 278,191.5C 279.011,190.663 280.178,190.33 281.5,190.5C 284.355,193.167 283.688,194.834 279.5,195.5C 280.433,196.985 280.1,198.318 278.5,199.5C 277.833,199.167 277.167,198.833 276.5,198.5C 278.118,196.344 277.784,194.677 275.5,193.5C 265.856,192.168 255.856,191.501 245.5,191.5C 235.328,191.5 225.328,191.834 215.5,192.5C 213.621,191.659 211.621,191.325 209.5,191.5C 199.5,191.5 189.5,191.5 179.5,191.5C 177.61,191.297 176.11,191.963 175,193.5C 174.617,192.944 174.117,192.611 173.5,192.5C 165.684,191.508 157.684,191.174 149.5,191.5C 130.001,190.565 110.668,190.565 91.5,191.5C 92.1667,192.167 92.8333,192.833 93.5,193.5C 93.2627,194.791 93.596,195.791 94.5,196.5C 94.5,197.167 94.5,197.833 94.5,198.5C 94.33,199.822 94.6634,200.989 95.5,202C 121.498,202.5 147.498,202.667 173.5,202.5C 173.5,201.167 173.5,199.833 173.5,198.5C 173.833,198.5 174.167,198.5 174.5,198.5C 174.833,201.167 175.167,201.167 175.5,198.5C 176.5,198.5 177.5,198.5 178.5,198.5C 179.341,200.379 179.675,202.379 179.5,204.5C 177.821,204.285 176.821,204.952 176.5,206.5C 175.609,205.89 174.609,205.557 173.5,205.5C 160.517,204.167 147.184,203.501 133.5,203.5C 120.167,203.667 106.833,203.833 93.5,204C 112.823,204.958 132.156,205.458 151.5,205.5C 151.5,205.833 151.5,206.167 151.5,206.5C 131.164,206.333 110.831,206.5 90.5,207C 89.7562,208.039 88.7562,208.539 87.5,208.5C 77.8333,207.167 68.1667,207.167 58.5,208.5C 57.5084,208.672 56.8417,208.338 56.5,207.5C 56.9382,207.565 57.2716,207.399 57.5,207C 55,205.833 53.1667,204 52,201.5C 51.5172,202.448 51.3505,203.448 51.5,204.5C 38.8289,204.333 26.1623,204.5 13.5,205C 27.0063,205.169 40.3396,205.669 53.5,206.5C 39.1628,206.667 24.8295,206.5 10.5,206C 4.23983,201.144 3.9065,195.81 9.5,190C 24.9075,189.818 40.2408,189.318 55.5,188.5C 94.8349,189.284 134.168,189.784 173.5,190C 174.252,189.329 174.586,188.496 174.5,187.5 Z"/></g>
<g><path style="opacity:1" fill="#c9c8c2" d="M 173.5,205.5 C 166.167,205.5 158.833,205.5 151.5,205.5C 132.156,205.458 112.823,204.958 93.5,204C 106.833,203.833 120.167,203.667 133.5,203.5C 147.184,203.501 160.517,204.167 173.5,205.5 Z"/></g>
<g><path style="opacity:1" fill="#c8c6bd" d="M 94.5,198.5 C 120.833,198.5 147.167,198.5 173.5,198.5C 173.5,199.833 173.5,201.167 173.5,202.5C 147.498,202.667 121.498,202.5 95.5,202C 94.6634,200.989 94.33,199.822 94.5,198.5 Z"/></g>
<g><path style="opacity:1" fill="#434947" d="M 275.5,193.5 C 277.784,194.677 278.118,196.344 276.5,198.5C 255.833,198.5 235.167,198.5 214.5,198.5C 213.833,198.5 213.167,198.5 212.5,198.5C 212.167,197.833 211.833,197.167 211.5,196.5C 233.007,196.831 254.34,196.497 275.5,195.5C 275.5,194.833 275.5,194.167 275.5,193.5 Z"/></g>
<g><path style="opacity:1" fill="#494b46" d="M 210.5,196.5 C 210.167,197.167 209.833,197.833 209.5,198.5C 199.167,198.5 188.833,198.5 178.5,198.5C 177.5,198.5 176.5,198.5 175.5,198.5C 186.785,196.522 198.452,195.855 210.5,196.5 Z"/></g>
<g><path style="opacity:1" fill="#404544" d="M 173.5,194.5 C 174.434,195.568 174.768,196.901 174.5,198.5C 174.167,198.5 173.833,198.5 173.5,198.5C 147.167,198.5 120.833,198.5 94.5,198.5C 94.5,197.833 94.5,197.167 94.5,196.5C 121.188,197.158 147.521,196.491 173.5,194.5 Z"/></g>
<g><path style="opacity:1" fill="#2e3133" d="M 66.5,193.5 C 70.1352,194.114 73.8019,194.448 77.5,194.5C 77.5,194.833 77.5,195.167 77.5,195.5C 82.3489,196.166 87.3489,196.833 92.5,197.5C 83.6751,198.646 75.0085,197.979 66.5,195.5C 66.5,194.833 66.5,194.167 66.5,193.5 Z"/></g>
<g><path style="opacity:1" fill="#333836" d="M 12.5,196.5 C 25.1667,196.5 37.8333,196.5 50.5,196.5C 44.537,197.83 38.2037,198.496 31.5,198.5C 24.7963,198.496 18.463,197.83 12.5,196.5 Z"/></g>
<g><path style="opacity:1" fill="#d6dad9" d="M 179.5,191.5 C 178.972,192.721 178.305,193.887 177.5,195C 188.161,195.5 198.828,195.667 209.5,195.5C 209.5,194.167 209.5,192.833 209.5,191.5C 211.621,191.325 213.621,191.659 215.5,192.5C 215.5,193.5 215.5,194.5 215.5,195.5C 235.5,195.5 255.5,195.5 275.5,195.5C 254.34,196.497 233.007,196.831 211.5,196.5C 211.167,196.5 210.833,196.5 210.5,196.5C 198.452,195.855 186.785,196.522 175.5,198.5C 175.167,201.167 174.833,201.167 174.5,198.5C 174.768,196.901 174.434,195.568 173.5,194.5C 173.5,193.833 173.5,193.167 173.5,192.5C 174.117,192.611 174.617,192.944 175,193.5C 176.11,191.963 177.61,191.297 179.5,191.5 Z"/></g>
<g><path style="opacity:1" fill="#edeeeb" d="M 50.5,196.5 C 37.8333,196.5 25.1667,196.5 12.5,196.5C 11.3473,195.687 11.3473,194.687 12.5,193.5C 25.5,192.167 38.5,192.167 51.5,193.5C 50.8728,194.417 50.5394,195.417 50.5,196.5 Z"/></g>
<g><path style="opacity:1" fill="#f9f9f4" d="M 179.5,191.5 C 189.5,191.5 199.5,191.5 209.5,191.5C 209.5,192.833 209.5,194.167 209.5,195.5C 198.828,195.667 188.161,195.5 177.5,195C 178.305,193.887 178.972,192.721 179.5,191.5 Z"/></g>
<g><path style="opacity:1" fill="#f7f7f4" d="M 275.5,193.5 C 275.5,194.167 275.5,194.833 275.5,195.5C 255.5,195.5 235.5,195.5 215.5,195.5C 215.5,194.5 215.5,193.5 215.5,192.5C 225.328,191.834 235.328,191.5 245.5,191.5C 255.856,191.501 265.856,192.168 275.5,193.5 Z"/></g>
<g><path style="opacity:1" fill="#f6f8f7" d="M 149.5,191.5 C 157.684,191.174 165.684,191.508 173.5,192.5C 173.5,193.167 173.5,193.833 173.5,194.5C 147.521,196.491 121.188,197.158 94.5,196.5C 93.596,195.791 93.2627,194.791 93.5,193.5C 112.167,192.833 130.833,192.167 149.5,191.5 Z"/></g>
<g><path style="opacity:1" fill="#f2f3f1" d="M 91.5,191.5 C 91.5,192.833 91.5,194.167 91.5,195.5C 86.8333,195.5 82.1667,195.5 77.5,195.5C 77.5,195.167 77.5,194.833 77.5,194.5C 78.6527,193.687 78.6527,192.687 77.5,191.5C 82.2164,190.225 86.883,190.225 91.5,191.5 Z"/></g>
<g><path style="opacity:1" fill="#cccac7" d="M 91.5,191.5 C 110.668,190.565 130.001,190.565 149.5,191.5C 130.833,192.167 112.167,192.833 93.5,193.5C 92.8333,192.833 92.1667,192.167 91.5,191.5 Z"/></g>
<g><path style="opacity:1" fill="#f6f6f5" d="M 66.5,193.5 C 66.5,194.167 66.5,194.833 66.5,195.5C 61.8333,195.5 57.1667,195.5 52.5,195.5C 52.2965,193.61 52.9632,192.11 54.5,191C 58.4862,190.501 62.4862,190.334 66.5,190.5C 66.5,191.5 66.5,192.5 66.5,193.5 Z"/></g>
<g><path style="opacity:1" fill="#7b7d77" d="M 210.5,196.5 C 210.833,196.5 211.167,196.5 211.5,196.5C 211.833,197.167 212.167,197.833 212.5,198.5C 211.527,200.948 211.194,203.615 211.5,206.5C 212.5,206.5 213.5,206.5 214.5,206.5C 193.667,206.969 172.667,206.969 151.5,206.5C 151.5,206.167 151.5,205.833 151.5,205.5C 158.833,205.5 166.167,205.5 173.5,205.5C 174.609,205.557 175.609,205.89 176.5,206.5C 187.752,205.523 199.086,205.189 210.5,205.5C 210.802,202.941 210.468,200.607 209.5,198.5C 209.833,197.833 210.167,197.167 210.5,196.5 Z"/></g>
<g><path style="opacity:1" fill="#9c9b92" d="M 618.5,198.5 C 626.445,199.437 634.445,199.77 642.5,199.5C 642.785,202.829 642.118,205.829 640.5,208.5C 640.389,207.883 640.056,207.383 639.5,207C 630.814,206.832 622.148,206.332 613.5,205.5C 612.754,204.264 612.421,202.93 612.5,201.5C 611.325,201.719 610.325,201.386 609.5,200.5C 612.642,199.833 615.642,199.166 618.5,198.5 Z"/></g>
<g><path style="opacity:1" fill="#a09b8e" d="M 549.5,211.5 C 547.944,213.988 545.611,214.988 542.5,214.5C 539.747,214.647 537.247,213.98 535,212.5C 533.443,213.205 532.277,212.539 531.5,210.5C 529.955,209.548 528.288,209.215 526.5,209.5C 526.331,205.874 527.831,205.541 531,208.5C 531.333,207.167 531.667,205.833 532,204.5C 532.333,205.167 532.667,205.833 533,206.5C 533.772,205.151 534.939,204.318 536.5,204C 535.833,203.667 535.167,203.333 534.5,203C 539.372,198.843 539.039,196.509 533.5,196C 535.833,195.667 538.167,195.333 540.5,195C 537.325,195.053 534.658,194.22 532.5,192.5C 535.777,192.784 538.943,192.451 542,191.5C 542.684,192.784 542.517,193.951 541.5,195C 543.604,195.489 543.938,196.655 542.5,198.5C 544.137,200.475 545.804,202.475 547.5,204.5C 548.168,206.969 548.835,209.302 549.5,211.5 Z"/></g>
<g><path style="opacity:1" fill="#97948a" d="M 586.5,189.5 C 586.357,191.262 586.691,192.929 587.5,194.5C 593.138,195.33 598.804,195.83 604.5,196C 605.066,196.995 605.733,197.828 606.5,198.5C 606.511,200.017 607.177,201.184 608.5,202C 608.167,203 607.833,204 607.5,205C 610.924,206.664 611.924,209.164 610.5,212.5C 609.359,214.243 607.692,215.243 605.5,215.5C 602.33,215.114 599.663,213.78 597.5,211.5C 596.914,211.709 596.414,212.043 596,212.5C 595.727,210.899 595.227,209.399 594.5,208C 590.167,207.333 585.833,207.333 581.5,208C 580.592,211.243 578.592,213.577 575.5,215C 572.657,214.424 569.823,214.591 567,215.5C 563.186,214.176 561.686,211.509 562.5,207.5C 558.5,207.5 554.5,207.5 550.5,207.5C 554.5,206.833 558.5,206.167 562.5,205.5C 564.936,205.251 566.936,204.251 568.5,202.5C 570.743,201.526 573.076,201.192 575.5,201.5C 576.289,201.217 576.956,200.717 577.5,200C 584.167,199.667 590.833,199.333 597.5,199C 598.167,198.667 598.833,198.333 599.5,198C 594.845,197.501 590.179,197.334 585.5,197.5C 585.194,194.615 585.527,191.948 586.5,189.5 Z"/></g>
<g><path style="opacity:1" fill="#858585" d="M 58.5,208.5 C 68.1667,207.167 77.8333,207.167 87.5,208.5C 77.8264,209.804 68.1598,209.804 58.5,208.5 Z"/></g>
<g><path style="opacity:1" fill="#bdb6a8" d="M 285.5,194.5 C 284.316,195.688 284.316,196.855 285.5,198C 291.491,198.499 297.491,198.666 303.5,198.5C 304.75,198.577 305.583,199.244 306,200.5C 306.333,200.167 306.667,199.833 307,199.5C 308.067,200.191 309.234,200.691 310.5,201C 309.748,201.671 309.414,202.504 309.5,203.5C 309.528,205.582 308.861,207.416 307.5,209C 301.888,210.131 296.221,210.631 290.5,210.5C 290.5,209.167 290.5,207.833 290.5,206.5C 296.167,206.5 301.833,206.5 307.5,206.5C 307.5,205.5 307.5,204.5 307.5,203.5C 301.824,203.334 296.157,203.501 290.5,204C 295.833,204.333 301.167,204.667 306.5,205C 303.667,205.167 300.833,205.333 298,205.5C 292.652,205.387 287.486,204.887 282.5,204C 289.167,204.667 289.167,205.333 282.5,206C 284.81,206.497 287.143,206.663 289.5,206.5C 289.27,209.465 287.603,210.798 284.5,210.5C 283.5,210.333 282.5,210.167 281.5,210C 282.774,209.023 282.774,208.189 281.5,207.5C 281.414,205.323 280.747,203.323 279.5,201.5C 280.981,200.056 280.648,199.389 278.5,199.5C 280.1,198.318 280.433,196.985 279.5,195.5C 283.688,194.834 284.355,193.167 281.5,190.5C 281.435,190.062 281.601,189.728 282,189.5C 284.158,190.489 285.325,192.156 285.5,194.5 Z"/></g>
<g><path style="opacity:1" fill="#cbc6b7" d="M 483.5,210.5 C 482.1,211.1 481.1,212.1 480.5,213.5C 480.5,212.167 480.5,210.833 480.5,209.5C 476.205,210.585 472.205,210.585 468.5,209.5C 473.132,208.672 477.798,208.172 482.5,208C 481.167,207.667 479.833,207.333 478.5,207C 479.973,206.29 480.64,205.124 480.5,203.5C 482.45,203.701 484.45,203.701 486.5,203.5C 485.926,205.059 485.26,206.559 484.5,208C 484.833,208.333 485.167,208.667 485.5,209C 484.584,209.278 483.918,209.778 483.5,210.5 Z"/></g>
<g><path style="opacity:1" fill="#cbc5ba" d="M 505.5,197.5 C 506.012,200.632 506.012,203.965 505.5,207.5C 504.132,209.418 503.132,211.585 502.5,214C 501.004,214.507 499.837,214.007 499,212.5C 498.182,209.773 498.348,207.106 499.5,204.5C 501.261,203.965 502.594,202.965 503.5,201.5C 504.289,201.217 504.956,200.717 505.5,200C 504.402,199.23 504.402,198.397 505.5,197.5 Z"/></g>
<g><path style="opacity:1" fill="#7f7868" d="M 376.5,190.5 C 376.894,192.71 378.227,194.043 380.5,194.5C 381.167,194.833 381.833,195.167 382.5,195.5C 382.5,195.833 382.5,196.167 382.5,196.5C 381.833,196.5 381.5,196.833 381.5,197.5C 380.357,197.908 379.357,198.575 378.5,199.5C 380.5,200.167 382.5,200.833 384.5,201.5C 386.007,204.794 385.174,205.46 382,203.5C 378.937,203.935 378.77,204.768 381.5,206C 380.207,206.49 378.873,206.657 377.5,206.5C 377.66,204.801 377.494,203.134 377,201.5C 375.582,203.363 373.749,203.863 371.5,203C 372.552,201.881 373.719,201.381 375,201.5C 375.483,200.552 375.649,199.552 375.5,198.5C 374.178,198.33 373.011,198.663 372,199.5C 371.163,201.351 370.329,203.184 369.5,205C 371.833,205.333 374.167,205.667 376.5,206C 376.167,206.333 375.833,206.667 375.5,207C 376.5,207.333 377.5,207.667 378.5,208C 376.956,208.29 375.623,208.956 374.5,210C 378.718,209.448 382.885,209.615 387,210.5C 387.249,209.376 387.749,208.376 388.5,207.5C 389.893,208.863 391.559,209.696 393.5,210C 392.833,210.333 392.167,210.667 391.5,211C 379.167,211.667 366.833,211.667 354.5,211C 356.348,209.507 357.181,207.674 357,205.5C 356.667,206.167 356.333,206.833 356,207.5C 353.26,206.718 350.426,206.218 347.5,206C 347.616,204.732 347.949,203.398 348.5,202C 346.973,200.368 345.307,200.201 343.5,201.5C 344.326,202.451 344.492,203.451 344,204.5C 343.107,203.289 342.274,203.289 341.5,204.5C 342.376,205.251 343.376,205.751 344.5,206C 336.166,206.521 335.833,207.187 343.5,208C 341.5,208.333 339.5,208.667 337.5,209C 340.099,209.769 342.599,209.602 345,208.5C 345.667,211.167 346.333,211.167 347,208.5C 349.147,209.113 351.314,209.779 353.5,210.5C 353.167,210.833 352.833,211.167 352.5,211.5C 339.346,211.455 326.013,211.455 312.5,211.5C 301.48,211.832 290.48,211.499 279.5,210.5C 280.193,209.482 280.859,208.482 281.5,207.5C 282.774,208.189 282.774,209.023 281.5,210C 282.5,210.167 283.5,210.333 284.5,210.5C 287.603,210.798 289.27,209.465 289.5,206.5C 287.143,206.663 284.81,206.497 282.5,206C 289.167,205.333 289.167,204.667 282.5,204C 287.486,204.887 292.652,205.387 298,205.5C 300.833,205.333 303.667,205.167 306.5,205C 301.167,204.667 295.833,204.333 290.5,204C 296.157,203.501 301.824,203.334 307.5,203.5C 307.5,204.5 307.5,205.5 307.5,206.5C 301.833,206.5 296.167,206.5 290.5,206.5C 290.5,207.833 290.5,209.167 290.5,210.5C 296.221,210.631 301.888,210.131 307.5,209C 308.861,207.416 309.528,205.582 309.5,203.5C 310.222,203.918 310.722,204.584 311,205.5C 311.278,204.584 311.778,203.918 312.5,203.5C 312.374,205.2 311.707,206.7 310.5,208C 311.098,209.301 312.098,210.135 313.5,210.5C 318.266,210.184 322.766,209.184 327,207.5C 331.775,210.791 335.275,209.791 337.5,204.5C 337.376,203.893 337.043,203.56 336.5,203.5C 336.811,202.522 337.478,201.855 338.5,201.5C 339.451,202.326 340.451,202.492 341.5,202C 340.897,199.929 339.564,198.762 337.5,198.5C 337.672,197.508 337.338,196.842 336.5,196.5C 336.833,195.5 337.5,194.833 338.5,194.5C 339.27,196.935 340.937,198.269 343.5,198.5C 344.5,199.833 345.5,199.833 346.5,198.5C 349.099,198.451 351.266,197.451 353,195.5C 354.356,196.38 355.856,196.714 357.5,196.5C 357.351,195.448 357.517,194.448 358,193.5C 359.159,196.493 361.325,198.16 364.5,198.5C 365.833,199.833 367.167,199.833 368.5,198.5C 369.922,198.291 371.255,197.791 372.5,197C 373.362,194.266 374.195,194.099 375,196.5C 375.743,194.559 375.576,192.726 374.5,191C 375.094,190.536 375.761,190.369 376.5,190.5 Z"/></g>
<g><path style="opacity:1" fill="#b6ae9d" d="M 351.5,198.5 C 354.572,198.183 357.572,198.516 360.5,199.5C 359.975,200.192 359.308,200.692 358.5,201C 362.807,201.866 363.14,202.866 359.5,204C 360.167,204.333 360.833,204.667 361.5,205C 358.978,204.501 356.478,204.668 354,205.5C 353.055,205.095 352.388,204.428 352,203.5C 351.667,204.167 351.333,204.833 351,205.5C 350.666,203.153 350.833,200.819 351.5,198.5 Z"/></g>
<g><path style="opacity:1" fill="#c0bbb0" d="M 518.5,214.5 C 515.696,215.638 512.696,215.805 509.5,215C 508.944,214.617 508.611,214.117 508.5,213.5C 508.756,211.208 508.423,209.041 507.5,207C 512.833,206.333 518.167,206.333 523.5,207C 518.857,207.83 514.19,208.497 509.5,209C 513.882,209.457 518.216,209.457 522.5,209C 522.833,209.333 523.167,209.667 523.5,210C 521.76,211.517 520.094,213.017 518.5,214.5 Z"/></g>
<g><path style="opacity:1" fill="#afa99d" d="M 212.5,198.5 C 213.167,198.5 213.833,198.5 214.5,198.5C 215.09,199.766 215.59,201.099 216,202.5C 219.098,201.698 222.265,201.031 225.5,200.5C 230.47,201.229 235.47,201.729 240.5,202C 238.715,203.163 236.715,203.83 234.5,204C 236.473,204.495 238.473,204.662 240.5,204.5C 240.5,206.5 240.5,208.5 240.5,210.5C 245.167,210.5 249.833,210.5 254.5,210.5C 251.668,203.427 247.501,202.761 242,208.5C 241.51,207.207 241.343,205.873 241.5,204.5C 244.787,203.839 248.12,203.339 251.5,203C 248.24,202.216 245.073,202.383 242,203.5C 241.833,203.167 241.667,202.833 241.5,202.5C 250.966,200.519 260.299,200.185 269.5,201.5C 272.814,201.657 275.814,200.991 278.5,199.5C 280.648,199.389 280.981,200.056 279.5,201.5C 280.747,203.323 281.414,205.323 281.5,207.5C 280.859,208.482 280.193,209.482 279.5,210.5C 290.48,211.499 301.48,211.832 312.5,211.5C 316.312,212.324 320.312,212.824 324.5,213C 317.868,214.162 311.201,214.996 304.5,215.5C 303.711,215.217 303.044,214.717 302.5,214C 289.5,213.333 276.5,213.333 263.5,214C 263,214.5 262.5,215 262,215.5C 257.533,212.861 253.033,212.861 248.5,215.5C 247.377,214.456 246.044,213.79 244.5,213.5C 242.182,213.997 239.848,214.33 237.5,214.5C 237.5,211.5 237.5,208.5 237.5,205.5C 229.862,206.313 222.196,206.646 214.5,206.5C 213.5,206.5 212.5,206.5 211.5,206.5C 211.194,203.615 211.527,200.948 212.5,198.5 Z"/></g>
<g><path style="opacity:1" fill="#7f7563" d="M 260.5,203.5 C 262.558,204.933 264.892,205.6 267.5,205.5C 266.965,208.238 267.965,210.072 270.5,211C 267.332,211.333 264.499,210.499 262,208.5C 260.211,210.229 258.044,210.896 255.5,210.5C 255.33,209.178 255.663,208.011 256.5,207C 255.833,206.667 255.167,206.333 254.5,206C 256.974,205.963 258.974,205.13 260.5,203.5 Z"/></g>
<g><path style="opacity:1" fill="#897f6f" d="M 240.5,204.5 C 240.833,204.5 241.167,204.5 241.5,204.5C 241.343,205.873 241.51,207.207 242,208.5C 247.501,202.761 251.668,203.427 254.5,210.5C 249.833,210.5 245.167,210.5 240.5,210.5C 240.5,208.5 240.5,206.5 240.5,204.5 Z"/></g>
<g><path style="opacity:1" fill="#bab3a7" d="M 381.5,197.5 C 384.246,199.126 387.246,199.793 390.5,199.5C 390.938,199.435 391.272,199.601 391.5,200C 389.781,201.87 388.781,204.037 388.5,206.5C 395.531,206.481 395.864,205.981 389.5,205C 393.543,203.021 397.376,203.521 401,206.5C 401.383,205.944 401.883,205.611 402.5,205.5C 402.435,205.938 402.601,206.272 403,206.5C 403.278,205.584 403.778,204.918 404.5,204.5C 405.97,205.978 407.637,207.311 409.5,208.5C 407.187,209.273 404.854,209.94 402.5,210.5C 401.808,209.975 401.308,209.308 401,208.5C 400.29,209.973 399.124,210.64 397.5,210.5C 397.649,209.448 397.483,208.448 397,207.5C 396.691,208.766 396.191,209.933 395.5,211C 413.194,211.827 426.194,211.661 434.5,210.5C 434.5,209.167 434.5,207.833 434.5,206.5C 440.758,206.19 446.924,206.524 453,207.5C 453.249,206.376 453.749,205.376 454.5,204.5C 454.833,205.167 455.167,205.833 455.5,206.5C 456.747,204.994 456.747,203.494 455.5,202C 456.416,201.626 457.25,201.126 458,200.5C 458.75,201.126 459.584,201.626 460.5,202C 458.684,206.665 459.684,207.499 463.5,204.5C 462.494,203.604 462.494,202.938 463.5,202.5C 464.281,203.729 464.781,205.062 465,206.5C 465.84,203.682 465.006,201.516 462.5,200C 464.594,198.648 466.927,198.148 469.5,198.5C 469.373,200.915 469.207,203.249 469,205.5C 471.74,206.282 474.574,206.782 477.5,207C 475.833,207.167 474.167,207.333 472.5,207.5C 470.359,207.387 468.525,206.72 467,205.5C 466.251,209.603 463.751,211.27 459.5,210.5C 459.649,209.448 459.483,208.448 459,207.5C 458.167,209 457,210.167 455.5,211C 460.833,211.333 466.167,211.667 471.5,212C 470.584,212.278 469.918,212.778 469.5,213.5C 461.29,213.212 453.124,213.545 445,214.5C 415.507,213.829 386.007,213.163 356.5,212.5C 351.694,214.151 346.694,214.484 341.5,213.5C 331.609,214.072 321.776,215.072 312,216.5C 309.31,216.497 306.81,216.164 304.5,215.5C 311.201,214.996 317.868,214.162 324.5,213C 320.312,212.824 316.312,212.324 312.5,211.5C 326.013,211.455 339.346,211.455 352.5,211.5C 352.833,211.167 353.167,210.833 353.5,210.5C 351.314,209.779 349.147,209.113 347,208.5C 346.333,211.167 345.667,211.167 345,208.5C 342.599,209.602 340.099,209.769 337.5,209C 339.5,208.667 341.5,208.333 343.5,208C 335.833,207.187 336.166,206.521 344.5,206C 343.376,205.751 342.376,205.251 341.5,204.5C 342.274,203.289 343.107,203.289 344,204.5C 344.492,203.451 344.326,202.451 343.5,201.5C 345.307,200.201 346.973,200.368 348.5,202C 347.949,203.398 347.616,204.732 347.5,206C 350.426,206.218 353.26,206.718 356,207.5C 356.333,206.833 356.667,206.167 357,205.5C 357.181,207.674 356.348,209.507 354.5,211C 366.833,211.667 379.167,211.667 391.5,211C 392.167,210.667 392.833,210.333 393.5,210C 391.559,209.696 389.893,208.863 388.5,207.5C 387.749,208.376 387.249,209.376 387,210.5C 382.885,209.615 378.718,209.448 374.5,210C 375.623,208.956 376.956,208.29 378.5,208C 377.5,207.667 376.5,207.333 375.5,207C 375.833,206.667 376.167,206.333 376.5,206C 374.167,205.667 371.833,205.333 369.5,205C 370.329,203.184 371.163,201.351 372,199.5C 373.011,198.663 374.178,198.33 375.5,198.5C 375.649,199.552 375.483,200.552 375,201.5C 373.719,201.381 372.552,201.881 371.5,203C 373.749,203.863 375.582,203.363 377,201.5C 377.494,203.134 377.66,204.801 377.5,206.5C 378.873,206.657 380.207,206.49 381.5,206C 378.77,204.768 378.937,203.935 382,203.5C 385.174,205.46 386.007,204.794 384.5,201.5C 382.5,200.833 380.5,200.167 378.5,199.5C 379.357,198.575 380.357,197.908 381.5,197.5 Z"/></g>
<g><path style="opacity:1" fill="#787062" d="M 414.5,204.5 C 412.721,205.67 411.721,207.336 411.5,209.5C 415.702,209.4 419.535,209.733 423,210.5C 424.507,206.764 425.34,206.764 425.5,210.5C 428.247,210.813 430.914,210.48 433.5,209.5C 433.137,208.817 432.804,208.15 432.5,207.5C 433.167,207.167 433.833,206.833 434.5,206.5C 434.5,207.833 434.5,209.167 434.5,210.5C 426.194,211.661 413.194,211.827 395.5,211C 396.191,209.933 396.691,208.766 397,207.5C 397.483,208.448 397.649,209.448 397.5,210.5C 399.124,210.64 400.29,209.973 401,208.5C 401.308,209.308 401.808,209.975 402.5,210.5C 404.854,209.94 407.187,209.273 409.5,208.5C 407.637,207.311 405.97,205.978 404.5,204.5C 407.935,203.632 411.269,203.632 414.5,204.5 Z"/></g>
<g><path style="opacity:1" fill="#c3bca9" d="M 368.5,207.5 C 370.364,206.207 372.364,206.207 374.5,207.5C 373.175,210.329 371.175,210.996 368.5,209.5C 373.682,208.224 373.682,207.557 368.5,207.5 Z"/></g>
<g><path style="opacity:1" fill="#c0b9aa" d="M 363.5,202.5 C 365.288,201.378 367.288,201.211 369.5,202C 367.6,206.959 363.934,209.459 358.5,209.5C 358.5,208.5 358.5,207.5 358.5,206.5C 360.144,206.286 361.644,206.62 363,207.5C 363.402,206.128 363.902,204.795 364.5,203.5C 364.376,202.893 364.043,202.56 363.5,202.5 Z"/></g>
<g><path style="opacity:1" fill="#dbd1c2" d="M 414.5,204.5 C 411.269,203.632 407.935,203.632 404.5,204.5C 403.778,204.918 403.278,205.584 403,206.5C 402.601,206.272 402.435,205.938 402.5,205.5C 401.602,204.842 400.602,204.176 399.5,203.5C 402.157,202.741 404.823,202.074 407.5,201.5C 408.72,202.711 409.887,202.711 411,201.5C 412.729,201.974 413.895,202.974 414.5,204.5 Z"/></g>
</svg>
