<?xml version="1.0" encoding="UTF-8"?>
<!DOCTYPE svg PUBLIC "-//W3C//DTD SVG 1.1//EN" "http://www.w3.org/Graphics/SVG/1.1/DTD/svg11.dtd">
<svg xmlns="http://www.w3.org/2000/svg" version="1.1" width="2480px" height="3508px" style="shape-rendering:geometricPrecision; text-rendering:geometricPrecision; image-rendering:optimizeQuality; fill-rule:evenodd; clip-rule:evenodd" xmlns:xlink="http://www.w3.org/1999/xlink">
<g><path style="opacity:0.987" fill="#077e34" d="M 1225.5,226.5 C 1260.16,225.366 1294.49,228.199 1328.5,235C 1345.91,241.804 1363.25,248.804 1380.5,256C 1413.39,273.872 1442.56,296.705 1468,324.5C 1475.83,335.493 1483.16,346.826 1490,358.5C 1493,362.167 1496,365.833 1499,369.5C 1500.55,374.047 1500.88,378.713 1500,383.5C 1495.23,396.386 1488.89,408.386 1481,419.5C 1467.67,438.174 1452.83,455.674 1436.5,472C 1434.1,474.145 1431.94,473.978 1430,471.5C 1416.56,426.114 1389.72,390.947 1349.5,366C 1324.06,349.964 1296.39,340.298 1266.5,337C 1237.35,331.838 1211.68,338.838 1189.5,358C 1174.53,371.296 1161.37,386.129 1150,402.5C 1139.16,420.845 1128.83,439.511 1119,458.5C 1114.95,463.427 1110.78,468.26 1106.5,473C 1096.19,481.157 1085.52,488.824 1074.5,496C 1050.61,507.579 1028.61,521.912 1008.5,539C 998.388,542.822 988.722,541.822 979.5,536C 961.146,522.321 943.979,507.154 928,490.5C 925.417,487.003 923.084,483.336 921,479.5C 919.475,472.886 921.142,467.22 926,462.5C 947.518,442.012 972.018,425.846 999.5,414C 1013.87,405.299 1026.04,394.133 1036,380.5C 1053.62,345.758 1075.78,314.258 1102.5,286C 1137.48,253.844 1178.48,234.011 1225.5,226.5 Z"/></g>
<g><path style="opacity:0.987" fill="#6fa82e" d="M 2018.5,226.5 C 2056.61,227.862 2092.61,237.362 2126.5,255C 2141.07,264.459 2154.74,275.126 2167.5,287C 2176.64,295.136 2185.47,303.636 2194,312.5C 2195.75,314.212 2196.42,316.212 2196,318.5C 2175.23,331.132 2155.06,344.632 2135.5,359C 2128.24,366.93 2120.41,374.097 2112,380.5C 2103.78,377.621 2097.28,372.454 2092.5,365C 2061.54,342.014 2027.2,335.014 1989.5,344C 1953.31,354.207 1922.81,373.374 1898,401.5C 1878.54,422.401 1862.54,445.735 1850,471.5C 1839.79,497.086 1830.29,522.92 1821.5,549C 1818.83,549.667 1816.17,549.667 1813.5,549C 1781.32,540.782 1748.65,537.449 1715.5,539C 1714.43,538.261 1713.76,537.261 1713.5,536C 1722.77,484.204 1739.6,435.037 1764,388.5C 1784.7,355.111 1809.2,324.611 1837.5,297C 1842.5,293.333 1847.5,289.667 1852.5,286C 1874.85,273.491 1897.52,261.491 1920.5,250C 1951.98,236.741 1984.65,228.908 2018.5,226.5 Z"/></g>
<g><path style="opacity:0.987" fill="#077e34" d="M 2204.5,336.5 C 2209.54,335.431 2213.38,337.097 2216,341.5C 2225.92,357.668 2235.59,374.002 2245,390.5C 2252.59,401.425 2262.09,410.258 2273.5,417C 2328.54,442.707 2370.71,482.207 2400,535.5C 2417.05,574.953 2422.05,615.953 2415,658.5C 2410.79,687.989 2403.46,716.656 2393,744.5C 2382.61,767.463 2369.11,788.296 2352.5,807C 2347.33,807.729 2342.33,807.062 2337.5,805C 2310.34,793.755 2284.34,780.422 2259.5,765C 2256.79,762.629 2254.46,759.963 2252.5,757C 2277.83,726.186 2295.66,691.353 2306,652.5C 2315.01,615.536 2306.68,583.203 2281,555.5C 2266.63,538.93 2250.13,525.097 2231.5,514C 2217.96,507.061 2204.29,500.395 2190.5,494C 2171.74,481.986 2158.57,465.486 2151,444.5C 2145.73,435.563 2140.06,426.897 2134,418.5C 2124.84,404.526 2127.01,392.693 2140.5,383C 2153.01,373.575 2165.35,363.908 2177.5,354C 2186.68,348.304 2195.68,342.47 2204.5,336.5 Z"/></g>
<g><path style="opacity:0.989" fill="#99c431" d="M 1514.5,399.5 C 1517.52,399.428 1519.69,400.762 1521,403.5C 1525.73,417.622 1532.06,430.956 1540,443.5C 1548.93,465.627 1556.26,488.294 1562,511.5C 1579.88,603.691 1594.88,696.358 1607,789.5C 1608.39,824.15 1609.39,858.817 1610,893.5C 1612.83,920.821 1614,948.155 1613.5,975.5C 1610.93,977.717 1607.93,978.884 1604.5,979C 1507.6,984.369 1411.6,977.369 1316.5,958C 1285.83,952 1255.17,946 1224.5,940C 1209.28,936.778 1194.28,932.778 1179.5,928C 1178.42,926.274 1178.26,924.441 1179,922.5C 1185.36,911.102 1190.36,899.102 1194,886.5C 1198.69,866.691 1202.35,846.691 1205,826.5C 1205.74,825.426 1206.74,824.759 1208,824.5C 1252.16,833.332 1296.33,842.166 1340.5,851C 1387.76,858.678 1435.26,864.178 1483,867.5C 1496.15,871.582 1501.99,866.915 1500.5,853.5C 1495.52,786.832 1487.69,720.499 1477,654.5C 1474.43,638.417 1471.43,622.417 1468,606.5C 1459.14,570.399 1449.97,534.399 1440.5,498.5C 1440.59,496.077 1441.09,493.744 1442,491.5C 1457,480.5 1470,467.5 1481,452.5C 1491.17,436.832 1500.84,420.832 1510,404.5C 1511.06,402.341 1512.56,400.674 1514.5,399.5 Z"/></g>
<g><path style="opacity:0.987" fill="#6fa82e" d="M 900.5,495.5 C 902.527,495.338 904.527,495.505 906.5,496C 921.262,511.767 936.929,526.433 953.5,540C 961.997,546.248 971.33,550.915 981.5,554C 985.212,556.558 986.378,560.058 985,564.5C 969.294,589.18 964.961,615.847 972,644.5C 981.805,689.303 1004.64,725.803 1040.5,754C 1066.06,773.454 1094.06,788.787 1124.5,800C 1144.16,807.11 1164,813.61 1184,819.5C 1185.11,821.39 1185.95,823.39 1186.5,825.5C 1182.91,847.877 1177.74,869.877 1171,891.5C 1167.43,901.143 1162.93,910.31 1157.5,919C 1154.3,920.483 1150.96,920.817 1147.5,920C 1113.76,911.532 1080.76,900.866 1048.5,888C 1015.15,871.335 983.812,851.669 954.5,829C 925.589,800.76 902.089,768.593 884,732.5C 853.361,663.738 852.694,594.738 882,525.5C 887.202,514.821 893.369,504.821 900.5,495.5 Z"/></g>
<g><path style="opacity:0.989" fill="#99c431" d="M 1743.5,557.5 C 1766.73,558.445 1789.73,561.278 1812.5,566C 1814.83,567.333 1815.83,569.333 1815.5,572C 1807.15,625.34 1797.98,678.507 1788,731.5C 1781.55,777.957 1777.72,824.623 1776.5,871.5C 1822.27,869.021 1867.94,865.187 1913.5,860C 1947.05,854.264 1980.72,849.264 2014.5,845C 2093.68,831.94 2168.18,805.773 2238,766.5C 2240.37,767.289 2242.53,768.456 2244.5,770C 2253.61,778.716 2263.28,786.716 2273.5,794C 2292.17,803 2310.83,812 2329.5,821C 2331.4,822.808 2331.9,824.975 2331,827.5C 2304.57,853.136 2274.74,873.97 2241.5,890C 2223.72,897.555 2205.72,904.555 2187.5,911C 2143.5,923.082 2099.17,933.749 2054.5,943C 2025.41,947.017 1996.41,951.684 1967.5,957C 1889.58,968.918 1811.24,976.584 1732.5,980C 1710.44,980.967 1688.44,980.634 1666.5,979C 1665.3,978.097 1664.47,976.931 1664,975.5C 1663.06,874.591 1670.39,774.258 1686,674.5C 1693.33,638.5 1700.67,602.5 1708,566.5C 1708.93,563.898 1710.77,562.398 1713.5,562C 1723.69,560.8 1733.69,559.3 1743.5,557.5 Z"/></g>
<g><path style="opacity:0.989" fill="#99c431" d="M 1674.5,1028.5 C 1731.17,1031.53 1787.83,1034.7 1844.5,1038C 1936.91,1045.88 2027.91,1061.88 2117.5,1086C 2127.51,1087.34 2131.01,1092.84 2128,1102.5C 2123.16,1118.2 2118.16,1133.87 2113,1149.5C 2107.4,1163.21 2099.9,1175.71 2090.5,1187C 2086.83,1187.67 2083.17,1187.67 2079.5,1187C 2025.66,1173.7 1971.32,1162.7 1916.5,1154C 1874.15,1149.59 1831.82,1145.09 1789.5,1140.5C 1785.44,1140.58 1781.44,1141.08 1777.5,1142C 1775.67,1142.5 1774.5,1143.67 1774,1145.5C 1773.54,1158.18 1773.87,1170.85 1775,1183.5C 1778.89,1214.44 1782.23,1245.44 1785,1276.5C 1790.87,1308.07 1796.21,1339.74 1801,1371.5C 1811.75,1419.82 1823.75,1467.82 1837,1515.5C 1847.72,1547.95 1863.39,1577.62 1884,1604.5C 1892.63,1614.8 1901.63,1624.8 1911,1634.5C 1914.83,1639.5 1918.17,1644.83 1921,1650.5C 1919.44,1685.28 1923.78,1719.28 1934,1752.5C 1937.21,1767.29 1931.71,1772.13 1917.5,1767C 1907.24,1761.73 1897.24,1756.07 1887.5,1750C 1868.83,1736.33 1850.17,1722.67 1831.5,1709C 1807.95,1689.05 1788.78,1665.55 1774,1638.5C 1754.05,1603.65 1739.38,1566.65 1730,1527.5C 1719.26,1487.95 1708.93,1448.28 1699,1408.5C 1691.83,1359.81 1684.5,1311.15 1677,1262.5C 1674.86,1235.35 1671.53,1208.35 1667,1181.5C 1665.98,1141.32 1664.48,1101.15 1662.5,1061C 1662.67,1055.17 1662.83,1049.33 1663,1043.5C 1663.04,1035.35 1666.88,1030.35 1674.5,1028.5 Z"/></g>
<g><path style="opacity:0.996" fill="#683c0f" d="M 752.5,1072.5 C 811.501,1072.33 870.501,1072.5 929.5,1073C 934.446,1074.71 937.113,1078.21 937.5,1083.5C 901.227,1211.08 840.727,1325.08 756,1425.5C 706.511,1479.02 651.678,1525.85 591.5,1566C 569.433,1580.4 547.1,1594.4 524.5,1608C 498.52,1620.49 472.186,1632.16 445.5,1643C 425.803,1652.07 407.137,1662.73 389.5,1675C 362.262,1690.79 333.262,1701.79 302.5,1708C 298.934,1707.3 296.1,1705.47 294,1702.5C 293.17,1696.53 292.67,1690.53 292.5,1684.5C 296.921,1560.01 304.087,1435.68 314,1311.5C 317.622,1267.57 323.289,1223.9 331,1180.5C 335.065,1161.3 342.065,1143.3 352,1126.5C 360.789,1116.52 371.623,1109.68 384.5,1106C 405.718,1099.28 427.385,1094.61 449.5,1092C 495.346,1086.04 541.346,1081.71 587.5,1079C 642.629,1076.01 697.629,1073.84 752.5,1072.5 Z"/></g>
<g><path style="opacity:0.995" fill="#683c0f" d="M 987.5,1073.5 C 1158.05,1074.32 1328.39,1080.82 1498.5,1093C 1510.54,1093.94 1522.54,1095.27 1534.5,1097C 1544.56,1097.57 1553.06,1101.4 1560,1108.5C 1562.05,1116.24 1561.72,1123.91 1559,1131.5C 1522.79,1236.14 1485.79,1340.47 1448,1444.5C 1440.39,1452.89 1430.89,1457.39 1419.5,1458C 1298.52,1461.83 1177.52,1464.83 1056.5,1467C 990.551,1469.41 924.884,1475.08 859.5,1484C 839.152,1489.01 820.152,1497.01 802.5,1508C 791.84,1518.14 784.34,1530.31 780,1544.5C 768.224,1587.15 759.891,1630.49 755,1674.5C 746.677,1755.01 741.344,1835.67 739,1916.5C 737.859,1918.61 736.359,1920.44 734.5,1922C 686.181,1941.49 640.181,1965.16 596.5,1993C 543.22,2025.8 492.22,2061.8 443.5,2101C 372.514,2169.95 311.347,2246.45 260,2330.5C 255.211,2333.92 250.044,2334.42 244.5,2332C 217.393,2320.45 190.059,2309.45 162.5,2299C 152.697,2295.02 144.197,2289.19 137,2281.5C 127.008,2253.19 118.008,2224.52 110,2195.5C 99.619,2155.26 89.619,2114.93 80,2074.5C 72.4657,2047.36 64.4657,2020.36 56,1993.5C 49.478,1973.68 56.3113,1962.18 76.5,1959C 147.168,1958.45 217.835,1958.62 288.5,1959.5C 288.734,1890.13 290.234,1820.8 293,1751.5C 294.556,1746.12 298.056,1742.62 303.5,1741C 382.887,1719.14 457.887,1687.14 528.5,1645C 622.921,1588.47 708.421,1520.31 785,1440.5C 846.649,1371.29 896.316,1293.95 934,1208.5C 952.839,1166.48 969.172,1123.48 983,1079.5C 984.332,1077.34 985.832,1075.34 987.5,1073.5 Z"/></g>
<g><path style="opacity:0.984" fill="#6fa82e" d="M 2157.5,1098.5 C 2217.3,1114.07 2270.97,1141.23 2318.5,1180C 2352.56,1211.95 2379.39,1249.12 2399,1291.5C 2401.49,1297.02 2401.99,1302.69 2400.5,1308.5C 2399.31,1309.84 2397.81,1310.51 2396,1310.5C 2375.5,1303.19 2354.33,1299.02 2332.5,1298C 2319.18,1296.48 2306.18,1297.81 2293.5,1302C 2287.61,1303.51 2282.44,1302.34 2278,1298.5C 2263.17,1275.67 2244.33,1256.83 2221.5,1242C 2189.31,1223.6 2155.31,1209.26 2119.5,1199C 2115.79,1196.4 2114.62,1192.9 2116,1188.5C 2130.96,1162.59 2142.62,1135.25 2151,1106.5C 2153,1103.67 2155.17,1101 2157.5,1098.5 Z"/></g>
<g><path style="opacity:0.987" fill="#077e34" d="M 2311.5,1319.5 C 2340.29,1317.81 2368.62,1320.64 2396.5,1328C 2412.65,1332.82 2421.48,1343.65 2423,1360.5C 2426.33,1416.54 2411.66,1467.2 2379,1512.5C 2362.26,1533.91 2344.09,1554.08 2324.5,1573C 2306.99,1586.6 2287.99,1597.93 2267.5,1607C 2251.64,1617.23 2238.81,1630.4 2229,1646.5C 2193.65,1723.77 2134.15,1770.27 2050.5,1786C 2031.25,1788.77 2011.92,1789.77 1992.5,1789C 1982.05,1788.41 1972.38,1785.41 1963.5,1780C 1960.51,1777.01 1958.34,1773.51 1957,1769.5C 1948.73,1740.41 1944.23,1710.75 1943.5,1680.5C 1943.3,1675.31 1944.13,1670.31 1946,1665.5C 1947.47,1663.85 1949.3,1662.85 1951.5,1662.5C 1960.92,1665.38 1970.26,1668.54 1979.5,1672C 2023.05,1686.35 2062.05,1678.69 2096.5,1649C 2112.58,1631.92 2126.75,1613.42 2139,1593.5C 2147.94,1566.24 2164.11,1544.4 2187.5,1528C 2213.51,1512.66 2238.85,1496.33 2263.5,1479C 2300.58,1449.11 2314.75,1410.61 2306,1363.5C 2304.08,1353.49 2301.08,1343.82 2297,1334.5C 2295.63,1329.56 2296.8,1325.4 2300.5,1322C 2304.28,1321.08 2307.95,1320.25 2311.5,1319.5 Z"/></g>
<g><path style="opacity:0.997" fill="#683c0f" d="M 745.5,1959.5 C 935.17,1961.68 1124.84,1964.18 1314.5,1967C 1321.23,1967.3 1327.23,1969.46 1332.5,1973.5C 1336.69,1984.22 1337.52,1995.22 1335,2006.5C 1320.83,2069.18 1304.16,2131.18 1285,2192.5C 1278.84,2216.8 1272.84,2241.13 1267,2265.5C 1264.4,2272.11 1260.23,2277.61 1254.5,2282C 1247.01,2286.75 1239.01,2290.41 1230.5,2293C 1218.27,2295.87 1205.94,2298.2 1193.5,2300C 1064.27,2317.15 934.939,2333.49 805.5,2349C 786.424,2351.42 767.424,2354.25 748.5,2357.5C 744,2627.51 738.833,2897.51 733,3167.5C 732.725,3183.88 726.225,3197.05 713.5,3207C 699.668,3211.29 685.668,3214.96 671.5,3218C 552.732,3241.91 433.398,3262.57 313.5,3280C 298.499,3283.31 289.665,3277.48 287,3262.5C 286.522,2974.16 285.022,2685.83 282.5,2397.5C 282.667,2388.5 282.833,2379.5 283,2370.5C 283.706,2365.01 285.039,2359.68 287,2354.5C 363.428,2214.07 470.928,2103.9 609.5,2024C 653.24,1998.93 698.574,1977.43 745.5,1959.5 Z"/></g>
</svg>
