<?xml version="1.0" encoding="UTF-8"?>
<!DOCTYPE svg PUBLIC "-//W3C//DTD SVG 1.1//EN" "http://www.w3.org/Graphics/SVG/1.1/DTD/svg11.dtd">
<svg xmlns="http://www.w3.org/2000/svg" version="1.1" width="414px" height="390px" style="shape-rendering:geometricPrecision; text-rendering:geometricPrecision; image-rendering:optimizeQuality; fill-rule:evenodd; clip-rule:evenodd" xmlns:xlink="http://www.w3.org/1999/xlink">
<g><path style="opacity:0.992" fill="#1a56c5" d="M 202.5,26.5 C 201.833,26.5 201.5,26.8333 201.5,27.5C 200.527,29.9479 200.194,32.6146 200.5,35.5C 199.523,38.2869 199.19,41.2869 199.5,44.5C 198.527,46.9479 198.194,49.6146 198.5,52.5C 197.523,55.2869 197.19,58.2869 197.5,61.5C 196.527,63.9479 196.194,66.6146 196.5,69.5C 195.116,74.9438 194.45,80.6105 194.5,86.5C 193.515,90.6344 193.182,94.9677 193.5,99.5C 192.527,101.948 192.194,104.615 192.5,107.5C 191.116,112.944 190.45,118.611 190.5,124.5C 189.566,125.568 189.232,126.901 189.5,128.5C 187.925,135.471 187.758,142.471 189,149.5C 189.333,147.167 189.667,144.833 190,142.5C 190.101,145.7 190.768,148.7 192,151.5C 193.976,150.457 194.476,149.123 193.5,147.5C 195.879,142.741 198.213,138.075 200.5,133.5C 202.444,125.968 205.444,119.635 209.5,114.5C 208.572,113.232 208.405,111.899 209,110.5C 209.984,112.795 210.817,112.461 211.5,109.5C 210.515,107.902 210.349,106.235 211,104.5C 214.399,95.6366 217.399,86.6366 220,77.5C 220.333,78.1667 220.667,78.8333 221,79.5C 223.017,76.4884 223.517,73.3217 222.5,70C 223.667,66.5 224.833,63 226,59.5C 226.914,60.6537 227.747,60.487 228.5,59C 226.842,58.2747 226.342,57.108 227,55.5C 227.333,56.1667 227.667,56.8333 228,57.5C 228.595,56.1011 228.428,54.7678 227.5,53.5C 228.467,51.3703 229.634,49.3703 231,47.5C 234.593,44.9327 238.759,42.5993 243.5,40.5C 245.444,41.1892 247.444,41.6892 249.5,42C 251.623,43.7728 253.623,44.9395 255.5,45.5C 255.167,46.1667 254.833,46.8333 254.5,47.5C 255.423,50.4466 256.089,53.4466 256.5,56.5C 255.527,58.9479 255.194,61.6146 255.5,64.5C 254.566,65.5676 254.232,66.901 254.5,68.5C 253.167,69.5 253.167,70.5 254.5,71.5C 253.204,77.0501 251.537,82.3834 249.5,87.5C 249.167,84.8333 248.833,84.8333 248.5,87.5C 247.167,88.5 247.167,89.5 248.5,90.5C 246.817,95.9211 245.15,101.254 243.5,106.5C 243.167,103.833 242.833,103.833 242.5,106.5C 241.167,107.5 241.167,108.5 242.5,109.5C 241.34,113.647 240.007,117.647 238.5,121.5C 235.706,132.047 232.206,142.381 228,152.5C 225.95,159.38 225.284,166.38 226,173.5C 227.667,173.833 229.333,174.167 231,174.5C 232.5,173 234,171.5 235.5,170C 235.043,169.586 234.709,169.086 234.5,168.5C 235.531,167.3 236.365,165.966 237,164.5C 238.281,164.619 239.448,164.119 240.5,163C 239.549,162.282 239.383,161.449 240,160.5C 251.03,143.324 262.196,126.324 273.5,109.5C 273.833,110.833 274.167,110.833 274.5,109.5C 275.167,109.5 275.5,109.167 275.5,108.5C 276.833,108.167 276.833,107.833 275.5,107.5C 275.604,105.027 276.604,104.361 278.5,105.5C 284.415,100.391 291.082,99.2247 298.5,102C 301.18,105.423 302.013,109.256 301,113.5C 300.667,111.5 300.333,109.5 300,107.5C 299.503,109.81 299.337,112.143 299.5,114.5C 298.566,115.568 298.232,116.901 298.5,118.5C 297.167,119.167 297.167,119.833 298.5,120.5C 297.615,124.866 295.615,128.532 292.5,131.5C 292.167,130.167 291.833,130.167 291.5,131.5C 290.167,132.167 290.167,132.833 291.5,133.5C 291.25,135.674 290.25,137.341 288.5,138.5C 288.167,137.167 287.833,137.167 287.5,138.5C 286.167,139.167 286.167,139.833 287.5,140.5C 286.921,143.331 285.588,145.664 283.5,147.5C 283.167,146.167 282.833,146.167 282.5,147.5C 281.167,147.833 281.167,148.167 282.5,148.5C 281.66,150.853 280.326,152.853 278.5,154.5C 278.167,153.167 277.833,153.167 277.5,154.5C 276.662,154.842 276.328,155.508 276.5,156.5C 275.167,157.167 275.167,157.833 276.5,158.5C 272.747,165.01 268.747,171.344 264.5,177.5C 264.167,176.167 263.833,176.167 263.5,177.5C 262.167,178.5 262.167,179.5 263.5,180.5C 262.914,182.84 261.914,185.007 260.5,187C 261.056,187.383 261.389,187.883 261.5,188.5C 259.901,188.232 258.568,188.566 257.5,189.5C 244.262,185.719 230.929,182.219 217.5,179C 212.079,178.161 206.746,178.494 201.5,180C 198.208,182.412 197.041,185.579 198,189.5C 200.027,191.772 202.194,193.939 204.5,196C 219.771,201.479 235.104,206.646 250.5,211.5C 250.842,212.338 251.508,212.672 252.5,212.5C 250.949,215.836 249.615,219.169 248.5,222.5C 248.557,223.609 248.89,224.609 249.5,225.5C 247.901,225.232 246.568,225.566 245.5,226.5C 244.378,227.156 243.045,227.489 241.5,227.5C 224.178,225.223 206.844,223.723 189.5,223C 180.293,226.927 179.293,232.26 186.5,239C 188.087,239.862 189.754,240.529 191.5,241C 207.104,243.46 222.77,245.46 238.5,247C 239.056,247.383 239.389,247.883 239.5,248.5C 238.167,249.167 238.167,249.833 239.5,250.5C 239.833,250.5 240.167,250.5 240.5,250.5C 239.072,253.614 237.739,256.781 236.5,260C 239.695,260.181 242.695,260.681 245.5,261.5C 241.958,261.187 238.625,261.521 235.5,262.5C 235.167,262.5 234.833,262.5 234.5,262.5C 233.794,261.443 233.461,261.776 233.5,263.5C 223.178,264.388 212.845,265.221 202.5,266C 195.412,267.42 192.912,271.587 195,278.5C 196.731,280.617 198.898,282.117 201.5,283C 209.011,283.007 216.344,283.174 223.5,283.5C 224.681,284.397 226.681,284.897 229.5,285C 227.5,285.333 225.5,285.667 223.5,286C 221.841,288.844 219.841,291.344 217.5,293.5C 217.167,292.167 216.833,292.167 216.5,293.5C 215.833,293.5 215.5,293.833 215.5,294.5C 214.833,294.5 214.5,294.833 214.5,295.5C 213.833,295.5 213.5,295.833 213.5,296.5C 212.833,296.5 212.5,296.833 212.5,297.5C 211.833,297.5 211.5,297.833 211.5,298.5C 210.833,298.5 210.5,298.833 210.5,299.5C 209.833,299.5 209.5,299.833 209.5,300.5C 208.833,300.5 208.5,300.833 208.5,301.5C 207.167,301.833 207.167,302.167 208.5,302.5C 208.027,303.906 207.027,304.573 205.5,304.5C 205.167,303.167 204.833,303.167 204.5,304.5C 203.833,304.5 203.5,304.833 203.5,305.5C 202.508,305.328 201.842,305.662 201.5,306.5C 200.833,306.5 200.5,306.833 200.5,307.5C 199.508,307.328 198.842,307.662 198.5,308.5C 197.508,308.328 196.842,308.662 196.5,309.5C 195.508,309.328 194.842,309.662 194.5,310.5C 193.508,310.328 192.842,310.662 192.5,311.5C 191.508,311.328 190.842,311.662 190.5,312.5C 189.209,312.263 188.209,312.596 187.5,313.5C 186.209,313.263 185.209,313.596 184.5,314.5C 183.209,314.263 182.209,314.596 181.5,315.5C 179.901,315.232 178.568,315.566 177.5,316.5C 175.265,316.205 173.265,316.539 171.5,317.5C 167.298,317.183 163.298,317.517 159.5,318.5C 123.644,317.288 94.4776,303.955 72,278.5C 70.8525,279.458 69.8525,279.125 69,277.5C 68.3828,276.551 68.5494,275.718 69.5,275C 67.8619,274.758 66.3619,273.925 65,272.5C 50.6047,251.328 38.1047,230.495 27.5,210C 26.2566,207.966 24.7566,207.133 23,207.5C 22.3828,206.551 22.5494,205.718 23.5,205C 21.635,202.369 19.4684,200.869 17,200.5C 16.3551,199.354 15.5217,198.354 14.5,197.5C 14.7093,196.914 15.0426,196.414 15.5,196C 13.635,193.369 11.4684,191.869 9,191.5C 8.38277,190.551 8.54943,189.718 9.5,189C 7.86191,188.758 6.36191,187.925 5,186.5C 2.47368,182.807 1.14035,178.807 1,174.5C 1.31732,176.301 1.98398,176.634 3,175.5C 3.711,173.101 3.54433,170.768 2.5,168.5C 3.81489,166.684 5.31489,165.017 7,163.5C 7.41395,163.957 7.91395,164.291 8.5,164.5C 14.0811,162.583 19.7477,162.583 25.5,164.5C 31.1532,167.418 36.6532,170.751 42,174.5C 42.7175,173.549 43.5509,173.383 44.5,174C 44.9301,176.662 46.5967,178.829 49.5,180.5C 42.4032,189.82 41.5699,199.82 47,210.5C 54.4631,225.965 66.2965,236.465 82.5,242C 103.779,244.706 117.445,235.872 123.5,215.5C 138.958,224.653 155.625,229.986 173.5,231.5C 173.67,230.178 173.337,229.011 172.5,228C 154.697,225.735 138.364,219.735 123.5,210C 124.66,188.24 124.827,166.406 124,144.5C 122.889,117.838 121.889,91.1716 121,64.5C 119.519,61.9357 118.019,61.9357 116.5,64.5C 118.79,111.111 119.956,157.778 120,204.5C 119.507,207.985 118.007,208.485 115.5,206C 110.928,202.25 106.594,198.417 102.5,194.5C 102.5,193.833 102.167,193.5 101.5,193.5C 101.167,193.5 100.833,193.5 100.5,193.5C 100.5,192.833 100.167,192.5 99.5,192.5C 101.021,189.391 101.854,186.058 102,182.5C 102.667,190.5 103.333,190.5 104,182.5C 104.676,177.129 104.509,171.796 103.5,166.5C 104.833,165.833 104.833,165.167 103.5,164.5C 103.5,145.5 103.5,126.5 103.5,107.5C 104.478,107.189 105.145,106.522 105.5,105.5C 104.038,105.935 103.038,105.102 102.5,103C 102.944,101.238 103.444,101.405 104,103.5C 104.374,102.584 104.874,101.75 105.5,101C 104.678,89.576 104.178,78.076 104,66.5C 103.667,77.8333 103.333,89.1667 103,100.5C 102.559,87.8371 102.393,75.3371 102.5,63C 105.112,60.3972 105.112,57.8972 102.5,55.5C 104.187,46.3257 105.52,36.9924 106.5,27.5C 106.32,26.4461 105.987,25.4461 105.5,24.5C 108.603,19.2027 113.269,16.2027 119.5,15.5C 122.757,15.4184 125.591,16.4184 128,18.5C 128.333,18.1667 128.667,17.8333 129,17.5C 134.061,24.2992 136.895,31.9659 137.5,40.5C 136.471,40.2964 135.471,40.7964 134.5,42C 135.167,46.3333 135.833,50.6667 136.5,55C 135.465,56.5069 135.632,58.0069 137,59.5C 137.556,57.4049 138.056,57.2382 138.5,59C 138.375,64.9983 138.375,71.1649 138.5,77.5C 137.711,77.7828 137.044,78.2828 136.5,79C 137.309,84.4171 137.809,89.9171 138,95.5C 138.333,90.1667 138.667,84.8333 139,79.5C 139.499,85.1569 139.666,90.8236 139.5,96.5C 137.078,98.0478 137.078,99.7145 139.5,101.5C 140.166,109.137 140.833,116.804 141.5,124.5C 141.154,125.696 140.654,125.696 140,124.5C 138.62,125.256 138.453,125.922 139.5,126.5C 138.773,128.717 138.94,131.05 140,133.5C 140.497,131.19 140.663,128.857 140.5,126.5C 141.043,131.894 142.376,137.228 144.5,142.5C 143.145,143.675 143.312,144.675 145,145.5C 146.667,144.833 148.333,144.167 150,143.5C 151.822,139.843 153.322,136.176 154.5,132.5C 154.672,128.466 155.172,124.466 156,120.5C 156.818,125.794 157.318,125.794 157.5,120.5C 158.249,119.469 158.915,118.302 159.5,117C 158.906,116.536 158.239,116.369 157.5,116.5C 157.336,113.813 157.503,111.146 158,108.5C 158.333,110.833 158.667,113.167 159,115.5C 159.497,112.854 159.664,110.187 159.5,107.5C 161.25,103.817 161.917,99.8171 161.5,95.5C 163.192,88.872 164.525,82.0387 165.5,75C 164.171,69.4662 164.337,63.9662 166,58.5C 166.333,60.5 166.667,62.5 167,64.5C 168.967,49.9248 170.8,35.5914 172.5,21.5C 173.216,18.4024 174.716,15.7357 177,13.5C 177.333,13.8333 177.667,14.1667 178,14.5C 184.441,7.04803 191.108,6.71469 198,13.5C 198.667,12.1667 199.333,12.1667 200,13.5C 202.053,17.5864 202.887,21.9197 202.5,26.5 Z M 172.5,21.5 C 175.001,21.5109 175.168,22.1776 173,23.5C 172.536,22.9056 172.369,22.2389 172.5,21.5 Z M 192.5,107.5 C 192.55,113.389 191.884,119.056 190.5,124.5C 190.45,118.611 191.116,112.944 192.5,107.5 Z M 157.5,116.5 C 158.239,116.369 158.906,116.536 159.5,117C 158.915,118.302 158.249,119.469 157.5,120.5C 157.5,119.167 157.5,117.833 157.5,116.5 Z M 238.5,121.5 C 235.999,121.489 235.832,120.822 238,119.5C 238.464,120.094 238.631,120.761 238.5,121.5 Z M 139.5,126.5 C 139.833,126.5 140.167,126.5 140.5,126.5C 140.663,128.857 140.497,131.19 140,133.5C 138.94,131.05 138.773,128.717 139.5,126.5 Z M 154.5,132.5 C 156.646,132.696 156.812,133.696 155,135.5C 154.517,134.552 154.351,133.552 154.5,132.5 Z M 200.5,133.5 C 203.001,133.511 203.168,134.178 201,135.5C 200.536,134.906 200.369,134.239 200.5,133.5 Z M 72.5,173.5 C 68.5,173.5 64.5,173.5 60.5,173.5C 64.5876,171.417 68.5876,171.417 72.5,173.5 Z M 87.5,191.5 C 87.9731,192.906 88.9731,193.573 90.5,193.5C 90.8333,194.5 91.5,195.167 92.5,195.5C 92.9731,196.906 93.9731,197.573 95.5,197.5C 95.8333,198.5 96.5,199.167 97.5,199.5C 97.8039,200.15 98.1373,200.817 98.5,201.5C 97.2122,203.739 96.2122,206.072 95.5,208.5C 94.1667,209.167 93.1667,210.167 92.5,211.5C 86.6236,213.28 81.2903,212.28 76.5,208.5C 76.1667,207.5 75.5,206.833 74.5,206.5C 74.1667,205.5 73.5,204.833 72.5,204.5C 72.1667,203.5 71.5,202.833 70.5,202.5C 69.8333,201.167 68.8333,200.167 67.5,199.5C 67.2624,197.596 66.2624,196.262 64.5,195.5C 63.8333,194.167 62.8333,193.167 61.5,192.5C 61.2624,190.596 60.2624,189.262 58.5,188.5C 57.5244,187.185 56.5244,185.852 55.5,184.5C 62.7043,179.423 70.0376,179.256 77.5,184C 80.7104,186.717 84.0437,189.217 87.5,191.5 Z M 248.5,222.5 C 245.999,222.489 245.832,221.822 248,220.5C 248.464,221.094 248.631,221.761 248.5,222.5 Z"/></g>
<g><path style="opacity:0.004" fill="#000000" d="M 202.5,26.5 C 203.833,27.1667 203.833,27.1667 202.5,26.5 Z"/></g>
<g><path style="opacity:0.012" fill="#1d54e4" d="M 201.5,27.5 C 201.833,27.5 202.167,27.5 202.5,27.5C 202.806,30.3854 202.473,33.0521 201.5,35.5C 201.5,32.8333 201.5,30.1667 201.5,27.5 Z"/></g>
<g><path style="opacity:0.008" fill="#2553bf" d="M 200.5,35.5 C 200.833,35.5 201.167,35.5 201.5,35.5C 201.81,38.7131 201.477,41.7131 200.5,44.5C 200.5,41.5 200.5,38.5 200.5,35.5 Z"/></g>
<g><path style="opacity:0.012" fill="#2655d0" d="M 199.5,44.5 C 199.833,44.5 200.167,44.5 200.5,44.5C 200.806,47.3854 200.473,50.0521 199.5,52.5C 199.5,49.8333 199.5,47.1667 199.5,44.5 Z"/></g>
<g><path style="opacity:0.004" fill="#0000ff" d="M 137.5,54.5 C 138.833,55.1667 138.833,55.1667 137.5,54.5 Z"/></g>
<g><path style="opacity:0.004" fill="#4859ff" d="M 257.5,56.5 C 257.351,55.448 257.517,54.448 258,53.5C 258.74,54.7494 258.573,55.7494 257.5,56.5 Z"/></g>
<g><path style="opacity:0.004" fill="#240fa2" d="M 102.5,55.5 C 102.631,56.2389 102.464,56.9056 102,57.5C 101.308,56.5632 101.475,55.8966 102.5,55.5 Z"/></g>
<g><path style="opacity:0.008" fill="#2c6eed" d="M 198.5,52.5 C 198.833,52.5 199.167,52.5 199.5,52.5C 199.167,63.1667 198.833,63.1667 198.5,52.5 Z"/></g>
<g><path style="opacity:0.012" fill="#1d54e4" d="M 256.5,56.5 C 256.833,56.5 257.167,56.5 257.5,56.5C 257.806,59.3854 257.473,62.0521 256.5,64.5C 256.5,61.8333 256.5,59.1667 256.5,56.5 Z"/></g>
<g><path style="opacity:0.008" fill="#2460e2" d="M 197.5,61.5 C 198.833,64.1667 198.833,66.8333 197.5,69.5C 197.5,66.8333 197.5,64.1667 197.5,61.5 Z"/></g>
<g><path style="opacity:0.004" fill="#3136e2" d="M 255.5,64.5 C 255.833,64.5 256.167,64.5 256.5,64.5C 256.768,66.099 256.434,67.4324 255.5,68.5C 255.5,67.1667 255.5,65.8333 255.5,64.5 Z"/></g>
<g><path style="opacity:0.008" fill="#3b89be" d="M 254.5,68.5 C 254.833,68.5 255.167,68.5 255.5,68.5C 255.737,69.791 255.404,70.791 254.5,71.5C 254.5,70.5 254.5,69.5 254.5,68.5 Z"/></g>
<g><path style="opacity:0.008" fill="#2f76ed" d="M 196.5,69.5 C 196.833,69.5 197.167,69.5 197.5,69.5C 197.167,80.1667 196.833,80.1667 196.5,69.5 Z"/></g>
<g><path style="opacity:0.004" fill="#0000ff" d="M 138.5,77.5 C 139.833,78.1667 139.833,78.1667 138.5,77.5 Z"/></g>
<g><path style="opacity:0.012" fill="#204da3" d="M 195.5,86.5 C 195.336,83.8127 195.503,81.146 196,78.5C 196.801,81.367 196.634,84.0336 195.5,86.5 Z"/></g>
<g><path style="opacity:0.012" fill="#2553d1" d="M 194.5,86.5 C 194.833,86.5 195.167,86.5 195.5,86.5C 195.818,91.0323 195.485,95.3656 194.5,99.5C 194.5,95.1667 194.5,90.8333 194.5,86.5 Z"/></g>
<g><path style="opacity:0.008" fill="#1f50ff" d="M 248.5,87.5 C 248.833,87.5 249.167,87.5 249.5,87.5C 249.737,88.791 249.404,89.791 248.5,90.5C 248.5,89.5 248.5,88.5 248.5,87.5 Z"/></g>
<g><path style="opacity:0.008" fill="#2d5dc3" d="M 161.5,95.5 C 161.167,95.5 160.833,95.5 160.5,95.5C 160.833,90.1667 161.167,90.1667 161.5,95.5 Z"/></g>
<g><path style="opacity:0.004" fill="#000000" d="M 139.5,96.5 C 140.833,97.1667 140.833,97.1667 139.5,96.5 Z"/></g>
<g><path style="opacity:0.012" fill="#1f54c1" d="M 160.5,95.5 C 160.664,98.1873 160.497,100.854 160,103.5C 159.199,100.633 159.366,97.9664 160.5,95.5 Z"/></g>
<g><path style="opacity:0.012" fill="#254db5" d="M 285.5,99.5 C 288.5,98.1667 291.5,98.1667 294.5,99.5C 291.5,99.5 288.5,99.5 285.5,99.5 Z"/></g>
<g><path style="opacity:0.004" fill="#0000ff" d="M 139.5,101.5 C 139.369,100.761 139.536,100.094 140,99.5C 140.692,100.437 140.525,101.103 139.5,101.5 Z"/></g>
<g><path style="opacity:0.012" fill="#1745c5" d="M 285.5,99.5 C 285.103,100.525 284.437,100.692 283.5,100C 284.094,99.5357 284.761,99.369 285.5,99.5 Z"/></g>
<g><path style="opacity:0.004" fill="#1c2b4e" d="M 294.5,99.5 C 295.239,99.369 295.906,99.5357 296.5,100C 295.563,100.692 294.897,100.525 294.5,99.5 Z"/></g>
<g><path style="opacity:0.012" fill="#1d54e4" d="M 193.5,99.5 C 193.833,99.5 194.167,99.5 194.5,99.5C 194.167,110.167 193.833,110.167 193.5,99.5 Z"/></g>
<g><path style="opacity:0.008" fill="#336bbe" d="M 159.5,107.5 C 158.427,106.749 158.26,105.749 159,104.5C 159.483,105.448 159.649,106.448 159.5,107.5 Z"/></g>
<g><path style="opacity:0.004" fill="#0000ff" d="M 103.5,107.5 C 102.833,106.167 102.833,106.167 103.5,107.5 Z"/></g>
<g><path style="opacity:0.008" fill="#336bbe" d="M 242.5,106.5 C 242.833,106.5 243.167,106.5 243.5,106.5C 243.737,107.791 243.404,108.791 242.5,109.5C 242.5,108.5 242.5,107.5 242.5,106.5 Z"/></g>
<g><path style="opacity:0.012" fill="#184990" d="M 275.5,107.5 C 275.5,107.833 275.5,108.167 275.5,108.5C 274.833,108.5 274.5,108.833 274.5,109.5C 274.167,109.5 273.833,109.5 273.5,109.5C 273.5,108.167 274.167,107.5 275.5,107.5 Z"/></g>
<g><path style="opacity:0.008" fill="#2c54ad" d="M 299.5,114.5 C 300.833,115.833 300.833,117.167 299.5,118.5C 299.5,117.167 299.5,115.833 299.5,114.5 Z"/></g>
<g><path style="opacity:0.008" fill="#007f7e" d="M 298.5,118.5 C 298.833,118.5 299.167,118.5 299.5,118.5C 299.672,119.492 299.338,120.158 298.5,120.5C 298.5,119.833 298.5,119.167 298.5,118.5 Z"/></g>
<g><path style="opacity:0.012" fill="#2750ce" d="M 189.5,128.5 C 190.647,132.646 190.814,136.98 190,141.5C 189.501,137.179 189.334,132.846 189.5,128.5 Z"/></g>
<g><path style="opacity:0.008" fill="#3664a9" d="M 291.5,131.5 C 291.833,131.5 292.167,131.5 292.5,131.5C 292.672,132.492 292.338,133.158 291.5,133.5C 291.5,132.833 291.5,132.167 291.5,131.5 Z"/></g>
<g><path style="opacity:1" fill="#7ca8e0" d="M 394.5,217.5 C 393.167,218.167 393.167,218.833 394.5,219.5C 394.492,225.208 394.992,225.541 396,220.5C 395.121,226.277 395.621,231.943 397.5,237.5C 396.512,242.64 396.179,247.974 396.5,253.5C 395.539,255.265 395.205,257.265 395.5,259.5C 394.566,260.568 394.232,261.901 394.5,263.5C 393.596,264.209 393.263,265.209 393.5,266.5C 392.596,267.209 392.263,268.209 392.5,269.5C 391.167,270.167 391.167,270.833 392.5,271.5C 392.509,273.308 392.009,274.975 391,276.5C 389.723,278.747 388.223,280.747 386.5,282.5C 386.167,281.167 385.833,281.167 385.5,282.5C 384.833,282.5 384.5,282.833 384.5,283.5C 383.167,283.833 383.167,284.167 384.5,284.5C 384.573,286.027 383.906,287.027 382.5,287.5C 382.167,286.167 381.833,286.167 381.5,287.5C 380.833,287.5 380.5,287.833 380.5,288.5C 379.833,288.5 379.5,288.833 379.5,289.5C 378.508,289.328 377.842,289.662 377.5,290.5C 376.833,290.5 376.5,290.833 376.5,291.5C 375.833,291.5 375.5,291.833 375.5,292.5C 374.167,292.833 374.167,293.167 375.5,293.5C 375.027,294.906 374.027,295.573 372.5,295.5C 371.833,294.167 371.167,294.167 370.5,295.5C 369.833,295.5 369.5,295.833 369.5,296.5C 368.508,296.328 367.842,296.662 367.5,297.5C 366.209,297.263 365.209,297.596 364.5,298.5C 363.508,298.328 362.842,298.662 362.5,299.5C 361.508,299.328 360.842,299.662 360.5,300.5C 358.901,300.232 357.568,300.566 356.5,301.5C 354.585,301.216 352.919,301.549 351.5,302.5C 349.265,302.205 347.265,302.539 345.5,303.5C 343.265,303.205 341.265,303.539 339.5,304.5C 338.85,304.196 338.183,303.863 337.5,303.5C 333.365,304.109 329.365,304.776 325.5,305.5C 314.284,305.13 303.284,305.797 292.5,307.5C 286.117,307.599 280.117,308.932 274.5,311.5C 269.216,312.595 264.216,314.261 259.5,316.5C 258.209,316.263 257.209,316.596 256.5,317.5C 255.209,317.263 254.209,317.596 253.5,318.5C 251.901,318.232 250.568,318.566 249.5,319.5C 246.848,319.41 244.515,320.076 242.5,321.5C 240.585,321.216 238.919,321.549 237.5,322.5C 234.833,322.167 232.167,321.833 229.5,321.5C 228.312,320.636 227.145,319.636 226,318.5C 224.893,319.712 224.393,319.379 224.5,317.5C 225.833,315.833 225.833,314.167 224.5,312.5C 224.541,310.255 225.375,309.588 227,310.5C 229.559,307.469 232.726,305.302 236.5,304C 253.483,298.784 270.149,292.784 286.5,286C 285.833,285.667 285.167,285.333 284.5,285C 285.833,284.333 285.833,283.667 284.5,283C 287.097,282.221 287.097,281.721 284.5,281.5C 281.114,280.03 277.447,279.363 273.5,279.5C 267.96,279.669 262.627,280.336 257.5,281.5C 252.968,281.182 248.634,281.515 244.5,282.5C 243.883,282.389 243.383,282.056 243,281.5C 238.399,282.142 233.899,282.809 229.5,283.5C 227.612,282.725 225.612,282.725 223.5,283.5C 216.344,283.174 209.011,283.007 201.5,283C 198.898,282.117 196.731,280.617 195,278.5C 192.912,271.587 195.412,267.42 202.5,266C 212.845,265.221 223.178,264.388 233.5,263.5C 234.167,263.5 234.5,263.167 234.5,262.5C 234.833,262.5 235.167,262.5 235.5,262.5C 239.042,262.813 242.375,262.479 245.5,261.5C 255.903,261.455 265.903,259.788 275.5,256.5C 271.764,256.34 271.764,255.507 275.5,254C 264.083,250.281 252.416,249.114 240.5,250.5C 240.167,250.5 239.833,250.5 239.5,250.5C 239.5,249.833 239.5,249.167 239.5,248.5C 239.389,247.883 239.056,247.383 238.5,247C 222.77,245.46 207.104,243.46 191.5,241C 189.754,240.529 188.087,239.862 186.5,239C 179.293,232.26 180.293,226.927 189.5,223C 206.844,223.723 224.178,225.223 241.5,227.5C 243.045,227.489 244.378,227.156 245.5,226.5C 256.616,228.217 267.616,228.551 278.5,227.5C 279.239,227.631 279.906,227.464 280.5,227C 278.893,225.951 278.227,224.451 278.5,222.5C 279.833,222.167 279.833,221.833 278.5,221.5C 278.5,220.833 278.167,220.5 277.5,220.5C 269.637,216.658 261.303,213.991 252.5,212.5C 252.158,211.662 251.492,211.328 250.5,211.5C 235.104,206.646 219.771,201.479 204.5,196C 202.194,193.939 200.027,191.772 198,189.5C 197.041,185.579 198.208,182.412 201.5,180C 206.746,178.494 212.079,178.161 217.5,179C 230.929,182.219 244.262,185.719 257.5,189.5C 259.806,189.993 262.139,190.326 264.5,190.5C 277.841,194.753 291.508,198.253 305.5,201C 313.792,202.405 322.125,202.738 330.5,202C 332.618,201.74 334.284,200.74 335.5,199C 335.235,193.385 333.568,188.218 330.5,183.5C 330.709,182.914 331.043,182.414 331.5,182C 330.448,180.881 329.281,180.381 328,180.5C 326.102,177.814 324.936,175.147 324.5,172.5C 324.068,171.29 323.401,170.29 322.5,169.5C 322.5,168.833 322.167,168.5 321.5,168.5C 321.539,167.244 321.039,166.244 320,165.5C 319.333,166.833 318.667,166.833 318,165.5C 317.209,164.255 316.709,162.922 316.5,161.5C 315.596,160.791 315.263,159.791 315.5,158.5C 316.833,157.833 316.833,157.167 315.5,156.5C 315.737,155.209 315.404,154.209 314.5,153.5C 314.002,148.848 313.669,144.181 313.5,139.5C 314.833,138.833 314.833,138.167 313.5,137.5C 319.941,130.281 326.441,130.948 333,139.5C 334.131,138.396 334.965,138.729 335.5,140.5C 334.145,141.675 334.312,142.675 336,143.5C 338.342,144.358 340.175,146.358 341.5,149.5C 340.145,150.675 340.312,151.675 342,152.5C 343.131,151.396 343.965,151.729 344.5,153.5C 344.291,154.086 343.957,154.586 343.5,155C 352.625,165.148 362.792,175.648 374,186.5C 375.147,185.542 376.147,185.875 377,187.5C 377.617,188.449 377.451,189.282 376.5,190C 377.469,191.758 378.636,192.258 380,191.5C 382.849,194.224 384.516,197.224 385,200.5C 385.333,200.167 385.667,199.833 386,199.5C 389.654,205.139 392.487,211.139 394.5,217.5 Z M 316.5,161.5 C 316.511,158.999 317.178,158.832 318.5,161C 317.906,161.464 317.239,161.631 316.5,161.5 Z M 257.5,189.5 C 258.568,188.566 259.901,188.232 261.5,188.5C 262.5,189.167 263.5,189.833 264.5,190.5C 262.139,190.326 259.806,189.993 257.5,189.5 Z M 245.5,226.5 C 246.568,225.566 247.901,225.232 249.5,225.5C 258.963,226.947 268.63,227.613 278.5,227.5C 267.616,228.551 256.616,228.217 245.5,226.5 Z M 275.5,256.5 C 275.783,255.711 276.283,255.044 277,254.5C 277.528,255.816 277.028,256.483 275.5,256.5 Z M 284.5,281.5 C 275.514,280.442 266.514,280.442 257.5,281.5C 262.627,280.336 267.96,279.669 273.5,279.5C 277.447,279.363 281.114,280.03 284.5,281.5 Z M 244.5,282.5 C 239.695,283.487 234.695,283.821 229.5,283.5C 233.899,282.809 238.399,282.142 243,281.5C 243.383,282.056 243.883,282.389 244.5,282.5 Z"/></g>
<g><path style="opacity:0.008" fill="#70e1e1" d="M 313.5,137.5 C 313.5,138.167 313.5,138.833 313.5,139.5C 313.167,139.5 312.833,139.5 312.5,139.5C 312.328,138.508 312.662,137.842 313.5,137.5 Z"/></g>
<g><path style="opacity:0.008" fill="#1f7fd3" d="M 287.5,138.5 C 287.833,138.5 288.167,138.5 288.5,138.5C 288.672,139.492 288.338,140.158 287.5,140.5C 287.5,139.833 287.5,139.167 287.5,138.5 Z"/></g>
<g><path style="opacity:0.008" fill="#9aa3ff" d="M 312.5,139.5 C 312.664,142.187 312.497,144.854 312,147.5C 311.199,144.633 311.366,141.966 312.5,139.5 Z"/></g>
<g><path style="opacity:0.012" fill="#0054aa" d="M 282.5,147.5 C 282.833,147.5 283.167,147.5 283.5,147.5C 283.315,148.17 282.981,148.17 282.5,147.5 Z"/></g>
<g><path style="opacity:0.012" fill="#8893e3" d="M 313.5,153.5 C 312.387,152.054 312.22,150.387 313,148.5C 313.494,150.134 313.66,151.801 313.5,153.5 Z"/></g>
<g><path style="opacity:0.008" fill="#7e9fde" d="M 313.5,153.5 C 313.833,153.5 314.167,153.5 314.5,153.5C 314.5,154.5 314.5,155.5 314.5,156.5C 313.596,155.791 313.263,154.791 313.5,153.5 Z"/></g>
<g><path style="opacity:0.008" fill="#1e359f" d="M 277.5,154.5 C 277.833,154.5 278.167,154.5 278.5,154.5C 278.771,156.38 278.104,157.713 276.5,158.5C 276.5,157.833 276.5,157.167 276.5,156.5C 277.338,156.158 277.672,155.492 277.5,154.5 Z"/></g>
<g><path style="opacity:0.008" fill="#768ee2" d="M 314.5,156.5 C 314.833,156.5 315.167,156.5 315.5,156.5C 315.5,157.167 315.5,157.833 315.5,158.5C 314.662,158.158 314.328,157.492 314.5,156.5 Z"/></g>
<g><path style="opacity:0.012" fill="#15639b" d="M 9.5,162.5 C 9.89657,161.475 10.5632,161.308 11.5,162C 10.9056,162.464 10.2389,162.631 9.5,162.5 Z"/></g>
<g><path style="opacity:0.008" fill="#15718d" d="M 25.5,164.5 C 25.8966,163.475 26.5632,163.308 27.5,164C 26.9056,164.464 26.2389,164.631 25.5,164.5 Z"/></g>
<g><path style="opacity:0.004" fill="#151f37" d="M 28.5,165.5 C 28.8966,164.475 29.5632,164.308 30.5,165C 29.9056,165.464 29.2389,165.631 28.5,165.5 Z"/></g>
<g><path style="opacity:0.004" fill="#240fa2" d="M 103.5,164.5 C 103.5,165.167 103.5,165.833 103.5,166.5C 102.167,165.833 102.167,165.167 103.5,164.5 Z"/></g>
<g><path style="opacity:0.008" fill="#656fc0" d="M 321.5,168.5 C 322.167,168.5 322.5,168.833 322.5,169.5C 322.253,171.975 321.587,171.975 320.5,169.5C 320.624,168.893 320.957,168.56 321.5,168.5 Z"/></g>
<g><path style="opacity:0.008" fill="#7b8ca8" d="M 324.5,172.5 C 324.631,173.239 324.464,173.906 324,174.5C 323.308,173.563 323.475,172.897 324.5,172.5 Z"/></g>
<g><path style="opacity:0.008" fill="#3b89be" d="M 263.5,177.5 C 263.833,177.5 264.167,177.5 264.5,177.5C 264.737,178.791 264.404,179.791 263.5,180.5C 263.5,179.5 263.5,178.5 263.5,177.5 Z"/></g>
<g><path style="opacity:1" fill="#7aa6df" d="M 49.5,180.5 C 52.9424,177.707 56.609,175.373 60.5,173.5C 64.5,173.5 68.5,173.5 72.5,173.5C 82.2864,178.604 91.2864,184.938 99.5,192.5C 100.167,192.5 100.5,192.833 100.5,193.5C 100.833,193.5 101.167,193.5 101.5,193.5C 102.167,193.5 102.5,193.833 102.5,194.5C 106.594,198.417 110.928,202.25 115.5,206C 118.007,208.485 119.507,207.985 120,204.5C 119.956,157.778 118.79,111.111 116.5,64.5C 118.019,61.9357 119.519,61.9357 121,64.5C 121.889,91.1716 122.889,117.838 124,144.5C 124.827,166.406 124.66,188.24 123.5,210C 138.364,219.735 154.697,225.735 172.5,228C 173.337,229.011 173.67,230.178 173.5,231.5C 155.625,229.986 138.958,224.653 123.5,215.5C 117.445,235.872 103.779,244.706 82.5,242C 66.2965,236.465 54.4631,225.965 47,210.5C 41.5699,199.82 42.4032,189.82 49.5,180.5 Z M 87.5,191.5 C 87.9731,192.906 88.9731,193.573 90.5,193.5C 90.8333,194.5 91.5,195.167 92.5,195.5C 92.9731,196.906 93.9731,197.573 95.5,197.5C 95.8333,198.5 96.5,199.167 97.5,199.5C 97.8039,200.15 98.1373,200.817 98.5,201.5C 97.2122,203.739 96.2122,206.072 95.5,208.5C 94.1667,209.167 93.1667,210.167 92.5,211.5C 86.6236,213.28 81.2903,212.28 76.5,208.5C 76.1667,207.5 75.5,206.833 74.5,206.5C 74.1667,205.5 73.5,204.833 72.5,204.5C 72.1667,203.5 71.5,202.833 70.5,202.5C 69.8333,201.167 68.8333,200.167 67.5,199.5C 67.2624,197.596 66.2624,196.262 64.5,195.5C 63.8333,194.167 62.8333,193.167 61.5,192.5C 61.2624,190.596 60.2624,189.262 58.5,188.5C 57.5244,187.185 56.5244,185.852 55.5,184.5C 62.7043,179.423 70.0376,179.256 77.5,184C 80.7104,186.717 84.0437,189.217 87.5,191.5 Z"/></g>
<g><path style="opacity:0.016" fill="#6694e3" d="M 92.5,195.5 C 93.1667,195.5 93.8333,195.5 94.5,195.5C 94.5,196.167 94.8333,196.5 95.5,196.5C 95.5,196.833 95.5,197.167 95.5,197.5C 93.9731,197.573 92.9731,196.906 92.5,195.5 Z"/></g>
<g><path style="opacity:0.016" fill="#7579c6" d="M 87.5,191.5 C 88.1667,191.5 88.8333,191.5 89.5,191.5C 89.5,192.167 89.8333,192.5 90.5,192.5C 90.5,192.833 90.5,193.167 90.5,193.5C 88.9731,193.573 87.9731,192.906 87.5,191.5 Z"/></g>
<g><path style="opacity:0.997" fill="#1b56c5" d="M 53.5,184.5 C 54.8551,186.929 56.5217,188.262 58.5,188.5C 60.2624,189.262 61.2624,190.596 61.5,192.5C 61.0618,192.435 60.7284,192.601 60.5,193C 61.6667,194.167 62.8333,195.333 64,196.5C 64.3988,196.272 64.5654,195.938 64.5,195.5C 66.2624,196.262 67.2624,197.596 67.5,199.5C 67.0618,199.435 66.7284,199.601 66.5,200C 67.6667,201.167 68.8333,202.333 70,203.5C 70.3988,203.272 70.5654,202.938 70.5,202.5C 71.5,202.833 72.1667,203.5 72.5,204.5C 71.7611,204.369 71.0944,204.536 70.5,205C 71.9308,205.465 73.0975,206.299 74,207.5C 74.3988,207.272 74.5654,206.938 74.5,206.5C 75.5,206.833 76.1667,207.5 76.5,208.5C 75.6676,209.329 76.001,210.162 77.5,211C 82.9504,215.112 88.6171,215.446 94.5,212C 93.9056,211.536 93.2389,211.369 92.5,211.5C 93.1667,210.167 94.1667,209.167 95.5,208.5C 96.2122,206.072 97.2122,203.739 98.5,201.5C 98.1373,200.817 97.8039,200.15 97.5,199.5C 98.1667,199.5 98.8333,199.5 99.5,199.5C 105.478,203.923 111.645,208.256 118,212.5C 117.339,226.838 109.839,235.338 95.5,238C 90.4424,238.661 85.4424,238.328 80.5,237C 65.5802,230.414 55.0802,219.581 49,204.5C 47.8589,197.916 48.5256,191.583 51,185.5C 51.6708,184.748 52.5041,184.414 53.5,184.5 Z"/></g>
<g><path style="opacity:0.008" fill="#7e7f7e" d="M 394.5,217.5 C 395.833,218.167 395.833,218.833 394.5,219.5C 394.5,218.833 394.5,218.167 394.5,217.5 Z"/></g>
<g><path style="opacity:0.008" fill="#7882ae" d="M 277.5,220.5 C 278.167,220.5 278.5,220.833 278.5,221.5C 278.5,221.833 278.5,222.167 278.5,222.5C 275.54,221.968 275.207,221.301 277.5,220.5 Z"/></g>
<g><path style="opacity:0.004" fill="#0000ff" d="M 398.5,236.5 C 399.833,237.167 399.833,237.167 398.5,236.5 Z"/></g>
<g><path style="opacity:0.012" fill="#7ea7d4" d="M 397.5,237.5 C 397.833,237.5 398.167,237.5 398.5,237.5C 398.821,243.026 398.488,248.36 397.5,253.5C 397.5,248.167 397.5,242.833 397.5,237.5 Z"/></g>
<g><path style="opacity:0.012" fill="#90cdf3" d="M 396.5,253.5 C 396.833,253.5 397.167,253.5 397.5,253.5C 397.795,255.735 397.461,257.735 396.5,259.5C 396.5,257.5 396.5,255.5 396.5,253.5 Z"/></g>
<g><path style="opacity:0.004" fill="#b9ddff" d="M 395.5,259.5 C 395.833,259.5 396.167,259.5 396.5,259.5C 396.768,261.099 396.434,262.432 395.5,263.5C 395.5,262.167 395.5,260.833 395.5,259.5 Z"/></g>
<g><path style="opacity:0.012" fill="#75b3de" d="M 394.5,263.5 C 394.833,263.5 395.167,263.5 395.5,263.5C 395.737,264.791 395.404,265.791 394.5,266.5C 394.5,265.5 394.5,264.5 394.5,263.5 Z"/></g>
<g><path style="opacity:0.012" fill="#96b3de" d="M 393.5,266.5 C 393.833,266.5 394.167,266.5 394.5,266.5C 394.737,267.791 394.404,268.791 393.5,269.5C 393.5,268.5 393.5,267.5 393.5,266.5 Z"/></g>
<g><path style="opacity:0.008" fill="#86aaff" d="M 392.5,269.5 C 392.833,269.5 393.167,269.5 393.5,269.5C 393.672,270.492 393.338,271.158 392.5,271.5C 392.5,270.833 392.5,270.167 392.5,269.5 Z"/></g>
<g><path style="opacity:0.012" fill="#55aaff" d="M 385.5,282.5 C 385.833,282.5 386.167,282.5 386.5,282.5C 386.315,283.17 385.981,283.17 385.5,282.5 Z"/></g>
<g><path style="opacity:0.012" fill="#a9aaff" d="M 384.5,283.5 C 384.833,283.5 385.167,283.5 385.5,283.5C 385.315,284.17 384.981,284.17 384.5,283.5 Z"/></g>
<g><path style="opacity:0.008" fill="#7e7f7e" d="M 381.5,287.5 C 381.833,287.5 382.167,287.5 382.5,287.5C 382.315,288.17 381.981,288.17 381.5,287.5 Z"/></g>
<g><path style="opacity:0.008" fill="#7066ff" d="M 274.5,289.5 C 275.251,288.427 276.251,288.26 277.5,289C 276.552,289.483 275.552,289.649 274.5,289.5 Z"/></g>
<g><path style="opacity:0.008" fill="#7e7f7e" d="M 380.5,288.5 C 380.833,288.5 381.167,288.5 381.5,288.5C 381.315,289.17 380.981,289.17 380.5,288.5 Z"/></g>
<g><path style="opacity:0.004" fill="#fefffe" d="M 379.5,289.5 C 379.833,289.5 380.167,289.5 380.5,289.5C 380.315,290.17 379.981,290.17 379.5,289.5 Z"/></g>
<g><path style="opacity:0.004" fill="#477485" d="M 377.5,290.5 C 378.167,290.5 378.833,290.5 379.5,290.5C 379.027,291.906 378.027,292.573 376.5,292.5C 376.5,292.167 376.5,291.833 376.5,291.5C 377.167,291.5 377.5,291.167 377.5,290.5 Z"/></g>
<g><path style="opacity:0.012" fill="#55aaa9" d="M 375.5,292.5 C 375.833,292.5 376.167,292.5 376.5,292.5C 376.315,293.17 375.981,293.17 375.5,292.5 Z"/></g>
<g><path style="opacity:0.004" fill="#00fffe" d="M 216.5,293.5 C 216.833,293.5 217.167,293.5 217.5,293.5C 217.315,294.17 216.981,294.17 216.5,293.5 Z"/></g>
<g><path style="opacity:0.016" fill="#003ebf" d="M 215.5,294.5 C 215.833,294.5 216.167,294.5 216.5,294.5C 216.315,295.17 215.981,295.17 215.5,294.5 Z"/></g>
<g><path style="opacity:0.016" fill="#003ebf" d="M 214.5,295.5 C 214.833,295.5 215.167,295.5 215.5,295.5C 215.315,296.17 214.981,296.17 214.5,295.5 Z"/></g>
<g><path style="opacity:0.008" fill="#857fd3" d="M 370.5,296.5 C 370.5,296.167 370.5,295.833 370.5,295.5C 371.167,295.5 371.833,295.5 372.5,295.5C 372.158,296.338 371.492,296.672 370.5,296.5 Z"/></g>
<g><path style="opacity:0.012" fill="#0054ff" d="M 213.5,296.5 C 213.833,296.5 214.167,296.5 214.5,296.5C 214.315,297.17 213.981,297.17 213.5,296.5 Z"/></g>
<g><path style="opacity:0.012" fill="#55aaa9" d="M 369.5,296.5 C 369.833,296.5 370.167,296.5 370.5,296.5C 370.315,297.17 369.981,297.17 369.5,296.5 Z"/></g>
<g><path style="opacity:0.008" fill="#007eff" d="M 212.5,297.5 C 212.833,297.5 213.167,297.5 213.5,297.5C 213.315,298.17 212.981,298.17 212.5,297.5 Z"/></g>
<g><path style="opacity:0.004" fill="#414eff" d="M 367.5,298.5 C 367.5,298.167 367.5,297.833 367.5,297.5C 368.167,297.5 368.833,297.5 369.5,297.5C 369.158,298.338 368.492,298.672 367.5,298.5 Z"/></g>
<g><path style="opacity:0.016" fill="#003ebf" d="M 211.5,298.5 C 211.833,298.5 212.167,298.5 212.5,298.5C 212.315,299.17 211.981,299.17 211.5,298.5 Z"/></g>
<g><path style="opacity:0.012" fill="#8db3b3" d="M 364.5,299.5 C 364.5,299.167 364.5,298.833 364.5,298.5C 365.5,298.5 366.5,298.5 367.5,298.5C 366.791,299.404 365.791,299.737 364.5,299.5 Z"/></g>
<g><path style="opacity:0.008" fill="#007eff" d="M 210.5,299.5 C 210.833,299.5 211.167,299.5 211.5,299.5C 211.315,300.17 210.981,300.17 210.5,299.5 Z"/></g>
<g><path style="opacity:0.008" fill="#7ffffe" d="M 362.5,300.5 C 362.5,300.167 362.5,299.833 362.5,299.5C 363.167,299.5 363.833,299.5 364.5,299.5C 364.158,300.338 363.492,300.672 362.5,300.5 Z"/></g>
<g><path style="opacity:0.012" fill="#0054ff" d="M 209.5,300.5 C 209.833,300.5 210.167,300.5 210.5,300.5C 210.315,301.17 209.981,301.17 209.5,300.5 Z"/></g>
<g><path style="opacity:0.008" fill="#847fa8" d="M 360.5,301.5 C 360.5,301.167 360.5,300.833 360.5,300.5C 361.167,300.5 361.833,300.5 362.5,300.5C 362.158,301.338 361.492,301.672 360.5,301.5 Z"/></g>
<g><path style="opacity:0.012" fill="#0054aa" d="M 208.5,301.5 C 208.833,301.5 209.167,301.5 209.5,301.5C 209.315,302.17 208.981,302.17 208.5,301.5 Z"/></g>
<g><path style="opacity:0.004" fill="#92d4ff" d="M 356.5,302.5 C 356.5,302.167 356.5,301.833 356.5,301.5C 357.833,301.5 359.167,301.5 360.5,301.5C 359.432,302.434 358.099,302.768 356.5,302.5 Z"/></g>
<g><path style="opacity:0.016" fill="#7c7edb" d="M 351.5,303.5 C 351.5,303.167 351.5,302.833 351.5,302.5C 353.167,302.5 354.833,302.5 356.5,302.5C 355.081,303.451 353.415,303.784 351.5,303.5 Z"/></g>
<g><path style="opacity:0.012" fill="#93a8ea" d="M 345.5,304.5 C 345.5,304.167 345.5,303.833 345.5,303.5C 347.5,303.5 349.5,303.5 351.5,303.5C 349.735,304.461 347.735,304.795 345.5,304.5 Z"/></g>
<g><path style="opacity:0.012" fill="#0054ff" d="M 204.5,304.5 C 204.833,304.5 205.167,304.5 205.5,304.5C 205.315,305.17 204.981,305.17 204.5,304.5 Z"/></g>
<g><path style="opacity:0.004" fill="#e3ddff" d="M 339.5,305.5 C 339.5,305.167 339.5,304.833 339.5,304.5C 341.5,304.5 343.5,304.5 345.5,304.5C 343.735,305.461 341.735,305.795 339.5,305.5 Z"/></g>
<g><path style="opacity:0.008" fill="#007eff" d="M 203.5,305.5 C 203.833,305.5 204.167,305.5 204.5,305.5C 204.315,306.17 203.981,306.17 203.5,305.5 Z"/></g>
<g><path style="opacity:0.012" fill="#90b4e6" d="M 325.5,306.5 C 325.5,306.167 325.5,305.833 325.5,305.5C 340.167,305.833 340.167,306.167 325.5,306.5 Z"/></g>
<g><path style="opacity:0.004" fill="#00fffe" d="M 339.5,305.5 C 338.833,306.167 338.833,306.167 339.5,305.5 Z"/></g>
<g><path style="opacity:0.004" fill="#0b2bff" d="M 201.5,307.5 C 201.5,307.167 201.5,306.833 201.5,306.5C 202.167,306.5 202.833,306.5 203.5,306.5C 203.158,307.338 202.492,307.672 201.5,307.5 Z"/></g>
<g><path style="opacity:0.012" fill="#89aaed" d="M 304.5,307.5 C 311.313,306.509 318.313,306.175 325.5,306.5C 318.687,307.491 311.687,307.825 304.5,307.5 Z"/></g>
<g><path style="opacity:0.008" fill="#007f7e" d="M 200.5,307.5 C 200.833,307.5 201.167,307.5 201.5,307.5C 201.315,308.17 200.981,308.17 200.5,307.5 Z"/></g>
<g><path style="opacity:0.012" fill="#84a4df" d="M 292.5,308.5 C 292.5,308.167 292.5,307.833 292.5,307.5C 305.833,307.833 305.833,308.167 292.5,308.5 Z"/></g>
<g><path style="opacity:0.004" fill="#000000" d="M 304.5,307.5 C 303.833,308.167 303.833,308.167 304.5,307.5 Z"/></g>
<g><path style="opacity:0.004" fill="#1d1f4e" d="M 198.5,309.5 C 198.5,309.167 198.5,308.833 198.5,308.5C 199.167,308.5 199.833,308.5 200.5,308.5C 200.158,309.338 199.492,309.672 198.5,309.5 Z"/></g>
<g><path style="opacity:0.004" fill="#caddf1" d="M 292.5,308.5 C 290.712,309.622 288.712,309.789 286.5,309C 288.473,308.505 290.473,308.338 292.5,308.5 Z"/></g>
<g><path style="opacity:0.004" fill="#3744d3" d="M 196.5,310.5 C 196.5,310.167 196.5,309.833 196.5,309.5C 197.167,309.5 197.833,309.5 198.5,309.5C 198.158,310.338 197.492,310.672 196.5,310.5 Z"/></g>
<g><path style="opacity:0.008" fill="#9ca9ea" d="M 282.5,310.5 C 283.251,309.427 284.251,309.26 285.5,310C 284.552,310.483 283.552,310.649 282.5,310.5 Z"/></g>
<g><path style="opacity:0.004" fill="#1d3fff" d="M 194.5,311.5 C 194.5,311.167 194.5,310.833 194.5,310.5C 195.167,310.5 195.833,310.5 196.5,310.5C 196.158,311.338 195.492,311.672 194.5,311.5 Z"/></g>
<g><path style="opacity:0.008" fill="#8bb6c6" d="M 278.5,311.5 C 279.568,310.566 280.901,310.232 282.5,310.5C 281.432,311.434 280.099,311.768 278.5,311.5 Z"/></g>
<g><path style="opacity:0.008" fill="#15718d" d="M 192.5,312.5 C 192.5,312.167 192.5,311.833 192.5,311.5C 193.167,311.5 193.833,311.5 194.5,311.5C 194.158,312.338 193.492,312.672 192.5,312.5 Z"/></g>
<g><path style="opacity:0.012" fill="#798dc6" d="M 274.5,311.5 C 275.833,311.5 277.167,311.5 278.5,311.5C 277.167,312.833 275.833,312.833 274.5,311.5 Z"/></g>
<g><path style="opacity:0.008" fill="#0070e1" d="M 190.5,313.5 C 190.5,313.167 190.5,312.833 190.5,312.5C 191.167,312.5 191.833,312.5 192.5,312.5C 192.158,313.338 191.492,313.672 190.5,313.5 Z"/></g>
<g><path style="opacity:0.012" fill="#1654d3" d="M 187.5,314.5 C 187.5,314.167 187.5,313.833 187.5,313.5C 188.5,313.5 189.5,313.5 190.5,313.5C 189.791,314.404 188.791,314.737 187.5,314.5 Z"/></g>
<g><path style="opacity:0.012" fill="#193cd3" d="M 184.5,315.5 C 184.5,315.167 184.5,314.833 184.5,314.5C 185.5,314.5 186.5,314.5 187.5,314.5C 186.791,315.404 185.791,315.737 184.5,315.5 Z"/></g>
<g><path style="opacity:0.012" fill="#135f9f" d="M 181.5,316.5 C 181.5,316.167 181.5,315.833 181.5,315.5C 182.5,315.5 183.5,315.5 184.5,315.5C 183.791,316.404 182.791,316.737 181.5,316.5 Z"/></g>
<g><path style="opacity:0.008" fill="#7cabf0" d="M 224.5,312.5 C 224.5,314.167 224.5,315.833 224.5,317.5C 223.167,315.833 223.167,314.167 224.5,312.5 Z"/></g>
<g><path style="opacity:0.012" fill="#2155b2" d="M 177.5,317.5 C 177.5,317.167 177.5,316.833 177.5,316.5C 178.833,316.5 180.167,316.5 181.5,316.5C 180.432,317.434 179.099,317.768 177.5,317.5 Z"/></g>
<g><path style="opacity:0.012" fill="#8d9fc8" d="M 259.5,317.5 C 259.5,317.167 259.5,316.833 259.5,316.5C 263.5,316.833 263.5,317.167 259.5,317.5 Z"/></g>
<g><path style="opacity:0.012" fill="#235cbd" d="M 171.5,318.5 C 171.5,318.167 171.5,317.833 171.5,317.5C 173.5,317.5 175.5,317.5 177.5,317.5C 175.735,318.461 173.735,318.795 171.5,318.5 Z"/></g>
<g><path style="opacity:0.012" fill="#6fb3b3" d="M 256.5,318.5 C 256.5,318.167 256.5,317.833 256.5,317.5C 257.5,317.5 258.5,317.5 259.5,317.5C 258.791,318.404 257.791,318.737 256.5,318.5 Z"/></g>
<g><path style="opacity:0.012" fill="#225ddc" d="M 159.5,319.5 C 159.5,319.167 159.5,318.833 159.5,318.5C 163.5,318.5 167.5,318.5 171.5,318.5C 167.702,319.483 163.702,319.817 159.5,319.5 Z"/></g>
<g><path style="opacity:0.012" fill="#99bfd4" d="M 253.5,319.5 C 253.5,319.167 253.5,318.833 253.5,318.5C 254.5,318.5 255.5,318.5 256.5,318.5C 255.791,319.404 254.791,319.737 253.5,319.5 Z"/></g>
<g><path style="opacity:0.004" fill="#000000" d="M 159.5,319.5 C 158.833,320.167 158.833,320.167 159.5,319.5 Z"/></g>
<g><path style="opacity:0.012" fill="#7d90dd" d="M 249.5,320.5 C 249.5,320.167 249.5,319.833 249.5,319.5C 250.833,319.5 252.167,319.5 253.5,319.5C 252.432,320.434 251.099,320.768 249.5,320.5 Z"/></g>
<g><path style="opacity:0.012" fill="#6e95ff" d="M 249.5,320.5 C 248.749,321.573 247.749,321.74 246.5,321C 247.448,320.517 248.448,320.351 249.5,320.5 Z"/></g>
<g><path style="opacity:0.008" fill="#b0a7ff" d="M 229.5,321.5 C 229.5,321.833 229.5,322.167 229.5,322.5C 226.833,322.167 226.833,321.833 229.5,321.5 Z"/></g>
<g><path style="opacity:0.012" fill="#96b3de" d="M 242.5,322.5 C 242.5,322.167 242.5,321.833 242.5,321.5C 246.5,321.833 246.5,322.167 242.5,322.5 Z"/></g>
<g><path style="opacity:0.012" fill="#7494dd" d="M 229.5,322.5 C 230.552,322.351 231.552,322.517 232.5,323C 231.251,323.74 230.251,323.573 229.5,322.5 Z"/></g>
<g><path style="opacity:0.012" fill="#70b7cc" d="M 237.5,323.5 C 237.5,323.167 237.5,322.833 237.5,322.5C 239.167,322.5 240.833,322.5 242.5,322.5C 241.081,323.451 239.415,323.784 237.5,323.5 Z"/></g>
<g><path style="opacity:0.004" fill="#57a7ff" d="M 237.5,323.5 C 236.399,324.598 235.066,324.765 233.5,324C 234.793,323.51 236.127,323.343 237.5,323.5 Z"/></g>
<g><path style="opacity:0.004" fill="#1c09d6" d="M 130.5,327.5 C 132.288,326.378 134.288,326.211 136.5,327C 134.527,327.495 132.527,327.662 130.5,327.5 Z"/></g>
<g><path style="opacity:0.008" fill="#28759e" d="M 73.5,328.5 C 75.6282,327.371 77.9615,327.204 80.5,328C 78.1902,328.497 75.8568,328.663 73.5,328.5 Z"/></g>
<g><path style="opacity:0.016" fill="#0f49d0" d="M 137.5,328.5 C 138.946,327.387 140.613,327.22 142.5,328C 140.866,328.494 139.199,328.66 137.5,328.5 Z"/></g>
<g><path style="opacity:0.008" fill="#0a7aff" d="M 165.5,328.5 C 177.326,327.34 189.326,327.174 201.5,328C 189.505,328.5 177.505,328.667 165.5,328.5 Z"/></g>
<g><path style="opacity:0.008" fill="#1b77f3" d="M 209.5,328.5 C 217.99,327.343 226.657,327.176 235.5,328C 226.84,328.5 218.173,328.666 209.5,328.5 Z"/></g>
<g><path style="opacity:0.016" fill="#0f43c3" d="M 236.5,329.5 C 237.601,328.402 238.934,328.235 240.5,329C 239.207,329.49 237.873,329.657 236.5,329.5 Z"/></g>
<g><path style="opacity:0.921" fill="#1b54c9" d="M 68.5,334.5 C 71.5808,330.04 75.9141,328.373 81.5,329.5C 81.3334,343.837 81.5001,358.171 82,372.5C 82.8332,316.504 83.3332,316.504 83.5,372.5C 91.5069,372.334 99.5069,372.5 107.5,373C 71.5062,373.833 71.5062,374.333 107.5,374.5C 107.5,378.167 107.5,381.833 107.5,385.5C 94.5,385.5 81.5,385.5 68.5,385.5C 68.5,368.5 68.5,351.5 68.5,334.5 Z"/></g>
<g><path style="opacity:0.936" fill="#1b54c6" d="M 195.5,357.5 C 195.262,359.404 194.262,360.738 192.5,361.5C 191.833,360.167 191.167,360.167 190.5,361.5C 166.5,361.833 166.5,362.167 190.5,362.5C 185.695,363.487 180.695,363.821 175.5,363.5C 175.333,391.492 174.833,391.492 174,363.5C 173.5,370.826 173.334,378.159 173.5,385.5C 169.167,385.5 164.833,385.5 160.5,385.5C 160.83,368.325 160.497,351.325 159.5,334.5C 159.541,332.255 160.375,331.588 162,332.5C 162.903,331.299 164.069,330.465 165.5,330C 177.495,329.5 189.495,329.333 201.5,329.5C 201.5,333.167 201.5,336.833 201.5,340.5C 162.839,340.667 162.839,341.167 201.5,342C 192.84,342.5 184.173,342.666 175.5,342.5C 175.329,353.146 174.829,353.146 174,342.5C 173.502,345.482 173.335,348.482 173.5,351.5C 180.5,351.5 187.5,351.5 194.5,351.5C 194.205,353.735 194.539,355.735 195.5,357.5 Z"/></g>
<g><path style="opacity:0.962" fill="#1a55c5" d="M 249.5,347.5 C 248.167,348.5 248.167,349.5 249.5,350.5C 249.573,352.027 248.906,353.027 247.5,353.5C 247.167,352.167 246.833,352.167 246.5,353.5C 245.522,353.811 244.855,354.478 244.5,355.5C 245.76,356.382 246.926,357.382 248,358.5C 248.333,358.167 248.667,357.833 249,357.5C 250.372,358.91 251.205,360.577 251.5,362.5C 250.167,363.5 250.167,364.5 251.5,365.5C 251.5,367.5 251.5,369.5 251.5,371.5C 250.167,372.5 250.167,373.5 251.5,374.5C 251.771,376.38 251.104,377.713 249.5,378.5C 249.167,377.167 248.833,377.167 248.5,378.5C 247.833,378.5 247.5,378.833 247.5,379.5C 246.833,379.5 246.5,379.833 246.5,380.5C 245.833,380.5 245.5,380.833 245.5,381.5C 244.833,381.5 244.5,381.833 244.5,382.5C 243.508,382.328 242.842,382.662 242.5,383.5C 241.508,383.328 240.842,383.662 240.5,384.5C 238.901,384.232 237.568,384.566 236.5,385.5C 226.167,385.5 215.833,385.5 205.5,385.5C 205.83,367.992 205.497,350.659 204.5,333.5C 204.541,331.255 205.375,330.588 207,331.5C 207.75,330.874 208.584,330.374 209.5,330C 219.885,329.13 230.218,329.464 240.5,331C 243.558,332.883 246.392,334.383 249,335.5C 249.638,336.609 250.138,337.775 250.5,339C 249.652,341.77 249.319,344.603 249.5,347.5 Z M 233.5,342.5 C 234.341,344.379 234.675,346.379 234.5,348.5C 227.833,348.833 227.833,349.167 234.5,349.5C 229.766,351.145 224.766,351.811 219.5,351.5C 219.5,348.5 219.5,345.5 219.5,342.5C 224.167,342.5 228.833,342.5 233.5,342.5 Z M 234.5,363.5 C 235.227,365.735 236.227,367.069 237.5,367.5C 236.167,367.833 236.167,368.167 237.5,368.5C 237.607,370.379 237.107,370.712 236,369.5C 235.302,370.691 234.469,371.691 233.5,372.5C 228.833,372.5 224.167,372.5 219.5,372.5C 219.5,369.5 219.5,366.5 219.5,363.5C 224.5,363.5 229.5,363.5 234.5,363.5 Z"/></g>
<g><path style="opacity:0.016" fill="#043ebe" d="M 204.5,333.5 C 204.667,350.837 204.5,368.17 204,385.5C 203.503,366.821 203.17,348.154 203,329.5C 203.21,331.058 203.71,332.391 204.5,333.5 Z"/></g>
<g><path style="opacity:0.979" fill="#1a56c6" d="M 155.5,342.5 C 154.549,343.919 154.216,345.585 154.5,347.5C 151.833,347.5 149.167,347.5 146.5,347.5C 144.897,346.404 143.397,345.07 142,343.5C 141.086,344.654 140.253,344.487 139.5,343C 140.167,342.667 140.833,342.333 141.5,342C 136.657,339.165 131.657,338.832 126.5,341C 127.167,341.333 127.833,341.667 128.5,342C 125.833,344 125.833,346 128.5,348C 127.833,348.333 127.167,348.667 126.5,349C 129.312,350.549 132.312,351.382 135.5,351.5C 142.785,353.747 149.619,356.414 156,359.5C 155.928,364.543 156.428,369.543 157.5,374.5C 157.002,377.326 155.669,379.66 153.5,381.5C 153.167,380.167 152.833,380.167 152.5,381.5C 151.508,381.328 150.842,381.662 150.5,382.5C 149.833,382.5 149.5,382.833 149.5,383.5C 148.508,383.328 147.842,383.662 147.5,384.5C 144.933,384.721 142.599,385.388 140.5,386.5C 132.167,387.497 124.5,385.831 117.5,381.5C 117.5,380.833 117.167,380.5 116.5,380.5C 116.5,379.833 116.167,379.5 115.5,379.5C 115.5,378.833 115.167,378.5 114.5,378.5C 114.167,377.167 113.833,377.167 113.5,378.5C 112.662,378.158 112.328,377.492 112.5,376.5C 113.833,375.833 113.833,375.167 112.5,374.5C 112.768,372.901 112.434,371.568 111.5,370.5C 111.5,369.5 111.5,368.5 111.5,367.5C 115.514,367.334 119.514,367.501 123.5,368C 124.253,369.487 125.086,369.654 126,368.5C 126.273,370.329 127.107,371.829 128.5,373C 125.833,373.667 125.833,374.333 128.5,375C 133.287,375.879 137.953,375.545 142.5,374C 142.5,371.333 142.5,368.667 142.5,366C 135.136,363.827 127.803,361.66 120.5,359.5C 118.533,357.269 116.366,355.936 114,355.5C 112.441,353.783 111.608,351.783 111.5,349.5C 112.222,345.886 113.222,342.219 114.5,338.5C 113.089,336.983 113.256,335.649 115,334.5C 115.333,334.833 115.667,335.167 116,335.5C 120.785,330.734 126.619,328.401 133.5,328.5C 140.948,328.366 147.115,331.033 152,336.5C 152.333,336.167 152.667,335.833 153,335.5C 154.411,337.65 155.245,339.984 155.5,342.5 Z"/></g>
<g><path style="opacity:0.008" fill="#0070e1" d="M 68.5,334.5 C 68.1667,334.5 67.8333,334.5 67.5,334.5C 67.8333,331.833 68.1667,331.833 68.5,334.5 Z"/></g>
<g><path style="opacity:0.008" fill="#077bff" d="M 67.5,334.5 C 67.6666,351.503 67.4999,368.503 67,385.5C 66.1716,368.328 66.3383,351.328 67.5,334.5 Z"/></g>
<g><path style="opacity:0.004" fill="#121df1" d="M 159.5,334.5 C 159.667,351.17 159.5,367.837 159,384.5C 158.821,380.975 158.321,377.641 157.5,374.5C 157.917,360.999 158.584,347.666 159.5,334.5 Z"/></g>
<g><path style="opacity:0.008" fill="#2859d5" d="M 250.5,347.5 C 250.338,345.473 250.505,343.473 251,341.5C 251.789,343.712 251.622,345.712 250.5,347.5 Z"/></g>
<g><path style="opacity:0.008" fill="#1e5fff" d="M 111.5,349.5 C 110.371,347.372 110.204,345.039 111,342.5C 111.497,344.81 111.663,347.143 111.5,349.5 Z"/></g>
<g><path style="opacity:0.016" fill="#063eb3" d="M 155.5,342.5 C 156.598,343.601 156.765,344.934 156,346.5C 155.51,345.207 155.343,343.873 155.5,342.5 Z"/></g>
<g><path style="opacity:0.004" fill="#152fff" d="M 329.5,347.5 C 331.288,346.378 333.288,346.211 335.5,347C 333.527,347.495 331.527,347.662 329.5,347.5 Z"/></g>
<g><path style="opacity:0.004" fill="#162df0" d="M 358.5,347.5 C 360.288,346.378 362.288,346.211 364.5,347C 362.527,347.495 360.527,347.662 358.5,347.5 Z"/></g>
<g><path style="opacity:0.008" fill="#0070e1" d="M 146.5,347.5 C 146.5,347.833 146.5,348.167 146.5,348.5C 143.833,348.167 143.833,347.833 146.5,347.5 Z"/></g>
<g><path style="opacity:0.004" fill="#0000ff" d="M 146.5,348.5 C 148.857,348.337 151.19,348.503 153.5,349C 150.961,349.796 148.628,349.629 146.5,348.5 Z"/></g>
<g><path style="opacity:0.016" fill="#205fbe" d="M 249.5,347.5 C 249.833,347.5 250.167,347.5 250.5,347.5C 250.737,348.791 250.404,349.791 249.5,350.5C 249.5,349.5 249.5,348.5 249.5,347.5 Z"/></g>
<g><path style="opacity:0.012" fill="#0054aa" d="M 367.5,350.5 C 366.833,349.167 366.833,349.167 367.5,350.5 Z"/></g>
<g><path style="opacity:0.016" fill="#2256be" d="M 135.5,351.5 C 136.251,350.427 137.251,350.26 138.5,351C 137.552,351.483 136.552,351.649 135.5,351.5 Z"/></g>
<g><path style="opacity:0.962" fill="#1b54c2" d="M 341.5,355.5 C 346.503,355.085 350.67,356.752 354,360.5C 355.262,356.687 355.929,352.687 356,348.5C 356.499,353.489 356.666,358.489 356.5,363.5C 356.06,366.962 356.06,370.629 356.5,374.5C 355.167,375.5 355.167,376.5 356.5,377.5C 356.663,379.857 356.497,382.19 356,384.5C 355.768,383.263 355.268,382.263 354.5,381.5C 354.167,380.167 353.833,380.167 353.5,381.5C 352.833,381.5 352.5,381.833 352.5,382.5C 351.833,382.5 351.5,382.833 351.5,383.5C 350.833,383.5 350.5,383.833 350.5,384.5C 349.508,384.328 348.842,384.662 348.5,385.5C 343.453,385.663 338.453,385.329 333.5,384.5C 331.449,382.89 329.449,381.223 327.5,379.5C 328.427,369.206 328.76,358.872 328.5,348.5C 331.545,348.704 334.379,348.704 337,348.5C 338.319,350.25 338.819,352.25 338.5,354.5C 339.791,354.263 340.791,354.596 341.5,355.5 Z M 341.5,355.5 C 340.486,356.674 339.153,357.34 337.5,357.5C 337.5,357.167 337.5,356.833 337.5,356.5C 338.708,355.766 340.041,355.433 341.5,355.5 Z M 339.5,365.5 C 344.239,364.407 346.239,366.24 345.5,371C 346.239,375.76 344.239,377.593 339.5,376.5C 339.462,374.364 338.795,373.031 337.5,372.5C 338.404,371.791 338.737,370.791 338.5,369.5C 339.434,368.432 339.768,367.099 339.5,365.5 Z"/></g>
<g><path style="opacity:0.012" fill="#1244c4" d="M 139.5,352.5 C 140.251,351.427 141.251,351.26 142.5,352C 141.552,352.483 140.552,352.649 139.5,352.5 Z"/></g>
<g><path style="opacity:0.012" fill="#0b4df2" d="M 195.5,357.5 C 195.338,355.473 195.505,353.473 196,351.5C 196.789,353.712 196.622,355.712 195.5,357.5 Z"/></g>
<g><path style="opacity:0.999" fill="#1955c7" d="M 366.5,350.5 C 366.5,362.167 366.5,373.833 366.5,385.5C 363.5,385.5 360.5,385.5 357.5,385.5C 357.806,382.615 357.473,379.948 356.5,377.5C 356.5,376.5 356.5,375.5 356.5,374.5C 357.62,370.983 357.62,367.316 356.5,363.5C 357.487,358.695 357.821,353.695 357.5,348.5C 360.838,348.065 363.838,348.732 366.5,350.5 Z"/></g>
<g><path style="opacity:0.012" fill="#0652ae" d="M 367.5,350.5 C 368.659,361.993 368.826,373.659 368,385.5C 367.5,373.838 367.333,362.171 367.5,350.5 Z"/></g>
<g><path style="opacity:0.012" fill="#0054aa" d="M 246.5,353.5 C 246.833,353.5 247.167,353.5 247.5,353.5C 247.315,354.17 246.981,354.17 246.5,353.5 Z"/></g>
<g><path style="opacity:0.961" fill="#1a55c7" d="M 326.5,379.5 C 325.662,379.842 325.328,380.508 325.5,381.5C 324.833,381.5 324.5,381.833 324.5,382.5C 323.833,382.5 323.5,382.833 323.5,383.5C 322.833,383.5 322.5,383.833 322.5,384.5C 321.508,384.328 320.842,384.662 320.5,385.5C 317.167,385.833 313.833,386.167 310.5,386.5C 307.231,385.775 304.398,384.108 302,381.5C 300.571,381.47 299.071,381.803 297.5,382.5C 297.167,381.167 296.833,381.167 296.5,382.5C 295.833,382.5 295.5,382.833 295.5,383.5C 294.508,383.328 293.842,383.662 293.5,384.5C 292.508,384.328 291.842,384.662 291.5,385.5C 289.901,385.232 288.568,385.566 287.5,386.5C 284.031,386.453 280.698,385.787 277.5,384.5C 276.458,382.209 274.958,381.209 273,381.5C 272.457,378.83 272.957,376.33 274.5,374C 274.265,373.127 273.931,372.293 273.5,371.5C 275.659,370.567 277.993,369.233 280.5,367.5C 283.727,367.324 286.727,366.657 289.5,365.5C 290.833,364.833 290.833,364.167 289.5,363.5C 287.833,362.167 286.167,362.167 284.5,363.5C 283.833,363.5 283.5,363.833 283.5,364.5C 280.061,364.747 276.728,364.414 273.5,363.5C 273.413,360.402 273.913,360.068 275,362.5C 277.34,357.381 281.34,355.048 287,355.5C 290.651,355.495 293.984,356.495 297,358.5C 298.558,357.655 299.558,358.321 300,360.5C 303.687,357.784 308.187,356.117 313.5,355.5C 316.889,355.518 319.889,356.518 322.5,358.5C 322.5,359.167 322.833,359.5 323.5,359.5C 323.5,360.167 323.833,360.5 324.5,360.5C 324.833,361.833 325.167,361.833 325.5,360.5C 326.324,356.688 326.824,352.688 327,348.5C 327.672,358.852 327.506,369.186 326.5,379.5 Z M 325.5,370.5 C 325.5,369.833 325.167,369.5 324.5,369.5C 324.611,368.883 324.944,368.383 325.5,368C 324.251,367.26 323.251,367.427 322.5,368.5C 318.603,367.945 314.937,366.945 311.5,365.5C 313.167,365.5 314.833,365.5 316.5,365.5C 316.833,366.833 317.167,366.833 317.5,365.5C 320.096,366.265 322.763,366.599 325.5,366.5C 326.62,363.192 326.62,364.525 325.5,370.5 Z M 300.5,368.5 C 300.338,370.527 300.505,372.527 301,374.5C 301.232,373.263 301.732,372.263 302.5,371.5C 303.375,373.806 304.708,374.473 306.5,373.5C 307.791,373.263 308.791,373.596 309.5,374.5C 308.833,374.5 308.5,374.833 308.5,375.5C 305.833,375.5 303.167,375.5 300.5,375.5C 300.5,376.833 300.5,378.167 300.5,379.5C 299.305,379.134 298.639,378.301 298.5,377C 299.035,374.004 299.702,371.171 300.5,368.5 Z M 286.5,374.5 C 287.833,374.5 288.5,375.167 288.5,376.5C 285.833,376.833 285.833,377.167 288.5,377.5C 286.754,379.855 284.754,380.022 282.5,378C 284.027,376.968 285.36,375.801 286.5,374.5 Z M 314.5,376.5 C 314.082,377.222 313.416,377.722 312.5,378C 313.793,378.49 315.127,378.657 316.5,378.5C 314.228,379.764 311.895,379.598 309.5,378C 311.025,376.991 312.692,376.491 314.5,376.5 Z"/></g>
<g><path style="opacity:0.012" fill="#0054aa" d="M 120.5,359.5 C 119.833,360.167 119.833,360.167 120.5,359.5 Z"/></g>
<g><path style="opacity:0.012" fill="#1f37a0" d="M 322.5,358.5 C 324.332,357.282 325.332,357.949 325.5,360.5C 325.167,360.5 324.833,360.5 324.5,360.5C 323.833,360.5 323.5,360.167 323.5,359.5C 322.833,359.5 322.5,359.167 322.5,358.5 Z"/></g>
<g><path style="opacity:0.012" fill="#0054ff" d="M 121.5,360.5 C 122.833,361.167 122.833,361.167 121.5,360.5 Z"/></g>
<g><path style="opacity:0.004" fill="#1d1f4e" d="M 190.5,362.5 C 190.5,362.167 190.5,361.833 190.5,361.5C 191.167,361.5 191.833,361.5 192.5,361.5C 192.158,362.338 191.492,362.672 190.5,362.5 Z"/></g>
<g><path style="opacity:0.016" fill="#054ab4" d="M 251.5,362.5 C 252.833,363.5 252.833,364.5 251.5,365.5C 251.5,364.5 251.5,363.5 251.5,362.5 Z"/></g>
<g><path style="opacity:0.004" fill="#0000ff" d="M 273.5,363.5 C 272.833,364.167 272.833,364.167 273.5,363.5 Z"/></g>
<g><path style="opacity:0.016" fill="#1247c5" d="M 284.5,363.5 C 286.167,363.5 287.833,363.5 289.5,363.5C 289.5,364.167 289.5,364.833 289.5,365.5C 287.5,365.5 285.5,365.5 283.5,365.5C 283.5,365.167 283.5,364.833 283.5,364.5C 284.167,364.5 284.5,364.167 284.5,363.5 Z"/></g>
<g><path style="opacity:0.016" fill="#0f42c7" d="M 310.5,364.5 C 310.5,364.167 310.5,363.833 310.5,363.5C 312.167,363.5 313.833,363.5 315.5,363.5C 315.5,364.167 315.833,364.5 316.5,364.5C 316.5,364.833 316.5,365.167 316.5,365.5C 314.833,365.5 313.167,365.5 311.5,365.5C 311.5,364.833 311.167,364.5 310.5,364.5 Z"/></g>
<g><path style="opacity:0.016" fill="#0142c2" d="M 112.5,366.5 C 115.976,365.357 119.642,365.19 123.5,366C 119.848,366.499 116.182,366.665 112.5,366.5 Z"/></g>
<g><path style="opacity:0.02" fill="#1654cd" d="M 283.5,365.5 C 282.5,366.167 281.5,366.833 280.5,367.5C 278.821,367.108 277.154,366.608 275.5,366C 278.146,365.503 280.813,365.336 283.5,365.5 Z"/></g>
<g><path style="opacity:0.004" fill="#1e0bcf" d="M 252.5,371.5 C 252.34,369.801 252.506,368.134 253,366.5C 253.78,368.387 253.613,370.054 252.5,371.5 Z"/></g>
<g><path style="opacity:0.004" fill="#220eb8" d="M 110.5,370.5 C 109.427,369.749 109.26,368.749 110,367.5C 110.483,368.448 110.649,369.448 110.5,370.5 Z"/></g>
<g><path style="opacity:0.004" fill="#0000ff" d="M 276.5,367.5 C 277.833,368.167 277.833,368.167 276.5,367.5 Z"/></g>
<g><path style="opacity:0.008" fill="#2d6ac1" d="M 322.5,368.5 C 323.251,367.427 324.251,367.26 325.5,368C 324.944,368.383 324.611,368.883 324.5,369.5C 324.167,369.5 323.833,369.5 323.5,369.5C 323.5,368.833 323.167,368.5 322.5,368.5 Z"/></g>
<g><path style="opacity:0.016" fill="#245aa5" d="M 110.5,370.5 C 110.833,370.5 111.167,370.5 111.5,370.5C 111.5,371.833 111.5,373.167 111.5,374.5C 110.566,373.432 110.232,372.099 110.5,370.5 Z"/></g>
<g><path style="opacity:0.016" fill="#0654c9" d="M 251.5,371.5 C 251.833,371.5 252.167,371.5 252.5,371.5C 252.737,372.791 252.404,373.791 251.5,374.5C 251.5,373.5 251.5,372.5 251.5,371.5 Z"/></g>
<g><path style="opacity:0.016" fill="#0541c9" d="M 108.5,374.5 C 109.643,377.976 109.81,381.642 109,385.5C 108.501,381.848 108.335,378.182 108.5,374.5 Z"/></g>
<g><path style="opacity:0.016" fill="#0654d3" d="M 111.5,374.5 C 111.833,374.5 112.167,374.5 112.5,374.5C 112.5,375.167 112.5,375.833 112.5,376.5C 111.662,376.158 111.328,375.492 111.5,374.5 Z"/></g>
<g><path style="opacity:0.012" fill="#0054ff" d="M 248.5,378.5 C 248.833,378.5 249.167,378.5 249.5,378.5C 249.315,379.17 248.981,379.17 248.5,378.5 Z"/></g>
<g><path style="opacity:0.004" fill="#1d3266" d="M 113.5,378.5 C 113.833,378.5 114.167,378.5 114.5,378.5C 115.167,378.5 115.5,378.833 115.5,379.5C 116.167,379.5 116.5,379.833 116.5,380.5C 117.167,380.5 117.5,380.833 117.5,381.5C 115.275,382.332 113.942,381.332 113.5,378.5 Z"/></g>
<g><path style="opacity:0.016" fill="#003ebf" d="M 247.5,379.5 C 247.833,379.5 248.167,379.5 248.5,379.5C 248.315,380.17 247.981,380.17 247.5,379.5 Z"/></g>
<g><path style="opacity:0.012" fill="#0054aa" d="M 246.5,380.5 C 246.833,380.5 247.167,380.5 247.5,380.5C 247.315,381.17 246.981,381.17 246.5,380.5 Z"/></g>
<g><path style="opacity:0.012" fill="#0062c5" d="M 326.5,379.5 C 326.833,379.5 327.167,379.5 327.5,379.5C 327.672,380.492 327.338,381.158 326.5,381.5C 326.5,380.833 326.5,380.167 326.5,379.5 Z"/></g>
<g><path style="opacity:0.004" fill="#0000ff" d="M 152.5,381.5 C 152.833,381.5 153.167,381.5 153.5,381.5C 153.315,382.17 152.981,382.17 152.5,381.5 Z"/></g>
<g><path style="opacity:0.012" fill="#0054aa" d="M 245.5,381.5 C 245.833,381.5 246.167,381.5 246.5,381.5C 246.315,382.17 245.981,382.17 245.5,381.5 Z"/></g>
<g><path style="opacity:0.012" fill="#0054aa" d="M 325.5,381.5 C 325.833,381.5 326.167,381.5 326.5,381.5C 326.315,382.17 325.981,382.17 325.5,381.5 Z"/></g>
<g><path style="opacity:0.012" fill="#0054ff" d="M 353.5,381.5 C 353.833,381.5 354.167,381.5 354.5,381.5C 354.315,382.17 353.981,382.17 353.5,381.5 Z"/></g>
<g><path style="opacity:0.004" fill="#4f6dff" d="M 150.5,383.5 C 150.5,383.167 150.5,382.833 150.5,382.5C 151.167,382.5 151.833,382.5 152.5,382.5C 152.158,383.338 151.492,383.672 150.5,383.5 Z"/></g>
<g><path style="opacity:0.012" fill="#0054aa" d="M 244.5,382.5 C 244.833,382.5 245.167,382.5 245.5,382.5C 245.315,383.17 244.981,383.17 244.5,382.5 Z"/></g>
<g><path style="opacity:0.008" fill="#007f7e" d="M 296.5,382.5 C 296.833,382.5 297.167,382.5 297.5,382.5C 297.315,383.17 296.981,383.17 296.5,382.5 Z"/></g>
<g><path style="opacity:0.012" fill="#0054aa" d="M 324.5,382.5 C 324.833,382.5 325.167,382.5 325.5,382.5C 325.315,383.17 324.981,383.17 324.5,382.5 Z"/></g>
<g><path style="opacity:0.012" fill="#0054ff" d="M 352.5,382.5 C 352.833,382.5 353.167,382.5 353.5,382.5C 353.315,383.17 352.981,383.17 352.5,382.5 Z"/></g>
<g><path style="opacity:0.012" fill="#0054ff" d="M 149.5,383.5 C 149.833,383.5 150.167,383.5 150.5,383.5C 150.315,384.17 149.981,384.17 149.5,383.5 Z"/></g>
<g><path style="opacity:0.008" fill="#1d7fa8" d="M 242.5,384.5 C 242.5,384.167 242.5,383.833 242.5,383.5C 243.167,383.5 243.833,383.5 244.5,383.5C 244.158,384.338 243.492,384.672 242.5,384.5 Z"/></g>
<g><path style="opacity:0.008" fill="#007f7e" d="M 295.5,383.5 C 295.833,383.5 296.167,383.5 296.5,383.5C 296.315,384.17 295.981,384.17 295.5,383.5 Z"/></g>
<g><path style="opacity:0.012" fill="#0054aa" d="M 323.5,383.5 C 323.833,383.5 324.167,383.5 324.5,383.5C 324.315,384.17 323.981,384.17 323.5,383.5 Z"/></g>
<g><path style="opacity:0.012" fill="#0054aa" d="M 351.5,383.5 C 351.833,383.5 352.167,383.5 352.5,383.5C 352.315,384.17 351.981,384.17 351.5,383.5 Z"/></g>
<g><path style="opacity:0.008" fill="#15718d" d="M 147.5,385.5 C 147.5,385.167 147.5,384.833 147.5,384.5C 148.167,384.5 148.833,384.5 149.5,384.5C 149.158,385.338 148.492,385.672 147.5,385.5 Z"/></g>
<g><path style="opacity:0.008" fill="#0971ff" d="M 240.5,385.5 C 240.5,385.167 240.5,384.833 240.5,384.5C 241.167,384.5 241.833,384.5 242.5,384.5C 242.158,385.338 241.492,385.672 240.5,385.5 Z"/></g>
<g><path style="opacity:0.012" fill="#0054aa" d="M 277.5,384.5 C 277.5,384.833 277.5,385.167 277.5,385.5C 276.83,385.019 276.83,384.685 277.5,384.5 Z"/></g>
<g><path style="opacity:0.004" fill="#1d3fff" d="M 293.5,385.5 C 293.5,385.167 293.5,384.833 293.5,384.5C 294.167,384.5 294.833,384.5 295.5,384.5C 295.158,385.338 294.492,385.672 293.5,385.5 Z"/></g>
<g><path style="opacity:0.012" fill="#0054aa" d="M 322.5,384.5 C 322.833,384.5 323.167,384.5 323.5,384.5C 323.315,385.17 322.981,385.17 322.5,384.5 Z"/></g>
<g><path style="opacity:0.008" fill="#007eff" d="M 333.5,384.5 C 333.5,384.833 333.5,385.167 333.5,385.5C 332.83,385.019 332.83,384.685 333.5,384.5 Z"/></g>
<g><path style="opacity:0.012" fill="#0054aa" d="M 350.5,384.5 C 350.833,384.5 351.167,384.5 351.5,384.5C 351.315,385.17 350.981,385.17 350.5,384.5 Z"/></g>
<g><path style="opacity:0.008" fill="#0669e9" d="M 147.5,385.5 C 147.103,386.525 146.437,386.692 145.5,386C 146.094,385.536 146.761,385.369 147.5,385.5 Z"/></g>
<g><path style="opacity:0.016" fill="#0a35e5" d="M 236.5,386.5 C 236.5,386.167 236.5,385.833 236.5,385.5C 237.833,385.5 239.167,385.5 240.5,385.5C 239.432,386.434 238.099,386.768 236.5,386.5 Z"/></g>
<g><path style="opacity:0.008" fill="#007eff" d="M 277.5,385.5 C 278.833,386.167 278.833,386.167 277.5,385.5 Z"/></g>
<g><path style="opacity:0.012" fill="#0062c5" d="M 291.5,386.5 C 291.5,386.167 291.5,385.833 291.5,385.5C 292.167,385.5 292.833,385.5 293.5,385.5C 293.158,386.338 292.492,386.672 291.5,386.5 Z"/></g>
<g><path style="opacity:0.008" fill="#2973a9" d="M 320.5,386.5 C 320.5,386.167 320.5,385.833 320.5,385.5C 321.167,385.5 321.833,385.5 322.5,385.5C 322.158,386.338 321.492,386.672 320.5,386.5 Z"/></g>
<g><path style="opacity:0.012" fill="#0b42ff" d="M 333.5,385.5 C 334.239,385.369 334.906,385.536 335.5,386C 334.563,386.692 333.897,386.525 333.5,385.5 Z"/></g>
<g><path style="opacity:0.004" fill="#0924e9" d="M 348.5,386.5 C 348.5,386.167 348.5,385.833 348.5,385.5C 349.167,385.5 349.833,385.5 350.5,385.5C 350.158,386.338 349.492,386.672 348.5,386.5 Z"/></g>
<g><path style="opacity:0.016" fill="#013fc2" d="M 68.5,387.5 C 81.3268,386.34 94.3268,386.173 107.5,387C 94.5043,387.5 81.5043,387.667 68.5,387.5 Z"/></g>
<g><path style="opacity:0.016" fill="#1d59be" d="M 140.5,387.5 C 140.5,387.167 140.5,386.833 140.5,386.5C 145.833,386.833 145.833,387.167 140.5,387.5 Z"/></g>
<g><path style="opacity:0.016" fill="#003ebf" d="M 161.5,387.5 C 164.976,386.357 168.642,386.19 172.5,387C 168.848,387.499 165.182,387.665 161.5,387.5 Z"/></g>
<g><path style="opacity:0.016" fill="#0344c6" d="M 236.5,386.5 C 226.342,387.659 216.008,387.825 205.5,387C 215.828,386.5 226.161,386.334 236.5,386.5 Z"/></g>
<g><path style="opacity:0.016" fill="#1d59be" d="M 287.5,387.5 C 287.5,387.167 287.5,386.833 287.5,386.5C 288.833,386.5 290.167,386.5 291.5,386.5C 290.432,387.434 289.099,387.768 287.5,387.5 Z"/></g>
<g><path style="opacity:0.004" fill="#223ee2" d="M 310.5,386.5 C 310.5,386.833 310.5,387.167 310.5,387.5C 305.167,387.167 305.167,386.833 310.5,386.5 Z"/></g>
<g><path style="opacity:0.016" fill="#0f4ae5" d="M 320.5,386.5 C 319.399,387.598 318.066,387.765 316.5,387C 317.793,386.51 319.127,386.343 320.5,386.5 Z"/></g>
<g><path style="opacity:0.016" fill="#1c47a4" d="M 348.5,386.5 C 344.689,387.645 340.689,387.812 336.5,387C 340.486,386.501 344.486,386.334 348.5,386.5 Z"/></g>
<g><path style="opacity:0.016" fill="#033ecc" d="M 358.5,387.5 C 360.966,386.366 363.633,386.199 366.5,387C 363.854,387.497 361.187,387.664 358.5,387.5 Z"/></g>
<g><path style="opacity:0.012" fill="#2258c0" d="M 140.5,387.5 C 136.689,388.645 132.689,388.812 128.5,388C 132.486,387.501 136.486,387.334 140.5,387.5 Z"/></g>
<g><path style="opacity:0.004" fill="#1e0bcf" d="M 287.5,387.5 C 286.054,388.613 284.387,388.78 282.5,388C 284.134,387.506 285.801,387.34 287.5,387.5 Z"/></g>
<g><path style="opacity:0.004" fill="#0000ff" d="M 310.5,387.5 C 312.199,387.34 313.866,387.506 315.5,388C 313.613,388.78 311.946,388.613 310.5,387.5 Z"/></g>
</svg>
