<?xml version="1.0" encoding="UTF-8"?>
<!DOCTYPE svg PUBLIC "-//W3C//DTD SVG 1.1//EN" "http://www.w3.org/Graphics/SVG/1.1/DTD/svg11.dtd">
<svg xmlns="http://www.w3.org/2000/svg" version="1.1" width="400px" height="400px" style="shape-rendering:geometricPrecision; text-rendering:geometricPrecision; image-rendering:optimizeQuality; fill-rule:evenodd; clip-rule:evenodd" xmlns:xlink="http://www.w3.org/1999/xlink">
<g><path style="opacity:0.999" fill="#fdfdfd" d="M -0.5,-0.5 C 7.16667,-0.5 14.8333,-0.5 22.5,-0.5C 22.3333,61.8342 22.5,124.168 23,186.5C 23.3826,187.056 23.8826,187.389 24.5,187.5C 25.8373,191.241 27.1706,194.908 28.5,198.5C 29.8281,201.497 31.1614,204.497 32.5,207.5C 33.4194,210.089 35.086,212.089 37.5,213.5C 38.1667,213.833 38.8333,214.167 39.5,214.5C 41.2393,217.243 43.5726,219.243 46.5,220.5C 46.9731,221.906 47.9731,222.573 49.5,222.5C 49.8417,223.338 50.5084,223.672 51.5,223.5C 53.3949,225.241 55.7282,226.241 58.5,226.5C 58.8333,226.5 59.1667,226.5 59.5,226.5C 61.7612,228.255 64.4278,229.422 67.5,230C 95.498,230.5 123.498,230.667 151.5,230.5C 153.833,230.5 156.167,230.5 158.5,230.5C 165.177,232.851 171.843,235.518 178.5,238.5C 179.585,240.587 181.251,241.92 183.5,242.5C 184.757,245.427 186.757,247.761 189.5,249.5C 190.89,250.899 191.89,252.566 192.5,254.5C 193.11,255.391 193.443,256.391 193.5,257.5C 193.5,258.167 193.5,258.833 193.5,259.5C 193.5,260.5 193.5,261.5 193.5,262.5C 194.833,262.5 196.167,262.5 197.5,262.5C 197.831,238.328 197.498,214.328 196.5,190.5C 196.5,171.167 196.5,151.833 196.5,132.5C 197.664,103.336 197.83,74.0029 197,44.5C 196.79,42.9419 196.29,41.6085 195.5,40.5C 195.34,38.847 194.674,37.5137 193.5,36.5C 193.241,33.7282 192.241,31.3949 190.5,29.5C 185.223,18.2234 176.89,9.8901 165.5,4.5C 163.383,2.3455 160.716,1.3455 157.5,1.5C 156.833,1.5 156.167,1.5 155.5,1.5C 155.167,0.833333 154.833,0.166667 154.5,-0.5C 185.167,-0.5 215.833,-0.5 246.5,-0.5C 246.167,0.166667 245.833,0.833333 245.5,1.5C 242.161,1.88973 238.827,2.38973 235.5,3C 234.29,4.0391 233.29,5.20577 232.5,6.5C 224.069,9.91915 217.402,15.5858 212.5,23.5C 210.062,25.9994 208.395,28.9994 207.5,32.5C 207.405,34.7857 206.738,36.7857 205.5,38.5C 204.662,38.8417 204.328,39.5084 204.5,40.5C 203.501,113.998 203.167,187.665 203.5,261.5C 204.5,261.5 205.5,261.5 206.5,261.5C 206.5,259.833 206.5,258.167 206.5,256.5C 206.5,256.167 206.5,255.833 206.5,255.5C 207.351,253.118 208.684,251.118 210.5,249.5C 213.833,246.833 216.833,243.833 219.5,240.5C 224.23,236.802 229.563,234.135 235.5,232.5C 238.456,231.863 241.456,231.363 244.5,231C 272.336,230.832 300.003,230.332 327.5,229.5C 330.385,229.806 333.052,229.473 335.5,228.5C 335.833,228.5 336.167,228.5 336.5,228.5C 340.1,227.956 343.6,226.956 347,225.5C 348.03,225.164 348.53,224.497 348.5,223.5C 349.605,222.4 350.938,221.733 352.5,221.5C 357.687,218.827 362.187,215.16 366,210.5C 367.122,208.593 367.955,206.593 368.5,204.5C 370.074,203.016 371.407,201.349 372.5,199.5C 373.897,195.547 375.397,191.547 377,187.5C 377.5,124.834 377.667,62.1676 377.5,-0.5C 384.833,-0.5 392.167,-0.5 399.5,-0.5C 399.5,132.833 399.5,266.167 399.5,399.5C 391.833,399.5 384.167,399.5 376.5,399.5C 376.598,397.447 375.931,395.78 374.5,394.5C 374.167,393.167 373.833,391.833 373.5,390.5C 373.073,387.99 372.407,385.657 371.5,383.5C 371.167,382.833 370.833,382.167 370.5,381.5C 370.179,380.183 369.846,378.849 369.5,377.5C 370.821,375.668 371.821,373.668 372.5,371.5C 373.54,367.22 373.706,362.887 373,358.5C 370.659,356.774 368.159,355.274 365.5,354C 358.508,353.5 351.508,353.334 344.5,353.5C 343.504,368.658 343.17,383.991 343.5,399.5C 335.5,399.5 327.5,399.5 319.5,399.5C 322.594,398.117 325.594,396.45 328.5,394.5C 330.825,393.345 331.992,391.345 332,388.5C 332.826,376.659 332.659,364.993 331.5,353.5C 328.5,353.5 325.5,353.5 322.5,353.5C 321.793,365.038 321.127,376.704 320.5,388.5C 318.593,391.332 315.927,392.166 312.5,391C 310.393,389.736 309.393,387.903 309.5,385.5C 309.5,374.5 309.5,363.5 309.5,352.5C 305.629,352.185 301.962,352.518 298.5,353.5C 298.333,365.505 298.5,377.505 299,389.5C 300.97,393.631 303.804,396.965 307.5,399.5C 300.833,399.5 294.167,399.5 287.5,399.5C 287.5,383.833 287.5,368.167 287.5,352.5C 281.974,352.179 276.64,352.512 271.5,353.5C 269.63,356.809 268.63,360.475 268.5,364.5C 267.85,366.435 267.517,368.435 267.5,370.5C 265.721,372.836 264.721,375.67 264.5,379C 264.164,380.03 263.497,380.53 262.5,380.5C 262.784,378.585 262.451,376.919 261.5,375.5C 261.59,372.848 260.924,370.515 259.5,368.5C 259.893,365.487 259.226,362.82 257.5,360.5C 257.326,358.139 256.993,355.806 256.5,353.5C 251.025,352.511 245.358,352.178 239.5,352.5C 239.17,368.009 239.504,383.342 240.5,398.5C 240.5,398.833 240.5,399.167 240.5,399.5C 237.5,399.5 234.5,399.5 231.5,399.5C 231.923,397.219 231.256,395.552 229.5,394.5C 228.739,389.89 227.405,385.556 225.5,381.5C 225.741,379.102 225.074,377.102 223.5,375.5C 223.5,375.167 223.5,374.833 223.5,374.5C 222.94,372.199 222.44,369.866 222,367.5C 221.617,366.944 221.117,366.611 220.5,366.5C 220.5,366.167 220.5,365.833 220.5,365.5C 220.59,362.848 219.924,360.515 218.5,358.5C 217.699,356.958 217.366,355.292 217.5,353.5C 213.116,353.174 208.783,353.508 204.5,354.5C 201.706,361.344 199.372,368.344 197.5,375.5C 196.249,377.382 195.082,379.382 194,381.5C 193.51,382.793 193.343,384.127 193.5,385.5C 193.109,389.073 192.109,392.407 190.5,395.5C 189.566,396.568 189.232,397.901 189.5,399.5C 186.833,399.5 184.167,399.5 181.5,399.5C 181.5,383.833 181.5,368.167 181.5,352.5C 177.958,352.187 174.625,352.521 171.5,353.5C 170.671,361.657 170.171,369.99 170,378.5C 169.617,377.944 169.117,377.611 168.5,377.5C 167.227,375.287 166.227,372.954 165.5,370.5C 165.245,368.033 164.245,366.033 162.5,364.5C 160.624,361.079 159.624,357.412 159.5,353.5C 155.167,353.5 150.833,353.5 146.5,353.5C 146.167,353.5 145.833,353.5 145.5,353.5C 144.504,368.658 144.17,383.991 144.5,399.5C 128.167,399.5 111.833,399.5 95.5,399.5C 95.5,396.5 95.5,393.5 95.5,390.5C 90.1667,390.5 84.8333,390.5 79.5,390.5C 79.5,387.167 79.5,383.833 79.5,380.5C 84.3633,380.819 89.03,380.486 93.5,379.5C 93.5,376.833 93.5,374.167 93.5,371.5C 89.03,370.514 84.3633,370.181 79.5,370.5C 79.5,367.833 79.5,365.167 79.5,362.5C 84.6946,362.821 89.6946,362.487 94.5,361.5C 94.8064,358.615 94.4731,355.948 93.5,353.5C 84.8333,352.167 76.1667,352.167 67.5,353.5C 66.5038,368.658 66.1705,383.991 66.5,399.5C 58.1667,399.5 49.8333,399.5 41.5,399.5C 41.5,399.167 41.5,398.833 41.5,398.5C 45.6073,398.877 49.274,397.877 52.5,395.5C 55.9464,394.388 57.9464,392.055 58.5,388.5C 60.6837,380.924 61.017,373.258 59.5,365.5C 59.573,363.973 58.9063,362.973 57.5,362.5C 55.9385,360.027 53.9385,358.027 51.5,356.5C 51.0269,355.094 50.0269,354.427 48.5,354.5C 47.1667,354.167 45.8333,353.833 44.5,353.5C 37.6866,352.509 30.6866,352.175 23.5,352.5C 23.5,368.167 23.5,383.833 23.5,399.5C 15.5,399.5 7.5,399.5 -0.5,399.5C -0.5,266.167 -0.5,132.833 -0.5,-0.5 Z"/></g>
<g><path style="opacity:1" fill="#ebf7e2" d="M 22.5,-0.5 C 22.8333,-0.5 23.1667,-0.5 23.5,-0.5C 23.1813,62.1894 23.5146,124.856 24.5,187.5C 23.8826,187.389 23.3826,187.056 23,186.5C 22.5,124.168 22.3333,61.8342 22.5,-0.5 Z"/></g>
<g><path style="opacity:1" fill="#88d054" d="M 23.5,-0.5 C 24.1667,-0.5 24.8333,-0.5 25.5,-0.5C 25.1667,62.8368 25.5,126.17 26.5,189.5C 27.6781,192.391 28.3447,195.391 28.5,198.5C 27.1706,194.908 25.8373,191.241 24.5,187.5C 23.5146,124.856 23.1813,62.1894 23.5,-0.5 Z"/></g>
<g><path style="opacity:0.999" fill="#6ec62e" d="M 25.5,-0.5 C 66.1667,-0.5 106.833,-0.5 147.5,-0.5C 147.414,0.495904 147.748,1.32924 148.5,2C 152.51,2.50126 156.51,3.00126 160.5,3.5C 162.216,3.62867 163.883,3.962 165.5,4.5C 176.89,9.8901 185.223,18.2234 190.5,29.5C 190.643,32.3852 191.643,34.7185 193.5,36.5C 193.259,38.8984 193.926,40.8984 195.5,42.5C 195.5,72.1667 195.5,101.833 195.5,131.5C 194.566,132.568 194.232,133.901 194.5,135.5C 192.805,137.897 191.472,140.563 190.5,143.5C 188.75,144.659 187.75,146.326 187.5,148.5C 185.167,150.167 183.167,152.167 181.5,154.5C 179.973,154.427 178.973,155.094 178.5,156.5C 174.502,158.708 170.502,160.708 166.5,162.5C 159.557,163.427 152.557,163.76 145.5,163.5C 145.5,162.833 145.167,162.5 144.5,162.5C 144.389,161.883 144.056,161.383 143.5,161C 141.134,160.56 138.801,160.06 136.5,159.5C 136.027,158.094 135.027,157.427 133.5,157.5C 128.201,154.201 123.868,149.868 120.5,144.5C 120.573,142.973 119.906,141.973 118.5,141.5C 118.167,140.167 117.833,138.833 117.5,137.5C 117.573,135.973 116.906,134.973 115.5,134.5C 115.5,134.167 115.5,133.833 115.5,133.5C 114.863,102.687 114.197,72.0201 113.5,41.5C 105.344,40.3434 97.0104,40.1768 88.5,41C 86.0261,41.0367 84.0261,41.87 82.5,43.5C 81.8333,43.5 81.5,43.8333 81.5,44.5C 79.1667,44.8333 77.8333,46.1667 77.5,48.5C 76.5,48.8333 75.8333,49.5 75.5,50.5C 73.0237,53.2882 72.0237,56.6215 72.5,60.5C 71.3369,83.9964 71.1702,107.663 72,131.5C 73.1841,137.557 74.6841,143.557 76.5,149.5C 76.9752,152.155 78.3085,154.155 80.5,155.5C 80.0246,158.313 81.0246,160.313 83.5,161.5C 83.2407,163.989 84.2407,165.656 86.5,166.5C 87.4013,167.29 88.0679,168.29 88.5,169.5C 89.0798,171.749 90.4131,173.415 92.5,174.5C 93.8333,175.5 95.1667,176.5 96.5,177.5C 97.5846,179.587 99.2512,180.92 101.5,181.5C 103.617,184.949 106.617,187.282 110.5,188.5C 110.973,189.906 111.973,190.573 113.5,190.5C 115.255,191.904 117.255,192.904 119.5,193.5C 119.973,194.906 120.973,195.573 122.5,195.5C 124.806,195.993 127.139,196.326 129.5,196.5C 129.611,197.117 129.944,197.617 130.5,198C 134.207,198.737 137.873,199.571 141.5,200.5C 141.918,201.222 142.584,201.722 143.5,202C 152.167,202.667 160.833,202.667 169.5,202C 172.584,200.893 175.584,199.727 178.5,198.5C 184.282,197.605 189.616,195.605 194.5,192.5C 195.155,213.527 194.488,234.194 192.5,254.5C 191.89,252.566 190.89,250.899 189.5,249.5C 188.243,246.573 186.243,244.239 183.5,242.5C 182.415,240.413 180.749,239.08 178.5,238.5C 171.843,235.518 165.177,232.851 158.5,230.5C 156.708,229.691 154.708,229.191 152.5,229C 124.502,228.5 96.502,228.333 68.5,228.5C 65.5,227.833 62.5,227.167 59.5,226.5C 59.1667,226.5 58.8333,226.5 58.5,226.5C 56.7185,224.643 54.3852,223.643 51.5,223.5C 50.5084,223.672 49.8417,223.338 49.5,222.5C 49.0269,221.094 48.0269,220.427 46.5,220.5C 44.7607,217.757 42.4274,215.757 39.5,214.5C 38.8333,214.167 38.1667,213.833 37.5,213.5C 36.5806,210.911 34.914,208.911 32.5,207.5C 31.1614,204.497 29.8281,201.497 28.5,198.5C 28.3447,195.391 27.6781,192.391 26.5,189.5C 25.5,126.17 25.1667,62.8368 25.5,-0.5 Z"/></g>
<g><path style="opacity:0.999" fill="#696566" d="M 252.5,-0.5 C 263.833,-0.5 275.167,-0.5 286.5,-0.5C 288.146,2.94005 289.312,6.60672 290,10.5C 296.698,20.4253 306.198,25.2586 318.5,25C 320.619,27.3927 323.285,28.7261 326.5,29C 332.087,33.4902 335.254,39.3235 336,46.5C 338.837,49.5177 341.171,52.851 343,56.5C 344.586,57.376 346.086,58.376 347.5,59.5C 348.709,57.5855 350.042,55.7522 351.5,54C 347.04,45.5744 342.873,37.0744 339,28.5C 332.514,22.6809 325.347,18.0142 317.5,14.5C 318,14.1667 318.5,13.8333 319,13.5C 323.7,15.021 328.534,15.8544 333.5,16C 345.537,19.373 353.703,26.873 358,38.5C 358.725,39.0585 359.558,39.3918 360.5,39.5C 362.892,38.1076 364.559,36.1076 365.5,33.5C 361.683,24.0275 356.017,15.8608 348.5,9C 346.058,8.0602 343.725,6.89354 341.5,5.5C 331.523,5.08047 321.523,4.9138 311.5,5C 307.812,4.80481 305.478,2.97148 304.5,-0.5C 328.167,-0.5 351.833,-0.5 375.5,-0.5C 375.667,12.5043 375.5,25.5043 375,38.5C 346.716,67.8607 337.383,102.527 347,142.5C 351.393,153.582 356.726,164.248 363,174.5C 366.381,179.282 370.214,183.615 374.5,187.5C 373.705,191.476 373.038,195.476 372.5,199.5C 371.407,201.349 370.074,203.016 368.5,204.5C 363.871,210.797 358.538,216.463 352.5,221.5C 350.938,221.733 349.605,222.4 348.5,223.5C 344.261,224.796 340.261,226.462 336.5,228.5C 336.167,228.5 335.833,228.5 335.5,228.5C 328.8,228.83 322.134,228.497 315.5,227.5C 319.082,225.085 321.249,221.751 322,217.5C 325.045,213.244 328.212,209.077 331.5,205C 334.167,204 336.833,203 339.5,202C 349.097,201.097 358.431,199.263 367.5,196.5C 367.392,194.217 366.559,192.217 365,190.5C 364.275,189.941 363.442,189.608 362.5,189.5C 352.768,190.792 343.102,192.292 333.5,194C 326.777,197.553 321.11,202.387 316.5,208.5C 316.422,203.963 318.089,199.963 321.5,196.5C 324.022,193.631 325.689,190.297 326.5,186.5C 326.833,186.5 327.167,186.5 327.5,186.5C 328.167,186.5 328.5,186.167 328.5,185.5C 331.472,183.678 334.472,181.844 337.5,180C 342.919,179.689 347.919,178.189 352.5,175.5C 351.833,173.833 351.167,172.167 350.5,170.5C 349.167,170.167 347.833,169.833 346.5,169.5C 340.47,170.742 334.47,172.075 328.5,173.5C 328.5,169.833 328.5,166.167 328.5,162.5C 333.348,160.864 338.348,159.864 343.5,159.5C 341.737,153.551 339.903,147.551 338,141.5C 335.043,140.186 332.21,140.52 329.5,142.5C 328.833,131.674 328.167,121.008 327.5,110.5C 327.5,110.167 327.5,109.833 327.5,109.5C 327.34,107.801 327.506,106.134 328,104.5C 330.075,106.648 332.408,106.982 335,105.5C 335.497,103.19 335.663,100.857 335.5,98.5C 332.423,98.273 329.59,97.273 327,95.5C 326.228,95.6448 325.561,95.9781 325,96.5C 324.731,93.0526 323.231,90.386 320.5,88.5C 320.029,86.4214 319.363,84.4214 318.5,82.5C 318.369,81.6236 318.702,80.9569 319.5,80.5C 325.351,82.1162 331.018,84.1162 336.5,86.5C 340.235,80.6937 342.569,74.3604 343.5,67.5C 327.571,64.0472 311.571,60.7139 295.5,57.5C 294.167,56.5 292.833,55.5 291.5,54.5C 289.967,52.7549 287.967,51.7549 285.5,51.5C 280.839,48.7466 275.839,46.7466 270.5,45.5C 268.879,43.8828 266.879,42.7162 264.5,42C 257.849,41.2893 251.182,40.7893 244.5,40.5C 237.531,40.3993 230.864,41.3993 224.5,43.5C 221.548,44.6544 218.548,45.6544 215.5,46.5C 211.69,46.379 208.523,47.7124 206,50.5C 205.501,46.5138 205.334,42.5138 205.5,38.5C 206.738,36.7857 207.405,34.7857 207.5,32.5C 210.393,30.2515 212.06,27.2515 212.5,23.5C 217.402,15.5858 224.069,9.91915 232.5,6.5C 236.686,4.38355 241.019,2.71688 245.5,1.5C 247.527,1.66212 249.527,1.49546 251.5,1C 252.056,0.617425 252.389,0.117425 252.5,-0.5 Z"/></g>
<g><path style="opacity:1" fill="#e7e7e7" d="M 376.5,-0.5 C 376.833,-0.5 377.167,-0.5 377.5,-0.5C 377.667,62.1676 377.5,124.834 377,187.5C 375.397,191.547 373.897,195.547 372.5,199.5C 373.038,195.476 373.705,191.476 374.5,187.5C 376.484,124.98 377.151,62.3135 376.5,-0.5 Z"/></g>
<g><path style="opacity:1" fill="#c6e9ad" d="M 150.5,-0.5 C 151.833,-0.5 153.167,-0.5 154.5,-0.5C 154.833,0.166667 155.167,0.833333 155.5,1.5C 153.302,1.87988 151.635,1.21321 150.5,-0.5 Z"/></g>
<g><path style="opacity:1" fill="#aeacad" d="M 246.5,-0.5 C 248.5,-0.5 250.5,-0.5 252.5,-0.5C 252.389,0.117425 252.056,0.617425 251.5,1C 249.527,1.49546 247.527,1.66212 245.5,1.5C 245.833,0.833333 246.167,0.166667 246.5,-0.5 Z"/></g>
<g><path style="opacity:1" fill="#8bd158" d="M 147.5,-0.5 C 148.5,-0.5 149.5,-0.5 150.5,-0.5C 151.635,1.21321 153.302,1.87988 155.5,1.5C 156.167,1.5 156.833,1.5 157.5,1.5C 158.5,2.16667 159.5,2.83333 160.5,3.5C 156.51,3.00126 152.51,2.50126 148.5,2C 147.748,1.32924 147.414,0.495904 147.5,-0.5 Z"/></g>
<g><path style="opacity:1" fill="#d6eec4" d="M 157.5,1.5 C 160.716,1.3455 163.383,2.3455 165.5,4.5C 163.883,3.962 162.216,3.62867 160.5,3.5C 159.5,2.83333 158.5,2.16667 157.5,1.5 Z"/></g>
<g><path style="opacity:1" fill="#999697" d="M 245.5,1.5 C 241.019,2.71688 236.686,4.38355 232.5,6.5C 233.29,5.20577 234.29,4.0391 235.5,3C 238.827,2.38973 242.161,1.88973 245.5,1.5 Z"/></g>
<g><path style="opacity:0.999" fill="#7e797b" d="M 286.5,-0.5 C 292.5,-0.5 298.5,-0.5 304.5,-0.5C 305.478,2.97148 307.812,4.80481 311.5,5C 321.523,4.9138 331.523,5.08047 341.5,5.5C 343.725,6.89354 346.058,8.0602 348.5,9C 356.017,15.8608 361.683,24.0275 365.5,33.5C 364.559,36.1076 362.892,38.1076 360.5,39.5C 359.558,39.3918 358.725,39.0585 358,38.5C 353.703,26.873 345.537,19.373 333.5,16C 328.534,15.8544 323.7,15.021 319,13.5C 318.5,13.8333 318,14.1667 317.5,14.5C 325.347,18.0142 332.514,22.6809 339,28.5C 342.873,37.0744 347.04,45.5744 351.5,54C 350.042,55.7522 348.709,57.5855 347.5,59.5C 346.086,58.376 344.586,57.376 343,56.5C 341.171,52.851 338.837,49.5177 336,46.5C 335.254,39.3235 332.087,33.4902 326.5,29C 323.285,28.7261 320.619,27.3927 318.5,25C 306.198,25.2586 296.698,20.4253 290,10.5C 289.312,6.60672 288.146,2.94005 286.5,-0.5 Z"/></g>
<g><path style="opacity:1" fill="#adaaab" d="M 212.5,23.5 C 212.06,27.2515 210.393,30.2515 207.5,32.5C 208.395,28.9994 210.062,25.9994 212.5,23.5 Z"/></g>
<g><path style="opacity:0.996" fill="#97d66a" d="M 190.5,29.5 C 192.241,31.3949 193.241,33.7282 193.5,36.5C 191.643,34.7185 190.643,32.3852 190.5,29.5 Z"/></g>
<g><path style="opacity:1" fill="#b2e091" d="M 113.5,41.5 C 105.981,41.175 98.6476,41.5084 91.5,42.5C 88.4299,42.3677 85.4299,42.701 82.5,43.5C 84.0261,41.87 86.0261,41.0367 88.5,41C 97.0104,40.1768 105.344,40.3434 113.5,41.5 Z"/></g>
<g><path style="opacity:1" fill="#a29fa0" d="M 270.5,45.5 C 258.374,41.8048 246.041,40.8048 233.5,42.5C 231.435,42.5172 229.435,42.8505 227.5,43.5C 226.5,43.5 225.5,43.5 224.5,43.5C 230.864,41.3993 237.531,40.3993 244.5,40.5C 251.182,40.7893 257.849,41.2893 264.5,42C 266.879,42.7162 268.879,43.8828 270.5,45.5 Z"/></g>
<g><path style="opacity:0.996" fill="#b8e298" d="M 193.5,36.5 C 194.674,37.5137 195.34,38.847 195.5,40.5C 195.5,41.1667 195.5,41.8333 195.5,42.5C 193.926,40.8984 193.259,38.8984 193.5,36.5 Z"/></g>
<g><path style="opacity:0.999" fill="#fefefe" d="M 91.5,42.5 C 98.5,42.5 105.5,42.5 112.5,42.5C 112.169,69.3386 112.502,96.0052 113.5,122.5C 113.335,125.518 113.502,128.518 114,131.5C 114.278,132.416 114.778,133.082 115.5,133.5C 115.5,133.833 115.5,134.167 115.5,134.5C 115.427,136.027 116.094,137.027 117.5,137.5C 117.833,138.833 118.167,140.167 118.5,141.5C 118.427,143.027 119.094,144.027 120.5,144.5C 123.868,149.868 128.201,154.201 133.5,157.5C 133.973,158.906 134.973,159.573 136.5,159.5C 136.611,160.117 136.944,160.617 137.5,161C 139.866,161.44 142.199,161.94 144.5,162.5C 145.167,162.5 145.5,162.833 145.5,163.5C 153.689,164.516 162.022,164.683 170.5,164C 169.167,175 169.167,186 170.5,197C 169.244,197.417 168.577,198.25 168.5,199.5C 168.167,199.5 167.833,199.5 167.5,199.5C 154.636,200.257 141.97,199.257 129.5,196.5C 127.139,196.326 124.806,195.993 122.5,195.5C 122.027,194.094 121.027,193.427 119.5,193.5C 117.255,192.904 115.255,191.904 113.5,190.5C 113.027,189.094 112.027,188.427 110.5,188.5C 106.617,187.282 103.617,184.949 101.5,181.5C 100.415,179.413 98.7488,178.08 96.5,177.5C 95.1667,176.5 93.8333,175.5 92.5,174.5C 91.9202,172.251 90.5869,170.585 88.5,169.5C 88.0679,168.29 87.4013,167.29 86.5,166.5C 85.8897,164.566 84.8897,162.899 83.5,161.5C 82.4918,159.456 81.4918,157.456 80.5,155.5C 78.0045,150.091 76.3379,144.425 75.5,138.5C 74.5625,111.183 74.2291,83.8498 74.5,56.5C 75.1495,54.5648 75.4828,52.5648 75.5,50.5C 75.8333,49.5 76.5,48.8333 77.5,48.5C 79.1667,47.5 80.5,46.1667 81.5,44.5C 81.5,43.8333 81.8333,43.5 82.5,43.5C 85.4299,42.701 88.4299,42.3677 91.5,42.5 Z"/></g>
<g><path style="opacity:0.999" fill="#fdfdfd" d="M 270.5,45.5 C 275.839,46.7466 280.839,48.7466 285.5,51.5C 287.033,53.2451 289.033,54.2451 291.5,54.5C 292.833,55.5 294.167,56.5 295.5,57.5C 304.32,64.645 311.653,72.9783 317.5,82.5C 317.755,84.9674 318.755,86.9674 320.5,88.5C 321.555,92.2749 322.888,95.9416 324.5,99.5C 326.338,128.453 327.004,157.453 326.5,186.5C 325.689,190.297 324.022,193.631 321.5,196.5C 319.566,197.11 317.899,198.11 316.5,199.5C 306.833,199.5 297.167,199.5 287.5,199.5C 287.831,173.328 287.498,147.328 286.5,121.5C 286.665,117.818 286.499,114.152 286,110.5C 285.124,108.242 283.957,106.242 282.5,104.5C 282.241,101.728 281.241,99.3949 279.5,97.5C 274.783,89.1096 267.783,83.7763 258.5,81.5C 257.319,79.9328 255.653,79.0995 253.5,79C 246.144,78.3642 238.811,78.5309 231.5,79.5C 231.143,67.9256 230.143,56.4256 228.5,45C 230.491,44.6264 232.158,43.793 233.5,42.5C 246.041,40.8048 258.374,41.8048 270.5,45.5 Z"/></g>
<g><path style="opacity:1" fill="#e6f4dc" d="M 91.5,42.5 C 98.6476,41.5084 105.981,41.175 113.5,41.5C 113.5,68.5 113.5,95.5 113.5,122.5C 112.502,96.0052 112.169,69.3386 112.5,42.5C 105.5,42.5 98.5,42.5 91.5,42.5 Z"/></g>
<g><path style="opacity:1" fill="#f0f0f0" d="M 233.5,42.5 C 232.158,43.793 230.491,44.6264 228.5,45C 230.143,56.4256 231.143,67.9256 231.5,79.5C 231.167,80.1667 230.833,80.8333 230.5,81.5C 229.167,81.8333 227.833,82.1667 226.5,82.5C 224.863,83.2178 223.197,83.3845 221.5,83C 222.833,71 222.833,59 221.5,47C 223.432,45.5415 225.432,44.3748 227.5,43.5C 229.435,42.8505 231.435,42.5172 233.5,42.5 Z"/></g>
<g><path style="opacity:1" fill="#c7e8ae" d="M 81.5,44.5 C 80.5,46.1667 79.1667,47.5 77.5,48.5C 77.8333,46.1667 79.1667,44.8333 81.5,44.5 Z"/></g>
<g><path style="opacity:1" fill="#d8d6d7" d="M 224.5,43.5 C 225.5,43.5 226.5,43.5 227.5,43.5C 225.432,44.3748 223.432,45.5415 221.5,47C 222.833,59 222.833,71 221.5,83C 223.197,83.3845 224.863,83.2178 226.5,82.5C 223.912,84.1581 221.245,85.8248 218.5,87.5C 217.133,74.2966 215.8,60.9632 214.5,47.5C 215.167,47.5 215.5,47.1667 215.5,46.5C 218.548,45.6544 221.548,44.6544 224.5,43.5 Z"/></g>
<g><path style="opacity:1" fill="#c7c4c6" d="M 214.5,47.5 C 215.8,60.9632 217.133,74.2966 218.5,87.5C 215.805,90.5256 213.138,93.5256 210.5,96.5C 209.339,81.3389 209.172,66.0055 210,50.5C 211.271,49.1175 212.771,48.1175 214.5,47.5 Z"/></g>
<g><path style="opacity:1" fill="#e1f2d3" d="M 195.5,40.5 C 196.29,41.6085 196.79,42.9419 197,44.5C 197.83,74.0029 197.664,103.336 196.5,132.5C 196.5,131.833 196.167,131.5 195.5,131.5C 195.5,101.833 195.5,72.1667 195.5,42.5C 195.5,41.8333 195.5,41.1667 195.5,40.5 Z"/></g>
<g><path style="opacity:1" fill="#b1adaf" d="M 205.5,38.5 C 205.334,42.5138 205.501,46.5138 206,50.5C 208.523,47.7124 211.69,46.379 215.5,46.5C 215.5,47.1667 215.167,47.5 214.5,47.5C 212.771,48.1175 211.271,49.1175 210,50.5C 209.172,66.0055 209.339,81.3389 210.5,96.5C 210.312,99.2061 209.312,101.539 207.5,103.5C 206.1,104.1 205.1,105.1 204.5,106.5C 204.5,84.5 204.5,62.5 204.5,40.5C 204.328,39.5084 204.662,38.8417 205.5,38.5 Z"/></g>
<g><path style="opacity:1" fill="#a7a5a5" d="M 285.5,51.5 C 287.967,51.7549 289.967,52.7549 291.5,54.5C 289.033,54.2451 287.033,53.2451 285.5,51.5 Z"/></g>
<g><path style="opacity:1" fill="#f2f9ec" d="M 74.5,56.5 C 74.2291,83.8498 74.5625,111.183 75.5,138.5C 73.7773,136.22 73.1107,133.553 73.5,130.5C 73.169,105.661 73.5023,80.9944 74.5,56.5 Z"/></g>
<g><path style="opacity:1" fill="#8ed35c" d="M 72.5,60.5 C 72.1691,84.006 72.5025,107.339 73.5,130.5C 73.1107,133.553 73.7773,136.22 75.5,138.5C 76.3379,144.425 78.0045,150.091 80.5,155.5C 78.3085,154.155 76.9752,152.155 76.5,149.5C 74.6841,143.557 73.1841,137.557 72,131.5C 71.1702,107.663 71.3369,83.9964 72.5,60.5 Z"/></g>
<g><path style="opacity:1" fill="#807b7d" d="M 295.5,57.5 C 311.571,60.7139 327.571,64.0472 343.5,67.5C 342.569,74.3604 340.235,80.6937 336.5,86.5C 331.018,84.1162 325.351,82.1162 319.5,80.5C 318.702,80.9569 318.369,81.6236 318.5,82.5C 318.167,82.5 317.833,82.5 317.5,82.5C 311.653,72.9783 304.32,64.645 295.5,57.5 Z"/></g>
<g><path style="opacity:1" fill="#bee5a2" d="M 75.5,50.5 C 75.4828,52.5648 75.1495,54.5648 74.5,56.5C 73.5023,80.9944 73.169,105.661 73.5,130.5C 72.5025,107.339 72.1691,84.006 72.5,60.5C 72.0237,56.6215 73.0237,53.2882 75.5,50.5 Z"/></g>
<g><path style="opacity:1" fill="#807b7d" d="M 375.5,-0.5 C 375.833,-0.5 376.167,-0.5 376.5,-0.5C 377.151,62.3135 376.484,124.98 374.5,187.5C 370.214,183.615 366.381,179.282 363,174.5C 356.726,164.248 351.393,153.582 347,142.5C 337.383,102.527 346.716,67.8607 375,38.5C 375.5,25.5043 375.667,12.5043 375.5,-0.5 Z"/></g>
<g><path style="opacity:0.999" fill="#696566" d="M 373.5,54.5 C 374.833,73.8218 375.5,93.4885 375.5,113.5C 375.167,133.167 374.833,152.833 374.5,172.5C 352.31,141.337 348.476,108.004 363,72.5C 366.257,66.3131 369.757,60.3131 373.5,54.5 Z"/></g>
<g><path style="opacity:1" fill="#939091" d="M 258.5,81.5 C 249.167,80.1667 239.833,80.1667 230.5,81.5C 230.833,80.8333 231.167,80.1667 231.5,79.5C 238.811,78.5309 246.144,78.3642 253.5,79C 255.653,79.0995 257.319,79.9328 258.5,81.5 Z"/></g>
<g><path style="opacity:0.999" fill="#696566" d="M 258.5,81.5 C 267.783,83.7763 274.783,89.1096 279.5,97.5C 280.219,99.7638 280.552,102.097 280.5,104.5C 276.603,106.524 272.437,107.857 268,108.5C 261.555,107.086 255.721,104.253 250.5,100C 245.167,99.3333 239.833,99.3333 234.5,100C 229.91,101.949 225.91,104.616 222.5,108C 219.816,108.778 217.483,110.111 215.5,112C 220.447,111.308 225.447,110.475 230.5,109.5C 233.567,109.607 236.567,110.107 239.5,111C 246.016,114.175 252.016,118.175 257.5,123C 261.16,123.553 264.494,124.886 267.5,127C 269.833,127.667 272.167,127.667 274.5,127C 278.298,126.06 281.965,124.893 285.5,123.5C 285.5,136.167 285.5,148.833 285.5,161.5C 269.898,167.758 254.232,173.924 238.5,180C 236.5,181.333 234.5,182.667 232.5,184C 241.824,183.137 250.824,181.137 259.5,178C 268.066,175.893 276.733,174.393 285.5,173.5C 285.5,182.833 285.5,192.167 285.5,201.5C 292.648,202.492 299.981,202.825 307.5,202.5C 306.794,209.819 303.127,214.986 296.5,218C 287.789,218.106 279.789,220.44 272.5,225C 271.833,226 271.167,227 270.5,228C 261.99,228.171 253.657,228.671 245.5,229.5C 241.655,229.288 238.321,230.288 235.5,232.5C 229.563,234.135 224.23,236.802 219.5,240.5C 215.5,242.5 212.5,245.5 210.5,249.5C 208.684,251.118 207.351,253.118 206.5,255.5C 205.335,206.335 205.168,157.002 206,107.5C 206.41,106.099 206.91,104.766 207.5,103.5C 209.312,101.539 210.312,99.2061 210.5,96.5C 213.138,93.5256 215.805,90.5256 218.5,87.5C 221.245,85.8248 223.912,84.1581 226.5,82.5C 227.833,82.1667 229.167,81.8333 230.5,81.5C 239.833,80.1667 249.167,80.1667 258.5,81.5 Z"/></g>
<g><path style="opacity:1" fill="#bcbbbb" d="M 317.5,82.5 C 317.833,82.5 318.167,82.5 318.5,82.5C 319.363,84.4214 320.029,86.4214 320.5,88.5C 318.755,86.9674 317.755,84.9674 317.5,82.5 Z"/></g>
<g><path style="opacity:0.999" fill="#7f7a7c" d="M 320.5,88.5 C 323.231,90.386 324.731,93.0526 325,96.5C 325.561,95.9781 326.228,95.6448 327,95.5C 329.59,97.273 332.423,98.273 335.5,98.5C 335.663,100.857 335.497,103.19 335,105.5C 332.408,106.982 330.075,106.648 328,104.5C 327.506,106.134 327.34,107.801 327.5,109.5C 326.865,106.069 325.865,102.736 324.5,99.5C 322.888,95.9416 321.555,92.2749 320.5,88.5 Z"/></g>
<g><path style="opacity:1" fill="#7f7a7c" d="M 279.5,97.5 C 281.241,99.3949 282.241,101.728 282.5,104.5C 284.687,110.625 285.687,116.959 285.5,123.5C 281.965,124.893 278.298,126.06 274.5,127C 272.167,127.667 269.833,127.667 267.5,127C 264.494,124.886 261.16,123.553 257.5,123C 252.016,118.175 246.016,114.175 239.5,111C 236.567,110.107 233.567,109.607 230.5,109.5C 225.447,110.475 220.447,111.308 215.5,112C 217.483,110.111 219.816,108.778 222.5,108C 225.91,104.616 229.91,101.949 234.5,100C 239.833,99.3333 245.167,99.3333 250.5,100C 255.721,104.253 261.555,107.086 268,108.5C 272.437,107.857 276.603,106.524 280.5,104.5C 280.552,102.097 280.219,99.7638 279.5,97.5 Z"/></g>
<g><path style="opacity:1" fill="#d0cdcf" d="M 204.5,40.5 C 204.5,62.5 204.5,84.5 204.5,106.5C 204.333,156.834 204.5,207.168 205,257.5C 205.383,256.944 205.883,256.611 206.5,256.5C 206.5,258.167 206.5,259.833 206.5,261.5C 205.5,261.5 204.5,261.5 203.5,261.5C 203.167,187.665 203.501,113.998 204.5,40.5 Z"/></g>
<g><path style="opacity:1" fill="#858182" d="M 207.5,103.5 C 206.91,104.766 206.41,106.099 206,107.5C 205.168,157.002 205.335,206.335 206.5,255.5C 206.5,255.833 206.5,256.167 206.5,256.5C 205.883,256.611 205.383,256.944 205,257.5C 204.5,207.168 204.333,156.834 204.5,106.5C 205.1,105.1 206.1,104.1 207.5,103.5 Z"/></g>
<g><path style="opacity:1" fill="#dfdede" d="M 286.5,121.5 C 287.498,147.328 287.831,173.328 287.5,199.5C 297.167,199.5 306.833,199.5 316.5,199.5C 315.048,200.302 313.382,200.802 311.5,201C 303.173,201.5 294.84,201.666 286.5,201.5C 286.5,174.833 286.5,148.167 286.5,121.5 Z"/></g>
<g><path style="opacity:1" fill="#c9c8c8" d="M 324.5,99.5 C 325.865,102.736 326.865,106.069 327.5,109.5C 327.5,109.833 327.5,110.167 327.5,110.5C 327.5,135.833 327.5,161.167 327.5,186.5C 327.167,186.5 326.833,186.5 326.5,186.5C 327.004,157.453 326.338,128.453 324.5,99.5 Z"/></g>
<g><path style="opacity:1" fill="#aaa8a9" d="M 282.5,104.5 C 283.957,106.242 285.124,108.242 286,110.5C 286.499,114.152 286.665,117.818 286.5,121.5C 286.5,148.167 286.5,174.833 286.5,201.5C 286.167,201.5 285.833,201.5 285.5,201.5C 285.5,192.167 285.5,182.833 285.5,173.5C 285.5,169.5 285.5,165.5 285.5,161.5C 285.5,148.833 285.5,136.167 285.5,123.5C 285.687,116.959 284.687,110.625 282.5,104.5 Z"/></g>
<g><path style="opacity:0.996" fill="#c5e8ab" d="M 113.5,41.5 C 114.197,72.0201 114.863,102.687 115.5,133.5C 114.778,133.082 114.278,132.416 114,131.5C 113.502,128.518 113.335,125.518 113.5,122.5C 113.5,95.5 113.5,68.5 113.5,41.5 Z"/></g>
<g><path style="opacity:0.996" fill="#b7e398" d="M 115.5,134.5 C 116.906,134.973 117.573,135.973 117.5,137.5C 116.094,137.027 115.427,136.027 115.5,134.5 Z"/></g>
<g><path style="opacity:1" fill="#d4d7ce" d="M 195.5,131.5 C 196.167,131.5 196.5,131.833 196.5,132.5C 196.5,151.833 196.5,171.167 196.5,190.5C 196.5,190.833 196.5,191.167 196.5,191.5C 196.167,191.5 195.833,191.5 195.5,191.5C 195.167,191.5 194.833,191.5 194.5,191.5C 195.825,172.736 195.825,154.069 194.5,135.5C 194.232,133.901 194.566,132.568 195.5,131.5 Z"/></g>
<g><path style="opacity:1" fill="#837e80" d="M 327.5,110.5 C 328.167,121.008 328.833,131.674 329.5,142.5C 332.21,140.52 335.043,140.186 338,141.5C 339.903,147.551 341.737,153.551 343.5,159.5C 338.348,159.864 333.348,160.864 328.5,162.5C 328.5,166.167 328.5,169.833 328.5,173.5C 328.5,177.5 328.5,181.5 328.5,185.5C 328.5,186.167 328.167,186.5 327.5,186.5C 327.5,161.167 327.5,135.833 327.5,110.5 Z"/></g>
<g><path style="opacity:1" fill="#bae39c" d="M 118.5,141.5 C 119.906,141.973 120.573,142.973 120.5,144.5C 119.094,144.027 118.427,143.027 118.5,141.5 Z"/></g>
<g><path style="opacity:1" fill="#99c179" d="M 190.5,143.5 C 190.25,145.674 189.25,147.341 187.5,148.5C 187.75,146.326 188.75,144.659 190.5,143.5 Z"/></g>
<g><path style="opacity:1" fill="#bcb9ba" d="M 194.5,135.5 C 195.825,154.069 195.825,172.736 194.5,191.5C 192.685,192.63 190.685,193.296 188.5,193.5C 186.518,179.873 185.851,165.873 186.5,151.5C 187.11,150.609 187.443,149.609 187.5,148.5C 189.25,147.341 190.25,145.674 190.5,143.5C 191.472,140.563 192.805,137.897 194.5,135.5 Z"/></g>
<g><path style="opacity:0.996" fill="#b4caa1" d="M 187.5,148.5 C 187.443,149.609 187.11,150.609 186.5,151.5C 185.078,152.925 183.411,153.925 181.5,154.5C 183.167,152.167 185.167,150.167 187.5,148.5 Z"/></g>
<g><path style="opacity:1" fill="#add092" d="M 181.5,154.5 C 181.027,155.906 180.027,156.573 178.5,156.5C 178.973,155.094 179.973,154.427 181.5,154.5 Z"/></g>
<g><path style="opacity:1" fill="#d4d2d3" d="M 186.5,151.5 C 185.851,165.873 186.518,179.873 188.5,193.5C 185.466,195.404 182.133,196.738 178.5,197.5C 178.5,184.5 178.5,171.5 178.5,158.5C 178.5,157.833 178.5,157.167 178.5,156.5C 180.027,156.573 181.027,155.906 181.5,154.5C 183.411,153.925 185.078,152.925 186.5,151.5 Z"/></g>
<g><path style="opacity:1" fill="#9ad76e" d="M 80.5,155.5 C 81.4918,157.456 82.4918,159.456 83.5,161.5C 81.0246,160.313 80.0246,158.313 80.5,155.5 Z"/></g>
<g><path style="opacity:1" fill="#a9dd84" d="M 133.5,157.5 C 135.027,157.427 136.027,158.094 136.5,159.5C 134.973,159.573 133.973,158.906 133.5,157.5 Z"/></g>
<g><path style="opacity:1" fill="#c4e0ae" d="M 178.5,156.5 C 178.5,157.167 178.5,157.833 178.5,158.5C 174.841,160.704 170.841,162.038 166.5,162.5C 170.502,160.708 174.502,158.708 178.5,156.5 Z"/></g>
<g><path style="opacity:1" fill="#acde87" d="M 136.5,159.5 C 138.801,160.06 141.134,160.56 143.5,161C 144.056,161.383 144.389,161.883 144.5,162.5C 142.199,161.94 139.866,161.44 137.5,161C 136.944,160.617 136.611,160.117 136.5,159.5 Z"/></g>
<g><path style="opacity:1" fill="#eceeeb" d="M 178.5,158.5 C 178.5,171.5 178.5,184.5 178.5,197.5C 178.5,197.833 178.5,198.167 178.5,198.5C 175.193,199.051 171.86,199.384 168.5,199.5C 168.577,198.25 169.244,197.417 170.5,197C 169.167,186 169.167,175 170.5,164C 162.022,164.683 153.689,164.516 145.5,163.5C 152.557,163.76 159.557,163.427 166.5,162.5C 170.841,162.038 174.841,160.704 178.5,158.5 Z"/></g>
<g><path style="opacity:1" fill="#94d566" d="M 83.5,161.5 C 84.8897,162.899 85.8897,164.566 86.5,166.5C 84.2407,165.656 83.2407,163.989 83.5,161.5 Z"/></g>
<g><path style="opacity:1" fill="#7d787a" d="M 285.5,161.5 C 285.5,165.5 285.5,169.5 285.5,173.5C 276.733,174.393 268.066,175.893 259.5,178C 250.824,181.137 241.824,183.137 232.5,184C 234.5,182.667 236.5,181.333 238.5,180C 254.232,173.924 269.898,167.758 285.5,161.5 Z"/></g>
<g><path style="opacity:1" fill="#9bd76f" d="M 88.5,169.5 C 90.5869,170.585 91.9202,172.251 92.5,174.5C 90.4131,173.415 89.0798,171.749 88.5,169.5 Z"/></g>
<g><path style="opacity:1" fill="#7e797b" d="M 328.5,185.5 C 328.5,181.5 328.5,177.5 328.5,173.5C 334.47,172.075 340.47,170.742 346.5,169.5C 347.833,169.833 349.167,170.167 350.5,170.5C 351.167,172.167 351.833,173.833 352.5,175.5C 347.919,178.189 342.919,179.689 337.5,180C 334.472,181.844 331.472,183.678 328.5,185.5 Z"/></g>
<g><path style="opacity:1" fill="#dcf0cc" d="M 96.5,177.5 C 98.7488,178.08 100.415,179.413 101.5,181.5C 99.2512,180.92 97.5846,179.587 96.5,177.5 Z"/></g>
<g><path style="opacity:1" fill="#c5e7ab" d="M 110.5,188.5 C 112.027,188.427 113.027,189.094 113.5,190.5C 111.973,190.573 110.973,189.906 110.5,188.5 Z"/></g>
<g><path style="opacity:1" fill="#85cf50" d="M 194.5,192.5 C 194.833,192.5 195.167,192.5 195.5,192.5C 195.667,214.503 195.5,236.503 195,258.5C 194.617,257.944 194.117,257.611 193.5,257.5C 193.443,256.391 193.11,255.391 192.5,254.5C 194.488,234.194 195.155,213.527 194.5,192.5 Z"/></g>
<g><path style="opacity:1" fill="#edf7e7" d="M 196.5,190.5 C 197.498,214.328 197.831,238.328 197.5,262.5C 196.167,262.5 194.833,262.5 193.5,262.5C 193.5,261.5 193.5,260.5 193.5,259.5C 194.15,259.804 194.817,260.137 195.5,260.5C 196.5,237.51 196.833,214.51 196.5,191.5C 196.5,191.167 196.5,190.833 196.5,190.5 Z"/></g>
<g><path style="opacity:0.996" fill="#8dc563" d="M 194.5,191.5 C 194.833,191.5 195.167,191.5 195.5,191.5C 195.5,191.833 195.5,192.167 195.5,192.5C 195.167,192.5 194.833,192.5 194.5,192.5C 189.616,195.605 184.282,197.605 178.5,198.5C 178.5,198.167 178.5,197.833 178.5,197.5C 182.133,196.738 185.466,195.404 188.5,193.5C 190.685,193.296 192.685,192.63 194.5,191.5 Z"/></g>
<g><path style="opacity:1" fill="#aadd84" d="M 119.5,193.5 C 121.027,193.427 122.027,194.094 122.5,195.5C 120.973,195.573 119.973,194.906 119.5,193.5 Z"/></g>
<g><path style="opacity:1" fill="#c6e7ac" d="M 195.5,191.5 C 195.833,191.5 196.167,191.5 196.5,191.5C 196.833,214.51 196.5,237.51 195.5,260.5C 194.817,260.137 194.15,259.804 193.5,259.5C 193.5,258.833 193.5,258.167 193.5,257.5C 194.117,257.611 194.617,257.944 195,258.5C 195.5,236.503 195.667,214.503 195.5,192.5C 195.5,192.167 195.5,191.833 195.5,191.5 Z"/></g>
<g><path style="opacity:1" fill="#d8efc7" d="M 129.5,196.5 C 141.97,199.257 154.636,200.257 167.5,199.5C 167.389,200.117 167.056,200.617 166.5,201C 158.132,201.74 149.798,201.574 141.5,200.5C 137.873,199.571 134.207,198.737 130.5,198C 129.944,197.617 129.611,197.117 129.5,196.5 Z"/></g>
<g><path style="opacity:1" fill="#83cd4e" d="M 178.5,198.5 C 175.584,199.727 172.584,200.893 169.5,202C 160.833,202.667 152.167,202.667 143.5,202C 142.584,201.722 141.918,201.222 141.5,200.5C 149.798,201.574 158.132,201.74 166.5,201C 167.056,200.617 167.389,200.117 167.5,199.5C 167.833,199.5 168.167,199.5 168.5,199.5C 171.86,199.384 175.193,199.051 178.5,198.5 Z"/></g>
<g><path style="opacity:0.996" fill="#d8efc7" d="M 32.5,207.5 C 34.914,208.911 36.5806,210.911 37.5,213.5C 35.086,212.089 33.4194,210.089 32.5,207.5 Z"/></g>
<g><path style="opacity:0.999" fill="#7f7a7c" d="M 335.5,228.5 C 333.052,229.473 330.385,229.806 327.5,229.5C 300.167,229.5 272.833,229.5 245.5,229.5C 253.657,228.671 261.99,228.171 270.5,228C 271.167,227 271.833,226 272.5,225C 279.789,220.44 287.789,218.106 296.5,218C 303.127,214.986 306.794,209.819 307.5,202.5C 299.981,202.825 292.648,202.492 285.5,201.5C 285.833,201.5 286.167,201.5 286.5,201.5C 294.84,201.666 303.173,201.5 311.5,201C 313.382,200.802 315.048,200.302 316.5,199.5C 317.899,198.11 319.566,197.11 321.5,196.5C 318.089,199.963 316.422,203.963 316.5,208.5C 321.11,202.387 326.777,197.553 333.5,194C 343.102,192.292 352.768,190.792 362.5,189.5C 363.442,189.608 364.275,189.941 365,190.5C 366.559,192.217 367.392,194.217 367.5,196.5C 358.431,199.263 349.097,201.097 339.5,202C 336.833,203 334.167,204 331.5,205C 328.212,209.077 325.045,213.244 322,217.5C 321.249,221.751 319.082,225.085 315.5,227.5C 322.134,228.497 328.8,228.83 335.5,228.5 Z"/></g>
<g><path style="opacity:1" fill="#c1bfbf" d="M 368.5,204.5 C 367.955,206.593 367.122,208.593 366,210.5C 362.187,215.16 357.687,218.827 352.5,221.5C 358.538,216.463 363.871,210.797 368.5,204.5 Z"/></g>
<g><path style="opacity:1" fill="#9cd871" d="M 39.5,214.5 C 42.4274,215.757 44.7607,217.757 46.5,220.5C 43.5726,219.243 41.2393,217.243 39.5,214.5 Z"/></g>
<g><path style="opacity:1" fill="#b1df8e" d="M 46.5,220.5 C 48.0269,220.427 49.0269,221.094 49.5,222.5C 47.9731,222.573 46.9731,221.906 46.5,220.5 Z"/></g>
<g><path style="opacity:0.996" fill="#96d568" d="M 51.5,223.5 C 54.3852,223.643 56.7185,224.643 58.5,226.5C 55.7282,226.241 53.3949,225.241 51.5,223.5 Z"/></g>
<g><path style="opacity:1" fill="#cbc9c9" d="M 348.5,223.5 C 348.53,224.497 348.03,225.164 347,225.5C 343.6,226.956 340.1,227.956 336.5,228.5C 340.261,226.462 344.261,224.796 348.5,223.5 Z"/></g>
<g><path style="opacity:1" fill="#85cf4f" d="M 68.5,228.5 C 96.502,228.333 124.502,228.5 152.5,229C 154.708,229.191 156.708,229.691 158.5,230.5C 156.167,230.5 153.833,230.5 151.5,230.5C 123.833,229.833 96.1667,229.167 68.5,228.5 Z"/></g>
<g><path style="opacity:1" fill="#c3e7a9" d="M 59.5,226.5 C 62.5,227.167 65.5,227.833 68.5,228.5C 96.1667,229.167 123.833,229.833 151.5,230.5C 123.498,230.667 95.498,230.5 67.5,230C 64.4278,229.422 61.7612,228.255 59.5,226.5 Z"/></g>
<g><path style="opacity:1" fill="#bbb8ba" d="M 245.5,229.5 C 272.833,229.5 300.167,229.5 327.5,229.5C 300.003,230.332 272.336,230.832 244.5,231C 241.456,231.363 238.456,231.863 235.5,232.5C 238.321,230.288 241.655,229.288 245.5,229.5 Z"/></g>
<g><path style="opacity:1" fill="#a9dd83" d="M 178.5,238.5 C 180.749,239.08 182.415,240.413 183.5,242.5C 181.251,241.92 179.585,240.587 178.5,238.5 Z"/></g>
<g><path style="opacity:1" fill="#c3e7a8" d="M 183.5,242.5 C 186.243,244.239 188.243,246.573 189.5,249.5C 186.757,247.761 184.757,245.427 183.5,242.5 Z"/></g>
<g><path style="opacity:1" fill="#c0bebf" d="M 219.5,240.5 C 216.833,243.833 213.833,246.833 210.5,249.5C 212.5,245.5 215.5,242.5 219.5,240.5 Z"/></g>
<g><path style="opacity:1" fill="#91d461" d="M 348.5,279.5 C 357.833,279.5 367.167,279.5 376.5,279.5C 376.5,282.167 376.5,284.833 376.5,287.5C 367.167,287.5 357.833,287.5 348.5,287.5C 348.5,284.833 348.5,282.167 348.5,279.5 Z"/></g>
<g><path style="opacity:0.999" fill="#6cc52b" d="M 349.5,280.5 C 358.167,280.5 366.833,280.5 375.5,280.5C 375.5,282.5 375.5,284.5 375.5,286.5C 366.833,286.5 358.167,286.5 349.5,286.5C 349.5,284.5 349.5,282.5 349.5,280.5 Z"/></g>
<g><path style="opacity:1" fill="#d4d3d3" d="M 277.5,295.5 C 272.438,295.274 267.438,295.608 262.5,296.5C 262.611,295.883 262.944,295.383 263.5,295C 268.352,294.185 273.019,294.352 277.5,295.5 Z"/></g>
<g><path style="opacity:1" fill="#b1afaf" d="M 159.5,296.5 C 162.962,295.518 166.629,295.185 170.5,295.5C 170.706,298.495 170.04,301.162 168.5,303.5C 168.5,302.167 168.5,300.833 168.5,299.5C 169.404,298.791 169.737,297.791 169.5,296.5C 166.167,296.5 162.833,296.5 159.5,296.5 Z"/></g>
<g><path style="opacity:1" fill="#bdbcbc" d="M 205.5,303.5 C 205.795,301.265 205.461,299.265 204.5,297.5C 196.016,296.507 187.349,296.174 178.5,296.5C 178.5,311.5 178.5,326.5 178.5,341.5C 177.504,326.342 177.17,311.009 177.5,295.5C 187.167,295.5 196.833,295.5 206.5,295.5C 206.806,298.385 206.473,301.052 205.5,303.5 Z"/></g>
<g><path style="opacity:1" fill="#b1afb0" d="M 341.5,296.5 C 331.5,296.5 321.5,296.5 311.5,296.5C 311.5,299.167 311.5,301.833 311.5,304.5C 311.167,304.5 310.833,304.5 310.5,304.5C 310.5,301.5 310.5,298.5 310.5,295.5C 321.014,295.172 331.347,295.506 341.5,296.5 Z"/></g>
<g><path style="opacity:1" fill="#adabac" d="M 376.5,297.5 C 367.402,296.185 358.402,296.185 349.5,297.5C 349.167,297.5 348.833,297.5 348.5,297.5C 352.783,296.173 357.449,295.507 362.5,295.5C 367.551,295.507 372.217,296.173 376.5,297.5 Z"/></g>
<g><path style="opacity:1" fill="#949292" d="M 143.5,297.5 C 143.5,298.167 143.5,298.833 143.5,299.5C 140.512,297.727 137.179,297.06 133.5,297.5C 134.323,301.949 135.323,306.282 136.5,310.5C 133.466,306.053 131.799,301.053 131.5,295.5C 135.971,294.911 139.971,295.577 143.5,297.5 Z"/></g>
<g><path style="opacity:0.999" fill="#878485" d="M 159.5,296.5 C 162.833,296.5 166.167,296.5 169.5,296.5C 169.737,297.791 169.404,298.791 168.5,299.5C 166.365,297.631 163.698,296.964 160.5,297.5C 160.259,301.437 158.926,304.77 156.5,307.5C 156.971,303.658 157.971,299.991 159.5,296.5 Z"/></g>
<g><path style="opacity:1" fill="#898687" d="M 341.5,296.5 C 342.473,298.948 342.806,301.615 342.5,304.5C 339.167,304.5 335.833,304.5 332.5,304.5C 335.287,303.523 338.287,303.19 341.5,303.5C 341.5,301.5 341.5,299.5 341.5,297.5C 331.833,297.5 322.167,297.5 312.5,297.5C 312.5,299.5 312.5,301.5 312.5,303.5C 315.713,303.19 318.713,303.523 321.5,304.5C 318.167,304.5 314.833,304.5 311.5,304.5C 311.5,301.833 311.5,299.167 311.5,296.5C 321.5,296.5 331.5,296.5 341.5,296.5 Z"/></g>
<g><path style="opacity:1" fill="#a19e9f" d="M 34.5,295.5 C 34.5,296.167 34.5,296.833 34.5,297.5C 34.1667,297.5 33.8333,297.5 33.5,297.5C 30.7131,296.523 27.7131,296.19 24.5,296.5C 24.5,307.5 24.5,318.5 24.5,329.5C 23.5052,318.346 23.1719,307.012 23.5,295.5C 27.1667,295.5 30.8333,295.5 34.5,295.5 Z"/></g>
<g><path style="opacity:0.996" fill="#c5c4c4" d="M 47.5,296.5 C 50.9619,295.518 54.6286,295.185 58.5,295.5C 59.1464,308.212 58.4797,320.545 56.5,332.5C 57.4593,320.55 57.7926,308.55 57.5,296.5C 54.1667,296.5 50.8333,296.5 47.5,296.5 Z"/></g>
<g><path style="opacity:0.996" fill="#e1e0e1" d="M 80.5,295.5 C 76.2325,295.203 72.0659,295.536 68,296.5C 67.5001,311.496 67.3334,326.496 67.5,341.5C 66.3388,326.339 66.1721,311.006 67,295.5C 71.5999,294.177 76.0999,294.177 80.5,295.5 Z"/></g>
<g><path style="opacity:1" fill="#c2c1c1" d="M 114.5,296.5 C 117.962,295.518 121.629,295.185 125.5,295.5C 125.83,311.009 125.496,326.342 124.5,341.5C 124.667,326.83 124.5,312.163 124,297.5C 120.943,296.549 117.777,296.216 114.5,296.5 Z"/></g>
<g><path style="opacity:0.999" fill="#6b6768" d="M 236.5,296.5 C 245.192,298.887 248.025,304.554 245,313.5C 243.961,314.71 242.794,315.71 241.5,316.5C 239.983,316.511 238.816,317.177 238,318.5C 237.472,319.816 237.972,320.483 239.5,320.5C 242.231,323.295 243.898,326.628 244.5,330.5C 244.959,333.877 245.626,337.211 246.5,340.5C 243.167,340.5 239.833,340.5 236.5,340.5C 236.829,337.772 236.163,335.438 234.5,333.5C 234.405,331.214 233.738,329.214 232.5,327.5C 232.262,325.596 231.262,324.262 229.5,323.5C 228.116,322.199 226.616,322.199 225,323.5C 224.501,329.157 224.334,334.824 224.5,340.5C 221.833,340.5 219.167,340.5 216.5,340.5C 216.5,326.167 216.5,311.833 216.5,297.5C 222.979,296.509 229.646,296.176 236.5,296.5 Z"/></g>
<g><path style="opacity:1" fill="#6f6b6c" d="M 277.5,295.5 C 278.568,296.434 279.901,296.768 281.5,296.5C 281.5,299.167 281.5,301.833 281.5,304.5C 279.901,304.768 278.568,304.434 277.5,303.5C 274.696,302.362 271.696,302.195 268.5,303C 267.944,303.383 267.611,303.883 267.5,304.5C 265.816,307.718 266.483,310.385 269.5,312.5C 271.033,314.245 273.033,315.245 275.5,315.5C 277.749,316.08 279.415,317.413 280.5,319.5C 282.879,323.45 283.879,327.784 283.5,332.5C 281.945,335.404 279.945,338.07 277.5,340.5C 271.068,342.537 264.402,343.037 257.5,342C 256.549,338.943 256.216,335.777 256.5,332.5C 258.103,332.312 259.437,332.812 260.5,334C 263.5,334.667 266.5,334.667 269.5,334C 273.5,330.667 273.5,327.333 269.5,324C 264.048,322.19 259.548,319.024 256,314.5C 254.423,308.06 255.756,302.393 260,297.5C 260.671,296.748 261.504,296.414 262.5,296.5C 267.438,295.608 272.438,295.274 277.5,295.5 Z"/></g>
<g><path style="opacity:1" fill="#6c6869" d="M 33.5,297.5 C 32.8556,309.216 33.5223,320.549 35.5,331.5C 35.8333,331.5 36.1667,331.5 36.5,331.5C 36.8333,332.167 37.1667,332.833 37.5,333.5C 38.4486,334.152 39.6153,334.486 41,334.5C 43.0081,334.693 44.5081,334.026 45.5,332.5C 46.1279,320.371 46.7946,308.371 47.5,296.5C 50.8333,296.5 54.1667,296.5 57.5,296.5C 57.7926,308.55 57.4593,320.55 56.5,332.5C 55.0787,335.009 53.4121,337.343 51.5,339.5C 44.9328,341.602 38.2661,341.936 31.5,340.5C 27.9915,337.643 25.6581,333.976 24.5,329.5C 24.5,318.5 24.5,307.5 24.5,296.5C 27.7131,296.19 30.7131,296.523 33.5,297.5 Z"/></g>
<g><path style="opacity:1" fill="#e0dedf" d="M 34.5,295.5 C 35.2265,307.358 35.8931,319.358 36.5,331.5C 36.1667,331.5 35.8333,331.5 35.5,331.5C 34.5227,320.248 34.1894,308.914 34.5,297.5C 34.5,296.833 34.5,296.167 34.5,295.5 Z"/></g>
<g><path style="opacity:1" fill="#a2a0a1" d="M 80.5,295.5 C 82.0173,298.342 83.0173,301.342 83.5,304.5C 82.0883,302.396 81.0883,300.063 80.5,297.5C 76.5,297.5 72.5,297.5 68.5,297.5C 68.5,312.167 68.5,326.833 68.5,341.5C 71.1667,341.5 73.8333,341.5 76.5,341.5C 76.5,341.833 76.5,342.167 76.5,342.5C 73.2869,342.81 70.2869,342.477 67.5,341.5C 67.3334,326.496 67.5001,311.496 68,296.5C 72.0659,295.536 76.2325,295.203 80.5,295.5 Z"/></g>
<g><path style="opacity:1" fill="#6b6768" d="M 94.5,296.5 C 97.1667,296.5 99.8333,296.5 102.5,296.5C 102.5,311.5 102.5,326.5 102.5,341.5C 98.5,341.5 94.5,341.5 90.5,341.5C 88.6074,335.527 86.274,329.861 83.5,324.5C 83.3803,321.422 82.3803,318.755 80.5,316.5C 81.0934,313.404 80.0934,311.071 77.5,309.5C 76.5013,320.146 76.168,330.813 76.5,341.5C 73.8333,341.5 71.1667,341.5 68.5,341.5C 68.5,326.833 68.5,312.167 68.5,297.5C 72.5,297.5 76.5,297.5 80.5,297.5C 81.0883,300.063 82.0883,302.396 83.5,304.5C 86.7982,311.014 89.7982,317.681 92.5,324.5C 92.56,325.043 92.8933,325.376 93.5,325.5C 94.4984,315.856 94.8318,306.19 94.5,296.5 Z"/></g>
<g><path style="opacity:1" fill="#aaa8a9" d="M 94.5,296.5 C 94.8318,306.19 94.4984,315.856 93.5,325.5C 92.8933,325.376 92.56,325.043 92.5,324.5C 93.1667,315.167 93.8333,305.833 94.5,296.5 Z"/></g>
<g><path style="opacity:1" fill="#a19f9f" d="M 94.5,296.5 C 97.2869,295.523 100.287,295.19 103.5,295.5C 103.5,311.167 103.5,326.833 103.5,342.5C 98.9677,342.818 94.6344,342.485 90.5,341.5C 94.5,341.5 98.5,341.5 102.5,341.5C 102.5,326.5 102.5,311.5 102.5,296.5C 99.8333,296.5 97.1667,296.5 94.5,296.5 Z"/></g>
<g><path style="opacity:1" fill="#b2b0b0" d="M 114.5,296.5 C 114.5,311.5 114.5,326.5 114.5,341.5C 117.833,341.5 121.167,341.5 124.5,341.5C 121.038,342.482 117.371,342.815 113.5,342.5C 113.17,326.991 113.504,311.658 114.5,296.5 Z"/></g>
<g><path style="opacity:1" fill="#777475" d="M 114.5,296.5 C 117.777,296.216 120.943,296.549 124,297.5C 124.5,312.163 124.667,326.83 124.5,341.5C 121.167,341.5 117.833,341.5 114.5,341.5C 114.5,326.5 114.5,311.5 114.5,296.5 Z"/></g>
<g><path style="opacity:1" fill="#686465" d="M 115.5,297.5 C 117.833,297.5 120.167,297.5 122.5,297.5C 122.5,311.833 122.5,326.167 122.5,340.5C 120.167,340.5 117.833,340.5 115.5,340.5C 115.5,326.167 115.5,311.833 115.5,297.5 Z"/></g>
<g><path style="opacity:0.999" fill="#6b6768" d="M 143.5,299.5 C 143.427,301.027 144.094,302.027 145.5,302.5C 145.508,305.545 145.841,308.545 146.5,311.5C 146.676,318.15 148.01,324.484 150.5,330.5C 152.978,329.278 153.978,327.278 153.5,324.5C 153.833,321.167 154.167,317.833 154.5,314.5C 155.924,312.485 156.59,310.152 156.5,307.5C 158.926,304.77 160.259,301.437 160.5,297.5C 163.698,296.964 166.365,297.631 168.5,299.5C 168.5,300.833 168.5,302.167 168.5,303.5C 165.079,313.425 162.079,323.425 159.5,333.5C 158.076,335.515 157.41,337.848 157.5,340.5C 153.366,341.485 149.032,341.818 144.5,341.5C 143.66,337.015 142.66,332.681 141.5,328.5C 141.88,324.342 140.88,320.675 138.5,317.5C 137.593,315.343 136.927,313.01 136.5,310.5C 135.323,306.282 134.323,301.949 133.5,297.5C 137.179,297.06 140.512,297.727 143.5,299.5 Z"/></g>
<g><path style="opacity:1" fill="#8b8989" d="M 204.5,297.5 C 196.167,297.5 187.833,297.5 179.5,297.5C 179.5,311.833 179.5,326.167 179.5,340.5C 187.833,340.5 196.167,340.5 204.5,340.5C 204.5,338.5 204.5,336.5 204.5,334.5C 205.468,336.607 205.802,338.941 205.5,341.5C 196.5,342.833 187.5,342.833 178.5,341.5C 178.5,326.5 178.5,311.5 178.5,296.5C 187.349,296.174 196.016,296.507 204.5,297.5 Z"/></g>
<g><path style="opacity:0.999" fill="#696566" d="M 204.5,297.5 C 205.461,299.265 205.795,301.265 205.5,303.5C 199.833,303.5 194.167,303.5 188.5,303.5C 188.5,307.167 188.5,310.833 188.5,314.5C 193.833,314.5 199.167,314.5 204.5,314.5C 204.5,316.833 204.5,319.167 204.5,321.5C 199.167,321.5 193.833,321.5 188.5,321.5C 188.183,325.702 188.517,329.702 189.5,333.5C 194.305,334.487 199.305,334.821 204.5,334.5C 204.5,336.5 204.5,338.5 204.5,340.5C 196.167,340.5 187.833,340.5 179.5,340.5C 179.5,326.167 179.5,311.833 179.5,297.5C 187.833,297.5 196.167,297.5 204.5,297.5 Z"/></g>
<g><path style="opacity:1" fill="#c3c2c2" d="M 236.5,296.5 C 229.646,296.176 222.979,296.509 216.5,297.5C 215.504,311.99 215.171,326.657 215.5,341.5C 214.339,326.672 214.172,311.672 215,296.5C 222.265,295.173 229.432,295.173 236.5,296.5 Z"/></g>
<g><path style="opacity:1" fill="#8d8b8b" d="M 216.5,297.5 C 216.5,311.833 216.5,326.167 216.5,340.5C 219.167,340.5 221.833,340.5 224.5,340.5C 224.334,334.824 224.501,329.157 225,323.5C 226.616,322.199 228.116,322.199 229.5,323.5C 228.5,323.5 227.5,323.5 226.5,323.5C 226.5,329.5 226.5,335.5 226.5,341.5C 222.833,341.5 219.167,341.5 215.5,341.5C 215.171,326.657 215.504,311.99 216.5,297.5 Z"/></g>
<g><path style="opacity:1" fill="#bfbcbd" d="M 293.5,296.5 C 296.962,295.518 300.629,295.185 304.5,295.5C 304.83,311.009 304.496,326.342 303.5,341.5C 303.829,326.657 303.496,311.99 302.5,297.5C 299.713,296.523 296.713,296.19 293.5,296.5 Z"/></g>
<g><path style="opacity:1" fill="#676364" d="M 332.5,304.5 C 330.521,316.12 329.854,328.12 330.5,340.5C 327.833,340.5 325.167,340.5 322.5,340.5C 322.828,328.322 322.495,316.322 321.5,304.5C 318.713,303.523 315.713,303.19 312.5,303.5C 312.5,301.5 312.5,299.5 312.5,297.5C 322.167,297.5 331.833,297.5 341.5,297.5C 341.5,299.5 341.5,301.5 341.5,303.5C 338.287,303.19 335.287,303.523 332.5,304.5 Z"/></g>
<g><path style="opacity:1" fill="#858384" d="M 348.5,297.5 C 348.833,297.5 349.167,297.5 349.5,297.5C 349.5,311.833 349.5,326.167 349.5,340.5C 358.167,340.5 366.833,340.5 375.5,340.5C 366.682,341.493 357.682,341.827 348.5,341.5C 348.5,326.833 348.5,312.167 348.5,297.5 Z"/></g>
<g><path style="opacity:0.999" fill="#6a6667" d="M 376.5,297.5 C 376.5,299.5 376.5,301.5 376.5,303.5C 370.5,303.5 364.5,303.5 358.5,303.5C 358.5,307.167 358.5,310.833 358.5,314.5C 364.167,314.5 369.833,314.5 375.5,314.5C 375.5,316.833 375.5,319.167 375.5,321.5C 369.833,321.5 364.167,321.5 358.5,321.5C 358.183,325.702 358.517,329.702 359.5,333.5C 364.64,334.488 369.974,334.821 375.5,334.5C 375.5,336.5 375.5,338.5 375.5,340.5C 366.833,340.5 358.167,340.5 349.5,340.5C 349.5,326.167 349.5,311.833 349.5,297.5C 358.402,296.185 367.402,296.185 376.5,297.5 Z"/></g>
<g><path style="opacity:1" fill="#858182" d="M 33.5,297.5 C 33.8333,297.5 34.1667,297.5 34.5,297.5C 34.1894,308.914 34.5227,320.248 35.5,331.5C 33.5223,320.549 32.8556,309.216 33.5,297.5 Z"/></g>
<g><path style="opacity:1" fill="#b0aeb0" d="M 293.5,296.5 C 293.5,311.5 293.5,326.5 293.5,341.5C 296.833,341.5 300.167,341.5 303.5,341.5C 300.038,342.482 296.371,342.815 292.5,342.5C 292.17,326.991 292.504,311.658 293.5,296.5 Z"/></g>
<g><path style="opacity:1" fill="#838081" d="M 293.5,296.5 C 296.713,296.19 299.713,296.523 302.5,297.5C 303.496,311.99 303.829,326.657 303.5,341.5C 300.167,341.5 296.833,341.5 293.5,341.5C 293.5,326.5 293.5,311.5 293.5,296.5 Z"/></g>
<g><path style="opacity:1" fill="#676364" d="M 302.5,297.5 C 302.5,311.833 302.5,326.167 302.5,340.5C 299.833,340.5 297.167,340.5 294.5,340.5C 294.5,326.167 294.5,311.833 294.5,297.5C 297.167,297.5 299.833,297.5 302.5,297.5 Z"/></g>
<g><path style="opacity:1" fill="#c6c4c4" d="M 143.5,297.5 C 145.213,298.635 145.88,300.302 145.5,302.5C 144.094,302.027 143.427,301.027 143.5,299.5C 143.5,298.833 143.5,298.167 143.5,297.5 Z"/></g>
<g><path style="opacity:1" fill="#b1afaf" d="M 277.5,303.5 C 274.098,303.342 270.764,303.676 267.5,304.5C 267.611,303.883 267.944,303.383 268.5,303C 271.696,302.195 274.696,302.362 277.5,303.5 Z"/></g>
<g><path style="opacity:0.999" fill="#f4f3f4" d="M 232.5,304.5 C 233.939,306.588 234.606,308.921 234.5,311.5C 234.279,312.735 233.612,313.735 232.5,314.5C 230.257,315.474 227.924,315.808 225.5,315.5C 225.5,311.5 225.5,307.5 225.5,303.5C 227.903,303.448 230.236,303.781 232.5,304.5 Z"/></g>
<g><path style="opacity:1" fill="#d0cfd0" d="M 310.5,304.5 C 310.833,304.5 311.167,304.5 311.5,304.5C 314.833,304.5 318.167,304.5 321.5,304.5C 321.5,316.833 321.5,329.167 321.5,341.5C 320.505,329.678 320.172,317.678 320.5,305.5C 316.958,305.813 313.625,305.479 310.5,304.5 Z"/></g>
<g><path style="opacity:1" fill="#908e8f" d="M 321.5,304.5 C 322.495,316.322 322.828,328.322 322.5,340.5C 325.167,340.5 327.833,340.5 330.5,340.5C 329.854,328.12 330.521,316.12 332.5,304.5C 332.667,316.838 332.5,329.171 332,341.5C 328.399,342.82 324.899,342.82 321.5,341.5C 321.5,329.167 321.5,316.833 321.5,304.5 Z"/></g>
<g><path style="opacity:1" fill="#c2c0c0" d="M 232.5,304.5 C 233.75,304.577 234.583,305.244 235,306.5C 235.78,308.387 235.613,310.054 234.5,311.5C 234.606,308.921 233.939,306.588 232.5,304.5 Z"/></g>
<g><path style="opacity:1" fill="#c2c0c0" d="M 156.5,307.5 C 156.59,310.152 155.924,312.485 154.5,314.5C 154.41,311.848 155.076,309.515 156.5,307.5 Z"/></g>
<g><path style="opacity:1" fill="#bbbabb" d="M 269.5,312.5 C 271.967,312.755 273.967,313.755 275.5,315.5C 273.033,315.245 271.033,314.245 269.5,312.5 Z"/></g>
<g><path style="opacity:1" fill="#a09ea0" d="M 80.5,316.5 C 79.6618,316.158 79.3284,315.492 79.5,314.5C 79.5386,313.244 79.0386,312.244 78,311.5C 77.8302,321.675 77.3302,331.675 76.5,341.5C 76.168,330.813 76.5013,320.146 77.5,309.5C 80.0934,311.071 81.0934,313.404 80.5,316.5 Z"/></g>
<g><path style="opacity:1" fill="#d8d7d8" d="M 79.5,314.5 C 79.1566,324.045 78.1566,333.378 76.5,342.5C 76.5,342.167 76.5,341.833 76.5,341.5C 77.3302,331.675 77.8302,321.675 78,311.5C 79.0386,312.244 79.5386,313.244 79.5,314.5 Z"/></g>
<g><path style="opacity:1" fill="#adabac" d="M 241.5,316.5 C 240.4,317.605 239.733,318.938 239.5,320.5C 237.972,320.483 237.472,319.816 238,318.5C 238.816,317.177 239.983,316.511 241.5,316.5 Z"/></g>
<g><path style="opacity:1" fill="#908d8d" d="M 138.5,317.5 C 140.88,320.675 141.88,324.342 141.5,328.5C 139.742,325.146 138.742,321.479 138.5,317.5 Z"/></g>
<g><path style="opacity:1" fill="#afadad" d="M 205.5,303.5 C 200.36,304.488 195.026,304.821 189.5,304.5C 189.5,307.5 189.5,310.5 189.5,313.5C 194.833,313.5 200.167,313.5 205.5,313.5C 205.5,316.5 205.5,319.5 205.5,322.5C 200.167,322.5 194.833,322.5 189.5,322.5C 189.5,326.167 189.5,329.833 189.5,333.5C 188.517,329.702 188.183,325.702 188.5,321.5C 193.833,321.5 199.167,321.5 204.5,321.5C 204.5,319.167 204.5,316.833 204.5,314.5C 199.167,314.5 193.833,314.5 188.5,314.5C 188.5,310.833 188.5,307.167 188.5,303.5C 194.167,303.5 199.833,303.5 205.5,303.5 Z"/></g>
<g><path style="opacity:1" fill="#9b9899" d="M 280.5,319.5 C 282.173,320.343 283.34,321.676 284,323.5C 284.805,326.696 284.638,329.696 283.5,332.5C 283.879,327.784 282.879,323.45 280.5,319.5 Z"/></g>
<g><path style="opacity:1" fill="#acaaaa" d="M 376.5,303.5 C 371.025,304.489 365.358,304.822 359.5,304.5C 359.5,307.5 359.5,310.5 359.5,313.5C 365.167,313.5 370.833,313.5 376.5,313.5C 376.5,316.5 376.5,319.5 376.5,322.5C 370.833,322.5 365.167,322.5 359.5,322.5C 359.5,326.167 359.5,329.833 359.5,333.5C 358.517,329.702 358.183,325.702 358.5,321.5C 364.167,321.5 369.833,321.5 375.5,321.5C 375.5,319.167 375.5,316.833 375.5,314.5C 369.833,314.5 364.167,314.5 358.5,314.5C 358.5,310.833 358.5,307.167 358.5,303.5C 364.5,303.5 370.5,303.5 376.5,303.5 Z"/></g>
<g><path style="opacity:0.996" fill="#bfbebe" d="M 80.5,316.5 C 82.3803,318.755 83.3803,321.422 83.5,324.5C 81.6197,322.245 80.6197,319.578 80.5,316.5 Z"/></g>
<g><path style="opacity:1" fill="#888485" d="M 146.5,311.5 C 148.31,316.601 149.81,321.934 151,327.5C 151.377,326.058 152.21,325.058 153.5,324.5C 153.978,327.278 152.978,329.278 150.5,330.5C 148.01,324.484 146.676,318.15 146.5,311.5 Z"/></g>
<g><path style="opacity:1" fill="#dadada" d="M 229.5,323.5 C 231.262,324.262 232.262,325.596 232.5,327.5C 231.185,326.524 229.852,325.524 228.5,324.5C 227.504,330.463 227.171,336.463 227.5,342.5C 223.298,342.817 219.298,342.483 215.5,341.5C 219.167,341.5 222.833,341.5 226.5,341.5C 226.5,335.5 226.5,329.5 226.5,323.5C 227.5,323.5 228.5,323.5 229.5,323.5 Z"/></g>
<g><path style="opacity:1" fill="#bab8b9" d="M 45.5,332.5 C 44.5081,334.026 43.0081,334.693 41,334.5C 39.6153,334.486 38.4486,334.152 37.5,333.5C 40.2372,333.599 42.9039,333.265 45.5,332.5 Z"/></g>
<g><path style="opacity:1" fill="#b3b0b1" d="M 189.5,333.5 C 195.167,333.5 200.833,333.5 206.5,333.5C 206.806,336.385 206.473,339.052 205.5,341.5C 205.802,338.941 205.468,336.607 204.5,334.5C 199.305,334.821 194.305,334.487 189.5,333.5 Z"/></g>
<g><path style="opacity:1" fill="#c0bebf" d="M 159.5,333.5 C 159.59,336.152 158.924,338.485 157.5,340.5C 157.41,337.848 158.076,335.515 159.5,333.5 Z"/></g>
<g><path style="opacity:1" fill="#c3c1c2" d="M 283.5,332.5 C 283.412,336.589 281.412,339.256 277.5,340.5C 279.945,338.07 281.945,335.404 283.5,332.5 Z"/></g>
<g><path style="opacity:0.996" fill="#989696" d="M 51.5,339.5 C 48.2265,341.981 44.3932,342.981 40,342.5C 37.5,342.333 35,342.167 32.5,342C 31.944,341.617 31.6107,341.117 31.5,340.5C 38.2661,341.936 44.9328,341.602 51.5,339.5 Z"/></g>
<g><path style="opacity:0.996" fill="#a7a5a5" d="M 244.5,330.5 C 246.74,334.098 248.074,338.098 248.5,342.5C 244.486,342.666 240.486,342.499 236.5,342C 235.287,339.313 234.62,336.48 234.5,333.5C 236.163,335.438 236.829,337.772 236.5,340.5C 239.833,340.5 243.167,340.5 246.5,340.5C 245.626,337.211 244.959,333.877 244.5,330.5 Z"/></g>
<g><path style="opacity:0.996" fill="#b0afaf" d="M 359.5,333.5 C 365.167,333.5 370.833,333.5 376.5,333.5C 376.5,336.5 376.5,339.5 376.5,342.5C 366.985,342.827 357.652,342.494 348.5,341.5C 357.682,341.827 366.682,341.493 375.5,340.5C 375.5,338.5 375.5,336.5 375.5,334.5C 369.974,334.821 364.64,334.488 359.5,333.5 Z"/></g>
<g><path style="opacity:1" fill="#c7c5c6" d="M 145.5,353.5 C 145.5,368.5 145.5,383.5 145.5,398.5C 148.5,398.5 151.5,398.5 154.5,398.5C 154.5,398.833 154.5,399.167 154.5,399.5C 151.167,399.5 147.833,399.5 144.5,399.5C 144.17,383.991 144.504,368.658 145.5,353.5 Z"/></g>
<g><path style="opacity:0.999" fill="#72c835" d="M 44.5,353.5 C 45.8333,353.833 47.1667,354.167 48.5,354.5C 48.9731,355.906 49.9731,356.573 51.5,356.5C 53.9385,358.027 55.9385,360.027 57.5,362.5C 57.427,364.027 58.0937,365.027 59.5,365.5C 61.017,373.258 60.6837,380.924 58.5,388.5C 56.5293,390.808 54.5293,393.142 52.5,395.5C 49.274,397.877 45.6073,398.877 41.5,398.5C 35.8333,398.5 30.1667,398.5 24.5,398.5C 24.5,383.5 24.5,368.5 24.5,353.5C 31.1667,353.5 37.8333,353.5 44.5,353.5 Z"/></g>
<g><path style="opacity:0.996" fill="#e1f2d4" d="M 67.5,353.5 C 67.1706,368.676 67.5039,383.676 68.5,398.5C 68.5,398.833 68.5,399.167 68.5,399.5C 67.8333,399.5 67.1667,399.5 66.5,399.5C 66.1705,383.991 66.5038,368.658 67.5,353.5 Z"/></g>
<g><path style="opacity:1" fill="#b0e08d" d="M 93.5,353.5 C 85.5,353.5 77.5,353.5 69.5,353.5C 68.5039,368.324 68.1706,383.324 68.5,398.5C 67.5039,383.676 67.1706,368.676 67.5,353.5C 76.1667,352.167 84.8333,352.167 93.5,353.5 Z"/></g>
<g><path style="opacity:1" fill="#7ecc45" d="M 69.5,353.5 C 69.5,368.167 69.5,382.833 69.5,397.5C 77.5,397.5 85.5,397.5 93.5,397.5C 93.5,395.833 93.5,394.167 93.5,392.5C 93.8333,392.5 94.1667,392.5 94.5,392.5C 94.5,394.5 94.5,396.5 94.5,398.5C 85.8333,398.5 77.1667,398.5 68.5,398.5C 68.1706,383.324 68.5039,368.324 69.5,353.5 Z"/></g>
<g><path style="opacity:1" fill="#6ec62f" d="M 69.5,353.5 C 77.5,353.5 85.5,353.5 93.5,353.5C 93.5,355.833 93.5,358.167 93.5,360.5C 88.3054,360.179 83.3054,360.513 78.5,361.5C 78.5,364.833 78.5,368.167 78.5,371.5C 82.97,372.486 87.6367,372.819 92.5,372.5C 92.5,374.5 92.5,376.5 92.5,378.5C 87.6367,378.181 82.97,378.514 78.5,379.5C 77.5151,383.634 77.1818,387.968 77.5,392.5C 82.8333,392.5 88.1667,392.5 93.5,392.5C 93.5,394.167 93.5,395.833 93.5,397.5C 85.5,397.5 77.5,397.5 69.5,397.5C 69.5,382.833 69.5,368.167 69.5,353.5 Z"/></g>
<g><path style="opacity:1" fill="#b5b3b3" d="M 171.5,353.5 C 174.625,352.521 177.958,352.187 181.5,352.5C 181.5,368.167 181.5,383.833 181.5,399.5C 176.833,399.5 172.167,399.5 167.5,399.5C 167.5,399.167 167.5,398.833 167.5,398.5C 171.833,398.5 176.167,398.5 180.5,398.5C 180.5,383.5 180.5,368.5 180.5,353.5C 177.833,353.5 175.167,353.5 172.5,353.5C 172.167,353.5 171.833,353.5 171.5,353.5 Z"/></g>
<g><path style="opacity:1" fill="#aadd84" d="M 44.5,353.5 C 37.8333,353.5 31.1667,353.5 24.5,353.5C 24.5,368.5 24.5,383.5 24.5,398.5C 30.1667,398.5 35.8333,398.5 41.5,398.5C 41.5,398.833 41.5,399.167 41.5,399.5C 35.5,399.5 29.5,399.5 23.5,399.5C 23.5,383.833 23.5,368.167 23.5,352.5C 30.6866,352.175 37.6866,352.509 44.5,353.5 Z"/></g>
<g><path style="opacity:1" fill="#b8e298" d="M 48.5,354.5 C 50.0269,354.427 51.0269,355.094 51.5,356.5C 49.9731,356.573 48.9731,355.906 48.5,354.5 Z"/></g>
<g><path style="opacity:1" fill="#797677" d="M 256.5,353.5 C 256.993,355.806 257.326,358.139 257.5,360.5C 255.72,359.01 255.054,357.01 255.5,354.5C 250.833,354.5 246.167,354.5 241.5,354.5C 241.5,368.833 241.5,383.167 241.5,397.5C 243.833,397.5 246.167,397.5 248.5,397.5C 248.5,386.167 248.5,374.833 248.5,363.5C 249.833,363.5 251.167,363.5 252.5,363.5C 252.5,366.167 252.5,368.833 252.5,371.5C 251.662,371.158 251.328,370.492 251.5,369.5C 251.719,368.325 251.386,367.325 250.5,366.5C 249.501,377.146 249.168,387.813 249.5,398.5C 246.5,398.5 243.5,398.5 240.5,398.5C 240.5,383.5 240.5,368.5 240.5,353.5C 245.833,353.5 251.167,353.5 256.5,353.5 Z"/></g>
<g><path style="opacity:1" fill="#acaaaa" d="M 298.5,353.5 C 301.962,352.518 305.629,352.185 309.5,352.5C 309.5,363.5 309.5,374.5 309.5,385.5C 308.506,375.013 308.172,364.346 308.5,353.5C 305.167,353.5 301.833,353.5 298.5,353.5 Z"/></g>
<g><path style="opacity:1" fill="#6a6667" d="M 146.5,353.5 C 150.833,353.5 155.167,353.5 159.5,353.5C 159.624,357.412 160.624,361.079 162.5,364.5C 162.755,366.967 163.755,368.967 165.5,370.5C 166.227,372.954 167.227,375.287 168.5,377.5C 168.5,378.167 168.5,378.833 168.5,379.5C 169.038,381.117 169.371,382.784 169.5,384.5C 170.5,384.5 171.5,384.5 172.5,384.5C 172.5,374.167 172.5,363.833 172.5,353.5C 175.167,353.5 177.833,353.5 180.5,353.5C 180.5,368.5 180.5,383.5 180.5,398.5C 176.167,398.5 171.833,398.5 167.5,398.5C 166.179,391.185 163.512,384.518 159.5,378.5C 159.09,374.613 158.09,370.947 156.5,367.5C 155.791,366.596 154.791,366.263 153.5,366.5C 153.5,376.833 153.5,387.167 153.5,397.5C 151.167,397.5 148.833,397.5 146.5,397.5C 146.5,382.833 146.5,368.167 146.5,353.5 Z"/></g>
<g><path style="opacity:1" fill="#928f90" d="M 171.5,353.5 C 171.833,353.5 172.167,353.5 172.5,353.5C 172.5,363.833 172.5,374.167 172.5,384.5C 171.5,384.5 170.5,384.5 169.5,384.5C 169.371,382.784 169.038,381.117 168.5,379.5C 169.966,380.347 170.8,381.68 171,383.5C 171.5,373.506 171.666,363.506 171.5,353.5 Z"/></g>
<g><path style="opacity:1" fill="#d9d8d8" d="M 171.5,353.5 C 171.666,363.506 171.5,373.506 171,383.5C 170.8,381.68 169.966,380.347 168.5,379.5C 168.5,378.833 168.5,378.167 168.5,377.5C 169.117,377.611 169.617,377.944 170,378.5C 170.171,369.99 170.671,361.657 171.5,353.5 Z"/></g>
<g><path style="opacity:0.999" fill="#6c6869" d="M 218.5,358.5 C 218.41,361.152 219.076,363.485 220.5,365.5C 220.5,365.833 220.5,366.167 220.5,366.5C 221.06,368.801 221.56,371.134 222,373.5C 222.383,374.056 222.883,374.389 223.5,374.5C 223.5,374.833 223.5,375.167 223.5,375.5C 223.259,377.898 223.926,379.898 225.5,381.5C 227.405,385.556 228.739,389.89 229.5,394.5C 229.5,395.833 229.5,397.167 229.5,398.5C 226.5,398.5 223.5,398.5 220.5,398.5C 220.5,398.167 220.5,397.833 220.5,397.5C 220.365,390.558 216.865,387.558 210,388.5C 207.071,388.525 204.571,389.191 202.5,390.5C 201.596,391.209 201.263,392.209 201.5,393.5C 199.787,394.635 199.12,396.302 199.5,398.5C 196.5,398.5 193.5,398.5 190.5,398.5C 190.5,397.5 190.5,396.5 190.5,395.5C 192.109,392.407 193.109,389.073 193.5,385.5C 195.897,382.691 197.23,379.358 197.5,375.5C 199.372,368.344 201.706,361.344 204.5,354.5C 208.783,353.508 213.116,353.174 217.5,353.5C 217.366,355.292 217.699,356.958 218.5,358.5 Z"/></g>
<g><path style="opacity:1" fill="#b2b0b0" d="M 256.5,353.5 C 251.167,353.5 245.833,353.5 240.5,353.5C 240.5,368.5 240.5,383.5 240.5,398.5C 239.504,383.342 239.17,368.009 239.5,352.5C 245.358,352.178 251.025,352.511 256.5,353.5 Z"/></g>
<g><path style="opacity:0.999" fill="#696566" d="M 257.5,360.5 C 259.226,362.82 259.893,365.487 259.5,368.5C 259.41,371.152 260.076,373.485 261.5,375.5C 262.451,376.919 262.784,378.585 262.5,380.5C 262.706,382.549 263.539,382.883 265,381.5C 266.31,377.93 267.143,374.263 267.5,370.5C 267.517,368.435 267.85,366.435 268.5,364.5C 269.869,362.309 270.869,359.975 271.5,357.5C 272.404,356.791 272.737,355.791 272.5,354.5C 276.833,354.5 281.167,354.5 285.5,354.5C 285.5,368.833 285.5,383.167 285.5,397.5C 283.167,397.5 280.833,397.5 278.5,397.5C 278.832,385.814 278.499,374.148 277.5,362.5C 276.702,362.957 276.369,363.624 276.5,364.5C 275.699,366.042 275.366,367.708 275.5,369.5C 271.456,378.663 268.79,388.33 267.5,398.5C 264.833,398.5 262.167,398.5 259.5,398.5C 259.747,396.142 259.081,394.142 257.5,392.5C 256.587,385.163 254.92,378.163 252.5,371.5C 252.5,368.833 252.5,366.167 252.5,363.5C 251.167,363.5 249.833,363.5 248.5,363.5C 248.5,374.833 248.5,386.167 248.5,397.5C 246.167,397.5 243.833,397.5 241.5,397.5C 241.5,383.167 241.5,368.833 241.5,354.5C 246.167,354.5 250.833,354.5 255.5,354.5C 255.054,357.01 255.72,359.01 257.5,360.5 Z"/></g>
<g><path style="opacity:1" fill="#7c787a" d="M 271.5,353.5 C 276.5,353.5 281.5,353.5 286.5,353.5C 286.5,368.5 286.5,383.5 286.5,398.5C 283.5,398.5 280.5,398.5 277.5,398.5C 277.828,386.988 277.495,375.654 276.5,364.5C 276.369,363.624 276.702,362.957 277.5,362.5C 278.499,374.148 278.832,385.814 278.5,397.5C 280.833,397.5 283.167,397.5 285.5,397.5C 285.5,383.167 285.5,368.833 285.5,354.5C 281.167,354.5 276.833,354.5 272.5,354.5C 272.737,355.791 272.404,356.791 271.5,357.5C 271.5,356.167 271.5,354.833 271.5,353.5 Z"/></g>
<g><path style="opacity:1" fill="#6b6768" d="M 298.5,353.5 C 301.833,353.5 305.167,353.5 308.5,353.5C 308.172,364.346 308.506,375.013 309.5,385.5C 309.393,387.903 310.393,389.736 312.5,391C 315.927,392.166 318.593,391.332 320.5,388.5C 321.117,388.389 321.617,388.056 322,387.5C 322.5,376.172 322.667,364.838 322.5,353.5C 325.5,353.5 328.5,353.5 331.5,353.5C 331.667,364.838 331.5,376.172 331,387.5C 330.256,389.9 329.423,392.233 328.5,394.5C 325.594,396.45 322.594,398.117 319.5,399.5C 315.5,399.5 311.5,399.5 307.5,399.5C 303.804,396.965 300.97,393.631 299,389.5C 298.5,377.505 298.333,365.505 298.5,353.5 Z"/></g>
<g><path style="opacity:1" fill="#898687" d="M 322.5,353.5 C 322.667,364.838 322.5,376.172 322,387.5C 321.617,388.056 321.117,388.389 320.5,388.5C 321.127,376.704 321.793,365.038 322.5,353.5 Z"/></g>
<g><path style="opacity:1" fill="#c1bfc0" d="M 331.5,353.5 C 332.659,364.993 332.826,376.659 332,388.5C 331.992,391.345 330.825,393.345 328.5,394.5C 329.423,392.233 330.256,389.9 331,387.5C 331.5,376.172 331.667,364.838 331.5,353.5 Z"/></g>
<g><path style="opacity:0.999" fill="#696566" d="M 344.5,353.5 C 351.508,353.334 358.508,353.5 365.5,354C 368.159,355.274 370.659,356.774 373,358.5C 373.706,362.887 373.54,367.22 372.5,371.5C 370.947,373.385 368.947,374.385 366.5,374.5C 366.587,377.578 367.92,379.911 370.5,381.5C 370.833,382.167 371.167,382.833 371.5,383.5C 371.338,385.527 371.505,387.527 372,389.5C 372.383,390.056 372.883,390.389 373.5,390.5C 373.833,391.833 374.167,393.167 374.5,394.5C 374.5,395.833 374.5,397.167 374.5,398.5C 371.167,398.5 367.833,398.5 364.5,398.5C 364.5,398.167 364.5,397.833 364.5,397.5C 364.072,394.215 363.072,391.215 361.5,388.5C 361.747,386.142 361.081,384.142 359.5,382.5C 358.108,379.607 355.941,378.94 353,380.5C 352.501,386.157 352.334,391.824 352.5,397.5C 349.833,397.5 347.167,397.5 344.5,397.5C 344.5,382.833 344.5,368.167 344.5,353.5 Z"/></g>
<g><path style="opacity:1" fill="#bcbabb" d="M 271.5,353.5 C 271.5,354.833 271.5,356.167 271.5,357.5C 270.869,359.975 269.869,362.309 268.5,364.5C 268.63,360.475 269.63,356.809 271.5,353.5 Z"/></g>
<g><path style="opacity:0.999" fill="#a8dc82" d="M 93.5,353.5 C 94.4731,355.948 94.8064,358.615 94.5,361.5C 89.1667,361.5 83.8333,361.5 78.5,361.5C 83.3054,360.513 88.3054,360.179 93.5,360.5C 93.5,358.167 93.5,355.833 93.5,353.5 Z"/></g>
<g><path style="opacity:1" fill="#afadae" d="M 218.5,358.5 C 219.924,360.515 220.59,362.848 220.5,365.5C 219.076,363.485 218.41,361.152 218.5,358.5 Z"/></g>
<g><path style="opacity:1" fill="#979494" d="M 360.5,361.5 C 358.167,361.5 355.833,361.5 353.5,361.5C 353.5,365.167 353.5,368.833 353.5,372.5C 352.517,368.702 352.183,364.702 352.5,360.5C 355.385,360.194 358.052,360.527 360.5,361.5 Z"/></g>
<g><path style="opacity:0.999" fill="#f3f3f3" d="M 360.5,361.5 C 363.167,365.167 363.167,368.833 360.5,372.5C 358.167,372.5 355.833,372.5 353.5,372.5C 353.5,368.833 353.5,365.167 353.5,361.5C 355.833,361.5 358.167,361.5 360.5,361.5 Z"/></g>
<g><path style="opacity:1" fill="#dcf0cc" d="M 42.5,362.5 C 40.1667,362.5 37.8333,362.5 35.5,362.5C 35.5,371.833 35.5,381.167 35.5,390.5C 37.1667,390.5 38.8333,390.5 40.5,390.5C 38.7354,391.461 36.7354,391.795 34.5,391.5C 34.5,381.5 34.5,371.5 34.5,361.5C 37.3854,361.194 40.0521,361.527 42.5,362.5 Z"/></g>
<g><path style="opacity:0.999" fill="#f9fcf7" d="M 42.5,362.5 C 47.8277,365.318 50.1611,369.818 49.5,376C 49.7785,379.823 48.9452,383.323 47,386.5C 45.1813,388.503 43.0146,389.836 40.5,390.5C 38.8333,390.5 37.1667,390.5 35.5,390.5C 35.5,381.167 35.5,371.833 35.5,362.5C 37.8333,362.5 40.1667,362.5 42.5,362.5 Z"/></g>
<g><path style="opacity:1" fill="#c5e7ac" d="M 57.5,362.5 C 58.9063,362.973 59.573,363.973 59.5,365.5C 58.0937,365.027 57.427,364.027 57.5,362.5 Z"/></g>
<g><path style="opacity:0.996" fill="#adabab" d="M 162.5,364.5 C 164.245,366.033 165.245,368.033 165.5,370.5C 163.755,368.967 162.755,366.967 162.5,364.5 Z"/></g>
<g><path style="opacity:0.996" fill="#bcbabb" d="M 212.5,370.5 C 211.768,369.192 210.934,367.858 210,366.5C 209.722,367.416 209.222,368.082 208.5,368.5C 208.5,366.833 208.5,365.167 208.5,363.5C 209.5,363.5 210.5,363.5 211.5,363.5C 211.993,365.806 212.326,368.139 212.5,370.5 Z"/></g>
<g><path style="opacity:0.996" fill="#908d8e" d="M 360.5,361.5 C 363.05,361.884 364.383,363.384 364.5,366C 364.204,367.888 363.704,369.722 363,371.5C 362.329,372.252 361.496,372.586 360.5,372.5C 363.167,368.833 363.167,365.167 360.5,361.5 Z"/></g>
<g><path style="opacity:1" fill="#f7f6f7" d="M 212.5,370.5 C 212.5,370.833 212.5,371.167 212.5,371.5C 213.299,374.43 213.632,377.43 213.5,380.5C 211.167,380.5 208.833,380.5 206.5,380.5C 206.5,378.5 206.5,376.5 206.5,374.5C 206.875,372.302 207.542,370.302 208.5,368.5C 209.222,368.082 209.722,367.416 210,366.5C 210.934,367.858 211.768,369.192 212.5,370.5 Z"/></g>
<g><path style="opacity:1" fill="#7f7c7d" d="M 145.5,353.5 C 145.833,353.5 146.167,353.5 146.5,353.5C 146.5,368.167 146.5,382.833 146.5,397.5C 148.833,397.5 151.167,397.5 153.5,397.5C 153.5,387.167 153.5,376.833 153.5,366.5C 154.791,366.263 155.791,366.596 156.5,367.5C 154.525,377.446 153.858,387.779 154.5,398.5C 151.5,398.5 148.5,398.5 145.5,398.5C 145.5,383.5 145.5,368.5 145.5,353.5 Z"/></g>
<g><path style="opacity:1" fill="#e3f4d7" d="M 78.5,361.5 C 83.8333,361.5 89.1667,361.5 94.5,361.5C 89.6946,362.487 84.6946,362.821 79.5,362.5C 79.5,365.167 79.5,367.833 79.5,370.5C 84.3633,370.181 89.03,370.514 93.5,371.5C 88.5,371.5 83.5,371.5 78.5,371.5C 78.5,368.167 78.5,364.833 78.5,361.5 Z"/></g>
<g><path style="opacity:1" fill="#c1c0c0" d="M 156.5,367.5 C 158.09,370.947 159.09,374.613 159.5,378.5C 158.442,376.192 157.276,373.858 156,371.5C 155.83,380.676 155.33,389.676 154.5,398.5C 153.858,387.779 154.525,377.446 156.5,367.5 Z"/></g>
<g><path style="opacity:0.999" fill="#f6f6f6" d="M 159.5,378.5 C 163.512,384.518 166.179,391.185 167.5,398.5C 167.5,398.833 167.5,399.167 167.5,399.5C 163.167,399.5 158.833,399.5 154.5,399.5C 154.5,399.167 154.5,398.833 154.5,398.5C 155.33,389.676 155.83,380.676 156,371.5C 157.276,373.858 158.442,376.192 159.5,378.5 Z"/></g>
<g><path style="opacity:1" fill="#a7a4a5" d="M 220.5,366.5 C 221.117,366.611 221.617,366.944 222,367.5C 222.44,369.866 222.94,372.199 223.5,374.5C 222.883,374.389 222.383,374.056 222,373.5C 221.56,371.134 221.06,368.801 220.5,366.5 Z"/></g>
<g><path style="opacity:1" fill="#bdbcbc" d="M 251.5,369.5 C 250.506,379.319 250.173,389.319 250.5,399.5C 247.167,399.5 243.833,399.5 240.5,399.5C 240.5,399.167 240.5,398.833 240.5,398.5C 243.5,398.5 246.5,398.5 249.5,398.5C 249.168,387.813 249.501,377.146 250.5,366.5C 251.386,367.325 251.719,368.325 251.5,369.5 Z"/></g>
<g><path style="opacity:1" fill="#cccbcb" d="M 372.5,371.5 C 371.821,373.668 370.821,375.668 369.5,377.5C 369.846,378.849 370.179,380.183 370.5,381.5C 367.92,379.911 366.587,377.578 366.5,374.5C 368.947,374.385 370.947,373.385 372.5,371.5 Z"/></g>
<g><path style="opacity:1" fill="#a09e9e" d="M 259.5,368.5 C 260.924,370.515 261.59,372.848 261.5,375.5C 260.076,373.485 259.41,371.152 259.5,368.5 Z"/></g>
<g><path style="opacity:1" fill="#f4f3f4" d="M 251.5,369.5 C 251.328,370.492 251.662,371.158 252.5,371.5C 252.761,378.926 254.428,385.926 257.5,392.5C 259.081,394.142 259.747,396.142 259.5,398.5C 262.167,398.5 264.833,398.5 267.5,398.5C 268.79,388.33 271.456,378.663 275.5,369.5C 276.494,379.319 276.827,389.319 276.5,399.5C 267.833,399.5 259.167,399.5 250.5,399.5C 250.173,389.319 250.506,379.319 251.5,369.5 Z"/></g>
<g><path style="opacity:1" fill="#b5b3b4" d="M 271.5,353.5 C 276.64,352.512 281.974,352.179 287.5,352.5C 287.5,368.167 287.5,383.833 287.5,399.5C 283.833,399.5 280.167,399.5 276.5,399.5C 276.827,389.319 276.494,379.319 275.5,369.5C 275.366,367.708 275.699,366.042 276.5,364.5C 277.495,375.654 277.828,386.988 277.5,398.5C 280.5,398.5 283.5,398.5 286.5,398.5C 286.5,383.5 286.5,368.5 286.5,353.5C 281.5,353.5 276.5,353.5 271.5,353.5 Z"/></g>
<g><path style="opacity:1" fill="#9a9898" d="M 267.5,370.5 C 267.143,374.263 266.31,377.93 265,381.5C 263.539,382.883 262.706,382.549 262.5,380.5C 263.497,380.53 264.164,380.03 264.5,379C 264.721,375.67 265.721,372.836 267.5,370.5 Z"/></g>
<g><path style="opacity:1" fill="#8ed25c" d="M 78.5,371.5 C 83.5,371.5 88.5,371.5 93.5,371.5C 93.5,374.167 93.5,376.833 93.5,379.5C 88.5,379.5 83.5,379.5 78.5,379.5C 82.97,378.514 87.6367,378.181 92.5,378.5C 92.5,376.5 92.5,374.5 92.5,372.5C 87.6367,372.819 82.97,372.486 78.5,371.5 Z"/></g>
<g><path style="opacity:0.999" fill="#bfbdbe" d="M 212.5,371.5 C 213.117,371.611 213.617,371.944 214,372.5C 214.502,375.513 215.002,378.513 215.5,381.5C 211.833,381.5 208.167,381.5 204.5,381.5C 204.41,378.848 205.076,376.515 206.5,374.5C 206.5,376.5 206.5,378.5 206.5,380.5C 208.833,380.5 211.167,380.5 213.5,380.5C 213.632,377.43 213.299,374.43 212.5,371.5 Z"/></g>
<g><path style="opacity:1" fill="#a19fa0" d="M 223.5,375.5 C 225.074,377.102 225.741,379.102 225.5,381.5C 223.926,379.898 223.259,377.898 223.5,375.5 Z"/></g>
<g><path style="opacity:0.999" fill="#e4f4d9" d="M 78.5,379.5 C 83.5,379.5 88.5,379.5 93.5,379.5C 89.03,380.486 84.3633,380.819 79.5,380.5C 79.5,383.833 79.5,387.167 79.5,390.5C 79.1667,390.5 78.8333,390.5 78.5,390.5C 78.5,386.833 78.5,383.167 78.5,379.5 Z"/></g>
<g><path style="opacity:0.999" fill="#f7f7f7" d="M 359.5,382.5 C 361.081,384.142 361.747,386.142 361.5,388.5C 361.528,391.916 362.528,394.916 364.5,397.5C 364.5,397.833 364.5,398.167 364.5,398.5C 364.5,398.833 364.5,399.167 364.5,399.5C 360.833,399.5 357.167,399.5 353.5,399.5C 354.455,393.591 354.789,387.591 354.5,381.5C 356.292,381.366 357.958,381.699 359.5,382.5 Z"/></g>
<g><path style="opacity:1" fill="#898687" d="M 344.5,353.5 C 344.5,368.167 344.5,382.833 344.5,397.5C 347.167,397.5 349.833,397.5 352.5,397.5C 352.334,391.824 352.501,386.157 353,380.5C 355.941,378.94 358.108,379.607 359.5,382.5C 357.958,381.699 356.292,381.366 354.5,381.5C 354.789,387.591 354.455,393.591 353.5,399.5C 350.167,399.5 346.833,399.5 343.5,399.5C 343.17,383.991 343.504,368.658 344.5,353.5 Z"/></g>
<g><path style="opacity:1" fill="#b1afb0" d="M 197.5,375.5 C 197.23,379.358 195.897,382.691 193.5,385.5C 193.343,384.127 193.51,382.793 194,381.5C 195.082,379.382 196.249,377.382 197.5,375.5 Z"/></g>
<g><path style="opacity:1" fill="#cecdcd" d="M 252.5,371.5 C 254.92,378.163 256.587,385.163 257.5,392.5C 254.428,385.926 252.761,378.926 252.5,371.5 Z"/></g>
<g><path style="opacity:1" fill="#b5b3b4" d="M 220.5,397.5 C 219.177,395.238 217.843,392.904 216.5,390.5C 211.784,389.225 207.117,389.225 202.5,390.5C 204.571,389.191 207.071,388.525 210,388.5C 216.865,387.558 220.365,390.558 220.5,397.5 Z"/></g>
<g><path style="opacity:0.999" fill="#fbfbfb" d="M 220.5,397.5 C 220.5,397.833 220.5,398.167 220.5,398.5C 220.5,398.833 220.5,399.167 220.5,399.5C 213.833,399.5 207.167,399.5 200.5,399.5C 200.517,397.435 200.85,395.435 201.5,393.5C 201.263,392.209 201.596,391.209 202.5,390.5C 207.117,389.225 211.784,389.225 216.5,390.5C 217.843,392.904 219.177,395.238 220.5,397.5 Z"/></g>
<g><path style="opacity:1" fill="#a6a3a4" d="M 371.5,383.5 C 372.407,385.657 373.073,387.99 373.5,390.5C 372.883,390.389 372.383,390.056 372,389.5C 371.505,387.527 371.338,385.527 371.5,383.5 Z"/></g>
<g><path style="opacity:0.996" fill="#d8efc6" d="M 58.5,388.5 C 57.9464,392.055 55.9464,394.388 52.5,395.5C 54.5293,393.142 56.5293,390.808 58.5,388.5 Z"/></g>
<g><path style="opacity:0.996" fill="#97d66a" d="M 78.5,379.5 C 78.5,383.167 78.5,386.833 78.5,390.5C 83.8333,391.167 89.1667,391.833 94.5,392.5C 94.1667,392.5 93.8333,392.5 93.5,392.5C 88.1667,392.5 82.8333,392.5 77.5,392.5C 77.1818,387.968 77.5151,383.634 78.5,379.5 Z"/></g>
<g><path style="opacity:0.996" fill="#bebdbd" d="M 361.5,388.5 C 363.072,391.215 364.072,394.215 364.5,397.5C 362.528,394.916 361.528,391.916 361.5,388.5 Z"/></g>
<g><path style="opacity:1" fill="#b7e399" d="M 78.5,390.5 C 78.8333,390.5 79.1667,390.5 79.5,390.5C 84.8333,390.5 90.1667,390.5 95.5,390.5C 95.5,393.5 95.5,396.5 95.5,399.5C 86.5,399.5 77.5,399.5 68.5,399.5C 68.5,399.167 68.5,398.833 68.5,398.5C 77.1667,398.5 85.8333,398.5 94.5,398.5C 94.5,396.5 94.5,394.5 94.5,392.5C 89.1667,391.833 83.8333,391.167 78.5,390.5 Z"/></g>
<g><path style="opacity:1" fill="#afadad" d="M 201.5,393.5 C 200.85,395.435 200.517,397.435 200.5,399.5C 196.833,399.5 193.167,399.5 189.5,399.5C 189.232,397.901 189.566,396.568 190.5,395.5C 190.5,396.5 190.5,397.5 190.5,398.5C 193.5,398.5 196.5,398.5 199.5,398.5C 199.12,396.302 199.787,394.635 201.5,393.5 Z"/></g>
<g><path style="opacity:1" fill="#b3b1b1" d="M 229.5,394.5 C 231.256,395.552 231.923,397.219 231.5,399.5C 227.833,399.5 224.167,399.5 220.5,399.5C 220.5,399.167 220.5,398.833 220.5,398.5C 223.5,398.5 226.5,398.5 229.5,398.5C 229.5,397.167 229.5,395.833 229.5,394.5 Z"/></g>
<g><path style="opacity:1" fill="#b1aeaf" d="M 374.5,394.5 C 375.931,395.78 376.598,397.447 376.5,399.5C 372.5,399.5 368.5,399.5 364.5,399.5C 364.5,399.167 364.5,398.833 364.5,398.5C 367.833,398.5 371.167,398.5 374.5,398.5C 374.5,397.167 374.5,395.833 374.5,394.5 Z"/></g>
</svg>
