<?xml version="1.0" encoding="UTF-8"?>
<!DOCTYPE svg PUBLIC "-//W3C//DTD SVG 1.1//EN" "http://www.w3.org/Graphics/SVG/1.1/DTD/svg11.dtd">
<svg xmlns="http://www.w3.org/2000/svg" version="1.1" width="300px" height="502px" style="shape-rendering:geometricPrecision; text-rendering:geometricPrecision; image-rendering:optimizeQuality; fill-rule:evenodd; clip-rule:evenodd" xmlns:xlink="http://www.w3.org/1999/xlink">
<g><path style="opacity:1" fill="#fefefe" d="M -0.5,-0.5 C 99.5,-0.5 199.5,-0.5 299.5,-0.5C 299.5,166.833 299.5,334.167 299.5,501.5C 199.5,501.5 99.5,501.5 -0.5,501.5C -0.5,334.167 -0.5,166.833 -0.5,-0.5 Z"/></g>
<g><path style="opacity:1" fill="#d5c8c7" d="M 129.5,1.5 C 138.117,1.828 146.45,3.16134 154.5,5.5C 145.852,5.33577 137.519,4.00244 129.5,1.5 Z"/></g>
<g><path style="opacity:1" fill="#ddd2d1" d="M 177.5,8.5 C 190.684,9.57007 203.518,12.2367 216,16.5C 219.802,16.545 223.635,16.545 227.5,16.5C 228.696,16.8457 228.696,17.3457 227.5,18C 230.471,18.7943 233.471,19.461 236.5,20C 238.819,21.1474 240.152,22.9807 240.5,25.5C 237.193,23.8466 233.86,22.1799 230.5,20.5C 216.312,16.9673 201.979,13.9673 187.5,11.5C 184.167,10.5 180.833,9.5 177.5,8.5 Z"/></g>
<g><path style="opacity:1" fill="#201c17" d="M 63.5,7.5 C 63.1961,8.14987 62.8627,8.81654 62.5,9.5C 70.6297,14.8143 76.6297,21.8143 80.5,30.5C 77.6341,28.4541 75.4675,25.7874 74,22.5C 68.5744,17.8169 63.4077,13.1502 58.5,8.5C 60.0418,7.69929 61.7085,7.36596 63.5,7.5 Z"/></g>
<g><path style="opacity:1" fill="#300d0d" d="M 187.5,11.5 C 201.979,13.9673 216.312,16.9673 230.5,20.5C 229.232,21.787 229.565,22.787 231.5,23.5C 225.6,25.4497 219.933,27.9497 214.5,31C 212.098,31.8141 209.765,31.6474 207.5,30.5C 204.678,26.2845 203.011,26.6179 202.5,31.5C 200.833,31.5 199.167,31.5 197.5,31.5C 197.279,34.0673 196.612,36.4006 195.5,38.5C 194.07,38.4208 192.736,38.7542 191.5,39.5C 190.738,38.3717 190.071,37.2051 189.5,36C 190.548,34.2438 190.548,32.4104 189.5,30.5C 187.105,27.8576 185.105,25.5243 183.5,23.5C 182.719,24.7287 182.219,26.062 182,27.5C 178.333,26.8333 174.667,26.1667 171,25.5C 168.978,26.9909 167.312,26.6576 166,24.5C 163.076,24.6257 160.409,25.959 158,28.5C 156.758,27.1279 155.258,26.1279 153.5,25.5C 152.167,26.8333 150.833,26.8333 149.5,25.5C 148.304,25.8457 148.304,26.3457 149.5,27C 147.714,27.1962 146.381,28.0295 145.5,29.5C 143.926,30.6309 142.259,30.7975 140.5,30C 140.167,29 139.833,28 139.5,27C 141.416,23.6362 144.083,21.1362 147.5,19.5C 145.726,18.8133 144.059,17.9799 142.5,17C 144.271,16.4646 144.604,15.6313 143.5,14.5C 142.167,15.1667 140.833,15.8333 139.5,16.5C 137.123,13.3272 134.789,10.1605 132.5,7C 133.6,5.97697 134.933,5.47697 136.5,5.5C 139.886,7.47099 143.386,7.80432 147,6.5C 151.357,9.54704 156.024,10.2137 161,8.5C 169.761,9.99299 178.594,10.993 187.5,11.5 Z"/></g>
<g><path style="opacity:1" fill="#300c0c" d="M 149.5,84.5 C 146.279,85.9001 144.279,88.4001 143.5,92C 146.167,94.3333 146.167,96.6667 143.5,99C 141.527,99.4955 139.527,99.6621 137.5,99.5C 137.88,96.2084 136.547,93.8751 133.5,92.5C 134.782,90.8208 135.782,88.9874 136.5,87C 133.778,86.5721 131.278,87.0721 129,88.5C 126.125,86.4794 122.958,85.1461 119.5,84.5C 119.167,84.5 118.833,84.5 118.5,84.5C 118.478,80.6828 116.644,78.3494 113,77.5C 111.306,73.9853 109.306,70.6519 107,67.5C 105.299,64.5675 105.466,61.9009 107.5,59.5C 105.892,58.7579 104.225,58.5913 102.5,59C 97.5447,51.8394 92.5447,44.6727 87.5,37.5C 86.675,36.6143 85.675,36.281 84.5,36.5C 84.0233,33.9748 82.6899,31.9748 80.5,30.5C 76.6297,21.8143 70.6297,14.8143 62.5,9.5C 62.8627,8.81654 63.1961,8.14987 63.5,7.5C 66.003,6.62949 68.6697,5.96282 71.5,5.5C 76.8932,6.25552 82.2265,5.58885 87.5,3.5C 99.1673,2.25005 110.834,2.25005 122.5,3.5C 122.64,5.12377 121.973,6.29044 120.5,7C 122.886,7.28355 123.552,8.28355 122.5,10C 123.167,10.3333 123.833,10.6667 124.5,11C 124.955,13.6818 124.955,16.5151 124.5,19.5C 125.797,21.3668 127.297,21.7002 129,20.5C 130.059,20.6301 130.892,21.1301 131.5,22C 130.835,26.5602 130.501,31.3936 130.5,36.5C 129.325,36.281 128.325,36.6143 127.5,37.5C 130.023,42.8732 130.69,48.5399 129.5,54.5C 129.39,56.374 130.056,57.874 131.5,59C 128.904,60.7972 129.237,62.1305 132.5,63C 132.167,63.3333 131.833,63.6667 131.5,64C 133.293,65.3102 135.126,65.8102 137,65.5C 137.823,62.1728 139.323,59.1728 141.5,56.5C 143.326,56.9202 145.326,56.9202 147.5,56.5C 147.725,52.9438 146.892,52.6105 145,55.5C 144.5,55.3333 144,55.1667 143.5,55C 146.001,53.5823 145.668,52.5823 142.5,52C 143.554,50.6124 143.72,49.1124 143,47.5C 141.658,48.9023 140.824,48.5689 140.5,46.5C 139.385,44.2675 139.385,42.1008 140.5,40C 138.355,39.2569 138.189,38.4235 140,37.5C 143.973,36.8342 147.806,36.5009 151.5,36.5C 153.519,37.4804 155.353,38.8138 157,40.5C 161.689,40.6184 166.355,40.6184 171,40.5C 172.167,40.6667 173.333,40.8333 174.5,41C 175.208,43.7676 176.708,44.6009 179,43.5C 179.273,45.1012 179.773,46.6012 180.5,48C 178.251,48.8632 176.418,48.3632 175,46.5C 171.512,48.7535 168.179,49.0868 165,47.5C 162.595,48.2744 160.095,48.7744 157.5,49C 158.609,50.813 157.942,51.6463 155.5,51.5C 155.401,54.6727 156.068,57.6727 157.5,60.5C 158.167,59.8333 158.833,59.1667 159.5,58.5C 159.833,59.8333 160.167,61.1667 160.5,62.5C 159.418,62.7486 158.085,62.9152 156.5,63C 155.809,64.0674 155.309,65.2341 155,66.5C 153.667,65.1667 152.333,65.1667 151,66.5C 151.175,68.8566 151.342,71.0232 151.5,73C 151,73.5 150.5,74 150,74.5C 149.984,77.9406 149.817,81.2739 149.5,84.5 Z"/></g>
<g><path style="opacity:1" fill="#aac0b9" d="M 248.5,30.5 C 254.297,32.6193 258.964,36.286 262.5,41.5C 257.462,38.3132 252.795,34.6465 248.5,30.5 Z"/></g>
<g><path style="opacity:1" fill="#073e31" d="M 239.5,27.5 C 239.461,28.5832 239.127,29.5832 238.5,30.5C 240.499,32.4935 241.999,34.8268 243,37.5C 243.333,36.8333 243.667,36.1667 244,35.5C 246.03,37.7375 248.53,39.2375 251.5,40C 253.109,43.2776 255.443,45.9442 258.5,48C 262.167,49 265.833,50 269.5,51C 271.224,51.4482 271.891,52.2815 271.5,53.5C 272.417,52.8728 273.417,52.5394 274.5,52.5C 278.456,54.7881 281.789,57.7881 284.5,61.5C 285.627,71.7721 285.627,82.1055 284.5,92.5C 283.833,82.3255 283.167,71.9922 282.5,61.5C 276.291,56.8241 269.624,52.9907 262.5,50C 258.712,48.8837 255.378,49.5504 252.5,52C 251.207,52.49 249.873,52.6567 248.5,52.5C 248.632,56.0322 246.966,58.0322 243.5,58.5C 240.14,60.6823 236.64,62.6823 233,64.5C 230.644,61.9783 228.477,59.3116 226.5,56.5C 225.833,57.1667 225.167,57.8333 224.5,58.5C 221.961,57.8847 219.461,57.2181 217,56.5C 215.649,58.019 214.149,59.3523 212.5,60.5C 211.5,59.1667 210.5,59.1667 209.5,60.5C 208.833,59.8333 208.167,59.1667 207.5,58.5C 206.5,59.8333 205.5,61.1667 204.5,62.5C 202.23,59.8577 200.23,57.0244 198.5,54C 198.833,53.1667 199.167,52.3333 199.5,51.5C 204.803,54.7674 209.637,53.7674 214,48.5C 214.667,47.5 214.667,46.5 214,45.5C 213.333,44.1667 212.667,44.1667 212,45.5C 209.429,44.0227 208.929,42.0227 210.5,39.5C 212.316,38.1851 213.983,36.6851 215.5,35C 219.893,32.3115 224.56,29.9781 229.5,28C 232.817,27.5017 236.15,27.335 239.5,27.5 Z"/></g>
<g><path style="opacity:1" fill="#260e0c" d="M 230.5,20.5 C 233.86,22.1799 237.193,23.8466 240.5,25.5C 240.5,25.8333 240.5,26.1667 240.5,26.5C 234.19,26.057 228.023,26.7237 222,28.5C 216.464,33.0288 210.631,37.1954 204.5,41C 194.482,52.1149 185.315,63.9482 177,76.5C 175.736,78.607 173.903,79.607 171.5,79.5C 171.657,80.8734 171.49,82.2068 171,83.5C 162.881,91.7743 155.381,100.441 148.5,109.5C 146.926,110.631 145.259,110.798 143.5,110C 140.969,106.642 138.302,103.476 135.5,100.5C 132.068,96.7334 128.068,93.7334 123.5,91.5C 121.433,89.6823 120.1,87.349 119.5,84.5C 122.958,85.1461 126.125,86.4794 129,88.5C 131.278,87.0721 133.778,86.5721 136.5,87C 135.782,88.9874 134.782,90.8208 133.5,92.5C 136.547,93.8751 137.88,96.2084 137.5,99.5C 139.527,99.6621 141.527,99.4955 143.5,99C 146.167,96.6667 146.167,94.3333 143.5,92C 144.279,88.4001 146.279,85.9001 149.5,84.5C 150.529,87.451 151.862,90.2844 153.5,93C 148.314,94.5494 148.48,96.0494 154,97.5C 157.956,96.0441 160.79,93.3774 162.5,89.5C 161.395,88.1076 160.061,86.941 158.5,86C 161.167,85.3333 163.833,84.6667 166.5,84C 167.227,82.6012 167.727,81.1012 168,79.5C 170.088,78.6919 172.088,77.6919 174,76.5C 174.885,74 176.052,71.6667 177.5,69.5C 176.965,67.7295 176.131,67.3961 175,68.5C 173.046,66.2149 173.213,64.0483 175.5,62C 174.551,61.3828 173.718,61.5494 173,62.5C 172.692,61.6919 172.192,61.0253 171.5,60.5C 171.446,61.6869 171.113,63.0202 170.5,64.5C 169.183,62.8409 167.517,61.6743 165.5,61C 165.854,59.3745 165.854,57.5412 165.5,55.5C 161.421,55.3309 160.921,54.3309 164,52.5C 165.473,52.9031 166.806,53.5697 168,54.5C 169.398,53.9491 170.732,53.6158 172,53.5C 173.593,57.8888 176.093,58.5554 179.5,55.5C 181.937,55.5984 183.937,56.5984 185.5,58.5C 186.711,56.5781 188.044,54.7448 189.5,53C 188.5,52.6667 187.5,52.3333 186.5,52C 188.245,46.465 191.245,41.965 195.5,38.5C 196.612,36.4006 197.279,34.0673 197.5,31.5C 199.167,31.5 200.833,31.5 202.5,31.5C 203.011,26.6179 204.678,26.2845 207.5,30.5C 209.765,31.6474 212.098,31.8141 214.5,31C 219.933,27.9497 225.6,25.4497 231.5,23.5C 229.565,22.787 229.232,21.787 230.5,20.5 Z"/></g>
<g><path style="opacity:1" fill="#195443" d="M 241.5,26.5 C 243.85,27.8611 246.184,29.1944 248.5,30.5C 252.795,34.6465 257.462,38.3132 262.5,41.5C 266.5,45.1667 270.5,48.8333 274.5,52.5C 273.417,52.5394 272.417,52.8728 271.5,53.5C 271.891,52.2815 271.224,51.4482 269.5,51C 265.833,50 262.167,49 258.5,48C 255.443,45.9442 253.109,43.2776 251.5,40C 248.53,39.2375 246.03,37.7375 244,35.5C 243.667,36.1667 243.333,36.8333 243,37.5C 241.999,34.8268 240.499,32.4935 238.5,30.5C 239.127,29.5832 239.461,28.5832 239.5,27.5C 240.492,27.6716 241.158,27.3382 241.5,26.5 Z"/></g>
<g><path style="opacity:1" fill="#083d30" d="M 58.5,8.5 C 63.4077,13.1502 68.5744,17.8169 74,22.5C 75.4675,25.7874 77.6341,28.4541 80.5,30.5C 82.6899,31.9748 84.0233,33.9748 84.5,36.5C 93.88,50.2322 103.047,64.2322 112,78.5C 113.98,80.8987 116.147,82.8987 118.5,84.5C 118.833,84.5 119.167,84.5 119.5,84.5C 120.1,87.349 121.433,89.6823 123.5,91.5C 122.167,91.5 120.833,91.5 119.5,91.5C 119.623,87.9601 117.957,85.9601 114.5,85.5C 114.649,84.448 114.483,83.448 114,82.5C 110.333,79.1667 106.667,75.8333 103,72.5C 102.696,70.5595 101.863,68.8928 100.5,67.5C 98.3633,66.9202 96.53,65.9202 95,64.5C 94.6667,64.8333 94.3333,65.1667 94,65.5C 91.6916,63.4485 89.6916,61.7818 88,60.5C 87.9024,62.6193 87.0691,64.286 85.5,65.5C 84.6919,65.1924 84.0253,64.6924 83.5,64C 86.0432,61.6492 85.3765,60.4825 81.5,60.5C 81.5923,64.0714 79.9257,65.2381 76.5,64C 79.2599,59.1066 78.0933,58.2733 73,61.5C 70.5472,60.5071 68.0472,60.3405 65.5,61C 66.8943,61.1713 67.7277,61.6713 68,62.5C 66.6667,63.8333 65.3333,63.8333 64,62.5C 63.1667,63.3333 62.3333,64.1667 61.5,65C 65.7232,65.6333 69.7232,65.3 73.5,64C 74.1258,64.7504 74.6258,65.5838 75,66.5C 75.8928,65.2888 76.7261,65.2888 77.5,66.5C 74.696,69.09 71.8627,69.09 69,66.5C 67.7202,66.6135 66.8869,67.2801 66.5,68.5C 68.8935,69.3491 71.2269,70.3491 73.5,71.5C 74.8027,70.2822 75.8027,70.6155 76.5,72.5C 76.6691,71.6034 77.0024,70.6034 77.5,69.5C 78.3857,70.325 78.719,71.325 78.5,72.5C 80.288,72.7852 81.9547,72.4519 83.5,71.5C 82.4706,71.7036 81.4706,71.2036 80.5,70C 82.0745,69.6643 83.4078,68.8309 84.5,67.5C 85.2283,69.1932 86.2283,70.6932 87.5,72C 85.1088,72.6914 85.1088,73.6914 87.5,75C 87.1667,75.3333 86.8333,75.6667 86.5,76C 87.376,77.586 88.376,79.086 89.5,80.5C 88.9984,81.521 88.3317,81.6877 87.5,81C 86.2744,79.3651 84.941,77.8651 83.5,76.5C 80.2045,77.816 77.2045,79.6494 74.5,82C 74.8333,82.3333 75.1667,82.6667 75.5,83C 73.2808,84.8891 72.4475,87.0558 73,89.5C 70.8266,86.723 70.3266,86.8897 71.5,90C 70.8333,90.3333 70.1667,90.6667 69.5,91C 71.4146,93.3996 73.0812,95.8996 74.5,98.5C 68.772,93.2666 63.9387,87.2666 60,80.5C 58.2591,79.2423 56.4258,78.2423 54.5,77.5C 54.6495,76.448 54.4828,75.448 54,74.5C 46.7372,64.9688 40.2372,54.9688 34.5,44.5C 29.4154,39.0779 23.7488,34.4113 17.5,30.5C 15.5405,29.4808 13.5405,29.4808 11.5,30.5C 25.3915,19.7399 41.0581,12.4065 58.5,8.5 Z"/></g>
<g><path style="opacity:1" fill="#a8b9b4" d="M 262.5,41.5 C 271.669,46.8214 280.169,53.1547 288,60.5C 288.81,64.3575 288.643,68.0242 287.5,71.5C 287.664,68.8127 287.497,66.146 287,63.5C 286.583,62.244 285.75,61.5774 284.5,61.5C 281.789,57.7881 278.456,54.7881 274.5,52.5C 270.5,48.8333 266.5,45.1667 262.5,41.5 Z"/></g>
<g><path style="opacity:1" fill="#110b07" d="M 54.5,77.5 C 53.7659,78.7079 53.4326,80.0413 53.5,81.5C 51.4771,78.4685 48.9771,75.8018 46,73.5C 40.8772,61.4236 33.0439,52.5902 22.5,47C 22.1053,44.2195 20.772,42.0528 18.5,40.5C 18.8333,39.8333 19.1667,39.1667 19.5,38.5C 17.9547,37.5481 16.288,37.2148 14.5,37.5C 14.0074,39.8056 13.6741,42.139 13.5,44.5C 11.9826,52.0701 11.316,59.7368 11.5,67.5C 10.8826,67.6107 10.3826,67.944 10,68.5C 9.50204,71.4816 9.33537,74.4816 9.5,77.5C 8.18608,74.723 7.18608,71.723 6.5,68.5C 5.13202,58.1561 4.79869,47.8228 5.5,37.5C 8.2165,37.3215 10.8832,36.8215 13.5,36C 12.2189,34.5913 11.2189,33.0913 10.5,31.5C 10.5,30.8333 10.8333,30.5 11.5,30.5C 13.5405,29.4808 15.5405,29.4808 17.5,30.5C 23.7488,34.4113 29.4154,39.0779 34.5,44.5C 40.2372,54.9688 46.7372,64.9688 54,74.5C 54.4828,75.448 54.6495,76.448 54.5,77.5 Z"/></g>
<g><path style="opacity:1" fill="#2a0d0c" d="M 129.5,1.5 C 137.519,4.00244 145.852,5.33577 154.5,5.5C 162.019,7.33551 169.685,8.33551 177.5,8.5C 180.833,9.5 184.167,10.5 187.5,11.5C 178.594,10.993 169.761,9.99299 161,8.5C 156.024,10.2137 151.357,9.54704 147,6.5C 143.386,7.80432 139.886,7.47099 136.5,5.5C 134.933,5.47697 133.6,5.97697 132.5,7C 134.789,10.1605 137.123,13.3272 139.5,16.5C 140.833,15.8333 142.167,15.1667 143.5,14.5C 144.604,15.6313 144.271,16.4646 142.5,17C 144.059,17.9799 145.726,18.8133 147.5,19.5C 144.083,21.1362 141.416,23.6362 139.5,27C 139.833,28 140.167,29 140.5,30C 142.259,30.7975 143.926,30.6309 145.5,29.5C 146.381,28.0295 147.714,27.1962 149.5,27C 148.304,26.3457 148.304,25.8457 149.5,25.5C 150.833,26.8333 152.167,26.8333 153.5,25.5C 155.258,26.1279 156.758,27.1279 158,28.5C 160.409,25.959 163.076,24.6257 166,24.5C 167.312,26.6576 168.978,26.9909 171,25.5C 174.667,26.1667 178.333,26.8333 182,27.5C 182.219,26.062 182.719,24.7287 183.5,23.5C 185.105,25.5243 187.105,27.8576 189.5,30.5C 190.548,32.4104 190.548,34.2438 189.5,36C 190.071,37.2051 190.738,38.3717 191.5,39.5C 192.736,38.7542 194.07,38.4208 195.5,38.5C 191.245,41.965 188.245,46.465 186.5,52C 187.5,52.3333 188.5,52.6667 189.5,53C 188.044,54.7448 186.711,56.5781 185.5,58.5C 183.937,56.5984 181.937,55.5984 179.5,55.5C 176.093,58.5554 173.593,57.8888 172,53.5C 170.732,53.6158 169.398,53.9491 168,54.5C 166.806,53.5697 165.473,52.9031 164,52.5C 160.921,54.3309 161.421,55.3309 165.5,55.5C 165.854,57.5412 165.854,59.3745 165.5,61C 167.517,61.6743 169.183,62.8409 170.5,64.5C 171.113,63.0202 171.446,61.6869 171.5,60.5C 172.192,61.0253 172.692,61.6919 173,62.5C 173.718,61.5494 174.551,61.3828 175.5,62C 173.213,64.0483 173.046,66.2149 175,68.5C 176.131,67.3961 176.965,67.7295 177.5,69.5C 176.052,71.6667 174.885,74 174,76.5C 172.088,77.6919 170.088,78.6919 168,79.5C 167.727,81.1012 167.227,82.6012 166.5,84C 163.833,84.6667 161.167,85.3333 158.5,86C 160.061,86.941 161.395,88.1076 162.5,89.5C 160.79,93.3774 157.956,96.0441 154,97.5C 148.48,96.0494 148.314,94.5494 153.5,93C 151.862,90.2844 150.529,87.451 149.5,84.5C 149.817,81.2739 149.984,77.9406 150,74.5C 150.5,74 151,73.5 151.5,73C 151.342,71.0232 151.175,68.8566 151,66.5C 152.333,65.1667 153.667,65.1667 155,66.5C 155.309,65.2341 155.809,64.0674 156.5,63C 158.085,62.9152 159.418,62.7486 160.5,62.5C 160.167,61.1667 159.833,59.8333 159.5,58.5C 158.833,59.1667 158.167,59.8333 157.5,60.5C 156.068,57.6727 155.401,54.6727 155.5,51.5C 157.942,51.6463 158.609,50.813 157.5,49C 160.095,48.7744 162.595,48.2744 165,47.5C 168.179,49.0868 171.512,48.7535 175,46.5C 176.418,48.3632 178.251,48.8632 180.5,48C 179.773,46.6012 179.273,45.1012 179,43.5C 176.708,44.6009 175.208,43.7676 174.5,41C 173.333,40.8333 172.167,40.6667 171,40.5C 166.355,40.6184 161.689,40.6184 157,40.5C 155.353,38.8138 153.519,37.4804 151.5,36.5C 147.806,36.5009 143.973,36.8342 140,37.5C 138.189,38.4235 138.355,39.2569 140.5,40C 139.385,42.1008 139.385,44.2675 140.5,46.5C 140.824,48.5689 141.658,48.9023 143,47.5C 143.72,49.1124 143.554,50.6124 142.5,52C 145.668,52.5823 146.001,53.5823 143.5,55C 144,55.1667 144.5,55.3333 145,55.5C 146.892,52.6105 147.725,52.9438 147.5,56.5C 145.326,56.9202 143.326,56.9202 141.5,56.5C 139.323,59.1728 137.823,62.1728 137,65.5C 135.126,65.8102 133.293,65.3102 131.5,64C 131.833,63.6667 132.167,63.3333 132.5,63C 129.237,62.1305 128.904,60.7972 131.5,59C 130.056,57.874 129.39,56.374 129.5,54.5C 130.69,48.5399 130.023,42.8732 127.5,37.5C 128.325,36.6143 129.325,36.281 130.5,36.5C 130.501,31.3936 130.835,26.5602 131.5,22C 130.892,21.1301 130.059,20.6301 129,20.5C 127.297,21.7002 125.797,21.3668 124.5,19.5C 124.955,16.5151 124.955,13.6818 124.5,11C 123.833,10.6667 123.167,10.3333 122.5,10C 123.552,8.28355 122.886,7.28355 120.5,7C 121.973,6.29044 122.64,5.12377 122.5,3.5C 110.834,2.25005 99.1673,2.25005 87.5,3.5C 82.2265,5.58885 76.8932,6.25552 71.5,5.5C 79.4474,2.6054 87.7808,1.1054 96.5,1C 107.516,0.346873 118.516,0.513539 129.5,1.5 Z"/></g>
<g><path style="opacity:1" fill="#201411" d="M 84.5,36.5 C 85.675,36.281 86.675,36.6143 87.5,37.5C 92.5447,44.6727 97.5447,51.8394 102.5,59C 104.225,58.5913 105.892,58.7579 107.5,59.5C 105.466,61.9009 105.299,64.5675 107,67.5C 109.306,70.6519 111.306,73.9853 113,77.5C 116.644,78.3494 118.478,80.6828 118.5,84.5C 116.147,82.8987 113.98,80.8987 112,78.5C 103.047,64.2322 93.88,50.2322 84.5,36.5 Z"/></g>
<g><path style="opacity:1" fill="#310d0d" d="M 37.5,109.5 C 34.8517,109.738 33.0183,111.072 32,113.5C 31.3333,111.5 30,110.167 28,109.5C 27.5172,110.448 27.3505,111.448 27.5,112.5C 24.2064,111.947 22.5397,112.947 22.5,115.5C 21.8076,114.975 21.3076,114.308 21,113.5C 20.7489,111.567 20.2489,109.734 19.5,108C 21.5127,107.125 21.5127,105.791 19.5,104C 20.6457,101.443 19.6457,100.11 16.5,100C 17.624,99.7508 18.624,99.2508 19.5,98.5C 18.4706,98.7036 17.4706,98.2036 16.5,97C 17.0814,96.1074 17.4148,95.1074 17.5,94C 15.6795,90.8454 15.0128,87.6787 15.5,84.5C 14.5,84.5 13.5,84.5 12.5,84.5C 12.0611,79.5965 11.3944,74.7632 10.5,70C 11.2524,69.3292 11.5858,68.4959 11.5,67.5C 11.316,59.7368 11.9826,52.0701 13.5,44.5C 15.2247,43.722 16.8914,43.3886 18.5,43.5C 22.148,48.315 26.3147,52.6484 31,56.5C 32.5588,58.2166 33.3921,60.2166 33.5,62.5C 34.9305,62.4208 36.2638,62.7542 37.5,63.5C 38.5283,65.3615 40.0283,66.6948 42,67.5C 42.056,70.7802 42.8893,73.7802 44.5,76.5C 43.2558,78.1333 43.7558,79.1333 46,79.5C 48.0779,78.4799 49.7445,79.1466 51,81.5C 52.6341,89.7135 51.1341,97.2135 46.5,104C 43.7425,106.3 40.7425,108.133 37.5,109.5 Z"/></g>
<g><path style="opacity:1" fill="#064336" d="M 123.5,91.5 C 128.068,93.7334 132.068,96.7334 135.5,100.5C 136.161,103.813 137.994,106.48 141,108.5C 141.219,109.938 141.719,111.271 142.5,112.5C 145.134,113.516 147.8,113.516 150.5,112.5C 150.517,109.477 151.517,106.81 153.5,104.5C 154.192,105.025 154.692,105.692 155,106.5C 156.117,105.051 156.784,103.384 157,101.5C 159.558,103.943 160.392,103.443 159.5,100C 161.684,97.9835 163.684,95.8169 165.5,93.5C 166.287,94.2421 166.953,95.0754 167.5,96C 164.789,101.384 160.956,105.884 156,109.5C 155.667,109.167 155.333,108.833 155,108.5C 154.776,110.131 155.61,111.131 157.5,111.5C 159.225,110.985 160.892,110.318 162.5,109.5C 164.88,105.595 167.547,101.928 170.5,98.5C 171.288,103.712 171.788,109.045 172,114.5C 173.818,112.355 175.318,112.355 176.5,114.5C 178.599,112.48 180.933,112.146 183.5,113.5C 182.96,114.748 182.293,115.915 181.5,117C 183.166,117.997 184.666,119.497 186,121.5C 187.153,118.289 187.82,114.956 188,111.5C 189.214,113.049 190.714,114.215 192.5,115C 191.167,116 191.167,117 192.5,118C 190.875,118.853 190.542,119.853 191.5,121C 189.335,122.339 187.335,123.839 185.5,125.5C 183.895,126.43 182.395,126.43 181,125.5C 181.227,127.688 180.894,130.021 180,132.5C 175.665,136.511 171.331,140.511 167,144.5C 166.51,145.793 166.343,147.127 166.5,148.5C 159.672,155.496 153.005,162.663 146.5,170C 142.952,171.762 139.619,171.262 136.5,168.5C 129.806,159.64 123.306,150.64 117,141.5C 102.631,127.299 88.4648,112.965 74.5,98.5C 73.0812,95.8996 71.4146,93.3996 69.5,91C 70.1667,90.6667 70.8333,90.3333 71.5,90C 70.3266,86.8897 70.8266,86.723 73,89.5C 72.4475,87.0558 73.2808,84.8891 75.5,83C 75.1667,82.6667 74.8333,82.3333 74.5,82C 77.2045,79.6494 80.2045,77.816 83.5,76.5C 84.941,77.8651 86.2744,79.3651 87.5,81C 88.3317,81.6877 88.9984,81.521 89.5,80.5C 88.376,79.086 87.376,77.586 86.5,76C 86.8333,75.6667 87.1667,75.3333 87.5,75C 85.1088,73.6914 85.1088,72.6914 87.5,72C 86.2283,70.6932 85.2283,69.1932 84.5,67.5C 83.4078,68.8309 82.0745,69.6643 80.5,70C 81.4706,71.2036 82.4706,71.7036 83.5,71.5C 81.9547,72.4519 80.288,72.7852 78.5,72.5C 78.719,71.325 78.3857,70.325 77.5,69.5C 77.0024,70.6034 76.6691,71.6034 76.5,72.5C 75.8027,70.6155 74.8027,70.2822 73.5,71.5C 71.2269,70.3491 68.8935,69.3491 66.5,68.5C 66.8869,67.2801 67.7202,66.6135 69,66.5C 71.8627,69.09 74.696,69.09 77.5,66.5C 76.7261,65.2888 75.8928,65.2888 75,66.5C 74.6258,65.5838 74.1258,64.7504 73.5,64C 69.7232,65.3 65.7232,65.6333 61.5,65C 62.3333,64.1667 63.1667,63.3333 64,62.5C 65.3333,63.8333 66.6667,63.8333 68,62.5C 67.7277,61.6713 66.8943,61.1713 65.5,61C 68.0472,60.3405 70.5472,60.5071 73,61.5C 78.0933,58.2733 79.2599,59.1066 76.5,64C 79.9257,65.2381 81.5923,64.0714 81.5,60.5C 85.3765,60.4825 86.0432,61.6492 83.5,64C 84.0253,64.6924 84.6919,65.1924 85.5,65.5C 87.0691,64.286 87.9024,62.6193 88,60.5C 89.6916,61.7818 91.6916,63.4485 94,65.5C 94.3333,65.1667 94.6667,64.8333 95,64.5C 96.53,65.9202 98.3633,66.9202 100.5,67.5C 101.863,68.8928 102.696,70.5595 103,72.5C 106.667,75.8333 110.333,79.1667 114,82.5C 114.483,83.448 114.649,84.448 114.5,85.5C 117.957,85.9601 119.623,87.9601 119.5,91.5C 120.833,91.5 122.167,91.5 123.5,91.5 Z"/></g>
<g><path style="opacity:1" fill="#1e0e0c" d="M 53.5,81.5 C 53.4599,86.1925 53.1266,90.8592 52.5,95.5C 50.9555,102.224 46.9555,107.058 40.5,110C 35.5599,114.432 31.2265,119.265 27.5,124.5C 29.9818,119.002 33.3151,114.002 37.5,109.5C 40.7425,108.133 43.7425,106.3 46.5,104C 51.1341,97.2135 52.6341,89.7135 51,81.5C 49.7445,79.1466 48.0779,78.4799 46,79.5C 43.7558,79.1333 43.2558,78.1333 44.5,76.5C 42.8893,73.7802 42.056,70.7802 42,67.5C 40.0283,66.6948 38.5283,65.3615 37.5,63.5C 36.2638,62.7542 34.9305,62.4208 33.5,62.5C 33.3921,60.2166 32.5588,58.2166 31,56.5C 26.3147,52.6484 22.148,48.315 18.5,43.5C 16.8914,43.3886 15.2247,43.722 13.5,44.5C 13.6741,42.139 14.0074,39.8056 14.5,37.5C 16.288,37.2148 17.9547,37.5481 19.5,38.5C 19.1667,39.1667 18.8333,39.8333 18.5,40.5C 20.772,42.0528 22.1053,44.2195 22.5,47C 33.0439,52.5902 40.8772,61.4236 46,73.5C 48.9771,75.8018 51.4771,78.4685 53.5,81.5 Z"/></g>
<g><path style="opacity:1" fill="#07392f" d="M 240.5,26.5 C 240.833,26.5 241.167,26.5 241.5,26.5C 241.158,27.3382 240.492,27.6716 239.5,27.5C 236.15,27.335 232.817,27.5017 229.5,28C 224.56,29.9781 219.893,32.3115 215.5,35C 213.983,36.6851 212.316,38.1851 210.5,39.5C 208.929,42.0227 209.429,44.0227 212,45.5C 212.667,44.1667 213.333,44.1667 214,45.5C 214.667,46.5 214.667,47.5 214,48.5C 209.637,53.7674 204.803,54.7674 199.5,51.5C 199.167,52.3333 198.833,53.1667 198.5,54C 200.23,57.0244 202.23,59.8577 204.5,62.5C 205.5,61.1667 206.5,59.8333 207.5,58.5C 208.167,59.1667 208.833,59.8333 209.5,60.5C 210.5,59.1667 211.5,59.1667 212.5,60.5C 214.149,59.3523 215.649,58.019 217,56.5C 219.461,57.2181 221.961,57.8847 224.5,58.5C 225.167,57.8333 225.833,57.1667 226.5,56.5C 228.477,59.3116 230.644,61.9783 233,64.5C 236.64,62.6823 240.14,60.6823 243.5,58.5C 239.721,63.1303 236.054,67.9637 232.5,73C 233.056,73.3826 233.389,73.8826 233.5,74.5C 229.933,76.5566 226.766,79.2232 224,82.5C 207.411,106.63 188.244,128.63 166.5,148.5C 166.343,147.127 166.51,145.793 167,144.5C 171.331,140.511 175.665,136.511 180,132.5C 180.894,130.021 181.227,127.688 181,125.5C 182.395,126.43 183.895,126.43 185.5,125.5C 187.335,123.839 189.335,122.339 191.5,121C 190.542,119.853 190.875,118.853 192.5,118C 191.167,117 191.167,116 192.5,115C 190.714,114.215 189.214,113.049 188,111.5C 187.82,114.956 187.153,118.289 186,121.5C 184.666,119.497 183.166,117.997 181.5,117C 182.293,115.915 182.96,114.748 183.5,113.5C 180.933,112.146 178.599,112.48 176.5,114.5C 175.318,112.355 173.818,112.355 172,114.5C 171.788,109.045 171.288,103.712 170.5,98.5C 167.547,101.928 164.88,105.595 162.5,109.5C 160.892,110.318 159.225,110.985 157.5,111.5C 155.61,111.131 154.776,110.131 155,108.5C 155.333,108.833 155.667,109.167 156,109.5C 160.956,105.884 164.789,101.384 167.5,96C 166.953,95.0754 166.287,94.2421 165.5,93.5C 163.684,95.8169 161.684,97.9835 159.5,100C 160.392,103.443 159.558,103.943 157,101.5C 156.784,103.384 156.117,105.051 155,106.5C 154.692,105.692 154.192,105.025 153.5,104.5C 151.517,106.81 150.517,109.477 150.5,112.5C 147.8,113.516 145.134,113.516 142.5,112.5C 141.719,111.271 141.219,109.938 141,108.5C 137.994,106.48 136.161,103.813 135.5,100.5C 138.302,103.476 140.969,106.642 143.5,110C 145.259,110.798 146.926,110.631 148.5,109.5C 155.381,100.441 162.881,91.7743 171,83.5C 171.49,82.2068 171.657,80.8734 171.5,79.5C 173.903,79.607 175.736,78.607 177,76.5C 185.315,63.9482 194.482,52.1149 204.5,41C 210.631,37.1954 216.464,33.0288 222,28.5C 228.023,26.7237 234.19,26.057 240.5,26.5 Z"/></g>
<g><path style="opacity:1" fill="#0f0d09" d="M 284.5,92.5 C 284.577,96.9628 283.91,101.296 282.5,105.5C 281.629,108.112 280.963,110.779 280.5,113.5C 279.5,115.5 278.5,117.5 277.5,119.5C 277.5,119.167 277.5,118.833 277.5,118.5C 277.285,111.744 277.952,105.077 279.5,98.5C 278.446,96.2882 278.946,94.2882 281,92.5C 281.167,90.5 281.333,88.5 281.5,86.5C 280.526,79.5026 280.36,72.5026 281,65.5C 280,64.8333 279,64.1667 278,63.5C 277.207,67.423 277.374,71.2564 278.5,75C 277.333,76.1667 276.167,77.3333 275,78.5C 274.762,71.4317 272.596,65.0984 268.5,59.5C 265.301,56.9429 261.634,55.9429 257.5,56.5C 257.576,60.3837 256.91,64.0504 255.5,67.5C 254.167,67.5 252.833,67.5 251.5,67.5C 251.519,69.0603 251.852,70.5603 252.5,72C 249.943,77.3772 247.61,82.8772 245.5,88.5C 244.726,89.7112 243.893,89.7112 243,88.5C 242.333,90.1667 242.333,91.8333 243,93.5C 247.323,99.1549 251.99,104.488 257,109.5C 259.79,113.428 262.29,117.428 264.5,121.5C 264.088,123.973 265.088,125.306 267.5,125.5C 267.298,127.95 267.631,130.283 268.5,132.5C 267.508,132.672 266.842,132.338 266.5,131.5C 262.498,121.333 256.831,112.167 249.5,104C 246.806,101.653 243.806,99.8202 240.5,98.5C 240.666,93.8215 240.499,89.1548 240,84.5C 237.574,81.3088 235.407,77.9754 233.5,74.5C 233.389,73.8826 233.056,73.3826 232.5,73C 236.054,67.9637 239.721,63.1303 243.5,58.5C 246.966,58.0322 248.632,56.0322 248.5,52.5C 249.873,52.6567 251.207,52.49 252.5,52C 255.378,49.5504 258.712,48.8837 262.5,50C 269.624,52.9907 276.291,56.8241 282.5,61.5C 283.167,71.9922 283.833,82.3255 284.5,92.5 Z"/></g>
<g><path style="opacity:1" fill="#162a23" d="M 10.5,31.5 C 11.2189,33.0913 12.2189,34.5913 13.5,36C 10.8832,36.8215 8.2165,37.3215 5.5,37.5C 4.79869,47.8228 5.13202,58.1561 6.5,68.5C 7.18608,71.723 8.18608,74.723 9.5,77.5C 10.6887,89.199 12.0221,100.866 13.5,112.5C 11.7742,110.058 10.2742,107.391 9,104.5C 8.11383,98.9711 6.94717,93.6378 5.5,88.5C 1.84498,71.6844 0.678314,54.6844 2,37.5C 4.27866,34.6194 7.11199,32.6194 10.5,31.5 Z"/></g>
<g><path style="opacity:1" fill="#fdfefd" d="M 233.5,74.5 C 235.407,77.9754 237.574,81.3088 240,84.5C 240.499,89.1548 240.666,93.8215 240.5,98.5C 243.272,110.658 244.606,122.991 244.5,135.5C 244.594,151.613 241.261,166.947 234.5,181.5C 231.263,183.63 229.263,186.63 228.5,190.5C 224.325,197.516 220.659,204.849 217.5,212.5C 212.992,220.182 208.992,228.182 205.5,236.5C 195.26,259.357 185.093,282.357 175,305.5C 174.797,312.579 174.297,319.579 173.5,326.5C 172.087,329.661 170.42,332.661 168.5,335.5C 163.575,345.695 157.908,355.362 151.5,364.5C 150.504,364.586 149.671,364.252 149,363.5C 147.974,360.761 146.474,358.428 144.5,356.5C 138.359,344.887 132.192,333.22 126,321.5C 124.054,318.58 121.887,315.913 119.5,313.5C 119.443,312.391 119.11,311.391 118.5,310.5C 118.579,307.729 118.079,305.063 117,302.5C 109.046,283.451 101.213,264.451 93.5,245.5C 91.9372,239.393 89.6038,233.726 86.5,228.5C 86.5979,226.447 85.9313,224.78 84.5,223.5C 79.1633,214.159 73.8299,204.825 68.5,195.5C 66.3412,189.849 63.6745,184.516 60.5,179.5C 57.6956,173.219 54.8622,166.885 52,160.5C 51.5002,150.506 51.3335,140.506 51.5,130.5C 52.4949,119.012 52.8283,107.345 52.5,95.5C 53.1266,90.8592 53.4599,86.1925 53.5,81.5C 53.4326,80.0413 53.7659,78.7079 54.5,77.5C 56.4258,78.2423 58.2591,79.2423 60,80.5C 63.9387,87.2666 68.772,93.2666 74.5,98.5C 88.4648,112.965 102.631,127.299 117,141.5C 123.306,150.64 129.806,159.64 136.5,168.5C 139.619,171.262 142.952,171.762 146.5,170C 153.005,162.663 159.672,155.496 166.5,148.5C 188.244,128.63 207.411,106.63 224,82.5C 226.766,79.2232 229.933,76.5566 233.5,74.5 Z"/></g>
<g><path style="opacity:1" fill="#421213" d="M 273.5,84.5 C 275.27,93.6015 275.937,102.935 275.5,112.5C 276.079,123.167 276.245,133.833 276,144.5C 275.617,145.056 275.117,145.389 274.5,145.5C 273.257,140.75 271.257,136.416 268.5,132.5C 267.631,130.283 267.298,127.95 267.5,125.5C 267.104,122.518 267.771,119.851 269.5,117.5C 269.139,113.209 267.972,109.209 266,105.5C 265.223,102.571 265.39,99.7372 266.5,97C 263.187,90.0648 263.187,82.8982 266.5,75.5C 267.72,76.7111 268.887,76.7111 270,75.5C 270.657,78.908 271.823,81.908 273.5,84.5 Z"/></g>
<g><path style="opacity:1" fill="#1e0b09" d="M 277.5,118.5 C 276.833,116.5 276.167,114.5 275.5,112.5C 275.937,102.935 275.27,93.6015 273.5,84.5C 273.555,78.0448 272.888,71.7115 271.5,65.5C 267.953,63.2796 263.953,62.2796 259.5,62.5C 259.66,64.1992 259.494,65.8659 259,67.5C 257.134,70.4652 255.634,73.6319 254.5,77C 255.409,78.7892 255.576,80.6226 255,82.5C 253.633,81.4757 252.8,81.9757 252.5,84C 252.667,84.5 252.833,85 253,85.5C 254.494,84.2528 255.994,84.2528 257.5,85.5C 256.689,86.2164 256.022,87.0497 255.5,88C 256.777,89.8881 257.777,91.8881 258.5,94C 257.12,97.1452 257.786,99.8119 260.5,102C 257.332,102.582 256.999,103.582 259.5,105C 259.043,105.414 258.709,105.914 258.5,106.5C 260.872,111.544 262.872,116.544 264.5,121.5C 262.29,117.428 259.79,113.428 257,109.5C 251.99,104.488 247.323,99.1549 243,93.5C 242.333,91.8333 242.333,90.1667 243,88.5C 243.893,89.7112 244.726,89.7112 245.5,88.5C 247.61,82.8772 249.943,77.3772 252.5,72C 251.852,70.5603 251.519,69.0603 251.5,67.5C 252.833,67.5 254.167,67.5 255.5,67.5C 256.91,64.0504 257.576,60.3837 257.5,56.5C 261.634,55.9429 265.301,56.9429 268.5,59.5C 272.596,65.0984 274.762,71.4317 275,78.5C 276.167,77.3333 277.333,76.1667 278.5,75C 277.374,71.2564 277.207,67.423 278,63.5C 279,64.1667 280,64.8333 281,65.5C 280.36,72.5026 280.526,79.5026 281.5,86.5C 281.333,88.5 281.167,90.5 281,92.5C 278.946,94.2882 278.446,96.2882 279.5,98.5C 277.952,105.077 277.285,111.744 277.5,118.5 Z"/></g>
<g><path style="opacity:1" fill="#300d0d" d="M 273.5,84.5 C 271.823,81.908 270.657,78.908 270,75.5C 268.887,76.7111 267.72,76.7111 266.5,75.5C 263.187,82.8982 263.187,90.0648 266.5,97C 265.39,99.7372 265.223,102.571 266,105.5C 267.972,109.209 269.139,113.209 269.5,117.5C 267.771,119.851 267.104,122.518 267.5,125.5C 265.088,125.306 264.088,123.973 264.5,121.5C 262.872,116.544 260.872,111.544 258.5,106.5C 258.709,105.914 259.043,105.414 259.5,105C 256.999,103.582 257.332,102.582 260.5,102C 257.786,99.8119 257.12,97.1452 258.5,94C 257.777,91.8881 256.777,89.8881 255.5,88C 256.022,87.0497 256.689,86.2164 257.5,85.5C 255.994,84.2528 254.494,84.2528 253,85.5C 252.833,85 252.667,84.5 252.5,84C 252.8,81.9757 253.633,81.4757 255,82.5C 255.576,80.6226 255.409,78.7892 254.5,77C 255.634,73.6319 257.134,70.4652 259,67.5C 259.494,65.8659 259.66,64.1992 259.5,62.5C 263.953,62.2796 267.953,63.2796 271.5,65.5C 272.888,71.7115 273.555,78.0448 273.5,84.5 Z"/></g>
<g><path style="opacity:1" fill="#57625e" d="M 284.5,61.5 C 285.75,61.5774 286.583,62.244 287,63.5C 287.497,66.146 287.664,68.8127 287.5,71.5C 287.666,77.8421 287.5,84.1754 287,90.5C 285.796,94.7159 285.13,99.0492 285,103.5C 284.583,104.756 283.75,105.423 282.5,105.5C 283.91,101.296 284.577,96.9628 284.5,92.5C 285.627,82.1055 285.627,71.7721 284.5,61.5 Z"/></g>
<g><path style="opacity:1" fill="#d1d8d6" d="M 5.5,88.5 C 6.94717,93.6378 8.11383,98.9711 9,104.5C 10.2742,107.391 11.7742,110.058 13.5,112.5C 15.1461,117.628 16.1461,122.961 16.5,128.5C 12.8241,123.183 10.6574,117.183 10,110.5C 6.09433,103.739 4.59433,96.4057 5.5,88.5 Z"/></g>
<g><path style="opacity:1" fill="#301313" d="M 11.5,67.5 C 11.5858,68.4959 11.2524,69.3292 10.5,70C 11.3944,74.7632 12.0611,79.5965 12.5,84.5C 13.5,84.5 14.5,84.5 15.5,84.5C 15.0128,87.6787 15.6795,90.8454 17.5,94C 17.4148,95.1074 17.0814,96.1074 16.5,97C 17.4706,98.2036 18.4706,98.7036 19.5,98.5C 18.624,99.2508 17.624,99.7508 16.5,100C 19.6457,100.11 20.6457,101.443 19.5,104C 21.5127,105.791 21.5127,107.125 19.5,108C 20.2489,109.734 20.7489,111.567 21,113.5C 21.3076,114.308 21.8076,114.975 22.5,115.5C 22.5397,112.947 24.2064,111.947 27.5,112.5C 27.3505,111.448 27.5172,110.448 28,109.5C 30,110.167 31.3333,111.5 32,113.5C 33.0183,111.072 34.8517,109.738 37.5,109.5C 33.3151,114.002 29.9818,119.002 27.5,124.5C 24.9911,130.192 21.9911,135.526 18.5,140.5C 17.5176,136.684 16.8509,132.684 16.5,128.5C 16.1461,122.961 15.1461,117.628 13.5,112.5C 12.0221,100.866 10.6887,89.199 9.5,77.5C 9.33537,74.4816 9.50204,71.4816 10,68.5C 10.3826,67.944 10.8826,67.6107 11.5,67.5 Z"/></g>
<g><path style="opacity:1" fill="#083029" d="M 240.5,98.5 C 243.806,99.8202 246.806,101.653 249.5,104C 256.831,112.167 262.498,121.333 266.5,131.5C 264.019,131.677 262.186,130.677 261,128.5C 260.776,133.904 258.609,134.904 254.5,131.5C 254.709,130.914 255.043,130.414 255.5,130C 254.137,128.055 253.303,125.888 253,123.5C 252.065,125.909 251.565,128.409 251.5,131C 252.062,134.632 252.729,137.965 253.5,141C 251.879,143.166 251.045,145.666 251,148.5C 249.217,145.108 249.051,141.608 250.5,138C 249.897,136.175 249.23,134.341 248.5,132.5C 247.679,135.447 247.179,138.447 247,141.5C 246.155,139.389 245.322,137.389 244.5,135.5C 244.606,122.991 243.272,110.658 240.5,98.5 Z"/></g>
<g><path style="opacity:1" fill="#6a5b5a" d="M 280.5,113.5 C 278.788,126.743 278.122,140.077 278.5,153.5C 277.505,142.346 277.172,131.012 277.5,119.5C 278.5,117.5 279.5,115.5 280.5,113.5 Z"/></g>
<g><path style="opacity:1" fill="#492628" d="M 275.5,112.5 C 276.167,114.5 276.833,116.5 277.5,118.5C 277.5,118.833 277.5,119.167 277.5,119.5C 277.172,131.012 277.505,142.346 278.5,153.5C 278.5,154.5 278.5,155.5 278.5,156.5C 278.5,159.167 278.5,161.833 278.5,164.5C 278.167,164.5 277.833,164.5 277.5,164.5C 277.5,163.5 277.5,162.5 277.5,161.5C 275.31,156.429 274.31,151.096 274.5,145.5C 275.117,145.389 275.617,145.056 276,144.5C 276.245,133.833 276.079,123.167 275.5,112.5 Z"/></g>
<g><path style="opacity:1" fill="#074d3d" d="M 277.5,161.5 C 277.5,162.5 277.5,163.5 277.5,164.5C 277.666,172.174 277.5,179.841 277,187.5C 275.253,190.21 274.253,193.21 274,196.5C 272.297,207.242 270.797,217.908 269.5,228.5C 268.5,228.5 267.5,228.5 266.5,228.5C 262.666,223.503 259.333,218.17 256.5,212.5C 256.894,209.143 255.561,206.81 252.5,205.5C 251.376,203.631 250.543,201.631 250,199.5C 244.412,196.324 242.078,191.657 243,185.5C 246.588,181.331 249.421,176.664 251.5,171.5C 251.392,170.558 251.059,169.725 250.5,169C 252.381,165.906 254.381,162.906 256.5,160C 256.167,159.667 255.833,159.333 255.5,159C 257.478,154.592 259.145,150.092 260.5,145.5C 263.558,145.374 263.891,143.874 261.5,141C 262.523,138.103 264.357,135.936 267,134.5C 269.201,136.366 269.701,138.532 268.5,141C 270.408,144.595 271.575,148.428 272,152.5C 273.728,155.692 275.561,158.692 277.5,161.5 Z"/></g>
<g><path style="opacity:1" fill="#0c4236" d="M 52.5,95.5 C 52.8283,107.345 52.4949,119.012 51.5,130.5C 51.9622,122.992 51.4622,115.658 50,108.5C 48.3831,109.536 48.2164,110.703 49.5,112C 48.2984,116.42 47.2984,120.92 46.5,125.5C 45.2054,124.902 43.8721,124.402 42.5,124C 43.4506,123.282 43.6172,122.449 43,121.5C 40.1217,122.689 37.2883,124.022 34.5,125.5C 32.1167,124.538 31.1167,125.538 31.5,128.5C 30.5,128.5 29.5,128.5 28.5,128.5C 28.5499,130.59 27.5499,131.923 25.5,132.5C 24.7518,135.497 24.0851,138.497 23.5,141.5C 26.0122,143.193 27.5122,145.526 28,148.5C 28.9408,145.607 30.6074,143.274 33,141.5C 35.2349,142.896 36.4015,144.896 36.5,147.5C 37.552,147.351 38.552,147.517 39.5,148C 37.8876,148.72 36.3876,148.554 35,147.5C 31.4628,149.952 31.2961,151.952 34.5,153.5C 33.0302,155.482 33.3636,157.148 35.5,158.5C 37.7662,159.314 40.0995,159.814 42.5,160C 41.541,161.464 40.2077,162.297 38.5,162.5C 36.845,161.612 35.1783,161.112 33.5,161C 34.8333,162 34.8333,163 33.5,164C 34.8333,164.333 36.1667,164.667 37.5,165C 35.7091,165.415 34.3757,166.415 33.5,168C 37.3218,170.552 37.9884,173.552 35.5,177C 37.4812,177.605 37.8146,178.605 36.5,180C 37.8721,181.242 38.8721,182.742 39.5,184.5C 37.8333,185.667 36.1667,186.833 34.5,188C 37.0474,188.354 39.3807,188.02 41.5,187C 44.2072,188.199 44.8739,190.033 43.5,192.5C 45.1836,193.854 45.6836,195.521 45,197.5C 44.3457,196.304 43.8457,196.304 43.5,197.5C 45.99,199.083 48.6567,200.083 51.5,200.5C 51.1412,198.234 51.8078,196.401 53.5,195C 51.842,194.275 51.342,193.108 52,191.5C 53.0084,191.018 54.175,190.852 55.5,191C 56.2266,189.601 56.7266,188.101 57,186.5C 57.6708,185.748 58.5041,185.414 59.5,185.5C 59.3713,187.216 59.038,188.883 58.5,190.5C 57.1656,192.466 55.8322,194.466 54.5,196.5C 53.5481,198.045 53.2148,199.712 53.5,201.5C 51.8514,202.714 50.1848,204.047 48.5,205.5C 45.7154,211.681 43.2154,218.014 41,224.5C 40.3333,232.167 40.3333,239.833 41,247.5C 42.1203,249.03 42.9536,250.697 43.5,252.5C 43.5,252.833 43.5,253.167 43.5,253.5C 41.8267,252.657 40.66,251.324 40,249.5C 38.8011,244.705 37.6345,240.038 36.5,235.5C 32.1441,213.672 27.4775,192.005 22.5,170.5C 20.3476,160.615 19.0143,150.615 18.5,140.5C 21.9911,135.526 24.9911,130.192 27.5,124.5C 31.2265,119.265 35.5599,114.432 40.5,110C 46.9555,107.058 50.9555,102.224 52.5,95.5 Z"/></g>
<g><path style="opacity:1" fill="#084639" d="M 51.5,130.5 C 51.3335,140.506 51.5002,150.506 52,160.5C 54.8622,166.885 57.6956,173.219 60.5,179.5C 59.5386,181.265 59.2053,183.265 59.5,185.5C 58.5041,185.414 57.6708,185.748 57,186.5C 56.7266,188.101 56.2266,189.601 55.5,191C 54.175,190.852 53.0084,191.018 52,191.5C 51.342,193.108 51.842,194.275 53.5,195C 51.8078,196.401 51.1412,198.234 51.5,200.5C 48.6567,200.083 45.99,199.083 43.5,197.5C 43.8457,196.304 44.3457,196.304 45,197.5C 45.6836,195.521 45.1836,193.854 43.5,192.5C 44.8739,190.033 44.2072,188.199 41.5,187C 39.3807,188.02 37.0474,188.354 34.5,188C 36.1667,186.833 37.8333,185.667 39.5,184.5C 38.8721,182.742 37.8721,181.242 36.5,180C 37.8146,178.605 37.4812,177.605 35.5,177C 37.9884,173.552 37.3218,170.552 33.5,168C 34.3757,166.415 35.7091,165.415 37.5,165C 36.1667,164.667 34.8333,164.333 33.5,164C 34.8333,163 34.8333,162 33.5,161C 35.1783,161.112 36.845,161.612 38.5,162.5C 40.2077,162.297 41.541,161.464 42.5,160C 40.0995,159.814 37.7662,159.314 35.5,158.5C 33.3636,157.148 33.0302,155.482 34.5,153.5C 31.2961,151.952 31.4628,149.952 35,147.5C 36.3876,148.554 37.8876,148.72 39.5,148C 38.552,147.517 37.552,147.351 36.5,147.5C 36.4015,144.896 35.2349,142.896 33,141.5C 30.6074,143.274 28.9408,145.607 28,148.5C 27.5122,145.526 26.0122,143.193 23.5,141.5C 24.0851,138.497 24.7518,135.497 25.5,132.5C 27.5499,131.923 28.5499,130.59 28.5,128.5C 29.5,128.5 30.5,128.5 31.5,128.5C 31.1167,125.538 32.1167,124.538 34.5,125.5C 37.2883,124.022 40.1217,122.689 43,121.5C 43.6172,122.449 43.4506,123.282 42.5,124C 43.8721,124.402 45.2054,124.902 46.5,125.5C 47.2984,120.92 48.2984,116.42 49.5,112C 48.2164,110.703 48.3831,109.536 50,108.5C 51.4622,115.658 51.9622,122.992 51.5,130.5 Z"/></g>
<g><path style="opacity:1" fill="#0c3d32" d="M 266.5,131.5 C 266.842,132.338 267.508,132.672 268.5,132.5C 271.257,136.416 273.257,140.75 274.5,145.5C 274.31,151.096 275.31,156.429 277.5,161.5C 275.561,158.692 273.728,155.692 272,152.5C 271.575,148.428 270.408,144.595 268.5,141C 269.701,138.532 269.201,136.366 267,134.5C 264.357,135.936 262.523,138.103 261.5,141C 263.891,143.874 263.558,145.374 260.5,145.5C 259.145,150.092 257.478,154.592 255.5,159C 255.833,159.333 256.167,159.667 256.5,160C 254.381,162.906 252.381,165.906 250.5,169C 251.059,169.725 251.392,170.558 251.5,171.5C 249.421,176.664 246.588,181.331 243,185.5C 242.078,191.657 244.412,196.324 250,199.5C 250.543,201.631 251.376,203.631 252.5,205.5C 255.561,206.81 256.894,209.143 256.5,212.5C 254.833,211.167 253.167,209.833 251.5,208.5C 249.125,205.443 247.125,202.11 245.5,198.5C 243.651,197.407 241.984,196.074 240.5,194.5C 237.633,190.44 235.633,186.107 234.5,181.5C 241.261,166.947 244.594,151.613 244.5,135.5C 245.322,137.389 246.155,139.389 247,141.5C 247.179,138.447 247.679,135.447 248.5,132.5C 249.23,134.341 249.897,136.175 250.5,138C 249.051,141.608 249.217,145.108 251,148.5C 251.045,145.666 251.879,143.166 253.5,141C 252.729,137.965 252.062,134.632 251.5,131C 251.565,128.409 252.065,125.909 253,123.5C 253.303,125.888 254.137,128.055 255.5,130C 255.043,130.414 254.709,130.914 254.5,131.5C 258.609,134.904 260.776,133.904 261,128.5C 262.186,130.677 264.019,131.677 266.5,131.5 Z"/></g>
<g><path style="opacity:1" fill="#666767" d="M 278.5,156.5 C 279.224,159.083 280.057,161.749 281,164.5C 281.667,174.5 281.667,184.5 281,194.5C 279.264,196.063 277.764,197.73 276.5,199.5C 278.21,190.688 279.21,181.688 279.5,172.5C 279.497,169.645 279.164,166.978 278.5,164.5C 278.5,161.833 278.5,159.167 278.5,156.5 Z"/></g>
<g><path style="opacity:1" fill="#180f0d" d="M 234.5,181.5 C 235.633,186.107 237.633,190.44 240.5,194.5C 241.984,196.074 243.651,197.407 245.5,198.5C 247.125,202.11 249.125,205.443 251.5,208.5C 250.127,208.657 248.793,208.49 247.5,208C 245.181,204.788 242.181,202.454 238.5,201C 238.207,197.906 236.541,196.406 233.5,196.5C 233.662,194.473 233.495,192.473 233,190.5C 231.51,189.272 230.01,189.272 228.5,190.5C 229.263,186.63 231.263,183.63 234.5,181.5 Z"/></g>
<g><path style="opacity:1" fill="#d2e5e3" d="M 22.5,170.5 C 27.4775,192.005 32.1441,213.672 36.5,235.5C 35.6851,234.571 34.8518,233.571 34,232.5C 30.9329,217.319 27.4329,202.319 23.5,187.5C 23.7093,186.914 24.0426,186.414 24.5,186C 22.9971,180.98 22.3304,175.813 22.5,170.5 Z"/></g>
<g><path style="opacity:1" fill="#370f10" d="M 60.5,179.5 C 63.6745,184.516 66.3412,189.849 68.5,195.5C 70.9214,202.027 73.0881,208.694 75,215.5C 76.0674,216.191 77.2341,216.691 78.5,217C 81.5714,220.235 82.9047,224.068 82.5,228.5C 80.8333,228.5 79.1667,228.5 77.5,228.5C 77.1667,231.5 78.5,232.833 81.5,232.5C 80.9434,237.623 79.7767,242.623 78,247.5C 77.6667,246.5 77.3333,245.5 77,244.5C 75.916,247.249 75.0827,250.082 74.5,253C 74.0946,253.945 73.428,254.612 72.5,255C 73.3081,255.308 73.9747,255.808 74.5,256.5C 71.3695,258.286 68.0362,259.619 64.5,260.5C 63.9169,262.002 63.0836,263.335 62,264.5C 59.5878,261.203 59.0878,257.703 60.5,254C 60.0037,252.004 59.0037,250.337 57.5,249C 58.6582,247.991 59.3248,246.658 59.5,245C 58.5451,242.023 57.5451,239.023 56.5,236C 57.0195,233.974 57.3528,231.974 57.5,230C 55.4534,228.927 53.4534,227.761 51.5,226.5C 52.4209,224.244 54.0876,223.244 56.5,223.5C 56.9422,219.846 57.2756,216.179 57.5,212.5C 56.448,212.649 55.448,212.483 54.5,212C 56.5,211.667 58.5,211.333 60.5,211C 59.5247,206.589 58.1914,202.255 56.5,198C 57.2489,195.503 57.9155,193.003 58.5,190.5C 59.038,188.883 59.3713,187.216 59.5,185.5C 59.2053,183.265 59.5386,181.265 60.5,179.5 Z"/></g>
<g><path style="opacity:1" fill="#330e0e" d="M 251.5,208.5 C 251.351,211.607 251.851,214.607 253,217.5C 255.043,218.579 256.376,220.246 257,222.5C 257.5,230.827 257.666,239.16 257.5,247.5C 255.806,248.527 254.473,249.861 253.5,251.5C 254.265,248.367 254.932,245.2 255.5,242C 255.167,240.833 254.833,239.667 254.5,238.5C 252.629,239.767 250.796,239.767 249,238.5C 246.832,239.629 246.332,241.129 247.5,243C 245.122,243.974 245.456,244.641 248.5,245C 247.929,246.205 247.262,247.372 246.5,248.5C 244.93,248.694 243.43,248.694 242,248.5C 241.383,247.551 241.549,246.718 242.5,246C 240.386,245.671 238.72,246.504 237.5,248.5C 238.875,250.163 238.542,251.497 236.5,252.5C 238.67,254.333 240.67,256.333 242.5,258.5C 241.926,260.059 241.26,261.559 240.5,263C 241.654,263.914 241.487,264.747 240,265.5C 238.513,264.747 238.346,263.914 239.5,263C 237.431,262.676 237.098,261.842 238.5,260.5C 237.675,259.614 236.675,259.281 235.5,259.5C 235.338,261.527 235.505,263.527 236,265.5C 236.333,265.167 236.667,264.833 237,264.5C 238.547,267.855 238.047,271.022 235.5,274C 235.833,274.333 236.167,274.667 236.5,275C 234.913,275.862 233.246,276.529 231.5,277C 232.428,277.388 233.095,278.055 233.5,279C 231.988,281.114 231.654,283.281 232.5,285.5C 231.033,285.723 229.533,286.056 228,286.5C 227.651,283.286 226.151,281.953 223.5,282.5C 224.034,284.614 225.034,286.448 226.5,288C 224.863,291.285 224.196,294.785 224.5,298.5C 223.883,298.389 223.383,298.056 223,297.5C 222.501,294.978 222.668,292.478 223.5,290C 223.231,288.393 222.397,287.226 221,286.5C 220.667,283.5 220.333,280.5 220,277.5C 217.52,268.202 214.187,259.202 210,250.5C 209.333,243.833 209.333,237.167 210,230.5C 212.907,225.048 215.74,219.548 218.5,214C 217.944,213.617 217.611,213.117 217.5,212.5C 220.659,204.849 224.325,197.516 228.5,190.5C 230.01,189.272 231.51,189.272 233,190.5C 233.495,192.473 233.662,194.473 233.5,196.5C 236.541,196.406 238.207,197.906 238.5,201C 242.181,202.454 245.181,204.788 247.5,208C 248.793,208.49 250.127,208.657 251.5,208.5 Z"/></g>
<g><path style="opacity:1" fill="#10130f" d="M 53.5,201.5 C 49.5118,206.752 47.3451,212.752 47,219.5C 44.9125,221.745 43.5792,224.412 43,227.5C 42.8594,235.366 43.3594,243.199 44.5,251C 44.4301,251.765 44.0967,252.265 43.5,252.5C 42.9536,250.697 42.1203,249.03 41,247.5C 40.3333,239.833 40.3333,232.167 41,224.5C 43.2154,218.014 45.7154,211.681 48.5,205.5C 50.1848,204.047 51.8514,202.714 53.5,201.5 Z"/></g>
<g><path style="opacity:1" fill="#13100b" d="M 251.5,208.5 C 253.167,209.833 254.833,211.167 256.5,212.5C 259.333,218.17 262.666,223.503 266.5,228.5C 266.666,232.846 266.499,237.179 266,241.5C 263.973,243.772 261.806,245.939 259.5,248C 258.563,248.692 257.897,248.525 257.5,247.5C 257.666,239.16 257.5,230.827 257,222.5C 256.376,220.246 255.043,218.579 253,217.5C 251.851,214.607 251.351,211.607 251.5,208.5 Z"/></g>
<g><path style="opacity:1" fill="#45504b" d="M 277.5,164.5 C 277.833,164.5 278.167,164.5 278.5,164.5C 279.164,166.978 279.497,169.645 279.5,172.5C 279.21,181.688 278.21,190.688 276.5,199.5C 276.558,208.267 274.725,216.6 271,224.5C 270.5,230.825 270.334,237.158 270.5,243.5C 264.704,246.105 259.538,249.772 255,254.5C 251.011,261.013 247.511,267.68 244.5,274.5C 246.522,266.431 249.522,258.764 253.5,251.5C 254.473,249.861 255.806,248.527 257.5,247.5C 257.897,248.525 258.563,248.692 259.5,248C 261.806,245.939 263.973,243.772 266,241.5C 266.499,237.179 266.666,232.846 266.5,228.5C 267.5,228.5 268.5,228.5 269.5,228.5C 270.797,217.908 272.297,207.242 274,196.5C 274.253,193.21 275.253,190.21 277,187.5C 277.5,179.841 277.666,172.174 277.5,164.5 Z"/></g>
<g><path style="opacity:1" fill="#2f1111" d="M 58.5,190.5 C 57.9155,193.003 57.2489,195.503 56.5,198C 58.1914,202.255 59.5247,206.589 60.5,211C 58.5,211.333 56.5,211.667 54.5,212C 55.448,212.483 56.448,212.649 57.5,212.5C 57.2756,216.179 56.9422,219.846 56.5,223.5C 54.0876,223.244 52.4209,224.244 51.5,226.5C 53.4534,227.761 55.4534,228.927 57.5,230C 57.3528,231.974 57.0195,233.974 56.5,236C 57.5451,239.023 58.5451,242.023 59.5,245C 59.3248,246.658 58.6582,247.991 57.5,249C 59.0037,250.337 60.0037,252.004 60.5,254C 59.0878,257.703 59.5878,261.203 62,264.5C 63.0836,263.335 63.9169,262.002 64.5,260.5C 68.0362,259.619 71.3695,258.286 74.5,256.5C 73.9747,255.808 73.3081,255.308 72.5,255C 73.428,254.612 74.0946,253.945 74.5,253C 75.0827,250.082 75.916,247.249 77,244.5C 77.3333,245.5 77.6667,246.5 78,247.5C 79.7767,242.623 80.9434,237.623 81.5,232.5C 78.5,232.833 77.1667,231.5 77.5,228.5C 79.1667,228.5 80.8333,228.5 82.5,228.5C 82.9047,224.068 81.5714,220.235 78.5,217C 77.2341,216.691 76.0674,216.191 75,215.5C 73.0881,208.694 70.9214,202.027 68.5,195.5C 73.8299,204.825 79.1633,214.159 84.5,223.5C 84.2606,225.467 84.5939,227.301 85.5,229C 82.8674,235.573 81.034,242.406 80,249.5C 79.3333,250.167 78.6667,250.833 78,251.5C 77.1472,256.553 75.6472,261.22 73.5,265.5C 72.4415,266.6 71.6082,267.934 71,269.5C 69.3394,278.284 67.1728,286.951 64.5,295.5C 63.6667,294.5 62.8333,293.5 62,292.5C 61.6047,288.981 60.6047,285.648 59,282.5C 58.6174,283.056 58.1174,283.389 57.5,283.5C 53.8709,275.798 50.7042,267.798 48,259.5C 46.668,257.34 45.168,255.34 43.5,253.5C 43.5,253.167 43.5,252.833 43.5,252.5C 44.0967,252.265 44.4301,251.765 44.5,251C 43.3594,243.199 42.8594,235.366 43,227.5C 43.5792,224.412 44.9125,221.745 47,219.5C 47.3451,212.752 49.5118,206.752 53.5,201.5C 53.2148,199.712 53.5481,198.045 54.5,196.5C 55.8322,194.466 57.1656,192.466 58.5,190.5 Z"/></g>
<g><path style="opacity:1" fill="#1f3128" d="M 84.5,223.5 C 85.9313,224.78 86.5979,226.447 86.5,228.5C 85.3038,234.118 84.3038,239.784 83.5,245.5C 82.914,245.709 82.414,246.043 82,246.5C 81.3152,251.36 79.8152,255.86 77.5,260C 75.534,261.465 74.2007,263.298 73.5,265.5C 75.6472,261.22 77.1472,256.553 78,251.5C 78.6667,250.833 79.3333,250.167 80,249.5C 81.034,242.406 82.8674,235.573 85.5,229C 84.5939,227.301 84.2606,225.467 84.5,223.5 Z"/></g>
<g><path style="opacity:1" fill="#084235" d="M 205.5,236.5 C 209.094,252.447 213.594,268.114 219,283.5C 220.926,294.967 223.093,306.3 225.5,317.5C 225.122,319.921 224.455,322.254 223.5,324.5C 222.222,324.782 221.222,325.449 220.5,326.5C 220.939,320.824 221.273,315.157 221.5,309.5C 219.665,308.572 219.332,307.406 220.5,306C 219.475,303.929 218.642,301.762 218,299.5C 216.196,301.532 215.696,303.699 216.5,306C 215.66,307.171 214.827,308.338 214,309.5C 213.333,308.167 212.667,308.167 212,309.5C 211.667,306.833 211.333,304.167 211,301.5C 210.5,301 210,300.5 209.5,300C 210.658,298.991 211.325,297.658 211.5,296C 211.007,293.941 210.34,291.941 209.5,290C 210.593,287.266 210.593,284.6 209.5,282C 210.428,281.612 211.095,280.945 211.5,280C 209.745,277.609 209.411,275.109 210.5,272.5C 209.369,271.396 208.535,271.729 208,273.5C 207.818,276.226 207.318,278.893 206.5,281.5C 205.702,279.922 205.202,278.256 205,276.5C 203.951,275.483 202.784,275.316 201.5,276C 203.991,276.626 203.991,277.459 201.5,278.5C 204.131,280.005 203.797,280.671 200.5,280.5C 200.36,282.124 201.027,283.29 202.5,284C 197.092,284.162 196.426,285.662 200.5,288.5C 201.429,289.689 201.762,291.022 201.5,292.5C 203.199,292.34 204.866,292.506 206.5,293C 205.707,295.432 205.374,297.766 205.5,300C 208.95,302.158 209.283,304.658 206.5,307.5C 208.839,309.499 209.506,311.832 208.5,314.5C 207.205,313.902 205.872,313.402 204.5,313C 206.007,312.163 206.507,310.996 206,309.5C 203.053,305.214 199.887,302.047 196.5,300C 199.025,299.104 201.192,299.604 203,301.5C 203.722,299.339 203.055,297.672 201,296.5C 199.172,298.807 197.506,298.474 196,295.5C 194.902,296.967 193.402,297.801 191.5,298C 194.828,299.995 197.495,302.661 199.5,306C 198.201,307.326 196.868,308.66 195.5,310C 196.731,311.183 196.731,312.349 195.5,313.5C 194.914,313.291 194.414,312.957 194,312.5C 193.208,314.587 192.041,316.421 190.5,318C 192.433,318.251 194.266,318.751 196,319.5C 196.627,321.586 196.127,321.919 194.5,320.5C 193.417,321.365 193.251,322.365 194,323.5C 194.333,323.167 194.667,322.833 195,322.5C 195.49,323.793 195.657,325.127 195.5,326.5C 196.978,326.238 198.311,326.571 199.5,327.5C 198.289,328.72 198.289,329.887 199.5,331C 198.975,331.692 198.308,332.192 197.5,332.5C 196.269,331.349 196.269,330.183 197.5,329C 189.453,327.036 188.787,328.369 195.5,333C 192.103,333.589 189.103,334.922 186.5,337C 190.093,337.684 190.427,339.184 187.5,341.5C 187.985,343.263 189.152,344.929 191,346.5C 193.686,344.489 196.686,343.156 200,342.5C 200.833,342.833 201.667,343.167 202.5,343.5C 200.167,344.167 197.833,344.833 195.5,345.5C 197.576,345.758 199.909,346.258 202.5,347C 200.776,347.448 200.109,348.282 200.5,349.5C 198.941,348.926 197.441,348.26 196,347.5C 195.383,348.449 195.549,349.282 196.5,350C 197.833,350.333 199.167,350.667 200.5,351C 199.135,352.682 197.635,352.849 196,351.5C 192.81,354.418 189.477,357.085 186,359.5C 185.503,361.81 185.337,364.143 185.5,366.5C 184.12,363.226 182.62,359.893 181,356.5C 179.695,345.945 177.195,335.945 173.5,326.5C 174.297,319.579 174.797,312.579 175,305.5C 185.093,282.357 195.26,259.357 205.5,236.5 Z"/></g>
<g><path style="opacity:1" fill="#3e1314" d="M 253.5,251.5 C 249.522,258.764 246.522,266.431 244.5,274.5C 241.553,277.828 240.053,281.828 240,286.5C 238.295,288.577 237.128,290.91 236.5,293.5C 234.358,296.8 233.025,300.467 232.5,304.5C 231.89,305.391 231.557,306.391 231.5,307.5C 230.468,309.378 229.134,311.045 227.5,312.5C 225.583,308.134 224.583,303.467 224.5,298.5C 224.196,294.785 224.863,291.285 226.5,288C 225.034,286.448 224.034,284.614 223.5,282.5C 226.151,281.953 227.651,283.286 228,286.5C 229.533,286.056 231.033,285.723 232.5,285.5C 231.654,283.281 231.988,281.114 233.5,279C 233.095,278.055 232.428,277.388 231.5,277C 233.246,276.529 234.913,275.862 236.5,275C 236.167,274.667 235.833,274.333 235.5,274C 238.047,271.022 238.547,267.855 237,264.5C 236.667,264.833 236.333,265.167 236,265.5C 235.505,263.527 235.338,261.527 235.5,259.5C 236.675,259.281 237.675,259.614 238.5,260.5C 237.098,261.842 237.431,262.676 239.5,263C 238.346,263.914 238.513,264.747 240,265.5C 241.487,264.747 241.654,263.914 240.5,263C 241.26,261.559 241.926,260.059 242.5,258.5C 240.67,256.333 238.67,254.333 236.5,252.5C 238.542,251.497 238.875,250.163 237.5,248.5C 238.72,246.504 240.386,245.671 242.5,246C 241.549,246.718 241.383,247.551 242,248.5C 243.43,248.694 244.93,248.694 246.5,248.5C 247.262,247.372 247.929,246.205 248.5,245C 245.456,244.641 245.122,243.974 247.5,243C 246.332,241.129 246.832,239.629 249,238.5C 250.796,239.767 252.629,239.767 254.5,238.5C 254.833,239.667 255.167,240.833 255.5,242C 254.932,245.2 254.265,248.367 253.5,251.5 Z"/></g>
<g><path style="opacity:1" fill="#094739" d="M 93.5,245.5 C 101.213,264.451 109.046,283.451 117,302.5C 118.079,305.063 118.579,307.729 118.5,310.5C 117.04,314.525 115.206,318.525 113,322.5C 111.706,321.146 111.54,319.812 112.5,318.5C 111.675,317.614 110.675,317.281 109.5,317.5C 109.506,320.548 108.506,321.048 106.5,319C 100.804,318.83 95.1376,318.33 89.5,317.5C 92.2156,311.941 95.7156,311.275 100,315.5C 100.5,315 101,314.5 101.5,314C 100.167,313.333 100.167,312.667 101.5,312C 95.6574,311.561 90.3241,310.561 85.5,309C 85.6667,308.5 85.8333,308 86,307.5C 90.1901,309.515 94.3567,309.682 98.5,308C 95.8807,307.849 93.5473,307.015 91.5,305.5C 93.1322,305.762 94.2988,304.762 95,302.5C 96.3333,305.167 97.6667,305.167 99,302.5C 99.3173,304.301 99.984,304.634 101,303.5C 100.31,298.673 100.81,293.839 102.5,289C 100.411,286.719 99.7446,284.219 100.5,281.5C 99.846,279.885 99.346,278.218 99,276.5C 98.1146,280.115 96.9479,283.615 95.5,287C 97.2112,288.133 97.7112,289.633 97,291.5C 96.6667,290.833 96.3333,290.167 96,289.5C 95.51,290.793 95.3433,292.127 95.5,293.5C 94.1266,293.657 92.7932,293.49 91.5,293C 90.0753,291.638 89.242,290.138 89,288.5C 85.9895,293.805 84.6562,293.472 85,287.5C 83.9505,288.517 82.7839,288.684 81.5,288C 82.694,285.342 81.694,284.176 78.5,284.5C 77.8617,282.54 77.8617,280.707 78.5,279C 76.6992,278.683 76.3659,278.016 77.5,277C 77.1047,273.733 76.1047,270.733 74.5,268C 75.8613,266.416 76.528,264.582 76.5,262.5C 77.5,262.5 78.5,262.5 79.5,262.5C 80.2864,255.189 83.2864,249.023 88.5,244C 90.4952,243.387 92.1619,243.887 93.5,245.5 Z"/></g>
<g><path style="opacity:1" fill="#251815" d="M 217.5,212.5 C 217.611,213.117 217.944,213.617 218.5,214C 215.74,219.548 212.907,225.048 210,230.5C 209.333,237.167 209.333,243.833 210,250.5C 214.187,259.202 217.52,268.202 220,277.5C 220.333,280.5 220.667,283.5 221,286.5C 222.397,287.226 223.231,288.393 223.5,290C 222.668,292.478 222.501,294.978 223,297.5C 223.383,298.056 223.883,298.389 224.5,298.5C 224.583,303.467 225.583,308.134 227.5,312.5C 227.107,314.284 226.441,315.95 225.5,317.5C 223.093,306.3 220.926,294.967 219,283.5C 213.594,268.114 209.094,252.447 205.5,236.5C 208.992,228.182 212.992,220.182 217.5,212.5 Z"/></g>
<g><path style="opacity:1" fill="#084235" d="M 86.5,228.5 C 89.6038,233.726 91.9372,239.393 93.5,245.5C 92.1619,243.887 90.4952,243.387 88.5,244C 83.2864,249.023 80.2864,255.189 79.5,262.5C 78.5,262.5 77.5,262.5 76.5,262.5C 76.528,264.582 75.8613,266.416 74.5,268C 76.1047,270.733 77.1047,273.733 77.5,277C 76.3659,278.016 76.6992,278.683 78.5,279C 77.8617,280.707 77.8617,282.54 78.5,284.5C 81.694,284.176 82.694,285.342 81.5,288C 82.7839,288.684 83.9505,288.517 85,287.5C 84.6562,293.472 85.9895,293.805 89,288.5C 89.242,290.138 90.0753,291.638 91.5,293C 92.7932,293.49 94.1266,293.657 95.5,293.5C 95.3433,292.127 95.51,290.793 96,289.5C 96.3333,290.167 96.6667,290.833 97,291.5C 97.7112,289.633 97.2112,288.133 95.5,287C 96.9479,283.615 98.1146,280.115 99,276.5C 99.346,278.218 99.846,279.885 100.5,281.5C 99.7446,284.219 100.411,286.719 102.5,289C 100.81,293.839 100.31,298.673 101,303.5C 99.984,304.634 99.3173,304.301 99,302.5C 97.6667,305.167 96.3333,305.167 95,302.5C 94.2988,304.762 93.1322,305.762 91.5,305.5C 93.5473,307.015 95.8807,307.849 98.5,308C 94.3567,309.682 90.1901,309.515 86,307.5C 85.8333,308 85.6667,308.5 85.5,309C 90.3241,310.561 95.6574,311.561 101.5,312C 100.167,312.667 100.167,313.333 101.5,314C 101,314.5 100.5,315 100,315.5C 95.7156,311.275 92.2156,311.941 89.5,317.5C 95.1376,318.33 100.804,318.83 106.5,319C 108.506,321.048 109.506,320.548 109.5,317.5C 110.675,317.281 111.675,317.614 112.5,318.5C 111.54,319.812 111.706,321.146 113,322.5C 115.206,318.525 117.04,314.525 118.5,310.5C 119.11,311.391 119.443,312.391 119.5,313.5C 114.039,321.972 110.706,331.305 109.5,341.5C 105.528,348.559 103.028,356.226 102,364.5C 100.684,365.974 99.6839,367.641 99,369.5C 98.5892,374.519 98.0892,379.519 97.5,384.5C 83.7799,358.356 72.7799,331.023 64.5,302.5C 65.1174,302.389 65.6174,302.056 66,301.5C 68.206,289.356 70.706,277.356 73.5,265.5C 74.2007,263.298 75.534,261.465 77.5,260C 79.8152,255.86 81.3152,251.36 82,246.5C 82.414,246.043 82.914,245.709 83.5,245.5C 84.3038,239.784 85.3038,234.118 86.5,228.5 Z"/></g>
<g><path style="opacity:1" fill="#231e1a" d="M 73.5,265.5 C 70.706,277.356 68.206,289.356 66,301.5C 65.6174,302.056 65.1174,302.389 64.5,302.5C 61.9714,296.249 59.6381,289.915 57.5,283.5C 58.1174,283.389 58.6174,283.056 59,282.5C 60.6047,285.648 61.6047,288.981 62,292.5C 62.8333,293.5 63.6667,294.5 64.5,295.5C 67.1728,286.951 69.3394,278.284 71,269.5C 71.6082,267.934 72.4415,266.6 73.5,265.5 Z"/></g>
<g><path style="opacity:1" fill="#61504e" d="M 236.5,293.5 C 236.817,296.572 236.484,299.572 235.5,302.5C 234.735,303.612 233.735,304.279 232.5,304.5C 233.025,300.467 234.358,296.8 236.5,293.5 Z"/></g>
<g><path style="opacity:1" fill="#55514f" d="M 231.5,307.5 C 230.965,311.819 230.465,316.152 230,320.5C 228.726,323.936 226.559,326.603 223.5,328.5C 223.5,327.167 223.5,325.833 223.5,324.5C 224.455,322.254 225.122,319.921 225.5,317.5C 226.441,315.95 227.107,314.284 227.5,312.5C 229.134,311.045 230.468,309.378 231.5,307.5 Z"/></g>
<g><path style="opacity:1" fill="#2a1311" d="M 119.5,313.5 C 121.887,315.913 124.054,318.58 126,321.5C 132.192,333.22 138.359,344.887 144.5,356.5C 143.504,356.586 142.671,356.252 142,355.5C 140.76,352.588 139.094,349.921 137,347.5C 136,347.5 135,347.5 134,347.5C 133.699,344.02 132.865,340.687 131.5,337.5C 129.385,334.623 127.219,332.29 125,330.5C 123.766,333.42 122.766,336.42 122,339.5C 121.667,336.833 121.333,334.167 121,331.5C 119.493,330.495 118.327,329.162 117.5,327.5C 116.5,328.5 115.5,329.5 114.5,330.5C 113.272,334.502 111.606,338.169 109.5,341.5C 110.706,331.305 114.039,321.972 119.5,313.5 Z"/></g>
<g><path style="opacity:1" fill="#064739" d="M 220.5,326.5 C 219.346,331.286 218.013,335.953 216.5,340.5C 215.5,340.5 214.5,340.5 213.5,340.5C 210.831,346.917 208.664,353.584 207,360.5C 204.456,365.514 201.789,370.514 199,375.5C 197.384,379.347 196.384,383.347 196,387.5C 195,388.167 194,388.833 193,389.5C 191.37,392.688 190.204,396.021 189.5,399.5C 189.784,401.415 189.451,403.081 188.5,404.5C 189.224,391.632 188.224,378.965 185.5,366.5C 185.337,364.143 185.503,361.81 186,359.5C 189.477,357.085 192.81,354.418 196,351.5C 197.635,352.849 199.135,352.682 200.5,351C 199.167,350.667 197.833,350.333 196.5,350C 195.549,349.282 195.383,348.449 196,347.5C 197.441,348.26 198.941,348.926 200.5,349.5C 200.109,348.282 200.776,347.448 202.5,347C 199.909,346.258 197.576,345.758 195.5,345.5C 197.833,344.833 200.167,344.167 202.5,343.5C 201.667,343.167 200.833,342.833 200,342.5C 196.686,343.156 193.686,344.489 191,346.5C 189.152,344.929 187.985,343.263 187.5,341.5C 190.427,339.184 190.093,337.684 186.5,337C 189.103,334.922 192.103,333.589 195.5,333C 188.787,328.369 189.453,327.036 197.5,329C 196.269,330.183 196.269,331.349 197.5,332.5C 198.308,332.192 198.975,331.692 199.5,331C 198.289,329.887 198.289,328.72 199.5,327.5C 198.311,326.571 196.978,326.238 195.5,326.5C 195.657,325.127 195.49,323.793 195,322.5C 194.667,322.833 194.333,323.167 194,323.5C 193.251,322.365 193.417,321.365 194.5,320.5C 196.127,321.919 196.627,321.586 196,319.5C 194.266,318.751 192.433,318.251 190.5,318C 192.041,316.421 193.208,314.587 194,312.5C 194.414,312.957 194.914,313.291 195.5,313.5C 196.731,312.349 196.731,311.183 195.5,310C 196.868,308.66 198.201,307.326 199.5,306C 197.495,302.661 194.828,299.995 191.5,298C 193.402,297.801 194.902,296.967 196,295.5C 197.506,298.474 199.172,298.807 201,296.5C 203.055,297.672 203.722,299.339 203,301.5C 201.192,299.604 199.025,299.104 196.5,300C 199.887,302.047 203.053,305.214 206,309.5C 206.507,310.996 206.007,312.163 204.5,313C 205.872,313.402 207.205,313.902 208.5,314.5C 209.506,311.832 208.839,309.499 206.5,307.5C 209.283,304.658 208.95,302.158 205.5,300C 205.374,297.766 205.707,295.432 206.5,293C 204.866,292.506 203.199,292.34 201.5,292.5C 201.762,291.022 201.429,289.689 200.5,288.5C 196.426,285.662 197.092,284.162 202.5,284C 201.027,283.29 200.36,282.124 200.5,280.5C 203.797,280.671 204.131,280.005 201.5,278.5C 203.991,277.459 203.991,276.626 201.5,276C 202.784,275.316 203.951,275.483 205,276.5C 205.202,278.256 205.702,279.922 206.5,281.5C 207.318,278.893 207.818,276.226 208,273.5C 208.535,271.729 209.369,271.396 210.5,272.5C 209.411,275.109 209.745,277.609 211.5,280C 211.095,280.945 210.428,281.612 209.5,282C 210.593,284.6 210.593,287.266 209.5,290C 210.34,291.941 211.007,293.941 211.5,296C 211.325,297.658 210.658,298.991 209.5,300C 210,300.5 210.5,301 211,301.5C 211.333,304.167 211.667,306.833 212,309.5C 212.667,308.167 213.333,308.167 214,309.5C 214.827,308.338 215.66,307.171 216.5,306C 215.696,303.699 216.196,301.532 218,299.5C 218.642,301.762 219.475,303.929 220.5,306C 219.332,307.406 219.665,308.572 221.5,309.5C 221.273,315.157 220.939,320.824 220.5,326.5 Z"/></g>
<g><path style="opacity:1" fill="#330d0d" d="M 144.5,356.5 C 146.474,358.428 147.974,360.761 149,363.5C 149.671,364.252 150.504,364.586 151.5,364.5C 152.066,366.078 153.066,367.412 154.5,368.5C 156.606,375.08 157.94,381.747 158.5,388.5C 159.047,395.156 159.547,401.823 160,408.5C 161.038,412.468 162.538,416.135 164.5,419.5C 164.337,421.857 164.503,424.19 165,426.5C 166.833,429.5 168.667,432.5 170.5,435.5C 168.994,436.747 167.494,436.747 166,435.5C 165.71,433.048 165.044,430.715 164,428.5C 157.946,421.112 151.279,414.446 144,408.5C 138.394,400.364 132.894,392.031 127.5,383.5C 120.469,376.301 113.969,368.634 108,360.5C 104.563,355.901 104.897,351.568 109,347.5C 109.495,345.527 109.662,343.527 109.5,341.5C 111.606,338.169 113.272,334.502 114.5,330.5C 115.5,329.5 116.5,328.5 117.5,327.5C 118.327,329.162 119.493,330.495 121,331.5C 121.333,334.167 121.667,336.833 122,339.5C 122.766,336.42 123.766,333.42 125,330.5C 127.219,332.29 129.385,334.623 131.5,337.5C 132.865,340.687 133.699,344.02 134,347.5C 135,347.5 136,347.5 137,347.5C 139.094,349.921 140.76,352.588 142,355.5C 142.671,356.252 143.504,356.586 144.5,356.5 Z"/></g>
<g><path style="opacity:1" fill="#36524a" d="M 223.5,324.5 C 223.5,325.833 223.5,327.167 223.5,328.5C 222.096,332.001 221.096,335.668 220.5,339.5C 214.883,342.457 212.216,347.123 212.5,353.5C 211.32,358.681 208.987,363.348 205.5,367.5C 202.147,374.414 199.314,381.414 197,388.5C 194.467,392.261 191.967,395.928 189.5,399.5C 190.204,396.021 191.37,392.688 193,389.5C 194,388.833 195,388.167 196,387.5C 196.384,383.347 197.384,379.347 199,375.5C 201.789,370.514 204.456,365.514 207,360.5C 208.664,353.584 210.831,346.917 213.5,340.5C 214.5,340.5 215.5,340.5 216.5,340.5C 218.013,335.953 219.346,331.286 220.5,326.5C 221.222,325.449 222.222,324.782 223.5,324.5 Z"/></g>
<g><path style="opacity:1" fill="#d2d7d5" d="M 36.5,235.5 C 37.6345,240.038 38.8011,244.705 40,249.5C 40.66,251.324 41.8267,252.657 43.5,253.5C 45.168,255.34 46.668,257.34 48,259.5C 50.7042,267.798 53.8709,275.798 57.5,283.5C 59.6381,289.915 61.9714,296.249 64.5,302.5C 72.7799,331.023 83.7799,358.356 97.5,384.5C 101.263,393.911 106.596,402.245 113.5,409.5C 116.808,412.635 120.308,415.635 124,418.5C 124.085,421.939 122.918,424.939 120.5,427.5C 116.911,422.679 112.745,417.679 108,412.5C 103.175,403.502 98.3413,395.002 93.5,387C 93.9724,384.601 92.9724,382.601 90.5,381C 91.2714,379.002 90.6048,377.335 88.5,376C 88.9574,375.586 89.2907,375.086 89.5,374.5C 84.9062,365.25 80.5728,356.25 76.5,347.5C 77.2878,345.671 76.7878,344.004 75,342.5C 73.202,334.469 70.5353,326.803 67,319.5C 63.8646,307.431 59.5313,295.765 54,284.5C 53.6667,282.167 53.3333,279.833 53,277.5C 49.4578,272.433 46.2911,267.1 43.5,261.5C 42.675,260.614 41.675,260.281 40.5,260.5C 40.2223,256.268 39.0556,252.268 37,248.5C 36.501,244.179 36.3343,239.846 36.5,235.5 Z"/></g>
<g><path style="opacity:1" fill="#200c0a" d="M 158.5,388.5 C 157.94,381.747 156.606,375.08 154.5,368.5C 153.066,367.412 152.066,366.078 151.5,364.5C 157.908,355.362 163.575,345.695 168.5,335.5C 170.074,335.063 171.241,334.063 172,332.5C 172.029,335.367 172.862,337.867 174.5,340C 172.208,341.197 171.875,342.863 173.5,345C 171.208,348.435 171.041,351.935 173,355.5C 173.249,354.376 173.749,353.376 174.5,352.5C 179.47,356.233 179.304,359.233 174,361.5C 173.776,365.946 175.609,367.112 179.5,365C 178.483,363.951 178.316,362.784 179,361.5C 180.011,362.337 181.178,362.67 182.5,362.5C 182.5,364.5 182.5,366.5 182.5,368.5C 181.5,368.5 180.5,368.5 179.5,368.5C 179.662,370.527 179.495,372.527 179,374.5C 175.911,378.406 173.077,382.406 170.5,386.5C 169.271,387.281 167.938,387.781 166.5,388C 168.701,388.777 168.701,389.944 166.5,391.5C 161.316,385.579 161.316,379.579 166.5,373.5C 166,373.167 165.5,372.833 165,372.5C 163.449,374.894 161.282,376.227 158.5,376.5C 158.5,380.5 158.5,384.5 158.5,388.5 Z"/></g>
<g><path style="opacity:1" fill="#260c0a" d="M 113.5,393.5 C 113.67,394.822 113.337,395.989 112.5,397C 115.817,401.102 119.483,404.935 123.5,408.5C 123.331,410.117 122.997,411.784 122.5,413.5C 119.313,411.166 116.48,408.499 114,405.5C 112.409,401.709 110.242,398.376 107.5,395.5C 106.504,395.414 105.671,395.748 105,396.5C 103.901,392.859 102.234,389.525 100,386.5C 99.1717,381.798 99.3384,377.131 100.5,372.5C 103.124,376.56 106.124,380.226 109.5,383.5C 110.713,386.997 112.046,390.33 113.5,393.5 Z"/></g>
<g><path style="opacity:1" fill="#150a07" d="M 109.5,341.5 C 109.662,343.527 109.495,345.527 109,347.5C 104.897,351.568 104.563,355.901 108,360.5C 113.969,368.634 120.469,376.301 127.5,383.5C 132.894,392.031 138.394,400.364 144,408.5C 151.279,414.446 157.946,421.112 164,428.5C 165.044,430.715 165.71,433.048 166,435.5C 167.494,436.747 168.994,436.747 170.5,435.5C 168.667,432.5 166.833,429.5 165,426.5C 164.503,424.19 164.337,421.857 164.5,419.5C 165.92,421.886 166.92,424.553 167.5,427.5C 169.171,429.627 170.837,431.627 172.5,433.5C 173.1,436.298 174.1,438.965 175.5,441.5C 174.125,443.163 174.458,444.497 176.5,445.5C 175.643,446.425 174.643,447.092 173.5,447.5C 172.833,447.5 172.167,447.5 171.5,447.5C 168.204,445.179 164.871,442.846 161.5,440.5C 161.179,438.952 160.179,438.285 158.5,438.5C 158.762,437.022 158.429,435.689 157.5,434.5C 156.201,433.91 155.368,432.91 155,431.5C 154.667,431.833 154.333,432.167 154,432.5C 152.858,430.382 152.358,428.382 152.5,426.5C 150.473,425.307 148.973,423.64 148,421.5C 147.667,421.833 147.333,422.167 147,422.5C 146.29,421.027 145.124,420.36 143.5,420.5C 143.318,418.325 142.651,416.325 141.5,414.5C 142.813,412.608 142.646,410.941 141,409.5C 139.817,410.731 138.651,410.731 137.5,409.5C 138.167,408.833 138.833,408.167 139.5,407.5C 137.084,405.248 135.251,402.581 134,399.5C 132.372,400.819 132.539,402.152 134.5,403.5C 133.132,404.594 131.965,404.26 131,402.5C 130.333,403.167 129.667,403.833 129,404.5C 128.781,403.062 128.281,401.729 127.5,400.5C 126.289,401.274 126.289,402.107 127.5,403C 126.975,403.692 126.308,404.192 125.5,404.5C 124.262,402.363 122.429,401.029 120,400.5C 118.833,398.667 117.667,396.833 116.5,395C 116.833,394.667 117.167,394.333 117.5,394C 116.234,393.691 115.067,393.191 114,392.5C 113.601,392.728 113.435,393.062 113.5,393.5C 112.046,390.33 110.713,386.997 109.5,383.5C 106.124,380.226 103.124,376.56 100.5,372.5C 99.3384,377.131 99.1717,381.798 100,386.5C 102.234,389.525 103.901,392.859 105,396.5C 105.671,395.748 106.504,395.414 107.5,395.5C 108.96,400.418 110.96,405.085 113.5,409.5C 106.596,402.245 101.263,393.911 97.5,384.5C 98.0892,379.519 98.5892,374.519 99,369.5C 99.6839,367.641 100.684,365.974 102,364.5C 103.028,356.226 105.528,348.559 109.5,341.5 Z"/></g>
<g><path style="opacity:1" fill="#120e09" d="M 173.5,326.5 C 177.195,335.945 179.695,345.945 181,356.5C 182.62,359.893 184.12,363.226 185.5,366.5C 188.224,378.965 189.224,391.632 188.5,404.5C 185.313,409.967 181.48,414.967 177,419.5C 176.209,420.745 175.709,422.078 175.5,423.5C 171.886,418.168 169.719,412.168 169,405.5C 167.102,401.372 164.935,397.372 162.5,393.5C 161.338,398.131 161.172,402.798 162,407.5C 162.557,411.594 163.39,415.594 164.5,419.5C 162.538,416.135 161.038,412.468 160,408.5C 159.547,401.823 159.047,395.156 158.5,388.5C 158.5,384.5 158.5,380.5 158.5,376.5C 161.282,376.227 163.449,374.894 165,372.5C 165.5,372.833 166,373.167 166.5,373.5C 161.316,379.579 161.316,385.579 166.5,391.5C 168.701,389.944 168.701,388.777 166.5,388C 167.938,387.781 169.271,387.281 170.5,386.5C 173.077,382.406 175.911,378.406 179,374.5C 179.495,372.527 179.662,370.527 179.5,368.5C 180.5,368.5 181.5,368.5 182.5,368.5C 182.5,366.5 182.5,364.5 182.5,362.5C 181.178,362.67 180.011,362.337 179,361.5C 178.316,362.784 178.483,363.951 179.5,365C 175.609,367.112 173.776,365.946 174,361.5C 179.304,359.233 179.47,356.233 174.5,352.5C 173.749,353.376 173.249,354.376 173,355.5C 171.041,351.935 171.208,348.435 173.5,345C 171.875,342.863 172.208,341.197 174.5,340C 172.862,337.867 172.029,335.367 172,332.5C 171.241,334.063 170.074,335.063 168.5,335.5C 170.42,332.661 172.087,329.661 173.5,326.5 Z"/></g>
<g><path style="opacity:1" fill="#4f5453" d="M 212.5,353.5 C 212.595,358.887 212.095,364.22 211,369.5C 206.075,374.349 202.409,380.015 200,386.5C 197.75,395.754 194.75,404.754 191,413.5C 185.316,416.686 180.816,421.019 177.5,426.5C 175.952,426.179 175.285,425.179 175.5,423.5C 175.709,422.078 176.209,420.745 177,419.5C 181.48,414.967 185.313,409.967 188.5,404.5C 189.451,403.081 189.784,401.415 189.5,399.5C 191.967,395.928 194.467,392.261 197,388.5C 199.314,381.414 202.147,374.414 205.5,367.5C 208.987,363.348 211.32,358.681 212.5,353.5 Z"/></g>
<g><path style="opacity:1" fill="#1e0e0b" d="M 161.5,440.5 C 160.735,440.077 159.902,439.743 159,439.5C 149.007,444.928 140.174,451.928 132.5,460.5C 132.102,455.6 129.435,452.767 124.5,452C 124.957,451.586 125.291,451.086 125.5,450.5C 123.677,449.509 122.177,448.176 121,446.5C 120.694,441.306 121.861,436.473 124.5,432C 123.423,430.457 122.089,430.457 120.5,432C 117.058,437.507 114.225,443.34 112,449.5C 110.488,450.257 109.154,451.257 108,452.5C 106.055,456.736 103.388,460.403 100,463.5C 98.2455,467.99 96.9121,472.657 96,477.5C 92.5453,479.094 91.712,481.594 93.5,485C 96.7744,485.766 99.7744,486.266 102.5,486.5C 101.167,487.167 99.8333,487.833 98.5,488.5C 95.7939,488.312 93.4605,487.312 91.5,485.5C 89.5589,483.989 89.0589,481.989 90,479.5C 91.9407,475.952 93.6074,472.286 95,468.5C 103.511,454.805 112.011,441.139 120.5,427.5C 122.918,424.939 124.085,421.939 124,418.5C 120.308,415.635 116.808,412.635 113.5,409.5C 110.96,405.085 108.96,400.418 107.5,395.5C 110.242,398.376 112.409,401.709 114,405.5C 116.48,408.499 119.313,411.166 122.5,413.5C 122.997,411.784 123.331,410.117 123.5,408.5C 119.483,404.935 115.817,401.102 112.5,397C 113.337,395.989 113.67,394.822 113.5,393.5C 113.435,393.062 113.601,392.728 114,392.5C 115.067,393.191 116.234,393.691 117.5,394C 117.167,394.333 116.833,394.667 116.5,395C 117.667,396.833 118.833,398.667 120,400.5C 122.429,401.029 124.262,402.363 125.5,404.5C 126.308,404.192 126.975,403.692 127.5,403C 126.289,402.107 126.289,401.274 127.5,400.5C 128.281,401.729 128.781,403.062 129,404.5C 129.667,403.833 130.333,403.167 131,402.5C 131.965,404.26 133.132,404.594 134.5,403.5C 132.539,402.152 132.372,400.819 134,399.5C 135.251,402.581 137.084,405.248 139.5,407.5C 138.833,408.167 138.167,408.833 137.5,409.5C 138.651,410.731 139.817,410.731 141,409.5C 142.646,410.941 142.813,412.608 141.5,414.5C 142.651,416.325 143.318,418.325 143.5,420.5C 145.124,420.36 146.29,421.027 147,422.5C 147.333,422.167 147.667,421.833 148,421.5C 148.973,423.64 150.473,425.307 152.5,426.5C 152.358,428.382 152.858,430.382 154,432.5C 154.333,432.167 154.667,431.833 155,431.5C 155.368,432.91 156.201,433.91 157.5,434.5C 158.429,435.689 158.762,437.022 158.5,438.5C 160.179,438.285 161.179,438.952 161.5,440.5 Z"/></g>
<g><path style="opacity:1" fill="#1f4639" d="M 175.5,423.5 C 175.285,425.179 175.952,426.179 177.5,426.5C 177.192,428.924 177.526,431.257 178.5,433.5C 181.209,436.208 183.542,439.208 185.5,442.5C 187.5,444.833 189.5,447.167 191.5,449.5C 190.127,449.657 188.793,449.49 187.5,449C 186.211,447.198 184.544,446.031 182.5,445.5C 178.698,441.899 175.365,437.899 172.5,433.5C 170.837,431.627 169.171,429.627 167.5,427.5C 166.92,424.553 165.92,421.886 164.5,419.5C 163.39,415.594 162.557,411.594 162,407.5C 161.172,402.798 161.338,398.131 162.5,393.5C 164.935,397.372 167.102,401.372 169,405.5C 169.719,412.168 171.886,418.168 175.5,423.5 Z"/></g>
<g><path style="opacity:1" fill="#9da8a1" d="M 185.5,442.5 C 187.924,443.03 190.257,443.864 192.5,445C 198.292,451.438 203.959,457.938 209.5,464.5C 202.885,460.217 196.885,455.217 191.5,449.5C 189.5,447.167 187.5,444.833 185.5,442.5 Z"/></g>
<g><path style="opacity:1" fill="#2e3c31" d="M 182.5,445.5 C 184.544,446.031 186.211,447.198 187.5,449C 188.793,449.49 190.127,449.657 191.5,449.5C 196.885,455.217 202.885,460.217 209.5,464.5C 211.63,467.737 214.63,469.737 218.5,470.5C 220.091,472.681 221.424,475.014 222.5,477.5C 222.246,479.417 221.246,480.751 219.5,481.5C 217.899,478.204 216.232,474.871 214.5,471.5C 206.689,465.523 199.022,459.356 191.5,453C 187.778,451.451 184.778,448.951 182.5,445.5 Z"/></g>
<g><path style="opacity:1" fill="#534f4d" d="M 161.5,440.5 C 164.871,442.846 168.204,445.179 171.5,447.5C 168.436,447.856 165.769,447.023 163.5,445C 155.876,443.064 149.709,445.23 145,451.5C 142.613,455.782 140.113,459.949 137.5,464C 132.672,465.322 128.338,467.489 124.5,470.5C 126.763,466.897 129.43,463.564 132.5,460.5C 140.174,451.928 149.007,444.928 159,439.5C 159.902,439.743 160.735,440.077 161.5,440.5 Z"/></g>
<g><path style="opacity:1" fill="#a8a29f" d="M 184.5,456.5 C 187.06,458.273 189.393,460.273 191.5,462.5C 187.911,461.908 185.578,459.908 184.5,456.5 Z"/></g>
<g><path style="opacity:1" fill="#2b1816" d="M 172.5,433.5 C 175.365,437.899 178.698,441.899 182.5,445.5C 184.778,448.951 187.778,451.451 191.5,453C 199.022,459.356 206.689,465.523 214.5,471.5C 216.232,474.871 217.899,478.204 219.5,481.5C 217.5,481.5 215.5,481.5 213.5,481.5C 211.566,480.89 209.899,479.89 208.5,478.5C 204.833,474.167 200.833,470.167 196.5,466.5C 195.421,464.457 193.754,463.124 191.5,462.5C 189.393,460.273 187.06,458.273 184.5,456.5C 180.978,453.25 177.311,450.25 173.5,447.5C 174.643,447.092 175.643,446.425 176.5,445.5C 174.458,444.497 174.125,443.163 175.5,441.5C 174.1,438.965 173.1,436.298 172.5,433.5 Z"/></g>
<g><path style="opacity:1" fill="#afaba7" d="M 196.5,466.5 C 200.833,470.167 204.833,474.167 208.5,478.5C 202.14,476.807 198.14,472.807 196.5,466.5 Z"/></g>
<g><path style="opacity:1" fill="#abaeab" d="M 218.5,470.5 C 221.192,471.009 223.692,472.009 226,473.5C 225.764,476.646 224.931,479.646 223.5,482.5C 219.958,482.813 216.625,482.479 213.5,481.5C 215.5,481.5 217.5,481.5 219.5,481.5C 221.246,480.751 222.246,479.417 222.5,477.5C 221.424,475.014 220.091,472.681 218.5,470.5 Z"/></g>
<g><path style="opacity:1" fill="#2e0f0e" d="M 132.5,460.5 C 129.43,463.564 126.763,466.897 124.5,470.5C 123.167,471.167 122.167,472.167 121.5,473.5C 119.567,473.729 117.9,474.562 116.5,476C 112.745,480.711 108.078,484.211 102.5,486.5C 99.7744,486.266 96.7744,485.766 93.5,485C 91.712,481.594 92.5453,479.094 96,477.5C 96.9121,472.657 98.2455,467.99 100,463.5C 103.388,460.403 106.055,456.736 108,452.5C 109.154,451.257 110.488,450.257 112,449.5C 114.225,443.34 117.058,437.507 120.5,432C 122.089,430.457 123.423,430.457 124.5,432C 121.861,436.473 120.694,441.306 121,446.5C 122.177,448.176 123.677,449.509 125.5,450.5C 125.291,451.086 124.957,451.586 124.5,452C 129.435,452.767 132.102,455.6 132.5,460.5 Z"/></g>
<g><path style="opacity:1" fill="#5c5553" d="M 121.5,473.5 C 121.649,474.552 121.483,475.552 121,476.5C 116.705,481.476 112.205,486.142 107.5,490.5C 104.162,490.935 101.162,490.268 98.5,488.5C 99.8333,487.833 101.167,487.167 102.5,486.5C 108.078,484.211 112.745,480.711 116.5,476C 117.9,474.562 119.567,473.729 121.5,473.5 Z"/></g>
<g><path style="opacity:1" fill="#bab6b3" d="M 91.5,485.5 C 93.4605,487.312 95.7939,488.312 98.5,488.5C 101.162,490.268 104.162,490.935 107.5,490.5C 103.317,491.811 98.9838,491.811 94.5,490.5C 93.0476,489.06 92.0476,487.394 91.5,485.5 Z"/></g>
</svg>
