<?xml version="1.0" encoding="UTF-8"?>
<!DOCTYPE svg PUBLIC "-//W3C//DTD SVG 1.1//EN" "http://www.w3.org/Graphics/SVG/1.1/DTD/svg11.dtd">
<svg xmlns="http://www.w3.org/2000/svg" version="1.1" width="373px" height="556px" style="shape-rendering:geometricPrecision; text-rendering:geometricPrecision; image-rendering:optimizeQuality; fill-rule:evenodd; clip-rule:evenodd" xmlns:xlink="http://www.w3.org/1999/xlink">
<g><path style="opacity:1" fill="#fefefe" d="M -0.5,-0.5 C 123.833,-0.5 248.167,-0.5 372.5,-0.5C 372.5,184.833 372.5,370.167 372.5,555.5C 248.167,555.5 123.833,555.5 -0.5,555.5C -0.5,370.167 -0.5,184.833 -0.5,-0.5 Z"/></g>
<g><path style="opacity:1" fill="#7c7972" d="M 193.5,2.5 C 193.5,4.16667 193.5,5.83333 193.5,7.5C 191.856,7.71351 190.356,7.38017 189,6.5C 188.517,7.44802 188.351,8.44802 188.5,9.5C 187.58,10.0674 187.246,9.40078 187.5,7.5C 185.801,7.37959 184.135,7.04626 182.5,6.5C 180.971,6.52884 179.804,7.19551 179,8.5C 178,7.5 177,6.5 176,5.5C 175.751,6.62402 175.251,7.62402 174.5,8.5C 173.833,7.16667 173.167,5.83333 172.5,4.5C 170.885,5.15402 169.218,5.65402 167.5,6C 166.748,6.67076 166.414,7.5041 166.5,8.5C 165.683,10.9686 165.183,13.6353 165,16.5C 163.67,13.7689 163.17,11.1023 163.5,8.5C 162.468,10.0396 161.135,10.5396 159.5,10C 159.833,9.66667 160.167,9.33333 160.5,9C 146.638,6.32251 133.638,7.48918 121.5,12.5C 120.808,11.9747 120.308,11.3081 120,10.5C 117.242,12.4614 114.409,14.2948 111.5,16C 110.748,16.6708 110.414,17.5041 110.5,18.5C 108.668,17.7515 107.001,16.7515 105.5,15.5C 101.525,12.1656 96.8584,10.1656 91.5,9.5C 121.267,2.3267 151.601,-0.506637 182.5,1C 186.114,1.93578 189.78,2.43578 193.5,2.5 Z"/></g>
<g><path style="opacity:1" fill="#87857b" d="M 193.5,2.5 C 206.483,3.89834 219.483,5.23167 232.5,6.5C 242.993,8.63842 253.66,10.4718 264.5,12C 271.789,14.3679 278.789,17.2013 285.5,20.5C 276.315,24.1304 266.982,27.6304 257.5,31C 254.861,33.4827 251.861,35.316 248.5,36.5C 247.798,34.4425 247.465,32.4425 247.5,30.5C 246.833,31.1667 246.167,31.8333 245.5,32.5C 242.572,31.0791 241.238,32.0791 241.5,35.5C 239.833,35.5 238.167,35.5 236.5,35.5C 236.5,36.8333 236.5,38.1667 236.5,39.5C 235.127,39.3433 233.793,39.51 232.5,40C 230.244,41.8677 227.744,43.3677 225,44.5C 224.306,43.1824 223.473,42.3491 222.5,42C 222.759,40.7387 223.426,39.7387 224.5,39C 223.427,37.7496 223.427,36.4162 224.5,35C 224.167,34.5 223.833,34 223.5,33.5C 222.304,33.8457 222.304,34.3457 223.5,35C 221.671,35.2735 220.171,36.1068 219,37.5C 218.405,36.1011 218.572,34.7678 219.5,33.5C 217.231,32.3931 215.898,33.2265 215.5,36C 216.943,38.0777 216.276,38.9111 213.5,38.5C 213.357,36.7376 213.691,35.0709 214.5,33.5C 212.161,32.6571 210.161,32.6571 208.5,33.5C 209.106,31.2906 209.773,29.124 210.5,27C 210.167,26.6667 209.833,26.3333 209.5,26C 212.333,25.8333 213.833,24.3333 214,21.5C 215.95,28.0641 216.783,27.7308 216.5,20.5C 218.143,20.5198 219.476,19.8532 220.5,18.5C 221.863,19.8793 222.863,19.7126 223.5,18C 223.827,12.0441 220.994,10.2107 215,12.5C 210.293,10.7982 205.626,9.79817 201,9.5C 197.577,9.81611 194.41,10.8161 191.5,12.5C 190.712,11.2299 189.712,10.2299 188.5,9.5C 188.351,8.44802 188.517,7.44802 189,6.5C 190.356,7.38017 191.856,7.71351 193.5,7.5C 193.5,5.83333 193.5,4.16667 193.5,2.5 Z"/></g>
<g><path style="opacity:1" fill="#163029" d="M 91.5,9.5 C 96.8584,10.1656 101.525,12.1656 105.5,15.5C 102.183,15.781 99.0168,15.781 96,15.5C 91.4858,18.6734 86.6525,21.1734 81.5,23C 82.5,23.3333 83.5,23.6667 84.5,24C 82.5789,24.3603 80.9122,25.1936 79.5,26.5C 79.3822,24.9172 78.5489,23.2505 77,21.5C 73.6421,24.3585 70.1421,27.0251 66.5,29.5C 64.5433,26.7499 61.8767,25.2499 58.5,25C 57.5399,23.5806 56.7065,22.0806 56,20.5C 55.5774,21.9561 54.7441,22.4561 53.5,22C 54.3802,20.6439 54.7135,19.1439 54.5,17.5C 66.4868,13.8339 78.8201,11.1673 91.5,9.5 Z"/></g>
<g><path style="opacity:1" fill="#d5ddd9" d="M 232.5,6.5 C 246.763,7.19852 260.763,9.36519 274.5,13C 287.555,17.6608 301.222,22.8274 315.5,28.5C 317.767,29.3622 318.767,31.0289 318.5,33.5C 307.918,28.193 296.918,23.8597 285.5,20.5C 278.789,17.2013 271.789,14.3679 264.5,12C 253.66,10.4718 242.993,8.63842 232.5,6.5 Z"/></g>
<g><path style="opacity:1" fill="#85847a" d="M 166.5,8.5 C 166.441,14.914 167.108,21.2474 168.5,27.5C 167.352,34.2013 167.352,40.8679 168.5,47.5C 167.975,48.1924 167.308,48.6924 166.5,49C 167.38,50.3561 167.714,51.8561 167.5,53.5C 166.448,53.3505 165.448,53.5172 164.5,54C 165.451,57.0567 165.784,60.2234 165.5,63.5C 164.448,63.3505 163.448,63.5172 162.5,64C 163.76,66.2125 164.426,68.7125 164.5,71.5C 164.333,73.8333 164.167,76.1667 164,78.5C 163.667,77.5 163.333,76.5 163,75.5C 162.722,76.4158 162.222,77.0825 161.5,77.5C 158.356,70.8556 154.022,65.189 148.5,60.5C 147.833,59.1667 147.167,57.8333 146.5,56.5C 148.664,58.1514 150.831,59.8181 153,61.5C 154.261,61.2409 155.261,60.5742 156,59.5C 156.266,52.9759 156.766,46.4759 157.5,40C 157.057,38.175 156.723,36.3417 156.5,34.5C 154.516,34.3832 152.85,35.0499 151.5,36.5C 151.167,36.1667 150.833,35.8333 150.5,35.5C 153.108,32.4686 152.108,31.1353 147.5,31.5C 145.833,31.8333 144.167,32.1667 142.5,32.5C 142.808,33.3081 143.308,33.9747 144,34.5C 144.718,33.5494 145.551,33.3828 146.5,34C 144.16,36.2884 141.994,36.455 140,34.5C 138.441,35.0294 136.941,35.696 135.5,36.5C 134.417,37.365 134.251,38.365 135,39.5C 136.86,42.2719 139.194,44.6053 142,46.5C 142.494,48.1341 142.66,49.8008 142.5,51.5C 141.167,50.5 139.833,49.5 138.5,48.5C 135.267,44.0845 131.767,39.7512 128,35.5C 122.272,29.7205 116.439,24.0538 110.5,18.5C 110.414,17.5041 110.748,16.6708 111.5,16C 114.409,14.2948 117.242,12.4614 120,10.5C 120.308,11.3081 120.808,11.9747 121.5,12.5C 133.638,7.48918 146.638,6.32251 160.5,9C 160.167,9.33333 159.833,9.66667 159.5,10C 161.135,10.5396 162.468,10.0396 163.5,8.5C 163.17,11.1023 163.67,13.7689 165,16.5C 165.183,13.6353 165.683,10.9686 166.5,8.5 Z"/></g>
<g><path style="opacity:1" fill="#676861" d="M 44.5,20.5 C 48.172,21.2408 51.8387,22.4075 55.5,24C 56.0659,24.9947 56.7326,25.828 57.5,26.5C 58.0553,28.7288 59.3886,30.3954 61.5,31.5C 58.4379,32.8698 55.2713,33.8698 52,34.5C 51.3333,30.5 50.6667,30.5 50,34.5C 48.324,33.9389 46.9906,32.9389 46,31.5C 43.9669,33.4832 42.4669,32.8165 41.5,29.5C 42.0456,26.3533 43.0456,23.3533 44.5,20.5 Z"/></g>
<g><path style="opacity:1" fill="#173d34" d="M 105.5,15.5 C 107.001,16.7515 108.668,17.7515 110.5,18.5C 116.439,24.0538 122.272,29.7205 128,35.5C 131.767,39.7512 135.267,44.0845 138.5,48.5C 132.898,45.6156 127.898,41.2823 123.5,35.5C 122.675,34.6143 121.675,34.281 120.5,34.5C 120.736,37.2257 119.903,39.559 118,41.5C 117.464,39.1311 116.297,37.1311 114.5,35.5C 112.871,38.2659 112.205,41.2659 112.5,44.5C 110.712,44.2148 109.045,44.5481 107.5,45.5C 108.093,47.3817 108.76,49.2151 109.5,51C 106.869,51.1067 104.369,51.2734 102,51.5C 101,50.8333 100,50.1667 99,49.5C 95.9243,50.2883 92.7577,50.7883 89.5,51C 88.5494,51.7175 88.3828,52.5509 89,53.5C 91.1584,54.8259 92.9918,56.4925 94.5,58.5C 94.1924,59.3081 93.6924,59.9747 93,60.5C 91.1492,57.1539 88.3159,55.1539 84.5,54.5C 79.8642,47.7011 74.6975,41.3677 69,35.5C 66.1667,34 64,31.8333 62.5,29C 60.9221,27.9055 59.2554,27.0722 57.5,26.5C 56.7326,25.828 56.0659,24.9947 55.5,24C 51.8387,22.4075 48.172,21.2408 44.5,20.5C 47.5046,18.7234 50.8379,17.7234 54.5,17.5C 54.7135,19.1439 54.3802,20.6439 53.5,22C 54.7441,22.4561 55.5774,21.9561 56,20.5C 56.7065,22.0806 57.5399,23.5806 58.5,25C 61.8767,25.2499 64.5433,26.7499 66.5,29.5C 70.1421,27.0251 73.6421,24.3585 77,21.5C 78.5489,23.2505 79.3822,24.9172 79.5,26.5C 80.9122,25.1936 82.5789,24.3603 84.5,24C 83.5,23.6667 82.5,23.3333 81.5,23C 86.6525,21.1734 91.4858,18.6734 96,15.5C 99.0168,15.781 102.183,15.781 105.5,15.5 Z"/></g>
<g><path style="opacity:1" fill="#8e8c83" d="M 146.5,56.5 C 145.197,54.8577 143.864,53.1911 142.5,51.5C 142.66,49.8008 142.494,48.1341 142,46.5C 139.194,44.6053 136.86,42.2719 135,39.5C 134.251,38.365 134.417,37.365 135.5,36.5C 136.941,35.696 138.441,35.0294 140,34.5C 141.994,36.455 144.16,36.2884 146.5,34C 145.551,33.3828 144.718,33.5494 144,34.5C 143.308,33.9747 142.808,33.3081 142.5,32.5C 144.167,32.1667 145.833,31.8333 147.5,31.5C 152.108,31.1353 153.108,32.4686 150.5,35.5C 150.833,35.8333 151.167,36.1667 151.5,36.5C 152.85,35.0499 154.516,34.3832 156.5,34.5C 156.723,36.3417 157.057,38.175 157.5,40C 156.766,46.4759 156.266,52.9759 156,59.5C 155.261,60.5742 154.261,61.2409 153,61.5C 150.831,59.8181 148.664,58.1514 146.5,56.5 Z"/></g>
<g><path style="opacity:1" fill="#7b7d73" d="M 57.5,26.5 C 59.2554,27.0722 60.9221,27.9055 62.5,29C 64,31.8333 66.1667,34 69,35.5C 74.6975,41.3677 79.8642,47.7011 84.5,54.5C 81.8682,52.8866 79.2016,51.22 76.5,49.5C 75.4822,50.1925 74.4822,50.8592 73.5,51.5C 69.246,49.0789 64.5793,47.4122 59.5,46.5C 53.8333,44.5 48.1667,42.5 42.5,40.5C 52.1932,41.2083 61.6932,42.875 71,45.5C 72.7271,45.3535 72.8938,44.6869 71.5,43.5C 69.6841,42.1851 68.0175,40.6851 66.5,39C 54.8971,38.5657 43.5638,36.8991 32.5,34C 31.7476,33.3292 31.4142,32.4959 31.5,31.5C 34.8333,30.8333 38.1667,30.1667 41.5,29.5C 42.4669,32.8165 43.9669,33.4832 46,31.5C 46.9906,32.9389 48.324,33.9389 50,34.5C 50.6667,30.5 51.3333,30.5 52,34.5C 55.2713,33.8698 58.4379,32.8698 61.5,31.5C 59.3886,30.3954 58.0553,28.7288 57.5,26.5 Z"/></g>
<g><path style="opacity:1" fill="#ced3cf" d="M 325.5,37.5 C 328.91,37.4571 332.243,37.9571 335.5,39C 338.833,41.6667 342.167,44.3333 345.5,47C 346.823,47.8159 347.489,48.9826 347.5,50.5C 345.255,49.9044 343.255,48.9044 341.5,47.5C 338.328,45.7481 335.328,43.7481 332.5,41.5C 329.996,40.4161 327.663,39.0828 325.5,37.5 Z"/></g>
<g><path style="opacity:1" fill="#919287" d="M 31.5,31.5 C 31.4142,32.4959 31.7476,33.3292 32.5,34C 43.5638,36.8991 54.8971,38.5657 66.5,39C 68.0175,40.6851 69.6841,42.1851 71.5,43.5C 72.8938,44.6869 72.7271,45.3535 71,45.5C 61.6932,42.875 52.1932,41.2083 42.5,40.5C 42.1667,40.5 41.8333,40.5 41.5,40.5C 41.3893,39.8826 41.056,39.3826 40.5,39C 37.8333,38.6667 35.1667,38.3333 32.5,38C 30.8786,34.6883 28.212,33.1883 24.5,33.5C 26.6568,32.5933 28.9902,31.9267 31.5,31.5 Z"/></g>
<g><path style="opacity:1" fill="#929187" d="M 188.5,9.5 C 189.712,10.2299 190.712,11.2299 191.5,12.5C 194.41,10.8161 197.577,9.81611 201,9.5C 205.626,9.79817 210.293,10.7982 215,12.5C 220.994,10.2107 223.827,12.0441 223.5,18C 222.863,19.7126 221.863,19.8793 220.5,18.5C 219.476,19.8532 218.143,20.5198 216.5,20.5C 216.783,27.7308 215.95,28.0641 214,21.5C 213.833,24.3333 212.333,25.8333 209.5,26C 209.833,26.3333 210.167,26.6667 210.5,27C 209.773,29.124 209.106,31.2906 208.5,33.5C 210.161,32.6571 212.161,32.6571 214.5,33.5C 213.691,35.0709 213.357,36.7376 213.5,38.5C 216.276,38.9111 216.943,38.0777 215.5,36C 215.898,33.2265 217.231,32.3931 219.5,33.5C 218.572,34.7678 218.405,36.1011 219,37.5C 220.171,36.1068 221.671,35.2735 223.5,35C 222.304,34.3457 222.304,33.8457 223.5,33.5C 223.833,34 224.167,34.5 224.5,35C 223.427,36.4162 223.427,37.7496 224.5,39C 223.426,39.7387 222.759,40.7387 222.5,42C 223.473,42.3491 224.306,43.1824 225,44.5C 227.744,43.3677 230.244,41.8677 232.5,40C 233.793,39.51 235.127,39.3433 236.5,39.5C 236.5,38.1667 236.5,36.8333 236.5,35.5C 238.167,35.5 239.833,35.5 241.5,35.5C 241.238,32.0791 242.572,31.0791 245.5,32.5C 246.167,31.8333 246.833,31.1667 247.5,30.5C 247.465,32.4425 247.798,34.4425 248.5,36.5C 224.544,56.1134 200.544,75.7801 176.5,95.5C 175.311,96.4287 173.978,96.762 172.5,96.5C 170.969,93.1008 169.135,89.7675 167,86.5C 165.693,84.8082 164.193,83.4749 162.5,82.5C 162.634,80.7085 162.301,79.0418 161.5,77.5C 162.222,77.0825 162.722,76.4158 163,75.5C 163.333,76.5 163.667,77.5 164,78.5C 164.167,76.1667 164.333,73.8333 164.5,71.5C 164.426,68.7125 163.76,66.2125 162.5,64C 163.448,63.5172 164.448,63.3505 165.5,63.5C 165.784,60.2234 165.451,57.0567 164.5,54C 165.448,53.5172 166.448,53.3505 167.5,53.5C 167.714,51.8561 167.38,50.3561 166.5,49C 167.308,48.6924 167.975,48.1924 168.5,47.5C 167.352,40.8679 167.352,34.2013 168.5,27.5C 167.108,21.2474 166.441,14.914 166.5,8.5C 166.414,7.5041 166.748,6.67076 167.5,6C 169.218,5.65402 170.885,5.15402 172.5,4.5C 173.167,5.83333 173.833,7.16667 174.5,8.5C 175.251,7.62402 175.751,6.62402 176,5.5C 177,6.5 178,7.5 179,8.5C 179.804,7.19551 180.971,6.52884 182.5,6.5C 184.135,7.04626 185.801,7.37959 187.5,7.5C 187.246,9.40078 187.58,10.0674 188.5,9.5 Z"/></g>
<g><path style="opacity:1" fill="#34362d" d="M 41.5,40.5 C 41.8333,40.5 42.1667,40.5 42.5,40.5C 48.1667,42.5 53.8333,44.5 59.5,46.5C 58.0413,46.4326 56.7079,46.7659 55.5,47.5C 54.8333,48.1667 54.1667,48.8333 53.5,49.5C 45.3379,47.028 37.0045,44.3613 28.5,41.5C 27.5089,40.3348 26.5089,39.1681 25.5,38C 24.7087,36.899 24.7087,36.0656 25.5,35.5C 30.0919,39.0964 35.4252,40.763 41.5,40.5 Z"/></g>
<g><path style="opacity:1" fill="#788075" d="M 332.5,41.5 C 335.328,43.7481 338.328,45.7481 341.5,47.5C 341.631,48.3764 341.298,49.0431 340.5,49.5C 339.18,47.7299 337.68,47.3966 336,48.5C 332.43,47.2508 328.764,46.2508 325,45.5C 323.527,45.9031 322.194,46.5697 321,47.5C 320.667,47.1667 320.333,46.8333 320,46.5C 319.508,47.549 319.674,48.549 320.5,49.5C 319.41,51.003 318.243,51.3363 317,50.5C 313.355,53.4046 309.188,55.4046 304.5,56.5C 309.583,52.1117 314.916,47.945 320.5,44C 324.573,42.9711 328.573,42.1378 332.5,41.5 Z"/></g>
<g><path style="opacity:1" fill="#87887f" d="M 23.5,33.5 C 25.4632,41.3555 27.4632,48.8555 29.5,56C 27.6416,57.2584 26.3082,58.9251 25.5,61C 26.4337,62.9392 26.4337,64.7725 25.5,66.5C 22.2234,67.4038 19.2234,68.9038 16.5,71C 15.3365,73.3284 13.6698,75.1618 11.5,76.5C 12.7478,62.9321 15.2478,49.5988 19,36.5C 19.9184,34.6243 21.4184,33.6243 23.5,33.5 Z"/></g>
<g><path style="opacity:1" fill="#101e18" d="M 59.5,46.5 C 64.5793,47.4122 69.246,49.0789 73.5,51.5C 71.4752,53.1964 69.4752,54.863 67.5,56.5C 62.1899,55.0775 58.1899,52.0775 55.5,47.5C 56.7079,46.7659 58.0413,46.4326 59.5,46.5 Z"/></g>
<g><path style="opacity:1" fill="#17463c" d="M 138.5,48.5 C 139.833,49.5 141.167,50.5 142.5,51.5C 143.864,53.1911 145.197,54.8577 146.5,56.5C 147.167,57.8333 147.833,59.1667 148.5,60.5C 147.624,60.3691 146.957,60.7025 146.5,61.5C 147.954,65.3962 147.287,68.8962 144.5,72C 146.136,73.434 147.136,75.2674 147.5,77.5C 146.516,79.4799 145.183,81.1466 143.5,82.5C 144.853,83.5237 145.52,84.857 145.5,86.5C 146.675,86.281 147.675,86.6143 148.5,87.5C 146.653,88.8304 145.153,88.497 144,86.5C 143.598,87.8721 143.098,89.2054 142.5,90.5C 143.274,91.7112 144.107,91.7112 145,90.5C 145.483,91.448 145.649,92.448 145.5,93.5C 144.448,93.3505 143.448,93.5172 142.5,94C 143.833,95 143.833,96 142.5,97C 144.174,99.5082 145.174,102.342 145.5,105.5C 144.141,107.306 144.475,108.806 146.5,110C 143.833,111 143.833,112 146.5,113C 145.5,113.333 144.5,113.667 143.5,114C 143.833,114.333 144.167,114.667 144.5,115C 142.98,117.334 141.98,119.834 141.5,122.5C 141.22,118.713 141.22,115.047 141.5,111.5C 140.975,110.808 140.308,110.308 139.5,110C 140.804,109.196 141.471,108.029 141.5,106.5C 140.844,104.547 140.511,102.547 140.5,100.5C 138.801,100.34 137.134,100.506 135.5,101C 136.537,103.812 135.87,106.312 133.5,108.5C 132.471,105.183 130.471,102.016 127.5,99C 124.56,98.1144 123.56,98.9477 124.5,101.5C 123.675,102.386 122.675,102.719 121.5,102.5C 109.639,86.1004 97.3062,70.1004 84.5,54.5C 88.3159,55.1539 91.1492,57.1539 93,60.5C 93.6924,59.9747 94.1924,59.3081 94.5,58.5C 92.9918,56.4925 91.1584,54.8259 89,53.5C 88.3828,52.5509 88.5494,51.7175 89.5,51C 92.7577,50.7883 95.9243,50.2883 99,49.5C 100,50.1667 101,50.8333 102,51.5C 104.369,51.2734 106.869,51.1067 109.5,51C 108.76,49.2151 108.093,47.3817 107.5,45.5C 109.045,44.5481 110.712,44.2148 112.5,44.5C 112.205,41.2659 112.871,38.2659 114.5,35.5C 116.297,37.1311 117.464,39.1311 118,41.5C 119.903,39.559 120.736,37.2257 120.5,34.5C 121.675,34.281 122.675,34.6143 123.5,35.5C 127.898,41.2823 132.898,45.6156 138.5,48.5 Z"/></g>
<g><path style="opacity:1" fill="#fefefe" d="M 84.5,54.5 C 97.3062,70.1004 109.639,86.1004 121.5,102.5C 126.114,110.442 131.114,118.108 136.5,125.5C 138.088,129.41 140.421,132.743 143.5,135.5C 150.831,143.666 157.998,152 165,160.5C 168.73,159.085 172.563,157.918 176.5,157C 186.233,150.145 195.9,143.311 205.5,136.5C 208.274,135.277 210.941,133.777 213.5,132C 233.127,116.042 252.46,99.7089 271.5,83C 276.201,78.6342 280.534,73.9675 284.5,69C 287.327,67.3364 290.327,66.1697 293.5,65.5C 295.167,65.5 296.833,65.5 298.5,65.5C 302.138,65.4467 304.138,67.1134 304.5,70.5C 308.744,83.0605 314.244,95.0605 321,106.5C 321.665,111.156 322.165,115.823 322.5,120.5C 322.5,123.833 322.5,127.167 322.5,130.5C 320.411,134.501 319.078,138.835 318.5,143.5C 315.041,155.432 310.708,167.098 305.5,178.5C 303.196,181.141 300.862,183.808 298.5,186.5C 283.98,210.874 269.98,235.541 256.5,260.5C 253.311,261.514 250.478,263.18 248,265.5C 240.066,279.253 231.566,292.586 222.5,305.5C 220.588,307.657 218.921,309.991 217.5,312.5C 213.354,318.099 209.188,323.766 205,329.5C 198.333,335.5 191.667,341.5 185,347.5C 181.97,352.916 178.47,357.916 174.5,362.5C 173.5,362.833 172.833,363.5 172.5,364.5C 169.197,367.158 165.864,369.825 162.5,372.5C 158.367,370.198 154.367,367.698 150.5,365C 146.689,359.854 143.022,354.688 139.5,349.5C 136.634,341.405 133.467,333.405 130,325.5C 120.317,310.134 111.151,294.468 102.5,278.5C 94.4337,261.794 84.4337,246.461 72.5,232.5C 72.6716,231.508 72.3382,230.842 71.5,230.5C 64.6755,209.565 59.3422,188.232 55.5,166.5C 53.53,155.149 51.3633,143.816 49,132.5C 48.6264,130.509 47.793,128.842 46.5,127.5C 45.3465,123.363 44.3465,119.196 43.5,115C 43.4808,111.97 44.1474,109.137 45.5,106.5C 51.7215,93.3917 57.3882,80.0583 62.5,66.5C 64.1528,63.2406 65.8195,59.9072 67.5,56.5C 69.4752,54.863 71.4752,53.1964 73.5,51.5C 74.4822,50.8592 75.4822,50.1925 76.5,49.5C 79.2016,51.22 81.8682,52.8866 84.5,54.5 Z"/></g>
<g><path style="opacity:1" fill="#9a9b90" d="M 341.5,47.5 C 343.255,48.9044 345.255,49.9044 347.5,50.5C 350,54.6529 353.667,57.3196 358.5,58.5C 358.833,59.8333 359.167,61.1667 359.5,62.5C 358.658,73.1578 357.992,83.8244 357.5,94.5C 357.167,94.5 356.833,94.5 356.5,94.5C 355.657,91.4838 354.157,88.8171 352,86.5C 351.184,85.1772 350.017,84.5106 348.5,84.5C 346.039,81.8875 343.373,79.5541 340.5,77.5C 341.132,74.5081 342.799,73.8414 345.5,75.5C 349.921,72.2901 353.921,68.6235 357.5,64.5C 356.575,63.4376 355.575,63.4376 354.5,64.5C 349.355,62.6201 344.355,60.4534 339.5,58C 336.518,57.502 333.518,57.3354 330.5,57.5C 321.912,59.0839 313.245,60.0839 304.5,60.5C 304.5,59.1667 304.5,57.8333 304.5,56.5C 309.188,55.4046 313.355,53.4046 317,50.5C 318.243,51.3363 319.41,51.003 320.5,49.5C 319.674,48.549 319.508,47.549 320,46.5C 320.333,46.8333 320.667,47.1667 321,47.5C 322.194,46.5697 323.527,45.9031 325,45.5C 328.764,46.2508 332.43,47.2508 336,48.5C 337.68,47.3966 339.18,47.7299 340.5,49.5C 341.298,49.0431 341.631,48.3764 341.5,47.5 Z"/></g>
<g><path style="opacity:1" fill="#1c463b" d="M 285.5,20.5 C 296.918,23.8597 307.918,28.193 318.5,33.5C 320.663,35.0828 322.996,36.4161 325.5,37.5C 327.663,39.0828 329.996,40.4161 332.5,41.5C 328.573,42.1378 324.573,42.9711 320.5,44C 314.916,47.945 309.583,52.1117 304.5,56.5C 303.833,56.8333 303.167,57.1667 302.5,57.5C 302.586,56.5041 302.252,55.6708 301.5,55C 299.925,55.379 298.425,55.2123 297,54.5C 296.612,55.428 295.945,56.0946 295,56.5C 291.476,54.6105 289.643,55.6105 289.5,59.5C 286.222,58.8893 284.222,56.8893 283.5,53.5C 283.977,52.5224 284.643,51.6891 285.5,51C 282.258,50.7167 281.924,49.8834 284.5,48.5C 283.471,48.7036 282.471,48.2036 281.5,47C 284.279,46.8508 284.779,46.0174 283,44.5C 282.586,44.9574 282.086,45.2907 281.5,45.5C 280.719,44.2713 280.219,42.938 280,41.5C 279.418,44.6677 278.418,45.001 277,42.5C 276.311,43.3567 275.478,44.0233 274.5,44.5C 271.708,43.5547 269.208,43.5547 267,44.5C 266.692,43.6919 266.192,43.0253 265.5,42.5C 263.167,45.1667 260.833,45.1667 258.5,42.5C 258.985,39.888 258.151,39.888 256,42.5C 248.517,42.553 242.183,45.553 237,51.5C 235.612,50.4464 234.112,50.2797 232.5,51C 233.833,52 233.833,53 232.5,54C 233.167,54.6667 233.833,55.3333 234.5,56C 236.676,54.5892 239.01,54.0892 241.5,54.5C 244.327,56.3706 244.827,59.0373 243,62.5C 242,61.5 241,60.5 240,59.5C 239.691,60.7659 239.191,61.9326 238.5,63C 239.337,64.0113 239.67,65.1779 239.5,66.5C 232.81,65.3306 231.143,67.4973 234.5,73C 234.167,73.1667 233.833,73.3333 233.5,73.5C 231.099,71.4376 228.433,69.7709 225.5,68.5C 226.016,69.7582 225.35,70.7582 223.5,71.5C 222.585,70.6721 221.919,69.6721 221.5,68.5C 219.994,67.2528 218.494,67.2528 217,68.5C 216.667,67.8333 216.333,67.1667 216,66.5C 211.94,69.0579 208.773,72.3913 206.5,76.5C 204.158,77.6711 201.824,78.8378 199.5,80C 201.076,81.577 202.909,82.7437 205,83.5C 206.841,80.6769 208.341,80.8436 209.5,84C 207.006,85.9891 205.173,88.4891 204,91.5C 203.333,92.8333 202.667,92.8333 202,91.5C 199.491,99.287 197.658,98.9537 196.5,90.5C 193.428,90.1826 190.428,90.5159 187.5,91.5C 185.637,93.8929 184.304,96.5596 183.5,99.5C 182.833,98.8333 182.167,98.1667 181.5,97.5C 180.008,99.1661 178.175,100.166 176,100.5C 171.731,98.8477 168.731,95.8477 167,91.5C 165.729,90.1175 164.229,89.1175 162.5,88.5C 161.725,86.3881 161.725,84.3881 162.5,82.5C 164.193,83.4749 165.693,84.8082 167,86.5C 169.135,89.7675 170.969,93.1008 172.5,96.5C 173.978,96.762 175.311,96.4287 176.5,95.5C 200.544,75.7801 224.544,56.1134 248.5,36.5C 251.861,35.316 254.861,33.4827 257.5,31C 266.982,27.6304 276.315,24.1304 285.5,20.5 Z"/></g>
<g><path style="opacity:1" fill="#686b64" d="M 23.5,33.5 C 23.8333,33.5 24.1667,33.5 24.5,33.5C 28.212,33.1883 30.8786,34.6883 32.5,38C 35.1667,38.3333 37.8333,38.6667 40.5,39C 41.056,39.3826 41.3893,39.8826 41.5,40.5C 35.4252,40.763 30.0919,39.0964 25.5,35.5C 24.7087,36.0656 24.7087,36.899 25.5,38C 26.5089,39.1681 27.5089,40.3348 28.5,41.5C 37.0045,44.3613 45.3379,47.028 53.5,49.5C 44.0035,54.4129 35.0035,60.0795 26.5,66.5C 26.1667,66.5 25.8333,66.5 25.5,66.5C 26.4337,64.7725 26.4337,62.9392 25.5,61C 26.3082,58.9251 27.6416,57.2584 29.5,56C 27.4632,48.8555 25.4632,41.3555 23.5,33.5 Z"/></g>
<g><path style="opacity:1" fill="#7a8479" d="M 304.5,56.5 C 304.5,57.8333 304.5,59.1667 304.5,60.5C 313.245,60.0839 321.912,59.0839 330.5,57.5C 330.5,57.8333 330.5,58.1667 330.5,58.5C 328.435,58.5172 326.435,58.8505 324.5,59.5C 321.67,59.9628 319.003,60.6295 316.5,61.5C 310.112,62.1839 304.112,63.5172 298.5,65.5C 296.833,65.5 295.167,65.5 293.5,65.5C 296.5,62.8333 299.5,60.1667 302.5,57.5C 303.167,57.1667 303.833,56.8333 304.5,56.5 Z"/></g>
<g><path style="opacity:1" fill="#494c3f" d="M 330.5,58.5 C 338.055,59.9371 338.221,61.9371 331,64.5C 328.181,64.0069 325.681,62.8403 323.5,61C 324.056,60.6174 324.389,60.1174 324.5,59.5C 326.435,58.8505 328.435,58.5172 330.5,58.5 Z"/></g>
<g><path style="opacity:1" fill="#13322a" d="M 55.5,47.5 C 58.1899,52.0775 62.1899,55.0775 67.5,56.5C 65.8195,59.9072 64.1528,63.2406 62.5,66.5C 58.907,67.22 57.5736,69.22 58.5,72.5C 57.4219,74.9966 55.5885,76.6633 53,77.5C 52.51,76.2068 52.3433,74.8734 52.5,73.5C 49.3181,74.0303 46.3181,75.0303 43.5,76.5C 43.5,75.5 43.5,74.5 43.5,73.5C 40.1379,73.9305 37.3046,72.9305 35,70.5C 34.6667,70.8333 34.3333,71.1667 34,71.5C 32.2028,69.8444 30.0361,68.8444 27.5,68.5C 26.7025,68.0431 26.3691,67.3764 26.5,66.5C 35.0035,60.0795 44.0035,54.4129 53.5,49.5C 54.1667,48.8333 54.8333,48.1667 55.5,47.5 Z"/></g>
<g><path style="opacity:1" fill="#6f7368" d="M 330.5,58.5 C 330.5,58.1667 330.5,57.8333 330.5,57.5C 333.518,57.3354 336.518,57.502 339.5,58C 344.355,60.4534 349.355,62.6201 354.5,64.5C 354.389,65.1174 354.056,65.6174 353.5,66C 348.446,66.781 343.446,66.6143 338.5,65.5C 336.889,66.3202 336.222,67.6536 336.5,69.5C 333.763,69.5987 331.096,69.2653 328.5,68.5C 325.971,66.7345 323.638,64.7345 321.5,62.5C 319.929,61.6906 318.262,61.3573 316.5,61.5C 319.003,60.6295 321.67,59.9628 324.5,59.5C 324.389,60.1174 324.056,60.6174 323.5,61C 325.681,62.8403 328.181,64.0069 331,64.5C 338.221,61.9371 338.055,59.9371 330.5,58.5 Z"/></g>
<g><path style="opacity:1" fill="#5b5f56" d="M 340.5,77.5 C 336.455,74.4401 332.455,71.4401 328.5,68.5C 331.096,69.2653 333.763,69.5987 336.5,69.5C 336.222,67.6536 336.889,66.3202 338.5,65.5C 343.446,66.6143 348.446,66.781 353.5,66C 354.056,65.6174 354.389,65.1174 354.5,64.5C 355.575,63.4376 356.575,63.4376 357.5,64.5C 353.921,68.6235 349.921,72.2901 345.5,75.5C 342.799,73.8414 341.132,74.5081 340.5,77.5 Z"/></g>
<g><path style="opacity:1" fill="#184036" d="M 25.5,66.5 C 25.8333,66.5 26.1667,66.5 26.5,66.5C 26.3691,67.3764 26.7025,68.0431 27.5,68.5C 30.0361,68.8444 32.2028,69.8444 34,71.5C 34.3333,71.1667 34.6667,70.8333 35,70.5C 37.3046,72.9305 40.1379,73.9305 43.5,73.5C 43.5,74.5 43.5,75.5 43.5,76.5C 46.3181,75.0303 49.3181,74.0303 52.5,73.5C 52.3433,74.8734 52.51,76.2068 53,77.5C 55.5885,76.6633 57.4219,74.9966 58.5,72.5C 57.5736,69.22 58.907,67.22 62.5,66.5C 57.3882,80.0583 51.7215,93.3917 45.5,106.5C 43.8506,107.473 42.184,108.473 40.5,109.5C 39.8485,108.909 39.1818,108.243 38.5,107.5C 37.549,108.326 36.549,108.492 35.5,108C 36.6457,105.443 35.6457,104.11 32.5,104C 35.6791,103.82 37.0124,102.154 36.5,99C 34.8402,96.069 34.5069,93.069 35.5,90C 33.4053,86.2328 34.072,82.7328 37.5,79.5C 36.1125,79.1928 34.4458,79.1928 32.5,79.5C 32.2208,75.6624 30.5541,72.4957 27.5,70C 25.5,69.6667 23.5,69.3333 21.5,69C 23.3197,68.7996 24.653,67.9663 25.5,66.5 Z"/></g>
<g><path style="opacity:1" fill="#13352c" d="M 316.5,61.5 C 318.262,61.3573 319.929,61.6906 321.5,62.5C 323.638,64.7345 325.971,66.7345 328.5,68.5C 332.455,71.4401 336.455,74.4401 340.5,77.5C 340.953,78.4584 341.619,79.2917 342.5,80C 340.527,80.4955 338.527,80.6621 336.5,80.5C 334.816,83.2164 333.65,86.2164 333,89.5C 331.387,88.3777 330.22,88.8777 329.5,91C 328.552,91.4828 327.552,91.6495 326.5,91.5C 326.5,90.5 326.5,89.5 326.5,88.5C 322.587,87.4528 318.921,87.4528 315.5,88.5C 315.307,84.551 314.807,84.551 314,88.5C 312.887,81.2252 309.721,75.2252 304.5,70.5C 304.138,67.1134 302.138,65.4467 298.5,65.5C 304.112,63.5172 310.112,62.1839 316.5,61.5 Z"/></g>
<g><path style="opacity:1" fill="#1d4a40" d="M 25.5,66.5 C 24.653,67.9663 23.3197,68.7996 21.5,69C 23.5,69.3333 25.5,69.6667 27.5,70C 30.5541,72.4957 32.2208,75.6624 32.5,79.5C 34.4458,79.1928 36.1125,79.1928 37.5,79.5C 34.072,82.7328 33.4053,86.2328 35.5,90C 34.5069,93.069 34.8402,96.069 36.5,99C 37.0124,102.154 35.6791,103.82 32.5,104C 35.6457,104.11 36.6457,105.443 35.5,108C 36.549,108.492 37.549,108.326 38.5,107.5C 39.1818,108.243 39.8485,108.909 40.5,109.5C 32.0978,115.23 23.4311,120.563 14.5,125.5C 10.5126,128.159 6.84591,131.159 3.5,134.5C 2.53443,132.604 2.2011,130.604 2.5,128.5C 4.57552,110.962 7.57552,93.6289 11.5,76.5C 13.6698,75.1618 15.3365,73.3284 16.5,71C 19.2234,68.9038 22.2234,67.4038 25.5,66.5 Z"/></g>
<g><path style="opacity:1" fill="#194a3f" d="M 302.5,57.5 C 299.5,60.1667 296.5,62.8333 293.5,65.5C 290.327,66.1697 287.327,67.3364 284.5,69C 280.534,73.9675 276.201,78.6342 271.5,83C 252.46,99.7089 233.127,116.042 213.5,132C 210.941,133.777 208.274,135.277 205.5,136.5C 203.123,136.784 200.956,136.784 199,136.5C 198.667,137.5 198.333,138.5 198,139.5C 196.635,137.14 194.635,135.473 192,134.5C 191.316,135.784 191.483,136.951 192.5,138C 192,138.5 191.5,139 191,139.5C 190.751,138.376 190.251,137.376 189.5,136.5C 187.865,137.33 186.198,137.497 184.5,137C 184.833,137.333 185.167,137.667 185.5,138C 184.354,138.645 183.354,139.478 182.5,140.5C 181.808,139.975 181.308,139.308 181,138.5C 178.384,140.386 176.217,142.719 174.5,145.5C 176.585,147.575 178.419,147.575 180,145.5C 180.465,146.931 181.299,148.097 182.5,149C 180.809,150.405 178.976,151.572 177,152.5C 176.517,153.448 176.351,154.448 176.5,155.5C 174.063,155.756 171.729,156.423 169.5,157.5C 168.476,156.147 167.143,155.48 165.5,155.5C 165.5,153.833 165.5,152.167 165.5,150.5C 164.167,150.5 162.833,150.5 161.5,150.5C 161.105,147.477 162.105,146.477 164.5,147.5C 166.473,146.36 168.307,145.027 170,143.5C 170.492,142.451 170.326,141.451 169.5,140.5C 170.983,138.054 172.149,138.388 173,141.5C 173.225,138.143 174.225,134.81 176,131.5C 177.399,130.773 178.899,130.273 180.5,130C 179.346,129.086 179.513,128.253 181,127.5C 182.607,129.815 184.607,130.481 187,129.5C 188.473,129.903 189.806,130.57 191,131.5C 192.333,128.833 193.667,128.833 195,131.5C 196.95,129.971 199.117,128.804 201.5,128C 200.269,126.817 200.269,125.651 201.5,124.5C 201.798,126.67 203.131,128.504 205.5,130C 207.089,131.543 208.423,131.543 209.5,130C 209.087,128.204 209.087,126.537 209.5,125C 207.97,122.803 206.136,121.97 204,122.5C 203.647,121.328 203.813,120.162 204.5,119C 203.728,117.779 202.728,116.779 201.5,116C 203.605,114.807 205.272,113.14 206.5,111C 204.914,108.173 203.248,108.007 201.5,110.5C 199.859,108.231 199.025,105.898 199,103.5C 196.292,105.306 193.459,105.806 190.5,105C 193.791,107.329 193.791,109.996 190.5,113C 187.443,113.554 185.276,112.387 184,109.5C 181.931,110.264 179.764,110.764 177.5,111C 176.598,113.202 175.598,115.368 174.5,117.5C 173.719,116.263 172.719,115.263 171.5,114.5C 170.792,117.366 170.125,120.2 169.5,123C 170.308,123.308 170.975,123.808 171.5,124.5C 170.289,125.72 170.289,126.887 171.5,128C 169.963,129.11 169.297,130.61 169.5,132.5C 166.566,131.712 163.566,131.046 160.5,130.5C 158.571,130.54 156.738,130.873 155,131.5C 156.231,133.734 156.898,136.068 157,138.5C 159.255,139.042 161.088,140.209 162.5,142C 159.067,143.543 156.567,142.377 155,138.5C 154.333,139.833 153.333,140.833 152,141.5C 148.214,137.908 145.048,133.908 142.5,129.5C 145.815,127.709 147.982,125.376 149,122.5C 149.497,119.854 149.664,117.187 149.5,114.5C 150.873,114.343 152.207,114.51 153.5,115C 152.978,115.561 152.645,116.228 152.5,117C 152.998,129.491 154.498,129.658 157,117.5C 157.497,115.19 157.663,112.857 157.5,110.5C 158.5,110.5 159.5,110.5 160.5,110.5C 160.085,106.639 159.085,102.973 157.5,99.5C 161.158,99.6759 162.158,98.1759 160.5,95C 161.096,92.7752 161.763,90.6085 162.5,88.5C 164.229,89.1175 165.729,90.1175 167,91.5C 168.731,95.8477 171.731,98.8477 176,100.5C 178.175,100.166 180.008,99.1661 181.5,97.5C 182.167,98.1667 182.833,98.8333 183.5,99.5C 184.304,96.5596 185.637,93.8929 187.5,91.5C 190.428,90.5159 193.428,90.1826 196.5,90.5C 197.658,98.9537 199.491,99.287 202,91.5C 202.667,92.8333 203.333,92.8333 204,91.5C 205.173,88.4891 207.006,85.9891 209.5,84C 208.341,80.8436 206.841,80.6769 205,83.5C 202.909,82.7437 201.076,81.577 199.5,80C 201.824,78.8378 204.158,77.6711 206.5,76.5C 208.773,72.3913 211.94,69.0579 216,66.5C 216.333,67.1667 216.667,67.8333 217,68.5C 218.494,67.2528 219.994,67.2528 221.5,68.5C 221.919,69.6721 222.585,70.6721 223.5,71.5C 225.35,70.7582 226.016,69.7582 225.5,68.5C 228.433,69.7709 231.099,71.4376 233.5,73.5C 233.833,73.3333 234.167,73.1667 234.5,73C 231.143,67.4973 232.81,65.3306 239.5,66.5C 239.67,65.1779 239.337,64.0113 238.5,63C 239.191,61.9326 239.691,60.7659 240,59.5C 241,60.5 242,61.5 243,62.5C 244.827,59.0373 244.327,56.3706 241.5,54.5C 239.01,54.0892 236.676,54.5892 234.5,56C 233.833,55.3333 233.167,54.6667 232.5,54C 233.833,53 233.833,52 232.5,51C 234.112,50.2797 235.612,50.4464 237,51.5C 242.183,45.553 248.517,42.553 256,42.5C 258.151,39.888 258.985,39.888 258.5,42.5C 260.833,45.1667 263.167,45.1667 265.5,42.5C 266.192,43.0253 266.692,43.6919 267,44.5C 269.208,43.5547 271.708,43.5547 274.5,44.5C 275.478,44.0233 276.311,43.3567 277,42.5C 278.418,45.001 279.418,44.6677 280,41.5C 280.219,42.938 280.719,44.2713 281.5,45.5C 282.086,45.2907 282.586,44.9574 283,44.5C 284.779,46.0174 284.279,46.8508 281.5,47C 282.471,48.2036 283.471,48.7036 284.5,48.5C 281.924,49.8834 282.258,50.7167 285.5,51C 284.643,51.6891 283.977,52.5224 283.5,53.5C 284.222,56.8893 286.222,58.8893 289.5,59.5C 289.643,55.6105 291.476,54.6105 295,56.5C 295.945,56.0946 296.612,55.428 297,54.5C 298.425,55.2123 299.925,55.379 301.5,55C 302.252,55.6708 302.586,56.5041 302.5,57.5 Z"/></g>
<g><path style="opacity:1" fill="#144138" d="M 148.5,60.5 C 154.022,65.189 158.356,70.8556 161.5,77.5C 162.301,79.0418 162.634,80.7085 162.5,82.5C 161.725,84.3881 161.725,86.3881 162.5,88.5C 161.763,90.6085 161.096,92.7752 160.5,95C 162.158,98.1759 161.158,99.6759 157.5,99.5C 159.085,102.973 160.085,106.639 160.5,110.5C 159.5,110.5 158.5,110.5 157.5,110.5C 157.663,112.857 157.497,115.19 157,117.5C 154.498,129.658 152.998,129.491 152.5,117C 152.645,116.228 152.978,115.561 153.5,115C 152.207,114.51 150.873,114.343 149.5,114.5C 149.664,117.187 149.497,119.854 149,122.5C 147.982,125.376 145.815,127.709 142.5,129.5C 141.631,127.283 141.298,124.95 141.5,122.5C 141.98,119.834 142.98,117.334 144.5,115C 144.167,114.667 143.833,114.333 143.5,114C 144.5,113.667 145.5,113.333 146.5,113C 143.833,112 143.833,111 146.5,110C 144.475,108.806 144.141,107.306 145.5,105.5C 145.174,102.342 144.174,99.5082 142.5,97C 143.833,96 143.833,95 142.5,94C 143.448,93.5172 144.448,93.3505 145.5,93.5C 145.649,92.448 145.483,91.448 145,90.5C 144.107,91.7112 143.274,91.7112 142.5,90.5C 143.098,89.2054 143.598,87.8721 144,86.5C 145.153,88.497 146.653,88.8304 148.5,87.5C 147.675,86.6143 146.675,86.281 145.5,86.5C 145.52,84.857 144.853,83.5237 143.5,82.5C 145.183,81.1466 146.516,79.4799 147.5,77.5C 147.136,75.2674 146.136,73.434 144.5,72C 147.287,68.8962 147.954,65.3962 146.5,61.5C 146.957,60.7025 147.624,60.3691 148.5,60.5 Z"/></g>
<g><path style="opacity:1" fill="#164137" d="M 340.5,77.5 C 343.373,79.5541 346.039,81.8875 348.5,84.5C 347.409,88.2186 347.409,92.2186 348.5,96.5C 347.5,96.5 346.5,96.5 345.5,96.5C 344.829,110.154 344.329,123.821 344,137.5C 341.741,143.059 339.908,148.725 338.5,154.5C 337.167,153.5 335.833,152.5 334.5,151.5C 332.353,146.874 333.353,143.207 337.5,140.5C 338.812,141.46 340.146,141.294 341.5,140C 341.167,139.667 340.833,139.333 340.5,139C 341.428,138.612 342.095,137.945 342.5,137C 341.125,134.685 340.125,132.185 339.5,129.5C 339.977,128.522 340.643,127.689 341.5,127C 341.5,124.333 341.5,121.667 341.5,119C 340.833,117.667 340.167,116.333 339.5,115C 338.258,114.689 337.258,115.189 336.5,116.5C 335.808,115.975 335.308,115.308 335,114.5C 334.615,119.221 334.281,123.888 334,128.5C 332.108,127.383 331.275,125.716 331.5,123.5C 330.178,123.67 329.011,123.337 328,122.5C 326.187,119.567 324.52,116.567 323,113.5C 322.313,111.432 322.48,109.432 323.5,107.5C 321.379,104.837 320.713,102.004 321.5,99C 319.038,95.8001 317.038,92.3001 315.5,88.5C 318.921,87.4528 322.587,87.4528 326.5,88.5C 326.5,89.5 326.5,90.5 326.5,91.5C 327.552,91.6495 328.552,91.4828 329.5,91C 330.22,88.8777 331.387,88.3777 333,89.5C 333.65,86.2164 334.816,83.2164 336.5,80.5C 338.527,80.6621 340.527,80.4955 342.5,80C 341.619,79.2917 340.953,78.4584 340.5,77.5 Z"/></g>
<g><path style="opacity:1" fill="#23584c" d="M 348.5,84.5 C 350.017,84.5106 351.184,85.1772 352,86.5C 354.157,88.8171 355.657,91.4838 356.5,94.5C 355.887,102.516 355.054,110.516 354,118.5C 353.333,119.833 352.667,119.833 352,118.5C 352.207,127.115 350.873,135.449 348,143.5C 346.757,142.664 345.59,142.997 344.5,144.5C 346.27,145.707 347.27,147.374 347.5,149.5C 346.239,153.067 345.405,156.734 345,160.5C 342.993,159.331 340.827,158.665 338.5,158.5C 338.5,157.167 338.5,155.833 338.5,154.5C 339.908,148.725 341.741,143.059 344,137.5C 344.329,123.821 344.829,110.154 345.5,96.5C 346.5,96.5 347.5,96.5 348.5,96.5C 347.409,92.2186 347.409,88.2186 348.5,84.5 Z"/></g>
<g><path style="opacity:1" fill="#1c4d44" d="M 141.5,122.5 C 141.298,124.95 141.631,127.283 142.5,129.5C 145.048,133.908 148.214,137.908 152,141.5C 153.333,140.833 154.333,139.833 155,138.5C 156.567,142.377 159.067,143.543 162.5,142C 161.088,140.209 159.255,139.042 157,138.5C 156.898,136.068 156.231,133.734 155,131.5C 156.738,130.873 158.571,130.54 160.5,130.5C 163.566,131.046 166.566,131.712 169.5,132.5C 169.297,130.61 169.963,129.11 171.5,128C 170.289,126.887 170.289,125.72 171.5,124.5C 170.975,123.808 170.308,123.308 169.5,123C 170.125,120.2 170.792,117.366 171.5,114.5C 172.719,115.263 173.719,116.263 174.5,117.5C 175.598,115.368 176.598,113.202 177.5,111C 179.764,110.764 181.931,110.264 184,109.5C 185.276,112.387 187.443,113.554 190.5,113C 193.791,109.996 193.791,107.329 190.5,105C 193.459,105.806 196.292,105.306 199,103.5C 199.025,105.898 199.859,108.231 201.5,110.5C 203.248,108.007 204.914,108.173 206.5,111C 205.272,113.14 203.605,114.807 201.5,116C 202.728,116.779 203.728,117.779 204.5,119C 203.813,120.162 203.647,121.328 204,122.5C 206.136,121.97 207.97,122.803 209.5,125C 209.087,126.537 209.087,128.204 209.5,130C 208.423,131.543 207.089,131.543 205.5,130C 203.131,128.504 201.798,126.67 201.5,124.5C 200.269,125.651 200.269,126.817 201.5,128C 199.117,128.804 196.95,129.971 195,131.5C 193.667,128.833 192.333,128.833 191,131.5C 189.806,130.57 188.473,129.903 187,129.5C 184.607,130.481 182.607,129.815 181,127.5C 179.513,128.253 179.346,129.086 180.5,130C 178.899,130.273 177.399,130.773 176,131.5C 174.225,134.81 173.225,138.143 173,141.5C 172.149,138.388 170.983,138.054 169.5,140.5C 170.326,141.451 170.492,142.451 170,143.5C 168.307,145.027 166.473,146.36 164.5,147.5C 162.105,146.477 161.105,147.477 161.5,150.5C 162.833,150.5 164.167,150.5 165.5,150.5C 165.5,152.167 165.5,153.833 165.5,155.5C 167.143,155.48 168.476,156.147 169.5,157.5C 171.729,156.423 174.063,155.756 176.5,155.5C 176.351,154.448 176.517,153.448 177,152.5C 178.976,151.572 180.809,150.405 182.5,149C 181.299,148.097 180.465,146.931 180,145.5C 178.419,147.575 176.585,147.575 174.5,145.5C 176.217,142.719 178.384,140.386 181,138.5C 181.308,139.308 181.808,139.975 182.5,140.5C 183.354,139.478 184.354,138.645 185.5,138C 185.167,137.667 184.833,137.333 184.5,137C 186.198,137.497 187.865,137.33 189.5,136.5C 190.251,137.376 190.751,138.376 191,139.5C 191.5,139 192,138.5 192.5,138C 191.483,136.951 191.316,135.784 192,134.5C 194.635,135.473 196.635,137.14 198,139.5C 198.333,138.5 198.667,137.5 199,136.5C 200.956,136.784 203.123,136.784 205.5,136.5C 195.9,143.311 186.233,150.145 176.5,157C 172.563,157.918 168.73,159.085 165,160.5C 157.998,152 150.831,143.666 143.5,135.5C 143.649,134.448 143.483,133.448 143,132.5C 141.265,129.638 139.098,127.304 136.5,125.5C 131.114,118.108 126.114,110.442 121.5,102.5C 122.675,102.719 123.675,102.386 124.5,101.5C 123.56,98.9477 124.56,98.1144 127.5,99C 130.471,102.016 132.471,105.183 133.5,108.5C 135.87,106.312 136.537,103.812 135.5,101C 137.134,100.506 138.801,100.34 140.5,100.5C 140.511,102.547 140.844,104.547 141.5,106.5C 141.471,108.029 140.804,109.196 139.5,110C 140.308,110.308 140.975,110.808 141.5,111.5C 141.22,115.047 141.22,118.713 141.5,122.5 Z"/></g>
<g><path style="opacity:1" fill="#1d3c35" d="M 304.5,70.5 C 309.721,75.2252 312.887,81.2252 314,88.5C 314.807,84.551 315.307,84.551 315.5,88.5C 317.038,92.3001 319.038,95.8001 321.5,99C 320.713,102.004 321.379,104.837 323.5,107.5C 322.48,109.432 322.313,111.432 323,113.5C 324.52,116.567 326.187,119.567 328,122.5C 329.011,123.337 330.178,123.67 331.5,123.5C 331.275,125.716 332.108,127.383 334,128.5C 334.281,123.888 334.615,119.221 335,114.5C 335.308,115.308 335.808,115.975 336.5,116.5C 337.258,115.189 338.258,114.689 339.5,115C 340.167,116.333 340.833,117.667 341.5,119C 341.5,121.667 341.5,124.333 341.5,127C 340.643,127.689 339.977,128.522 339.5,129.5C 340.125,132.185 341.125,134.685 342.5,137C 342.095,137.945 341.428,138.612 340.5,139C 340.833,139.333 341.167,139.667 341.5,140C 340.146,141.294 338.812,141.46 337.5,140.5C 333.353,143.207 332.353,146.874 334.5,151.5C 333.833,152.833 333.167,154.167 332.5,155.5C 332.167,155.5 331.833,155.5 331.5,155.5C 331.5,154.833 331.5,154.167 331.5,153.5C 330.478,149.223 329.645,144.889 329,140.5C 327.151,137.656 325.318,134.823 323.5,132C 324.98,127.895 324.646,124.062 322.5,120.5C 322.165,115.823 321.665,111.156 321,106.5C 314.244,95.0605 308.744,83.0605 304.5,70.5 Z"/></g>
<g><path style="opacity:1" fill="#676861" d="M 45.5,106.5 C 44.1474,109.137 43.4808,111.97 43.5,115C 44.3465,119.196 45.3465,123.363 46.5,127.5C 45.3473,128.313 45.3473,129.313 46.5,130.5C 45.3493,131.731 44.1827,131.731 43,130.5C 41.1601,132.454 40.3268,134.454 40.5,136.5C 36.8099,135.806 33.1432,134.972 29.5,134C 24.4102,131.127 19.4102,128.294 14.5,125.5C 23.4311,120.563 32.0978,115.23 40.5,109.5C 42.184,108.473 43.8506,107.473 45.5,106.5 Z"/></g>
<g><path style="opacity:1" fill="#78857e" d="M 136.5,125.5 C 139.098,127.304 141.265,129.638 143,132.5C 143.483,133.448 143.649,134.448 143.5,135.5C 140.421,132.743 138.088,129.41 136.5,125.5 Z"/></g>
<g><path style="opacity:1" fill="#464b46" d="M 322.5,120.5 C 324.646,124.062 324.98,127.895 323.5,132C 325.318,134.823 327.151,137.656 329,140.5C 329.645,144.889 330.478,149.223 331.5,153.5C 329.683,152.184 328.017,150.684 326.5,149C 324.933,142.852 323.6,136.686 322.5,130.5C 322.5,127.167 322.5,123.833 322.5,120.5 Z"/></g>
<g><path style="opacity:1" fill="#686a64" d="M 322.5,130.5 C 323.6,136.686 324.933,142.852 326.5,149C 328.017,150.684 329.683,152.184 331.5,153.5C 331.5,154.167 331.5,154.833 331.5,155.5C 329.522,153.741 327.356,152.075 325,150.5C 324.517,149.552 324.351,148.552 324.5,147.5C 322.459,147.146 320.626,147.146 319,147.5C 318.51,146.207 318.343,144.873 318.5,143.5C 319.078,138.835 320.411,134.501 322.5,130.5 Z"/></g>
<g><path style="opacity:1" fill="#363833" d="M 9.5,142.5 C 9.66463,145.518 9.49796,148.518 9,151.5C 7.93257,150.809 6.76591,150.309 5.5,150C 6.25244,149.329 6.58577,148.496 6.5,147.5C 7.79381,143.345 7.79381,139.178 6.5,135C 6.83333,134.5 7.16667,134 7.5,133.5C 8.67806,136.391 9.34473,139.391 9.5,142.5 Z"/></g>
<g><path style="opacity:1" fill="#49534d" d="M 1.5,135.5 C 3.33501,136.122 4.50167,137.456 5,139.5C 5.1829,142.365 5.6829,145.031 6.5,147.5C 6.58577,148.496 6.25244,149.329 5.5,150C 6.76591,150.309 7.93257,150.809 9,151.5C 9.49796,148.518 9.66463,145.518 9.5,142.5C 10.236,145.695 10.9027,149.029 11.5,152.5C 10.2839,153.096 8.95057,153.263 7.5,153C 12.0504,155.871 13.7171,159.704 12.5,164.5C 10.1923,160.205 7.52559,156.205 4.5,152.5C 2.66794,147.017 1.66794,141.351 1.5,135.5 Z"/></g>
<g><path style="opacity:1" fill="#888980" d="M 14.5,125.5 C 19.4102,128.294 24.4102,131.127 29.5,134C 33.1432,134.972 36.8099,135.806 40.5,136.5C 40.3268,134.454 41.1601,132.454 43,130.5C 44.1827,131.731 45.3493,131.731 46.5,130.5C 45.3473,129.313 45.3473,128.313 46.5,127.5C 47.793,128.842 48.6264,130.509 49,132.5C 51.3633,143.816 53.53,155.149 55.5,166.5C 51.1815,173.798 46.8481,181.131 42.5,188.5C 37.7314,190.249 35.3981,193.582 35.5,198.5C 34.5139,195.507 33.5139,192.507 32.5,189.5C 34.9892,189.702 37.3225,189.202 39.5,188C 41.2551,185.07 42.4217,181.903 43,178.5C 44.7173,179.388 45.884,178.721 46.5,176.5C 45.9112,173.978 45.2446,171.478 44.5,169C 45.2718,167.779 46.2718,166.779 47.5,166C 46.2068,165.51 44.8734,165.343 43.5,165.5C 43.5,164.5 43.5,163.5 43.5,162.5C 39.8997,161.68 37.8997,159.347 37.5,155.5C 35.0901,155.079 33.2568,153.746 32,151.5C 30.7452,144.819 26.7452,139.819 20,136.5C 19.6892,134.444 19.1892,132.444 18.5,130.5C 15.0881,127.631 12.4215,128.297 10.5,132.5C 10.9819,139.397 11.8152,146.397 13,153.5C 13.7311,155.899 14.8978,158.065 16.5,160C 15.2815,161.438 14.6148,163.105 14.5,165C 15.4033,167.029 15.4033,168.863 14.5,170.5C 14.0293,168.421 13.3627,166.421 12.5,164.5C 13.7171,159.704 12.0504,155.871 7.5,153C 8.95057,153.263 10.2839,153.096 11.5,152.5C 10.9027,149.029 10.236,145.695 9.5,142.5C 9.34473,139.391 8.67806,136.391 7.5,133.5C 7.16667,134 6.83333,134.5 6.5,135C 7.79381,139.178 7.79381,143.345 6.5,147.5C 5.6829,145.031 5.1829,142.365 5,139.5C 4.50167,137.456 3.33501,136.122 1.5,135.5C 1.19845,132.941 1.53178,130.607 2.5,128.5C 2.2011,130.604 2.53443,132.604 3.5,134.5C 6.84591,131.159 10.5126,128.159 14.5,125.5 Z"/></g>
<g><path style="opacity:1" fill="#777f7c" d="M 354.5,127.5 C 354.667,138.505 354.5,149.505 354,160.5C 353.722,161.416 353.222,162.082 352.5,162.5C 353.35,155.201 353.683,147.868 353.5,140.5C 351.995,135.917 352.328,131.584 354.5,127.5 Z"/></g>
<g><path style="opacity:1" fill="#818279" d="M 318.5,143.5 C 318.343,144.873 318.51,146.207 319,147.5C 320.626,147.146 322.459,147.146 324.5,147.5C 324.351,148.552 324.517,149.552 325,150.5C 327.356,152.075 329.522,153.741 331.5,155.5C 331.833,155.5 332.167,155.5 332.5,155.5C 334.187,156.918 336.02,158.251 338,159.5C 339.399,162.629 341.065,165.629 343,168.5C 343.659,171.888 343.492,175.221 342.5,178.5C 341.859,179.482 341.193,180.482 340.5,181.5C 341.485,183.098 341.651,184.765 341,186.5C 338.536,190.434 336.369,194.434 334.5,198.5C 335.359,189.752 337.359,181.252 340.5,173C 339.956,171.415 339.289,169.915 338.5,168.5C 337.833,167.167 336.833,166.167 335.5,165.5C 334.191,162.222 332.358,159.222 330,156.5C 329.667,158.5 329.333,160.5 329,162.5C 328.586,162.043 328.086,161.709 327.5,161.5C 327.728,158.891 327.395,156.224 326.5,153.5C 320.256,152.722 317.589,155.222 318.5,161C 317.552,161.483 316.552,161.649 315.5,161.5C 315.575,165.981 314.908,170.314 313.5,174.5C 311.463,176.53 309.13,178.196 306.5,179.5C 305.893,179.376 305.56,179.043 305.5,178.5C 310.708,167.098 315.041,155.432 318.5,143.5 Z"/></g>
<g><path style="opacity:1" fill="#395f54" d="M 356.5,94.5 C 356.833,94.5 357.167,94.5 357.5,94.5C 357.666,103.839 357.5,113.173 357,122.5C 355.88,124.03 355.046,125.697 354.5,127.5C 352.328,131.584 351.995,135.917 353.5,140.5C 352.322,145.525 350.822,150.525 349,155.5C 348.473,164.467 346.806,173.134 344,181.5C 343.768,180.263 343.268,179.263 342.5,178.5C 343.492,175.221 343.659,171.888 343,168.5C 341.065,165.629 339.399,162.629 338,159.5C 336.02,158.251 334.187,156.918 332.5,155.5C 333.167,154.167 333.833,152.833 334.5,151.5C 335.833,152.5 337.167,153.5 338.5,154.5C 338.5,155.833 338.5,157.167 338.5,158.5C 340.827,158.665 342.993,159.331 345,160.5C 345.405,156.734 346.239,153.067 347.5,149.5C 347.27,147.374 346.27,145.707 344.5,144.5C 345.59,142.997 346.757,142.664 348,143.5C 350.873,135.449 352.207,127.115 352,118.5C 352.667,119.833 353.333,119.833 354,118.5C 355.054,110.516 355.887,102.516 356.5,94.5 Z"/></g>
<g><path style="opacity:1" fill="#9b9a90" d="M 335.5,165.5 C 334.542,165.047 333.708,164.381 333,163.5C 333.594,165.509 333.427,167.509 332.5,169.5C 326.191,171.327 319.858,172.994 313.5,174.5C 314.908,170.314 315.575,165.981 315.5,161.5C 316.552,161.649 317.552,161.483 318.5,161C 317.589,155.222 320.256,152.722 326.5,153.5C 327.395,156.224 327.728,158.891 327.5,161.5C 328.086,161.709 328.586,162.043 329,162.5C 329.333,160.5 329.667,158.5 330,156.5C 332.358,159.222 334.191,162.222 335.5,165.5 Z"/></g>
<g><path style="opacity:1" fill="#9d9d94" d="M 35.5,198.5 C 33.5619,202.982 32.2286,207.649 31.5,212.5C 23.638,199.435 17.9714,185.435 14.5,170.5C 15.4033,168.863 15.4033,167.029 14.5,165C 14.6148,163.105 15.2815,161.438 16.5,160C 14.8978,158.065 13.7311,155.899 13,153.5C 11.8152,146.397 10.9819,139.397 10.5,132.5C 12.4215,128.297 15.0881,127.631 18.5,130.5C 19.1892,132.444 19.6892,134.444 20,136.5C 26.7452,139.819 30.7452,144.819 32,151.5C 33.2568,153.746 35.0901,155.079 37.5,155.5C 37.8997,159.347 39.8997,161.68 43.5,162.5C 43.5,163.5 43.5,164.5 43.5,165.5C 44.8734,165.343 46.2068,165.51 47.5,166C 46.2718,166.779 45.2718,167.779 44.5,169C 45.2446,171.478 45.9112,173.978 46.5,176.5C 45.884,178.721 44.7173,179.388 43,178.5C 42.4217,181.903 41.2551,185.07 39.5,188C 37.3225,189.202 34.9892,189.702 32.5,189.5C 33.5139,192.507 34.5139,195.507 35.5,198.5 Z"/></g>
<g><path style="opacity:1" fill="#a3a59a" d="M 335.5,165.5 C 336.833,166.167 337.833,167.167 338.5,168.5C 337.417,168.539 336.417,168.873 335.5,169.5C 334.534,171.396 334.201,173.396 334.5,175.5C 331.135,175.255 327.968,175.922 325,177.5C 324.5,177.333 324,177.167 323.5,177C 324.328,176.085 325.328,175.419 326.5,175C 323.788,174.262 321.455,174.929 319.5,177C 320.728,177.779 321.728,178.779 322.5,180C 320.826,181.856 319.826,184.023 319.5,186.5C 320.346,190.118 320.68,193.785 320.5,197.5C 319.5,197.5 318.5,197.5 317.5,197.5C 317.809,201.343 316.309,202.676 313,201.5C 311.956,202.623 311.29,203.956 311,205.5C 310.71,203.956 310.044,202.623 309,201.5C 308.581,203.68 308.748,205.846 309.5,208C 309.406,210.954 308.906,211.121 308,208.5C 307.833,209.167 307.667,209.833 307.5,210.5C 308.744,213.856 308.744,217.189 307.5,220.5C 309.622,226.696 311.122,233.029 312,239.5C 313.275,235.529 314.609,231.529 316,227.5C 317.011,226.663 318.178,226.33 319.5,226.5C 319.263,222.727 319.763,219.06 321,215.5C 323.159,217.956 323.992,217.29 323.5,213.5C 325.322,213.169 326.989,212.502 328.5,211.5C 325.63,217.458 322.963,223.458 320.5,229.5C 319.403,232.686 318.07,235.686 316.5,238.5C 313.694,243.437 310.861,248.437 308,253.5C 307.292,254.381 306.458,255.047 305.5,255.5C 306.038,253.883 306.371,252.216 306.5,250.5C 306.666,240.828 306.5,231.161 306,221.5C 304.691,217.746 303.525,214.079 302.5,210.5C 301.727,202.134 300.393,194.134 298.5,186.5C 300.862,183.808 303.196,181.141 305.5,178.5C 305.56,179.043 305.893,179.376 306.5,179.5C 309.13,178.196 311.463,176.53 313.5,174.5C 319.858,172.994 326.191,171.327 332.5,169.5C 333.427,167.509 333.594,165.509 333,163.5C 333.708,164.381 334.542,165.047 335.5,165.5 Z"/></g>
<g><path style="opacity:1" fill="#b0aea0" d="M 338.5,168.5 C 339.289,169.915 339.956,171.415 340.5,173C 337.359,181.252 335.359,189.752 334.5,198.5C 333.513,200.473 332.513,202.473 331.5,204.5C 331.624,205.107 331.957,205.44 332.5,205.5C 332.672,206.492 332.338,207.158 331.5,207.5C 330.185,207.888 329.185,209.222 328.5,211.5C 326.989,212.502 325.322,213.169 323.5,213.5C 323.992,217.29 323.159,217.956 321,215.5C 319.763,219.06 319.263,222.727 319.5,226.5C 318.178,226.33 317.011,226.663 316,227.5C 314.609,231.529 313.275,235.529 312,239.5C 311.122,233.029 309.622,226.696 307.5,220.5C 308.744,217.189 308.744,213.856 307.5,210.5C 307.667,209.833 307.833,209.167 308,208.5C 308.906,211.121 309.406,210.954 309.5,208C 308.748,205.846 308.581,203.68 309,201.5C 310.044,202.623 310.71,203.956 311,205.5C 311.29,203.956 311.956,202.623 313,201.5C 316.309,202.676 317.809,201.343 317.5,197.5C 318.5,197.5 319.5,197.5 320.5,197.5C 320.68,193.785 320.346,190.118 319.5,186.5C 319.826,184.023 320.826,181.856 322.5,180C 321.728,178.779 320.728,177.779 319.5,177C 321.455,174.929 323.788,174.262 326.5,175C 325.328,175.419 324.328,176.085 323.5,177C 324,177.167 324.5,177.333 325,177.5C 327.968,175.922 331.135,175.255 334.5,175.5C 334.201,173.396 334.534,171.396 335.5,169.5C 336.417,168.873 337.417,168.539 338.5,168.5 Z"/></g>
<g><path style="opacity:1" fill="#7a7b7b" d="M 348.5,172.5 C 348.666,178.509 348.499,184.509 348,190.5C 346.296,192.373 344.463,194.04 342.5,195.5C 342.559,192.269 344.059,189.935 347,188.5C 347.173,182.984 347.673,177.651 348.5,172.5 Z"/></g>
<g><path style="opacity:1" fill="#535754" d="M 353.5,140.5 C 353.683,147.868 353.35,155.201 352.5,162.5C 350.625,165.588 349.292,168.922 348.5,172.5C 347.673,177.651 347.173,182.984 347,188.5C 344.059,189.935 342.559,192.269 342.5,195.5C 338.888,198.446 335.554,201.779 332.5,205.5C 331.957,205.44 331.624,205.107 331.5,204.5C 332.513,202.473 333.513,200.473 334.5,198.5C 336.369,194.434 338.536,190.434 341,186.5C 341.651,184.765 341.485,183.098 340.5,181.5C 341.193,180.482 341.859,179.482 342.5,178.5C 343.268,179.263 343.768,180.263 344,181.5C 346.806,173.134 348.473,164.467 349,155.5C 350.822,150.525 352.322,145.525 353.5,140.5 Z"/></g>
<g><path style="opacity:1" fill="#215c4f" d="M 39.5,203.5 C 42.4171,206.353 45.2504,210.02 48,214.5C 47.8047,216.126 47.8047,217.793 48,219.5C 49.3431,218.786 50.6764,219.12 52,220.5C 52.4922,221.549 52.3256,222.549 51.5,223.5C 57.8221,228.15 61.8221,234.317 63.5,242C 62.2004,243.579 62.5337,244.745 64.5,245.5C 66.1333,249.091 65.6333,252.424 63,255.5C 61.8455,254.257 60.5122,253.257 59,252.5C 59.4229,254.387 59.2563,256.387 58.5,258.5C 57.1667,258.5 55.8333,258.5 54.5,258.5C 54.719,259.675 54.3857,260.675 53.5,261.5C 51.359,255.268 49.6923,248.935 48.5,242.5C 47.1667,242.5 45.8333,242.5 44.5,242.5C 44.6633,240.143 44.4966,237.81 44,235.5C 41.7018,229.08 39.2018,223.413 36.5,218.5C 37.7736,216.007 37.4403,213.674 35.5,211.5C 36.325,210.614 37.325,210.281 38.5,210.5C 38.67,209.178 38.3366,208.011 37.5,207C 38.0848,205.698 38.7515,204.531 39.5,203.5 Z"/></g>
<g><path style="opacity:1" fill="#585854" d="M 331.5,207.5 C 331.665,211.182 331.499,214.848 331,218.5C 326.593,221.404 323.093,225.071 320.5,229.5C 322.963,223.458 325.63,217.458 328.5,211.5C 329.185,209.222 330.185,207.888 331.5,207.5 Z"/></g>
<g><path style="opacity:1" fill="#235046" d="M 55.5,166.5 C 59.3422,188.232 64.6755,209.565 71.5,230.5C 71.6054,234.548 71.2721,238.548 70.5,242.5C 69.5,242.5 68.5,242.5 67.5,242.5C 67.6495,243.552 67.4828,244.552 67,245.5C 66.0228,244.226 65.1894,244.226 64.5,245.5C 62.5337,244.745 62.2004,243.579 63.5,242C 61.8221,234.317 57.8221,228.15 51.5,223.5C 52.3256,222.549 52.4922,221.549 52,220.5C 50.6764,219.12 49.3431,218.786 48,219.5C 47.8047,217.793 47.8047,216.126 48,214.5C 45.2504,210.02 42.4171,206.353 39.5,203.5C 37.563,200.501 37.063,197.167 38,193.5C 40.2003,192.349 41.7003,190.682 42.5,188.5C 46.8481,181.131 51.1815,173.798 55.5,166.5 Z"/></g>
<g><path style="opacity:1" fill="#d6dfdc" d="M 4.5,152.5 C 7.52559,156.205 10.1923,160.205 12.5,164.5C 13.3627,166.421 14.0293,168.421 14.5,170.5C 17.9714,185.435 23.638,199.435 31.5,212.5C 41.1665,237.166 50.8331,261.833 60.5,286.5C 63.0483,290.93 65.0483,295.597 66.5,300.5C 75.3515,317.042 84.0182,333.709 92.5,350.5C 95.7754,357.384 98.7754,364.384 101.5,371.5C 107.138,384.113 113.805,396.113 121.5,407.5C 120.99,410.674 119.323,413.008 116.5,414.5C 116.48,412.857 117.147,411.524 118.5,410.5C 110.926,398.018 104.426,385.018 99,371.5C 82.2065,340.581 67.0398,308.914 53.5,276.5C 54.1413,273.439 53.1413,270.773 50.5,268.5C 41.3549,243.215 30.8549,218.548 19,194.5C 15.9513,180.559 10.7846,167.392 3.5,155C 4.25244,154.329 4.58577,153.496 4.5,152.5 Z"/></g>
<g><path style="opacity:1" fill="#235a4e" d="M 292.5,215.5 C 292.703,217.638 293.703,219.305 295.5,220.5C 294.787,222.776 294.287,225.109 294,227.5C 290.153,229.632 289.986,231.298 293.5,232.5C 293.578,235.252 293.745,237.918 294,240.5C 292.983,238.624 292.149,236.624 291.5,234.5C 289.49,236.171 287.157,236.838 284.5,236.5C 284.626,238.2 285.293,239.7 286.5,241C 285.898,242.563 285.065,242.396 284,240.5C 283.5,241 283,241.5 282.5,242C 282.721,243.799 283.054,245.632 283.5,247.5C 282.092,248.243 280.759,249.077 279.5,250C 279.833,250.333 280.167,250.667 280.5,251C 279.076,253.101 277.742,255.267 276.5,257.5C 277.55,259.102 276.883,259.935 274.5,260C 275.38,261.356 275.714,262.856 275.5,264.5C 276.675,264.281 277.675,264.614 278.5,265.5C 278.062,266.506 277.396,266.506 276.5,265.5C 275.056,268.055 273.889,270.721 273,273.5C 272.125,272.127 271.625,270.627 271.5,269C 272.563,267.213 273.063,265.379 273,263.5C 270.384,266.052 267.384,268.052 264,269.5C 263.333,270.167 263.333,270.833 264,271.5C 265.667,271.5 267.333,271.5 269,271.5C 269.309,272.766 269.809,273.933 270.5,275C 269.027,275.71 268.36,276.876 268.5,278.5C 265.654,278.191 264.154,276.525 264,273.5C 262.989,274.337 261.822,274.67 260.5,274.5C 263.047,283.857 265.547,293.191 268,302.5C 269.818,300.084 271.152,297.418 272,294.5C 273.745,296.089 274.912,298.089 275.5,300.5C 277.682,298.266 278.015,295.766 276.5,293C 281.287,288.869 284.453,283.702 286,277.5C 286.333,278.167 286.667,278.833 287,279.5C 288.074,278.382 289.24,277.382 290.5,276.5C 294.843,270.003 298.343,263.003 301,255.5C 302.412,253.314 304.245,251.648 306.5,250.5C 306.371,252.216 306.038,253.883 305.5,255.5C 302.374,262.416 298.707,269.082 294.5,275.5C 286.878,288.442 278.544,300.775 269.5,312.5C 268.817,312.137 268.15,311.804 267.5,311.5C 265.494,302.81 263.494,294.143 261.5,285.5C 259.225,280.455 258.225,275.121 258.5,269.5C 258.18,266.102 258.513,262.768 259.5,259.5C 261.343,257.338 263.01,255.004 264.5,252.5C 265.154,250.885 265.654,249.218 266,247.5C 266.667,250.167 267.333,250.167 268,247.5C 268.333,247.833 268.667,248.167 269,248.5C 269.689,247.643 270.522,246.977 271.5,246.5C 272.286,244.17 273.286,241.503 274.5,238.5C 276.762,237.655 277.429,236.322 276.5,234.5C 277.82,232.73 279.32,232.397 281,233.5C 282.773,231.253 284.606,229.086 286.5,227C 286.043,226.586 285.709,226.086 285.5,225.5C 286.805,222.567 287.805,219.567 288.5,216.5C 289.959,216.567 291.292,216.234 292.5,215.5 Z"/></g>
<g><path style="opacity:1" fill="#245f52" d="M 302.5,210.5 C 303.525,214.079 304.691,217.746 306,221.5C 306.5,231.161 306.666,240.828 306.5,250.5C 304.245,251.648 302.412,253.314 301,255.5C 298.343,263.003 294.843,270.003 290.5,276.5C 289.24,277.382 288.074,278.382 287,279.5C 286.667,278.833 286.333,278.167 286,277.5C 284.453,283.702 281.287,288.869 276.5,293C 278.015,295.766 277.682,298.266 275.5,300.5C 274.912,298.089 273.745,296.089 272,294.5C 271.152,297.418 269.818,300.084 268,302.5C 265.547,293.191 263.047,283.857 260.5,274.5C 261.822,274.67 262.989,274.337 264,273.5C 264.154,276.525 265.654,278.191 268.5,278.5C 268.36,276.876 269.027,275.71 270.5,275C 269.809,273.933 269.309,272.766 269,271.5C 267.333,271.5 265.667,271.5 264,271.5C 263.333,270.833 263.333,270.167 264,269.5C 267.384,268.052 270.384,266.052 273,263.5C 273.063,265.379 272.563,267.213 271.5,269C 271.625,270.627 272.125,272.127 273,273.5C 273.889,270.721 275.056,268.055 276.5,265.5C 277.396,266.506 278.062,266.506 278.5,265.5C 277.675,264.614 276.675,264.281 275.5,264.5C 275.714,262.856 275.38,261.356 274.5,260C 276.883,259.935 277.55,259.102 276.5,257.5C 277.742,255.267 279.076,253.101 280.5,251C 280.167,250.667 279.833,250.333 279.5,250C 280.759,249.077 282.092,248.243 283.5,247.5C 283.054,245.632 282.721,243.799 282.5,242C 283,241.5 283.5,241 284,240.5C 285.065,242.396 285.898,242.563 286.5,241C 285.293,239.7 284.626,238.2 284.5,236.5C 287.157,236.838 289.49,236.171 291.5,234.5C 292.149,236.624 292.983,238.624 294,240.5C 293.745,237.918 293.578,235.252 293.5,232.5C 289.986,231.298 290.153,229.632 294,227.5C 294.287,225.109 294.787,222.776 295.5,220.5C 293.703,219.305 292.703,217.638 292.5,215.5C 295.245,213.544 298.078,211.544 301,209.5C 301.383,210.056 301.883,210.389 302.5,210.5 Z"/></g>
<g><path style="opacity:1" fill="#235146" d="M 298.5,186.5 C 300.393,194.134 301.727,202.134 302.5,210.5C 301.883,210.389 301.383,210.056 301,209.5C 298.078,211.544 295.245,213.544 292.5,215.5C 291.292,216.234 289.959,216.567 288.5,216.5C 287.805,219.567 286.805,222.567 285.5,225.5C 285.709,226.086 286.043,226.586 286.5,227C 284.606,229.086 282.773,231.253 281,233.5C 279.32,232.397 277.82,232.73 276.5,234.5C 277.429,236.322 276.762,237.655 274.5,238.5C 273.286,241.503 272.286,244.17 271.5,246.5C 270.522,246.977 269.689,247.643 269,248.5C 268.667,248.167 268.333,247.833 268,247.5C 267.333,250.167 266.667,250.167 266,247.5C 265.654,249.218 265.154,250.885 264.5,252.5C 263.01,255.004 261.343,257.338 259.5,259.5C 258.513,262.768 258.18,266.102 258.5,269.5C 257.833,268.167 257.167,266.833 256.5,265.5C 256.5,263.833 256.5,262.167 256.5,260.5C 269.98,235.541 283.98,210.874 298.5,186.5 Z"/></g>
<g><path style="opacity:1" fill="#728079" d="M 71.5,230.5 C 72.3382,230.842 72.6716,231.508 72.5,232.5C 72.5754,236.897 72.0754,241.23 71,245.5C 69.1847,250.763 67.6847,256.097 66.5,261.5C 66.5,261.833 66.5,262.167 66.5,262.5C 65.8333,263.833 65.1667,265.167 64.5,266.5C 63.8902,265.609 63.5569,264.609 63.5,263.5C 65.6699,256.505 68.0032,249.505 70.5,242.5C 71.2721,238.548 71.6054,234.548 71.5,230.5 Z"/></g>
<g><path style="opacity:1" fill="#9c9c93" d="M 72.5,232.5 C 84.4337,246.461 94.4337,261.794 102.5,278.5C 101.957,278.56 101.624,278.893 101.5,279.5C 103.32,284.362 103.82,289.362 103,294.5C 102.005,299.453 101.338,304.453 101,309.5C 99.9709,313.266 98.8042,316.933 97.5,320.5C 97.9629,317.518 98.2962,314.518 98.5,311.5C 98.6661,305.824 98.4994,300.157 98,294.5C 97.5983,293.128 97.0983,291.795 96.5,290.5C 94.8827,290.331 93.216,289.997 91.5,289.5C 91.8333,288.833 92.1667,288.167 92.5,287.5C 90.771,286.403 89.1044,285.237 87.5,284C 87.8333,283.667 88.1667,283.333 88.5,283C 86.1165,281.59 84.4498,279.59 83.5,277C 81.9559,276.71 80.6226,276.044 79.5,275C 80.5448,273.384 81.5448,271.717 82.5,270C 81.1667,269.333 79.8333,268.667 78.5,268C 77.1667,267.333 77.1667,266.667 78.5,266C 77.4214,265.044 76.2547,264.211 75,263.5C 74.8008,261.598 73.9675,260.098 72.5,259C 75.028,257.684 75.028,256.517 72.5,255.5C 71.0852,258.249 69.0852,260.249 66.5,261.5C 67.6847,256.097 69.1847,250.763 71,245.5C 72.0754,241.23 72.5754,236.897 72.5,232.5 Z"/></g>
<g><path style="opacity:1" fill="#2d5c50" d="M 42.5,188.5 C 41.7003,190.682 40.2003,192.349 38,193.5C 37.063,197.167 37.563,200.501 39.5,203.5C 38.7515,204.531 38.0848,205.698 37.5,207C 38.3366,208.011 38.67,209.178 38.5,210.5C 37.325,210.281 36.325,210.614 35.5,211.5C 37.4403,213.674 37.7736,216.007 36.5,218.5C 39.2018,223.413 41.7018,229.08 44,235.5C 44.4966,237.81 44.6633,240.143 44.5,242.5C 45.8333,242.5 47.1667,242.5 48.5,242.5C 49.6923,248.935 51.359,255.268 53.5,261.5C 54.3857,260.675 54.719,259.675 54.5,258.5C 55.8333,258.5 57.1667,258.5 58.5,258.5C 59.2563,256.387 59.4229,254.387 59,252.5C 60.5122,253.257 61.8455,254.257 63,255.5C 65.6333,252.424 66.1333,249.091 64.5,245.5C 65.1894,244.226 66.0228,244.226 67,245.5C 67.4828,244.552 67.6495,243.552 67.5,242.5C 68.5,242.5 69.5,242.5 70.5,242.5C 68.0032,249.505 65.6699,256.505 63.5,263.5C 62.6204,265.137 61.9537,266.97 61.5,269C 61.7386,270.781 62.0719,272.614 62.5,274.5C 61.8909,278.635 61.2243,282.635 60.5,286.5C 50.8331,261.833 41.1665,237.166 31.5,212.5C 32.2286,207.649 33.5619,202.982 35.5,198.5C 35.3981,193.582 37.7314,190.249 42.5,188.5 Z"/></g>
<g><path style="opacity:1" fill="#6d736d" d="M 256.5,265.5 C 257.167,266.833 257.833,268.167 258.5,269.5C 258.225,275.121 259.225,280.455 261.5,285.5C 260.167,285.833 258.833,286.167 257.5,286.5C 254.33,281.301 250.663,276.301 246.5,271.5C 246.865,270.098 247.699,269.098 249,268.5C 251.327,270.462 253.66,272.462 256,274.5C 256.498,271.518 256.665,268.518 256.5,265.5 Z"/></g>
<g><path style="opacity:1" fill="#9fa197" d="M 256.5,260.5 C 256.5,262.167 256.5,263.833 256.5,265.5C 256.665,268.518 256.498,271.518 256,274.5C 253.66,272.462 251.327,270.462 249,268.5C 247.699,269.098 246.865,270.098 246.5,271.5C 250.663,276.301 254.33,281.301 257.5,286.5C 258.15,288.435 258.483,290.435 258.5,292.5C 255.029,291.702 251.529,290.702 248,289.5C 243.772,289.789 239.606,290.955 235.5,293C 232.068,297.567 228.568,302.067 225,306.5C 224.167,321.511 224.334,336.511 225.5,351.5C 226.5,352.833 227.5,352.833 228.5,351.5C 229.167,349.833 229.833,348.167 230.5,346.5C 231.086,346.709 231.586,347.043 232,347.5C 232.5,346.333 233.333,345.5 234.5,345C 234.056,343.467 233.723,341.967 233.5,340.5C 236.219,337.94 239.052,335.607 242,333.5C 241.942,330.375 242.775,328.041 244.5,326.5C 245.833,326.5 247.167,326.5 248.5,326.5C 248.351,325.448 248.517,324.448 249,323.5C 251.094,321.992 253.26,320.658 255.5,319.5C 254.122,323.134 252.455,326.634 250.5,330C 250.645,330.772 250.978,331.439 251.5,332C 247.759,333.738 244.592,336.238 242,339.5C 235.949,347.378 230.115,355.378 224.5,363.5C 223.642,352.309 222.642,340.976 221.5,329.5C 221.96,321.789 222.627,314.122 223.5,306.5C 223.376,305.893 223.043,305.56 222.5,305.5C 231.566,292.586 240.066,279.253 248,265.5C 250.478,263.18 253.311,261.514 256.5,260.5 Z"/></g>
<g><path style="opacity:1" fill="#50594f" d="M 63.5,263.5 C 63.5569,264.609 63.8902,265.609 64.5,266.5C 63.78,277.051 64.78,287.385 67.5,297.5C 67.4805,298.726 67.1471,299.726 66.5,300.5C 65.0483,295.597 63.0483,290.93 60.5,286.5C 61.2243,282.635 61.8909,278.635 62.5,274.5C 62.0719,272.614 61.7386,270.781 61.5,269C 61.9537,266.97 62.6204,265.137 63.5,263.5 Z"/></g>
<g><path style="opacity:1" fill="#b0b0a4" d="M 98.5,311.5 C 96.6944,319.32 94.1944,326.987 91,334.5C 91.7885,330.48 91.4552,326.48 90,322.5C 89.5488,324.929 88.7155,325.096 87.5,323C 88.1667,320.333 88.8333,317.667 89.5,315C 86.8532,314.685 86.1865,313.518 87.5,311.5C 86.3112,310.571 84.9778,310.238 83.5,310.5C 83.5,309.5 83.5,308.5 83.5,307.5C 84.552,307.649 85.552,307.483 86.5,307C 85.1667,306.667 83.8333,306.333 82.5,306C 83.4506,305.282 83.6172,304.449 83,303.5C 79.8967,301.697 77.0633,299.53 74.5,297C 76.962,295.784 79.6287,295.118 82.5,295C 80.9632,293.89 80.2965,292.39 80.5,290.5C 79.1667,290.5 77.8333,290.5 76.5,290.5C 76.5,289.5 76.5,288.5 76.5,287.5C 75.5,287.5 74.5,287.5 73.5,287.5C 73.6567,286.127 73.49,284.793 73,283.5C 72.3333,282.167 71.6667,282.167 71,283.5C 70.9403,279.609 69.607,276.275 67,273.5C 66.5014,269.848 66.3347,266.182 66.5,262.5C 66.5,262.167 66.5,261.833 66.5,261.5C 69.0852,260.249 71.0852,258.249 72.5,255.5C 75.028,256.517 75.028,257.684 72.5,259C 73.9675,260.098 74.8008,261.598 75,263.5C 76.2547,264.211 77.4214,265.044 78.5,266C 77.1667,266.667 77.1667,267.333 78.5,268C 79.8333,268.667 81.1667,269.333 82.5,270C 81.5448,271.717 80.5448,273.384 79.5,275C 80.6226,276.044 81.9559,276.71 83.5,277C 84.4498,279.59 86.1165,281.59 88.5,283C 88.1667,283.333 87.8333,283.667 87.5,284C 89.1044,285.237 90.771,286.403 92.5,287.5C 92.1667,288.167 91.8333,288.833 91.5,289.5C 93.216,289.997 94.8827,290.331 96.5,290.5C 97.0983,291.795 97.5983,293.128 98,294.5C 98.4994,300.157 98.6661,305.824 98.5,311.5 Z"/></g>
<g><path style="opacity:1" fill="#afaea2" d="M 258.5,292.5 C 261.849,297.567 263.182,303.234 262.5,309.5C 261.327,313.669 258.994,317.002 255.5,319.5C 253.26,320.658 251.094,321.992 249,323.5C 248.517,324.448 248.351,325.448 248.5,326.5C 247.167,326.5 245.833,326.5 244.5,326.5C 242.775,328.041 241.942,330.375 242,333.5C 239.052,335.607 236.219,337.94 233.5,340.5C 233.723,341.967 234.056,343.467 234.5,345C 233.333,345.5 232.5,346.333 232,347.5C 231.586,347.043 231.086,346.709 230.5,346.5C 229.833,348.167 229.167,349.833 228.5,351.5C 227.5,352.833 226.5,352.833 225.5,351.5C 224.334,336.511 224.167,321.511 225,306.5C 228.568,302.067 232.068,297.567 235.5,293C 239.606,290.955 243.772,289.789 248,289.5C 251.529,290.702 255.029,291.702 258.5,292.5 Z"/></g>
<g><path style="opacity:1" fill="#798479" d="M 261.5,285.5 C 263.494,294.143 265.494,302.81 267.5,311.5C 266.495,317.856 262.828,321.856 256.5,323.5C 257.048,321.606 258.048,319.94 259.5,318.5C 264.078,317.103 265.912,314.103 265,309.5C 264.23,308.402 263.397,308.402 262.5,309.5C 263.182,303.234 261.849,297.567 258.5,292.5C 258.483,290.435 258.15,288.435 257.5,286.5C 258.833,286.167 260.167,285.833 261.5,285.5 Z"/></g>
<g><path style="opacity:1" fill="#555958" d="M 316.5,238.5 C 312.947,246.362 310.447,254.696 309,263.5C 300.606,266.922 296.606,273.256 297,282.5C 291.52,287.796 287.853,294.129 286,301.5C 281.82,305.247 277.653,308.913 273.5,312.5C 273.3,309.196 274.634,306.696 277.5,305C 278.783,302.995 279.783,300.828 280.5,298.5C 283.713,294.581 287.047,290.748 290.5,287C 292.562,283.385 293.895,279.552 294.5,275.5C 298.707,269.082 302.374,262.416 305.5,255.5C 306.458,255.047 307.292,254.381 308,253.5C 310.861,248.437 313.694,243.437 316.5,238.5 Z"/></g>
<g><path style="opacity:1" fill="#a5a79b" d="M 66.5,262.5 C 66.3347,266.182 66.5014,269.848 67,273.5C 69.607,276.275 70.9403,279.609 71,283.5C 71.6667,282.167 72.3333,282.167 73,283.5C 73.49,284.793 73.6567,286.127 73.5,287.5C 74.5,287.5 75.5,287.5 76.5,287.5C 76.5,288.5 76.5,289.5 76.5,290.5C 77.8333,290.5 79.1667,290.5 80.5,290.5C 80.2965,292.39 80.9632,293.89 82.5,295C 79.6287,295.118 76.962,295.784 74.5,297C 77.0633,299.53 79.8967,301.697 83,303.5C 83.6172,304.449 83.4506,305.282 82.5,306C 83.8333,306.333 85.1667,306.667 86.5,307C 85.552,307.483 84.552,307.649 83.5,307.5C 83.5,308.5 83.5,309.5 83.5,310.5C 84.9778,310.238 86.3112,310.571 87.5,311.5C 86.1865,313.518 86.8532,314.685 89.5,315C 88.8333,317.667 88.1667,320.333 87.5,323C 88.7155,325.096 89.5488,324.929 90,322.5C 91.4552,326.48 91.7885,330.48 91,334.5C 94.1944,326.987 96.6944,319.32 98.5,311.5C 98.2962,314.518 97.9629,317.518 97.5,320.5C 95.185,330.39 93.5183,340.39 92.5,350.5C 84.0182,333.709 75.3515,317.042 66.5,300.5C 67.1471,299.726 67.4805,298.726 67.5,297.5C 64.78,287.385 63.78,277.051 64.5,266.5C 65.1667,265.167 65.8333,263.833 66.5,262.5 Z"/></g>
<g><path style="opacity:1" fill="#41514c" d="M 294.5,275.5 C 293.895,279.552 292.562,283.385 290.5,287C 287.047,290.748 283.713,294.581 280.5,298.5C 279.783,300.828 278.783,302.995 277.5,305C 274.634,306.696 273.3,309.196 273.5,312.5C 270.189,317.445 266.189,321.778 261.5,325.5C 259.989,326.502 258.322,327.169 256.5,327.5C 256.5,326.167 256.5,324.833 256.5,323.5C 262.828,321.856 266.495,317.856 267.5,311.5C 268.15,311.804 268.817,312.137 269.5,312.5C 278.544,300.775 286.878,288.442 294.5,275.5 Z"/></g>
<g><path style="opacity:1" fill="#225b4f" d="M 102.5,278.5 C 111.151,294.468 120.317,310.134 130,325.5C 133.467,333.405 136.634,341.405 139.5,349.5C 139.5,350.833 139.5,352.167 139.5,353.5C 139.549,360.013 138.549,366.346 136.5,372.5C 134.464,376.715 132.13,380.882 129.5,385C 131.978,386.938 132.145,389.105 130,391.5C 128.671,392.494 127.338,393.494 126,394.5C 124.452,393.316 122.952,393.483 121.5,395C 126.863,396.238 127.363,398.071 123,400.5C 121.234,398.404 119.901,396.071 119,393.5C 118.667,393.833 118.333,394.167 118,394.5C 112.169,388.845 107.835,382.178 105,374.5C 104.241,372.937 103.074,371.937 101.5,371.5C 98.7754,364.384 95.7754,357.384 92.5,350.5C 93.5183,340.39 95.185,330.39 97.5,320.5C 98.8042,316.933 99.9709,313.266 101,309.5C 101.338,304.453 102.005,299.453 103,294.5C 103.82,289.362 103.32,284.362 101.5,279.5C 101.624,278.893 101.957,278.56 102.5,278.5 Z"/></g>
<g><path style="opacity:1" fill="#235e51" d="M 222.5,305.5 C 223.043,305.56 223.376,305.893 223.5,306.5C 222.627,314.122 221.96,321.789 221.5,329.5C 222.642,340.976 223.642,352.309 224.5,363.5C 223.841,366.408 223.007,366.742 222,364.5C 221.407,367.915 219.574,370.248 216.5,371.5C 212.34,375.801 208.174,380.134 204,384.5C 203.338,386.813 202.838,389.146 202.5,391.5C 201.448,391.351 200.448,391.517 199.5,392C 197.697,395.103 195.53,397.937 193,400.5C 192.5,400 192,399.5 191.5,399C 192.95,395.429 191.283,394.096 186.5,395C 187.167,395.333 187.833,395.667 188.5,396C 186.955,399.354 185.289,402.687 183.5,406C 184.493,408.453 184.66,410.953 184,413.5C 182.943,411.781 182.11,409.947 181.5,408C 182.961,403.693 181.295,401.859 176.5,402.5C 175.524,390.514 175.358,378.514 176,366.5C 178.359,362.48 181.359,359.147 185,356.5C 185.5,356.667 186,356.833 186.5,357C 185.672,357.915 184.672,358.581 183.5,359C 184.819,360.628 186.152,360.461 187.5,358.5C 190.465,360.627 190.131,361.794 186.5,362C 189.817,362.418 192.817,362.251 195.5,361.5C 195.023,360.069 194.357,358.736 193.5,357.5C 190.921,358.415 190.254,357.582 191.5,355C 191.138,353.775 190.638,352.609 190,351.5C 187.999,351.834 186.165,351.834 184.5,351.5C 189.123,347.788 193.123,343.788 196.5,339.5C 200.465,335.649 204.632,331.983 209,328.5C 211.092,326.229 212.426,323.563 213,320.5C 214.019,319.313 215.186,318.313 216.5,317.5C 217.452,315.955 217.785,314.288 217.5,312.5C 218.921,309.991 220.588,307.657 222.5,305.5 Z"/></g>
<g><path style="opacity:1" fill="#27594e" d="M 217.5,312.5 C 217.785,314.288 217.452,315.955 216.5,317.5C 215.186,318.313 214.019,319.313 213,320.5C 212.426,323.563 211.092,326.229 209,328.5C 204.632,331.983 200.465,335.649 196.5,339.5C 193.123,343.788 189.123,347.788 184.5,351.5C 186.165,351.834 187.999,351.834 190,351.5C 190.638,352.609 191.138,353.775 191.5,355C 190.254,357.582 190.921,358.415 193.5,357.5C 194.357,358.736 195.023,360.069 195.5,361.5C 192.817,362.251 189.817,362.418 186.5,362C 190.131,361.794 190.465,360.627 187.5,358.5C 186.152,360.461 184.819,360.628 183.5,359C 184.672,358.581 185.672,357.915 186.5,357C 186,356.833 185.5,356.667 185,356.5C 181.359,359.147 178.359,362.48 176,366.5C 175.358,378.514 175.524,390.514 176.5,402.5C 181.295,401.859 182.961,403.693 181.5,408C 182.11,409.947 182.943,411.781 184,413.5C 184.66,410.953 184.493,408.453 183.5,406C 185.289,402.687 186.955,399.354 188.5,396C 187.833,395.667 187.167,395.333 186.5,395C 191.283,394.096 192.95,395.429 191.5,399C 192,399.5 192.5,400 193,400.5C 195.53,397.937 197.697,395.103 199.5,392C 200.448,391.517 201.448,391.351 202.5,391.5C 202.838,389.146 203.338,386.813 204,384.5C 208.174,380.134 212.34,375.801 216.5,371.5C 214.703,375.771 212.87,380.104 211,384.5C 208.239,385.499 206.906,387.499 207,390.5C 205.185,392.405 203.185,394.072 201,395.5C 200.338,397.813 199.838,400.146 199.5,402.5C 198.5,402.5 197.5,402.5 196.5,402.5C 193.366,403.714 191.366,406.047 190.5,409.5C 187.828,411.673 185.494,414.173 183.5,417C 181.655,418.128 179.655,418.628 177.5,418.5C 177.795,420.735 177.461,422.735 176.5,424.5C 175.124,410.868 174.124,397.201 173.5,383.5C 173.536,376.454 173.869,369.454 174.5,362.5C 178.47,357.916 181.97,352.916 185,347.5C 191.667,341.5 198.333,335.5 205,329.5C 209.188,323.766 213.354,318.099 217.5,312.5 Z"/></g>
<g><path style="opacity:1" fill="#737b72" d="M 139.5,353.5 C 140.734,355.201 141.401,357.201 141.5,359.5C 140.393,364.478 139.393,369.478 138.5,374.5C 139.21,378.804 139.71,383.137 140,387.5C 145.661,382.574 151.494,378.574 157.5,375.5C 152.848,379.651 148.348,383.985 144,388.5C 142.787,390.925 141.621,393.259 140.5,395.5C 140.762,394.022 140.429,392.689 139.5,391.5C 137.136,393.363 134.636,395.029 132,396.5C 131.833,395.667 131.667,394.833 131.5,394C 133.564,386.913 135.23,379.746 136.5,372.5C 138.549,366.346 139.549,360.013 139.5,353.5 Z"/></g>
<g><path style="opacity:1" fill="#7d847a" d="M 174.5,362.5 C 173.869,369.454 173.536,376.454 173.5,383.5C 174.124,397.201 175.124,410.868 176.5,424.5C 176.5,425.167 176.5,425.833 176.5,426.5C 175.533,427.806 174.199,428.473 172.5,428.5C 173.743,426.003 174.41,423.336 174.5,420.5C 172.757,413.154 171.923,405.821 172,398.5C 170.111,399.097 168.278,399.431 166.5,399.5C 164.437,391.351 166.271,384.351 172,378.5C 172.499,373.845 172.666,369.179 172.5,364.5C 172.833,363.5 173.5,362.833 174.5,362.5 Z"/></g>
<g><path style="opacity:1" fill="#aaa99d" d="M 139.5,349.5 C 143.022,354.688 146.689,359.854 150.5,365C 154.367,367.698 158.367,370.198 162.5,372.5C 165.864,369.825 169.197,367.158 172.5,364.5C 172.666,369.179 172.499,373.845 172,378.5C 166.271,384.351 164.437,391.351 166.5,399.5C 168.278,399.431 170.111,399.097 172,398.5C 171.923,405.821 172.757,413.154 174.5,420.5C 174.41,423.336 173.743,426.003 172.5,428.5C 167.809,433.357 163.309,438.357 159,443.5C 158.209,444.745 157.709,446.078 157.5,447.5C 155.194,450.473 152.527,453.14 149.5,455.5C 146.576,456.037 143.909,457.203 141.5,459C 140.81,461.787 138.977,464.287 136,466.5C 135.31,455.155 135.477,443.821 136.5,432.5C 136.905,427.831 138.238,423.498 140.5,419.5C 139.456,418.377 138.79,417.044 138.5,415.5C 139.274,411.535 139.607,407.535 139.5,403.5C 139.833,400.833 140.167,398.167 140.5,395.5C 141.621,393.259 142.787,390.925 144,388.5C 148.348,383.985 152.848,379.651 157.5,375.5C 151.494,378.574 145.661,382.574 140,387.5C 139.71,383.137 139.21,378.804 138.5,374.5C 139.393,369.478 140.393,364.478 141.5,359.5C 141.401,357.201 140.734,355.201 139.5,353.5C 139.5,352.167 139.5,350.833 139.5,349.5 Z"/></g>
<g><path style="opacity:1" fill="#515653" d="M 256.5,323.5 C 256.5,324.833 256.5,326.167 256.5,327.5C 258.322,327.169 259.989,326.502 261.5,325.5C 261.291,326.922 260.791,328.255 260,329.5C 255.248,332.349 251.915,336.349 250,341.5C 243.96,347.209 237.626,352.543 231,357.5C 228.579,364.018 224.912,369.685 220,374.5C 216.253,381.663 212.253,388.663 208,395.5C 204.551,397.958 202.551,401.291 202,405.5C 197.617,408.631 196.45,412.631 198.5,417.5C 198.5,418.833 198.5,420.167 198.5,421.5C 196.838,418.175 195.171,414.842 193.5,411.5C 194.767,408.623 195.767,405.623 196.5,402.5C 197.5,402.5 198.5,402.5 199.5,402.5C 199.838,400.146 200.338,397.813 201,395.5C 203.185,394.072 205.185,392.405 207,390.5C 206.906,387.499 208.239,385.499 211,384.5C 212.87,380.104 214.703,375.771 216.5,371.5C 219.574,370.248 221.407,367.915 222,364.5C 223.007,366.742 223.841,366.408 224.5,363.5C 230.115,355.378 235.949,347.378 242,339.5C 244.592,336.238 247.759,333.738 251.5,332C 250.978,331.439 250.645,330.772 250.5,330C 252.455,326.634 254.122,323.134 255.5,319.5C 258.994,317.002 261.327,313.669 262.5,309.5C 263.397,308.402 264.23,308.402 265,309.5C 265.912,314.103 264.078,317.103 259.5,318.5C 258.048,319.94 257.048,321.606 256.5,323.5 Z"/></g>
<g><path style="opacity:1" fill="#9ba4a1" d="M 198.5,417.5 C 208.581,427.304 215.914,438.97 220.5,452.5C 215.451,446.786 210.785,440.786 206.5,434.5C 203.86,430.184 201.194,425.851 198.5,421.5C 198.5,420.167 198.5,418.833 198.5,417.5 Z"/></g>
<g><path style="opacity:1" fill="#225d51" d="M 78.5,502.5 C 79.1754,489.768 80.3421,477.102 82,464.5C 90.9594,446.047 102.459,429.381 116.5,414.5C 119.323,413.008 120.99,410.674 121.5,407.5C 122.222,407.918 122.722,408.584 123,409.5C 126.496,404.055 131.162,399.721 137,396.5C 136.54,407.237 135.207,417.903 133,428.5C 133.025,441.126 131.859,453.626 129.5,466C 130.664,468.541 130.497,471.041 129,473.5C 128.667,473.167 128.333,472.833 128,472.5C 125.96,474.041 123.793,475.374 121.5,476.5C 122.629,478.529 122.129,478.863 120,477.5C 119.667,478.5 119.333,479.5 119,480.5C 116.145,477.536 113.811,477.87 112,481.5C 111.935,479.117 111.102,478.45 109.5,479.5C 107.02,478.585 106.353,477.085 107.5,475C 106.552,474.517 105.552,474.351 104.5,474.5C 104.5,475.5 104.5,476.5 104.5,477.5C 99.5926,475.892 96.9259,477.726 96.5,483C 96.8333,484.5 97.1667,486 97.5,487.5C 97.9106,486.738 98.0773,485.738 98,484.5C 100.447,482.251 102.947,482.084 105.5,484C 104.377,485.044 103.044,485.71 101.5,486C 103.199,488.227 104.532,490.727 105.5,493.5C 105,493.833 104.5,494.167 104,494.5C 102.779,493.728 101.779,492.728 101,491.5C 97.7745,491.509 94.7745,492.843 92,495.5C 90.5589,494.74 89.0589,494.074 87.5,493.5C 85.9981,497.031 83.9981,500.365 81.5,503.5C 80.7022,501.922 80.2022,500.256 80,498.5C 79.79,500.058 79.29,501.391 78.5,502.5 Z"/></g>
<g><path style="opacity:1" fill="#6f736c" d="M 181.5,442.5 C 181.5,440.5 181.5,438.5 181.5,436.5C 180.167,436.5 178.833,436.5 177.5,436.5C 176.736,439.787 174.903,442.454 172,444.5C 171,447.5 170,450.5 169,453.5C 167.989,454.337 166.822,454.67 165.5,454.5C 165.293,457.241 164.293,459.574 162.5,461.5C 161.508,461.672 160.842,461.338 160.5,460.5C 161.239,460.631 161.906,460.464 162.5,460C 161.262,459.31 161.262,458.81 162.5,458.5C 163.163,456.958 163.83,455.291 164.5,453.5C 165.736,452.754 167.07,452.421 168.5,452.5C 168.5,450.833 168.5,449.167 168.5,447.5C 160.452,447.902 159.452,445.402 165.5,440C 169.594,437.728 173.928,436.228 178.5,435.5C 178.5,434.5 178.5,433.5 178.5,432.5C 177.325,432.719 176.325,432.386 175.5,431.5C 176.95,430.15 177.617,428.484 177.5,426.5C 178.735,426.279 179.735,425.612 180.5,424.5C 181.192,425.025 181.692,425.692 182,426.5C 182.817,432.016 182.651,437.35 181.5,442.5 Z"/></g>
<g><path style="opacity:1" fill="#60625a" d="M 176.5,426.5 C 176.833,426.5 177.167,426.5 177.5,426.5C 177.617,428.484 176.95,430.15 175.5,431.5C 176.325,432.386 177.325,432.719 178.5,432.5C 178.5,433.5 178.5,434.5 178.5,435.5C 173.928,436.228 169.594,437.728 165.5,440C 159.452,445.402 160.452,447.902 168.5,447.5C 168.5,449.167 168.5,450.833 168.5,452.5C 167.07,452.421 165.736,452.754 164.5,453.5C 163.83,455.291 163.163,456.958 162.5,458.5C 161.505,454.512 160.505,450.512 159.5,446.5C 158.817,446.863 158.15,447.196 157.5,447.5C 157.709,446.078 158.209,444.745 159,443.5C 163.309,438.357 167.809,433.357 172.5,428.5C 174.199,428.473 175.533,427.806 176.5,426.5 Z"/></g>
<g><path style="opacity:1" fill="#1f5448" d="M 206.5,434.5 C 210.785,440.786 215.451,446.786 220.5,452.5C 221.499,455.162 222.499,457.828 223.5,460.5C 223.999,464.49 224.499,468.49 225,472.5C 225.911,476.23 227.411,479.563 229.5,482.5C 229.664,485.187 229.497,487.854 229,490.5C 228,489.167 227,489.167 226,490.5C 225.814,488.1 225.314,485.766 224.5,483.5C 223.479,485.619 221.979,487.286 220,488.5C 217.019,484.301 213.519,480.467 209.5,477C 207.866,476.506 206.199,476.34 204.5,476.5C 204.335,473.482 204.502,470.482 205,467.5C 205.333,467.833 205.667,468.167 206,468.5C 206.813,466.564 207.313,464.564 207.5,462.5C 205.234,462.859 203.401,462.192 202,460.5C 201.667,460.833 201.333,461.167 201,461.5C 199.524,457.213 196.691,454.213 192.5,452.5C 190.379,453.35 188.212,454.35 186,455.5C 185.333,454.833 184.667,454.167 184,453.5C 183.062,445.39 183.562,437.39 185.5,429.5C 188.889,428.778 190.889,426.778 191.5,423.5C 193.862,424.357 196.196,424.691 198.5,424.5C 200.248,428.714 202.914,432.047 206.5,434.5 Z"/></g>
<g><path style="opacity:1" fill="#b0b1b1" d="M 160.5,460.5 C 157.43,460.368 154.43,460.701 151.5,461.5C 151.611,460.883 151.944,460.383 152.5,460C 155.367,459.199 158.034,459.366 160.5,460.5 Z"/></g>
<g><path style="opacity:1" fill="#94958b" d="M 181.5,442.5 C 180.736,452.162 179.902,461.828 179,471.5C 178.273,476.313 177.106,480.979 175.5,485.5C 171.608,479.05 168.275,472.383 165.5,465.5C 164.5,464.167 163.5,462.833 162.5,461.5C 164.293,459.574 165.293,457.241 165.5,454.5C 166.822,454.67 167.989,454.337 169,453.5C 170,450.5 171,447.5 172,444.5C 174.903,442.454 176.736,439.787 177.5,436.5C 178.833,436.5 180.167,436.5 181.5,436.5C 181.5,438.5 181.5,440.5 181.5,442.5 Z"/></g>
<g><path style="opacity:1" fill="#4f4e4b" d="M 162.5,458.5 C 161.262,458.81 161.262,459.31 162.5,460C 161.906,460.464 161.239,460.631 160.5,460.5C 158.034,459.366 155.367,459.199 152.5,460C 151.944,460.383 151.611,460.883 151.5,461.5C 146.923,465.008 144.09,469.674 143,475.5C 140.625,476.129 138.459,477.129 136.5,478.5C 139.414,471.686 143.581,465.686 149,460.5C 148.229,458.82 148.395,457.153 149.5,455.5C 152.527,453.14 155.194,450.473 157.5,447.5C 158.15,447.196 158.817,446.863 159.5,446.5C 160.505,450.512 161.505,454.512 162.5,458.5 Z"/></g>
<g><path style="opacity:1" fill="#93968f" d="M 139.5,403.5 C 139.607,407.535 139.274,411.535 138.5,415.5C 138.79,417.044 139.456,418.377 140.5,419.5C 138.238,423.498 136.905,427.831 136.5,432.5C 135.477,443.821 135.31,455.155 136,466.5C 138.977,464.287 140.81,461.787 141.5,459C 143.909,457.203 146.576,456.037 149.5,455.5C 148.395,457.153 148.229,458.82 149,460.5C 143.581,465.686 139.414,471.686 136.5,478.5C 132.58,482.897 129.58,487.897 127.5,493.5C 125.473,494.513 123.473,495.513 121.5,496.5C 121.692,493.399 122.358,490.399 123.5,487.5C 126.925,484.085 129.925,480.419 132.5,476.5C 133.222,476.082 133.722,475.416 134,474.5C 134.333,458.5 134.667,442.5 135,426.5C 136.54,418.702 138.04,411.035 139.5,403.5 Z"/></g>
<g><path style="opacity:1" fill="#1a493d" d="M 196.5,402.5 C 195.767,405.623 194.767,408.623 193.5,411.5C 195.171,414.842 196.838,418.175 198.5,421.5C 201.194,425.851 203.86,430.184 206.5,434.5C 202.914,432.047 200.248,428.714 198.5,424.5C 196.196,424.691 193.862,424.357 191.5,423.5C 190.889,426.778 188.889,428.778 185.5,429.5C 183.562,437.39 183.062,445.39 184,453.5C 184.667,454.167 185.333,454.833 186,455.5C 188.212,454.35 190.379,453.35 192.5,452.5C 196.691,454.213 199.524,457.213 201,461.5C 201.333,461.167 201.667,460.833 202,460.5C 203.401,462.192 205.234,462.859 207.5,462.5C 207.313,464.564 206.813,466.564 206,468.5C 205.667,468.167 205.333,467.833 205,467.5C 204.502,470.482 204.335,473.482 204.5,476.5C 206.199,476.34 207.866,476.506 209.5,477C 213.519,480.467 217.019,484.301 220,488.5C 221.979,487.286 223.479,485.619 224.5,483.5C 225.314,485.766 225.814,488.1 226,490.5C 227,489.167 228,489.167 229,490.5C 229.497,487.854 229.664,485.187 229.5,482.5C 230.488,487.64 230.821,492.974 230.5,498.5C 230.167,499.167 229.833,499.833 229.5,500.5C 228.5,500.5 227.5,500.5 226.5,500.5C 226.649,501.552 226.483,502.552 226,503.5C 225.333,502.167 224.667,502.167 224,503.5C 223.598,502.128 223.098,500.795 222.5,499.5C 223.953,497.533 224.953,495.367 225.5,493C 224.975,492.308 224.308,491.808 223.5,491.5C 221.744,497.441 219.077,497.941 215.5,493C 216.993,491.844 216.826,491.01 215,490.5C 212.459,491.007 209.959,491.674 207.5,492.5C 210.029,493.706 212.362,494.373 214.5,494.5C 212.614,495.406 210.78,496.406 209,497.5C 208.282,494.766 206.782,494.1 204.5,495.5C 204.833,496.167 205.167,496.833 205.5,497.5C 202.453,498.316 200.787,500.316 200.5,503.5C 198.647,504.301 196.981,504.635 195.5,504.5C 198.171,505.724 200.504,507.391 202.5,509.5C 207.172,509.364 211.839,509.364 216.5,509.5C 216.351,508.448 216.517,507.448 217,506.5C 218.99,508.656 221.157,510.656 223.5,512.5C 222.737,513.719 221.737,514.719 220.5,515.5C 220.709,516.086 221.043,516.586 221.5,517C 220.455,521.815 218.455,526.148 215.5,530C 213.167,530.333 210.833,530.667 208.5,531C 207.944,531.383 207.611,531.883 207.5,532.5C 202.991,526.457 199.491,519.79 197,512.5C 192.963,508.631 189.13,504.631 185.5,500.5C 181.919,495.672 178.585,490.672 175.5,485.5C 177.106,480.979 178.273,476.313 179,471.5C 179.902,461.828 180.736,452.162 181.5,442.5C 182.651,437.35 182.817,432.016 182,426.5C 181.692,425.692 181.192,425.025 180.5,424.5C 179.735,425.612 178.735,426.279 177.5,426.5C 177.167,426.5 176.833,426.5 176.5,426.5C 176.5,425.833 176.5,425.167 176.5,424.5C 177.461,422.735 177.795,420.735 177.5,418.5C 179.655,418.628 181.655,418.128 183.5,417C 185.494,414.173 187.828,411.673 190.5,409.5C 191.366,406.047 193.366,403.714 196.5,402.5 Z"/></g>
<g><path style="opacity:1" fill="#23564a" d="M 101.5,371.5 C 103.074,371.937 104.241,372.937 105,374.5C 107.835,382.178 112.169,388.845 118,394.5C 118.333,394.167 118.667,393.833 119,393.5C 119.901,396.071 121.234,398.404 123,400.5C 127.363,398.071 126.863,396.238 121.5,395C 122.952,393.483 124.452,393.316 126,394.5C 127.338,393.494 128.671,392.494 130,391.5C 132.145,389.105 131.978,386.938 129.5,385C 132.13,380.882 134.464,376.715 136.5,372.5C 135.23,379.746 133.564,386.913 131.5,394C 131.667,394.833 131.833,395.667 132,396.5C 134.636,395.029 137.136,393.363 139.5,391.5C 140.429,392.689 140.762,394.022 140.5,395.5C 140.167,398.167 139.833,400.833 139.5,403.5C 138.04,411.035 136.54,418.702 135,426.5C 134.667,442.5 134.333,458.5 134,474.5C 133.722,475.416 133.222,476.082 132.5,476.5C 132.657,475.127 132.49,473.793 132,472.5C 127.5,478.845 122,483.845 115.5,487.5C 115.582,492.922 112.915,496.089 107.5,497C 106.167,497.667 106.167,498.333 107.5,499C 104.45,500.198 101.45,501.365 98.5,502.5C 94.3188,502.17 89.9855,502.17 85.5,502.5C 85.5,503.833 85.5,505.167 85.5,506.5C 86.8221,506.67 87.9887,506.337 89,505.5C 89.1667,506.167 89.3333,506.833 89.5,507.5C 87.1325,510.534 84.4658,513.201 81.5,515.5C 82.5,517.167 83.8333,518.5 85.5,519.5C 83.1945,521.981 83.1945,524.314 85.5,526.5C 84.2338,527.724 83.0672,529.057 82,530.5C 81.6667,530.167 81.3333,529.833 81,529.5C 80.805,530.819 80.9717,532.153 81.5,533.5C 80.8333,533.5 80.5,533.833 80.5,534.5C 79.6909,532.708 79.1909,530.708 79,528.5C 78.5002,519.84 78.3336,511.173 78.5,502.5C 79.29,501.391 79.79,500.058 80,498.5C 80.2022,500.256 80.7022,501.922 81.5,503.5C 83.9981,500.365 85.9981,497.031 87.5,493.5C 89.0589,494.074 90.5589,494.74 92,495.5C 94.7745,492.843 97.7745,491.509 101,491.5C 101.779,492.728 102.779,493.728 104,494.5C 104.5,494.167 105,493.833 105.5,493.5C 104.532,490.727 103.199,488.227 101.5,486C 103.044,485.71 104.377,485.044 105.5,484C 102.947,482.084 100.447,482.251 98,484.5C 98.0773,485.738 97.9106,486.738 97.5,487.5C 97.1667,486 96.8333,484.5 96.5,483C 96.9259,477.726 99.5926,475.892 104.5,477.5C 104.5,476.5 104.5,475.5 104.5,474.5C 105.552,474.351 106.552,474.517 107.5,475C 106.353,477.085 107.02,478.585 109.5,479.5C 111.102,478.45 111.935,479.117 112,481.5C 113.811,477.87 116.145,477.536 119,480.5C 119.333,479.5 119.667,478.5 120,477.5C 122.129,478.863 122.629,478.529 121.5,476.5C 123.793,475.374 125.96,474.041 128,472.5C 128.333,472.833 128.667,473.167 129,473.5C 130.497,471.041 130.664,468.541 129.5,466C 131.859,453.626 133.025,441.126 133,428.5C 135.207,417.903 136.54,407.237 137,396.5C 131.162,399.721 126.496,404.055 123,409.5C 122.722,408.584 122.222,407.918 121.5,407.5C 113.805,396.113 107.138,384.113 101.5,371.5 Z"/></g>
<g><path style="opacity:1" fill="#d4d7d4" d="M 165.5,465.5 C 168.275,472.383 171.608,479.05 175.5,485.5C 178.585,490.672 181.919,495.672 185.5,500.5C 180.808,498.225 176.974,494.891 174,490.5C 171.368,485.186 168.701,479.853 166,474.5C 165.502,471.518 165.335,468.518 165.5,465.5 Z"/></g>
<g><path style="opacity:1" fill="#163f35" d="M 229.5,500.5 C 229.468,506.189 229.134,511.855 228.5,517.5C 226.181,525.919 224.514,534.586 223.5,543.5C 222.5,543.5 221.5,543.5 220.5,543.5C 217.545,541.06 214.211,539.227 210.5,538C 209.242,536.259 208.242,534.426 207.5,532.5C 207.611,531.883 207.944,531.383 208.5,531C 210.833,530.667 213.167,530.333 215.5,530C 218.455,526.148 220.455,521.815 221.5,517C 221.043,516.586 220.709,516.086 220.5,515.5C 221.737,514.719 222.737,513.719 223.5,512.5C 221.157,510.656 218.99,508.656 217,506.5C 216.517,507.448 216.351,508.448 216.5,509.5C 211.839,509.364 207.172,509.364 202.5,509.5C 200.504,507.391 198.171,505.724 195.5,504.5C 196.981,504.635 198.647,504.301 200.5,503.5C 200.787,500.316 202.453,498.316 205.5,497.5C 205.167,496.833 204.833,496.167 204.5,495.5C 206.782,494.1 208.282,494.766 209,497.5C 210.78,496.406 212.614,495.406 214.5,494.5C 212.362,494.373 210.029,493.706 207.5,492.5C 209.959,491.674 212.459,491.007 215,490.5C 216.826,491.01 216.993,491.844 215.5,493C 219.077,497.941 221.744,497.441 223.5,491.5C 224.308,491.808 224.975,492.308 225.5,493C 224.953,495.367 223.953,497.533 222.5,499.5C 223.098,500.795 223.598,502.128 224,503.5C 224.667,502.167 225.333,502.167 226,503.5C 226.483,502.552 226.649,501.552 226.5,500.5C 227.5,500.5 228.5,500.5 229.5,500.5 Z"/></g>
<g><path style="opacity:1" fill="#787878" d="M 231.5,483.5 C 240.307,494.668 240.641,506.001 232.5,517.5C 234.082,506.067 233.749,494.734 231.5,483.5 Z"/></g>
<g><path style="opacity:1" fill="#839791" d="M 230.5,498.5 C 231.643,501.976 231.81,505.642 231,509.5C 230.667,513.031 229.833,515.697 228.5,517.5C 229.134,511.855 229.468,506.189 229.5,500.5C 229.833,499.833 230.167,499.167 230.5,498.5 Z"/></g>
<g><path style="opacity:1" fill="#1b3b33" d="M 119.5,497.5 C 118.833,498.833 118.167,500.167 117.5,501.5C 113.89,504.608 110.39,507.941 107,511.5C 104.169,516.484 100.835,521.151 97,525.5C 96.6667,526.833 96.3333,528.167 96,529.5C 93.9357,531.301 92.1023,533.301 90.5,535.5C 87.1667,535.5 83.8333,535.5 80.5,535.5C 80.5,535.167 80.5,534.833 80.5,534.5C 80.5,533.833 80.8333,533.5 81.5,533.5C 84.4725,534.524 87.4725,534.357 90.5,533C 91.3366,531.989 91.67,530.822 91.5,529.5C 92.5,529.5 93.5,529.5 94.5,529.5C 95.9899,525.315 97.9899,521.315 100.5,517.5C 98.8958,513.991 97.3958,514.324 96,518.5C 95.3333,517.833 94.6667,517.167 94,516.5C 93.5065,518.134 93.3398,519.801 93.5,521.5C 91.6693,522.052 90.0026,522.052 88.5,521.5C 88.3561,518.362 89.0227,515.195 90.5,512C 92.8474,511.564 95.1807,511.064 97.5,510.5C 101.162,511.946 104.496,511.279 107.5,508.5C 105.669,505.325 106.836,502.992 111,501.5C 111.667,502.167 112.333,502.833 113,503.5C 113.775,499.597 115.775,496.597 119,494.5C 119.483,495.448 119.649,496.448 119.5,497.5 Z"/></g>
<g><path style="opacity:1" fill="#555f5b" d="M 223.5,460.5 C 225.226,462.942 226.726,465.609 228,468.5C 228.452,473.684 229.619,478.684 231.5,483.5C 233.749,494.734 234.082,506.067 232.5,517.5C 231.975,522.6 230.975,527.6 229.5,532.5C 228.681,535.305 228.181,538.305 228,541.5C 226.67,542.582 225.17,543.249 223.5,543.5C 224.514,534.586 226.181,525.919 228.5,517.5C 229.833,515.697 230.667,513.031 231,509.5C 231.81,505.642 231.643,501.976 230.5,498.5C 230.821,492.974 230.488,487.64 229.5,482.5C 227.411,479.563 225.911,476.23 225,472.5C 224.499,468.49 223.999,464.49 223.5,460.5 Z"/></g>
<g><path style="opacity:1" fill="#174339" d="M 132.5,476.5 C 129.925,480.419 126.925,484.085 123.5,487.5C 122.358,490.399 121.692,493.399 121.5,496.5C 120.833,496.833 120.167,497.167 119.5,497.5C 119.649,496.448 119.483,495.448 119,494.5C 115.775,496.597 113.775,499.597 113,503.5C 112.333,502.833 111.667,502.167 111,501.5C 106.836,502.992 105.669,505.325 107.5,508.5C 104.496,511.279 101.162,511.946 97.5,510.5C 95.1807,511.064 92.8474,511.564 90.5,512C 89.0227,515.195 88.3561,518.362 88.5,521.5C 90.0026,522.052 91.6693,522.052 93.5,521.5C 93.3398,519.801 93.5065,518.134 94,516.5C 94.6667,517.167 95.3333,517.833 96,518.5C 97.3958,514.324 98.8958,513.991 100.5,517.5C 97.9899,521.315 95.9899,525.315 94.5,529.5C 93.5,529.5 92.5,529.5 91.5,529.5C 91.67,530.822 91.3366,531.989 90.5,533C 87.4725,534.357 84.4725,534.524 81.5,533.5C 80.9717,532.153 80.805,530.819 81,529.5C 81.3333,529.833 81.6667,530.167 82,530.5C 83.0672,529.057 84.2338,527.724 85.5,526.5C 83.1945,524.314 83.1945,521.981 85.5,519.5C 83.8333,518.5 82.5,517.167 81.5,515.5C 84.4658,513.201 87.1325,510.534 89.5,507.5C 89.3333,506.833 89.1667,506.167 89,505.5C 87.9887,506.337 86.8221,506.67 85.5,506.5C 85.5,505.167 85.5,503.833 85.5,502.5C 89.9855,502.17 94.3188,502.17 98.5,502.5C 101.45,501.365 104.45,500.198 107.5,499C 106.167,498.333 106.167,497.667 107.5,497C 112.915,496.089 115.582,492.922 115.5,487.5C 122,483.845 127.5,478.845 132,472.5C 132.49,473.793 132.657,475.127 132.5,476.5 Z"/></g>
<g><path style="opacity:1" fill="#4c5350" d="M 117.5,501.5 C 117.278,506.242 115.111,509.909 111,512.5C 107.828,520.192 103.661,527.192 98.5,533.5C 96.1175,535.046 93.4509,535.713 90.5,535.5C 92.1023,533.301 93.9357,531.301 96,529.5C 96.3333,528.167 96.6667,526.833 97,525.5C 100.835,521.151 104.169,516.484 107,511.5C 110.39,507.941 113.89,504.608 117.5,501.5 Z"/></g>
<g><path style="opacity:1" fill="#777d7b" d="M 98.5,533.5 C 98.1412,535.371 97.1412,536.871 95.5,538C 90.0147,539.011 85.0147,538.178 80.5,535.5C 83.8333,535.5 87.1667,535.5 90.5,535.5C 93.4509,535.713 96.1175,535.046 98.5,533.5 Z"/></g>
<g><path style="opacity:1" fill="#8d8b8c" d="M 229.5,532.5 C 229.666,537.511 229.499,542.511 229,547.5C 228.667,547.833 228.333,548.167 228,548.5C 225.521,546.686 223.021,545.019 220.5,543.5C 221.5,543.5 222.5,543.5 223.5,543.5C 225.17,543.249 226.67,542.582 228,541.5C 228.181,538.305 228.681,535.305 229.5,532.5 Z"/></g>
</svg>
