<?xml version="1.0" encoding="UTF-8"?>
<!DOCTYPE svg PUBLIC "-//W3C//DTD SVG 1.1//EN" "http://www.w3.org/Graphics/SVG/1.1/DTD/svg11.dtd">
<svg xmlns="http://www.w3.org/2000/svg" version="1.1" width="397px" height="449px" style="shape-rendering:geometricPrecision; text-rendering:geometricPrecision; image-rendering:optimizeQuality; fill-rule:evenodd; clip-rule:evenodd" xmlns:xlink="http://www.w3.org/1999/xlink">
<g><path style="opacity:1" fill="#fefefe" d="M -0.5,-0.5 C 131.833,-0.5 264.167,-0.5 396.5,-0.5C 396.5,149.167 396.5,298.833 396.5,448.5C 264.167,448.5 131.833,448.5 -0.5,448.5C -0.5,298.833 -0.5,149.167 -0.5,-0.5 Z"/></g>
<g><path style="opacity:1" fill="#1c1c1c" d="M 113.5,35.5 C 116.272,35.5952 118.272,36.9285 119.5,39.5C 115.161,41.5744 113.161,40.2411 113.5,35.5 Z"/></g>
<g><path style="opacity:1" fill="#121212" d="M 86.5,38.5 C 87.6935,38.9704 88.3601,39.9704 88.5,41.5C 87.8246,44.1778 87.158,46.8445 86.5,49.5C 88.5,49.1667 90.5,48.8333 92.5,48.5C 92.3575,52.5453 92.3575,56.3786 92.5,60C 90.7718,63.3059 89.4385,63.1393 88.5,59.5C 89.5284,57.4401 89.5284,55.4401 88.5,53.5C 86.2079,52.6906 84.0412,52.3573 82,52.5C 83.9537,48.1343 85.4537,43.4677 86.5,38.5 Z"/></g>
<g><path style="opacity:1" fill="#191919" d="M 95.5,39.5 C 99.1352,40.1143 102.802,40.4476 106.5,40.5C 105.516,43.8119 104.516,47.1452 103.5,50.5C 106.111,52.7984 105.611,54.4651 102,55.5C 101.997,58.7585 100.83,61.4251 98.5,63.5C 97.5505,61.4016 97.5505,59.235 98.5,57C 97.6216,55.1999 96.955,53.3666 96.5,51.5C 99.8496,51.3487 101.516,49.5154 101.5,46C 101.415,44.8926 101.081,43.8926 100.5,43C 98.8659,42.5065 97.1992,42.3398 95.5,42.5C 95.5,41.5 95.5,40.5 95.5,39.5 Z"/></g>
<g><path style="opacity:1" fill="#141414" d="M 129.5,55.5 C 129.662,53.4727 129.495,51.4727 129,49.5C 127.812,50.5634 127.312,51.8967 127.5,53.5C 126.923,54.7733 126.257,54.7733 125.5,53.5C 125.167,52.1667 124.833,50.8333 124.5,49.5C 123.05,50.8498 122.383,52.5165 122.5,54.5C 121.178,54.67 120.011,54.3366 119,53.5C 116.034,56.2652 113.367,55.9318 111,52.5C 109.533,47.4329 111.199,44.0996 116,42.5C 119.672,43.9115 123.505,44.9115 127.5,45.5C 130.989,44.1799 132.822,45.5132 133,49.5C 135.941,44.7876 139.108,44.4542 142.5,48.5C 142.333,49.1667 142.167,49.8333 142,50.5C 135.98,51.8808 136.147,52.5474 142.5,52.5C 142.5,53.5 142.5,54.5 142.5,55.5C 138.207,56.4644 135.04,55.1311 133,51.5C 132.502,53.5444 131.335,54.8777 129.5,55.5 Z"/></g>
<g><path style="opacity:1" fill="#161616" d="M 160.5,43.5 C 161.239,43.369 161.906,43.5357 162.5,44C 163.956,45.7448 165.289,47.5781 166.5,49.5C 169.112,48.2213 171.445,46.5547 173.5,44.5C 174.086,44.7093 174.586,45.0426 175,45.5C 174.834,53.4986 174.334,61.4986 173.5,69.5C 172.5,69.5 171.5,69.5 170.5,69.5C 170.725,63.145 170.892,56.8116 171,50.5C 169.491,52.9193 167.325,53.9193 164.5,53.5C 164.716,51.3193 163.883,49.6526 162,48.5C 160.599,54.7256 159.766,61.0589 159.5,67.5C 158.5,67.5 157.5,67.5 156.5,67.5C 157.184,59.3435 158.518,51.3435 160.5,43.5 Z"/></g>
<g><path style="opacity:1" fill="#dbdbdb" d="M 115.5,45.5 C 116.773,46.0768 116.773,46.7435 115.5,47.5C 114.537,47.0302 114.537,46.3635 115.5,45.5 Z"/></g>
<g><path style="opacity:1" fill="#151515" d="M 189.5,47.5 C 191.484,47.484 192.484,48.484 192.5,50.5C 191.731,53.1147 191.397,55.7814 191.5,58.5C 193.936,58.317 196.103,58.9837 198,60.5C 198.044,63.4752 197.877,66.4752 197.5,69.5C 196.5,69.5 195.5,69.5 194.5,69.5C 194.664,66.8127 194.497,64.146 194,61.5C 191.056,63.3723 189.889,66.039 190.5,69.5C 189.5,69.5 188.5,69.5 187.5,69.5C 187.395,62.0882 188.062,54.7549 189.5,47.5 Z"/></g>
<g><path style="opacity:1" fill="#b0b0b0" d="M 118.5,48.5 C 120.048,48.8212 120.715,49.8212 120.5,51.5C 118.738,51.3573 117.071,51.6906 115.5,52.5C 114.692,52.1924 114.025,51.6924 113.5,51C 115.491,50.6264 117.158,49.793 118.5,48.5 Z"/></g>
<g><path style="opacity:1" fill="#818181" d="M 129.5,55.5 C 128.833,54.8333 128.167,54.1667 127.5,53.5C 127.312,51.8967 127.812,50.5634 129,49.5C 129.495,51.4727 129.662,53.4727 129.5,55.5 Z"/></g>
<g><path style="opacity:1" fill="#0f0f0f" d="M 179.5,54.5 C 185.218,53.9741 187.218,56.3075 185.5,61.5C 183.257,62.4742 180.924,62.8076 178.5,62.5C 178.116,64.6648 178.783,66.3315 180.5,67.5C 182.331,66.0706 184.331,65.5706 186.5,66C 184.047,69.4385 180.881,70.2718 177,68.5C 174.541,63.203 175.375,58.5363 179.5,54.5 Z"/></g>
<g><path style="opacity:1" fill="#1c1c1c" d="M 273.5,64.5 C 273.606,67.0786 272.939,69.412 271.5,71.5C 268.01,75.4587 263.676,76.4587 258.5,74.5C 256.829,72.4902 256.162,70.1569 256.5,67.5C 259.109,67.8301 260.776,69.3301 261.5,72C 267.294,73.5225 270.127,71.3558 270,65.5C 267.649,64.2857 265.149,63.4523 262.5,63C 258.922,60.4191 258.922,57.5858 262.5,54.5C 264.707,52.6904 267.041,52.357 269.5,53.5C 267.668,54.2485 266.001,55.2485 264.5,56.5C 263.417,57.365 263.251,58.365 264,59.5C 267.604,60.5202 270.77,62.1868 273.5,64.5 Z"/></g>
<g><path style="opacity:1" fill="#878787" d="M 181.5,57.5 C 183.337,57.6395 183.67,58.3061 182.5,59.5C 181.702,59.0431 181.369,58.3764 181.5,57.5 Z"/></g>
<g><path style="opacity:1" fill="#131313" d="M 201.5,56.5 C 206.632,56.0607 209.299,58.394 209.5,63.5C 209.003,65.8183 208.67,68.1516 208.5,70.5C 201.345,72.061 198.511,69.3943 200,62.5C 201.825,61.8971 203.659,61.2304 205.5,60.5C 204.224,59.3554 202.891,59.3554 201.5,60.5C 200.374,59.1916 200.374,57.8583 201.5,56.5 Z"/></g>
<g><path style="opacity:1" fill="#181818" d="M 214.5,68.5 C 213.735,69.6602 212.735,70.6602 211.5,71.5C 210.752,66.0583 211.419,60.7249 213.5,55.5C 214.492,59.7828 214.826,64.1161 214.5,68.5 Z"/></g>
<g><path style="opacity:1" fill="#121212" d="M 225.5,60.5 C 225.5,61.8333 225.5,63.1667 225.5,64.5C 225.159,67.5618 223.492,69.7284 220.5,71C 226.05,74.7607 225.55,77.594 219,79.5C 217.667,78.8333 216.333,78.1667 215,77.5C 215.412,74.4512 215.245,71.4512 214.5,68.5C 215.271,63.9912 217.771,60.6579 222,58.5C 222.816,59.8228 223.983,60.4894 225.5,60.5 Z"/></g>
<g><path style="opacity:1" fill="#121212" d="M 229.5,60.5 C 233.044,60.2388 234.878,61.9055 235,65.5C 236.848,60.5835 240.014,59.4168 244.5,62C 245.517,63.0495 245.684,64.2161 245,65.5C 243.4,66.8659 241.567,67.8659 239.5,68.5C 241.006,69.7472 242.506,69.7472 244,68.5C 246.072,71.2955 245.239,72.6289 241.5,72.5C 239.088,72.5938 237.255,71.5938 236,69.5C 235.632,70.91 234.799,71.91 233.5,72.5C 232.081,70.0415 231.081,67.3749 230.5,64.5C 228.717,66.0225 228.051,68.0225 228.5,70.5C 227.5,70.5 226.5,70.5 225.5,70.5C 225.5,69.1667 225.5,67.8333 225.5,66.5C 226.325,64.1898 227.658,62.1898 229.5,60.5 Z"/></g>
<g><path style="opacity:1" fill="#d7d7d7" d="M 220.5,62.5 C 222.62,63.85 222.453,65.5167 220,67.5C 218.697,65.9465 218.864,64.2799 220.5,62.5 Z"/></g>
<g><path style="opacity:1" fill="#7b7b7b" d="M 225.5,60.5 C 226.833,60.5 228.167,60.5 229.5,60.5C 227.658,62.1898 226.325,64.1898 225.5,66.5C 225.5,65.8333 225.5,65.1667 225.5,64.5C 225.5,63.1667 225.5,61.8333 225.5,60.5 Z"/></g>
<g><path style="opacity:1" fill="#dedede" d="M 203.5,64.5 C 205.048,64.8212 205.715,65.8212 205.5,67.5C 202.752,67.5983 202.086,66.5983 203.5,64.5 Z"/></g>
<g><path style="opacity:1" fill="#333333" d="M 249.5,64.5 C 256.024,66.2102 256.024,67.0436 249.5,67C 248.402,66.2303 248.402,65.397 249.5,64.5 Z"/></g>
<g><path style="opacity:1" fill="#151515" d="M 272.5,71.5 C 274.308,70.0927 276.308,68.926 278.5,68C 276.881,67.7645 275.881,66.9311 275.5,65.5C 277.936,63.9829 280.102,64.3162 282,66.5C 282.498,69.8168 282.665,73.1501 282.5,76.5C 279.482,76.6646 276.482,76.498 273.5,76C 272.62,74.6439 272.286,73.1439 272.5,71.5 Z"/></g>
<g><path style="opacity:1" fill="#191919" d="M 299.5,76.5 C 298.518,77.1408 297.518,77.8075 296.5,78.5C 296.047,75.4818 295.713,72.4818 295.5,69.5C 294.012,71.1493 293.012,73.1493 292.5,75.5C 291.833,75.8333 291.167,76.1667 290.5,76.5C 289.686,74.2338 289.186,71.9005 289,69.5C 288.654,71.2182 288.154,72.8849 287.5,74.5C 286.167,75.8333 284.833,75.8333 283.5,74.5C 284.213,72.2241 284.713,69.8907 285,67.5C 289.469,66.1894 293.969,66.1894 298.5,67.5C 299.696,68.5594 300.363,69.8927 300.5,71.5C 299.954,73.1347 299.62,74.8014 299.5,76.5 Z"/></g>
<g><path style="opacity:1" fill="#b8b8b8" d="M 273.5,64.5 C 274.167,64.8333 274.833,65.1667 275.5,65.5C 275.881,66.9311 276.881,67.7645 278.5,68C 276.308,68.926 274.308,70.0927 272.5,71.5C 272.167,71.5 271.833,71.5 271.5,71.5C 272.939,69.412 273.606,67.0786 273.5,64.5 Z"/></g>
<g><path style="opacity:1" fill="#151515" d="M 299.5,76.5 C 301.949,77.0574 304.282,77.0574 306.5,76.5C 304.563,75.2557 302.896,73.7557 301.5,72C 303.22,68.5351 305.887,67.7018 309.5,69.5C 308.5,70.1667 307.5,70.8333 306.5,71.5C 307.815,73.3159 309.315,74.9825 311,76.5C 311.79,70.8763 314.957,69.0429 320.5,71C 322.138,74.0571 323.471,74.0571 324.5,71C 329.342,69.4821 331.676,71.4821 331.5,77C 331.167,78.5 330.833,80 330.5,81.5C 329.346,71.5678 327.346,71.2344 324.5,80.5C 323.914,80.7093 323.414,81.0426 323,81.5C 322.667,80.1667 322.333,78.8333 322,77.5C 318,82.8333 314,82.8333 310,77.5C 305.98,80.4663 302.48,80.133 299.5,76.5 Z"/></g>
<g><path style="opacity:1" fill="#cfcfcf" d="M 277.5,70.5 C 278.776,71.3864 278.776,72.3864 277.5,73.5C 276.438,72.5754 276.438,71.5754 277.5,70.5 Z"/></g>
<g><path style="opacity:1" fill="#f1f1f1" d="M 316.5,72.5 C 318.951,74.2098 318.951,76.2098 316.5,78.5C 315.306,76.4844 315.306,74.4844 316.5,72.5 Z"/></g>
<g><path style="opacity:1" fill="#c6c6c6" d="M 218.5,73.5 C 220.337,73.6395 220.67,74.3061 219.5,75.5C 218.702,75.0431 218.369,74.3764 218.5,73.5 Z"/></g>
<g><path style="opacity:1" fill="#0a0a0a" d="M 140.5,75.5 C 142.144,75.2865 143.644,75.6198 145,76.5C 146.647,81.1129 146.813,85.7795 145.5,90.5C 141.082,92.7166 136.416,94.05 131.5,94.5C 131.357,99.1173 133.024,99.784 136.5,96.5C 137.086,96.7093 137.586,97.0426 138,97.5C 138.667,101.167 138.667,104.833 138,108.5C 136.559,109.26 135.059,109.926 133.5,110.5C 132.833,114.5 132.167,118.5 131.5,122.5C 127.86,123.52 124.194,124.02 120.5,124C 119.524,113.88 118.524,103.713 117.5,93.5C 117.833,90.5 118.167,87.5 118.5,84.5C 125.689,80.8975 133.022,77.8975 140.5,75.5 Z"/></g>
<g><path style="opacity:1" fill="#080808" d="M 184.5,85.5 C 195.822,86.7556 199.655,93.0889 196,104.5C 194.978,105.354 194.145,106.354 193.5,107.5C 196.522,109.688 199.022,112.355 201,115.5C 202.009,117.025 202.509,118.692 202.5,120.5C 198.719,121.487 195.219,123.154 192,125.5C 189.923,122.439 187.756,119.439 185.5,116.5C 184.526,118.743 184.192,121.076 184.5,123.5C 180.116,123.826 175.783,123.492 171.5,122.5C 170.814,120.936 170.981,119.269 172,117.5C 172.55,108.471 173.383,99.4709 174.5,90.5C 177.657,88.2546 180.991,86.5879 184.5,85.5 Z"/></g>
<g><path style="opacity:1" fill="#090909" d="M 254.5,117.5 C 254.369,118.376 254.702,119.043 255.5,119.5C 256.466,117.604 256.799,115.604 256.5,113.5C 257.167,107.167 257.833,100.833 258.5,94.5C 262.5,94.5 266.5,94.5 270.5,94.5C 269.143,101.405 267.477,108.238 265.5,115C 265.905,115.945 266.572,116.612 267.5,117C 269.708,117.191 271.708,117.691 273.5,118.5C 273.658,121.902 273.324,125.236 272.5,128.5C 271.551,129.152 270.385,129.486 269,129.5C 264.553,128.429 260.053,127.763 255.5,127.5C 255.662,125.473 255.495,123.473 255,121.5C 254.506,123.134 254.34,124.801 254.5,126.5C 249.07,126.839 243.736,126.339 238.5,125C 237.177,124.184 236.511,123.017 236.5,121.5C 237.616,114.354 238.283,107.02 238.5,99.5C 238.357,97.7376 238.691,96.0709 239.5,94.5C 242.768,93.513 246.102,93.1796 249.5,93.5C 249.506,101.026 249.172,108.359 248.5,115.5C 250.898,115.259 252.898,115.926 254.5,117.5 Z"/></g>
<g><path style="opacity:1" fill="#090909" d="M 237.5,99.5 C 236.064,105.947 235.397,112.614 235.5,119.5C 234.766,120.878 234.099,122.378 233.5,124C 231.19,124.497 228.857,124.663 226.5,124.5C 226.746,117.482 226.913,110.482 227,103.5C 223.387,109.889 219.887,116.389 216.5,123C 212.797,123.579 209.131,123.412 205.5,122.5C 203.638,115.404 201.305,108.404 198.5,101.5C 200.904,98.9346 203.738,96.9346 207,95.5C 207.873,95.7355 208.707,96.0688 209.5,96.5C 210.815,98.769 211.982,101.102 213,103.5C 215.007,100.664 217.174,97.9971 219.5,95.5C 221.793,97.2299 224.293,98.5633 227,99.5C 227.717,96.7846 229.217,94.6179 231.5,93C 229.513,88.3205 231.013,85.4872 236,84.5C 240.303,87.5734 239.803,90.4067 234.5,93C 236.919,94.5088 237.919,96.6755 237.5,99.5 Z"/></g>
<g><path style="opacity:1" fill="#e1e1e1" d="M 183.5,95.5 C 188.699,97.1767 188.533,98.8434 183,100.5C 182.5,100.167 182,99.8333 181.5,99.5C 182.18,98.1401 182.847,96.8068 183.5,95.5 Z"/></g>
<g><path style="opacity:1" fill="#090909" d="M 274.5,128.5 C 274.5,126.167 274.5,123.833 274.5,121.5C 275.693,113.505 277.36,105.505 279.5,97.5C 284.683,96.3757 289.849,95.3757 295,94.5C 297.44,97.7088 298.107,101.375 297,105.5C 293.541,106.133 290.041,106.8 286.5,107.5C 286.167,108.167 285.833,108.833 285.5,109.5C 287.766,110.432 289.766,111.766 291.5,113.5C 291.192,117.31 289.192,119.477 285.5,120C 289.199,120.334 292.699,120.501 296,120.5C 296.048,124.539 295.548,128.539 294.5,132.5C 287.339,132.986 280.672,131.653 274.5,128.5 Z"/></g>
<g><path style="opacity:1" fill="#0a0a0a" d="M 152.5,96.5 C 166.228,97.0301 171.061,103.697 167,116.5C 158.219,126.448 150.552,125.782 144,114.5C 142.3,106.237 145.133,100.237 152.5,96.5 Z"/></g>
<g><path style="opacity:1" fill="#f6f6f6" d="M 157.5,108.5 C 160.001,108.511 160.168,109.178 158,110.5C 157.536,109.906 157.369,109.239 157.5,108.5 Z"/></g>
<g><path style="opacity:1" fill="#bebebe" d="M 237.5,99.5 C 237.833,99.5 238.167,99.5 238.5,99.5C 238.283,107.02 237.616,114.354 236.5,121.5C 236.672,120.508 236.338,119.842 235.5,119.5C 235.397,112.614 236.064,105.947 237.5,99.5 Z"/></g>
<g><path style="opacity:1" fill="#656565" d="M 256.5,113.5 C 256.799,115.604 256.466,117.604 255.5,119.5C 254.702,119.043 254.369,118.376 254.5,117.5C 255.167,116.167 255.833,114.833 256.5,113.5 Z"/></g>
<g><path style="opacity:1" fill="#909090" d="M 273.5,118.5 C 274.404,119.209 274.737,120.209 274.5,121.5C 274.5,123.833 274.5,126.167 274.5,128.5C 273.833,128.5 273.167,128.5 272.5,128.5C 273.324,125.236 273.658,121.902 273.5,118.5 Z"/></g>
<g><path style="opacity:1" fill="#fafafa" d="M 128.5,209.5 C 128.734,213.346 130.401,216.346 133.5,218.5C 136.774,224.201 140.441,229.701 144.5,235C 138.543,239.204 132.376,243.037 126,246.5C 120.127,240.142 115.293,233.142 111.5,225.5C 115.895,218.77 121.562,213.437 128.5,209.5 Z"/></g>
<g><path style="opacity:1" fill="#eeeeee" d="M 146.5,228.5 C 145.577,229.303 144.577,229.47 143.5,229C 140.371,225.227 137.371,221.394 134.5,217.5C 133.134,214.2 134.134,213.2 137.5,214.5C 139.843,217.207 142.177,219.874 144.5,222.5C 145.747,224.323 146.414,226.323 146.5,228.5 Z"/></g>
<g><path style="opacity:1" fill="#171717" d="M 125.5,208.5 C 126.791,208.263 127.791,208.596 128.5,209.5C 121.562,213.437 115.895,218.77 111.5,225.5C 115.293,233.142 120.127,240.142 126,246.5C 132.376,243.037 138.543,239.204 144.5,235C 140.441,229.701 136.774,224.201 133.5,218.5C 133.5,217.833 133.833,217.5 134.5,217.5C 137.371,221.394 140.371,225.227 143.5,229C 144.577,229.47 145.577,229.303 146.5,228.5C 147.167,228.5 147.5,228.833 147.5,229.5C 147.513,232.69 148.513,235.524 150.5,238C 150.241,239.261 149.574,240.261 148.5,241C 140.607,246.114 132.274,250.447 123.5,254C 120.833,256.667 118.167,259.333 115.5,262C 110.547,264.315 106.214,267.315 102.5,271C 102.957,271.414 103.291,271.914 103.5,272.5C 96.5939,272.975 89.5939,273.475 82.5,274C 85.5687,272.154 88.9021,271.154 92.5,271C 91.944,270.617 91.6107,270.117 91.5,269.5C 93.4649,268.871 95.4649,268.204 97.5,267.5C 100.724,270.49 103.391,270.157 105.5,266.5C 112.573,261.933 118.906,256.433 124.5,250C 122.003,248.554 119.503,246.387 117,243.5C 113.552,238.215 110.552,233.215 108,228.5C 92.3635,238.294 79.6968,250.961 70,266.5C 69.219,284.117 76.3857,297.617 91.5,307C 101.39,317.725 112.057,327.559 123.5,336.5C 123.167,336.833 122.833,337.167 122.5,337.5C 120.269,336.097 117.936,334.93 115.5,334C 103.351,321.186 90.5173,309.019 77,297.5C 70.2597,287.87 67.2597,277.204 68,265.5C 72.525,258.437 77.525,251.771 83,245.5C 94.228,237.408 104.561,228.408 114,218.5C 117.429,214.561 121.263,211.228 125.5,208.5 Z"/></g>
<g><path style="opacity:1" fill="#dedede" d="M 144.5,237.5 C 145.552,237.351 146.552,237.517 147.5,238C 142.966,242.597 137.632,245.264 131.5,246C 135.932,243.131 140.265,240.297 144.5,237.5 Z"/></g>
<g><path style="opacity:1" fill="#141414" d="M 239.5,370.5 C 238.116,371.801 236.616,371.801 235,370.5C 234.005,371.066 233.172,371.733 232.5,372.5C 225.912,373.55 225.912,375.05 232.5,377C 229.097,377.738 225.93,377.238 223,375.5C 222.167,375.833 221.333,376.167 220.5,376.5C 214.561,385.217 210.894,394.884 209.5,405.5C 211.857,405.337 214.19,405.503 216.5,406C 217.337,407.011 217.67,408.178 217.5,409.5C 214.518,409.896 211.851,409.229 209.5,407.5C 208.495,411.479 208.495,415.479 209.5,419.5C 208.732,418.737 208.232,417.737 208,416.5C 207.322,418.598 207.489,420.598 208.5,422.5C 205.867,424.777 204.534,427.777 204.5,431.5C 202.801,431.66 201.134,431.494 199.5,431C 197.72,427.715 195.72,424.548 193.5,421.5C 191.389,424.208 189.389,427.041 187.5,430C 185.934,430.765 184.601,430.598 183.5,429.5C 186.714,428.724 188.214,426.724 188,423.5C 185.937,425.734 183.771,427.734 181.5,429.5C 180.425,430.562 179.425,430.562 178.5,429.5C 181.184,426.131 183.351,422.464 185,418.5C 186.074,417.382 187.24,416.382 188.5,415.5C 184.297,407.281 179.63,399.281 174.5,391.5C 171.656,389.002 169.656,386.002 168.5,382.5C 168.44,381.957 168.107,381.624 167.5,381.5C 166.511,385.107 166.177,388.774 166.5,392.5C 164.748,400.179 162.082,407.512 158.5,414.5C 158.167,413.833 157.833,413.167 157.5,412.5C 159.826,408.856 161.159,404.856 161.5,400.5C 160.167,400.5 158.833,400.5 157.5,400.5C 157.5,398.833 157.5,397.167 157.5,395.5C 158.833,395.5 160.167,395.5 161.5,395.5C 161.351,396.552 161.517,397.552 162,398.5C 163.044,396.285 163.71,393.952 164,391.5C 163.5,384.159 163.667,376.826 164.5,369.5C 164.333,367.833 164.167,366.167 164,364.5C 161.771,367.156 159.938,366.823 158.5,363.5C 159.285,360.847 160.785,360.18 163,361.5C 163.667,359.833 163.667,358.167 163,356.5C 160.668,356.436 158.168,356.269 155.5,356C 150.089,360.418 144.423,364.418 138.5,368C 137.167,368.667 135.833,368.667 134.5,368C 136.7,365.766 138.533,363.266 140,360.5C 143.286,350.025 145.619,339.359 147,328.5C 149.086,323.833 151.586,319.333 154.5,315C 146.432,311.937 139.099,307.603 132.5,302C 118.416,297.249 109.082,287.916 104.5,274C 104.833,273.167 105.167,272.333 105.5,271.5C 108.44,279.871 113.106,287.038 119.5,293C 129.499,297.662 138.833,303.329 147.5,310C 153.389,312.813 158.389,311.813 162.5,307C 166.541,306.827 170.541,306.327 174.5,305.5C 177.679,291.887 179.679,278.054 180.5,264C 180.142,258.043 179.642,251.876 179,245.5C 175.781,241.038 172.114,237.038 168,233.5C 165.609,230.667 163.776,227.5 162.5,224C 157.139,224.733 152.139,226.566 147.5,229.5C 147.5,228.833 147.167,228.5 146.5,228.5C 146.414,226.323 145.747,224.323 144.5,222.5C 142.177,219.874 139.843,217.207 137.5,214.5C 134.134,213.2 133.134,214.2 134.5,217.5C 133.833,217.5 133.5,217.833 133.5,218.5C 130.401,216.346 128.734,213.346 128.5,209.5C 127.791,208.596 126.791,208.263 125.5,208.5C 126.659,206.623 128.326,206.123 130.5,207C 131.05,208.845 132.05,210.345 133.5,211.5C 136.812,209.355 139.646,206.688 142,203.5C 141.253,201.024 139.919,198.691 138,196.5C 137.667,193.833 137.333,191.167 137,188.5C 130.264,188.407 123.43,188.24 116.5,188C 111.331,185.8 111.331,183.467 116.5,181C 130.123,177.126 143.456,172.459 156.5,167C 156.693,162.601 156.859,158.101 157,153.5C 160.696,150.575 164.029,150.908 167,154.5C 168.748,147.762 170.748,141.095 173,134.5C 176.088,131.687 179.755,130.021 184,129.5C 192.598,130.473 200.431,133.307 207.5,138C 211.195,138.318 214.862,138.818 218.5,139.5C 227.847,137.117 236.513,138.45 244.5,143.5C 245.681,144.515 246.681,145.681 247.5,147C 248.826,151.459 249.993,155.959 251,160.5C 252.333,161.833 253.667,163.167 255,164.5C 256.124,169.418 255.291,173.918 252.5,178C 259.137,183.152 266.471,186.985 274.5,189.5C 287.147,186.16 288.813,189.327 279.5,199C 275.583,200.479 271.583,201.646 267.5,202.5C 265.903,211.264 260.737,216.597 252,218.5C 249.739,218.561 247.739,217.894 246,216.5C 243.231,226.483 238.398,235.316 231.5,243C 228.873,244.897 226.039,246.397 223,247.5C 221.874,250.77 221.707,253.603 222.5,256C 221.833,261.667 221.167,267.333 220.5,273C 221.022,273.561 221.355,274.228 221.5,275C 220.661,286.477 219.994,297.977 219.5,309.5C 220.873,309.343 222.207,309.51 223.5,310C 225.833,313 228.167,316 230.5,319C 232.952,319.29 235.285,319.956 237.5,321C 245.097,326.127 252.764,330.961 260.5,335.5C 260.167,335.833 259.833,336.167 259.5,336.5C 251.165,333.583 243.665,329.25 237,323.5C 236.333,324.167 236.333,324.833 237,325.5C 239.333,326.5 241,328.167 242,330.5C 243.879,340.434 244.879,350.434 245,360.5C 243.745,364.229 241.912,367.562 239.5,370.5 Z"/></g>
<g><path style="opacity:1" fill="#cccccc" d="M 165.5,218.5 C 166.765,219.514 167.431,221.014 167.5,223C 167.333,224.5 167.167,226 167,227.5C 166.546,225.464 165.713,223.63 164.5,222C 164.989,220.862 165.322,219.695 165.5,218.5 Z"/></g>
<g><path style="opacity:1" fill="#828282" d="M 174.5,210.5 C 175.043,210.56 175.376,210.893 175.5,211.5C 174.295,213.138 172.962,213.471 171.5,212.5C 172.602,211.824 173.602,211.158 174.5,210.5 Z"/></g>
<g><path style="opacity:1" fill="#fafafa" d="M 194.5,207.5 C 205.411,206.246 215.745,208.08 225.5,213C 231.612,217.333 233.779,223.166 232,230.5C 226.572,244.389 216.405,250.056 201.5,247.5C 187.503,250.754 178.003,245.754 173,232.5C 170.763,222.504 173.93,215.004 182.5,210C 186.699,209.472 190.699,208.639 194.5,207.5 Z"/></g>
<g><path style="opacity:1" fill="#121212" d="M 211.5,220.5 C 215.225,220.78 216.392,222.78 215,226.5C 213.974,229.693 211.808,231.026 208.5,230.5C 209.101,227.032 210.101,223.699 211.5,220.5 Z"/></g>
<g><path style="opacity:1" fill="#080808" d="M 190.5,218.5 C 193.321,218.316 194.988,219.649 195.5,222.5C 194.975,224.988 194.142,227.321 193,229.5C 189.808,226.375 188.975,222.709 190.5,218.5 Z"/></g>
<g><path style="opacity:1" fill="#ececec" d="M 249.5,204.5 C 251.379,205.341 253.379,205.675 255.5,205.5C 255.817,208.572 255.484,211.572 254.5,214.5C 252.161,215.724 249.828,215.724 247.5,214.5C 248.347,212.939 248.014,211.439 246.5,210C 247.223,207.982 248.223,206.148 249.5,204.5 Z"/></g>
<g><path style="opacity:1" fill="#8f8f8f" d="M 186.5,201.5 C 186.539,202.583 186.873,203.583 187.5,204.5C 183.074,206.52 178.741,208.52 174.5,210.5C 171.833,209.5 171.833,208.5 174.5,207.5C 176.727,205.569 179.227,203.902 182,202.5C 182.333,203.167 182.667,203.833 183,204.5C 183.72,202.944 184.887,201.944 186.5,201.5 Z"/></g>
<g><path style="opacity:1" fill="#e0e0e0" d="M 260.5,202.5 C 262.288,202.215 263.955,202.548 265.5,203.5C 264.739,207.365 262.739,210.365 259.5,212.5C 258.146,208.979 258.48,205.646 260.5,202.5 Z"/></g>
<g><path style="opacity:1" fill="#d9d9d9" d="M 238.5,201.5 C 239.07,204.315 238.236,206.981 236,209.5C 235.517,208.552 235.351,207.552 235.5,206.5C 232.513,206.002 229.513,205.502 226.5,205C 228.345,203.872 230.345,203.372 232.5,203.5C 234.786,203.405 236.786,202.738 238.5,201.5 Z"/></g>
<g><path style="opacity:1" fill="#646464" d="M 238.5,200.5 C 238.5,200.833 238.5,201.167 238.5,201.5C 236.786,202.738 234.786,203.405 232.5,203.5C 233.167,202.833 233.833,202.167 234.5,201.5C 235.833,201.167 237.167,200.833 238.5,200.5 Z"/></g>
<g><path style="opacity:1" fill="#d8d8d8" d="M 207.5,201.5 C 208.833,201.5 210.167,201.5 211.5,201.5C 211.5,202.833 211.5,204.167 211.5,205.5C 209.326,205.08 207.326,205.08 205.5,205.5C 205.167,205.167 204.833,204.833 204.5,204.5C 205.993,203.859 206.993,202.859 207.5,201.5 Z"/></g>
<g><path style="opacity:1" fill="#aeaeae" d="M 254.5,200.5 C 257.137,202.154 256.803,202.654 253.5,202C 254.056,201.617 254.389,201.117 254.5,200.5 Z"/></g>
<g><path style="opacity:1" fill="#e1e1e1" d="M 235.5,198.5 C 237.099,198.232 238.432,198.566 239.5,199.5C 239.5,200.167 239.167,200.5 238.5,200.5C 237.167,200.833 235.833,201.167 234.5,201.5C 231.659,201.56 228.993,202.226 226.5,203.5C 225.737,202.732 224.737,202.232 223.5,202C 226.051,201.998 228.051,201.164 229.5,199.5C 228.537,198.637 228.537,197.97 229.5,197.5C 230.5,198 231.5,198.5 232.5,199C 231.304,199.654 231.304,200.154 232.5,200.5C 233.739,200.058 234.739,199.391 235.5,198.5 Z"/></g>
<g><path style="opacity:1" fill="#e0e0e0" d="M 216.5,197.5 C 219.398,201.103 218.732,201.936 214.5,200C 215.381,199.292 216.047,198.458 216.5,197.5 Z"/></g>
<g><path style="opacity:1" fill="#888888" d="M 236.5,195.5 C 238.167,195.5 239.833,195.5 241.5,195.5C 241.771,197.38 241.104,198.713 239.5,199.5C 238.432,198.566 237.099,198.232 235.5,198.5C 235.082,197.778 234.416,197.278 233.5,197C 234.737,196.768 235.737,196.268 236.5,195.5 Z"/></g>
<g><path style="opacity:1" fill="#292929" d="M 236.5,195.5 C 235.737,196.268 234.737,196.768 233.5,197C 234.416,197.278 235.082,197.778 235.5,198.5C 234.739,199.391 233.739,200.058 232.5,200.5C 231.304,200.154 231.304,199.654 232.5,199C 231.5,198.5 230.5,198 229.5,197.5C 228.537,197.97 228.537,198.637 229.5,199.5C 228.85,199.804 228.183,200.137 227.5,200.5C 225.941,195.894 227.441,194.561 232,196.5C 232.333,195.5 232.667,194.5 233,193.5C 234.113,194.305 235.279,194.972 236.5,195.5 Z"/></g>
<g><path style="opacity:1" fill="#eaeaea" d="M 243.5,196.5 C 244.5,196.5 245.5,196.5 246.5,196.5C 245.529,205.652 243.696,214.652 241,223.5C 239.073,228.646 236.406,233.313 233,237.5C 233.569,233.916 234.069,230.25 234.5,226.5C 234.835,220.645 232.835,215.812 228.5,212C 225.467,210.822 222.801,209.156 220.5,207C 220.833,206.5 221.167,206 221.5,205.5C 224.839,206.668 228.172,207.834 231.5,209C 232.961,211.421 234.294,213.921 235.5,216.5C 236.325,217.386 237.325,217.719 238.5,217.5C 239.541,210.286 241.207,203.286 243.5,196.5 Z"/></g>
<g><path style="opacity:1" fill="#7a7a7a" d="M 211.5,193.5 C 212.167,194.167 212.833,194.833 213.5,195.5C 211.863,198.076 209.696,198.743 207,197.5C 206.517,196.552 206.351,195.552 206.5,194.5C 208.216,194.371 209.883,194.038 211.5,193.5 Z"/></g>
<g><path style="opacity:1" fill="#e3e3e3" d="M 186.5,201.5 C 184.887,201.944 183.72,202.944 183,204.5C 182.667,203.833 182.333,203.167 182,202.5C 179.227,203.902 176.727,205.569 174.5,207.5C 171.875,206.559 171.875,205.393 174.5,204C 172.235,200.479 173.235,197.812 177.5,196C 177.167,195.667 176.833,195.333 176.5,195C 179.612,194.375 181.445,192.542 182,189.5C 183.257,191.746 185.09,193.079 187.5,193.5C 187.33,196.553 186.997,199.22 186.5,201.5 Z"/></g>
<g><path style="opacity:1" fill="#cccccc" d="M 217.5,192.5 C 219.713,192.848 221.713,193.681 223.5,195C 222.473,195.513 221.473,196.013 220.5,196.5C 220.25,195.078 219.417,194.078 218,193.5C 216.53,194.267 215.03,194.933 213.5,195.5C 212.833,194.833 212.167,194.167 211.5,193.5C 213.435,192.85 215.435,192.517 217.5,192.5 Z"/></g>
<g><path style="opacity:1" fill="#656565" d="M 254.5,188.5 C 255.404,189.209 255.737,190.209 255.5,191.5C 257.415,191.216 259.081,191.549 260.5,192.5C 258.5,192.5 256.5,192.5 254.5,192.5C 254.5,191.167 254.5,189.833 254.5,188.5 Z"/></g>
<g><path style="opacity:1" fill="#999999" d="M 236.5,195.5 C 235.279,194.972 234.113,194.305 233,193.5C 232.667,194.5 232.333,195.5 232,196.5C 227.441,194.561 225.941,195.894 227.5,200.5C 228.183,200.137 228.85,199.804 229.5,199.5C 228.051,201.164 226.051,201.998 223.5,202C 224.737,202.232 225.737,202.732 226.5,203.5C 223.988,203.577 221.988,202.577 220.5,200.5C 223.071,199.095 223.071,197.762 220.5,196.5C 221.473,196.013 222.473,195.513 223.5,195C 221.713,193.681 219.713,192.848 217.5,192.5C 221.828,191.014 226.328,189.68 231,188.5C 233.047,190.356 235.38,191.689 238,192.5C 238.239,193.788 237.739,194.788 236.5,195.5 Z"/></g>
<g><path style="opacity:1" fill="#404040" d="M 229.5,190.5 C 230.922,190.709 232.255,191.209 233.5,192C 230.97,193.422 228.303,193.755 225.5,193C 227.437,192.878 228.77,192.045 229.5,190.5 Z"/></g>
<g><path style="opacity:1" fill="#e9e9e9" d="M 239.5,190.5 C 239.56,189.957 239.893,189.624 240.5,189.5C 250.324,194.222 260.657,195.722 271.5,194C 275.257,191.892 279.257,190.392 283.5,189.5C 282.493,192.358 280.827,194.858 278.5,197C 272.078,199.685 265.412,200.685 258.5,200C 252.14,196.82 245.807,193.653 239.5,190.5 Z"/></g>
<g><path style="opacity:1" fill="#cdcdcd" d="M 211.5,183.5 C 213.124,183.36 214.29,184.027 215,185.5C 217.443,184.715 219.943,184.881 222.5,186C 222.957,186.414 223.291,186.914 223.5,187.5C 221.269,187.887 218.936,188.053 216.5,188C 213.94,188.227 212.274,189.56 211.5,192C 206.999,192.663 206.665,192.163 210.5,190.5C 208.979,190.12 207.313,189.954 205.5,190C 206.833,189.333 206.833,188.667 205.5,188C 206.747,185.379 208.747,183.879 211.5,183.5 Z"/></g>
<g><path style="opacity:1" fill="#ececec" d="M 140.5,185.5 C 141.5,185.5 142.5,185.5 143.5,185.5C 143.441,189.548 145.108,192.715 148.5,195C 147.12,196.925 145.62,198.759 144,200.5C 139.549,196.3 138.382,191.3 140.5,185.5 Z"/></g>
<g><path style="opacity:1" fill="#e0e0e0" d="M 151.5,183.5 C 152.239,183.369 152.906,183.536 153.5,184C 147.867,187.739 148.534,189.739 155.5,190C 149.975,193.741 146.642,192.241 145.5,185.5C 147.786,185.405 149.786,184.738 151.5,183.5 Z"/></g>
<g><path style="opacity:1" fill="#eeeeee" d="M 260.5,192.5 C 259.081,191.549 257.415,191.216 255.5,191.5C 255.737,190.209 255.404,189.209 254.5,188.5C 253.27,186.703 252.604,184.703 252.5,182.5C 258.496,185.227 264.496,188.06 270.5,191C 267.173,191.61 263.839,192.11 260.5,192.5 Z"/></g>
<g><path style="opacity:1" fill="#f3f3f3" d="M 171.5,179.5 C 180.839,179.334 190.173,179.5 199.5,180C 202.289,180.241 204.956,180.908 207.5,182C 202.667,185.661 201.667,190.161 204.5,195.5C 203.568,197.795 202.735,200.129 202,202.5C 201.29,203.973 200.124,204.64 198.5,204.5C 198.998,200.781 198.164,197.447 196,194.5C 194.174,192.926 192.007,192.093 189.5,192C 186.66,189.799 184.16,187.299 182,184.5C 178.406,185.76 175.739,188.093 174,191.5C 171.885,195.969 170.218,200.636 169,205.5C 167.173,203.414 167.173,201.414 169,199.5C 169.667,194.833 169.667,190.167 169,185.5C 168.311,184.643 167.478,183.977 166.5,183.5C 164.677,184.747 162.677,185.414 160.5,185.5C 160.5,184.167 160.5,182.833 160.5,181.5C 164.387,181.354 168.054,180.687 171.5,179.5 Z"/></g>
<g><path style="opacity:1" fill="#e0e0e0" d="M 190.5,195.5 C 194.5,194.833 196.167,196.5 195.5,200.5C 193.473,200.662 191.473,200.495 189.5,200C 190.38,198.644 190.714,197.144 190.5,195.5 Z"/></g>
<g><path style="opacity:1" fill="#eeeeee" d="M 156.5,169.5 C 159.477,170.071 162.31,171.071 165,172.5C 169.016,170.879 173.183,170.379 177.5,171C 202.254,175.533 226.921,180.366 251.5,185.5C 251.421,186.93 251.754,188.264 252.5,189.5C 251.833,189.833 251.167,190.167 250.5,190.5C 241.603,187.021 232.603,183.687 223.5,180.5C 222.833,181.167 222.167,181.833 221.5,182.5C 205.539,177.56 189.206,175.727 172.5,177C 159.744,179.252 147.077,181.919 134.5,185C 128.141,185.831 121.807,185.664 115.5,184.5C 129.376,179.952 143.043,174.952 156.5,169.5 Z"/></g>
<g><path style="opacity:1" fill="#fbfbfb" d="M 178.5,132.5 C 185.01,132.07 191.344,132.903 197.5,135C 203.953,139.56 210.953,143.06 218.5,145.5C 218.833,145.167 219.167,144.833 219.5,144.5C 218.5,143.667 217.5,142.833 216.5,142C 223.5,141.333 230.5,141.333 237.5,142C 239.336,143.419 241.336,144.586 243.5,145.5C 245.693,150.304 247.359,155.304 248.5,160.5C 247.066,161.23 245.9,162.23 245,163.5C 243.915,169.181 242.748,174.848 241.5,180.5C 224.91,176.374 208.244,172.541 191.5,169C 186.583,166.582 181.416,164.749 176,163.5C 170.92,165.359 168.753,163.526 169.5,158C 170.447,148.677 173.447,140.177 178.5,132.5 Z"/></g>
<g><path style="opacity:1" fill="#f8f8f8" d="M 215.5,250.5 C 216.479,253.625 216.813,256.958 216.5,260.5C 213.911,263.854 212.244,267.687 211.5,272C 211.493,273.812 212.16,275.312 213.5,276.5C 215.149,275.352 216.649,274.019 218,272.5C 218.5,273 219,273.5 219.5,274C 218.549,277.057 218.216,280.223 218.5,283.5C 215.476,285.31 212.142,286.477 208.5,287C 205.049,289.278 203.049,292.445 202.5,296.5C 202.768,300.77 202.934,305.104 203,309.5C 207.686,313.188 212.019,317.188 216,321.5C 216.592,324.694 216.426,327.861 215.5,331C 217.027,337.436 217.527,343.936 217,350.5C 214.924,356.98 212.091,362.98 208.5,368.5C 207.883,370.321 207.716,372.321 208,374.5C 206.667,375.833 205.333,377.167 204,378.5C 202.706,383.084 200.873,387.418 198.5,391.5C 198.833,392.167 199.167,392.833 199.5,393.5C 197.756,396.585 195.922,399.585 194,402.5C 192.846,401.257 191.512,400.257 190,399.5C 189.316,394.447 187.65,389.78 185,385.5C 183.5,383.531 181.667,382.198 179.5,381.5C 178.833,380.833 178.167,380.167 177.5,379.5C 179.892,377.767 180.725,375.434 180,372.5C 178.735,367.892 176.569,363.725 173.5,360C 174,359.5 174.5,359 175,358.5C 175.325,354.39 176.158,350.39 177.5,346.5C 174.559,343.22 171.559,339.886 168.5,336.5C 173.152,331.331 176.318,325.331 178,318.5C 178.654,311.9 179.82,305.4 181.5,299C 181.273,296.381 180.607,293.881 179.5,291.5C 179.833,290.833 180.167,290.167 180.5,289.5C 181.5,290.833 182.5,292.167 183.5,293.5C 184.086,293.291 184.586,292.957 185,292.5C 185.243,284.924 186.076,277.424 187.5,270C 185.903,264.958 184.736,259.791 184,254.5C 181.518,252.59 181.018,250.257 182.5,247.5C 186.565,251.061 190.565,254.894 194.5,259C 204.054,262.217 211.054,259.384 215.5,250.5 Z"/></g>
<g><path style="opacity:1" fill="#8c8c8c" d="M 215.5,250.5 C 215.56,249.957 215.893,249.624 216.5,249.5C 217.808,253.315 217.808,256.981 216.5,260.5C 216.813,256.958 216.479,253.625 215.5,250.5 Z"/></g>
<g><path style="opacity:1" fill="#cecece" d="M 190.5,249.5 C 194.042,250.039 196.376,252.039 197.5,255.5C 198.438,256.553 199.605,257.22 201,257.5C 204.125,255.803 206.958,253.636 209.5,251C 210.332,250.312 210.998,250.479 211.5,251.5C 205.071,260.354 198.237,260.687 191,252.5C 190.517,251.552 190.351,250.552 190.5,249.5 Z"/></g>
<g><path style="opacity:1" fill="#8f8f8f" d="M 200.5,253.5 C 202.337,253.639 202.67,254.306 201.5,255.5C 200.702,255.043 200.369,254.376 200.5,253.5 Z"/></g>
<g><path style="opacity:1" fill="#393939" d="M 105.5,266.5 C 103.391,270.157 100.724,270.49 97.5,267.5C 95.4649,268.204 93.4649,268.871 91.5,269.5C 91.6107,268.883 91.944,268.383 92.5,268C 90.4233,267.808 88.4233,267.308 86.5,266.5C 87.8333,266.167 89.1667,265.833 90.5,265.5C 95.4736,266.255 100.474,266.589 105.5,266.5 Z"/></g>
<g><path style="opacity:1" fill="#bdbdbd" d="M 217.5,262.5 C 219.008,265.122 218.508,267.455 216,269.5C 215.5,269 215,268.5 214.5,268C 216.174,266.494 217.174,264.661 217.5,262.5 Z"/></g>
<g><path style="opacity:1" fill="#9d9d9d" d="M 182.5,264.5 C 184.293,266.426 185.293,268.759 185.5,271.5C 184.5,271.5 183.5,271.5 182.5,271.5C 182.5,269.167 182.5,266.833 182.5,264.5 Z"/></g>
<g><path style="opacity:1" fill="#242424" d="M 91.5,274.5 C 94.5184,274.335 97.5184,274.502 100.5,275C 97.1153,277.074 94.1153,276.907 91.5,274.5 Z"/></g>
<g><path style="opacity:1" fill="#717171" d="M 181.5,274.5 C 182.552,274.351 183.552,274.517 184.5,275C 182.772,281.048 181.772,280.882 181.5,274.5 Z"/></g>
<g><path style="opacity:1" fill="#dadada" d="M 214.5,305.5 C 213.833,305.833 213.167,306.167 212.5,306.5C 212.414,305.504 212.748,304.671 213.5,304C 204.236,303.485 204.236,302.652 213.5,301.5C 213.333,301.167 213.167,300.833 213,300.5C 210.565,300.357 208.065,300.69 205.5,301.5C 206.589,299.883 208.256,299.05 210.5,299C 204.974,296.974 204.308,293.974 208.5,290C 211.482,289.502 214.482,289.335 217.5,289.5C 217.665,293.182 217.499,296.848 217,300.5C 215.244,301.421 215.077,302.588 216.5,304C 216.164,305.03 215.497,305.53 214.5,305.5 Z"/></g>
<g><path style="opacity:1" fill="#646464" d="M 212.5,306.5 C 211.778,306.082 211.278,305.416 211,304.5C 209.301,305.406 207.467,305.739 205.5,305.5C 205.5,304.167 205.5,302.833 205.5,301.5C 208.065,300.69 210.565,300.357 213,300.5C 213.167,300.833 213.333,301.167 213.5,301.5C 204.236,302.652 204.236,303.485 213.5,304C 212.748,304.671 212.414,305.504 212.5,306.5 Z"/></g>
<g><path style="opacity:1" fill="#a7a7a7" d="M 212.5,306.5 C 213.167,306.167 213.833,305.833 214.5,305.5C 217.287,307.205 216.954,308.372 213.5,309C 214.5,309.333 215.5,309.667 216.5,310C 214.782,310.346 213.115,310.846 211.5,311.5C 210.396,310.369 210.729,309.535 212.5,309C 209.808,308.257 207.475,307.09 205.5,305.5C 207.467,305.739 209.301,305.406 211,304.5C 211.278,305.416 211.778,306.082 212.5,306.5 Z"/></g>
<g><path style="opacity:1" fill="#e5e5e5" d="M 172.5,307.5 C 173.766,309.694 173.766,312.028 172.5,314.5C 169.508,315.887 166.675,317.554 164,319.5C 162.302,311.927 165.135,307.927 172.5,307.5 Z"/></g>
<g><path style="opacity:1" fill="#f2f2f2" d="M 219.5,311.5 C 223.075,311.906 225.242,313.906 226,317.5C 230.988,322.157 235.655,327.157 240,332.5C 240.896,340.043 242.063,347.543 243.5,355C 243.028,359.254 241.695,363.087 239.5,366.5C 239.342,363.283 239.175,359.95 239,356.5C 238.3,354.968 237.134,353.968 235.5,353.5C 234.143,348.136 233.643,342.803 234,337.5C 231.591,333.266 229.424,328.933 227.5,324.5C 224.222,321.966 221.389,318.966 219,315.5C 218.421,314.072 218.588,312.738 219.5,311.5 Z"/></g>
<g><path style="opacity:1" fill="#f7f7f7" d="M 161.5,310.5 C 162.097,310.735 162.43,311.235 162.5,312C 160.724,318.729 159.391,325.562 158.5,332.5C 159.468,337.824 159.968,343.157 160,348.5C 155.191,354.457 149.358,359.123 142.5,362.5C 142.167,362.167 141.833,361.833 141.5,361.5C 145.115,350.033 147.949,338.366 150,326.5C 151.711,324.044 153.044,321.377 154,318.5C 156.705,315.964 159.205,313.297 161.5,310.5 Z"/></g>
<g><path style="opacity:1" fill="#181818" d="M 189.5,314.5 C 196.125,314.144 201.459,316.477 205.5,321.5C 201.984,325.486 201.817,329.486 205,333.5C 205.667,335.5 205.667,337.5 205,339.5C 201.617,342.391 198.117,345.058 194.5,347.5C 191.968,347.136 190.135,345.803 189,343.5C 186.623,338.063 184.79,332.396 183.5,326.5C 183.936,323.821 184.436,321.155 185,318.5C 186.667,317.267 188.167,315.933 189.5,314.5 Z"/></g>
<g><path style="opacity:1" fill="#e9e9e9" d="M 188.5,333.5 C 193.658,331.014 193.658,328.514 188.5,326C 189.056,325.617 189.389,325.117 189.5,324.5C 191.3,322.284 193.133,319.951 195,317.5C 197.077,318.017 199.077,318.684 201,319.5C 201.738,322.903 201.238,326.07 199.5,329C 201.024,332.031 201.69,335.031 201.5,338C 198.689,339.644 196.356,341.81 194.5,344.5C 192.559,342.684 191.892,340.684 192.5,338.5C 190.739,337.083 189.406,335.417 188.5,333.5 Z"/></g>
<g><path style="opacity:1" fill="#eeeeee" d="M 166.5,319.5 C 167.5,319.5 168.5,319.5 169.5,319.5C 169.572,325.545 168.238,331.211 165.5,336.5C 161.76,333.367 160.593,329.367 162,324.5C 163.758,322.917 165.258,321.25 166.5,319.5 Z"/></g>
<g><path style="opacity:1" fill="#565656" d="M 189.5,324.5 C 189.389,325.117 189.056,325.617 188.5,326C 193.658,328.514 193.658,331.014 188.5,333.5C 187.871,331.587 187.205,329.254 186.5,326.5C 186.833,325.167 187.167,323.833 187.5,322.5C 188.182,323.243 188.849,323.909 189.5,324.5 Z"/></g>
<g><path style="opacity:1" fill="#f2f2f2" d="M 224.5,326.5 C 228.175,330.607 230.841,335.44 232.5,341C 228.303,348.9 222.803,355.733 216,361.5C 218.968,349.958 221.802,338.291 224.5,326.5 Z"/></g>
<g><path style="opacity:1" fill="#c6c6c6" d="M 230.5,347.5 C 231.725,348.152 232.392,349.319 232.5,351C 232.167,352.167 231.833,353.333 231.5,354.5C 230.526,352.257 230.192,349.924 230.5,347.5 Z"/></g>
<g><path style="opacity:1" fill="#e4e4e4" d="M 163.5,351.5 C 165.661,351.826 167.494,352.826 169,354.5C 171.318,359.136 173.651,363.802 176,368.5C 176.667,369.5 176.667,370.5 176,371.5C 173.572,368.402 170.572,366.069 167,364.5C 166.667,361.833 166.333,359.167 166,356.5C 164.628,355.09 163.795,353.423 163.5,351.5 Z"/></g>
<g><path style="opacity:1" fill="#181818" d="M 199.5,354.5 C 207.768,355.379 208.768,358.879 202.5,365C 196.313,366.732 189.98,367.565 183.5,367.5C 183.723,364.216 184.39,361.049 185.5,358C 190.251,356.717 194.918,355.55 199.5,354.5 Z"/></g>
<g><path style="opacity:1" fill="#f2f2f2" d="M 234.5,356.5 C 235.777,357.694 236.444,359.36 236.5,361.5C 236.243,370.156 233.243,371.489 227.5,365.5C 228.257,362.029 230.424,360.029 234,359.5C 234.483,358.552 234.649,357.552 234.5,356.5 Z"/></g>
<g><path style="opacity:1" fill="#f3f3f3" d="M 188.5,359.5 C 190.167,359.5 191.833,359.5 193.5,359.5C 193.657,360.873 193.49,362.207 193,363.5C 192.023,364.774 191.189,364.774 190.5,363.5C 191.289,363.217 191.956,362.717 192.5,362C 190.563,361.878 189.23,361.045 188.5,359.5 Z"/></g>
<g><path style="opacity:1" fill="#7d7d7d" d="M 199.5,362.5 C 198.833,361.833 198.167,361.167 197.5,360.5C 198.151,359.909 198.818,359.243 199.5,358.5C 200.782,359.958 200.782,361.292 199.5,362.5 Z"/></g>
<g><path style="opacity:1" fill="#e4e4e4" d="M 197.5,360.5 C 198.167,361.167 198.833,361.833 199.5,362.5C 198.292,363.234 196.959,363.567 195.5,363.5C 195.67,362.178 195.337,361.011 194.5,360C 195.749,359.26 196.749,359.427 197.5,360.5 Z"/></g>
<g><path style="opacity:1" fill="#737373" d="M 188.5,359.5 C 189.23,361.045 190.563,361.878 192.5,362C 191.956,362.717 191.289,363.217 190.5,363.5C 187.691,363.042 187.024,361.709 188.5,359.5 Z"/></g>
<g><path style="opacity:1" fill="#ebebeb" d="M 208.5,368.5 C 213.548,368.842 218.548,369.508 223.5,370.5C 224.626,371.858 224.626,373.192 223.5,374.5C 219.025,373.104 214.525,371.771 210,370.5C 208.97,370.164 208.47,369.497 208.5,368.5 Z"/></g>
<g><path style="opacity:1" fill="#a2a2a2" d="M 223.5,370.5 C 225.089,369.379 226.756,369.546 228.5,371C 226.803,371.384 225.137,371.218 223.5,370.5 Z"/></g>
<g><path style="opacity:1" fill="#959595" d="M 239.5,370.5 C 242.89,371.023 246.223,371.857 249.5,373C 250.252,373.671 250.586,374.504 250.5,375.5C 249.209,375.263 248.209,375.596 247.5,376.5C 246.518,375.859 245.518,375.193 244.5,374.5C 241.151,375.83 240.818,375.33 243.5,373C 242.092,372.685 240.759,373.018 239.5,374C 240.696,374.654 240.696,375.154 239.5,375.5C 236.873,374.942 234.54,373.942 232.5,372.5C 233.172,371.733 234.005,371.066 235,370.5C 236.616,371.801 238.116,371.801 239.5,370.5 Z"/></g>
<g><path style="opacity:1" fill="#f0f0f0" d="M 214.5,374.5 C 215.873,374.343 217.207,374.51 218.5,375C 216.116,381.133 212.116,385.799 206.5,389C 205.056,389.781 203.723,389.614 202.5,388.5C 203.839,385.497 205.173,382.497 206.5,379.5C 209.469,378.193 212.135,376.527 214.5,374.5 Z"/></g>
<g><path style="opacity:1" fill="#151515" d="M 247.5,376.5 C 248.209,375.596 249.209,375.263 250.5,375.5C 250.196,377.796 249.196,378.129 247.5,376.5 Z"/></g>
<g><path style="opacity:1" fill="#e4e4e4" d="M 175.5,379.5 C 176.024,381.306 176.691,382.972 177.5,384.5C 177.833,384.5 178.167,384.5 178.5,384.5C 177.448,386.256 175.781,386.923 173.5,386.5C 175,384.491 174.5,383.158 172,382.5C 171.055,382.905 170.388,383.572 170,384.5C 169.833,384 169.667,383.5 169.5,383C 170.783,381.864 171.783,380.531 172.5,379C 172.095,378.055 171.428,377.388 170.5,377C 171.872,376.598 173.205,376.098 174.5,375.5C 174.788,376.861 175.121,378.194 175.5,379.5 Z"/></g>
<g><path style="opacity:1" fill="#6f6f6f" d="M 175.5,379.5 C 176.167,379.5 176.833,379.5 177.5,379.5C 178.167,380.167 178.833,380.833 179.5,381.5C 177.952,381.821 177.285,382.821 177.5,384.5C 176.691,382.972 176.024,381.306 175.5,379.5 Z"/></g>
<g><path style="opacity:1" fill="#898989" d="M 168.5,382.5 C 167.833,385.833 167.167,389.167 166.5,392.5C 166.177,388.774 166.511,385.107 167.5,381.5C 168.107,381.624 168.44,381.957 168.5,382.5 Z"/></g>
<g><path style="opacity:1" fill="#e3e3e3" d="M 175.5,387.5 C 177.698,387.88 179.365,387.213 180.5,385.5C 180.435,385.062 180.601,384.728 181,384.5C 183.675,388.221 185.342,392.221 186,396.5C 182.971,393.572 179.471,391.572 175.5,390.5C 175.5,389.5 175.5,388.5 175.5,387.5 Z"/></g>
<g><path style="opacity:1" fill="#676767" d="M 178.5,384.5 C 179.167,384.833 179.833,385.167 180.5,385.5C 179.365,387.213 177.698,387.88 175.5,387.5C 173.599,387.754 172.933,387.42 173.5,386.5C 175.781,386.923 177.448,386.256 178.5,384.5 Z"/></g>
<g><path style="opacity:1" fill="#dadada" d="M 208.5,393.5 C 209.064,397.859 208.231,402.192 206,406.5C 205.55,404.481 204.717,402.648 203.5,401C 205.301,398.557 206.968,396.057 208.5,393.5 Z"/></g>
<g><path style="opacity:1" fill="#bfbfbf" d="M 185.5,401.5 C 189.554,401.21 190.054,401.877 187,403.5C 186.667,405.167 186.333,406.833 186,408.5C 184.193,406.294 184.026,403.961 185.5,401.5 Z"/></g>
<g><path style="opacity:1" fill="#dcdcdc" d="M 203.5,412.5 C 204.649,412.791 205.316,413.624 205.5,415C 205,417.5 204.5,420 204,422.5C 202.739,419.789 200.906,417.622 198.5,416C 200.973,415.78 202.64,414.614 203.5,412.5 Z"/></g>
<g><path style="opacity:1" fill="#dddddd" d="M 197.5,418.5 C 201.926,420.359 203.426,423.692 202,428.5C 200.231,425.294 198.731,421.961 197.5,418.5 Z"/></g>
<g><path style="opacity:1" fill="#7a7a7a" d="M 209.5,419.5 C 209.737,420.791 209.404,421.791 208.5,422.5C 207.489,420.598 207.322,418.598 208,416.5C 208.232,417.737 208.732,418.737 209.5,419.5 Z"/></g>
<g><path style="opacity:1" fill="#b2b2b2" d="M 183.5,429.5 C 182.833,429.5 182.167,429.5 181.5,429.5C 183.771,427.734 185.937,425.734 188,423.5C 188.214,426.724 186.714,428.724 183.5,429.5 Z"/></g>
</svg>
