<?xml version="1.0" encoding="UTF-8"?>
<!DOCTYPE svg PUBLIC "-//W3C//DTD SVG 1.1//EN" "http://www.w3.org/Graphics/SVG/1.1/DTD/svg11.dtd">
<svg xmlns="http://www.w3.org/2000/svg" version="1.1" width="495px" height="475px" style="shape-rendering:geometricPrecision; text-rendering:geometricPrecision; image-rendering:optimizeQuality; fill-rule:evenodd; clip-rule:evenodd" xmlns:xlink="http://www.w3.org/1999/xlink">
<g><path style="opacity:1" fill="#fefefe" d="M -0.5,-0.5 C 80.5,-0.5 161.5,-0.5 242.5,-0.5C 160.388,2.97006 94.2213,36.9701 44,101.5C 16.0788,140.764 1.2455,184.431 -0.5,232.5C -0.5,154.833 -0.5,77.1667 -0.5,-0.5 Z"/></g>
<g><path style="opacity:1" fill="#fefefe" d="M 250.5,-0.5 C 331.833,-0.5 413.167,-0.5 494.5,-0.5C 494.5,77.1667 494.5,154.833 494.5,232.5C 487.458,135.648 440.458,65.8152 353.5,23C 331.159,12.8312 307.825,5.99787 283.5,2.5C 281.286,2.61134 279.286,3.27801 277.5,4.5C 276.398,2.9081 277.065,2.07476 279.5,2C 269.678,1.18117 260.011,0.347833 250.5,-0.5 Z"/></g>
<g><path style="opacity:1" fill="#800030" d="M 242.5,-0.5 C 245.167,-0.5 247.833,-0.5 250.5,-0.5C 260.011,0.347833 269.678,1.18117 279.5,2C 277.065,2.07476 276.398,2.9081 277.5,4.5C 279.286,3.27801 281.286,2.61134 283.5,2.5C 307.825,5.99787 331.159,12.8312 353.5,23C 440.458,65.8152 487.458,135.648 494.5,232.5C 494.5,234.833 494.5,237.167 494.5,239.5C 488.087,337.184 441.087,407.684 353.5,451C 320.586,465.648 286.253,473.481 250.5,474.5C 247.833,474.5 245.167,474.5 242.5,474.5C 160.388,471.03 94.2213,437.03 44,372.5C 15.6582,332.641 0.82488,288.308 -0.5,239.5C -0.5,237.167 -0.5,234.833 -0.5,232.5C 1.2455,184.431 16.0788,140.764 44,101.5C 94.2213,36.9701 160.388,2.97006 242.5,-0.5 Z"/></g>
<g><path style="opacity:1" fill="#fdfdfd" d="M 277.5,4.5 C 286.997,11.4046 289.664,19.9046 285.5,30C 287.433,30.7826 288.933,30.2826 290,28.5C 295.512,32.2567 300.846,36.2567 306,40.5C 306.513,49.989 306.513,59.6557 306,69.5C 303.71,72.5799 301.543,75.7466 299.5,79C 295.764,82.1172 291.597,84.2839 287,85.5C 286.308,84.9747 285.808,84.3081 285.5,83.5C 294.347,74.2757 297.847,63.2757 296,50.5C 295.548,47.8506 294.714,45.3506 293.5,43C 293.833,42.6667 294.167,42.3333 294.5,42C 291.955,38.4101 289.288,34.9101 286.5,31.5C 285.186,32.3128 284.019,33.3128 283,34.5C 282.667,34.1667 282.333,33.8333 282,33.5C 281.737,28.9828 280.737,24.6495 279,20.5C 275.667,16.4965 272.501,13.3298 269.5,11C 261.336,9.5499 253.669,10.8832 246.5,15C 244.097,18.0665 241.097,20.3998 237.5,22C 225.849,35.0897 222.849,49.923 228.5,66.5C 228.686,73.2631 230.186,79.9298 233,86.5C 233.606,95.4767 236.106,103.81 240.5,111.5C 240.069,112.293 239.735,113.127 239.5,114C 243.86,128.551 248.36,143.051 253,157.5C 253.849,169.838 254.683,182.171 255.5,194.5C 253.814,200.053 250.147,203.886 244.5,206C 232.563,209.987 223.73,206.487 218,195.5C 215.183,186.392 212.183,177.392 209,168.5C 201.752,158.915 192.418,153.249 181,151.5C 177.01,149.916 172.844,148.916 168.5,148.5C 158.448,148.453 148.782,150.286 139.5,154C 137.522,156.233 135.355,157.4 133,157.5C 130.088,159.708 126.921,161.542 123.5,163C 119.667,168.167 115.167,172.667 110,176.5C 99.0357,194.467 85.5357,210.3 69.5,224C 67.7738,225.53 65.7738,226.53 63.5,227C 62.2986,227.903 61.4652,229.069 61,230.5C 60.586,230.043 60.086,229.709 59.5,229.5C 57.677,230.747 55.677,231.414 53.5,231.5C 53.3505,230.448 53.5172,229.448 54,228.5C 56.2423,225.14 58.9089,222.14 62,219.5C 62.4828,218.552 62.6495,217.552 62.5,216.5C 63.552,216.649 64.552,216.483 65.5,216C 67.1939,213.639 69.1939,211.639 71.5,210C 71.1667,209.667 70.8333,209.333 70.5,209C 73.8333,206.343 76.8333,203.343 79.5,200C 79.1667,199.667 78.8333,199.333 78.5,199C 79.624,198.751 80.624,198.251 81.5,197.5C 85.2947,191.922 89.6281,186.756 94.5,182C 93.4652,180.493 93.6319,178.993 95,177.5C 95.3333,178.167 95.6667,178.833 96,179.5C 100.377,172.44 105.377,165.773 111,159.5C 112.101,157.606 113.434,156.939 115,157.5C 117.077,154.56 119.244,151.726 121.5,149C 127.746,146.807 134.079,144.807 140.5,143C 141.167,142.333 141.833,141.667 142.5,141C 158.829,138.739 174.829,139.405 190.5,143C 201.312,147.139 210.478,153.639 218,162.5C 221.429,169.776 223.762,177.443 225,185.5C 225.667,186.833 226.333,188.167 227,189.5C 227.333,189.167 227.667,188.833 228,188.5C 227.863,193.235 230.363,196.235 235.5,197.5C 242.553,193.863 245.553,188.03 244.5,180C 242.692,163.594 239.525,147.427 235,131.5C 234.604,129.04 233.437,127.04 231.5,125.5C 231.931,124.707 232.265,123.873 232.5,123C 227.085,104.887 222.585,86.7206 219,68.5C 218.204,58.1118 217.704,47.7785 217.5,37.5C 222.541,20.2924 233.541,8.79241 250.5,3C 259.66,1.95533 268.66,2.45533 277.5,4.5 Z"/></g>
<g><path style="opacity:1" fill="#fdfefd" d="M 254.5,12.5 C 256.379,12.3932 256.712,12.8932 255.5,14C 252.125,14.6316 251.791,14.1316 254.5,12.5 Z"/></g>
<g><path style="opacity:1" fill="#fdfefd" d="M 255.5,34.5 C 258.039,37.1905 261.039,39.3572 264.5,41C 269.531,41.9735 274.531,42.6402 279.5,43C 283.88,47.7114 287.88,52.7114 291.5,58C 289.85,61.9403 289.017,66.107 289,70.5C 287.586,74.0032 285.42,74.8365 282.5,73C 282.957,72.586 283.291,72.086 283.5,71.5C 282.787,69.2241 282.287,66.8907 282,64.5C 281.667,64.8333 281.333,65.1667 281,65.5C 280.937,59.6418 278.437,55.1418 273.5,52C 269.167,51 264.833,50 260.5,49C 255.763,44.7697 254.096,39.9364 255.5,34.5 Z"/></g>
<g><path style="opacity:1" fill="#fdfefd" d="M 134.5,240.5 C 142.181,241.567 150.014,242.233 158,242.5C 162.998,241.96 166.832,240.126 169.5,237C 172.502,236.566 175.169,235.399 177.5,233.5C 186.95,233.651 196.117,235.318 205,238.5C 208,237.167 211,237.167 214,238.5C 223.174,235.838 232.34,233.004 241.5,230C 246.942,225.561 252.109,220.728 257,215.5C 257.684,214.216 257.517,213.049 256.5,212C 257.931,211.535 259.097,210.701 260,209.5C 266.152,195.077 268.152,179.744 266,163.5C 265.085,162.672 264.419,161.672 264,160.5C 262.188,151.777 260.521,143.11 259,134.5C 256.671,127.85 253.838,121.517 250.5,115.5C 250.648,109.267 248.648,103.934 244.5,99.5C 244.833,98.8333 245.167,98.1667 245.5,97.5C 242.902,91.5405 240.402,85.5405 238,79.5C 237.395,73.6384 236.228,67.9718 234.5,62.5C 233.952,51.5937 238.286,43.427 247.5,38C 249.403,37.2263 251.07,37.5596 252.5,39C 244.652,49.1819 242.486,61.0152 246,74.5C 246.667,75.8333 247.333,77.1667 248,78.5C 248.333,78.1667 248.667,77.8333 249,77.5C 249.684,78.7839 249.517,79.9505 248.5,81C 255.171,96.6674 261.337,112.167 267,127.5C 267.667,128.833 268.333,128.833 269,127.5C 269.667,128.5 269.667,129.5 269,130.5C 268.111,129.112 267.611,129.278 267.5,131C 269.076,136.726 271.242,142.226 274,147.5C 273.948,151.656 274.781,155.49 276.5,159C 276.499,160.399 276.165,161.899 275.5,163.5C 278.35,178.81 277.35,193.81 272.5,208.5C 273.833,209.62 274.333,210.953 274,212.5C 273.667,212.167 273.333,211.833 273,211.5C 271.184,215.293 269.184,218.96 267,222.5C 265.933,223.191 264.766,223.691 263.5,224C 255.485,237.749 243.652,244.582 228,244.5C 227,245.5 226,246.5 225,247.5C 211.195,246.41 197.195,246.41 183,247.5C 181.238,247.056 181.405,246.556 183.5,246C 182.391,245.362 181.225,244.862 180,244.5C 176.232,246.597 172.732,249.097 169.5,252C 167.655,253.128 165.655,253.628 163.5,253.5C 162.871,258.622 163.204,263.788 164.5,269C 163.972,272.982 163.638,276.982 163.5,281C 164.006,294.54 164.673,308.04 165.5,321.5C 165.038,325.17 164.705,328.836 164.5,332.5C 165.01,335.407 165.677,338.241 166.5,341C 165.482,374.062 165.316,407.562 166,441.5C 173.251,442.443 180.418,443.943 187.5,446C 189.731,447.61 191.731,449.443 193.5,451.5C 192.758,452.287 191.925,452.953 191,453.5C 187.776,453.701 184.443,453.367 181,452.5C 175.198,453.187 169.365,453.854 163.5,454.5C 160.667,453.067 157.667,452.4 154.5,452.5C 153.323,385.744 152.323,319.078 151.5,252.5C 143.904,251.776 138.237,247.776 134.5,240.5 Z"/></g>
<g><path style="opacity:1" fill="#fdfefd" d="M 251.5,41.5 C 254.001,41.5109 254.168,42.1776 252,43.5C 251.536,42.9056 251.369,42.2389 251.5,41.5 Z"/></g>
<g><path style="opacity:1" fill="#fdfefd" d="M 250.5,115.5 C 250.531,119.276 249.864,119.443 248.5,116C 248.683,114.316 249.35,114.15 250.5,115.5 Z"/></g>
<g><path style="opacity:1" fill="#fdfefd" d="M 363.5,146.5 C 368.757,145.521 373.09,147.021 376.5,151C 379.309,152.741 382.309,153.908 385.5,154.5C 385.5,156.833 385.5,159.167 385.5,161.5C 377.673,160.458 370.673,157.458 364.5,152.5C 363.534,150.604 363.201,148.604 363.5,146.5 Z"/></g>
<g><path style="opacity:1" fill="#fdfefd" d="M 459.5,155.5 C 467.25,154.582 473.75,156.915 479,162.5C 481.35,169.541 479.183,174.374 472.5,177C 467.833,177.333 463.167,177.667 458.5,178C 460.5,181.333 463.167,184 466.5,186C 470.783,185.546 475.117,185.046 479.5,184.5C 479.953,187.652 478.953,190.152 476.5,192C 454.252,194.404 446.752,184.904 454,163.5C 455.273,160.403 457.107,157.736 459.5,155.5 Z"/></g>
<g><path style="opacity:1" fill="#7f002f" d="M 463.5,162.5 C 467.596,162.363 470.929,163.863 473.5,167C 469.741,171.044 465.074,172.544 459.5,171.5C 459.482,167.871 460.816,164.871 463.5,162.5 Z"/></g>
<g><path style="opacity:1" fill="#fdfefd" d="M 399.5,164.5 C 401.924,164.192 404.257,164.526 406.5,165.5C 407.124,167.754 408.457,169.421 410.5,170.5C 415.099,167.655 419.932,166.988 425,168.5C 434.687,161.528 441.354,163.528 445,174.5C 446.288,181.437 446.788,188.437 446.5,195.5C 444.5,195.5 442.5,195.5 440.5,195.5C 441.295,186.617 439.128,178.617 434,171.5C 432.041,172.748 430.541,174.415 429.5,176.5C 431.226,183.376 431.892,190.376 431.5,197.5C 429.5,197.5 427.5,197.5 425.5,197.5C 426.294,188.743 423.961,181.076 418.5,174.5C 416.295,175.871 414.628,177.704 413.5,180C 414.911,187.427 415.577,194.927 415.5,202.5C 413.5,202.5 411.5,202.5 409.5,202.5C 410.044,190.664 406.877,179.997 400,170.5C 399.505,168.527 399.338,166.527 399.5,164.5 Z"/></g>
<g><path style="opacity:1" fill="#fdfefd" d="M 379.5,167.5 C 387.215,166.571 393.715,168.904 399,174.5C 400.218,179.236 399.384,183.403 396.5,187C 391.163,189.67 385.497,191.17 379.5,191.5C 381.909,195.077 385.076,197.743 389,199.5C 391.642,196.971 394.808,195.971 398.5,196.5C 398.354,203.134 394.854,206.134 388,205.5C 379.38,205.213 374.047,200.88 372,192.5C 370.966,185.633 371.633,178.967 374,172.5C 375.406,170.256 377.239,168.59 379.5,167.5 Z"/></g>
<g><path style="opacity:1" fill="#7f002f" d="M 382.5,174.5 C 395.784,176.345 396.45,179.679 384.5,184.5C 382.677,183.253 380.677,182.586 378.5,182.5C 378.53,179.148 379.863,176.482 382.5,174.5 Z"/></g>
<g><path style="opacity:1" fill="#fdfefd" d="M 349.5,207.5 C 355.099,207.696 360.599,208.362 366,209.5C 367.754,207.75 369.921,207.083 372.5,207.5C 374.56,214.689 376.393,222.023 378,229.5C 387.038,244.528 389.371,260.528 385,277.5C 381.778,280.388 378.278,282.888 374.5,285C 368.167,285.667 361.833,285.667 355.5,285C 351.81,282.831 350.143,279.664 350.5,275.5C 354.281,274.789 357.281,275.955 359.5,279C 370.564,280.806 377.898,276.473 381.5,266C 381.141,254.925 377.974,244.758 372,235.5C 370.168,238.361 368.001,240.861 365.5,243C 343.911,248.078 335.745,239.911 341,218.5C 342.898,214.002 345.731,210.336 349.5,207.5 Z"/></g>
<g><path style="opacity:1" fill="#fdfefd" d="M 299.5,212.5 C 305.099,212.696 310.599,213.362 316,214.5C 317.754,212.75 319.921,212.083 322.5,212.5C 324.56,219.689 326.393,227.023 328,234.5C 337.038,249.528 339.371,265.528 335,282.5C 331.778,285.388 328.278,287.888 324.5,290C 318.167,290.667 311.833,290.667 305.5,290C 301.81,287.831 300.143,284.664 300.5,280.5C 304.281,279.789 307.281,280.955 309.5,284C 320.564,285.806 327.898,281.473 331.5,271C 331.141,259.925 327.974,249.758 322,240.5C 320.168,243.361 318.001,245.861 315.5,248C 293.911,253.078 285.745,244.911 291,223.5C 292.898,219.002 295.731,215.336 299.5,212.5 Z"/></g>
<g><path style="opacity:1" fill="#7f002f" d="M 352.5,214.5 C 357.695,213.944 362.528,214.944 367,217.5C 369.297,224.936 367.464,231.269 361.5,236.5C 353.954,239.058 348.621,236.724 345.5,229.5C 345.994,223.518 348.327,218.518 352.5,214.5 Z"/></g>
<g><path style="opacity:1" fill="#fdfefd" d="M 88.5,215.5 C 95.8208,215.475 97.3208,218.475 93,224.5C 91.3149,226.017 89.8149,227.684 88.5,229.5C 81.0861,233.624 73.5861,237.624 66,241.5C 62.9017,242.737 59.735,243.237 56.5,243C 61.1777,238.321 65.511,233.321 69.5,228C 69.1667,227.667 68.8333,227.333 68.5,227C 69.7441,226.544 70.5774,227.044 71,228.5C 72.7398,227.284 73.7398,225.618 74,223.5C 76.1363,224.03 77.9696,223.197 79.5,221C 79.1667,220.667 78.8333,220.333 78.5,220C 82.015,218.778 85.3483,217.278 88.5,215.5 Z"/></g>
<g><path style="opacity:1" fill="#fdfefd" d="M 81.5,241.5 C 86.9791,237.52 91.9791,233.02 96.5,228C 102.437,224.448 108.604,221.281 115,218.5C 118.66,220.81 119.327,223.81 117,227.5C 109.524,235.261 99.6902,241.261 87.5,245.5C 86.8076,246.025 86.3076,246.692 86,247.5C 83.5272,246.88 81.0272,246.214 78.5,245.5C 79.5244,244.148 80.5244,242.815 81.5,241.5 Z"/></g>
<g><path style="opacity:1" fill="#7f002f" d="M 302.5,219.5 C 307.695,218.944 312.528,219.944 317,222.5C 319.297,229.936 317.464,236.269 311.5,241.5C 303.954,244.058 298.621,241.724 295.5,234.5C 295.994,228.518 298.327,223.518 302.5,219.5 Z"/></g>
<g><path style="opacity:1" fill="#fdfefd" d="M 96.5,220.5 C 97.766,221.09 99.0993,221.59 100.5,222C 98.5372,222.844 97.2039,222.344 96.5,220.5 Z"/></g>
<g><path style="opacity:1" fill="#fdfefd" d="M 134.5,240.5 C 133.883,240.389 133.383,240.056 133,239.5C 128.716,241.48 124.55,243.647 120.5,246C 121.696,246.654 121.696,247.154 120.5,247.5C 119.554,247.013 118.554,246.68 117.5,246.5C 110.64,249.65 103.64,250.484 96.5,249C 108.788,243.186 120.122,235.853 130.5,227C 137.732,224.405 140.898,226.905 140,234.5C 138.251,237.356 136.417,239.356 134.5,240.5 Z"/></g>
<g><path style="opacity:1" fill="#fdfefd" d="M 81.5,241.5 C 79.8974,242.677 78.564,242.511 77.5,241C 78.5,240.5 79.5,240 80.5,239.5C 81.2975,239.957 81.6309,240.624 81.5,241.5 Z"/></g>
<g><path style="opacity:1" fill="#fefefe" d="M -0.5,239.5 C 0.82488,288.308 15.6582,332.641 44,372.5C 94.2213,437.03 160.388,471.03 242.5,474.5C 161.5,474.5 80.5,474.5 -0.5,474.5C -0.5,396.167 -0.5,317.833 -0.5,239.5 Z"/></g>
<g><path style="opacity:1" fill="#fefefe" d="M 494.5,239.5 C 494.5,317.833 494.5,396.167 494.5,474.5C 413.167,474.5 331.833,474.5 250.5,474.5C 286.253,473.481 320.586,465.648 353.5,451C 441.087,407.684 488.087,337.184 494.5,239.5 Z"/></g>
<g><path style="opacity:1" fill="#fdfefd" d="M 142.5,254.5 C 143.497,254.47 144.164,254.97 144.5,256C 135.499,271.655 124.999,286.155 113,299.5C 111.594,301.364 111.094,303.197 111.5,305C 116.71,310.86 123.043,315.193 130.5,318C 131.126,318.75 131.626,319.584 132,320.5C 132.333,320.167 132.667,319.833 133,319.5C 133.374,320.416 133.874,321.25 134.5,322C 140.907,324.354 145.907,328.354 149.5,334C 147.75,335.754 147.083,337.921 147.5,340.5C 129.875,332.933 113.708,322.933 99,310.5C 98.6397,308.579 97.8064,306.912 96.5,305.5C 97.7647,300.479 100.431,296.312 104.5,293C 103.216,291.703 103.383,290.536 105,289.5C 105.333,290.167 105.667,290.833 106,291.5C 116.397,277.271 128.563,264.938 142.5,254.5 Z"/></g>
<g><path style="opacity:1" fill="#fdfdfd" d="M 422.5,337.5 C 422.539,336.244 422.039,335.244 421,334.5C 418.463,336.45 415.796,337.116 413,336.5C 412.055,336.095 411.388,335.428 411,334.5C 410.667,334.833 410.333,335.167 410,335.5C 409.626,334.584 409.126,333.75 408.5,333C 411.922,329.997 414.755,326.497 417,322.5C 421.557,318.324 426.724,317.491 432.5,320C 434.662,321.645 435.995,323.812 436.5,326.5C 437.824,327.687 438.824,327.354 439.5,325.5C 437.03,317.633 435.53,309.633 435,301.5C 438.431,295.735 442.264,295.235 446.5,300C 444.869,301.836 444.202,301.336 444.5,298.5C 441.348,297.959 438.848,298.959 437,301.5C 438.006,310.51 439.006,319.51 440,328.5C 438.951,329.517 437.784,329.684 436.5,329C 433.88,320.693 428.547,318.36 420.5,322C 417.931,324.479 415.598,327.146 413.5,330C 415.392,330.973 417.392,331.64 419.5,332C 418.304,332.654 418.304,333.154 419.5,333.5C 420.167,333.167 420.833,332.833 421.5,332.5C 422.519,333.687 423.686,334.687 425,335.5C 427.763,333.228 430.763,332.895 434,334.5C 439.533,333.466 442.367,330.133 442.5,324.5C 441.105,318.833 439.605,313.499 438,308.5C 436.794,305.153 437.794,302.82 441,301.5C 443.295,301.689 445.295,303.023 447,305.5C 446.737,304.049 446.904,302.716 447.5,301.5C 448.88,304.318 448.713,306.985 447,309.5C 445.914,306.327 443.747,304.327 440.5,303.5C 440.167,304.333 439.833,305.167 439.5,306C 440.6,310.634 442.1,315.134 444,319.5C 446.757,327.874 444.09,333.541 436,336.5C 433.199,335.205 430.366,335.205 427.5,336.5C 426.338,341.467 426.171,346.467 427,351.5C 427.333,351.167 427.667,350.833 428,350.5C 429.828,352.081 431.828,353.415 434,354.5C 434.993,357.308 435.827,360.141 436.5,363C 434.833,363.667 433.167,363.667 431.5,363C 433.363,361.582 433.863,359.749 433,357.5C 431.225,355.606 429.225,353.939 427,352.5C 426.501,357.489 426.334,362.489 426.5,367.5C 427.873,367.343 429.207,367.51 430.5,368C 428.899,368.273 427.399,368.773 426,369.5C 425.667,369.167 425.333,368.833 425,368.5C 425.147,357.785 424.314,347.451 422.5,337.5 Z"/></g>
<g><path style="opacity:1" fill="#fdfefd" d="M 422.5,337.5 C 421.312,340.041 419.978,342.541 418.5,345C 419.997,346.662 421.663,348.162 423.5,349.5C 420.37,349.424 417.704,347.924 415.5,345C 417.32,342.014 419.653,339.514 422.5,337.5 Z"/></g>
<g><path style="opacity:1" fill="#fdfefd" d="M 167.5,338.5 C 168.289,338.783 168.956,339.283 169.5,340C 168.184,340.528 167.517,340.028 167.5,338.5 Z"/></g>
<g><path style="opacity:1" fill="#fdfefd" d="M 173.5,339.5 C 175.225,339.843 175.725,340.843 175,342.5C 173.961,341.756 173.461,340.756 173.5,339.5 Z"/></g>
<g><path style="opacity:1" fill="#fdfefd" d="M 169.5,341.5 C 181.582,347.392 193.582,353.559 205.5,360C 208.965,362.463 212.131,365.296 215,368.5C 219.329,381.475 221.829,394.808 222.5,408.5C 221.484,411.855 220.484,415.188 219.5,418.5C 216.468,418.505 213.468,418.838 210.5,419.5C 207.5,419 204.5,418.5 201.5,418C 200.833,417.333 200.167,416.667 199.5,416C 203.476,415.035 207.476,413.368 211.5,411C 210.483,409.951 210.316,408.784 211,407.5C 211.333,408.167 211.667,408.833 212,409.5C 212.101,401.299 211.101,392.966 209,384.5C 207.159,379.497 204.325,375.164 200.5,371.5C 193,367.385 185.333,363.552 177.5,360C 173.854,358.018 170.854,355.351 168.5,352C 168.94,348.757 169.273,345.257 169.5,341.5 Z"/></g>
<g><path style="opacity:1" fill="#fdfdfd" d="M 365.5,385.5 C 365.539,384.244 365.039,383.244 364,382.5C 360.92,384.885 357.753,384.885 354.5,382.5C 353.035,383.609 352.035,383.109 351.5,381C 354.922,377.997 357.755,374.497 360,370.5C 364.557,366.324 369.724,365.491 375.5,368C 377.662,369.645 378.995,371.812 379.5,374.5C 380.824,375.687 381.824,375.354 382.5,373.5C 380.03,365.633 378.53,357.633 378,349.5C 381.431,343.735 385.264,343.235 389.5,348C 387.869,349.836 387.202,349.336 387.5,346.5C 384.348,345.959 381.848,346.959 380,349.5C 381.006,358.51 382.006,367.51 383,376.5C 381.951,377.517 380.784,377.684 379.5,377C 376.88,368.693 371.547,366.36 363.5,370C 360.931,372.479 358.598,375.146 356.5,378C 358.392,378.973 360.392,379.64 362.5,380C 361.304,380.654 361.304,381.154 362.5,381.5C 363.167,381.167 363.833,380.833 364.5,380.5C 365.519,381.687 366.686,382.687 368,383.5C 370.763,381.228 373.763,380.895 377,382.5C 382.533,381.466 385.367,378.133 385.5,372.5C 384.105,366.833 382.605,361.499 381,356.5C 379.794,353.153 380.794,350.82 384,349.5C 386.295,349.689 388.295,351.023 390,353.5C 389.737,352.049 389.904,350.716 390.5,349.5C 391.88,352.318 391.713,354.985 390,357.5C 388.914,354.327 386.747,352.327 383.5,351.5C 383.167,352.333 382.833,353.167 382.5,354C 383.6,358.634 385.1,363.134 387,367.5C 389.757,375.874 387.09,381.541 379,384.5C 376.199,383.205 373.366,383.205 370.5,384.5C 369.338,389.467 369.171,394.467 370,399.5C 370.333,399.167 370.667,398.833 371,398.5C 372.828,400.081 374.828,401.415 377,402.5C 377.993,405.308 378.827,408.141 379.5,411C 377.833,411.667 376.167,411.667 374.5,411C 376.363,409.582 376.863,407.749 376,405.5C 374.225,403.606 372.225,401.939 370,400.5C 369.501,405.489 369.334,410.489 369.5,415.5C 370.873,415.343 372.207,415.51 373.5,416C 371.899,416.273 370.399,416.773 369,417.5C 368.667,417.167 368.333,416.833 368,416.5C 368.147,405.785 367.314,395.451 365.5,385.5 Z"/></g>
<g><path style="opacity:1" fill="#fdfdfd" d="M 296.5,411.5 C 296.539,410.244 296.039,409.244 295,408.5C 291.92,410.885 288.753,410.885 285.5,408.5C 284.035,409.609 283.035,409.109 282.5,407C 285.922,403.997 288.755,400.497 291,396.5C 295.557,392.324 300.724,391.491 306.5,394C 308.662,395.645 309.995,397.812 310.5,400.5C 311.824,401.687 312.824,401.354 313.5,399.5C 311.03,391.633 309.53,383.633 309,375.5C 312.431,369.735 316.264,369.235 320.5,374C 318.869,375.836 318.202,375.336 318.5,372.5C 315.348,371.959 312.848,372.959 311,375.5C 312.006,384.51 313.006,393.51 314,402.5C 312.951,403.517 311.784,403.684 310.5,403C 307.88,394.693 302.547,392.36 294.5,396C 291.931,398.479 289.598,401.146 287.5,404C 289.392,404.973 291.392,405.64 293.5,406C 292.304,406.654 292.304,407.154 293.5,407.5C 294.167,407.167 294.833,406.833 295.5,406.5C 296.519,407.687 297.686,408.687 299,409.5C 301.763,407.228 304.763,406.895 308,408.5C 313.533,407.466 316.367,404.133 316.5,398.5C 315.105,392.833 313.605,387.499 312,382.5C 310.794,379.153 311.794,376.82 315,375.5C 317.295,375.689 319.295,377.023 321,379.5C 320.737,378.049 320.904,376.716 321.5,375.5C 322.88,378.318 322.713,380.985 321,383.5C 319.914,380.327 317.747,378.327 314.5,377.5C 314.167,378.333 313.833,379.167 313.5,380C 314.6,384.634 316.1,389.134 318,393.5C 320.757,401.874 318.09,407.541 310,410.5C 307.199,409.205 304.366,409.205 301.5,410.5C 300.338,415.467 300.171,420.467 301,425.5C 301.333,425.167 301.667,424.833 302,424.5C 303.828,426.081 305.828,427.415 308,428.5C 308.993,431.308 309.827,434.141 310.5,437C 308.833,437.667 307.167,437.667 305.5,437C 307.363,435.582 307.863,433.749 307,431.5C 305.225,429.606 303.225,427.939 301,426.5C 300.501,431.489 300.334,436.489 300.5,441.5C 301.873,441.343 303.207,441.51 304.5,442C 302.899,442.273 301.399,442.773 300,443.5C 299.667,443.167 299.333,442.833 299,442.5C 299.147,431.785 298.314,421.451 296.5,411.5 Z"/></g>
<g><path style="opacity:1" fill="#fdfefd" d="M 365.5,385.5 C 364.312,388.041 362.978,390.541 361.5,393C 362.997,394.662 364.663,396.162 366.5,397.5C 363.37,397.424 360.704,395.924 358.5,393C 360.32,390.014 362.653,387.514 365.5,385.5 Z"/></g>
<g><path style="opacity:1" fill="#fdfefd" d="M 296.5,411.5 C 295.312,414.041 293.978,416.541 292.5,419C 293.997,420.662 295.663,422.162 297.5,423.5C 294.37,423.424 291.704,421.924 289.5,419C 291.32,416.014 293.653,413.514 296.5,411.5 Z"/></g>
</svg>
