<?xml version="1.0" encoding="UTF-8"?>
<!DOCTYPE svg PUBLIC "-//W3C//DTD SVG 1.1//EN" "http://www.w3.org/Graphics/SVG/1.1/DTD/svg11.dtd">
<svg xmlns="http://www.w3.org/2000/svg" version="1.1" width="313px" height="275px" style="shape-rendering:geometricPrecision; text-rendering:geometricPrecision; image-rendering:optimizeQuality; fill-rule:evenodd; clip-rule:evenodd" xmlns:xlink="http://www.w3.org/1999/xlink">
<g><path style="opacity:1" fill="#fefefe" d="M -0.5,-0.5 C 103.833,-0.5 208.167,-0.5 312.5,-0.5C 312.5,78.1667 312.5,156.833 312.5,235.5C 309.569,233.909 306.902,231.909 304.5,229.5C 306.256,227.809 306.756,225.809 306,223.5C 305.667,224.167 305.333,224.833 305,225.5C 304.722,224.584 304.222,223.918 303.5,223.5C 302.872,220.91 301.705,218.577 300,216.5C 299.023,215.226 298.189,215.226 297.5,216.5C 296.238,219.867 297.238,222.7 300.5,225C 298.139,224.202 295.806,223.035 293.5,221.5C 277.022,207.864 260.355,194.364 243.5,181C 242.255,180.209 240.922,179.709 239.5,179.5C 230.423,171.447 221.089,163.614 211.5,156C 210.255,155.209 208.922,154.709 207.5,154.5C 198.645,145.827 188.978,137.993 178.5,131C 175.934,126.72 172.267,123.886 167.5,122.5C 161.387,116.606 155.054,110.94 148.5,105.5C 143.985,103.411 139.652,101.077 135.5,98.5C 132.755,94.4259 129.088,91.4259 124.5,89.5C 116.364,81.3606 107.364,74.3606 97.5,68.5C 86.6514,59.5837 75.6514,50.9171 64.5,42.5C 48.9727,29.482 32.9727,16.982 16.5,5C 14.6051,1.52229 11.9384,0.688957 8.5,2.5C 3.97148,4.71536 1.97148,8.38202 2.5,13.5C 2.51056,15.0174 3.17723,16.1841 4.5,17C 13.342,23.0226 22.0086,29.1892 30.5,35.5C 32.1455,37.8122 34.1455,39.8122 36.5,41.5C 36.7947,45.1415 38.4613,47.9748 41.5,50C 46.0656,53.4135 50.7323,56.5802 55.5,59.5C 59.7262,65.4147 65.3929,68.748 72.5,69.5C 91.581,85.221 110.914,100.721 130.5,116C 131.928,118.185 133.595,120.185 135.5,122C 141.857,126.175 148.19,130.342 154.5,134.5C 155.02,137.948 157.02,139.614 160.5,139.5C 161.182,142.675 163.182,144.175 166.5,144C 172.697,148.834 178.53,154 184,159.5C 184.613,161.495 184.113,163.162 182.5,164.5C 182.167,164.5 181.833,164.5 181.5,164.5C 180.291,166.435 180.458,168.435 182,170.5C 182.333,170.167 182.667,169.833 183,169.5C 185.172,170.509 186.338,172.176 186.5,174.5C 190.947,175.615 194.613,177.948 197.5,181.5C 209.315,190.444 221.315,199.444 233.5,208.5C 252.7,224.13 272.033,239.797 291.5,255.5C 298.132,258.861 303.798,263.361 308.5,269C 309.901,269.41 311.234,269.91 312.5,270.5C 312.5,271.833 312.5,273.167 312.5,274.5C 208.167,274.5 103.833,274.5 -0.5,274.5C -0.5,182.833 -0.5,91.1667 -0.5,-0.5 Z"/></g>
<g><path style="opacity:1" fill="#b2b0ad" d="M 8.5,2.5 C 11.9384,0.688957 14.6051,1.52229 16.5,5C 32.9727,16.982 48.9727,29.482 64.5,42.5C 60.1295,40.5639 55.9628,38.2306 52,35.5C 51.5,35.6667 51,35.8333 50.5,36C 51.1667,37.3333 52.1667,38.3333 53.5,39C 52.944,39.3826 52.6107,39.8826 52.5,40.5C 49.4771,38.4667 46.4771,36.4667 43.5,34.5C 45.4144,33.8153 47.4144,33.3153 49.5,33C 37.7061,23.2117 26.0394,14.045 14.5,5.5C 14.0798,7.32599 14.0798,9.32599 14.5,11.5C 12.5887,10.925 10.922,9.92499 9.5,8.5C 8.77013,7.28763 7.77013,6.28763 6.5,5.5C 8.36862,4.37639 10.3686,3.54306 12.5,3C 11.2068,2.50999 9.87344,2.34332 8.5,2.5 Z"/></g>
<g><path style="opacity:1" fill="#807f7f" d="M 8.5,2.5 C 9.87344,2.34332 11.2068,2.50999 12.5,3C 10.3686,3.54306 8.36862,4.37639 6.5,5.5C 7.77013,6.28763 8.77013,7.28763 9.5,8.5C 9.5,9.16667 9.5,9.83333 9.5,10.5C 5.83963,8.65547 3.5063,9.65547 2.5,13.5C 1.97148,8.38202 3.97148,4.71536 8.5,2.5 Z"/></g>
<g><path style="opacity:1" fill="#d0d0ce" d="M 43.5,34.5 C 33.5212,27.1834 23.8545,19.5168 14.5,11.5C 14.0798,9.32599 14.0798,7.32599 14.5,5.5C 26.0394,14.045 37.7061,23.2117 49.5,33C 47.4144,33.3153 45.4144,33.8153 43.5,34.5 Z"/></g>
<g><path style="opacity:1" fill="#b7b8b9" d="M 9.5,10.5 C 10.1667,10.5 10.5,10.8333 10.5,11.5C 8.08634,12.4056 7.25301,14.0722 8,16.5C 15.691,22.6979 23.191,29.0313 30.5,35.5C 22.0086,29.1892 13.342,23.0226 4.5,17C 3.17723,16.1841 2.51056,15.0174 2.5,13.5C 3.5063,9.65547 5.83963,8.65547 9.5,10.5 Z"/></g>
<g><path style="opacity:1" fill="#e1e6ea" d="M 10.5,11.5 C 20.8574,19.5309 31.1908,27.5309 41.5,35.5C 40.5688,37.0217 39.4021,38.3551 38,39.5C 35.3505,38.3274 32.8505,36.9941 30.5,35.5C 23.191,29.0313 15.691,22.6979 8,16.5C 7.25301,14.0722 8.08634,12.4056 10.5,11.5 Z"/></g>
<g><path style="opacity:1" fill="#3d3e3e" d="M 9.5,8.5 C 10.922,9.92499 12.5887,10.925 14.5,11.5C 23.8545,19.5168 33.5212,27.1834 43.5,34.5C 46.4771,36.4667 49.4771,38.4667 52.5,40.5C 55.5955,43.1948 58.9288,45.5281 62.5,47.5C 62.5654,47.9382 62.3988,48.2716 62,48.5C 60.5557,46.8446 58.7224,46.178 56.5,46.5C 56.33,47.8221 56.6634,48.9887 57.5,50C 56.244,50.4169 55.5774,51.2502 55.5,52.5C 53.9778,51.8091 52.9778,50.6424 52.5,49C 53.6151,47.6068 54.1151,46.1068 54,44.5C 52.0737,42.4611 49.907,40.7945 47.5,39.5C 45.7952,37.8079 43.7952,36.4746 41.5,35.5C 31.1908,27.5309 20.8574,19.5309 10.5,11.5C 10.5,10.8333 10.1667,10.5 9.5,10.5C 9.5,9.83333 9.5,9.16667 9.5,8.5 Z"/></g>
<g><path style="opacity:1" fill="#c3c5c3" d="M 30.5,35.5 C 32.8505,36.9941 35.3505,38.3274 38,39.5C 39.4021,38.3551 40.5688,37.0217 41.5,35.5C 43.7952,36.4746 45.7952,37.8079 47.5,39.5C 45.9557,39.7031 44.6223,40.3698 43.5,41.5C 40.1512,40.1697 39.8179,40.6697 42.5,43C 41.5509,43.6172 40.7175,43.4506 40,42.5C 39.3333,43.5 39.3333,44.5 40,45.5C 40.3333,45.1667 40.6667,44.8333 41,44.5C 45.0405,47.3764 48.5405,50.7098 51.5,54.5C 52.086,54.2907 52.586,53.9574 53,53.5C 55.2277,54.8915 56.3944,56.8915 56.5,59.5C 56.1667,59.5 55.8333,59.5 55.5,59.5C 50.7323,56.5802 46.0656,53.4135 41.5,50C 38.4613,47.9748 36.7947,45.1415 36.5,41.5C 34.1455,39.8122 32.1455,37.8122 30.5,35.5 Z"/></g>
<g><path style="opacity:1" fill="#706556" d="M 62.5,47.5 C 63.4013,48.2905 64.0679,49.2905 64.5,50.5C 63.8333,50.5 63.5,50.8333 63.5,51.5C 61.2944,56.2845 58.6277,56.6178 55.5,52.5C 55.5774,51.2502 56.244,50.4169 57.5,50C 56.6634,48.9887 56.33,47.8221 56.5,46.5C 58.7224,46.178 60.5557,46.8446 62,48.5C 62.3988,48.2716 62.5654,47.9382 62.5,47.5 Z"/></g>
<g><path style="opacity:1" fill="#373a37" d="M 63.5,51.5 C 63.5,50.8333 63.8333,50.5 64.5,50.5C 68.502,52.8393 71.8353,55.8393 74.5,59.5C 74.1667,59.5 73.8333,59.5 73.5,59.5C 70.1667,56.8333 66.8333,54.1667 63.5,51.5 Z"/></g>
<g><path style="opacity:1" fill="#e7e8e4" d="M 47.5,39.5 C 49.907,40.7945 52.0737,42.4611 54,44.5C 54.1151,46.1068 53.6151,47.6068 52.5,49C 52.9778,50.6424 53.9778,51.8091 55.5,52.5C 58.6277,56.6178 61.2944,56.2845 63.5,51.5C 66.8333,54.1667 70.1667,56.8333 73.5,59.5C 74.3403,63.5393 73.007,66.5393 69.5,68.5C 64.8731,65.8646 60.5398,62.8646 56.5,59.5C 56.3944,56.8915 55.2277,54.8915 53,53.5C 52.586,53.9574 52.086,54.2907 51.5,54.5C 48.5405,50.7098 45.0405,47.3764 41,44.5C 40.6667,44.8333 40.3333,45.1667 40,45.5C 39.3333,44.5 39.3333,43.5 40,42.5C 40.7175,43.4506 41.5509,43.6172 42.5,43C 39.8179,40.6697 40.1512,40.1697 43.5,41.5C 44.6223,40.3698 45.9557,39.7031 47.5,39.5 Z"/></g>
<g><path style="opacity:1" fill="#b7b3b1" d="M 64.5,42.5 C 75.6514,50.9171 86.6514,59.5837 97.5,68.5C 92.6273,66.1408 88.1273,63.1408 84,59.5C 83.6667,59.8333 83.3333,60.1667 83,60.5C 76.9648,54.2972 70.7981,48.2972 64.5,42.5 Z"/></g>
<g><path style="opacity:1" fill="#9d9d9e" d="M 55.5,59.5 C 55.8333,59.5 56.1667,59.5 56.5,59.5C 60.5398,62.8646 64.8731,65.8646 69.5,68.5C 73.007,66.5393 74.3403,63.5393 73.5,59.5C 73.8333,59.5 74.1667,59.5 74.5,59.5C 75.7095,59.9321 76.7095,60.5987 77.5,61.5C 76.4937,61.9377 76.4937,62.6043 77.5,63.5C 76.1667,64.8333 74.8333,66.1667 73.5,67.5C 72.6618,67.8417 72.3284,68.5084 72.5,69.5C 65.3929,68.748 59.7262,65.4147 55.5,59.5 Z"/></g>
<g><path style="opacity:1" fill="#424648" d="M 77.5,61.5 C 82.2375,65.5776 87.2375,69.2443 92.5,72.5C 95.6937,75.2721 98.6937,78.2721 101.5,81.5C 93.2118,75.8777 85.2118,69.8777 77.5,63.5C 76.4937,62.6043 76.4937,61.9377 77.5,61.5 Z"/></g>
<g><path style="opacity:1" fill="#bdbab7" d="M 97.5,68.5 C 107.364,74.3606 116.364,81.3606 124.5,89.5C 118.545,86.1819 112.878,82.3486 107.5,78C 103.619,75.2823 100.285,72.1156 97.5,68.5 Z"/></g>
<g><path style="opacity:1" fill="#cfd0cc" d="M 130.5,102.5 C 121.01,95.2552 111.344,88.2552 101.5,81.5C 98.6937,78.2721 95.6937,75.2721 92.5,72.5C 93.4959,72.5858 94.3292,72.2524 95,71.5C 100.269,76.7735 106.102,81.2735 112.5,85C 116.835,89.4837 121.501,93.4837 126.5,97C 128.439,98.4321 129.772,100.265 130.5,102.5 Z"/></g>
<g><path style="opacity:1" fill="#babbba" d="M 73.5,67.5 C 73.5106,69.0174 74.1772,70.1841 75.5,71C 102.787,91.5042 129.121,112.671 154.5,134.5C 148.19,130.342 141.857,126.175 135.5,122C 133.595,120.185 131.928,118.185 130.5,116C 110.914,100.721 91.581,85.221 72.5,69.5C 72.3284,68.5084 72.6618,67.8417 73.5,67.5 Z"/></g>
<g><path style="opacity:1" fill="#e3e0dc" d="M 64.5,42.5 C 70.7981,48.2972 76.9648,54.2972 83,60.5C 83.3333,60.1667 83.6667,59.8333 84,59.5C 88.1273,63.1408 92.6273,66.1408 97.5,68.5C 100.285,72.1156 103.619,75.2823 107.5,78C 112.878,82.3486 118.545,86.1819 124.5,89.5C 129.088,91.4259 132.755,94.4259 135.5,98.5C 137.994,100.599 140.327,102.932 142.5,105.5C 142.081,106.672 141.415,107.672 140.5,108.5C 139.468,105.807 137.802,105.14 135.5,106.5C 133.251,105.92 131.585,104.587 130.5,102.5C 129.772,100.265 128.439,98.4321 126.5,97C 121.501,93.4837 116.835,89.4837 112.5,85C 106.102,81.2735 100.269,76.7735 95,71.5C 94.3292,72.2524 93.4959,72.5858 92.5,72.5C 87.2375,69.2443 82.2375,65.5776 77.5,61.5C 76.7095,60.5987 75.7095,59.9321 74.5,59.5C 71.8353,55.8393 68.502,52.8393 64.5,50.5C 64.0679,49.2905 63.4013,48.2905 62.5,47.5C 58.9288,45.5281 55.5955,43.1948 52.5,40.5C 52.6107,39.8826 52.944,39.3826 53.5,39C 52.1667,38.3333 51.1667,37.3333 50.5,36C 51,35.8333 51.5,35.6667 52,35.5C 55.9628,38.2306 60.1295,40.5639 64.5,42.5 Z"/></g>
<g><path style="opacity:1" fill="#ebeded" d="M 77.5,63.5 C 85.2118,69.8777 93.2118,75.8777 101.5,81.5C 139.879,112.547 178.545,143.214 217.5,173.5C 220.15,174.247 222.816,175.247 225.5,176.5C 226.028,178.336 226.694,180.003 227.5,181.5C 231.167,184.167 234.833,186.833 238.5,189.5C 239.848,190.186 241.015,191.186 242,192.5C 247.922,189.561 250.422,191.561 249.5,198.5C 248.698,197.048 248.198,195.382 248,193.5C 247.44,198.183 244.94,200.016 240.5,199C 241.381,199.708 242.047,200.542 242.5,201.5C 241.417,201.461 240.417,201.127 239.5,200.5C 238.5,198.5 237.5,196.5 236.5,194.5C 232.981,191.904 229.648,189.071 226.5,186C 222.469,185.176 218.802,183.676 215.5,181.5C 215.822,179.278 215.155,177.444 213.5,176C 203.845,170.687 195.012,164.187 187,156.5C 185.951,157.517 184.784,157.684 183.5,157C 176.768,149.747 169.102,143.913 160.5,139.5C 157.02,139.614 155.02,137.948 154.5,134.5C 129.121,112.671 102.787,91.5042 75.5,71C 74.1772,70.1841 73.5106,69.0174 73.5,67.5C 74.8333,66.1667 76.1667,64.8333 77.5,63.5 Z"/></g>
<g><path style="opacity:1" fill="#bfbdbb" d="M 135.5,98.5 C 139.652,101.077 143.985,103.411 148.5,105.5C 155.054,110.94 161.387,116.606 167.5,122.5C 162.783,119.963 158.449,116.796 154.5,113C 151.95,111.558 149.284,110.392 146.5,109.5C 144.185,110.421 144.018,111.754 146,113.5C 149.089,114.96 151.922,116.793 154.5,119C 155.337,120.011 155.67,121.178 155.5,122.5C 151.325,119.165 146.992,115.998 142.5,113C 141.663,111.989 141.33,110.822 141.5,109.5C 138.911,109.539 136.911,108.539 135.5,106.5C 137.802,105.14 139.468,105.807 140.5,108.5C 141.415,107.672 142.081,106.672 142.5,105.5C 140.327,102.932 137.994,100.599 135.5,98.5 Z"/></g>
<g><path style="opacity:1" fill="#434647" d="M 101.5,81.5 C 111.344,88.2552 121.01,95.2552 130.5,102.5C 131.585,104.587 133.251,105.92 135.5,106.5C 136.911,108.539 138.911,109.539 141.5,109.5C 141.33,110.822 141.663,111.989 142.5,113C 146.992,115.998 151.325,119.165 155.5,122.5C 159.491,125.497 163.491,128.497 167.5,131.5C 169.142,132.803 170.809,134.136 172.5,135.5C 186.612,147.063 200.946,158.397 215.5,169.5C 216.574,170.885 217.907,172.051 219.5,173C 218.906,173.464 218.239,173.631 217.5,173.5C 178.545,143.214 139.879,112.547 101.5,81.5 Z"/></g>
<g><path style="opacity:1" fill="#e8e7e3" d="M 167.5,122.5 C 170.149,124.559 170.982,127.225 170,130.5C 169.329,131.252 168.496,131.586 167.5,131.5C 163.491,128.497 159.491,125.497 155.5,122.5C 155.67,121.178 155.337,120.011 154.5,119C 151.922,116.793 149.089,114.96 146,113.5C 144.018,111.754 144.185,110.421 146.5,109.5C 149.284,110.392 151.95,111.558 154.5,113C 158.449,116.796 162.783,119.963 167.5,122.5 Z"/></g>
<g><path style="opacity:1" fill="#bcb9b5" d="M 167.5,122.5 C 172.267,123.886 175.934,126.72 178.5,131C 188.978,137.993 198.645,145.827 207.5,154.5C 198.756,148.597 190.423,142.097 182.5,135C 180,134.625 177.667,133.792 175.5,132.5C 174.145,133.188 173.145,134.188 172.5,135.5C 170.809,134.136 169.142,132.803 167.5,131.5C 168.496,131.586 169.329,131.252 170,130.5C 170.982,127.225 170.149,124.559 167.5,122.5 Z"/></g>
<g><path style="opacity:1" fill="#c6bdb4" d="M 160.5,139.5 C 169.102,143.913 176.768,149.747 183.5,157C 184.784,157.684 185.951,157.517 187,156.5C 195.012,164.187 203.845,170.687 213.5,176C 215.155,177.444 215.822,179.278 215.5,181.5C 215.5,182.5 215.5,183.5 215.5,184.5C 211.348,184.369 210.682,182.869 213.5,180C 211.232,179.91 209.732,181.077 209,183.5C 207.301,182.594 205.467,182.261 203.5,182.5C 201.621,181.659 199.621,181.325 197.5,181.5C 194.613,177.948 190.947,175.615 186.5,174.5C 186.338,172.176 185.172,170.509 183,169.5C 182.667,169.833 182.333,170.167 182,170.5C 180.458,168.435 180.291,166.435 181.5,164.5C 182.013,167.709 183.68,168.709 186.5,167.5C 187.874,168.711 189.374,169.711 191,170.5C 192.533,169.305 194.033,169.305 195.5,170.5C 196.308,170.192 196.975,169.692 197.5,169C 194.891,166.356 191.891,164.189 188.5,162.5C 188.446,163.687 188.113,165.02 187.5,166.5C 186.522,166.023 185.689,165.357 185,164.5C 184.295,166.986 183.462,166.986 182.5,164.5C 184.113,163.162 184.613,161.495 184,159.5C 178.53,154 172.697,148.834 166.5,144C 163.182,144.175 161.182,142.675 160.5,139.5 Z"/></g>
<g><path style="opacity:1" fill="#9e8b7c" d="M 181.5,164.5 C 181.833,164.5 182.167,164.5 182.5,164.5C 183.462,166.986 184.295,166.986 185,164.5C 185.689,165.357 186.522,166.023 187.5,166.5C 188.113,165.02 188.446,163.687 188.5,162.5C 191.891,164.189 194.891,166.356 197.5,169C 196.975,169.692 196.308,170.192 195.5,170.5C 194.033,169.305 192.533,169.305 191,170.5C 189.374,169.711 187.874,168.711 186.5,167.5C 183.68,168.709 182.013,167.709 181.5,164.5 Z"/></g>
<g><path style="opacity:1" fill="#bcbbb7" d="M 207.5,154.5 C 208.922,154.709 210.255,155.209 211.5,156C 221.089,163.614 230.423,171.447 239.5,179.5C 230.205,173.509 221.205,167.009 212.5,160C 210.627,158.296 208.96,156.463 207.5,154.5 Z"/></g>
<g><path style="opacity:1" fill="#ebebe7" d="M 207.5,154.5 C 208.96,156.463 210.627,158.296 212.5,160C 221.205,167.009 230.205,173.509 239.5,179.5C 245.701,186.192 252.701,192.026 260.5,197C 258.942,197.21 257.609,197.71 256.5,198.5C 254.344,200.118 252.677,199.784 251.5,197.5C 250.979,189.988 246.979,186.988 239.5,188.5C 235.5,185.5 231.5,182.5 227.5,179.5C 227.753,177.173 227.086,175.173 225.5,173.5C 222.145,172.145 218.812,170.812 215.5,169.5C 200.946,158.397 186.612,147.063 172.5,135.5C 173.145,134.188 174.145,133.188 175.5,132.5C 177.667,133.792 180,134.625 182.5,135C 190.423,142.097 198.756,148.597 207.5,154.5 Z"/></g>
<g><path style="opacity:1" fill="#937a64" d="M 199.5,170.5 C 203.532,171.694 206.532,174.194 208.5,178C 203.535,177.868 200.535,175.368 199.5,170.5 Z"/></g>
<g><path style="opacity:1" fill="#b3b4b1" d="M 215.5,169.5 C 218.812,170.812 222.145,172.145 225.5,173.5C 227.086,175.173 227.753,177.173 227.5,179.5C 227.5,180.167 227.5,180.833 227.5,181.5C 226.694,180.003 226.028,178.336 225.5,176.5C 222.816,175.247 220.15,174.247 217.5,173.5C 218.239,173.631 218.906,173.464 219.5,173C 217.907,172.051 216.574,170.885 215.5,169.5 Z"/></g>
<g><path style="opacity:1" fill="#515454" d="M 227.5,179.5 C 231.5,182.5 235.5,185.5 239.5,188.5C 239.5,189.167 239.167,189.5 238.5,189.5C 234.833,186.833 231.167,184.167 227.5,181.5C 227.5,180.833 227.5,180.167 227.5,179.5 Z"/></g>
<g><path style="opacity:1" fill="#ababa9" d="M 239.5,188.5 C 246.979,186.988 250.979,189.988 251.5,197.5C 250.662,197.842 250.328,198.508 250.5,199.5C 249.833,199.5 249.5,199.167 249.5,198.5C 250.422,191.561 247.922,189.561 242,192.5C 241.015,191.186 239.848,190.186 238.5,189.5C 239.167,189.5 239.5,189.167 239.5,188.5 Z"/></g>
<g><path style="opacity:1" fill="#dbd7d0" d="M 197.5,181.5 C 199.621,181.325 201.621,181.659 203.5,182.5C 205.081,184.086 207.081,185.086 209.5,185.5C 211.325,184.429 212.492,185.096 213,187.5C 213.667,186.833 214.333,186.167 215,185.5C 214.667,187.5 214.333,189.5 214,191.5C 215.533,191.056 217.033,190.723 218.5,190.5C 220.422,191.711 222.255,193.044 224,194.5C 224.667,193.833 224.667,193.167 224,192.5C 220.535,190.934 218.702,188.601 218.5,185.5C 223.171,188.844 227.505,192.51 231.5,196.5C 230.266,198.398 230.599,200.065 232.5,201.5C 231.957,201.56 231.624,201.893 231.5,202.5C 233.167,203.5 234.5,204.833 235.5,206.5C 234.757,207.182 234.091,207.849 233.5,208.5C 221.315,199.444 209.315,190.444 197.5,181.5 Z"/></g>
<g><path style="opacity:1" fill="#614f43" d="M 231.5,196.5 C 232.496,196.414 233.329,196.748 234,197.5C 234.36,199.421 235.194,201.088 236.5,202.5C 236.333,202.833 236.167,203.167 236,203.5C 235.184,202.177 234.017,201.511 232.5,201.5C 230.599,200.065 230.266,198.398 231.5,196.5 Z"/></g>
<g><path style="opacity:1" fill="#6e6f6c" d="M 251.5,197.5 C 252.677,199.784 254.344,200.118 256.5,198.5C 260.228,198.903 263.228,200.57 265.5,203.5C 266.209,206.685 267.042,209.685 268,212.5C 265.018,210.804 263.684,208.137 264,204.5C 262.833,203.333 261.667,202.167 260.5,201C 257.081,200.752 253.747,200.252 250.5,199.5C 250.328,198.508 250.662,197.842 251.5,197.5 Z"/></g>
<g><path style="opacity:1" fill="#b6aba1" d="M 215.5,181.5 C 218.802,183.676 222.469,185.176 226.5,186C 229.648,189.071 232.981,191.904 236.5,194.5C 237.5,196.5 238.5,198.5 239.5,200.5C 240.417,201.127 241.417,201.461 242.5,201.5C 243.712,202.23 244.712,203.23 245.5,204.5C 245.911,203.738 246.077,202.738 246,201.5C 247.019,202.687 248.186,203.687 249.5,204.5C 250.354,211.911 254.354,214.911 261.5,213.5C 264.843,215.486 266.176,218.486 265.5,222.5C 264.798,223.116 263.798,223.116 262.5,222.5C 261.714,217.417 258.714,215.084 253.5,215.5C 253.38,214.414 252.713,213.747 251.5,213.5C 250.164,214.423 248.83,214.923 247.5,215C 244.781,212.909 242.115,210.742 239.5,208.5C 239.624,207.893 239.957,207.56 240.5,207.5C 241.478,207.189 242.145,206.522 242.5,205.5C 241.277,204.386 239.944,204.219 238.5,205C 239.056,205.383 239.389,205.883 239.5,206.5C 237.5,207.167 235.5,207.833 233.5,208.5C 234.091,207.849 234.757,207.182 235.5,206.5C 234.5,204.833 233.167,203.5 231.5,202.5C 231.624,201.893 231.957,201.56 232.5,201.5C 234.017,201.511 235.184,202.177 236,203.5C 236.167,203.167 236.333,202.833 236.5,202.5C 235.194,201.088 234.36,199.421 234,197.5C 233.329,196.748 232.496,196.414 231.5,196.5C 227.505,192.51 223.171,188.844 218.5,185.5C 218.702,188.601 220.535,190.934 224,192.5C 224.667,193.167 224.667,193.833 224,194.5C 222.255,193.044 220.422,191.711 218.5,190.5C 217.033,190.723 215.533,191.056 214,191.5C 214.333,189.5 214.667,187.5 215,185.5C 214.333,186.167 213.667,186.833 213,187.5C 212.492,185.096 211.325,184.429 209.5,185.5C 207.081,185.086 205.081,184.086 203.5,182.5C 205.467,182.261 207.301,182.594 209,183.5C 209.732,181.077 211.232,179.91 213.5,180C 210.682,182.869 211.348,184.369 215.5,184.5C 215.5,183.5 215.5,182.5 215.5,181.5 Z"/></g>
<g><path style="opacity:1" fill="#4f3d32" d="M 240.5,207.5 C 240.5,206.833 240.167,206.5 239.5,206.5C 239.389,205.883 239.056,205.383 238.5,205C 239.944,204.219 241.277,204.386 242.5,205.5C 242.145,206.522 241.478,207.189 240.5,207.5 Z"/></g>
<g><path style="opacity:1" fill="#bebbb8" d="M 239.5,179.5 C 240.922,179.709 242.255,180.209 243.5,181C 260.355,194.364 277.022,207.864 293.5,221.5C 288.951,219.131 284.785,216.131 281,212.5C 280.517,213.448 280.351,214.448 280.5,215.5C 280.167,215.5 279.833,215.5 279.5,215.5C 278.5,215.167 277.833,214.5 277.5,213.5C 276.22,212.069 274.553,211.402 272.5,211.5C 273.429,210.685 274.429,209.852 275.5,209C 272.333,206.5 269.167,204 266,201.5C 265.536,202.094 265.369,202.761 265.5,203.5C 263.228,200.57 260.228,198.903 256.5,198.5C 257.609,197.71 258.942,197.21 260.5,197C 252.701,192.026 245.701,186.192 239.5,179.5 Z"/></g>
<g><path style="opacity:1" fill="#6a6763" d="M 272.5,211.5 C 274.553,211.402 276.22,212.069 277.5,213.5C 275.146,213.162 272.813,212.662 270.5,212C 271.094,211.536 271.761,211.369 272.5,211.5 Z"/></g>
<g><path style="opacity:1" fill="#958274" d="M 253.5,215.5 C 258.714,215.084 261.714,217.417 262.5,222.5C 261.143,227.386 259.477,227.553 257.5,223C 257.957,222.586 258.291,222.086 258.5,221.5C 256.803,220.636 255.637,219.303 255,217.5C 251.89,216.327 251.723,216.827 254.5,219C 251.018,218.866 250.184,217.366 252,214.5C 252.383,215.056 252.883,215.389 253.5,215.5 Z"/></g>
<g><path style="opacity:1" fill="#5a5a59" d="M 303.5,223.5 C 301.529,221.192 299.529,218.858 297.5,216.5C 298.189,215.226 299.023,215.226 300,216.5C 301.705,218.577 302.872,220.91 303.5,223.5 Z"/></g>
<g><path style="opacity:1" fill="#d5d4d0" d="M 293.5,221.5 C 295.806,223.035 298.139,224.202 300.5,225C 297.238,222.7 296.238,219.867 297.5,216.5C 299.529,218.858 301.529,221.192 303.5,223.5C 302.611,225.736 301.278,227.736 299.5,229.5C 297.374,228.63 295.374,227.63 293.5,226.5C 292.942,225.21 291.942,224.377 290.5,224C 283.897,224.892 280.564,222.058 280.5,215.5C 280.351,214.448 280.517,213.448 281,212.5C 284.785,216.131 288.951,219.131 293.5,221.5 Z"/></g>
<g><path style="opacity:1" fill="#888a88" d="M 279.5,215.5 C 279.833,215.5 280.167,215.5 280.5,215.5C 280.564,222.058 283.897,224.892 290.5,224C 291.942,224.377 292.942,225.21 293.5,226.5C 289.831,225.249 286.164,225.249 282.5,226.5C 280.969,222.989 279.969,219.322 279.5,215.5 Z"/></g>
<g><path style="opacity:1" fill="#b6b3ad" d="M 303.5,223.5 C 304.222,223.918 304.722,224.584 305,225.5C 305.333,224.833 305.667,224.167 306,223.5C 306.756,225.809 306.256,227.809 304.5,229.5C 306.902,231.909 309.569,233.909 312.5,235.5C 312.5,238.833 312.5,242.167 312.5,245.5C 311.698,238.05 307.365,234.384 299.5,234.5C 297.459,233.293 296.126,231.626 295.5,229.5C 294.599,228.71 293.932,227.71 293.5,226.5C 295.374,227.63 297.374,228.63 299.5,229.5C 301.278,227.736 302.611,225.736 303.5,223.5 Z"/></g>
<g><path style="opacity:1" fill="#a1958a" d="M 280.5,236.5 C 275.918,239.252 274.918,238.252 277.5,233.5C 276.5,231.833 275.167,230.5 273.5,229.5C 273.089,230.262 272.923,231.262 273,232.5C 270.943,231.042 268.777,230.208 266.5,230C 265.72,228.927 265.887,227.76 267,226.5C 267.333,227.5 267.667,228.5 268,229.5C 268.816,228.177 269.983,227.511 271.5,227.5C 273.782,226.511 276.115,226.011 278.5,226C 278.167,226.333 277.833,226.667 277.5,227C 278.416,227.374 279.25,227.874 280,228.5C 280.186,231.399 280.352,234.066 280.5,236.5 Z"/></g>
<g><path style="opacity:1" fill="#d2cac1" d="M 239.5,206.5 C 240.167,206.5 240.5,206.833 240.5,207.5C 239.957,207.56 239.624,207.893 239.5,208.5C 242.115,210.742 244.781,212.909 247.5,215C 248.83,214.923 250.164,214.423 251.5,213.5C 252.713,213.747 253.38,214.414 253.5,215.5C 252.883,215.389 252.383,215.056 252,214.5C 250.184,217.366 251.018,218.866 254.5,219C 251.723,216.827 251.89,216.327 255,217.5C 255.637,219.303 256.803,220.636 258.5,221.5C 258.291,222.086 257.957,222.586 257.5,223C 259.477,227.553 261.143,227.386 262.5,222.5C 263.798,223.116 264.798,223.116 265.5,222.5C 267.817,223.82 269.817,225.486 271.5,227.5C 269.983,227.511 268.816,228.177 268,229.5C 267.667,228.5 267.333,227.5 267,226.5C 265.887,227.76 265.72,228.927 266.5,230C 268.777,230.208 270.943,231.042 273,232.5C 272.923,231.262 273.089,230.262 273.5,229.5C 275.167,230.5 276.5,231.833 277.5,233.5C 274.918,238.252 275.918,239.252 280.5,236.5C 281.712,238.264 281.379,239.93 279.5,241.5C 279.97,242.463 280.637,242.463 281.5,241.5C 281.866,242.695 282.699,243.361 284,243.5C 285.798,242.496 287.632,241.996 289.5,242C 288.663,243.011 288.33,244.178 288.5,245.5C 291.329,245.325 292.996,246.658 293.5,249.5C 294.417,250.127 295.417,250.461 296.5,250.5C 296.5,251.167 296.833,251.5 297.5,251.5C 299.304,254.098 301.638,256.265 304.5,258C 308.246,257.912 310.246,259.746 310.5,263.5C 310.957,264.298 311.624,264.631 312.5,264.5C 312.5,266.5 312.5,268.5 312.5,270.5C 311.234,269.91 309.901,269.41 308.5,269C 303.798,263.361 298.132,258.861 291.5,255.5C 272.033,239.797 252.7,224.13 233.5,208.5C 235.5,207.833 237.5,207.167 239.5,206.5 Z"/></g>
<g><path style="opacity:1" fill="#dededb" d="M 249.5,198.5 C 249.5,199.167 249.833,199.5 250.5,199.5C 253.747,200.252 257.081,200.752 260.5,201C 261.667,202.167 262.833,203.333 264,204.5C 263.684,208.137 265.018,210.804 268,212.5C 267.042,209.685 266.209,206.685 265.5,203.5C 265.369,202.761 265.536,202.094 266,201.5C 269.167,204 272.333,206.5 275.5,209C 274.429,209.852 273.429,210.685 272.5,211.5C 271.761,211.369 271.094,211.536 270.5,212C 272.813,212.662 275.146,213.162 277.5,213.5C 277.833,214.5 278.5,215.167 279.5,215.5C 279.969,219.322 280.969,222.989 282.5,226.5C 286.164,225.249 289.831,225.249 293.5,226.5C 293.932,227.71 294.599,228.71 295.5,229.5C 295.231,232.525 296.064,235.192 298,237.5C 301.209,236.146 304.376,236.313 307.5,238C 309.462,241.138 311.129,244.304 312.5,247.5C 312.5,248.833 312.5,250.167 312.5,251.5C 310.83,251.249 309.33,250.582 308,249.5C 304.679,250.971 301.179,251.637 297.5,251.5C 296.833,251.5 296.5,251.167 296.5,250.5C 296.264,247.086 295.598,243.753 294.5,240.5C 289.731,244.439 289.398,243.939 293.5,239C 290.813,238.463 288.313,238.963 286,240.5C 284.251,239.447 282.751,239.78 281.5,241.5C 280.637,242.463 279.97,242.463 279.5,241.5C 281.379,239.93 281.712,238.264 280.5,236.5C 280.352,234.066 280.186,231.399 280,228.5C 279.25,227.874 278.416,227.374 277.5,227C 277.833,226.667 278.167,226.333 278.5,226C 276.115,226.011 273.782,226.511 271.5,227.5C 269.817,225.486 267.817,223.82 265.5,222.5C 266.176,218.486 264.843,215.486 261.5,213.5C 254.354,214.911 250.354,211.911 249.5,204.5C 248.186,203.687 247.019,202.687 246,201.5C 246.077,202.738 245.911,203.738 245.5,204.5C 244.712,203.23 243.712,202.23 242.5,201.5C 242.047,200.542 241.381,199.708 240.5,199C 244.94,200.016 247.44,198.183 248,193.5C 248.198,195.382 248.698,197.048 249.5,198.5 Z"/></g>
<g><path style="opacity:1" fill="#181a1b" d="M 286.5,228.5 C 291.159,228.015 292.492,229.848 290.5,234C 286.132,234.439 284.799,232.606 286.5,228.5 Z"/></g>
<g><path style="opacity:1" fill="#121417" d="M 271.5,216.5 C 276.937,216.649 277.771,218.649 274,222.5C 270.708,221.449 269.875,219.449 271.5,216.5 Z"/></g>
<g><path style="opacity:1" fill="#797672" d="M 295.5,229.5 C 296.126,231.626 297.459,233.293 299.5,234.5C 307.365,234.384 311.698,238.05 312.5,245.5C 312.5,246.167 312.5,246.833 312.5,247.5C 311.129,244.304 309.462,241.138 307.5,238C 304.376,236.313 301.209,236.146 298,237.5C 296.064,235.192 295.231,232.525 295.5,229.5 Z"/></g>
<g><path style="opacity:1" fill="#9b8c81" d="M 296.5,250.5 C 295.417,250.461 294.417,250.127 293.5,249.5C 292.996,246.658 291.329,245.325 288.5,245.5C 288.33,244.178 288.663,243.011 289.5,242C 287.632,241.996 285.798,242.496 284,243.5C 282.699,243.361 281.866,242.695 281.5,241.5C 282.751,239.78 284.251,239.447 286,240.5C 288.313,238.963 290.813,238.463 293.5,239C 289.398,243.939 289.731,244.439 294.5,240.5C 295.598,243.753 296.264,247.086 296.5,250.5 Z"/></g>
<g><path style="opacity:1" fill="#9c8d7e" d="M 312.5,251.5 C 312.5,255.833 312.5,260.167 312.5,264.5C 311.624,264.631 310.957,264.298 310.5,263.5C 310.246,259.746 308.246,257.912 304.5,258C 301.638,256.265 299.304,254.098 297.5,251.5C 301.179,251.637 304.679,250.971 308,249.5C 309.33,250.582 310.83,251.249 312.5,251.5 Z"/></g>
</svg>
