<?xml version="1.0" encoding="UTF-8"?>
<!DOCTYPE svg PUBLIC "-//W3C//DTD SVG 1.1//EN" "http://www.w3.org/Graphics/SVG/1.1/DTD/svg11.dtd">
<svg xmlns="http://www.w3.org/2000/svg" version="1.1" width="1181px" height="635px" style="shape-rendering:geometricPrecision; text-rendering:geometricPrecision; image-rendering:optimizeQuality; fill-rule:evenodd; clip-rule:evenodd" xmlns:xlink="http://www.w3.org/1999/xlink">
<g><path style="opacity:1" fill="#223960" d="M 192.5,2.5 C 201.833,2.5 211.167,2.5 220.5,2.5C 220.667,28.5021 220.5,54.5021 220,80.5C 212.208,86.648 203.708,91.648 194.5,95.5C 192.854,94.0978 191.854,92.2644 191.5,90C 192.285,60.7988 192.618,31.6321 192.5,2.5 Z"/></g>
<g><path style="opacity:1" fill="#8490a7" d="M 325.5,2.5 C 312.344,3.4956 299.01,3.82893 285.5,3.5C 285.5,4.83333 285.5,6.16667 285.5,7.5C 284.549,6.08134 284.216,4.41467 284.5,2.5C 298.167,2.5 311.833,2.5 325.5,2.5 Z"/></g>
<g><path style="opacity:1" fill="#223860" d="M 325.5,2.5 C 331.425,2.19177 337.259,2.5251 343,3.5C 343.816,12.4117 343.65,21.245 342.5,30C 327.5,30.6667 312.5,30.6667 297.5,30C 292.076,23.3228 288.076,15.8228 285.5,7.5C 285.5,6.16667 285.5,4.83333 285.5,3.5C 299.01,3.82893 312.344,3.4956 325.5,2.5 Z"/></g>
<g><path style="opacity:1" fill="#1c5191" d="M 270.5,2.5 C 274.106,2.21083 277.606,2.54416 281,3.5C 284.834,15.5033 290.501,26.5033 298,36.5C 298.5,49.4957 298.667,62.4957 298.5,75.5C 308.592,74.5244 318.592,74.3578 328.5,75C 329,75.5 329.5,76 330,76.5C 330.667,84.1667 330.667,91.8333 330,99.5C 329.228,100.849 328.061,101.682 326.5,102C 315.5,102.667 304.5,102.667 293.5,102C 284.45,96.9486 276.617,90.4486 270,82.5C 269.176,55.7612 269.343,29.0945 270.5,2.5 Z"/></g>
<g><path style="opacity:1" fill="#1d75b5" d="M 386.5,2.5 C 390.514,2.33449 394.514,2.50115 398.5,3C 398.957,3.41395 399.291,3.91395 399.5,4.5C 393.435,10.7372 389.268,18.0705 387,26.5C 379.442,33.6803 377.109,42.347 380,52.5C 386.307,67.142 396.473,78.3086 410.5,86C 411.899,87.0616 412.899,88.395 413.5,90C 407.378,98.8866 399.044,103.887 388.5,105C 376.333,95.5 365.5,84.6667 356,72.5C 343.676,52.4619 344.676,33.1285 359,14.5C 367.091,7.86479 376.257,3.86479 386.5,2.5 Z"/></g>
<g><path style="opacity:1" fill="#177e3a" d="M 890.5,2.5 C 915.046,0.399579 935.546,8.39958 952,26.5C 954.516,30.8708 957.016,35.2041 959.5,39.5C 955.779,48.3961 950.279,56.0627 943,62.5C 934.152,39.9814 917.652,29.148 893.5,30C 886.887,32.6016 881.387,36.7683 877,42.5C 872.944,50.7829 867.777,58.2829 861.5,65C 854.492,68.8354 847.826,73.1687 841.5,78C 837.88,78.8407 834.546,78.174 831.5,76C 827.667,72.1667 823.833,68.3333 820,64.5C 819.333,63.1667 819.333,61.8333 820,60.5C 826.717,54.2225 834.217,49.0559 842.5,45C 848.369,37.4293 853.869,29.596 859,21.5C 867.63,11.9404 878.13,5.60708 890.5,2.5 Z"/></g>
<g><path style="opacity:1" fill="#233961" d="M 394.5,27.5 C 393.791,26.596 392.791,26.2627 391.5,26.5C 391.5,25.5 391.5,24.5 391.5,23.5C 393.761,15.3072 398.261,8.64056 405,3.5C 413.881,5.38702 420.881,10.0537 426,17.5C 432.083,25.0821 434.916,33.5821 434.5,43C 426.481,44.506 418.481,46.006 410.5,47.5C 409.522,47.0233 408.689,46.3567 408,45.5C 407.066,36.7433 402.566,30.7433 394.5,27.5 Z"/></g>
<g><path style="opacity:1" fill="#74aa36" d="M 1079.5,2.5 C 1098.89,2.02861 1114.55,9.36194 1126.5,24.5C 1119.28,29.2676 1112.28,34.2676 1105.5,39.5C 1089.59,27.2569 1073.93,27.7569 1058.5,41C 1047.7,51.7624 1040.36,64.5957 1036.5,79.5C 1035.67,79.8333 1034.83,80.1667 1034,80.5C 1026.25,78.9839 1018.41,78.1505 1010.5,78C 1015.75,36.6964 1038.75,11.5297 1079.5,2.5 Z"/></g>
<g><path style="opacity:1" fill="#939fb2" d="M 391.5,23.5 C 391.5,24.5 391.5,25.5 391.5,26.5C 392.791,26.2627 393.791,26.596 394.5,27.5C 393.167,27.5 391.833,27.5 390.5,27.5C 390.232,25.901 390.566,24.5676 391.5,23.5 Z"/></g>
<g><path style="opacity:1" fill="#187e3b" d="M 1128.5,28.5 C 1132.92,34.7661 1137.59,40.9327 1142.5,47C 1175.94,62.7314 1186.78,88.2314 1175,123.5C 1172.36,131.143 1168.03,137.476 1162,142.5C 1155.67,140.084 1149.5,137.251 1143.5,134C 1141.67,133.101 1140.34,131.767 1139.5,130C 1161.59,101.8 1156.25,80.7995 1123.5,67C 1118.14,61.1099 1113.64,54.6099 1110,47.5C 1109.33,45.8333 1109.33,44.1667 1110,42.5C 1115.61,36.9625 1121.77,32.2958 1128.5,28.5 Z"/></g>
<g><path style="opacity:1" fill="#a3c322" d="M 955.5,118.5 C 956.089,114.029 955.423,110.029 953.5,106.5C 950.342,93.2068 947.509,79.8735 945,66.5C 951.649,60.188 957.149,53.0214 961.5,45C 962.635,44.2506 963.635,44.4173 964.5,45.5C 970.234,56.5341 974.067,68.2008 976,80.5C 983.369,114.447 986.869,148.781 986.5,183.5C 950.639,185.614 915.639,181.281 881.5,170.5C 885.38,162.978 887.38,154.978 887.5,146.5C 899.875,148.341 912.209,150.508 924.5,153C 935.776,154.79 947.109,155.957 958.5,156.5C 958.029,143.788 957.029,131.122 955.5,118.5 Z"/></g>
<g><path style="opacity:1" fill="#74aa36" d="M 814.5,67.5 C 818.812,69.2895 822.479,72.1228 825.5,76C 828.29,78.4784 831.456,80.3118 835,81.5C 828.406,105.008 835.906,122.842 857.5,135C 865.78,139.26 874.447,142.426 883.5,144.5C 883.383,152.969 881.383,160.969 877.5,168.5C 855.117,166.559 836.283,157.225 821,140.5C 802.924,117.503 800.757,93.1696 814.5,67.5 Z"/></g>
<g><path style="opacity:1" fill="#a3c423" d="M 1010.5,82.5 C 1018.49,82.0438 1026.32,82.7105 1034,84.5C 1030.1,108.665 1027.26,132.998 1025.5,157.5C 1048.01,156.062 1070.34,153.228 1092.5,149C 1107.76,145.47 1122.26,139.97 1136,132.5C 1143.27,137.55 1150.77,142.217 1158.5,146.5C 1151.6,154.29 1143.27,160.124 1133.5,164C 1104.22,173.437 1074.22,179.437 1043.5,182C 1028.87,183.606 1014.2,184.273 999.5,184C 999,183.5 998.5,183 998,182.5C 997.671,150.127 1001,118.127 1008,86.5C 1008.48,84.867 1009.31,83.5336 1010.5,82.5 Z"/></g>
<g><path style="opacity:1" fill="#1f5292" d="M 217.5,86.5 C 219.146,91.9273 220.146,97.594 220.5,103.5C 221.981,116.211 221.814,128.878 220,141.5C 210.695,150.442 204.195,161.109 200.5,173.5C 197.388,174.983 194.555,174.65 192,172.5C 191.314,147.811 191.814,123.144 193.5,98.5C 202.084,95.5411 210.084,91.5411 217.5,86.5 Z"/></g>
<g><path style="opacity:1" fill="#1d76b5" d="M 269.5,89.5 C 270.873,89.3433 272.207,89.51 273.5,90C 280.381,97.6852 288.547,103.519 298,107.5C 298.667,118.5 298.667,129.5 298,140.5C 289.587,150.155 283.087,160.988 278.5,173C 275.518,173.498 272.518,173.665 269.5,173.5C 269.101,145.262 269.101,117.262 269.5,89.5 Z"/></g>
<g><path style="opacity:1" fill="#1d5192" d="M 415.5,92.5 C 417.735,93.2279 419.568,94.5612 421,96.5C 427.231,104.412 432.231,113.078 436,122.5C 437.806,127.378 438.473,132.378 438,137.5C 437.5,139.333 436.333,140.5 434.5,141C 424.636,144.344 414.636,147.177 404.5,149.5C 404.167,149 403.833,148.5 403.5,148C 409.37,136.827 408.203,126.327 400,116.5C 397.65,114.317 395.483,111.984 393.5,109.5C 398.968,106.262 404.301,102.762 409.5,99C 411.706,96.9633 413.706,94.7966 415.5,92.5 Z"/></g>
<g><path style="opacity:1" fill="#517cad" d="M 217.5,86.5 C 218.209,85.596 219.209,85.2627 220.5,85.5C 220.5,91.5 220.5,97.5 220.5,103.5C 220.146,97.594 219.146,91.9273 217.5,86.5 Z"/></g>
<g><path style="opacity:1" fill="#bcd260" d="M 953.5,106.5 C 955.423,110.029 956.089,114.029 955.5,118.5C 954.383,114.705 953.717,110.705 953.5,106.5 Z"/></g>
<g><path style="opacity:1" fill="#223960" d="M 359.5,126.5 C 364.167,126.5 368.833,126.5 373.5,126.5C 375.043,148.948 386.709,157.114 408.5,151C 417.864,149.318 426.864,146.484 435.5,142.5C 436.634,146.637 436.134,150.637 434,154.5C 422.227,173.793 405.061,181.293 382.5,177C 365.747,173.585 354.581,163.751 349,147.5C 347.597,142.387 346.43,137.22 345.5,132C 345.585,130.893 345.919,129.893 346.5,129C 351.015,128.386 355.348,127.552 359.5,126.5 Z"/></g>
<g><path style="opacity:1" fill="#243a61" d="M 218.5,146.5 C 232.518,146.757 246.518,147.424 260.5,148.5C 261.636,156.785 261.803,165.118 261,173.5C 247.739,174.395 234.406,175.062 221,175.5C 215.453,175.474 209.953,174.974 204.5,174C 203.765,169.171 204.932,164.671 208,160.5C 211.266,155.625 214.766,150.958 218.5,146.5 Z"/></g>
<g><path style="opacity:1" fill="#253b61" d="M 295.5,147.5 C 311.17,147.333 326.837,147.5 342.5,148C 343.822,156.47 343.822,164.97 342.5,173.5C 322.842,174.666 303.175,174.833 283.5,174C 283.043,173.586 282.709,173.086 282.5,172.5C 285.541,163.416 289.874,155.083 295.5,147.5 Z"/></g>
<g><path style="opacity:1" fill="#a3c323" d="M 998.5,195.5 C 1035.47,194.996 1071.8,199.496 1107.5,209C 1108.91,209.368 1109.91,210.201 1110.5,211.5C 1108.76,219.235 1105.76,226.401 1101.5,233C 1100.5,233.167 1099.5,233.333 1098.5,233.5C 1075.63,228.018 1052.46,224.351 1029,222.5C 1027.56,222.559 1026.23,222.892 1025,223.5C 1026.52,252.301 1031.19,280.635 1039,308.5C 1042.72,322.203 1049.72,333.87 1060,343.5C 1060.02,352.491 1061.19,361.324 1063.5,370C 1063.41,371.107 1063.08,372.107 1062.5,373C 1059.3,372.914 1056.3,371.914 1053.5,370C 1037.76,361.065 1026.26,348.232 1019,331.5C 1004.64,287.254 997.804,241.92 998.5,195.5 Z"/></g>
<g><path style="opacity:1" fill="#124d8f" d="M 91.5,237.5 C 91.4095,240.152 92.0762,242.485 93.5,244.5C 94.6453,248.311 94.8119,252.311 94,256.5C 93.586,256.957 93.086,257.291 92.5,257.5C 85.4835,251.94 77.4835,249.607 68.5,250.5C 66.8561,250.714 65.3561,250.38 64,249.5C 63.5172,250.448 63.3505,251.448 63.5,252.5C 54.9005,257.691 50.4005,265.358 50,275.5C 49.1075,328.17 48.1075,380.837 47,433.5C 31.8763,451.914 21.3763,472.747 15.5,496C 12.7202,496.269 10.5536,495.102 9,492.5C 3.87897,482.977 0.712304,472.977 -0.5,462.5C -0.5,438.833 -0.5,415.167 -0.5,391.5C 0.833333,386.167 0.833333,380.833 -0.5,375.5C -0.5,366.5 -0.5,357.5 -0.5,348.5C 0.833333,341.5 0.833333,334.5 -0.5,327.5C -0.5,313.5 -0.5,299.5 -0.5,285.5C -0.319276,270.442 2.51406,255.775 8,241.5C 23.3874,215.453 46.2208,201.953 76.5,201C 80.0788,203.631 82.5788,207.131 84,211.5C 87.2185,219.986 89.7185,228.652 91.5,237.5 Z"/></g>
<g><path style="opacity:1" fill="#144d8f" d="M 891.5,201.5 C 893.167,201.5 894.833,201.5 896.5,201.5C 896.5,203.167 896.5,204.833 896.5,206.5C 890.906,220.451 886.406,234.784 883,249.5C 874.399,286.364 884.566,316.864 913.5,341C 920.088,345.124 926.088,349.958 931.5,355.5C 930.833,355.833 930.167,356.167 929.5,356.5C 905.313,347.372 880.48,344.705 855,348.5C 853.439,348.397 851.939,348.063 850.5,347.5C 828.727,319.475 822.227,288.142 831,253.5C 837.321,232.52 850.155,217.02 869.5,207C 876.523,203.911 883.857,202.078 891.5,201.5 Z"/></g>
<g><path style="opacity:1" fill="#7490ba" d="M 891.5,201.5 C 893.288,200.378 895.288,200.211 897.5,201C 898.739,203.118 898.405,204.951 896.5,206.5C 896.5,204.833 896.5,203.167 896.5,201.5C 894.833,201.5 893.167,201.5 891.5,201.5 Z"/></g>
<g><path style="opacity:1" fill="#1f365e" d="M 943.5,210.5 C 943.756,212.776 945.09,213.943 947.5,214C 946.833,214.333 946.167,214.667 945.5,215C 947.866,215.44 950.199,215.94 952.5,216.5C 970.174,231.64 979.341,250.973 980,274.5C 975.144,277.012 969.977,278.845 964.5,280C 953.916,282.482 943.249,284.315 932.5,285.5C 931.621,257.775 917.621,244.608 890.5,246C 894.09,230.968 898.757,216.302 904.5,202C 918.375,200.886 931.375,203.719 943.5,210.5 Z"/></g>
<g><path style="opacity:1" fill="#20375e" d="M 86.5,201.5 C 136.079,214.79 158.079,247.123 152.5,298.5C 152.489,304.079 152.156,309.579 151.5,315C 135.106,317.043 118.772,316.876 102.5,314.5C 104.227,284.003 101.061,254.003 93,224.5C 91.4481,218.511 89.1147,212.844 86,207.5C 85.3224,205.402 85.4891,203.402 86.5,201.5 Z"/></g>
<g><path style="opacity:1" fill="#22385f" d="M 196.5,203.5 C 209.791,203.623 223.124,203.789 236.5,204C 237.766,204.309 238.933,204.809 240,205.5C 240.341,220.206 241.175,234.873 242.5,249.5C 242.471,251.029 241.804,252.196 240.5,253C 225.003,255.943 209.836,260.11 195,265.5C 194.228,265.355 193.561,265.022 193,264.5C 192.418,244.826 192.085,225.16 192,205.5C 193.622,204.901 195.122,204.234 196.5,203.5 Z"/></g>
<g><path style="opacity:1" fill="#1674b3" d="M 522.5,203.5 C 540.711,202.626 558.711,204.126 576.5,208C 588.157,211.336 597.99,217.502 606,226.5C 612.082,234.325 617.415,242.658 622,251.5C 624.288,257.317 625.954,263.317 627,269.5C 627.5,292.831 627.667,316.164 627.5,339.5C 615.275,337.19 602.942,335.523 590.5,334.5C 586.704,336.076 583.204,335.742 580,333.5C 579.667,316.833 579.333,300.167 579,283.5C 577.841,266.341 568.674,257.174 551.5,256C 545.917,255.809 540.417,255.309 535,254.5C 533.429,245.846 531.762,237.18 530,228.5C 527.106,221.045 523.939,213.712 520.5,206.5C 520.942,205.261 521.609,204.261 522.5,203.5 Z"/></g>
<g><path style="opacity:1" fill="#1473b3" d="M 295.5,204.5 C 312.167,204.5 328.833,204.5 345.5,204.5C 346.53,255.831 346.53,307.164 345.5,358.5C 343.801,358.66 342.134,358.494 340.5,358C 322.904,343.072 307.404,326.238 294,307.5C 293.749,273.095 294.249,238.761 295.5,204.5 Z"/></g>
<g><path style="opacity:1" fill="#20375e" d="M 387.5,204.5 C 403.185,204.414 418.851,204.914 434.5,206C 435.167,209.333 435.833,212.667 436.5,216C 434.742,232.422 434.408,248.922 435.5,265.5C 435.589,269.285 435.089,272.952 434,276.5C 433.107,277.081 432.107,277.415 431,277.5C 416.631,272.259 401.798,269.259 386.5,268.5C 386.466,250.009 386.132,231.509 385.5,213C 385.481,209.97 386.147,207.137 387.5,204.5 Z"/></g>
<g><path style="opacity:1" fill="#1f375e" d="M 526.5,330.5 C 525.671,337.009 525.005,343.676 524.5,350.5C 514.397,356.391 504.397,362.557 494.5,369C 489.259,373.416 484.259,377.916 479.5,382.5C 478.222,382.218 477.222,381.551 476.5,380.5C 476.434,322.49 476.434,264.49 476.5,206.5C 478.61,205.109 480.943,204.442 483.5,204.5C 493.449,204.128 503.449,204.628 513.5,206C 518.755,214.09 522.255,222.924 524,232.5C 525.711,240.746 526.711,249.079 527,257.5C 527.814,281.876 527.647,306.209 526.5,330.5 Z"/></g>
<g><path style="opacity:1" fill="#6c7995" d="M 693.5,205.5 C 688.125,205.172 682.792,205.505 677.5,206.5C 678.18,207.86 678.847,209.193 679.5,210.5C 676.224,209.878 674.891,207.878 675.5,204.5C 681.69,204.177 687.69,204.51 693.5,205.5 Z"/></g>
<g><path style="opacity:1" fill="#1f365e" d="M 694.5,222.5 C 694.512,219.858 693.179,218.525 690.5,218.5C 686.973,215.577 683.306,212.91 679.5,210.5C 678.847,209.193 678.18,207.86 677.5,206.5C 682.792,205.505 688.125,205.172 693.5,205.5C 728.011,205.796 762.511,205.462 797,204.5C 804.393,203.728 807.56,207.061 806.5,214.5C 805.765,227.488 805.265,240.488 805,253.5C 801.429,254.792 797.595,255.458 793.5,255.5C 768.483,256.444 743.483,255.944 718.5,254C 712.202,242.202 704.202,231.702 694.5,222.5 Z"/></g>
<g><path style="opacity:1" fill="#1774b4" d="M 667.5,208.5 C 670.516,208.841 673.182,210.007 675.5,212C 687.921,222.699 699.088,234.532 709,247.5C 711.732,251.241 714.066,255.241 716,259.5C 716.279,276.225 717.113,292.892 718.5,309.5C 717.833,317.833 717.167,326.167 716.5,334.5C 701.111,335.381 686.111,333.214 671.5,328C 670,327.167 668.833,326 668,324.5C 666.682,285.81 666.515,247.143 667.5,208.5 Z"/></g>
<g><path style="opacity:1" fill="#536282" d="M 943.5,210.5 C 947.054,211.769 950.054,213.769 952.5,216.5C 950.199,215.94 947.866,215.44 945.5,215C 946.167,214.667 946.833,214.333 947.5,214C 945.09,213.943 943.756,212.776 943.5,210.5 Z"/></g>
<g><path style="opacity:1" fill="#63708d" d="M 690.5,218.5 C 693.179,218.525 694.512,219.858 694.5,222.5C 692.833,221.5 691.5,220.167 690.5,218.5 Z"/></g>
<g><path style="opacity:1" fill="#75aa36" d="M 1116.5,211.5 C 1135.74,216.537 1151.91,226.537 1165,241.5C 1169.88,248.263 1173.38,255.596 1175.5,263.5C 1165.98,260.755 1156.31,259.921 1146.5,261C 1136.48,248.31 1123.48,240.143 1107.5,236.5C 1106.39,235.277 1106.22,233.944 1107,232.5C 1110.67,225.646 1113.83,218.646 1116.5,211.5 Z"/></g>
<g><path style="opacity:1" fill="#6287b3" d="M 91.5,237.5 C 92.9238,239.515 93.5905,241.848 93.5,244.5C 92.0762,242.485 91.4095,240.152 91.5,237.5 Z"/></g>
<g><path style="opacity:1" fill="#6884b2" d="M 68.5,250.5 C 67.0697,251.537 65.403,252.204 63.5,252.5C 63.3505,251.448 63.5172,250.448 64,249.5C 65.3561,250.38 66.8561,250.714 68.5,250.5 Z"/></g>
<g><path style="opacity:1" fill="#124d8f" d="M 233.5,258.5 C 238.075,257.343 240.742,259.01 241.5,263.5C 241.643,321.961 241.31,380.461 240.5,439C 238.779,450.095 241.113,460.095 247.5,469C 246.663,470.587 245.33,471.42 243.5,471.5C 228.458,469.573 213.791,466.073 199.5,461C 196.898,460.117 194.731,458.617 193,456.5C 192.536,429.499 192.036,402.499 191.5,375.5C 191.937,341.84 192.104,308.173 192,274.5C 192.93,272.448 194.43,270.948 196.5,270C 208.916,266.025 221.249,262.192 233.5,258.5 Z"/></g>
<g><path style="opacity:1" fill="#187e3b" d="M 1180.5,272.5 C 1180.5,277.833 1180.5,283.167 1180.5,288.5C 1178.34,297.496 1174.51,305.829 1169,313.5C 1165.2,318.301 1161.03,322.801 1156.5,327C 1150.33,330.584 1144.33,334.417 1138.5,338.5C 1134.42,344.331 1130.58,350.331 1127,356.5C 1112.35,373.912 1093.85,380.745 1071.5,377C 1068.84,374.842 1067.34,372.009 1067,368.5C 1065.77,361.555 1065.27,354.555 1065.5,347.5C 1071.58,349.135 1077.75,350.468 1084,351.5C 1089.15,351.004 1093.98,349.504 1098.5,347C 1106.27,340.225 1112.11,332.059 1116,322.5C 1118.5,320 1121,317.5 1123.5,315C 1133.43,310.295 1141.93,303.795 1149,295.5C 1153.46,286.424 1153.63,277.257 1149.5,268C 1149.64,267.228 1149.98,266.561 1150.5,266C 1158.52,264.332 1166.52,264.665 1174.5,267C 1177.02,268.36 1179.02,270.193 1180.5,272.5 Z"/></g>
<g><path style="opacity:1" fill="#154d8f" d="M 386.5,272.5 C 402.996,272.896 418.496,276.896 433,284.5C 434.587,325.604 435.421,366.771 435.5,408C 435.653,424.922 435.153,441.755 434,458.5C 421.626,474.885 406.293,487.552 388,496.5C 387.586,496.043 387.086,495.709 386.5,495.5C 385.781,488.656 385.114,481.823 384.5,475C 384.772,438.326 385.439,401.493 386.5,364.5C 386.692,335.646 386.025,306.812 384.5,278C 385.077,276.1 385.744,274.267 386.5,272.5 Z"/></g>
<g><path style="opacity:1" fill="#1f365e" d="M 224.5,514.5 C 224.027,513.094 223.027,512.427 221.5,512.5C 205.473,502.29 195.806,487.79 192.5,469C 192.104,465.061 193.771,463.728 197.5,465C 202.385,468.297 207.718,470.631 213.5,472C 232.836,477.39 252.503,479.39 272.5,478C 284.815,472.568 291.648,463.068 293,449.5C 294.226,406.492 294.559,363.492 294,320.5C 294.718,319.549 295.551,319.383 296.5,320C 300.641,325.776 305.141,331.276 310,336.5C 321.419,347.592 333.085,358.259 345,368.5C 345.667,392.167 345.667,415.833 345,439.5C 343.9,455.302 341.9,470.968 339,486.5C 318.631,518.765 289.464,532.265 251.5,527C 241.669,524.415 232.669,520.248 224.5,514.5 Z"/></g>
<g><path style="opacity:1" fill="#134d8f" d="M 675.5,334.5 C 682.016,336.57 688.682,338.07 695.5,339C 723.833,339.333 752.167,339.667 780.5,340C 781.261,353.602 781.928,367.269 782.5,381C 783.587,387.557 780.921,390.724 774.5,390.5C 755.883,389.736 737.216,389.569 718.5,390C 717.175,412.958 717.175,435.958 718.5,459C 717.932,462.251 717.098,465.417 716,468.5C 715.25,469.126 714.416,469.626 713.5,470C 698.929,470.651 684.596,472.818 670.5,476.5C 669.522,476.023 668.689,475.357 668,474.5C 666.179,432.848 666.012,391.181 667.5,349.5C 668.487,344.695 668.821,339.695 668.5,334.5C 670.833,334.5 673.167,334.5 675.5,334.5 Z"/></g>
<g><path style="opacity:1" fill="#6f93bc" d="M 675.5,334.5 C 673.167,334.5 670.833,334.5 668.5,334.5C 668.821,339.695 668.487,344.695 667.5,349.5C 667.5,344.167 667.5,338.833 667.5,333.5C 670.385,333.194 673.052,333.527 675.5,334.5 Z"/></g>
<g><path style="opacity:1" fill="#4b5f7e" d="M 526.5,330.5 C 526.666,336.509 526.499,342.509 526,348.5C 525.722,349.416 525.222,350.082 524.5,350.5C 525.005,343.676 525.671,337.009 526.5,330.5 Z"/></g>
<g><path style="opacity:1" fill="#1a75b4" d="M 127.5,338.5 C 135.556,338.198 143.556,338.531 151.5,339.5C 153.134,350.771 153.8,362.104 153.5,373.5C 146.018,373.691 138.685,374.858 131.5,377C 120.713,381.227 110.046,385.727 99.5,390.5C 91.8619,389.731 84.1952,389.231 76.5,389C 75.6919,388.692 75.0253,388.192 74.5,387.5C 74.8109,373.547 74.8109,359.547 74.5,345.5C 74.3262,343.307 74.9929,341.473 76.5,340C 93.6251,340.058 110.625,339.558 127.5,338.5 Z"/></g>
<g><path style="opacity:1" fill="#1f365e" d="M 580.5,342.5 C 594.583,342.04 608.583,342.873 622.5,345C 624.651,345.265 626.318,346.265 627.5,348C 627.873,371.093 628.206,394.26 628.5,417.5C 631.376,441.558 627.876,464.558 618,486.5C 606.569,503.94 591.069,516.107 571.5,523C 561.913,524.926 552.246,525.592 542.5,525C 541.069,524.535 539.903,523.701 539,522.5C 532.988,508.092 530.321,493.092 531,477.5C 531.772,476.151 532.939,475.318 534.5,475C 546.418,475.264 557.752,472.931 568.5,468C 573.733,462.374 577.566,455.874 580,448.5C 579.435,413.1 579.602,377.767 580.5,342.5 Z"/></g>
<g><path style="opacity:1" fill="#1573b3" d="M 862.5,350.5 C 889.607,350.221 915.607,355.388 940.5,366C 959.908,384.413 974.075,406.246 983,431.5C 988.385,463.011 979.885,490.178 957.5,513C 944.476,523.014 929.809,528.847 913.5,530.5C 918.142,519.748 922.309,508.748 926,497.5C 930.068,482.594 932.568,467.427 933.5,452C 933.247,442.482 930.747,433.648 926,425.5C 913.127,408.293 897.96,393.46 880.5,381C 872.07,372.576 864.403,363.576 857.5,354C 858.921,352.377 860.588,351.21 862.5,350.5 Z"/></g>
<g><path style="opacity:1" fill="#104c8e" d="M 524.5,356.5 C 526.487,374.136 527.153,392.136 526.5,410.5C 527.271,437.403 527.271,464.237 526.5,491C 527.644,502.071 529.811,512.904 533,523.5C 531.806,524.43 530.473,525.097 529,525.5C 511.865,524.687 494.698,524.187 477.5,524C 476.214,520.767 475.547,517.267 475.5,513.5C 476.688,472.842 477.521,432.175 478,391.5C 490.799,376.195 506.299,364.528 524.5,356.5 Z"/></g>
<g><path style="opacity:1" fill="#7296bd" d="M 524.5,356.5 C 525.209,355.596 526.209,355.263 527.5,355.5C 527.83,374.008 527.497,392.341 526.5,410.5C 527.153,392.136 526.487,374.136 524.5,356.5 Z"/></g>
<g><path style="opacity:1" fill="#1e365d" d="M 20.5,504.5 C 20.6159,501.14 20.9492,497.807 21.5,494.5C 26.0693,478.36 32.5693,463.027 41,448.5C 42.3894,446.773 44.0561,445.439 46,444.5C 46.9454,444.905 47.6121,445.572 48,446.5C 46.9296,461.276 53.0963,471.276 66.5,476.5C 68.223,477.8 70.3897,478.467 73,478.5C 75.3608,478.496 77.5274,478.163 79.5,477.5C 88.705,475.128 94.8717,469.461 98,460.5C 99.6474,439.197 100.814,417.863 101.5,396.5C 117.217,386.704 134.217,381.37 152.5,380.5C 152.951,410.203 152.451,439.87 151,469.5C 143.423,501.41 123.589,520.91 91.5,528C 62.8695,534.767 39.2028,526.934 20.5,504.5 Z"/></g>
<g><path style="opacity:1" fill="#a5b0c0" d="M 476.5,380.5 C 477.222,381.551 478.222,382.218 479.5,382.5C 478.791,383.404 477.791,383.737 476.5,383.5C 476.5,382.5 476.5,381.5 476.5,380.5 Z"/></g>
<g><path style="opacity:1" fill="#1f375e" d="M 921.5,476.5 C 923.256,477.552 923.923,479.219 923.5,481.5C 920.982,497.222 916.148,512.222 909,526.5C 906.711,529.968 903.544,531.968 899.5,532.5C 859.783,526.283 835.283,503.616 826,464.5C 824.058,456.246 823.058,447.913 823,439.5C 837.101,437.309 851.268,435.309 865.5,433.5C 867.434,433.901 868.934,434.901 870,436.5C 870.251,452.262 875.418,466.096 885.5,478C 893.257,482.858 901.591,483.858 910.5,481C 914.188,479.487 917.855,477.987 921.5,476.5 Z"/></g>
<g><path style="opacity:1" fill="#21385f" d="M 418.5,482.5 C 422.5,480.5 425.5,477.5 427.5,473.5C 429.055,471.06 431.055,469.06 433.5,467.5C 435.252,486.818 435.586,506.152 434.5,525.5C 418.225,525.674 401.892,525.674 385.5,525.5C 384.173,518.77 384.34,512.103 386,505.5C 397.301,498.438 408.135,490.772 418.5,482.5 Z"/></g>
<g><path style="opacity:1" fill="#1f365e" d="M 693.5,475.5 C 725.17,476.478 756.836,476.478 788.5,475.5C 793.914,475.412 799.248,475.912 804.5,477C 805.894,478.739 806.561,480.739 806.5,483C 805.73,496.484 805.23,509.984 805,523.5C 802.826,525.176 800.326,526.176 797.5,526.5C 772.017,525.255 746.517,525.255 721,526.5C 703.162,525.843 685.329,525.177 667.5,524.5C 667.493,521.962 667.159,519.462 666.5,517C 667.279,505.856 667.779,494.689 668,483.5C 668.903,482.299 670.069,481.465 671.5,481C 678.887,478.82 686.22,476.987 693.5,475.5 Z"/></g>
<g><path style="opacity:1" fill="#8794a8" d="M 921.5,476.5 C 922.209,475.596 923.209,475.263 924.5,475.5C 924.795,477.735 924.461,479.735 923.5,481.5C 923.923,479.219 923.256,477.552 921.5,476.5 Z"/></g>
<g><path style="opacity:1" fill="#60708d" d="M 66.5,476.5 C 70.7853,477.295 75.1186,477.628 79.5,477.5C 77.5274,478.163 75.3608,478.496 73,478.5C 70.3897,478.467 68.223,477.8 66.5,476.5 Z"/></g>
<g><path style="opacity:1" fill="#5a6888" d="M 427.5,473.5 C 425.5,477.5 422.5,480.5 418.5,482.5C 421.167,479.167 424.167,476.167 427.5,473.5 Z"/></g>
<g><path style="opacity:1" fill="#6a7b94" d="M 21.5,494.5 C 20.9492,497.807 20.6159,501.14 20.5,504.5C 19.1353,501.041 19.4686,497.708 21.5,494.5 Z"/></g>
<g><path style="opacity:1" fill="#8895ac" d="M 221.5,512.5 C 223.027,512.427 224.027,513.094 224.5,514.5C 222.973,514.573 221.973,513.906 221.5,512.5 Z"/></g>
<g><path style="opacity:1" fill="#71ae30" d="M 573.5,567.5 C 578.826,566.826 581.159,569.159 580.5,574.5C 580.333,576.167 580.167,577.833 580,579.5C 578.938,582.064 577.104,583.731 574.5,584.5C 573.558,584.392 572.725,584.059 572,583.5C 570.946,577.886 571.446,572.552 573.5,567.5 Z"/></g>
<g><path style="opacity:1" fill="#6eac2c" d="M 403.5,568.5 C 405.144,568.286 406.644,568.62 408,569.5C 409.813,576.879 409.48,584.212 407,591.5C 406.103,599.493 405.769,607.493 406,615.5C 413.087,616.315 420.253,616.815 427.5,617C 430.517,617.505 432.851,619.005 434.5,621.5C 434.291,622.086 433.957,622.586 433.5,623C 424.085,625.874 414.585,628.374 405,630.5C 401.089,630.207 398.422,628.207 397,624.5C 396.027,605.475 398.194,586.808 403.5,568.5 Z"/></g>
<g><path style="opacity:1" fill="#6eac2c" d="M 849.5,567.5 C 851.582,567.624 853.082,568.624 854,570.5C 854.667,575.167 854.667,579.833 854,584.5C 850.572,596.689 846.572,608.689 842,620.5C 840.204,623.927 838.037,627.094 835.5,630C 828.594,631.124 824.094,628.291 822,621.5C 818.084,607.082 816.084,592.415 816,577.5C 818.925,575.982 821.258,576.649 823,579.5C 824.406,589.27 826.239,598.937 828.5,608.5C 830.903,608.607 832.736,607.607 834,605.5C 841.027,593.584 846.194,580.917 849.5,567.5 Z"/></g>
<g><path style="opacity:1" fill="#6baa28" d="M 869.5,570.5 C 872.187,570.336 874.854,570.503 877.5,571C 882.875,578.911 887.375,587.411 891,596.5C 891.79,599.634 891.457,602.634 890,605.5C 886.758,608.205 883.258,610.539 879.5,612.5C 881.925,614.145 884.592,615.311 887.5,616C 891.531,616.481 895.531,617.147 899.5,618C 902.265,620.966 901.932,623.633 898.5,626C 885.224,628.944 875.39,624.444 869,612.5C 868.667,618.167 868.333,623.833 868,629.5C 863.634,631.48 860.634,630.147 859,625.5C 854.696,605.711 858.196,587.377 869.5,570.5 Z M 873.5,584.5 C 874.496,584.414 875.329,584.748 876,585.5C 877.444,588.055 878.611,590.721 879.5,593.5C 877.697,597.17 874.863,599.837 871,601.5C 871.021,595.741 871.854,590.074 873.5,584.5 Z"/></g>
<g><path style="opacity:1" fill="#6aaa26" d="M 923.5,569.5 C 926.198,570.143 928.865,570.976 931.5,572C 932.126,572.75 932.626,573.584 933,574.5C 933.924,584.224 935.257,593.89 937,603.5C 938,604.167 939,604.833 940,605.5C 944.079,604.371 948.245,604.204 952.5,605C 955.192,607.632 954.859,609.966 951.5,612C 947.205,612.898 943.372,614.731 940,617.5C 939.855,621.523 939.021,625.356 937.5,629C 934.331,629.978 931.497,629.478 929,627.5C 927.556,624.162 927.056,620.828 927.5,617.5C 923.235,616.561 918.902,616.228 914.5,616.5C 914.772,620.902 914.439,625.235 913.5,629.5C 909.805,631.186 906.971,630.186 905,626.5C 899.727,613.495 899.227,600.328 903.5,587C 910.62,584.207 915.453,579.04 918,571.5C 919.948,570.891 921.782,570.224 923.5,569.5 Z M 921.5,589.5 C 922.167,590.167 922.833,590.833 923.5,591.5C 923.566,595.559 923.733,599.559 924,603.5C 916.736,605.899 914.736,603.565 918,596.5C 919.705,594.423 920.872,592.09 921.5,589.5 Z"/></g>
<g><path style="opacity:1" fill="#73af34" d="M 958.5,570.5 C 960.857,570.337 963.19,570.503 965.5,571C 966.24,572.785 966.907,574.618 967.5,576.5C 966.274,579.952 964.774,583.285 963,586.5C 961.333,587.833 959.667,587.833 958,586.5C 957.267,581.115 957.433,575.782 958.5,570.5 Z"/></g>
<g><path style="opacity:1" fill="#6dab2a" d="M 560.5,570.5 C 562.167,570.5 563.833,570.5 565.5,570.5C 565.66,572.199 565.494,573.866 565,575.5C 558.804,591.088 552.804,606.755 547,622.5C 539.589,633.479 532.922,633.146 527,621.5C 525.88,613.493 524.713,605.493 523.5,597.5C 524.048,590.064 525.215,582.731 527,575.5C 529,574.167 531,574.167 533,575.5C 533.576,581.514 533.41,587.514 532.5,593.5C 533,598.5 533.5,603.5 534,608.5C 534.308,609.308 534.808,609.975 535.5,610.5C 542.409,600.359 548.576,589.693 554,578.5C 556.001,575.669 558.167,573.003 560.5,570.5 Z"/></g>
<g><path style="opacity:1" fill="#6baa27" d="M 772.5,571.5 C 777.027,570.526 779.36,572.359 779.5,577C 774.033,591.484 771.867,606.318 773,621.5C 771.24,629.132 766.74,631.299 759.5,628C 752.657,622.323 746.323,616.156 740.5,609.5C 739.808,610.025 739.308,610.692 739,611.5C 738.768,615.555 738.268,619.555 737.5,623.5C 733.475,625.299 730.308,624.299 728,620.5C 725.726,605.737 726.393,591.07 730,576.5C 737.619,572.966 742.953,575.299 746,583.5C 745.185,594.399 748.685,603.566 756.5,611C 757.793,611.49 759.127,611.657 760.5,611.5C 759.554,596.604 763.554,583.271 772.5,571.5 Z"/></g>
<g><path style="opacity:1" fill="#6baa26" d="M 462.5,572.5 C 467.825,572.107 471.991,574.107 475,578.5C 474.526,587.475 474.526,596.475 475,605.5C 475.5,606 476,606.5 476.5,607C 481.195,607.872 485.861,608.872 490.5,610C 490.957,610.414 491.291,610.914 491.5,611.5C 486.634,613.606 481.8,615.939 477,618.5C 476.721,622.17 476.888,625.837 477.5,629.5C 471.255,628.765 467.255,625.265 465.5,619C 460.871,617.266 456.205,617.099 451.5,618.5C 450.97,622.285 449.97,625.952 448.5,629.5C 443.937,631.542 440.771,630.208 439,625.5C 439.523,618.705 438.023,612.538 434.5,607C 434.645,606.228 434.978,605.561 435.5,605C 437.727,604.879 439.56,604.046 441,602.5C 442.983,595.235 444.65,587.902 446,580.5C 448.299,578.464 450.799,578.131 453.5,579.5C 456.75,577.388 459.75,575.055 462.5,572.5 Z M 459.5,592.5 C 460.222,592.918 460.722,593.584 461,594.5C 461.499,598.152 461.665,601.818 461.5,605.5C 458.41,606.17 456.743,605.003 456.5,602C 457.603,598.859 458.603,595.693 459.5,592.5 Z"/></g>
<g><path style="opacity:1" fill="#6cab28" d="M 684.5,574.5 C 688.709,574.841 692.875,575.508 697,576.5C 704.141,575.423 711.307,575.256 718.5,576C 721.008,576.115 723.008,577.115 724.5,579C 724.355,579.772 724.022,580.439 723.5,581C 713.418,584.147 703.251,586.647 693,588.5C 692.517,589.448 692.351,590.448 692.5,591.5C 696.182,591.335 699.848,591.501 703.5,592C 704.406,596.832 702.406,600.165 697.5,602C 693.434,602.979 689.434,604.146 685.5,605.5C 683.938,608.614 684.271,611.447 686.5,614C 690.261,614.738 693.928,614.405 697.5,613C 703.675,609.162 710.175,605.996 717,603.5C 720.164,603.767 721.164,605.433 720,608.5C 714.63,618.871 706.463,626.038 695.5,630C 677.496,631.996 669.496,623.996 671.5,606C 667.294,601.923 667.794,598.423 673,595.5C 676.468,589.904 678.801,583.904 680,577.5C 681.652,576.601 683.152,575.601 684.5,574.5 Z"/></g>
<g><path style="opacity:1" fill="#91bf5c" d="M 611.5,575.5 C 606.342,576.458 601.009,577.125 595.5,577.5C 600.553,575.74 605.886,575.073 611.5,575.5 Z"/></g>
<g><path style="opacity:1" fill="#6baa27" d="M 611.5,575.5 C 618.841,575.334 626.174,575.5 633.5,576C 634.706,578.709 633.706,580.375 630.5,581C 623.155,583.335 615.822,585.669 608.5,588C 606.503,590.492 605.503,593.325 605.5,596.5C 611.527,595.718 617.527,594.718 623.5,593.5C 624.442,593.608 625.275,593.941 626,594.5C 625.996,600.202 623.162,604.035 617.5,606C 611.523,606.831 605.523,607.331 599.5,607.5C 599.335,610.518 599.502,613.518 600,616.5C 603.631,618.35 607.464,618.85 611.5,618C 618.137,616.232 624.637,614.066 631,611.5C 632.28,611.613 633.113,612.28 633.5,613.5C 627.369,621.13 619.702,626.63 610.5,630C 598.317,632.33 590.817,627.497 588,615.5C 587.333,610.5 587.333,605.5 588,600.5C 589.735,595.794 591.569,591.127 593.5,586.5C 592.135,585.059 590.635,583.726 589,582.5C 588.51,581.207 588.343,579.873 588.5,578.5C 590.806,578.007 593.139,577.674 595.5,577.5C 601.009,577.125 606.342,576.458 611.5,575.5 Z"/></g>
<g><path style="opacity:1" fill="#d0e3b8" d="M 921.5,589.5 C 921.56,588.957 921.893,588.624 922.5,588.5C 923.386,589.325 923.719,590.325 923.5,591.5C 922.833,590.833 922.167,590.167 921.5,589.5 Z"/></g>
<g><path style="opacity:1" fill="#70ad2f" d="M 571.5,588.5 C 579.014,589.36 582.68,593.693 582.5,601.5C 581.526,610.677 579.693,619.677 577,628.5C 574.916,631.033 572.916,631.033 571,628.5C 569.593,622.708 568.427,616.875 567.5,611C 569.018,604.263 569.851,597.43 570,590.5C 570.717,589.956 571.217,589.289 571.5,588.5 Z"/></g>
<g><path style="opacity:1" fill="#70ad2f" d="M 959.5,590.5 C 965.452,590.337 968.285,593.337 968,599.5C 968.818,609.666 967.985,619.666 965.5,629.5C 963.091,630.722 961.258,630.055 960,627.5C 958.287,621.221 956.787,614.887 955.5,608.5C 956.224,603.152 957.057,597.819 958,592.5C 958.717,591.956 959.217,591.289 959.5,590.5 Z"/></g>
</svg>
