<?xml version="1.0" encoding="UTF-8"?>
<!DOCTYPE svg PUBLIC "-//W3C//DTD SVG 1.1//EN" "http://www.w3.org/Graphics/SVG/1.1/DTD/svg11.dtd">
<svg xmlns="http://www.w3.org/2000/svg" version="1.1" width="232px" height="390px" style="shape-rendering:geometricPrecision; text-rendering:geometricPrecision; image-rendering:optimizeQuality; fill-rule:evenodd; clip-rule:evenodd" xmlns:xlink="http://www.w3.org/1999/xlink">
<g><path style="opacity:1" fill="#fdfdfd" d="M -0.5,-0.5 C 46.5,-0.5 93.5,-0.5 140.5,-0.5C 122.032,12.7314 110.865,30.7314 107,53.5C 103.602,72.2126 103.769,90.8792 107.5,109.5C 111.777,106.727 115.61,103.393 119,99.5C 119.483,98.552 119.649,97.552 119.5,96.5C 120.889,91.7312 121.556,86.7312 121.5,81.5C 123.236,69.794 127.069,58.794 133,48.5C 136.473,42.3329 141.64,39.8329 148.5,41C 150.049,42.214 151.215,43.714 152,45.5C 152.828,60.3531 149.161,74.0198 141,86.5C 136.544,92.6249 131.711,98.4583 126.5,104C 104.807,120.354 84.974,138.854 67,159.5C 36.743,199.432 37.0764,239.099 68,278.5C 76.5785,288.255 87.0785,294.922 99.5,298.5C 101.515,299.924 103.848,300.59 106.5,300.5C 113.123,301.38 119.789,301.713 126.5,301.5C 126.663,296.453 126.329,291.453 125.5,286.5C 99.1207,288.233 80.2874,277.233 69,253.5C 66.7308,245.685 65.8975,237.685 66.5,229.5C 68.2766,226.495 69.2766,223.162 69.5,219.5C 76.9354,200.196 88.602,183.696 104.5,170C 108.558,167.642 112.225,164.808 115.5,161.5C 117.456,162.478 119.456,163.478 121.5,164.5C 119.5,166.167 117.5,167.833 115.5,169.5C 114.421,174.552 114.754,179.552 116.5,184.5C 116.719,185.675 116.386,186.675 115.5,187.5C 89.3217,201.181 80.155,222.181 88,250.5C 91.6654,259.831 97.832,266.998 106.5,272C 110.167,272.667 113.833,272.667 117.5,272C 118.517,270.951 118.684,269.784 118,268.5C 113.624,263.081 110.29,257.081 108,250.5C 106.394,238.029 111.228,229.363 122.5,224.5C 122.5,225.5 122.5,226.5 122.5,227.5C 122.362,232.414 123.028,237.081 124.5,241.5C 126.467,251.952 127.8,262.618 128.5,273.5C 128.116,277.489 128.783,281.155 130.5,284.5C 132.058,296.849 133.725,309.182 135.5,321.5C 136.218,330.482 136.552,339.482 136.5,348.5C 135.523,359.465 130.189,367.465 120.5,372.5C 120.167,372.167 119.833,371.833 119.5,371.5C 125.284,364.575 127.617,356.575 126.5,347.5C 126.59,344.848 125.924,342.515 124.5,340.5C 116.99,325.14 104.657,318.973 87.5,322C 70.656,328.846 63.4893,341.346 66,359.5C 69.5321,371.035 76.6987,379.535 87.5,385C 92.2431,386.638 96.9098,388.138 101.5,389.5C 67.5,389.5 33.5,389.5 -0.5,389.5C -0.5,259.5 -0.5,129.5 -0.5,-0.5 Z"/></g>
<g><path style="opacity:1" fill="#fdfdfd" d="M 147.5,-0.5 C 175.5,-0.5 203.5,-0.5 231.5,-0.5C 231.5,129.5 231.5,259.5 231.5,389.5C 193.5,389.5 155.5,389.5 117.5,389.5C 128.251,386.534 137.418,380.867 145,372.5C 148.704,367.058 151.037,361.058 152,354.5C 152.508,343.482 152.175,332.482 151,321.5C 145.332,288.655 140.832,255.655 137.5,222.5C 146.674,224.839 152.841,230.506 156,239.5C 156.689,245.882 156.355,252.215 155,258.5C 153.157,264.693 151.324,270.86 149.5,277C 149.889,282.956 150.889,288.789 152.5,294.5C 173.979,282.64 184.645,264.306 184.5,239.5C 183.504,214.671 171.837,196.838 149.5,186C 143.555,184.838 137.555,184.338 131.5,184.5C 131.5,182.833 131.5,181.167 131.5,179.5C 131.192,175.64 130.525,171.974 129.5,168.5C 129.72,165.6 129.054,162.933 127.5,160.5C 125.754,162.252 123.754,163.585 121.5,164.5C 119.456,163.478 117.456,162.478 115.5,161.5C 153.196,133.092 170.696,95.0923 168,47.5C 166.17,35.5093 163.17,23.8427 159,12.5C 157.333,9.83333 155.667,7.16667 154,4.5C 151.648,2.96973 149.481,1.30307 147.5,-0.5 Z"/></g>
<g><path style="opacity:1" fill="#050505" d="M 140.5,-0.5 C 142.833,-0.5 145.167,-0.5 147.5,-0.5C 149.481,1.30307 151.648,2.96973 154,4.5C 155.667,7.16667 157.333,9.83333 159,12.5C 163.17,23.8427 166.17,35.5093 168,47.5C 170.696,95.0923 153.196,133.092 115.5,161.5C 112.225,164.808 108.558,167.642 104.5,170C 88.602,183.696 76.9354,200.196 69.5,219.5C 67.7234,222.505 66.7234,225.838 66.5,229.5C 65.8975,237.685 66.7308,245.685 69,253.5C 80.2874,277.233 99.1207,288.233 125.5,286.5C 126.329,291.453 126.663,296.453 126.5,301.5C 119.789,301.713 113.123,301.38 106.5,300.5C 104.485,299.076 102.152,298.41 99.5,298.5C 87.0785,294.922 76.5785,288.255 68,278.5C 37.0764,239.099 36.743,199.432 67,159.5C 84.974,138.854 104.807,120.354 126.5,104C 131.711,98.4583 136.544,92.6249 141,86.5C 149.161,74.0198 152.828,60.3531 152,45.5C 151.215,43.714 150.049,42.214 148.5,41C 141.64,39.8329 136.473,42.3329 133,48.5C 127.069,58.794 123.236,69.794 121.5,81.5C 119.969,86.2502 119.302,91.2502 119.5,96.5C 119.649,97.552 119.483,98.552 119,99.5C 115.61,103.393 111.777,106.727 107.5,109.5C 103.769,90.8792 103.602,72.2126 107,53.5C 110.865,30.7314 122.032,12.7314 140.5,-0.5 Z"/></g>
<g><path style="opacity:1" fill="#b5b5b5" d="M 121.5,81.5 C 121.556,86.7312 120.889,91.7312 119.5,96.5C 119.302,91.2502 119.969,86.2502 121.5,81.5 Z"/></g>
<g><path style="opacity:1" fill="#050505" d="M 129.5,168.5 C 129.116,172.489 129.783,176.155 131.5,179.5C 131.5,181.167 131.5,182.833 131.5,184.5C 137.555,184.338 143.555,184.838 149.5,186C 171.837,196.838 183.504,214.671 184.5,239.5C 184.645,264.306 173.979,282.64 152.5,294.5C 150.889,288.789 149.889,282.956 149.5,277C 151.324,270.86 153.157,264.693 155,258.5C 156.355,252.215 156.689,245.882 156,239.5C 152.841,230.506 146.674,224.839 137.5,222.5C 140.832,255.655 145.332,288.655 151,321.5C 152.175,332.482 152.508,343.482 152,354.5C 151.037,361.058 148.704,367.058 145,372.5C 137.418,380.867 128.251,386.534 117.5,389.5C 112.167,389.5 106.833,389.5 101.5,389.5C 96.9098,388.138 92.2431,386.638 87.5,385C 76.6987,379.535 69.5321,371.035 66,359.5C 63.4893,341.346 70.656,328.846 87.5,322C 104.657,318.973 116.99,325.14 124.5,340.5C 124.41,343.152 125.076,345.485 126.5,347.5C 127.617,356.575 125.284,364.575 119.5,371.5C 119.833,371.833 120.167,372.167 120.5,372.5C 130.189,367.465 135.523,359.465 136.5,348.5C 137.165,345.183 137.499,341.683 137.5,338C 137.642,332.257 136.975,326.757 135.5,321.5C 133.725,309.182 132.058,296.849 130.5,284.5C 130.192,280.64 129.525,276.974 128.5,273.5C 127.8,262.618 126.467,251.952 124.5,241.5C 124.638,236.586 123.972,231.919 122.5,227.5C 122.5,226.5 122.5,225.5 122.5,224.5C 111.228,229.363 106.394,238.029 108,250.5C 110.29,257.081 113.624,263.081 118,268.5C 118.684,269.784 118.517,270.951 117.5,272C 113.833,272.667 110.167,272.667 106.5,272C 97.832,266.998 91.6654,259.831 88,250.5C 80.155,222.181 89.3217,201.181 115.5,187.5C 116.386,186.675 116.719,185.675 116.5,184.5C 116.497,179.473 116.164,174.473 115.5,169.5C 117.5,167.833 119.5,166.167 121.5,164.5C 123.754,163.585 125.754,162.252 127.5,160.5C 129.054,162.933 129.72,165.6 129.5,168.5 Z"/></g>
<g><path style="opacity:1" fill="#4a4a4a" d="M 129.5,168.5 C 130.525,171.974 131.192,175.64 131.5,179.5C 129.783,176.155 129.116,172.489 129.5,168.5 Z"/></g>
<g><path style="opacity:1" fill="#bdbdbd" d="M 115.5,169.5 C 116.164,174.473 116.497,179.473 116.5,184.5C 114.754,179.552 114.421,174.552 115.5,169.5 Z"/></g>
<g><path style="opacity:1" fill="#9b9b9b" d="M 69.5,219.5 C 69.2766,223.162 68.2766,226.495 66.5,229.5C 66.7234,225.838 67.7234,222.505 69.5,219.5 Z"/></g>
<g><path style="opacity:1" fill="#bbbbbb" d="M 122.5,227.5 C 123.972,231.919 124.638,236.586 124.5,241.5C 123.028,237.081 122.362,232.414 122.5,227.5 Z"/></g>
<g><path style="opacity:1" fill="#a6a6a6" d="M 128.5,273.5 C 129.525,276.974 130.192,280.64 130.5,284.5C 128.783,281.155 128.116,277.489 128.5,273.5 Z"/></g>
<g><path style="opacity:1" fill="#4e4e4e" d="M 99.5,298.5 C 102.152,298.41 104.485,299.076 106.5,300.5C 103.848,300.59 101.515,299.924 99.5,298.5 Z"/></g>
<g><path style="opacity:1" fill="#a4a4a4" d="M 135.5,321.5 C 136.975,326.757 137.642,332.257 137.5,338C 137.499,341.683 137.165,345.183 136.5,348.5C 136.552,339.482 136.218,330.482 135.5,321.5 Z"/></g>
<g><path style="opacity:1" fill="#4d4d4d" d="M 124.5,340.5 C 125.924,342.515 126.59,344.848 126.5,347.5C 125.076,345.485 124.41,343.152 124.5,340.5 Z"/></g>
</svg>
