<?xml version="1.0" encoding="UTF-8" standalone="no"?>
<svg
   xmlns:dc="http://purl.org/dc/elements/1.1/"
   xmlns:cc="http://creativecommons.org/ns#"
   xmlns:rdf="http://www.w3.org/1999/02/22-rdf-syntax-ns#"
   xmlns:svg="http://www.w3.org/2000/svg"
   xmlns="http://www.w3.org/2000/svg"
   xmlns:sodipodi="http://sodipodi.sourceforge.net/DTD/sodipodi-0.dtd"
   xmlns:inkscape="http://www.inkscape.org/namespaces/inkscape"
   sodipodi:docname="c_plus_plus.svg"
   inkscape:version="1.0 (4035a4fb49, 2020-05-01)"
   id="svg8"
   version="1.1"
   viewBox="0 0 67.733333 67.733335"
   height="256"
   width="256">
  <defs
     id="defs2" />
  <sodipodi:namedview
     inkscape:window-maximized="1"
     inkscape:window-y="-8"
     inkscape:window-x="1912"
     inkscape:window-height="1017"
     inkscape:window-width="1920"
     inkscape:snap-page="true"
     units="px"
     showgrid="false"
     inkscape:document-rotation="0"
     inkscape:current-layer="layer1"
     inkscape:document-units="mm"
     inkscape:cy="67.413551"
     inkscape:cx="327.37561"
     inkscape:zoom="1.6152344"
     inkscape:pageshadow="2"
     inkscape:pageopacity="0.0"
     borderopacity="1.0"
     bordercolor="#666666"
     pagecolor="#ffffff"
     id="base" />
  <metadata
     id="metadata5">
    <rdf:RDF>
      <cc:Work
         rdf:about="">
        <dc:format>image/svg+xml</dc:format>
        <dc:type
           rdf:resource="http://purl.org/dc/dcmitype/StillImage" />
        <dc:title></dc:title>
      </cc:Work>
    </rdf:RDF>
  </metadata>
  <g
     id="layer1"
     inkscape:groupmode="layer"
     inkscape:label="レイヤー 1">
    <path
       transform="scale(0.26458333)"
       d="M 128 3 L 19.746094 65.5 L 19.746094 190.5 L 128 253 L 236.25391 190.5 L 236.25391 65.5 L 128 3 z M 75.089844 93.455078 C 80.497821 93.455078 85.314027 94.534294 89.537109 96.691406 C 93.760192 98.848521 96.995881 101.52279 99.244141 104.71289 C 101.4924 107.87261 102.61523 110.86394 102.61523 113.68945 C 102.61523 115.23893 102.06836 116.60612 100.97461 117.79102 C 99.880862 118.97591 98.559243 119.56836 97.009766 119.56836 C 95.277999 119.56836 93.972873 119.1582 93.091797 118.33789 C 92.241106 117.51758 91.284071 116.10482 90.220703 114.09961 C 88.458554 110.78798 86.376731 108.31249 83.976562 106.67188 C 81.606774 105.03125 78.675557 104.21094 75.181641 104.21094 C 69.621754 104.21094 65.184671 106.32184 61.873047 110.54492 C 58.591802 114.768 56.951172 120.76911 56.951172 128.54688 C 56.951172 133.74218 57.680341 138.07162 59.138672 141.53516 C 60.597003 144.96831 62.664286 147.53494 65.337891 149.23633 C 68.011498 150.93771 71.139546 151.78906 74.724609 151.78906 C 78.613491 151.78906 81.894754 150.83203 84.568359 148.91797 C 87.272349 146.97353 89.308598 144.13346 90.675781 140.39648 C 91.253039 138.63434 91.967668 137.20508 92.818359 136.11133 C 93.669053 134.9872 95.036243 134.42578 96.919922 134.42578 C 98.530162 134.42578 99.911894 134.9872 101.06641 136.11133 C 102.22092 137.23546 102.79883 138.63369 102.79883 140.30469 C 102.79883 142.43142 102.26649 144.74111 101.20312 147.23242 C 100.17014 149.69336 98.52951 152.12327 96.28125 154.52344 C 94.03299 156.89322 91.161885 158.82183 87.667969 160.31055 C 84.17405 161.79926 80.103506 162.54492 75.455078 162.54492 C 71.930777 162.54492 68.72417 162.20942 65.837891 161.54102 C 62.951612 160.87261 60.324865 159.84093 57.955078 158.44336 C 55.615672 157.01541 53.457245 155.14691 51.482422 152.83789 C 49.720273 150.74154 48.21636 148.40082 46.970703 145.81836 C 45.725044 143.20552 44.784504 140.42556 44.146484 137.47852 C 43.538847 134.53147 43.234375 131.40342 43.234375 128.0918 C 43.234375 122.7142 44.009116 117.898 45.558594 113.64453 C 47.138451 109.39107 49.386073 105.75976 52.302734 102.75195 C 55.219396 99.713762 58.637376 97.40603 62.556641 95.826172 C 66.475905 94.246314 70.654089 93.455078 75.089844 93.455078 z M 128.95703 105.03125 L 140.71484 105.03125 L 140.71484 122.48633 L 158.25977 122.48633 L 158.25977 134.42578 L 140.71484 134.42578 L 140.71484 151.78906 L 128.95703 151.78906 L 128.95703 134.42578 L 111.50195 134.42578 L 111.50195 122.48633 L 128.95703 122.48633 L 128.95703 105.03125 z M 183.46289 105.03125 L 195.2207 105.03125 L 195.2207 122.48633 L 212.76562 122.48633 L 212.76562 134.42578 L 195.2207 134.42578 L 195.2207 151.78906 L 183.46289 151.78906 L 183.46289 134.42578 L 166.00781 134.42578 L 166.00781 122.48633 L 183.46289 122.48633 L 183.46289 105.03125 z "
       style="fill:currentColor;fill-opacity:1;stroke-width:0.188976"
       id="path869" />
    <g
       style="font-style:normal;font-weight:normal;font-size:24.6944px;line-height:1.25;font-family:sans-serif;fill:currentColor;fill-opacity:1;stroke:none;stroke-width:0.264583"
       id="text833"
       aria-label="C++" />
  </g>
</svg>
