<?xml version="1.0" encoding="UTF-8" standalone="no"?>
<svg
   xmlns:dc="http://purl.org/dc/elements/1.1/"
   xmlns:cc="http://creativecommons.org/ns#"
   xmlns:rdf="http://www.w3.org/1999/02/22-rdf-syntax-ns#"
   xmlns:svg="http://www.w3.org/2000/svg"
   xmlns="http://www.w3.org/2000/svg"
   xmlns:sodipodi="http://sodipodi.sourceforge.net/DTD/sodipodi-0.dtd"
   xmlns:inkscape="http://www.inkscape.org/namespaces/inkscape"
   sodipodi:docname="c_sharp.svg"
   inkscape:version="1.0 (4035a4fb49, 2020-05-01)"
   id="svg8"
   version="1.1"
   viewBox="0 0 67.733333 67.733335"
   height="256"
   width="256">
  <defs
     id="defs2" />
  <sodipodi:namedview
     inkscape:window-maximized="1"
     inkscape:window-y="-8"
     inkscape:window-x="1912"
     inkscape:window-height="1017"
     inkscape:window-width="1920"
     inkscape:snap-page="true"
     units="px"
     showgrid="false"
     inkscape:document-rotation="0"
     inkscape:current-layer="layer1"
     inkscape:document-units="mm"
     inkscape:cy="109.05452"
     inkscape:cx="220.36655"
     inkscape:zoom="2.2842864"
     inkscape:pageshadow="2"
     inkscape:pageopacity="0.0"
     borderopacity="1.0"
     bordercolor="#666666"
     pagecolor="#ffffff"
     id="base" />
  <metadata
     id="metadata5">
    <rdf:RDF>
      <cc:Work
         rdf:about="">
        <dc:format>image/svg+xml</dc:format>
        <dc:type
           rdf:resource="http://purl.org/dc/dcmitype/StillImage" />
        <dc:title></dc:title>
      </cc:Work>
    </rdf:RDF>
  </metadata>
  <g
     id="layer1"
     inkscape:groupmode="layer"
     inkscape:label="レイヤー 1">
    <path
       transform="scale(0.26458333)"
       d="M 128 3 L 19.746094 65.5 L 19.746094 190.5 L 128 253 L 236.25391 190.5 L 236.25391 65.5 L 128 3 z M 91.216797 78.650391 C 98.942496 78.650391 105.82053 80.191838 111.85352 83.273438 C 117.88651 86.355037 122.5089 90.175128 125.7207 94.732422 C 128.93251 99.246314 130.53906 103.52018 130.53906 107.55664 C 130.53906 109.77018 129.75781 111.72331 128.19531 113.41602 C 126.63281 115.10873 124.74479 115.95508 122.53125 115.95508 C 120.05729 115.95508 118.19032 115.36914 116.93164 114.19727 C 115.71636 113.02539 114.34918 111.00716 112.83008 108.14258 C 110.31272 103.41167 107.34093 99.875003 103.91211 97.53125 C 100.52669 95.187499 96.337025 94.015625 91.345703 94.015625 C 83.402988 94.015625 77.066843 97.031463 72.335938 103.06445 C 67.648434 109.09744 65.304688 117.67013 65.304688 128.78125 C 65.304688 136.20313 66.346351 142.38802 68.429688 147.33594 C 70.513021 152.24045 73.463756 155.90733 77.283203 158.33789 C 81.10265 160.76845 85.573781 161.98438 90.695312 161.98438 C 96.250873 161.98438 100.93837 160.61719 104.75781 157.88281 C 108.62066 155.10503 111.5293 151.04753 113.48242 145.70898 C 114.30707 143.19162 115.32574 141.15039 116.54102 139.58789 C 117.75629 137.98199 119.70942 137.17969 122.40039 137.17969 C 124.70074 137.17969 126.67686 137.98199 128.32617 139.58789 C 129.97548 141.19379 130.79883 143.19097 130.79883 145.57812 C 130.79883 148.61632 130.04058 151.91558 128.52148 155.47461 C 127.04579 158.99024 124.70204 162.4618 121.49023 165.89062 C 118.27843 169.27604 114.17687 172.03147 109.18555 174.1582 C 104.19422 176.28494 98.376958 177.34961 91.736328 177.34961 C 86.701602 177.34961 82.123266 176.87088 78 175.91602 C 73.876732 174.96115 70.121747 173.48676 66.736328 171.49023 C 63.394311 169.4503 60.313368 166.78103 57.492188 163.48242 C 54.974823 160.48763 52.82639 157.14432 51.046875 153.45508 C 49.26736 149.72244 47.921224 145.75109 47.009766 141.54102 C 46.141709 137.33094 45.708984 132.86176 45.708984 128.13086 C 45.708984 120.44856 46.815754 113.56858 49.029297 107.49219 C 51.286242 101.41579 54.497393 96.228517 58.664062 91.931641 C 62.830732 87.59136 67.713538 84.294054 73.3125 82.037109 C 78.911464 79.780162 84.879988 78.650391 91.216797 78.650391 z M 197.20508 78.650391 C 199.46202 78.650391 201.19878 79.236325 202.41406 80.408203 C 203.67274 81.580078 204.30273 83.165582 204.30273 85.162109 C 204.30273 86.073568 204.23764 86.962021 204.10742 87.830078 C 204.02062 88.698135 203.89041 89.544488 203.7168 90.369141 C 203.54319 91.150392 203.43404 91.650172 203.39062 91.867188 L 200.98242 104.10742 C 207.18902 104.23764 210.29102 106.64649 210.29102 111.33398 C 210.29102 113.50412 209.55382 115.23893 208.07812 116.54102 C 206.60244 117.8431 204.40994 118.49414 201.50195 118.49414 L 198.18164 118.49414 L 194.27539 137.43945 L 201.50195 137.43945 C 204.40994 137.43945 206.60244 138.13455 208.07812 139.52344 C 209.55382 140.91233 210.29102 142.67014 210.29102 144.79688 C 210.29102 146.9236 209.55382 148.66037 208.07812 150.00586 C 206.64584 151.30794 204.45334 151.95898 201.50195 151.95898 L 191.47656 151.95898 L 188.41602 166.93164 C 187.93858 169.3188 187.50586 171.16471 187.11523 172.4668 C 186.76801 173.76888 186.07292 174.8967 185.03125 175.85156 C 183.98958 176.84983 182.49219 177.34961 180.53906 177.34961 C 178.36892 177.34961 176.65517 176.74067 175.39648 175.52539 C 174.1378 174.31011 173.50781 172.72656 173.50781 170.77344 C 173.50781 168.99392 173.81228 166.78038 174.41992 164.13281 L 176.82812 151.95898 L 162.43945 151.95898 L 159.38086 166.93164 C 158.59961 170.62088 157.77431 173.29015 156.90625 174.93945 C 156.0816 176.54536 154.27973 177.34961 151.50195 177.34961 C 149.28841 177.34961 147.5536 176.74067 146.29492 175.52539 C 145.03624 174.31011 144.40625 172.72656 144.40625 170.77344 C 144.40625 169.77517 144.5154 168.6684 144.73242 167.45312 C 144.99284 166.19445 145.2092 165.08767 145.38281 164.13281 L 147.79102 151.95898 C 141.80143 151.82877 138.80664 149.44096 138.80664 144.79688 C 138.80664 142.62674 139.54579 140.86892 141.02148 139.52344 C 142.54058 138.13455 144.75412 137.43945 147.66211 137.43945 L 150.7207 137.43945 L 154.43164 118.49414 L 147.66211 118.49414 C 144.84093 118.49414 142.64844 117.801 141.08594 116.41211 C 139.56684 114.97982 138.80664 113.24306 138.80664 111.20312 C 138.80664 109.03299 139.54579 107.29622 141.02148 105.99414 C 142.54058 104.64865 144.75412 103.97656 147.66211 103.97656 L 157.36133 103.97656 L 160.42188 89.068359 C 160.8993 86.550995 161.42014 84.57487 161.98438 83.142578 C 162.592 81.710286 163.39431 80.626519 164.39258 79.888672 C 165.43425 79.150822 166.78038 78.78125 168.42969 78.78125 C 170.73004 78.78125 172.48786 79.388236 173.70312 80.603516 C 174.9184 81.818795 175.52539 83.381293 175.52539 85.291016 C 175.52539 85.725044 175.15777 87.917531 174.41992 91.867188 L 172.00977 103.97656 L 186.26758 103.97656 L 189.39258 89.068359 C 189.82661 86.811412 190.24024 84.9885 190.63086 83.599609 C 191.02149 82.210721 191.71463 81.038847 192.71289 80.083984 C 193.75456 79.129122 195.25195 78.650391 197.20508 78.650391 z M 169.08008 118.49414 L 165.24023 137.43945 L 179.75781 137.43945 L 183.46875 118.49414 L 169.08008 118.49414 z "
       style="fill:currentColor;fill-opacity:1;stroke-width:0.188976"
       id="path869" />
    <g
       style="font-style:normal;font-weight:normal;font-size:35.2778px;line-height:1.25;font-family:sans-serif;fill:currentColor;fill-opacity:1;stroke:none;stroke-width:0.264583"
       id="text833"
       aria-label="C#" />
  </g>
</svg>
