<?xml version="1.0" encoding="UTF-8" standalone="no"?><!DOCTYPE svg PUBLIC "-//W3C//DTD SVG 1.1//EN" "http://www.w3.org/Graphics/SVG/1.1/DTD/svg11.dtd"><svg width="100%" height="100%" viewBox="0 0 1667 1667" version="1.1" xmlns="http://www.w3.org/2000/svg" xmlns:xlink="http://www.w3.org/1999/xlink" xml:space="preserve" xmlns:serif="http://www.serif.com/" style="fill-rule:evenodd;clip-rule:evenodd;stroke-miterlimit:1.5;"><rect id="production_system" x="0" y="0" width="1666.67" height="1666.67" style="fill:none;"/><g><circle cx="139.348" cy="352.565" r="31.356" style="fill:#00528d;stroke:#00528d;stroke-width:54.17px;"/><circle cx="461.627" cy="129.256" r="31.356" style="fill:#00528d;stroke:#00528d;stroke-width:54.17px;"/><circle cx="801.978" cy="354.037" r="31.356" style="fill:#00528d;stroke:#00528d;stroke-width:54.17px;"/><circle cx="252.473" cy="676.757" r="31.356" style="fill:#00528d;stroke:#00528d;stroke-width:54.17px;"/><circle cx="633.63" cy="679.6" r="31.356" style="fill:#00528d;stroke:#00528d;stroke-width:54.17px;"/><path d="M461.451,308.509l0.176,-98.645" style="fill:none;stroke:#f4802e;stroke-width:54.17px;"/><path d="M568.33,389.483l153.68,-22.39" style="fill:none;stroke:#f4802e;stroke-width:54.17px;"/><path d="M222.118,369.093l132.687,24.542" style="fill:none;stroke:#f4802e;stroke-width:54.17px;"/><path d="M586.294,605.154l-59.928,-99.44" style="fill:none;stroke:#f4802e;stroke-width:54.17px;"/><path d="M307.599,611.676l84.354,-114.484" style="fill:none;stroke:#f4802e;stroke-width:54.17px;"/><circle cx="461.627" cy="415.712" r="53.146" style="fill:#f4802e;stroke:#f4802e;stroke-width:54.17px;"/></g><g><path d="M843.779,1342.95c-17.306,0.129 -31.46,-13.816 -31.589,-31.121c-0.129,-17.305 13.815,-31.459 31.12,-31.588c17.306,-0.13 31.46,13.815 31.589,31.12c0.129,17.305 -13.815,31.46 -31.12,31.589Z" style="fill:#00528d;stroke:#00528d;stroke-width:54.17px;"/><path d="M523.175,1568.66c-17.305,0.129 -31.459,-13.815 -31.588,-31.12c-0.129,-17.305 13.815,-31.46 31.12,-31.589c17.305,-0.129 31.46,13.815 31.589,31.12c0.129,17.306 -13.815,31.46 -31.121,31.589Z" style="fill:#00528d;stroke:#00528d;stroke-width:54.17px;"/><path d="M181.156,1346.42c-17.305,0.13 -31.46,-13.815 -31.589,-31.12c-0.129,-17.305 13.816,-31.46 31.121,-31.589c17.305,-0.129 31.459,13.816 31.588,31.121c0.13,17.305 -13.815,31.459 -31.12,31.588Z" style="fill:#00528d;stroke:#00528d;stroke-width:54.17px;"/><path d="M728.236,1019.61c-17.305,0.129 -31.46,-13.816 -31.589,-31.121c-0.129,-17.305 13.816,-31.459 31.121,-31.588c17.305,-0.13 31.459,13.815 31.589,31.12c0.129,17.305 -13.816,31.46 -31.121,31.589Z" style="fill:#00528d;stroke:#00528d;stroke-width:54.17px;"/><path d="M347.069,1019.61c-17.305,0.129 -31.459,-13.815 -31.589,-31.12c-0.129,-17.306 13.816,-31.46 31.121,-31.589c17.305,-0.129 31.459,13.815 31.589,31.12c0.129,17.306 -13.816,31.46 -31.121,31.589Z" style="fill:#00528d;stroke:#00528d;stroke-width:54.17px;"/><path d="M521.778,1358.05l0.562,98.644" style="fill:none;stroke:#f4802e;stroke-width:54.17px;"/><path d="M414.298,1277.88l-153.508,23.536" style="fill:none;stroke:#f4802e;stroke-width:54.17px;"/><path d="M760.653,1295.68l-132.866,-23.551" style="fill:none;stroke:#f4802e;stroke-width:54.17px;"/><path d="M394.725,1062.35l60.669,98.99" style="fill:none;stroke:#f4802e;stroke-width:54.17px;"/><path d="M673.364,1053.75l-83.498,115.111" style="fill:none;stroke:#f4802e;stroke-width:54.17px;"/><path d="M521.2,1304c-29.332,0.219 -53.323,-23.416 -53.542,-52.748c-0.219,-29.331 23.417,-53.322 52.748,-53.541c29.332,-0.219 53.323,23.417 53.542,52.748c0.219,29.331 -23.417,53.322 -52.748,53.541Z" style="fill:#f4802e;stroke:#f4802e;stroke-width:54.17px;"/></g><g><path d="M1262.31,379.141c5.605,16.373 -3.137,34.216 -19.51,39.821c-16.372,5.605 -34.216,-3.136 -39.821,-19.509c-5.605,-16.373 3.137,-34.216 19.51,-39.821c16.373,-5.605 34.216,3.137 39.821,19.509Z" style="fill:#00528d;stroke:#00528d;stroke-width:54.17px;"/><path d="M1577.97,611.72c5.605,16.373 -3.137,34.216 -19.51,39.821c-16.372,5.605 -34.216,-3.137 -39.821,-19.509c-5.605,-16.373 3.137,-34.216 19.51,-39.821c16.373,-5.606 34.216,3.136 39.821,19.509Z" style="fill:#00528d;stroke:#00528d;stroke-width:54.17px;"/><path d="M1475.54,1006.53c5.606,16.373 -3.136,34.216 -19.509,39.821c-16.373,5.605 -34.216,-3.137 -39.821,-19.509c-5.605,-16.373 3.137,-34.216 19.509,-39.822c16.373,-5.605 34.216,3.137 39.821,19.51Z" style="fill:#00528d;stroke:#00528d;stroke-width:54.17px;"/><path d="M992.235,591.171c5.605,16.373 -3.137,34.216 -19.509,39.821c-16.373,5.605 -34.216,-3.137 -39.821,-19.509c-5.606,-16.373 3.136,-34.216 19.509,-39.821c16.373,-5.605 34.216,3.137 39.821,19.509Z" style="fill:#00528d;stroke:#00528d;stroke-width:54.17px;"/><path d="M1113,952.702c5.605,16.373 -3.137,34.216 -19.51,39.821c-16.372,5.605 -34.216,-3.137 -39.821,-19.509c-5.605,-16.373 3.137,-34.216 19.51,-39.821c16.373,-5.606 34.216,3.136 39.821,19.509Z" style="fill:#00528d;stroke:#00528d;stroke-width:54.17px;"/><path d="M1378.65,679.769l93.385,-31.785" style="fill:none;stroke:#f4802e;stroke-width:54.17px;"/><path d="M1336.66,807.112l70.958,138.144" style="fill:none;stroke:#f4802e;stroke-width:54.17px;"/><path d="M1243.82,472.959l19.757,133.483" style="fill:none;stroke:#f4802e;stroke-width:54.17px;"/><path d="M1138.43,893.962l74.669,-88.906" style="fill:none;stroke:#f4802e;stroke-width:54.17px;"/><path d="M1042,632.402l135.635,42.727" style="fill:none;stroke:#f4802e;stroke-width:54.17px;"/><path d="M1327.57,697.442c9.5,27.752 -5.317,57.995 -33.068,67.495c-27.751,9.501 -57.995,-5.316 -67.495,-33.067c-9.5,-27.752 5.317,-57.995 33.068,-67.495c27.751,-9.501 57.994,5.316 67.495,33.067Z" style="fill:#f4802e;stroke:#f4802e;stroke-width:54.17px;"/></g></svg>