<?xml version="1.0" encoding="UTF-8" standalone="no"?><!DOCTYPE svg PUBLIC "-//W3C//DTD SVG 1.1//EN" "http://www.w3.org/Graphics/SVG/1.1/DTD/svg11.dtd"><svg width="100%" height="100%" viewBox="0 0 840 395" version="1.1" xmlns="http://www.w3.org/2000/svg" xmlns:xlink="http://www.w3.org/1999/xlink" xml:space="preserve" xmlns:serif="http://www.serif.com/" style="fill-rule:evenodd;clip-rule:evenodd;stroke-linejoin:round;stroke-miterlimit:2;"><rect id="Artboard4" x="0" y="0" width="839.859" height="394.059" style="fill:#00528d;"/><g transform="matrix(1,0,0,1,-665.525,-720.323)"><g transform="matrix(0.97791,0,0,1,17.6623,0)"><g transform="matrix(256,0,0,256,799.557,982.89)"><path d="M0.577,-0.494l-0.005,-0.168l-0.56,0l0,0.019c0.077,0.006 0.087,0.019 0.087,0.092l0,0.427c0,0.088 -0.012,0.1 -0.088,0.105l0,0.019l0.281,0l0,-0.019c-0.078,-0.004 -0.091,-0.016 -0.091,-0.094l0,-0.471c0,-0.032 0.008,-0.04 0.036,-0.04l0.175,0c0.101,0 0.13,0.031 0.14,0.13l0.025,0Z" style="fill:#fff;fill-rule:nonzero;"/></g></g><g transform="matrix(0.97791,0,0,1,20.3113,0)"><g transform="matrix(256,0,0,256,919.472,982.89)"><rect x="0.039" y="-0.257" width="0.246" height="0.063" style="fill:#fff;fill-rule:nonzero;"/></g></g><g transform="matrix(0.97791,0,0,1,22.0975,0)"><g transform="matrix(271,0,0,271,1000.33,982.89)"><path d="M0.46,-0.232c0,0.037 -0.005,0.07 -0.016,0.1c-0.01,0.029 -0.024,0.055 -0.043,0.076c-0.019,0.021 -0.041,0.038 -0.067,0.05c-0.026,0.011 -0.054,0.017 -0.085,0.017c-0.03,0 -0.058,-0.006 -0.083,-0.017c-0.026,-0.012 -0.048,-0.029 -0.067,-0.05c-0.019,-0.021 -0.033,-0.047 -0.043,-0.077c-0.011,-0.029 -0.016,-0.062 -0.016,-0.099c0,-0.037 0.005,-0.07 0.016,-0.1c0.01,-0.03 0.024,-0.055 0.043,-0.077c0.019,-0.02 0.041,-0.037 0.067,-0.048c0.025,-0.012 0.053,-0.018 0.083,-0.018c0.031,0 0.059,0.006 0.085,0.018c0.026,0.011 0.048,0.028 0.067,0.048c0.019,0.022 0.033,0.047 0.043,0.077c0.011,0.03 0.016,0.063 0.016,0.1Zm-0.085,0c0,-0.053 -0.011,-0.094 -0.034,-0.124c-0.023,-0.031 -0.053,-0.046 -0.092,-0.046c-0.038,0 -0.068,0.015 -0.09,0.045c-0.023,0.031 -0.034,0.072 -0.034,0.125c0,0.052 0.011,0.093 0.034,0.123c0.022,0.031 0.052,0.046 0.09,0.046c0.039,-0 0.069,-0.015 0.092,-0.046c0.023,-0.03 0.034,-0.071 0.034,-0.123Z" style="fill:#fff;fill-rule:nonzero;"/></g><g transform="matrix(271,0,0,271,1122.28,982.89)"><path d="M0.375,-0.231c0,-0.054 -0.013,-0.096 -0.038,-0.125c-0.025,-0.03 -0.058,-0.045 -0.099,-0.045c-0.023,-0 -0.041,0.001 -0.054,0.003c-0.013,0.002 -0.023,0.004 -0.03,0.007l-0,0.293c0.009,0.009 0.023,0.017 0.041,0.024c0.018,0.007 0.037,0.011 0.056,0.011c0.022,-0 0.041,-0.004 0.056,-0.013c0.016,-0.009 0.029,-0.021 0.039,-0.036c0.01,-0.015 0.017,-0.032 0.022,-0.053c0.005,-0.02 0.007,-0.042 0.007,-0.066Zm0.085,-0c-0,0.035 -0.005,0.068 -0.014,0.097c-0.009,0.03 -0.022,0.056 -0.039,0.077c-0.017,0.021 -0.037,0.038 -0.062,0.05c-0.025,0.012 -0.053,0.018 -0.084,0.018c-0.025,-0 -0.046,-0.003 -0.065,-0.009c-0.019,-0.006 -0.033,-0.013 -0.042,-0.02l-0,0.183l-0.083,0l-0,-0.615c0.018,-0.005 0.041,-0.011 0.069,-0.016c0.029,-0.005 0.061,-0.008 0.098,-0.008c0.033,-0 0.064,0.006 0.091,0.017c0.027,0.011 0.051,0.027 0.07,0.048c0.019,0.021 0.034,0.047 0.045,0.077c0.011,0.03 0.016,0.064 0.016,0.101Z" style="fill:#fff;fill-rule:nonzero;"/></g><g transform="matrix(271,0,0,271,1244.23,982.89)"><path d="M0.243,-0.464l0.196,0l0,0.069l-0.196,0l0,0.216c0,0.023 0.002,0.042 0.005,0.057c0.003,0.015 0.009,0.027 0.017,0.036c0.007,0.009 0.017,0.015 0.029,0.018c0.012,0.003 0.027,0.005 0.044,0.005c0.024,0 0.043,-0.002 0.058,-0.006c0.015,-0.004 0.029,-0.009 0.042,-0.016l0.012,0.07c-0.009,0.004 -0.024,0.009 -0.044,0.016c-0.021,0.007 -0.046,0.01 -0.076,0.01c-0.035,0 -0.063,-0.004 -0.085,-0.012c-0.022,-0.008 -0.039,-0.02 -0.051,-0.036c-0.013,-0.016 -0.021,-0.036 -0.026,-0.059c-0.005,-0.024 -0.007,-0.052 -0.007,-0.083l0,-0.216l-0.098,0l0,-0.069l0.098,0l0,-0.13l0.082,-0.014l0,0.144Z" style="fill:#fff;fill-rule:nonzero;"/></g></g></g></svg>