<?xml version="1.0" encoding="UTF-8" standalone="no"?><!DOCTYPE svg PUBLIC "-//W3C//DTD SVG 1.1//EN" "http://www.w3.org/Graphics/SVG/1.1/DTD/svg11.dtd"><svg width="100%" height="100%" viewBox="0 0 840 395" version="1.1" xmlns="http://www.w3.org/2000/svg" xmlns:xlink="http://www.w3.org/1999/xlink" xml:space="preserve" xmlns:serif="http://www.serif.com/" style="fill-rule:evenodd;clip-rule:evenodd;stroke-linejoin:round;stroke-miterlimit:2;"><rect id="Artboard4" x="0" y="0" width="839.859" height="394.059" style="fill:#00528d;"/><g transform="matrix(1,0,0,1,-696.644,-733.257)"><g transform="matrix(0.97791,0,0,1,17.9692,0)"><path d="M970.393,859.53l-1.36,-45.696l-152.32,0l-0,5.168c20.944,1.632 23.664,5.168 23.664,25.024l-0,116.144c-0,23.936 -3.264,27.2 -23.936,28.56l-0,5.168l76.432,0l-0,-5.168c-21.216,-1.088 -24.752,-4.352 -24.752,-25.568l-0,-128.112c-0,-8.704 2.176,-10.88 9.792,-10.88l47.6,0c27.472,0 35.36,8.432 38.08,35.36l6.8,0Z" style="fill:#fff;fill-rule:nonzero;stroke:#fff;stroke-width:3.03px;"/></g><g transform="matrix(0.97791,0,0,1,20.7837,0)"><rect x="951.467" y="923.994" width="66.912" height="17.136" style="fill:#fff;fill-rule:nonzero;stroke:#fff;stroke-width:3.03px;"/></g><g transform="matrix(0.97791,0,0,1,22.6816,0)"><path d="M1158.79,927.314c0,10.523 -1.483,20.042 -4.448,28.557c-2.966,8.514 -7.128,15.832 -12.485,21.955c-5.357,6.123 -11.767,10.858 -19.229,14.207c-7.462,3.348 -15.594,5.022 -24.395,5.022c-8.61,0 -16.598,-1.674 -23.964,-5.022c-7.367,-3.349 -13.729,-8.084 -19.086,-14.207c-5.357,-6.123 -9.519,-13.441 -12.484,-21.955c-2.966,-8.515 -4.449,-18.034 -4.449,-28.557c0,-10.523 1.483,-20.09 4.449,-28.7c2.965,-8.61 7.127,-15.928 12.484,-21.955c5.357,-6.027 11.719,-10.715 19.086,-14.063c7.366,-3.349 15.354,-5.023 23.964,-5.023c8.801,0 16.933,1.674 24.395,5.023c7.462,3.348 13.872,8.036 19.229,14.063c5.357,6.027 9.519,13.345 12.485,21.955c2.965,8.61 4.448,18.177 4.448,28.7Zm-24.395,0c0,-15.115 -3.253,-27.026 -9.758,-35.731c-6.505,-8.706 -15.307,-13.059 -26.404,-13.059c-10.906,0 -19.564,4.353 -25.973,13.059c-6.41,8.705 -9.615,20.616 -9.615,35.731c0,14.924 3.205,26.739 9.615,35.445c6.409,8.705 15.067,13.058 25.973,13.058c11.097,0 19.899,-4.353 26.404,-13.058c6.505,-8.706 9.758,-20.521 9.758,-35.445Z" style="fill:#fff;fill-rule:nonzero;stroke:#fff;stroke-width:3.03px;"/><path d="M1263.55,927.601c0,-15.498 -3.635,-27.504 -10.906,-36.018c-7.271,-8.515 -16.742,-12.772 -28.413,-12.772c-6.505,0 -11.623,0.287 -15.354,0.861c-3.731,0.574 -6.649,1.244 -8.754,2.009l0,84.091c2.679,2.487 6.601,4.783 11.767,6.888c5.166,2.105 10.523,3.157 16.072,3.157c6.314,0 11.719,-1.244 16.216,-3.731c4.496,-2.487 8.179,-5.883 11.049,-10.188c2.87,-4.305 4.975,-9.376 6.314,-15.211c1.339,-5.836 2.009,-12.198 2.009,-19.086Zm24.395,0c0,10.141 -1.291,19.468 -3.874,27.983c-2.583,8.514 -6.314,15.832 -11.193,21.955c-4.879,6.123 -10.859,10.906 -17.938,14.35c-7.079,3.444 -15.115,5.166 -24.108,5.166c-7.079,0 -13.298,-0.861 -18.655,-2.583c-5.357,-1.722 -9.375,-3.635 -12.054,-5.74l0,52.521l-23.821,0l0,-176.505c5.166,-1.531 11.815,-3.061 19.947,-4.592c8.131,-1.531 17.459,-2.296 27.982,-2.296c9.567,0 18.272,1.626 26.117,4.879c7.845,3.253 14.541,7.893 20.09,13.92c5.549,6.027 9.854,13.345 12.915,21.955c3.061,8.61 4.592,18.272 4.592,28.987Z" style="fill:#fff;fill-rule:nonzero;stroke:#fff;stroke-width:3.03px;"/><path d="M1354.82,860.73l56.252,0l0,19.803l-56.252,0l0,61.992c0,6.697 0.478,12.15 1.435,16.359c0.957,4.209 2.535,7.606 4.736,10.189c2.2,2.583 5.022,4.352 8.466,5.309c3.444,0.957 7.653,1.435 12.628,1.435c6.888,0 12.437,-0.574 16.646,-1.722c4.209,-1.148 8.227,-2.679 12.054,-4.592l3.444,20.09c-2.679,1.148 -6.936,2.679 -12.771,4.592c-5.836,1.913 -13.059,2.87 -21.669,2.87c-9.949,0 -18.081,-1.148 -24.395,-3.444c-6.314,-2.296 -11.241,-5.74 -14.78,-10.332c-3.54,-4.592 -5.98,-10.284 -7.319,-17.076c-1.339,-6.793 -2.009,-14.685 -2.009,-23.678l0,-61.992l-28.126,0l0,-19.803l28.126,0l0,-37.31l23.534,-4.018l0,41.328Z" style="fill:#fff;fill-rule:nonzero;stroke:#fff;stroke-width:3.03px;"/></g></g></svg>