<?xml version="1.0" encoding="utf-8"?>
<!-- Generator: Adobe Illustrator 24.2.1, SVG Export Plug-In . SVG Version: 6.00 Build 0)  -->
<!DOCTYPE svg PUBLIC "-//W3C//DTD SVG 1.1//EN" "http://www.w3.org/Graphics/SVG/1.1/DTD/svg11.dtd" [
	<!ENTITY ns_extend "http://ns.adobe.com/Extensibility/1.0/">
	<!ENTITY ns_ai "http://ns.adobe.com/AdobeIllustrator/10.0/">
	<!ENTITY ns_graphs "http://ns.adobe.com/Graphs/1.0/">
	<!ENTITY ns_vars "http://ns.adobe.com/Variables/1.0/">
	<!ENTITY ns_imrep "http://ns.adobe.com/ImageReplacement/1.0/">
	<!ENTITY ns_sfw "http://ns.adobe.com/SaveForWeb/1.0/">
	<!ENTITY ns_custom "http://ns.adobe.com/GenericCustomNamespace/1.0/">
	<!ENTITY ns_adobe_xpath "http://ns.adobe.com/XPath/1.0/">
]>
<svg version="1.1" id="Layer_1" xmlns:x="&ns_extend;" xmlns:i="&ns_ai;" xmlns:graph="&ns_graphs;"
	 xmlns="http://www.w3.org/2000/svg" xmlns:xlink="http://www.w3.org/1999/xlink" x="0px" y="0px" width="2000px" height="2000px"
	 viewBox="0 0 2000 2000" enable-background="new 0 0 2000 2000" xml:space="preserve">
<metadata>
	<sfw  xmlns="&ns_sfw;">
		<slices></slices>
		<sliceSourceBounds  bottomLeftOrigin="true" height="671.29" width="4466.35" x="341.77" y="-1441.65"></sliceSourceBounds>
		<optimizationSettings>
			<targetSettings  fileFormat="PNG24Format" targetSettingsID="0">
				<PNG24Format  filtered="false" interlaced="false" matteColor="#FFFFFF" noMatteColor="false" transparency="true">
					</PNG24Format>
			</targetSettings>
		</optimizationSettings>
	</sfw>
</metadata>
<rect x="2883.32" y="782.74" fill="none" width="977.41" height="448.76"/>
<text transform="matrix(0.9779 0 0 1 2924.5708 1125.9144)"><tspan x="0" y="0" fill="#004A88" font-family="'STIXGeneral-Regular'" font-size="410px" letter-spacing="-25.56">Γ</tspan><tspan x="215" y="0" fill="#004A88" font-family="'MyriadPro-Regular'" font-size="410px">-</tspan><tspan x="341.48" y="0" fill="#004A88" font-family="'UbuntuMonoDerivativePowerline-Regular'" font-size="410px" letter-spacing="-14.32">o</tspan><tspan x="531.72" y="0" fill="#004A88" font-family="'UbuntuMonoDerivativePowerline-Regular'" font-size="410px" letter-spacing="-26.59">p</tspan><tspan x="710.11" y="0" fill="#004A88" font-family="'UbuntuMonoDerivativePowerline-Regular'" font-size="410px" letter-spacing="-5.11">t</tspan></text>
<rect x="2088.17" y="1441.65" fill="none" width="513.06" height="0"/>
<g>
	<g>
		<path fill="#004A88" d="M376.18,1321.42c-2.5,0.87-7.26,2.12-12.43,2.12c-6.58,0-11.48-1.63-14.99-4.97
			c-3.22-3.03-5.05-7.52-5.05-12.56c0.01-10.82,8.26-18.25,20.9-18.25c4.8,0,8.54,0.96,10.33,1.8l-1.57,5.53
			c-2.14-0.92-4.73-1.65-8.94-1.65c-7.89,0-13.37,4.47-13.37,12.1c0,7.46,5.12,12.38,13.02,12.38c2.5,0,4.39-0.32,5.28-0.74v-8.17
			h-6.55v-5.42h13.38V1321.42z"/>
		<path fill="#004A88" d="M382.85,1306.26c0-3.73-0.06-6.17-0.21-8.42h6.02l0.24,5.02h0.19c1.32-3.84,4.52-5.63,7.33-5.63
			c0.67,0,1.05,0.02,1.62,0.15v6.49c-0.61-0.13-1.23-0.22-2.1-0.22c-3.3,0-5.42,1.94-5.97,4.76c-0.1,0.54-0.14,1.15-0.14,1.76v13.02
			h-6.98V1306.26z"/>
		<path fill="#004A88" d="M428.08,1310.22c0,9.07-6.81,13.58-14,13.58c-7.59,0-13.62-5-13.62-13.07c0-8.08,5.67-13.5,14.12-13.5
			C422.67,1297.23,428.08,1302.68,428.08,1310.22z M407.68,1310.54c0,4.85,2.66,8.27,6.61,8.27c3.74,0,6.56-3.11,6.56-8.36
			c0-3.99-1.93-8.24-6.5-8.24C409.7,1302.21,407.68,1306.32,407.68,1310.54z"/>
		<path fill="#004A88" d="M457.81,1315.4c0,3.16,0.09,5.74,0.21,7.78h-6.09l-0.32-4.03h-0.16c-1.05,1.77-3.63,4.64-8.62,4.64
			c-4.76,0-9.38-2.73-9.38-11.25v-14.71h6.98v13.49c0,4.22,1.45,6.84,4.94,6.84c2.67,0,4.41-1.8,5.12-3.49
			c0.21-0.52,0.33-1.16,0.33-1.84v-14.99h6.98V1315.4z"/>
		<path fill="#004A88" d="M464.95,1306.37c0-3.29-0.09-6.11-0.21-8.53h6.11l0.33,3.99h0.1c2.03-2.94,5.2-4.6,9.4-4.6
			c5.88,0,11.3,4.79,11.3,12.86c0,9.22-6.22,13.71-12.33,13.71c-3.38,0-6.25-1.29-7.63-3.42h-0.1v13.18h-6.98V1306.37z
			 M471.93,1312.19c0,0.57,0.04,1.1,0.14,1.63c0.62,2.54,2.99,4.67,6.01,4.67c4.19,0,6.81-3.11,6.81-8.03c0-4.24-2.3-7.82-6.64-7.82
			c-2.82,0-5.42,1.97-6.11,4.93c-0.12,0.49-0.21,1.01-0.21,1.5V1312.19z"/>
		<path fill="#004A88" d="M534.63,1310.22c0,9.07-6.81,13.58-14,13.58c-7.59,0-13.62-5-13.62-13.07c0-8.08,5.67-13.5,14.12-13.5
			C529.22,1297.23,534.63,1302.68,534.63,1310.22z M514.23,1310.54c0,4.85,2.66,8.27,6.61,8.27c3.74,0,6.56-3.11,6.56-8.36
			c0-3.99-1.93-8.24-6.5-8.24C516.25,1302.21,514.23,1306.32,514.23,1310.54z"/>
		<path fill="#004A88" d="M540.77,1323.19v-20.14h-3.43v-5.21h3.43v-1.02c0-3.32,0.98-6.78,3.25-8.87c2-1.85,4.68-2.51,6.96-2.51
			c1.73,0,3.12,0.27,4.17,0.61l-0.34,5.34c-0.73-0.25-1.6-0.45-2.82-0.45c-3.16,0-4.29,2.55-4.29,5.58v1.31h5.65v5.21h-5.59v20.14
			H540.77z"/>
		<path fill="#004A88" d="M576.92,1313.3l-3.11,9.88h-7.31l11.9-35.05h9.11l12.24,35.05h-7.64l-3.36-9.88H576.92z M587.55,1308.09
			l-2.91-8.46c-0.72-2.12-1.33-4.37-1.9-6.31h-0.11c-0.54,1.97-1.08,4.24-1.73,6.29l-2.81,8.49H587.55z"/>
		<path fill="#004A88" d="M604.31,1306.37c0-3.29-0.09-6.11-0.21-8.53h6.11l0.33,3.99h0.1c2.03-2.94,5.2-4.6,9.4-4.6
			c5.88,0,11.3,4.79,11.3,12.86c0,9.22-6.22,13.71-12.33,13.71c-3.38,0-6.25-1.29-7.63-3.42h-0.1v13.18h-6.98V1306.37z
			 M611.29,1312.19c0,0.57,0.04,1.1,0.14,1.63c0.62,2.54,2.99,4.67,6.01,4.67c4.19,0,6.81-3.11,6.81-8.03c0-4.24-2.3-7.82-6.64-7.82
			c-2.82,0-5.42,1.97-6.11,4.93c-0.12,0.49-0.21,1.01-0.21,1.5V1312.19z"/>
		<path fill="#004A88" d="M636.81,1306.37c0-3.29-0.09-6.11-0.21-8.53h6.11l0.33,3.99h0.1c2.03-2.94,5.2-4.6,9.4-4.6
			c5.88,0,11.3,4.79,11.3,12.86c0,9.22-6.22,13.71-12.33,13.71c-3.38,0-6.25-1.29-7.63-3.42h-0.1v13.18h-6.98V1306.37z
			 M643.79,1312.19c0,0.57,0.04,1.1,0.14,1.63c0.62,2.54,2.99,4.67,6.01,4.67c4.19,0,6.81-3.11,6.81-8.03c0-4.24-2.3-7.82-6.64-7.82
			c-2.82,0-5.42,1.97-6.11,4.93c-0.12,0.49-0.21,1.01-0.21,1.5V1312.19z"/>
		<path fill="#004A88" d="M669.31,1286.05h6.98v37.14h-6.98V1286.05z"/>
		<path fill="#004A88" d="M690.83,1290.66c0,1.98-1.47,3.63-3.93,3.63c-2.34,0-3.81-1.65-3.81-3.63c0-2.02,1.51-3.63,3.88-3.63
			C689.35,1287.02,690.8,1288.62,690.83,1290.66z M683.46,1323.19v-25.35h6.98v25.35H683.46z"/>
		<path fill="#004A88" d="M702.53,1312.52c0.21,4.05,3.91,6.03,8.15,6.03c3.12,0,5.37-0.44,7.54-1.21l1.02,4.73
			c-2.43,1.01-5.61,1.71-9.51,1.71c-8.71,0-13.85-5.15-13.85-12.93c0-6.5,4.21-13.62,13.16-13.62c8.9,0,11.68,7.14,11.68,12.57
			c0,1.17-0.12,2.2-0.26,2.72H702.53z M714.15,1307.71c0.02-1.86-0.9-5.83-5.52-5.83c-4.13,0-5.83,3.45-6.13,5.83H714.15z"/>
		<path fill="#004A88" d="M751.1,1286.05v29.87c0,2.79,0.09,5.63,0.21,7.27h-6.25l-0.29-4.17h-0.11c-1.68,3.08-5,4.77-8.83,4.77
			c-6.27,0-11.57-5.07-11.57-12.96c-0.05-8.41,5.61-13.61,12.15-13.61c3.68,0,6.39,1.43,7.61,3.31h0.1v-14.5H751.1z M744.12,1308.66
			c0-0.5-0.04-1.13-0.15-1.63c-0.61-2.49-2.8-4.51-5.85-4.51c-4.31,0-6.77,3.46-6.77,8.01c0,4.46,2.47,7.72,6.71,7.72
			c2.88,0,5.27-2.01,5.86-4.71c0.14-0.6,0.18-1.24,0.18-1.9V1308.66z"/>
		<path fill="#004A88" d="M801.26,1308.9c-0.2-4.62-0.41-10.12-0.41-15.21h-0.14c-1.26,4.47-2.85,9.38-4.47,14.01l-5.28,15.03h-5.49
			l-4.7-14.88c-1.43-4.65-2.72-9.57-3.7-14.16h-0.11c-0.18,4.79-0.38,10.58-0.65,15.41l-0.78,14.09h-6.58l2.3-35.05h9.56l4.54,13.44
			c1.27,4.02,2.43,8.35,3.3,12.3h0.17c1.03-3.87,2.33-8.38,3.72-12.34l4.92-13.39h9.39l1.96,35.05h-6.89L801.26,1308.9z"/>
		<path fill="#004A88" d="M830.62,1323.19l-0.47-2.79h-0.17c-1.63,2.02-4.44,3.4-7.88,3.4c-5.49,0-8.41-3.82-8.41-7.6
			c0-6.42,5.79-9.74,15.85-9.69v-0.34c0-1.38-0.58-4.13-5.33-4.12c-2.66,0-5.54,0.89-7.33,2l-1.36-4.46
			c2.02-1.21,5.48-2.35,9.85-2.35c8.53,0,11.13,5.19,11.13,10.92v8.85c0,2.41,0.13,4.7,0.41,6.19H830.62z M829.74,1310.94
			c-4.96-0.07-9.09,0.97-9.09,4.5c0,2.28,1.57,3.44,3.73,3.44c2.66,0,4.56-1.72,5.18-3.51c0.14-0.45,0.18-0.96,0.18-1.41V1310.94z"
			/>
		<path fill="#004A88" d="M851.05,1290.48v7.36h6.25v5.21h-6.25v10.22c0,3.1,0.72,4.81,3.39,4.81c1.17,0,2.06-0.14,2.62-0.3
			l0.12,5.28c-1,0.39-2.84,0.72-5.01,0.72c-2.53,0-4.62-0.91-5.85-2.24c-1.43-1.51-2.07-3.98-2.07-7.27v-11.23h-3.68v-5.21h3.68
			v-5.75L851.05,1290.48z"/>
		<path fill="#004A88" d="M862.39,1286.05h6.98v15.31h0.1c0.85-1.24,1.98-2.24,3.39-2.99c1.29-0.72,2.91-1.14,4.52-1.14
			c4.56,0,9.47,2.9,9.47,11.29v14.67h-6.98v-13.78c0-3.81-1.46-6.54-5.11-6.54c-2.65,0-4.41,1.77-5.11,3.5
			c-0.24,0.55-0.28,1.19-0.28,1.88v14.94h-6.98V1286.05z"/>
		<path fill="#004A88" d="M898.88,1312.52c0.21,4.05,3.91,6.03,8.15,6.03c3.12,0,5.37-0.44,7.54-1.21l1.02,4.73
			c-2.43,1.01-5.61,1.71-9.51,1.71c-8.71,0-13.85-5.15-13.85-12.93c0-6.5,4.21-13.62,13.16-13.62c8.9,0,11.68,7.14,11.68,12.57
			c0,1.17-0.12,2.2-0.26,2.72H898.88z M910.5,1307.71c0.02-1.86-0.9-5.83-5.52-5.83c-4.13,0-5.83,3.45-6.13,5.83H910.5z"/>
		<path fill="#004A88" d="M922.34,1305.61c0-3.02-0.09-5.57-0.21-7.77h5.92l0.3,3.8h0.16c1.18-1.87,3.53-4.41,8.2-4.41
			c3.5,0,6.24,1.96,7.37,4.83h0.1c0.96-1.45,2.08-2.52,3.28-3.27c1.52-1.01,3.19-1.55,5.43-1.55c4.39,0,8.96,2.95,8.96,11.36v14.59
			h-6.77v-13.66c0-4.34-1.63-6.68-4.7-6.68c-2.28,0-3.9,1.58-4.56,3.32c-0.22,0.63-0.35,1.46-0.35,2.14v14.88h-6.77v-14.18
			c0-3.79-1.61-6.16-4.55-6.16c-2.56,0-4.13,2-4.73,3.55c-0.25,0.67-0.33,1.42-0.33,2.11v14.68h-6.77V1305.61z"/>
		<path fill="#004A88" d="M984.02,1323.19l-0.47-2.79h-0.17c-1.63,2.02-4.44,3.4-7.88,3.4c-5.49,0-8.41-3.82-8.41-7.6
			c0-6.42,5.79-9.74,15.85-9.69v-0.34c0-1.38-0.58-4.13-5.33-4.12c-2.66,0-5.54,0.89-7.33,2l-1.36-4.46
			c2.02-1.21,5.48-2.35,9.85-2.35c8.53,0,11.13,5.19,11.13,10.92v8.85c0,2.41,0.13,4.7,0.41,6.19H984.02z M983.14,1310.94
			c-4.96-0.07-9.09,0.97-9.09,4.5c0,2.28,1.57,3.44,3.73,3.44c2.66,0,4.56-1.72,5.18-3.51c0.14-0.45,0.18-0.96,0.18-1.41V1310.94z"
			/>
		<path fill="#004A88" d="M1004.45,1290.48v7.36h6.25v5.21h-6.25v10.22c0,3.1,0.72,4.81,3.39,4.81c1.17,0,2.06-0.14,2.62-0.3
			l0.12,5.28c-1,0.39-2.84,0.72-5.01,0.72c-2.53,0-4.62-0.91-5.85-2.24c-1.43-1.51-2.07-3.98-2.07-7.27v-11.23h-3.68v-5.21h3.68
			v-5.75L1004.45,1290.48z"/>
		<path fill="#004A88" d="M1023.16,1290.66c0,1.98-1.47,3.63-3.93,3.63c-2.34,0-3.81-1.65-3.81-3.63c0-2.02,1.51-3.63,3.88-3.63
			C1021.67,1287.02,1023.13,1288.62,1023.16,1290.66z M1015.78,1323.19v-25.35h6.98v25.35H1015.78z"/>
		<path fill="#004A88" d="M1049.84,1322.4c-1.49,0.69-4.37,1.39-7.8,1.39c-8.45,0-13.85-5.22-13.85-13.01
			c0-7.52,5.36-13.54,14.92-13.54c2.48,0,5.03,0.51,6.73,1.21l-1.23,5.17c-1.12-0.55-2.76-1.04-5.23-1.04
			c-4.99,0-8.06,3.36-8.03,7.87c0,5.08,3.65,7.88,8.09,7.88c2.38,0,4.09-0.5,5.44-1.04L1049.84,1322.4z"/>
		<path fill="#004A88" d="M1070.08,1323.19l-0.47-2.79h-0.17c-1.63,2.02-4.44,3.4-7.88,3.4c-5.49,0-8.41-3.82-8.41-7.6
			c0-6.42,5.79-9.74,15.85-9.69v-0.34c0-1.38-0.58-4.13-5.33-4.12c-2.66,0-5.54,0.89-7.33,2l-1.36-4.46
			c2.02-1.21,5.48-2.35,9.85-2.35c8.53,0,11.13,5.19,11.13,10.92v8.85c0,2.41,0.13,4.7,0.41,6.19H1070.08z M1069.2,1310.94
			c-4.96-0.07-9.09,0.97-9.09,4.5c0,2.28,1.57,3.44,3.73,3.44c2.66,0,4.56-1.72,5.18-3.51c0.14-0.45,0.18-0.96,0.18-1.41V1310.94z"
			/>
		<path fill="#004A88" d="M1082.97,1286.05h6.98v37.14h-6.98V1286.05z"/>
		<path fill="#004A88" d="M1140.09,1308.9c-0.2-4.62-0.41-10.12-0.41-15.21h-0.14c-1.26,4.47-2.85,9.38-4.47,14.01l-5.28,15.03
			h-5.49l-4.7-14.88c-1.43-4.65-2.72-9.57-3.7-14.16h-0.11c-0.18,4.79-0.38,10.58-0.65,15.41l-0.78,14.09h-6.58l2.3-35.05h9.56
			l4.54,13.44c1.27,4.02,2.43,8.35,3.3,12.3h0.17c1.03-3.87,2.33-8.38,3.72-12.34l4.92-13.39h9.39l1.96,35.05h-6.89L1140.09,1308.9z
			"/>
		<path fill="#004A88" d="M1180.3,1310.22c0,9.07-6.81,13.58-14,13.58c-7.59,0-13.62-5-13.62-13.07c0-8.08,5.67-13.5,14.12-13.5
			C1174.89,1297.23,1180.3,1302.68,1180.3,1310.22z M1159.9,1310.54c0,4.85,2.66,8.27,6.61,8.27c3.74,0,6.56-3.11,6.56-8.36
			c0-3.99-1.93-8.24-6.5-8.24C1161.92,1302.21,1159.9,1306.32,1159.9,1310.54z"/>
		<path fill="#004A88" d="M1211.04,1286.05v29.87c0,2.79,0.09,5.63,0.21,7.27h-6.25l-0.29-4.17h-0.11c-1.68,3.08-5,4.77-8.83,4.77
			c-6.27,0-11.57-5.07-11.57-12.96c-0.05-8.41,5.61-13.61,12.15-13.61c3.68,0,6.39,1.43,7.61,3.31h0.1v-14.5H1211.04z
			 M1204.05,1308.66c0-0.5-0.04-1.13-0.15-1.63c-0.61-2.49-2.8-4.51-5.85-4.51c-4.31,0-6.77,3.46-6.77,8.01
			c0,4.46,2.47,7.72,6.71,7.72c2.88,0,5.27-2.01,5.86-4.71c0.14-0.6,0.18-1.24,0.18-1.9V1308.66z"/>
		<path fill="#004A88" d="M1223.14,1312.52c0.21,4.05,3.91,6.03,8.15,6.03c3.12,0,5.37-0.44,7.54-1.21l1.02,4.73
			c-2.43,1.01-5.61,1.71-9.51,1.71c-8.71,0-13.85-5.15-13.85-12.93c0-6.5,4.21-13.62,13.16-13.62c8.9,0,11.68,7.14,11.68,12.57
			c0,1.17-0.12,2.2-0.26,2.72H1223.14z M1234.76,1307.71c0.02-1.86-0.9-5.83-5.52-5.83c-4.13,0-5.83,3.45-6.13,5.83H1234.76z"/>
		<path fill="#004A88" d="M1246.61,1286.05h6.98v37.14h-6.98V1286.05z"/>
		<path fill="#004A88" d="M1260.75,1286.05h6.98v37.14h-6.98V1286.05z"/>
		<path fill="#004A88" d="M1282.27,1290.66c0,1.98-1.47,3.63-3.93,3.63c-2.34,0-3.81-1.65-3.81-3.63c0-2.02,1.51-3.63,3.88-3.63
			C1280.78,1287.02,1282.24,1288.62,1282.27,1290.66z M1274.89,1323.19v-25.35h6.98v25.35H1274.89z"/>
		<path fill="#004A88" d="M1289.04,1305.61c0-3.02-0.09-5.57-0.21-7.77h6.09l0.33,3.91h0.16c1.07-1.85,3.9-4.52,8.48-4.52
			c4.66,0,9.61,2.89,9.61,11.26v14.7h-6.98v-13.83c0-3.81-1.47-6.51-5.05-6.51c-2.73,0-4.49,1.91-5.16,3.73
			c-0.21,0.51-0.29,1.27-0.29,1.94v14.67h-6.98V1305.61z"/>
		<path fill="#004A88" d="M1345.36,1297.84c-0.12,1.59-0.21,3.6-0.21,7.2v14.3c0,5.05-1.08,9.11-3.98,11.66
			c-2.9,2.51-6.85,3.17-10.43,3.17c-3.48,0-7.22-0.75-9.55-2.17l1.49-5.29c1.73,1.05,4.71,2.14,7.98,2.14
			c4.23,0,7.63-2.15,7.63-7.59v-2.07h-0.1c-1.59,2.28-4.31,3.82-7.86,3.82c-6.51,0-11.45-5.03-11.45-12.36
			c0-8.22,5.7-13.41,12.2-13.41c4.16,0,6.57,1.88,7.87,4.04h0.1l0.23-3.43H1345.36z M1338.17,1308.31c0-0.57-0.04-1.13-0.18-1.62
			c-0.71-2.52-2.69-4.27-5.54-4.27c-3.57,0-6.48,2.87-6.48,8c0,3.91,2.23,7.46,6.47,7.46c2.62,0,4.76-1.74,5.46-4.01
			c0.19-0.65,0.26-1.53,0.26-2.24V1308.31z"/>
		<path fill="#004A88" d="M1371.57,1313.3l-3.11,9.88h-7.31l11.9-35.05h9.11l12.24,35.05h-7.64l-3.36-9.88H1371.57z M1382.2,1308.09
			l-2.91-8.46c-0.72-2.12-1.33-4.37-1.9-6.31h-0.11c-0.54,1.97-1.08,4.24-1.73,6.29l-2.81,8.49H1382.2z"/>
		<path fill="#004A88" d="M1398.96,1305.61c0-3.02-0.09-5.57-0.21-7.77h6.09l0.33,3.91h0.16c1.07-1.85,3.9-4.52,8.48-4.52
			c4.66,0,9.61,2.89,9.61,11.26v14.7h-6.98v-13.83c0-3.81-1.47-6.51-5.05-6.51c-2.73,0-4.49,1.91-5.16,3.73
			c-0.21,0.51-0.29,1.27-0.29,1.94v14.67h-6.98V1305.61z"/>
		<path fill="#004A88" d="M1455.64,1286.05v29.87c0,2.79,0.09,5.63,0.21,7.27h-6.25l-0.29-4.17h-0.11c-1.68,3.08-5,4.77-8.83,4.77
			c-6.27,0-11.57-5.07-11.57-12.96c-0.05-8.41,5.61-13.61,12.15-13.61c3.68,0,6.39,1.43,7.61,3.31h0.1v-14.5H1455.64z
			 M1448.66,1308.66c0-0.5-0.04-1.13-0.15-1.63c-0.61-2.49-2.8-4.51-5.85-4.51c-4.31,0-6.77,3.46-6.77,8.01
			c0,4.46,2.47,7.72,6.71,7.72c2.88,0,5.27-2.01,5.86-4.71c0.14-0.6,0.18-1.24,0.18-1.9V1308.66z"/>
		<path fill="#004A88" d="M1508.28,1305.34c0,11.33-7.64,18.45-18.26,18.45c-10.67,0-17.57-7.63-17.57-17.79
			c0-10.79,7.45-18.47,18.09-18.47C1501.54,1287.53,1508.28,1295.21,1508.28,1305.34z M1479.85,1305.82c0,6.94,4.01,12.5,10.53,12.5
			c6.58,0,10.5-5.48,10.5-12.73c0-6.6-3.72-12.58-10.48-12.58C1483.63,1293,1479.85,1298.78,1479.85,1305.82z"/>
		<path fill="#004A88" d="M1513.88,1306.37c0-3.29-0.09-6.11-0.21-8.53h6.11l0.33,3.99h0.1c2.03-2.94,5.2-4.6,9.4-4.6
			c5.88,0,11.3,4.79,11.3,12.86c0,9.22-6.22,13.71-12.33,13.71c-3.38,0-6.25-1.29-7.63-3.42h-0.1v13.18h-6.98V1306.37z
			 M1520.86,1312.19c0,0.57,0.04,1.1,0.14,1.63c0.62,2.54,2.99,4.67,6.01,4.67c4.19,0,6.81-3.11,6.81-8.03
			c0-4.24-2.3-7.82-6.64-7.82c-2.82,0-5.42,1.97-6.11,4.93c-0.12,0.49-0.21,1.01-0.21,1.5V1312.19z"/>
		<path fill="#004A88" d="M1554.23,1290.48v7.36h6.25v5.21h-6.25v10.22c0,3.1,0.72,4.81,3.39,4.81c1.17,0,2.06-0.14,2.62-0.3
			l0.12,5.28c-1,0.39-2.84,0.72-5.01,0.72c-2.53,0-4.62-0.91-5.85-2.24c-1.43-1.51-2.07-3.98-2.07-7.27v-11.23h-3.68v-5.21h3.68
			v-5.75L1554.23,1290.48z"/>
		<path fill="#004A88" d="M1572.94,1290.66c0,1.98-1.47,3.63-3.93,3.63c-2.34,0-3.81-1.65-3.81-3.63c0-2.02,1.51-3.63,3.88-3.63
			C1571.46,1287.02,1572.91,1288.62,1572.94,1290.66z M1565.57,1323.19v-25.35h6.98v25.35H1565.57z"/>
		<path fill="#004A88" d="M1579.71,1305.61c0-3.02-0.09-5.57-0.21-7.77h5.92l0.3,3.8h0.16c1.18-1.87,3.53-4.41,8.2-4.41
			c3.5,0,6.24,1.96,7.37,4.83h0.1c0.96-1.45,2.08-2.52,3.28-3.27c1.52-1.01,3.19-1.55,5.43-1.55c4.39,0,8.96,2.95,8.96,11.36v14.59
			h-6.77v-13.66c0-4.34-1.63-6.68-4.7-6.68c-2.28,0-3.9,1.58-4.56,3.32c-0.22,0.63-0.35,1.46-0.35,2.14v14.88h-6.77v-14.18
			c0-3.79-1.61-6.16-4.55-6.16c-2.56,0-4.13,2-4.73,3.55c-0.25,0.67-0.33,1.42-0.33,2.11v14.68h-6.77V1305.61z"/>
		<path fill="#004A88" d="M1633.68,1290.66c0,1.98-1.47,3.63-3.93,3.63c-2.34,0-3.81-1.65-3.81-3.63c0-2.02,1.51-3.63,3.88-3.63
			C1632.19,1287.02,1633.65,1288.62,1633.68,1290.66z M1626.3,1323.19v-25.35h6.98v25.35H1626.3z"/>
		<path fill="#004A88" d="M1640.23,1316.9c1.53,0.94,4.6,1.98,7.03,1.98c2.9,0,4.11-1.11,4.11-2.65c0-1.64-1.05-2.42-4.29-3.41
			c-5.31-1.58-7.54-4.38-7.51-7.49c0-4.56,3.91-8.11,10.23-8.11c3.01,0,5.71,0.73,7.27,1.57l-1.33,4.82
			c-1.11-0.6-3.42-1.54-5.84-1.54c-2.27,0-3.57,1-3.57,2.53c0,1.56,1.3,2.3,4.66,3.36c4.94,1.54,7.14,3.88,7.17,7.76
			c0,4.53-3.62,8.06-10.91,8.06c-3.38,0-6.33-0.78-8.38-1.85L1640.23,1316.9z"/>
		<path fill="#004A88" d="M1678.78,1323.19l-0.47-2.79h-0.17c-1.63,2.02-4.44,3.4-7.88,3.4c-5.49,0-8.41-3.82-8.41-7.6
			c0-6.42,5.79-9.74,15.85-9.69v-0.34c0-1.38-0.58-4.13-5.33-4.12c-2.66,0-5.54,0.89-7.33,2l-1.36-4.46
			c2.02-1.21,5.48-2.35,9.85-2.35c8.53,0,11.13,5.19,11.13,10.92v8.85c0,2.41,0.13,4.7,0.41,6.19H1678.78z M1677.9,1310.94
			c-4.96-0.07-9.09,0.97-9.09,4.5c0,2.28,1.57,3.44,3.73,3.44c2.66,0,4.56-1.72,5.18-3.51c0.14-0.45,0.18-0.96,0.18-1.41V1310.94z"
			/>
		<path fill="#004A88" d="M1699.2,1290.48v7.36h6.25v5.21h-6.25v10.22c0,3.1,0.72,4.81,3.39,4.81c1.18,0,2.06-0.14,2.62-0.3
			l0.12,5.28c-1,0.39-2.84,0.72-5.01,0.72c-2.53,0-4.62-0.91-5.85-2.24c-1.43-1.51-2.07-3.98-2.07-7.27v-11.23h-3.68v-5.21h3.68
			v-5.75L1699.2,1290.48z"/>
		<path fill="#004A88" d="M1717.92,1290.66c0,1.98-1.47,3.63-3.93,3.63c-2.34,0-3.81-1.65-3.81-3.63c0-2.02,1.51-3.63,3.88-3.63
			C1716.43,1287.02,1717.88,1288.62,1717.92,1290.66z M1710.54,1323.19v-25.35h6.98v25.35H1710.54z"/>
		<path fill="#004A88" d="M1750.58,1310.22c0,9.07-6.81,13.58-14,13.58c-7.59,0-13.62-5-13.62-13.07c0-8.08,5.67-13.5,14.12-13.5
			C1745.16,1297.23,1750.58,1302.68,1750.58,1310.22z M1730.18,1310.54c0,4.85,2.66,8.27,6.61,8.27c3.74,0,6.56-3.11,6.56-8.36
			c0-3.99-1.93-8.24-6.5-8.24C1732.2,1302.21,1730.18,1306.32,1730.18,1310.54z"/>
		<path fill="#004A88" d="M1756.04,1305.61c0-3.02-0.09-5.57-0.21-7.77h6.09l0.33,3.91h0.16c1.07-1.85,3.9-4.52,8.48-4.52
			c4.66,0,9.61,2.89,9.61,11.26v14.7h-6.98v-13.83c0-3.81-1.47-6.51-5.05-6.51c-2.73,0-4.49,1.91-5.16,3.73
			c-0.21,0.51-0.29,1.27-0.29,1.94v14.67h-6.98V1305.61z"/>
	</g>
</g>
<rect x="1536.96" y="1381.77" fill="none" width="3.31" height="0"/>
<g>
	<g>
		<path fill="#EF7B21" d="M2810.03,1051.06l-20.56,9.92l-38.41-79.63c-2.38,0.41-4.83,0.62-7.32,0.62
			c-23.94,0-43.34-19.41-43.34-43.35c0-12.84,5.59-24.38,14.46-32.31l-39.92-82.76l20.56-9.92l39.79,82.48
			c2.73-0.54,5.56-0.83,8.46-0.83c23.94,0,43.34,19.41,43.34,43.34c0,13.26-5.96,25.13-15.33,33.08L2810.03,1051.06z"/>
		<path fill="#004A88" d="M2701.95,1136.87c4.77,5.03,7.69,11.82,7.69,19.29c0,15.5-12.57,28.07-28.07,28.07
			c-13.32,0-24.47-9.27-27.36-21.71l-153.94-24.15c-5.11,5.33-12.3,8.65-20.26,8.65c-15.5,0-28.08-12.57-28.08-28.08
			c0-7.6,3.02-14.48,7.92-19.54l-38.26-112.35c-14.45-1.16-25.8-13.24-25.8-27.98c0-15.51,12.57-28.08,28.07-28.08
			c3.51,0,6.87,0.65,9.96,1.82l92.43-96.71c-0.79-2.59-1.21-5.34-1.21-8.19c0-15.5,12.57-28.07,28.07-28.07
			c15.51,0,28.08,12.57,28.08,28.07c0,0.13,0,0.25-0.01,0.38l109.63,64.16l-11.21,19.16l-107.57-62.96
			c-4.99,4.55-11.63,7.33-18.92,7.33c-4.45,0-8.67-1.04-12.41-2.89l-90.94,95.15c1.39,3.33,2.16,6.99,2.16,10.82
			c0,8.29-3.59,15.75-9.31,20.88l37.78,110.92c14.72,0.2,26.7,11.72,27.62,26.24l150.12,23.56c4.99-7.54,13.51-12.52,23.2-12.59
			l33.66-123.97l21.42,5.82L2701.95,1136.87z"/>
	</g>
	<path fill="#004A88" d="M2534.2,996.91c0,3.4-2.75,6.15-6.15,6.15s-6.15-2.75-6.15-6.15c0-3.39,2.75-6.15,6.15-6.15
		S2534.2,993.52,2534.2,996.91z"/>
	<path fill="#004A88" d="M2504.05,947.76c0,3.39-2.75,6.15-6.15,6.15c-3.39,0-6.15-2.75-6.15-6.15c0-3.39,2.75-6.15,6.15-6.15
		C2501.3,941.61,2504.05,944.36,2504.05,947.76z"/>
	<path fill="#004A88" d="M2568.9,895.89c0,3.39-2.75,6.15-6.15,6.15c-3.4,0-6.15-2.75-6.15-6.15c0-3.39,2.75-6.15,6.15-6.15
		C2566.15,889.74,2568.9,892.5,2568.9,895.89z"/>
	<path fill="#004A88" d="M2637.91,927.85c0,3.39-2.75,6.15-6.15,6.15c-3.4,0-6.15-2.75-6.15-6.15c0-3.39,2.75-6.15,6.15-6.15
		C2635.16,921.7,2637.91,924.45,2637.91,927.85z"/>
	<path fill="#004A88" d="M2590.05,966.49c0,3.4-2.75,6.15-6.15,6.15c-3.4,0-6.15-2.75-6.15-6.15c0-3.39,2.75-6.15,6.15-6.15
		C2587.3,960.34,2590.05,963.09,2590.05,966.49z"/>
	<path fill="#004A88" d="M2579.9,1041.85c0,3.39-2.75,6.15-6.15,6.15c-3.4,0-6.15-2.75-6.15-6.15c0-3.39,2.75-6.15,6.15-6.15
		C2577.15,1035.7,2579.9,1038.45,2579.9,1041.85z"/>
	<path fill="#004A88" d="M2637.91,1032.32c0,3.39-2.75,6.15-6.15,6.15c-3.4,0-6.15-2.75-6.15-6.15c0-3.39,2.75-6.15,6.15-6.15
		C2635.16,1026.17,2637.91,1028.93,2637.91,1032.32z"/>
	<path fill="#004A88" d="M2661.92,1085.32c0,3.39-2.75,6.15-6.15,6.15c-3.4,0-6.15-2.75-6.15-6.15c0-3.39,2.75-6.15,6.15-6.15
		C2659.17,1079.17,2661.92,1081.92,2661.92,1085.32z"/>
	<path fill="#004A88" d="M2603.51,1102.12c0,3.39-2.75,6.15-6.15,6.15c-3.4,0-6.15-2.75-6.15-6.15c0-3.39,2.75-6.15,6.15-6.15
		C2600.76,1095.97,2603.51,1098.72,2603.51,1102.12z"/>
	<path fill="#004A88" d="M2747.12,1141.21c0,3.4-2.75,6.15-6.15,6.15c-3.39,0-6.15-2.75-6.15-6.15c0-3.39,2.75-6.14,6.15-6.14
		C2744.36,1135.06,2747.12,1137.82,2747.12,1141.21z"/>
	<path fill="#004A88" d="M2762.7,1084.91c0,3.39-2.75,6.15-6.15,6.15c-3.4,0-6.15-2.75-6.15-6.15c0-3.39,2.75-6.15,6.15-6.15
		C2759.95,1078.76,2762.7,1081.52,2762.7,1084.91z"/>
	<path fill="#004A88" d="M2807.57,981.64c0,3.39-2.75,6.15-6.15,6.15c-3.4,0-6.15-2.75-6.15-6.15c0-3.39,2.75-6.15,6.15-6.15
		C2804.81,975.49,2807.57,978.24,2807.57,981.64z"/>
	<path fill="#004A88" d="M2808.42,896.55c0,3.4-2.75,6.15-6.15,6.15c-3.4,0-6.15-2.75-6.15-6.15c0-3.39,2.75-6.15,6.15-6.15
		C2805.67,890.41,2808.42,893.16,2808.42,896.55z"/>
	<path fill="#004A88" d="M2754.7,842.72c0,3.39-2.75,6.15-6.15,6.15c-3.4,0-6.15-2.75-6.15-6.15c0-3.39,2.75-6.15,6.15-6.15
		C2751.95,836.57,2754.7,839.32,2754.7,842.72z"/>
	<path fill="#004A88" d="M2647.06,798.68c0,3.4-2.75,6.15-6.15,6.15c-3.39,0-6.15-2.75-6.15-6.15c0-3.39,2.75-6.15,6.15-6.15
		C2644.31,792.54,2647.06,795.29,2647.06,798.68z"/>
	<path fill="#004A88" d="M2582.75,776.51c0,3.39-2.75,6.15-6.15,6.15c-3.4,0-6.15-2.75-6.15-6.15c0-3.39,2.75-6.15,6.15-6.15
		C2580,770.36,2582.75,773.11,2582.75,776.51z"/>
	<path fill="#004A88" d="M2516.2,793.54c0,3.39-2.75,6.15-6.15,6.15c-3.39,0-6.15-2.75-6.15-6.15c0-3.39,2.75-6.15,6.15-6.15
		C2513.45,787.39,2516.2,790.14,2516.2,793.54z"/>
	<path fill="#004A88" d="M2474.86,839.16c0,3.4-2.75,6.15-6.15,6.15c-3.4,0-6.15-2.75-6.15-6.15c0-3.39,2.75-6.15,6.15-6.15
		C2472.11,833.01,2474.86,835.76,2474.86,839.16z"/>
	<path fill="#004A88" d="M2430.16,883.04c0,3.4-2.75,6.15-6.15,6.15c-3.4,0-6.15-2.75-6.15-6.15c0-3.39,2.75-6.15,6.15-6.15
		C2427.41,876.89,2430.16,879.64,2430.16,883.04z"/>
	<path fill="#004A88" d="M2402.59,1025.06c0,3.39-2.75,6.15-6.15,6.15c-3.4,0-6.15-2.75-6.15-6.15c0-3.39,2.75-6.15,6.15-6.15
		C2399.84,1018.91,2402.59,1021.67,2402.59,1025.06z"/>
	<path fill="#004A88" d="M2422.78,1096.12c0,3.39-2.75,6.15-6.15,6.15s-6.15-2.75-6.15-6.15c0-3.39,2.75-6.15,6.15-6.15
		S2422.78,1092.72,2422.78,1096.12z"/>
	<path fill="#004A88" d="M2499.3,1171.36c0,3.39-2.75,6.15-6.15,6.15c-3.39,0-6.15-2.75-6.15-6.15c0-3.39,2.75-6.15,6.15-6.15
		C2496.55,1165.21,2499.3,1167.96,2499.3,1171.36z"/>
	<path fill="#004A88" d="M2574.9,1188.39c0,3.39-2.75,6.15-6.15,6.15c-3.4,0-6.15-2.75-6.15-6.15c0-3.39,2.75-6.15,6.15-6.15
		C2572.15,1182.24,2574.9,1185,2574.9,1188.39z"/>
	<path fill="#004A88" d="M2646.66,1199.22c0,3.4-2.75,6.15-6.15,6.15c-3.4,0-6.15-2.75-6.15-6.15c0-3.39,2.75-6.14,6.15-6.14
		C2643.91,1193.07,2646.66,1195.83,2646.66,1199.22z"/>
	<path fill="#004A88" d="M2534.64,1089.82c0,3.39-2.75,6.15-6.15,6.15c-3.4,0-6.15-2.75-6.15-6.15c0-3.39,2.75-6.15,6.15-6.15
		C2531.89,1083.68,2534.64,1086.43,2534.64,1089.82z"/>
	<path fill="#004A88" d="M2671.81,989.04c0,3.39-2.75,6.15-6.15,6.15c-3.39,0-6.15-2.75-6.15-6.15c0-3.39,2.75-6.15,6.15-6.15
		C2669.06,982.89,2671.81,985.64,2671.81,989.04z"/>
	<path fill="#004A88" d="M2500.45,1037.02c0,3.4-2.75,6.15-6.15,6.15c-3.4,0-6.15-2.75-6.15-6.15c0-3.39,2.75-6.15,6.15-6.15
		C2497.7,1030.88,2500.45,1033.63,2500.45,1037.02z"/>
	<path fill="#004A88" d="M2384.74,930.85c0,3.39-2.75,6.15-6.15,6.15c-3.4,0-6.15-2.75-6.15-6.15c0-3.39,2.75-6.15,6.15-6.15
		C2381.99,924.7,2384.74,927.45,2384.74,930.85z"/>
</g>
<g>
	<g>
		<path fill="#EF7B21" d="M4808.13,1056.9l-20.56,9.92l-38.41-79.63c-2.38,0.41-4.83,0.62-7.32,0.62
			c-23.94,0-43.34-19.41-43.34-43.35c0-12.84,5.59-24.38,14.46-32.31l-39.92-82.76l20.56-9.92l39.79,82.48
			c2.73-0.54,5.56-0.83,8.46-0.83c23.94,0,43.34,19.41,43.34,43.34c0,13.26-5.96,25.13-15.33,33.08L4808.13,1056.9z"/>
		<path fill="#004A88" d="M4700.05,1142.72c4.77,5.03,7.69,11.82,7.69,19.29c0,15.5-12.57,28.07-28.07,28.07
			c-13.32,0-24.47-9.27-27.36-21.71l-153.94-24.15c-5.11,5.33-12.3,8.65-20.26,8.65c-15.5,0-28.08-12.57-28.08-28.08
			c0-7.6,3.02-14.48,7.92-19.54l-38.26-112.35c-14.45-1.16-25.8-13.24-25.8-27.98c0-15.51,12.57-28.08,28.07-28.08
			c3.51,0,6.87,0.65,9.96,1.82l92.43-96.71c-0.79-2.59-1.21-5.34-1.21-8.19c0-15.5,12.57-28.07,28.07-28.07
			c15.51,0,28.08,12.57,28.08,28.07c0,0.13,0,0.25-0.01,0.38l109.63,64.16l-11.21,19.16l-107.57-62.96
			c-4.99,4.55-11.63,7.33-18.92,7.33c-4.45,0-8.67-1.04-12.41-2.89l-90.94,95.15c1.39,3.33,2.16,6.99,2.16,10.82
			c0,8.29-3.59,15.75-9.31,20.88l37.78,110.92c14.72,0.2,26.7,11.72,27.62,26.24l150.12,23.56c4.99-7.54,13.51-12.52,23.2-12.59
			l33.66-123.97l21.42,5.82L4700.05,1142.72z"/>
	</g>
	<path fill="#004A88" d="M4532.3,1002.76c0,3.4-2.75,6.15-6.15,6.15s-6.15-2.75-6.15-6.15c0-3.39,2.75-6.15,6.15-6.15
		S4532.3,999.36,4532.3,1002.76z"/>
	<path fill="#004A88" d="M4502.16,953.6c0,3.39-2.75,6.15-6.15,6.15c-3.39,0-6.15-2.75-6.15-6.15c0-3.39,2.75-6.15,6.15-6.15
		C4499.4,947.45,4502.16,950.2,4502.16,953.6z"/>
	<path fill="#004A88" d="M4567,901.73c0,3.39-2.75,6.15-6.15,6.15c-3.4,0-6.15-2.75-6.15-6.15c0-3.39,2.75-6.15,6.15-6.15
		C4564.25,895.59,4567,898.34,4567,901.73z"/>
	<path fill="#004A88" d="M4636.01,933.69c0,3.39-2.75,6.15-6.15,6.15c-3.4,0-6.15-2.75-6.15-6.15c0-3.39,2.75-6.15,6.15-6.15
		C4633.26,927.54,4636.01,930.3,4636.01,933.69z"/>
	<path fill="#004A88" d="M4588.15,972.33c0,3.4-2.75,6.15-6.15,6.15c-3.4,0-6.15-2.75-6.15-6.15c0-3.39,2.75-6.15,6.15-6.15
		C4585.4,966.19,4588.15,968.94,4588.15,972.33z"/>
	<path fill="#004A88" d="M4578,1047.69c0,3.39-2.75,6.15-6.15,6.15c-3.4,0-6.15-2.75-6.15-6.15c0-3.39,2.75-6.15,6.15-6.15
		C4575.25,1041.54,4578,1044.29,4578,1047.69z"/>
	<path fill="#004A88" d="M4636.01,1038.16c0,3.39-2.75,6.15-6.15,6.15c-3.4,0-6.15-2.75-6.15-6.15c0-3.39,2.75-6.15,6.15-6.15
		C4633.26,1032.01,4636.01,1034.77,4636.01,1038.16z"/>
	<path fill="#004A88" d="M4660.02,1091.16c0,3.39-2.75,6.15-6.15,6.15c-3.4,0-6.15-2.75-6.15-6.15c0-3.39,2.75-6.15,6.15-6.15
		C4657.27,1085.01,4660.02,1087.77,4660.02,1091.16z"/>
	<path fill="#004A88" d="M4601.61,1107.96c0,3.39-2.75,6.15-6.15,6.15s-6.15-2.75-6.15-6.15s2.75-6.15,6.15-6.15
		S4601.61,1104.57,4601.61,1107.96z"/>
	<path fill="#004A88" d="M4745.22,1147.05c0,3.4-2.75,6.15-6.15,6.15c-3.39,0-6.15-2.75-6.15-6.15c0-3.39,2.75-6.14,6.15-6.14
		C4742.46,1140.91,4745.22,1143.66,4745.22,1147.05z"/>
	<path fill="#004A88" d="M4760.8,1090.75c0,3.39-2.75,6.15-6.15,6.15c-3.4,0-6.15-2.75-6.15-6.15c0-3.39,2.75-6.15,6.15-6.15
		C4758.05,1084.61,4760.8,1087.36,4760.8,1090.75z"/>
	<path fill="#004A88" d="M4805.67,987.48c0,3.39-2.75,6.15-6.15,6.15c-3.4,0-6.15-2.75-6.15-6.15c0-3.39,2.75-6.15,6.15-6.15
		C4802.92,981.33,4805.67,984.08,4805.67,987.48z"/>
	<path fill="#004A88" d="M4806.52,902.4c0,3.4-2.75,6.15-6.15,6.15c-3.4,0-6.15-2.75-6.15-6.15c0-3.39,2.75-6.15,6.15-6.15
		C4803.77,896.25,4806.52,899,4806.52,902.4z"/>
	<path fill="#004A88" d="M4752.8,848.56c0,3.39-2.75,6.15-6.15,6.15c-3.4,0-6.15-2.75-6.15-6.15c0-3.39,2.75-6.15,6.15-6.15
		C4750.05,842.41,4752.8,845.16,4752.8,848.56z"/>
	<path fill="#004A88" d="M4645.16,804.53c0,3.4-2.75,6.15-6.15,6.15c-3.39,0-6.15-2.75-6.15-6.15c0-3.39,2.75-6.15,6.15-6.15
		C4642.41,798.38,4645.16,801.13,4645.16,804.53z"/>
	<path fill="#004A88" d="M4580.85,782.35c0,3.39-2.75,6.15-6.15,6.15c-3.4,0-6.15-2.75-6.15-6.15c0-3.39,2.75-6.15,6.15-6.15
		C4578.1,776.2,4580.85,778.96,4580.85,782.35z"/>
	<path fill="#004A88" d="M4514.3,799.38c0,3.39-2.75,6.15-6.15,6.15c-3.39,0-6.15-2.75-6.15-6.15c0-3.39,2.75-6.15,6.15-6.15
		C4511.55,793.23,4514.3,795.99,4514.3,799.38z"/>
	<path fill="#004A88" d="M4472.96,845c0,3.4-2.75,6.15-6.15,6.15c-3.4,0-6.15-2.75-6.15-6.15c0-3.39,2.75-6.15,6.15-6.15
		C4470.21,838.85,4472.96,841.61,4472.96,845z"/>
	<path fill="#004A88" d="M4428.26,888.88c0,3.4-2.75,6.15-6.15,6.15c-3.4,0-6.15-2.75-6.15-6.15c0-3.39,2.75-6.15,6.15-6.15
		C4425.51,882.73,4428.26,885.49,4428.26,888.88z"/>
	<path fill="#004A88" d="M4400.69,1030.9c0,3.39-2.75,6.15-6.15,6.15c-3.4,0-6.15-2.75-6.15-6.15c0-3.39,2.75-6.15,6.15-6.15
		C4397.94,1024.76,4400.69,1027.51,4400.69,1030.9z"/>
	<path fill="#004A88" d="M4420.88,1101.96c0,3.39-2.75,6.15-6.15,6.15s-6.15-2.75-6.15-6.15c0-3.39,2.75-6.15,6.15-6.15
		S4420.88,1098.57,4420.88,1101.96z"/>
	<path fill="#004A88" d="M4497.4,1177.2c0,3.39-2.75,6.15-6.15,6.15c-3.39,0-6.15-2.75-6.15-6.15c0-3.39,2.75-6.15,6.15-6.15
		C4494.65,1171.05,4497.4,1173.81,4497.4,1177.2z"/>
	<path fill="#004A88" d="M4573,1194.24c0,3.39-2.75,6.15-6.15,6.15c-3.4,0-6.15-2.75-6.15-6.15c0-3.39,2.75-6.15,6.15-6.15
		C4570.25,1188.09,4573,1190.84,4573,1194.24z"/>
	<path fill="#004A88" d="M4644.76,1205.06c0,3.4-2.75,6.15-6.15,6.15c-3.4,0-6.15-2.75-6.15-6.15c0-3.39,2.75-6.14,6.15-6.14
		C4642.01,1198.92,4644.76,1201.67,4644.76,1205.06z"/>
	<path fill="#004A88" d="M4532.74,1095.67c0,3.39-2.75,6.15-6.15,6.15c-3.4,0-6.15-2.75-6.15-6.15c0-3.39,2.75-6.15,6.15-6.15
		C4529.99,1089.52,4532.74,1092.27,4532.74,1095.67z"/>
	<path fill="#004A88" d="M4669.91,994.88c0,3.39-2.75,6.15-6.15,6.15c-3.39,0-6.15-2.75-6.15-6.15c0-3.39,2.75-6.15,6.15-6.15
		C4667.16,988.73,4669.91,991.49,4669.91,994.88z"/>
	<path fill="#004A88" d="M4498.55,1042.87c0,3.4-2.75,6.15-6.15,6.15c-3.4,0-6.15-2.75-6.15-6.15c0-3.39,2.75-6.15,6.15-6.15
		C4495.8,1036.72,4498.55,1039.47,4498.55,1042.87z"/>
	<path fill="#004A88" d="M4382.84,936.69c0,3.39-2.75,6.15-6.15,6.15c-3.4,0-6.15-2.75-6.15-6.15c0-3.39,2.75-6.15,6.15-6.15
		C4380.09,930.54,4382.84,933.3,4382.84,936.69z"/>
</g>
<rect x="852.64" y="794.82" fill="none" width="977.41" height="448.76"/>
<text transform="matrix(0.9779 0 0 1 893.8976 1137.9966)"><tspan x="0" y="0" fill="#004A88" font-family="'STIXGeneral-Regular'" font-size="410px" letter-spacing="-25.56">Γ</tspan><tspan x="215" y="0" fill="#004A88" font-family="'MyriadPro-Regular'" font-size="410px">-</tspan><tspan x="341.48" y="0" fill="#004A88" font-family="'UbuntuMonoDerivativePowerline-Regular'" font-size="410px" letter-spacing="-14.32">o</tspan><tspan x="531.72" y="0" fill="#004A88" font-family="'UbuntuMonoDerivativePowerline-Regular'" font-size="410px" letter-spacing="-26.59">p</tspan><tspan x="710.11" y="0" fill="#004A88" font-family="'UbuntuMonoDerivativePowerline-Regular'" font-size="410px" letter-spacing="-5.11">t</tspan></text>
<g>
	<g>
		<path fill="#EF7B21" d="M779.35,1063.14l-20.56,9.92l-38.41-79.63c-2.38,0.41-4.83,0.62-7.32,0.62
			c-23.94,0-43.34-19.41-43.34-43.35c0-12.84,5.59-24.38,14.46-32.31l-39.92-82.76l20.56-9.92l39.79,82.48
			c2.73-0.54,5.56-0.83,8.46-0.83c23.94,0,43.34,19.41,43.34,43.34c0,13.26-5.96,25.13-15.33,33.08L779.35,1063.14z"/>
		<path fill="#004A88" d="M671.27,1148.96c4.77,5.03,7.69,11.82,7.69,19.29c0,15.5-12.57,28.07-28.07,28.07
			c-13.32,0-24.47-9.27-27.36-21.71l-153.94-24.15c-5.11,5.33-12.3,8.65-20.26,8.65c-15.5,0-28.08-12.57-28.08-28.08
			c0-7.6,3.02-14.48,7.92-19.54l-38.26-112.35c-14.45-1.16-25.8-13.24-25.8-27.98c0-15.51,12.57-28.08,28.07-28.08
			c3.51,0,6.87,0.65,9.96,1.82l92.43-96.71c-0.79-2.59-1.21-5.34-1.21-8.19c0-15.5,12.57-28.07,28.07-28.07
			c15.51,0,28.08,12.57,28.08,28.07c0,0.13,0,0.25-0.01,0.38l109.63,64.16l-11.21,19.16l-107.57-62.96
			c-4.99,4.55-11.63,7.33-18.92,7.33c-4.45,0-8.67-1.04-12.41-2.89l-90.94,95.15c1.39,3.33,2.16,6.99,2.16,10.82
			c0,8.29-3.59,15.75-9.31,20.88l37.78,110.92c14.72,0.2,26.7,11.72,27.62,26.24l150.12,23.56c4.99-7.54,13.51-12.52,23.2-12.59
			l33.66-123.97l21.42,5.82L671.27,1148.96z"/>
	</g>
	<path fill="#004A88" d="M503.53,1008.99c0,3.4-2.75,6.15-6.15,6.15c-3.39,0-6.15-2.75-6.15-6.15c0-3.39,2.75-6.15,6.15-6.15
		C500.78,1002.85,503.53,1005.6,503.53,1008.99z"/>
	<path fill="#004A88" d="M473.38,959.84c0,3.39-2.75,6.15-6.15,6.15c-3.39,0-6.15-2.75-6.15-6.15c0-3.39,2.75-6.15,6.15-6.15
		C470.63,953.69,473.38,956.44,473.38,959.84z"/>
	<path fill="#004A88" d="M538.23,907.97c0,3.39-2.75,6.15-6.15,6.15c-3.4,0-6.15-2.75-6.15-6.15c0-3.39,2.75-6.15,6.15-6.15
		C535.48,901.83,538.23,904.58,538.23,907.97z"/>
	<path fill="#004A88" d="M607.24,939.93c0,3.39-2.75,6.15-6.15,6.15c-3.4,0-6.15-2.75-6.15-6.15c0-3.39,2.75-6.15,6.15-6.15
		C604.49,933.78,607.24,936.53,607.24,939.93z"/>
	<path fill="#004A88" d="M559.37,978.57c0,3.4-2.75,6.15-6.15,6.15c-3.4,0-6.15-2.75-6.15-6.15c0-3.39,2.75-6.15,6.15-6.15
		C556.62,972.42,559.37,975.18,559.37,978.57z"/>
	<path fill="#004A88" d="M549.23,1053.93c0,3.39-2.75,6.15-6.15,6.15c-3.4,0-6.15-2.75-6.15-6.15c0-3.39,2.75-6.15,6.15-6.15
		C546.48,1047.78,549.23,1050.53,549.23,1053.93z"/>
	<path fill="#004A88" d="M607.24,1044.4c0,3.39-2.75,6.15-6.15,6.15c-3.4,0-6.15-2.75-6.15-6.15c0-3.39,2.75-6.15,6.15-6.15
		C604.49,1038.25,607.24,1041.01,607.24,1044.4z"/>
	<path fill="#004A88" d="M631.25,1097.4c0,3.39-2.75,6.15-6.15,6.15c-3.4,0-6.15-2.75-6.15-6.15c0-3.39,2.75-6.15,6.15-6.15
		C628.5,1091.25,631.25,1094.01,631.25,1097.4z"/>
	<path fill="#004A88" d="M572.84,1114.2c0,3.39-2.75,6.15-6.15,6.15c-3.4,0-6.15-2.75-6.15-6.15s2.75-6.15,6.15-6.15
		C570.09,1108.05,572.84,1110.8,572.84,1114.2z"/>
	<path fill="#004A88" d="M716.44,1153.29c0,3.4-2.75,6.15-6.15,6.15c-3.39,0-6.15-2.75-6.15-6.15c0-3.39,2.75-6.14,6.15-6.14
		C713.69,1147.15,716.44,1149.9,716.44,1153.29z"/>
	<path fill="#004A88" d="M732.03,1096.99c0,3.39-2.75,6.15-6.15,6.15c-3.4,0-6.15-2.75-6.15-6.15c0-3.39,2.75-6.15,6.15-6.15
		C729.28,1090.85,732.03,1093.6,732.03,1096.99z"/>
	<path fill="#004A88" d="M776.89,993.72c0,3.39-2.75,6.15-6.15,6.15c-3.4,0-6.15-2.75-6.15-6.15c0-3.39,2.75-6.15,6.15-6.15
		C774.14,987.57,776.89,990.32,776.89,993.72z"/>
	<path fill="#004A88" d="M777.75,908.63c0,3.4-2.75,6.15-6.15,6.15c-3.4,0-6.15-2.75-6.15-6.15c0-3.39,2.75-6.15,6.15-6.15
		C774.99,902.49,777.75,905.24,777.75,908.63z"/>
	<path fill="#004A88" d="M724.03,854.8c0,3.39-2.75,6.15-6.15,6.15c-3.4,0-6.15-2.75-6.15-6.15c0-3.39,2.75-6.15,6.15-6.15
		C721.28,848.65,724.03,851.4,724.03,854.8z"/>
	<path fill="#004A88" d="M616.38,810.77c0,3.4-2.75,6.15-6.15,6.15c-3.39,0-6.15-2.75-6.15-6.15c0-3.39,2.75-6.15,6.15-6.15
		C613.63,804.62,616.38,807.37,616.38,810.77z"/>
	<path fill="#004A88" d="M552.08,788.59c0,3.39-2.75,6.15-6.15,6.15c-3.4,0-6.15-2.75-6.15-6.15c0-3.39,2.75-6.15,6.15-6.15
		C549.33,782.44,552.08,785.2,552.08,788.59z"/>
	<path fill="#004A88" d="M485.53,805.62c0,3.39-2.75,6.15-6.15,6.15c-3.39,0-6.15-2.75-6.15-6.15c0-3.39,2.75-6.15,6.15-6.15
		C482.78,799.47,485.53,802.23,485.53,805.62z"/>
	<path fill="#004A88" d="M444.19,851.24c0,3.4-2.75,6.15-6.15,6.15c-3.4,0-6.15-2.75-6.15-6.15c0-3.39,2.75-6.15,6.15-6.15
		C441.44,845.09,444.19,847.84,444.19,851.24z"/>
	<path fill="#004A88" d="M399.49,895.12c0,3.4-2.75,6.15-6.15,6.15c-3.4,0-6.15-2.75-6.15-6.15c0-3.39,2.75-6.15,6.15-6.15
		C396.74,888.97,399.49,891.72,399.49,895.12z"/>
	<path fill="#004A88" d="M371.92,1037.14c0,3.39-2.75,6.15-6.15,6.15c-3.4,0-6.15-2.75-6.15-6.15c0-3.39,2.75-6.15,6.15-6.15
		C369.17,1030.99,371.92,1033.75,371.92,1037.14z"/>
	<path fill="#004A88" d="M392.11,1108.2c0,3.39-2.75,6.15-6.15,6.15c-3.39,0-6.15-2.75-6.15-6.15c0-3.39,2.75-6.15,6.15-6.15
		C389.36,1102.05,392.11,1104.81,392.11,1108.2z"/>
	<path fill="#004A88" d="M468.63,1183.44c0,3.39-2.75,6.15-6.15,6.15c-3.39,0-6.15-2.75-6.15-6.15c0-3.39,2.75-6.15,6.15-6.15
		C465.88,1177.29,468.63,1180.05,468.63,1183.44z"/>
	<path fill="#004A88" d="M544.23,1200.47c0,3.39-2.75,6.15-6.15,6.15c-3.4,0-6.15-2.75-6.15-6.15c0-3.39,2.75-6.15,6.15-6.15
		C541.48,1194.33,544.23,1197.08,544.23,1200.47z"/>
	<path fill="#004A88" d="M615.99,1211.3c0,3.4-2.75,6.15-6.15,6.15c-3.4,0-6.15-2.75-6.15-6.15c0-3.39,2.75-6.14,6.15-6.14
		C613.24,1205.16,615.99,1207.91,615.99,1211.3z"/>
	<path fill="#004A88" d="M503.97,1101.91c0,3.39-2.75,6.15-6.15,6.15c-3.4,0-6.15-2.75-6.15-6.15c0-3.39,2.75-6.15,6.15-6.15
		C501.22,1095.76,503.97,1098.51,503.97,1101.91z"/>
	<path fill="#004A88" d="M641.14,1001.12c0,3.39-2.75,6.15-6.15,6.15c-3.39,0-6.15-2.75-6.15-6.15c0-3.39,2.75-6.15,6.15-6.15
		C638.39,994.97,641.14,997.73,641.14,1001.12z"/>
	<path fill="#004A88" d="M469.78,1049.11c0,3.4-2.75,6.15-6.15,6.15c-3.4,0-6.15-2.75-6.15-6.15c0-3.39,2.75-6.15,6.15-6.15
		C467.02,1042.96,469.78,1045.71,469.78,1049.11z"/>
	<path fill="#004A88" d="M354.07,942.93c0,3.39-2.75,6.15-6.15,6.15c-3.4,0-6.15-2.75-6.15-6.15c0-3.39,2.75-6.15,6.15-6.15
		C351.31,936.78,354.07,939.53,354.07,942.93z"/>
</g>
</svg>
